<?xml version="1.0" encoding="UTF-8"?>
<svg width="108px" height="46px" viewBox="0 0 108 46" version="1.1" xmlns="http://www.w3.org/2000/svg" xmlns:xlink="http://www.w3.org/1999/xlink">
    <!-- Generator: Sketch 49.3 (51167) - http://www.bohemiancoding.com/sketch -->
    <title>mcj0UG_1_</title>
    <desc>Created with Sketch.</desc>
    <defs></defs>
    <g id="Page-1" stroke="none" stroke-width="1" fill="none" fill-rule="evenodd">
        <g id="plork-logos" transform="translate(-860.000000, -96.000000)" fill-rule="nonzero">
            <g id="mcj0UG_1_" transform="translate(860.000000, 96.000000)">
                <g id="Group">
                    <path d="M0.7,45.2 C0.7,30.4 0.7,15.5 0.7,0.7 C36.3,0.7 71.9,0.7 107.5,0.7 C107.5,15.5 107.5,30.4 107.5,45.2 C71.9,45.2 36.3,45.2 0.7,45.2 Z M44,5.3 C43.8,5.3 43.5,5.3 43.3,5.3 C41.7,5.4 40.3,5.7 39.1,6.8 C38.2,7.6 37.7,8.5 38,9.7 C38.2,10.4 38.5,11 38.8,11.6 C39.4,12.8 40.1,13.8 41.1,14.6 C42.3,15.6 43.5,16.5 44.8,17.3 C46.2,18.3 47.7,19.1 49.2,20 C50.9,21.1 52.6,22.1 54.3,23.2 C56,24.3 57.7,25.4 59.1,26.8 C60.1,27.8 60.8,28.9 61.1,30.3 C61.3,31.3 61.5,32.2 61.6,33.2 C61.7,34.3 61.7,35.4 61.4,36.4 C61.1,37.4 60.5,38.4 60.1,39.4 C59.8,40 59.5,40.6 59.2,41.2 C58.9,41.9 59.1,42.2 59.8,42.2 C60.4,42.2 60.9,42.2 61.5,42 C64,41.5 66.3,40.5 68.5,39.5 C70.4,38.6 72.3,37.5 74,36.3 C75.7,35 77.1,33.6 77.6,31.4 C77.9,30.3 77.8,29.2 77.2,28.2 C76.5,26.9 75.5,26 74.3,25.2 C72.9,24.2 71.5,23.2 70,22.2 C68.5,21.2 67,20.3 65.5,19.4 C63.5,18.2 61.5,16.9 59.5,15.6 C56.8,13.9 54.6,11.6 52.4,9.4 C51.4,8.4 50.4,7.5 49.3,6.6 C47.8,5.6 46,5.2 44,5.3 Z M23.2,43.4 C23.2,43.4 23.3,43.5 23.3,43.5 C23.4,43.5 23.5,43.4 23.6,43.4 C24.4,43.4 25.3,43.4 26.1,43.3 C26.4,43.3 26.7,43.2 27,43.1 C28.7,42.1 30.1,40.9 31.5,39.6 C32.3,38.9 32.9,38.1 33.6,37.3 C34.2,36.6 34.8,35.9 35.2,35.1 C36.1,33.5 36.4,31.8 36.1,29.9 C36,29.6 36.2,29.4 36.5,29.4 C37.3,29.4 38,29.4 38.8,29.4 C39.5,29.4 40.2,29.3 40.8,28.9 C41.5,28.4 41.7,27.8 41.2,27 C40.9,26.5 40.6,26.1 40.2,25.7 C38.6,24.4 37,23.2 35.4,22 C33,20.3 30.6,18.6 28.2,16.9 C26.7,15.8 25.3,14.7 24.1,13.3 C22.8,11.9 21.6,10.4 20.4,9 C19.8,8.3 19.3,7.6 18.6,7.1 C17.2,5.9 15.5,5.5 13.7,5.5 C11.7,5.4 9.7,5.5 7.8,5.5 C7.6,5.5 7.5,5.5 7.3,5.5 C7.2,5.5 7.1,5.7 7.1,5.7 C7.3,6.6 7.4,7.4 7.6,8.3 C8,9.4 8.8,10.3 9.5,11.3 C11.1,13.6 13.2,15.3 15.6,16.8 C17.9,18.3 20.2,19.7 22.5,21.1 C25.1,22.7 27.6,24.3 30,26.2 C31,27 31.9,28 32.2,29.3 C32.8,31.2 32.5,33.1 31.7,34.9 C31.2,35.9 30.5,36.7 29.8,37.5 C29.3,38 29,38.6 28.5,39.1 C27.1,40.3 25.6,41.5 24.1,42.7 C23.7,42.9 23.5,43.1 23.2,43.4 Z M93.1,39.7 C93.2,39.7 93.2,39.8 93.3,39.8 C94.6,39.7 95.9,39.7 97.2,39.6 C97.4,39.6 97.6,39.5 97.8,39.3 C98.3,38.6 98.8,37.9 99.4,37.3 C100.2,36.2 100.4,35 100.2,33.8 C100,32.5 99.4,31.4 98.8,30.3 C98.5,29.8 98.3,29.3 98.2,28.7 C98.2,28.2 98,27.7 97.7,27.4 C97.1,26.7 96.5,26 95.8,25.4 C94.2,24.2 92.6,23.1 91,21.9 C89.1,20.5 87.3,19.1 85.4,17.7 C84.2,16.7 83.1,15.6 82.3,14.2 C82.1,13.8 81.8,13.7 81.3,13.7 C80.3,13.7 79.4,13.6 78.4,13.6 C78.2,13.6 78.1,13.6 77.9,13.7 C78,13.9 78,14 78.1,14.2 C78.9,15.4 79.9,16.5 81,17.4 C83.4,19.2 85.8,20.9 88.2,22.6 C89.8,23.8 91.4,25 93,26.2 C93.4,26.6 93.7,27.1 94.1,27.6 C94.2,27.7 94.1,27.8 94.2,27.9 C94.2,27.9 94.1,27.9 94.1,28 C93,26.5 91.6,25.5 90.2,24.5 C88,23 85.7,21.6 83.4,20.1 C81.6,18.9 79.7,17.8 77.9,16.6 C76.7,15.8 75.5,14.9 74.5,13.9 C73.8,13.3 73.2,12.4 72.6,11.7 C71.2,10.1 70.1,8.3 70,6.1 C70,5.9 69.8,5.8 69.6,5.8 C68.6,5.8 67.7,5.8 66.7,5.8 C66.4,5.8 66.3,5.9 66.4,6.2 C66.6,7.5 66.9,8.8 67.7,9.9 C68.8,11.6 70.1,13.2 71.6,14.5 C73.3,16 75.2,17.2 77.2,18.4 C80,20.1 82.8,21.8 85.5,23.6 C86.9,24.5 88.3,25.6 89.6,26.7 C90.7,27.6 91.4,28.8 91.6,30.3 C91.8,32.7 91.3,34.9 89.6,36.7 C88.6,37.8 87.4,38.7 86.2,39.7 C86.1,39.8 86,39.9 85.8,40.1 C86,40.1 86.2,40.2 86.3,40.2 C87.1,40.2 87.8,40.2 88.5,40.1 C89.1,40.1 89.6,40 90.1,39.6 C91,38.8 91.9,38 92.9,37.1 C93.6,36.5 94.2,35.7 94.6,34.8 C95.2,33.6 95.4,32.3 95.4,30.9 C95.4,30.8 95.4,30.7 95.4,30.6 C95.5,30.7 95.6,30.8 95.7,30.9 C95.9,31.4 96.2,32 96.3,32.5 C96.9,34.4 96.7,36.2 95.3,37.8 C94.3,38.3 93.7,39 93.1,39.7 Z M58.3,35.3 C58.3,35.3 58.2,35.2 58.2,35.2 C57.5,35.2 56.8,35.2 56.2,35.2 C54.5,35.2 52.8,35.2 51.1,35.2 C50.6,35.2 50.6,35.1 50.8,34.7 C51,34 51.3,33.2 51.4,32.5 C51.6,31.3 51.6,30 51,28.9 C50.4,27.5 49.3,26.5 48.2,25.7 C46.5,24.5 44.8,23.3 43.1,22.2 C40.2,20.3 37.2,18.6 34.3,16.7 C33.1,15.9 31.9,15 30.8,14 C29.8,13 28.9,11.9 28,10.7 C26.9,9.4 26.3,7.8 26.2,6.1 C26.2,5.8 26.1,5.7 25.8,5.7 C24.8,5.7 23.8,5.7 22.8,5.7 C22.6,5.7 22.5,5.7 22.3,5.7 C22.4,7 22.6,8.3 23.3,9.4 C24.7,11.6 26.2,13.6 28.3,15.1 C30.1,16.4 32,17.6 33.9,18.8 C36,20.1 38.1,21.3 40.1,22.6 C42,23.8 43.9,25.1 45.6,26.6 C46.7,27.6 47.5,28.9 47.7,30.4 C47.9,32 47.6,33.5 46.8,35 C45.8,36.8 44.4,38.3 42.8,39.7 C41.8,40.6 40.7,41.4 39.6,42.3 C39.5,42.4 39.4,42.5 39.3,42.7 C39.3,42.7 39.3,42.8 39.4,42.8 C39.8,42.8 40.2,42.7 40.7,42.7 C43.6,42.5 46.5,42.4 49.4,42.2 C49.6,42.2 49.8,42.2 50.1,42.2 C50.8,42.2 51.5,42.1 52,41.6 C54,40.1 55.9,38.5 57.5,36.7 C57.6,36.3 57.9,35.7 58.3,35.3 Z M59.9,13.4 C60.1,13.6 60.1,13.7 60.2,13.8 C61.4,14.7 62.6,15.8 63.9,16.6 C65.8,17.8 67.7,18.9 69.6,20.1 C71.6,21.3 73.6,22.6 75.5,23.9 C76.7,24.7 77.8,25.6 78.9,26.6 C80.2,27.7 80.9,29.2 80.9,30.8 C81,32.9 80.4,34.8 79,36.5 C78,37.8 76.7,38.8 75.4,39.7 C75.3,39.8 75.3,39.8 75.2,39.9 C75.4,39.9 75.5,40 75.6,40 C76.4,40 77.3,40.1 78.1,40 C78.5,40 78.9,39.7 79.2,39.5 C79.4,39.4 79.5,39.3 79.7,39.1 C80.7,38.2 81.7,37.3 82.6,36.4 C83.7,35.2 84.3,33.8 84.5,32.2 C84.9,29.7 84.2,27.4 82.2,25.8 C80.5,24.4 78.6,23.2 76.9,21.9 C76,21.2 75.2,20.5 74.4,19.8 C74.3,19.7 74.2,19.5 74.1,19.3 C74.3,19.2 74.5,19.1 74.7,19.1 C74.9,19.1 75.1,19.1 75.3,19.1 C75.3,19.1 75.3,19 75.3,19 C75.2,18.9 75.1,18.8 75,18.8 C74,18.1 72.9,17.5 71.9,16.8 C70.4,15.8 68.9,14.7 67.6,13.5 C67.2,13.1 66,13.1 65.7,13.5 C65.5,13.7 65.4,14.1 65.5,14.3 C65.6,14.7 65.9,15 66.2,15.4 C66.4,15.6 66.6,15.9 66.7,16.1 C66.7,16.1 66.6,16.2 66.6,16.2 C66.4,16.1 66.2,16 66,15.8 C65.4,15.3 64.7,14.9 64.1,14.3 C63.4,13.6 62.6,13.3 61.6,13.4 C61.1,13.4 60.6,13.4 59.9,13.4 Z" id="Shape" fill="#FFFFFF"></path>
                    <path d="M44,5.3 C45.9,5.3 47.8,5.7 49.3,6.8 C50.4,7.6 51.4,8.6 52.4,9.6 C54.7,11.8 56.9,14.1 59.5,15.8 C61.5,17.1 63.5,18.3 65.5,19.6 C67,20.5 68.5,21.4 70,22.4 C71.5,23.4 72.9,24.3 74.3,25.4 C75.4,26.2 76.5,27.1 77.2,28.4 C77.7,29.4 77.9,30.5 77.6,31.6 C77,33.7 75.6,35.2 74,36.5 C72.3,37.8 70.4,38.8 68.5,39.7 C66.2,40.7 63.9,41.7 61.5,42.2 C60.9,42.3 60.4,42.4 59.8,42.4 C59.1,42.4 58.9,42 59.2,41.4 C59.5,40.8 59.8,40.2 60.1,39.6 C60.6,38.6 61.1,37.6 61.4,36.6 C61.7,35.6 61.7,34.5 61.6,33.4 C61.5,32.4 61.3,31.4 61.1,30.5 C60.8,29.2 60.1,28 59.1,27 C57.7,25.6 56,24.5 54.3,23.4 C52.6,22.3 50.9,21.3 49.2,20.2 C47.7,19.3 46.3,18.4 44.8,17.5 C43.5,16.6 42.3,15.7 41.1,14.8 C40.1,14 39.4,12.9 38.8,11.8 C38.5,11.2 38.2,10.5 38,9.9 C37.7,8.7 38.2,7.8 39.1,7 C40.3,6 41.8,5.6 43.3,5.5 C43.6,5.2 43.8,5.3 44,5.3 Z M73.7,30 C73.8,29.2 73.3,28.3 72.7,27.5 C72,26.6 71.2,25.8 70.2,25.2 C68.5,24 66.9,22.9 65.2,21.8 C63.5,20.7 61.7,19.7 60,18.6 C58.7,17.8 57.3,17 56.1,16.1 C54.6,15.1 53.2,14 51.8,12.8 C50.5,11.8 49.4,10.7 48.1,9.7 C47,8.8 45.7,8.2 44.2,8.4 C43,8.5 42.2,9.1 42.6,10.4 C43,12 43.9,13.3 45.1,14.5 C46.4,15.7 47.9,16.7 49.4,17.7 C52,19.3 54.7,20.9 57.3,22.6 C58.9,23.6 60.5,24.8 62.1,25.9 C64,27.3 65.1,29.2 65.4,31.6 C65.5,32.6 65.8,33.6 66.1,34.6 C66.4,35.7 67,36.1 68.4,36 C69.6,35.9 70.7,35.4 71.7,34.6 C72.8,33.4 73.7,32.1 73.7,30 Z" id="Shape" fill="#000000"></path>
                    <path d="M23.2,43.4 C23.5,43.2 23.7,42.9 24,42.7 C25.5,41.5 26.9,40.3 28.4,39.1 C28.9,38.7 29.3,38 29.7,37.5 C30.4,36.7 31.2,35.9 31.6,34.9 C32.4,33.1 32.7,31.2 32.1,29.3 C31.7,28 30.9,27.1 29.9,26.2 C27.6,24.3 25,22.7 22.4,21.1 C20.1,19.7 17.8,18.3 15.5,16.8 C13.2,15.3 11.1,13.6 9.4,11.3 C8.7,10.3 7.9,9.4 7.5,8.3 C7.2,7.5 7.1,6.6 7,5.7 C7,5.6 7.1,5.5 7.2,5.5 C7.3,5.5 7.5,5.5 7.7,5.5 C9.7,5.5 11.7,5.5 13.6,5.5 C15.4,5.5 17.1,6 18.5,7.1 C19.2,7.7 19.7,8.4 20.3,9 C21.5,10.4 22.7,11.9 24,13.3 C25.2,14.6 26.6,15.8 28.1,16.9 C30.5,18.6 32.9,20.2 35.3,22 C36.9,23.2 38.5,24.5 40.1,25.7 C40.5,26 40.8,26.5 41.1,27 C41.6,27.7 41.4,28.4 40.7,28.9 C40.1,29.3 39.4,29.4 38.7,29.4 C37.9,29.4 37.2,29.4 36.4,29.4 C36,29.4 35.9,29.5 36,29.9 C36.3,31.7 36,33.5 35.1,35.1 C34.7,35.9 34.1,36.6 33.5,37.3 C32.8,38.1 32.2,38.9 31.4,39.6 C30,40.9 28.6,42.1 26.9,43.1 C26.6,43.2 26.3,43.3 26,43.3 C25.2,43.3 24.3,43.3 23.5,43.4 C23.4,43.4 23.3,43.4 23.2,43.5 C23.2,43.5 23.2,43.4 23.2,43.4 Z M11.5,8.8 C11.6,9.1 11.7,9.2 11.7,9.3 C13.3,11.9 15.3,14.2 17.9,16 C18.4,16.3 18.9,16.7 19.4,16.9 C20,17.1 20.7,17 21.4,17 C21.7,17 22.1,16.9 22.1,16.8 C22.2,16.6 22,16.2 21.9,16 C21.9,16 21.9,15.9 21.8,15.9 C21.2,15.2 20.5,14.4 19.9,13.7 C19,12.6 18,11.6 17,10.5 C16.1,9.5 15,9 13.7,8.9 C13.1,8.8 12.4,8.8 11.5,8.8 Z" id="Shape" fill="#000000"></path>
                    <path d="M93.1,39.7 C93.7,39 94.3,38.3 94.9,37.6 C96.3,36 96.5,34.2 95.9,32.3 C95.7,31.7 95.5,31.2 95.3,30.7 C95.3,30.6 95.2,30.5 95,30.4 C95,30.5 95,30.6 95,30.7 C95.1,32.1 94.8,33.4 94.2,34.6 C93.8,35.5 93.2,36.2 92.5,36.9 C91.6,37.7 90.7,38.5 89.7,39.4 C89.2,39.8 88.7,39.9 88.1,39.9 C87.4,39.9 86.6,40 85.9,40 C85.8,40 85.6,40 85.4,39.9 C85.6,39.7 85.7,39.6 85.8,39.5 C87,38.6 88.2,37.7 89.2,36.5 C90.8,34.7 91.4,32.5 91.2,30.1 C91.1,28.6 90.3,27.4 89.2,26.5 C87.9,25.4 86.5,24.3 85.1,23.4 C82.4,21.6 79.6,19.9 76.8,18.2 C74.9,17 73,15.8 71.2,14.3 C69.6,13 68.4,11.3 67.3,9.7 C66.5,8.6 66.2,7.3 66,6 C66,5.8 66,5.6 66.3,5.6 C67.3,5.6 68.2,5.6 69.2,5.6 C69.4,5.6 69.6,5.7 69.6,5.9 C69.7,8.1 70.8,9.9 72.2,11.5 C72.8,12.3 73.4,13.1 74.1,13.7 C75.2,14.7 76.3,15.6 77.5,16.4 C79.3,17.6 81.2,18.7 83,19.9 C85.3,21.3 87.6,22.8 89.8,24.3 C91.3,25.3 92.7,26.4 93.7,27.8 C93.7,27.8 93.8,27.8 93.8,27.7 C93.8,27.6 93.8,27.5 93.7,27.4 C93.3,26.9 93,26.4 92.6,26 C91,24.7 89.5,23.5 87.8,22.4 C85.4,20.6 83,19 80.6,17.2 C79.4,16.3 78.4,15.2 77.7,14 C77.6,13.9 77.6,13.7 77.5,13.5 C77.7,13.5 77.8,13.4 78,13.4 C79,13.4 79.9,13.5 80.9,13.5 C81.4,13.5 81.6,13.6 81.9,14 C82.7,15.3 83.8,16.5 85,17.5 C86.8,18.9 88.7,20.3 90.6,21.7 C92.2,22.9 93.8,24 95.4,25.2 C96.1,25.8 96.8,26.5 97.3,27.2 C97.6,27.6 97.8,28.1 97.8,28.5 C97.8,29.1 98.1,29.6 98.4,30.1 C99,31.2 99.6,32.3 99.8,33.6 C100,34.9 99.8,36.1 99,37.1 C98.5,37.8 98,38.5 97.4,39.1 C97.3,39.2 97,39.4 96.8,39.4 C95.5,39.5 94.2,39.5 92.9,39.6 C93.2,39.7 93.2,39.7 93.1,39.7 Z" id="Shape" fill="#000000"></path>
                    <path d="M58.3,35.3 C58,35.8 57.7,36.3 57.3,36.7 C55.7,38.6 53.8,40.2 51.8,41.6 C51.2,42 50.6,42.2 49.9,42.2 C49.7,42.2 49.5,42.2 49.2,42.2 C46.3,42.4 43.4,42.5 40.5,42.7 C40.1,42.7 39.7,42.8 39.2,42.8 C39.2,42.8 39.2,42.7 39.1,42.7 C39.2,42.6 39.3,42.4 39.4,42.3 C40.5,41.4 41.6,40.7 42.6,39.7 C44.2,38.3 45.6,36.8 46.6,35 C47.4,33.6 47.7,32 47.5,30.4 C47.4,28.9 46.6,27.6 45.4,26.6 C43.7,25 41.8,23.8 39.9,22.6 C37.8,21.3 35.7,20.1 33.7,18.8 C31.8,17.6 29.9,16.4 28.1,15.1 C26,13.6 24.4,11.5 23.1,9.4 C22.4,8.3 22.2,7 22.1,5.7 C22.3,5.7 22.4,5.7 22.6,5.7 C23.6,5.7 24.6,5.7 25.6,5.7 C25.9,5.7 26,5.8 26,6.1 C26.1,7.8 26.7,9.4 27.8,10.7 C28.7,11.8 29.6,13 30.6,14 C31.7,15 32.9,15.9 34.1,16.7 C37,18.6 40,20.3 42.9,22.2 C44.6,23.3 46.3,24.5 48,25.7 C49.2,26.6 50.2,27.6 50.8,28.9 C51.3,30.1 51.4,31.3 51.2,32.5 C51.1,33.2 50.8,34 50.6,34.7 C50.5,35.2 50.5,35.2 50.9,35.2 C52.6,35.2 54.3,35.2 56,35.2 C56.7,35.2 57.4,35.2 58,35.2 C58.2,35.2 58.2,35.2 58.3,35.3 Z" id="Shape" fill="#000000"></path>
                    <path d="M59.9,13.4 C60.6,13.4 61.1,13.4 61.7,13.4 C62.7,13.3 63.5,13.6 64.2,14.3 C64.7,14.9 65.4,15.3 66.1,15.8 C66.3,15.9 66.5,16.1 66.7,16.2 C66.7,16.2 66.8,16.1 66.8,16.1 C66.6,15.9 66.4,15.6 66.3,15.4 C66.1,15 65.8,14.7 65.6,14.3 C65.5,14.1 65.6,13.7 65.8,13.5 C66.1,13.1 67.4,13.2 67.7,13.5 C69,14.8 70.5,15.9 72,16.8 C73,17.5 74.1,18.1 75.1,18.8 C75.2,18.9 75.3,19 75.4,19 C75.4,19 75.4,19.1 75.4,19.1 C75.2,19.1 75,19.1 74.8,19.1 C74.6,19.1 74.4,19.2 74.2,19.3 C74.3,19.5 74.3,19.7 74.5,19.8 C75.3,20.5 76.2,21.2 77,21.9 C78.8,23.2 80.6,24.5 82.3,25.8 C84.3,27.4 85,29.6 84.6,32.2 C84.4,33.8 83.8,35.2 82.7,36.4 C81.8,37.4 80.8,38.2 79.8,39.1 C79.7,39.2 79.5,39.4 79.3,39.5 C78.9,39.7 78.6,39.9 78.2,40 C77.4,40.1 76.5,40 75.7,40 C75.6,40 75.5,40 75.3,39.9 C75.4,39.8 75.5,39.7 75.5,39.7 C76.8,38.7 78.1,37.7 79.1,36.5 C80.5,34.9 81.1,33 81,30.8 C80.9,29.1 80.3,27.7 79,26.6 C77.9,25.7 76.8,24.7 75.6,23.9 C73.7,22.6 71.7,21.3 69.7,20.1 C67.8,18.9 65.8,17.8 64,16.6 C62.7,15.8 61.6,14.7 60.3,13.8 C60.1,13.7 60,13.6 59.9,13.4 Z" id="Shape" fill="#000000"></path>
                    <path d="M73.7,30 C73.7,32 72.9,33.4 71.6,34.5 C70.7,35.3 69.6,35.8 68.3,35.9 C66.9,36 66.4,35.6 66,34.5 C65.7,33.5 65.4,32.5 65.3,31.5 C65,29.1 63.9,27.2 62,25.8 C60.5,24.6 58.9,23.5 57.2,22.5 C54.6,20.8 52,19.3 49.3,17.6 C47.8,16.7 46.3,15.7 45,14.4 C43.8,13.3 42.9,12 42.5,10.3 C42.2,9 43,8.4 44.1,8.3 C45.6,8.1 46.9,8.7 48,9.6 C49.3,10.6 50.5,11.7 51.7,12.7 C53.1,13.8 54.5,14.9 56,16 C57.3,16.9 58.6,17.7 59.9,18.5 C61.6,19.6 63.4,20.6 65.1,21.7 C66.8,22.8 68.5,24 70.1,25.1 C71,25.8 71.9,26.5 72.6,27.4 C73.3,28.4 73.7,29.2 73.7,30 Z" id="Shape" fill="#FFFFFF"></path>
                    <path d="M11.5,8.8 C12.4,8.8 13.1,8.8 13.9,8.8 C15.2,8.8 16.3,9.4 17.2,10.4 C18.2,11.5 19.1,12.5 20.1,13.6 C20.7,14.3 21.4,15.1 22,15.8 C22,15.8 22.1,15.9 22.1,15.9 C22.2,16.2 22.3,16.5 22.3,16.7 C22.3,16.8 21.8,16.9 21.6,16.9 C20.9,16.9 20.2,16.9 19.6,16.8 C19,16.6 18.5,16.3 18.1,15.9 C15.5,14.1 13.5,11.9 11.9,9.2 C11.7,9.2 11.6,9.1 11.5,8.8 Z" id="Shape" fill="#FFFFFF"></path>
                </g>
            </g>
        </g>
    </g>
</svg>