<?xml version="1.0" encoding="UTF-8"?>
<svg width="119px" height="49px" viewBox="0 0 119 49" version="1.1" xmlns="http://www.w3.org/2000/svg" xmlns:xlink="http://www.w3.org/1999/xlink">
    <!-- Generator: Sketch 49.3 (51167) - http://www.bohemiancoding.com/sketch -->
    <title>okYAdW_1_</title>
    <desc>Created with Sketch.</desc>
    <defs></defs>
    <g id="Page-1" stroke="none" stroke-width="1" fill="none" fill-rule="evenodd">
        <g id="plork-logos" transform="translate(0.000000, -286.000000)" fill-rule="nonzero">
            <g id="okYAdW_1_" transform="translate(0.000000, 286.000000)">
                <g id="Group">
                    <path d="M0.7,48.8 C0.7,32.7 0.7,16.6 0.7,0.4 C40,0.4 79.4,0.4 118.8,0.4 C118.8,16.5 118.8,32.6 118.8,48.8 C79.5,48.8 40.1,48.8 0.7,48.8 Z M78.5,21.3 C78.4,20.8 78.3,19.7 77.9,18.7 C77.3,17 76,15.9 74.6,14.9 C72.2,13.2 69.6,12 66.8,11.1 C64.5,10.4 62.1,9.9 59.6,9.9 C58.6,9.9 57.6,10.1 56.6,10.3 C55.8,10.5 55.2,11.2 55,12 C54.8,13.1 55.1,14.2 55.4,15.3 C55.8,16.6 55.7,18 55.4,19.3 C55,21 54.7,22.7 54.5,24.5 C54.4,25.5 54.6,26.5 54.7,27.5 C54.8,29.2 55.2,30.8 55.6,32.5 C56.2,34.6 57.4,36.1 59.4,36.9 C61.7,37.8 64.2,38 66.6,37.4 C69.2,36.8 71.5,35.7 73.4,33.8 C74.4,32.8 75.4,31.7 76.1,30.6 C78.1,27.9 78.5,24.9 78.5,21.3 Z M7.2,7.7 C7.2,7.8 7.2,7.8 7.2,7.8 C7.2,7.9 7.3,7.9 7.4,7.9 C10.3,9.6 12.8,11.9 14.9,14.6 C15.9,15.9 16.8,17.2 16.8,18.9 C16.8,20 16.6,21.1 16.4,22.2 C16.2,23.5 16,24.7 15.8,26 C15.6,27.3 15.4,28.6 15.1,29.9 C14.9,30.7 14.7,31.4 14.5,32.2 C14.4,32.5 14.2,32.9 14.8,32.9 C16.1,33 17.5,33.1 18.9,33.2 C19.2,33.2 19.4,33.1 19.6,32.7 C20.7,29.9 21,26.9 21.3,23.9 C21.4,23.4 21.5,23.2 22.1,23.2 C23.6,23.3 25.2,23.5 26.7,23.4 C29.2,23.3 31.4,22.6 33,20.6 C33.8,19.6 34.6,18.4 34,17 C33.6,16.1 33.1,15.2 32.4,14.4 C31.1,12.9 29.5,11.7 27.6,10.8 C23.9,9 20,8 15.9,7.8 C14.1,7.7 12.3,7.6 10.5,7.5 C9.3,7.6 8.3,7.7 7.2,7.7 Z M93.9,12.6 C93.9,12.7 93.8,12.7 93.8,12.8 C94.1,13.2 94.4,13.6 94.8,13.9 C95.8,15 96.9,16.1 97.1,17.7 C97.3,18.8 97.3,19.9 97.2,21.1 C97,23.2 96.7,25.2 96.4,27.2 C96.1,29.9 95.3,32.4 94.4,34.9 C93.9,36.2 93.4,37.5 92.9,38.7 C92.8,39.1 92.8,39.3 93.3,39.3 C94.6,39.4 95.9,39.5 97.1,39.6 C97.5,39.6 97.7,39.5 97.8,39.2 C98.8,36.3 99.9,33.4 100.9,30.5 C101,30.3 101.1,30.1 101.2,29.9 C101.2,29.9 101.3,29.9 101.3,29.9 C101.5,30.7 101.7,31.5 101.8,32.3 C102.1,34.6 102.3,37 102.5,39.3 C102.5,39.7 102.7,39.9 103.1,39.9 C104.7,40 106.3,40.1 108,40.2 C108.4,40.2 108.5,40.1 108.4,39.7 C108.2,39 108.1,38.3 107.9,37.6 C107.3,35 107.2,32.3 106.3,29.8 C106.2,29.6 106.3,29.2 106.5,29 C108,27.3 109.6,25.7 111.1,24 C111.7,23.4 112.3,22.8 112.9,22.2 C112.7,22.1 112.6,22.1 112.5,22.1 C111,22 109.4,21.8 107.9,21.7 C107.6,21.7 107.3,21.8 107.1,22 C105.4,24 103.7,26 102,28 C101.9,28.1 101.8,28.1 101.6,28.2 C101.6,28.1 101.5,27.9 101.5,27.8 C101.6,26.6 101.8,25.5 101.9,24.3 C102.1,22.8 102.3,21.3 102.4,19.8 C102.5,19.2 102.4,18.5 102.3,17.9 C102,16.2 100.8,15 99.7,13.7 C99.3,13.1 98.7,13 98.1,13 C97.2,12.9 96.2,12.9 95.3,12.8 C94.8,12.7 94.3,12.6 93.9,12.6 Z M29.7,8.7 C29.7,8.8 29.7,8.8 29.6,8.9 C29.9,9.2 30.3,9.4 30.6,9.7 C32.5,11.2 34.1,12.9 35.6,14.7 C37,16.3 37.6,18.2 37.3,20.4 C36.9,22.4 36.8,24.5 36.5,26.6 C36.3,27.8 36.2,28.9 35.9,30.1 C35.5,31.5 35.1,32.9 34.6,34.2 C34.5,34.5 34.4,34.8 35,34.9 C36.7,35 38.3,35.2 40,35.3 C42.9,35.5 45.9,35.8 48.8,36 C49.8,36.1 49.8,36.1 50.2,35.1 C50.3,34.9 50.4,34.7 50.4,34.5 C50.7,33.7 51,32.9 51.3,32 C51.4,31.8 51.6,31.4 51.1,31.3 C50.4,31.2 49.7,31.1 49,31.1 C46.6,30.9 44.2,30.8 41.7,30.6 C41.1,30.6 41.1,30.4 41.2,29.9 C41.4,29.1 41.5,28.2 41.7,27.4 C42,25.2 42.2,23 42.5,20.8 C42.8,18.9 42.6,17.2 41.4,15.6 C39.8,13.4 37.9,11.4 35.7,9.7 C35.1,9.2 34.5,9 33.7,9 C33.2,9 32.6,8.9 32.1,8.9 C31.3,8.8 30.5,8.7 29.7,8.7 Z M87.2,23.2 C87.3,22.5 87.3,21.9 87.4,21.4 C87.5,20.6 87.4,20.5 86.7,20.4 C85.6,20.3 84.5,20.3 83.4,20.2 C83,20.2 82.9,20.3 82.8,20.7 C82.6,22.8 82.5,24.8 82.3,26.9 C82.1,28.3 81.9,29.6 81.5,30.9 C80.8,33.1 80,35.3 79.2,37.5 C78.9,38.2 79,38.4 79.8,38.4 C81,38.5 82.1,38.6 83.3,38.6 C83.7,38.6 83.9,38.5 84,38.1 C84.4,37.1 84.7,36.1 85.2,35.1 C86.2,32.6 86.8,30 87.5,27.5 C87.8,26.4 88.4,25.6 89.5,25.3 C90.3,25.1 91.1,25.1 91.9,25.1 C92.9,25.1 93,25.1 93.1,24.1 C93.2,23.1 93.4,22.1 93.5,21.1 C93.5,20.8 93.5,20.6 93.1,20.6 C91.7,20.6 90.4,20.6 89.2,21.4 C88.4,21.9 87.9,22.5 87.2,23.2 Z" id="Shape" fill="#FFFFFF"></path>
                    <path d="M78.5,21.3 C78.5,24.9 78.1,27.9 76.4,30.6 C75.7,31.8 74.7,32.8 73.7,33.8 C71.8,35.7 69.5,36.8 66.9,37.4 C64.5,38 62,37.8 59.7,36.9 C57.7,36.1 56.5,34.6 55.9,32.5 C55.4,30.9 55.1,29.2 55,27.5 C54.9,26.5 54.7,25.5 54.8,24.5 C55,22.8 55.3,21 55.7,19.3 C56,17.9 56,16.6 55.7,15.3 C55.4,14.2 55.1,13.2 55.3,12 C55.5,11.1 56,10.5 56.9,10.3 C57.9,10.1 58.9,9.9 59.9,9.9 C62.4,9.9 64.7,10.4 67.1,11.1 C69.9,12 72.5,13.3 74.9,14.9 C76.3,15.9 77.6,17 78.2,18.7 C78.3,19.7 78.4,20.8 78.5,21.3 Z M60.3,26.4 C60.4,27 60.5,28.1 60.6,29.2 C60.6,29.5 60.8,29.8 60.8,30.1 C61.1,31.1 61.5,32 62.4,32.6 C63.7,33.5 65.2,33.6 66.6,33.2 C68.8,32.7 70.4,31.3 71.4,29.3 C72.6,26.9 73,24.3 73,21.6 C73,19.5 72.4,17.6 70.6,16.3 C68.5,14.8 66.3,13.9 63.7,14.1 C62.6,14.2 62.1,14.7 61.9,15.7 C61.8,16.7 61.7,17.8 61.4,18.8 C60.8,21.1 60.4,23.5 60.3,26.4 Z" id="Shape" fill="#000000"></path>
                    <path d="M7.2,7.7 C8.3,7.7 9.4,7.7 10.4,7.7 C12.2,7.8 14,7.9 15.8,8 C19.9,8.3 23.8,9.2 27.5,11 C29.3,11.9 30.9,13.1 32.3,14.6 C33,15.3 33.5,16.2 33.9,17.2 C34.5,18.6 33.7,19.7 32.9,20.8 C31.3,22.8 29.1,23.6 26.6,23.6 C25.1,23.6 23.6,23.5 22,23.4 C21.5,23.4 21.3,23.6 21.2,24.1 C20.9,27.1 20.5,30.1 19.5,32.9 C19.4,33.3 19.2,33.4 18.8,33.4 C17.4,33.3 16.1,33.2 14.7,33.1 C14.1,33 14.4,32.6 14.4,32.4 C14.6,31.6 14.9,30.9 15,30.1 C15.3,28.8 15.4,27.5 15.7,26.2 C15.9,24.9 16.1,23.7 16.3,22.4 C16.5,21.3 16.7,20.2 16.7,19.1 C16.8,17.4 15.9,16 14.8,14.8 C12.6,12.2 10.2,9.9 7.3,8.1 C7.2,8.1 7.2,8 7.1,8 C7.2,7.8 7.2,7.7 7.2,7.7 Z M17.6,11.9 C17.7,12 17.7,12.1 17.8,12.2 C18.6,13.1 19.4,13.9 20.1,14.9 C21,16 21.8,17.1 21.8,18.6 C21.8,19.2 22,19.4 22.6,19.3 C22.8,19.3 23.1,19.3 23.3,19.4 C24.5,19.6 25.6,19.6 26.8,19.4 C27.5,19.3 28.2,18.5 28.2,17.8 C28.3,16.9 27.9,16.2 27.4,15.5 C25.7,13.4 23.5,12.2 20.8,12 C19.8,11.9 18.9,11.9 17.9,11.9 C17.8,11.7 17.7,11.8 17.6,11.9 Z" id="Shape" fill="#000000"></path>
                    <path d="M93.9,12.6 C94.3,12.6 94.8,12.7 95.2,12.7 C96.1,12.8 97.1,12.8 98,12.9 C98.6,12.9 99.1,13.1 99.6,13.6 C100.6,14.9 101.8,16.1 102.2,17.8 C102.3,18.4 102.4,19.1 102.3,19.7 C102.2,21.2 101.9,22.7 101.8,24.2 C101.7,25.4 101.5,26.5 101.4,27.7 C101.4,27.8 101.5,28 101.5,28.1 C101.6,28 101.8,28 101.9,27.9 C103.6,25.9 105.3,23.9 107,21.9 C107.2,21.7 107.5,21.6 107.8,21.6 C109.3,21.7 110.9,21.8 112.4,22 C112.5,22 112.6,22.1 112.8,22.1 C112.2,22.8 111.5,23.3 111,23.9 C109.5,25.6 107.9,27.2 106.4,28.9 C106.2,29.1 106.1,29.5 106.2,29.7 C107.1,32.2 107.3,34.9 107.8,37.5 C108,38.2 108.1,38.9 108.3,39.6 C108.4,39.9 108.3,40.1 107.9,40.1 C106.3,40 104.7,39.9 103,39.8 C102.6,39.8 102.5,39.6 102.4,39.2 C102.2,36.9 101.9,34.5 101.7,32.2 C101.6,31.4 101.4,30.6 101.2,29.8 C101.2,29.8 101.1,29.8 101.1,29.8 C101,30 100.9,30.2 100.8,30.4 C99.8,33.3 98.7,36.2 97.7,39.1 C97.6,39.4 97.4,39.6 97,39.5 C95.7,39.4 94.4,39.3 93.2,39.2 C92.8,39.2 92.7,39 92.8,38.6 C93.3,37.3 93.8,36 94.3,34.8 C95.3,32.3 96.1,29.8 96.3,27.1 C96.5,25.1 96.9,23 97.1,21 C97.2,19.9 97.2,18.7 97,17.6 C96.8,16.1 95.7,15 94.7,13.8 C94.4,13.4 94.1,13 93.7,12.7 C93.8,12.7 93.8,12.6 93.9,12.6 Z" id="Shape" fill="#000000"></path>
                    <path d="M29.7,8.7 C30.5,8.7 31.3,8.8 32.1,8.8 C32.6,8.8 33.2,8.9 33.7,8.9 C34.5,8.9 35.1,9.1 35.7,9.6 C37.9,11.3 39.8,13.3 41.4,15.5 C42.6,17.1 42.7,18.9 42.5,20.7 C42.2,22.9 42,25.1 41.7,27.3 C41.6,28.1 41.4,29 41.2,29.8 C41.1,30.4 41.2,30.5 41.7,30.5 C44.1,30.7 46.5,30.8 49,31 C49.7,31 50.4,31.1 51.1,31.2 C51.6,31.3 51.4,31.7 51.3,31.9 C51,32.7 50.7,33.5 50.4,34.4 C50.3,34.6 50.2,34.8 50.2,35 C49.9,35.9 49.9,36 48.8,35.9 C45.9,35.7 42.9,35.4 40,35.2 C38.3,35.1 36.7,34.9 35,34.8 C34.5,34.8 34.5,34.4 34.6,34.1 C35,32.7 35.5,31.4 35.9,30 C36.2,28.9 36.3,27.7 36.5,26.5 C36.8,24.4 37,22.4 37.3,20.3 C37.7,18.1 37,16.3 35.6,14.6 C34.1,12.8 32.5,11 30.6,9.6 C30.3,9.3 29.9,9.1 29.6,8.8 C29.7,8.8 29.7,8.7 29.7,8.7 Z" id="Shape" fill="#000000"></path>
                    <path d="M87.2,23.2 C87.9,22.5 88.4,21.9 89.1,21.4 C90.2,20.5 91.6,20.5 93,20.6 C93.4,20.6 93.4,20.8 93.4,21.1 C93.3,22.1 93.2,23.1 93,24.1 C92.9,25.1 92.8,25.1 91.8,25.1 C91,25.1 90.2,25.2 89.4,25.3 C88.3,25.6 87.7,26.4 87.4,27.5 C86.7,30.1 86.1,32.7 85.1,35.1 C84.7,36.1 84.3,37.1 83.9,38.1 C83.8,38.5 83.5,38.6 83.2,38.6 C82,38.5 80.9,38.5 79.7,38.4 C78.9,38.3 78.9,38.2 79.1,37.5 C79.9,35.3 80.8,33.2 81.4,30.9 C81.8,29.6 82,28.2 82.2,26.9 C82.4,24.8 82.6,22.8 82.7,20.7 C82.7,20.3 82.9,20.2 83.3,20.2 C84.4,20.3 85.5,20.3 86.6,20.4 C87.3,20.4 87.5,20.6 87.3,21.4 C87.3,21.9 87.2,22.5 87.2,23.2 Z" id="Shape" fill="#000000"></path>
                    <path d="M60.3,26.4 C60.4,23.5 60.8,21.2 61.4,18.9 C61.7,17.9 61.7,16.8 61.9,15.8 C62.1,14.7 62.6,14.2 63.7,14.2 C66.3,14 68.5,14.9 70.6,16.4 C72.5,17.7 73,19.6 73,21.7 C73,24.4 72.7,27 71.4,29.4 C70.4,31.4 68.8,32.8 66.6,33.3 C65.2,33.6 63.7,33.6 62.4,32.7 C61.6,32.1 61.1,31.2 60.8,30.2 C60.7,29.9 60.6,29.6 60.6,29.3 C60.5,28.1 60.4,27 60.3,26.4 Z" id="Shape" fill="#FFFFFF"></path>
                    <path d="M17.6,11.9 C17.7,11.8 17.8,11.8 17.9,11.8 C18.9,11.8 19.8,11.8 20.8,11.9 C23.5,12.1 25.7,13.3 27.4,15.4 C27.9,16.1 28.3,16.8 28.2,17.7 C28.1,18.4 27.5,19.2 26.8,19.3 C25.6,19.5 24.5,19.6 23.3,19.3 C23.1,19.3 22.8,19.2 22.6,19.2 C22,19.3 21.8,19.1 21.8,18.5 C21.8,17 21,15.9 20.1,14.8 C19.4,13.9 18.6,13 17.8,12.1 C17.8,12.1 17.7,12 17.6,11.9 Z" id="Shape" fill="#FFFFFF"></path>
                </g>
            </g>
        </g>
    </g>
</svg>