<?xml version="1.0" encoding="UTF-8"?>
<svg width="130px" height="42px" viewBox="0 0 130 42" version="1.1" xmlns="http://www.w3.org/2000/svg" xmlns:xlink="http://www.w3.org/1999/xlink">
    <!-- Generator: Sketch 49.3 (51167) - http://www.bohemiancoding.com/sketch -->
    <title>nNUNJa_1_</title>
    <desc>Created with Sketch.</desc>
    <defs></defs>
    <g id="Page-1" stroke="none" stroke-width="1" fill="none" fill-rule="evenodd">
        <g id="plork-logos" transform="translate(-542.000000, -143.000000)" fill-rule="nonzero">
            <g id="nNUNJa_1_" transform="translate(542.000000, 143.000000)">
                <g id="Group">
                    <path d="M0.2,41.1 C0.2,27.7 0.2,14.3 0.2,0.9 C43.2,0.9 86.1,0.9 129.1,0.9 C129.1,14.3 129.1,27.7 129.1,41.1 C86.2,41.1 43.2,41.1 0.2,41.1 Z M76.6,36.9 C79.2,36.8 81.7,36.3 84,35 C85.6,34.2 86.9,33.1 87.7,31.5 C88.1,30.7 88.4,29.8 88.2,28.8 C88,28 87.7,27.2 87.1,26.6 C86.1,25.6 85.2,24.3 84,23.6 C81.8,22.2 79.5,21.1 77.2,19.9 C74.7,18.6 72.2,17.3 69.7,16 C66.4,14.2 63.6,11.7 61.2,8.8 C60.2,7.6 58.9,6.6 57.4,6.1 C56.5,5.8 55.5,5.6 54.5,5.4 C52.6,5 50.7,5.3 48.9,5.8 C47.5,6.2 46.4,6.9 45.3,7.9 C43.9,9.1 43.5,10.9 44.3,12.3 C44.8,13.1 45.4,13.9 46.1,14.5 C48.3,16.4 50.9,17.8 53.5,19.2 C55.3,20.2 57.1,21.1 59,22 C61.2,23.1 63.1,24.5 64.9,26.1 C66,27.1 67,28.1 67.7,29.5 C68.5,31 69.3,32.5 70.1,33.9 C70.5,34.5 71,35.2 71.6,35.6 C73.1,36.7 74.8,37 76.6,36.9 Z M29.1,38.3 C29.3,38.4 29.4,38.4 29.6,38.4 C30.9,38.4 32.2,38.3 33.5,38.2 C33.7,38.2 33.9,38 34,37.9 C34.8,36.7 35.4,35.3 35.7,33.9 C35.9,32.6 35.9,31.3 35.6,30 C35.5,29.6 35.5,29.4 36,29.3 C36.9,29.2 37.8,29.2 38.7,29.1 C39.4,29 40.2,28.9 40.9,28.7 C41.7,28.4 42.4,28 42.4,27.1 C42.4,25.9 42,24.9 41.1,24.1 C39.6,22.7 37.7,21.8 35.8,20.8 C33.1,19.2 30.3,17.8 27.6,16.2 C26.2,15.4 25,14.4 23.8,13.3 C22.7,12.2 21.8,10.9 20.9,9.6 C20.2,8.7 19.5,7.8 18.4,7.3 C17,6.5 15.4,6.2 13.9,6.1 C12.1,6 10.3,6 8.6,6 C7.6,6 6.6,6 5.5,6 C5.2,6 5,6.1 5,6.4 C4.7,9.4 5.6,11.9 7.9,13.9 C9.6,15.4 11.6,16.7 13.6,17.8 C16.4,19.2 19.2,20.7 21.9,22.1 C23.2,22.8 24.6,23.5 25.8,24.4 C27,25.3 28,26.3 29.1,27.3 C29.9,28 30.4,28.9 30.6,30 C31.1,32.7 30.8,35.2 29.4,37.6 C29.4,37.7 29.3,37.9 29.1,38.3 Z M102,21.1 C102,21.2 101.9,21.2 101.9,21.3 C101.2,20.9 100.4,20.6 99.7,20.2 C97.1,18.8 94.5,17.5 92,16.1 C90.2,15.1 88.4,13.8 87.2,12.1 C86.4,11 85.9,9.9 85.9,8.5 C85.9,7.8 85.9,7.1 85.9,6.4 C85.9,6.2 85.7,5.9 85.6,5.9 C84.2,5.9 82.9,5.9 81.5,5.9 C81.4,5.9 81.2,6.1 81.2,6.3 C80.9,9.1 81.7,11.5 83.8,13.4 C85.6,15.1 87.6,16.3 89.8,17.4 C92.7,18.9 95.6,20.4 98.5,21.9 C101,23.1 103.2,24.7 105,26.7 C105.5,27.3 106.1,27.9 106.4,28.7 C107.2,30.5 107.3,32.4 106.7,34.3 C106.6,34.7 106.7,34.8 107.1,34.8 C108.3,34.7 109.6,34.7 110.8,34.6 C111.2,34.6 111.5,34.5 111.6,34 C111.6,33.6 111.8,33.2 111.8,32.7 C111.9,31 111.8,29.2 110.7,27.8 C109.8,26.7 108.7,25.7 107.7,24.6 C107.5,24.4 107.2,24.2 107,24 C107,23.9 107.1,23.9 107.1,23.8 C107.5,24.1 108,24.3 108.4,24.6 C110.6,26 112.8,27.5 114.3,29.8 C115,31 115.9,32.2 116.2,33.6 C116.3,34.1 116.5,34.2 117,34.2 C118.4,34.1 119.9,34 121.3,33.9 C122,33.9 122.1,33.8 121.7,33.1 C120.3,30.4 118.6,28 116,26.2 C114.3,25 112.6,23.9 110.8,23.1 C109.7,22.6 108.6,22.2 107.7,21.5 C105.9,20.3 104.2,18.9 102.5,17.5 C101.1,16.4 99.8,15.2 98.9,13.6 C98.8,13.5 98.6,13.4 98.5,13.4 C97,13.4 95.5,13.4 94,13.4 C93.7,13.4 93.6,13.6 93.8,13.8 C94.1,14.2 94.4,14.5 94.7,14.9 C96.6,16.9 98.9,18.5 101.1,20 C101.3,20.5 101.7,20.8 102,21.1 Z M49,37.5 C49.1,37.5 49.2,37.6 49.4,37.6 C50.1,37.6 50.8,37.5 51.4,37.5 C55.4,37.3 59.4,37.2 63.5,37 C63.9,37 64.2,36.8 64.3,36.5 C64.6,35.7 65,34.9 65.2,34 C65.4,33.2 65.6,32.9 64.4,33.1 C64.3,33.1 64.3,33.1 64.2,33.1 C61.4,33.2 58.6,33.4 55.8,33.5 C55.4,33.5 55.2,33.3 55.2,32.9 C55.2,31.2 55.3,29.4 54.2,28 C52.8,26.1 51.1,24.5 49,23.3 C46,21.6 42.9,20.1 39.9,18.5 C38.7,17.9 37.4,17.3 36.3,16.5 C34.9,15.5 33.5,14.5 32.1,13.4 C30.9,12.4 30.1,11.2 29.8,9.7 C29.6,8.7 29.6,7.6 29.5,6.6 C29.5,5.9 29.5,5.8 28.8,5.8 C27.5,5.8 26.3,5.8 25,5.8 C24.7,5.8 24.6,5.9 24.6,6.2 C24.6,6.8 24.6,7.3 24.6,7.9 C24.6,9.5 25.1,10.9 26,12.2 C27.5,14.3 29.6,15.6 31.7,16.8 C34.6,18.5 37.7,20 40.7,21.5 C43,22.7 45.4,23.9 47.2,25.8 C48.5,27.1 50,28.4 50.1,30.4 C50.2,31.6 50.3,32.8 50.1,33.9 C50.1,35.1 49.5,36.3 49,37.5 Z M71.3,14.2 C71.5,14.4 71.6,14.6 71.7,14.7 C73.7,15.9 75.7,17.1 77.8,18.3 C79.6,19.3 81.4,20.1 83.2,21 C84.6,21.7 85.9,22.4 87.2,23.1 C88.7,24 90,25.2 91.2,26.4 C93.3,28.3 93.8,30.7 93.4,33.3 C93.3,34 93,34.7 92.8,35.5 C93,35.5 93.1,35.6 93.3,35.6 C94.5,35.6 95.7,35.5 97,35.5 C97.5,35.5 97.7,35.3 97.8,34.9 C98,34 98.2,33.1 98.3,32.2 C98.4,30.5 98.1,28.8 96.8,27.5 C96.3,27 95.8,26.5 95.3,25.9 C94,24.5 92.5,23.4 90.9,22.4 C90,21.9 89.1,21.2 88.3,20.6 C88.1,20.5 88,20.1 88,19.8 C88,19.7 88.4,19.6 88.7,19.5 C89,19.4 89.2,19.4 89.5,19.4 C89.5,19.3 89.5,19.3 89.5,19.2 C89.1,19 88.7,18.7 88.3,18.5 C85.8,17.3 83.3,15.9 81.1,14.2 C80.6,13.8 80,13.7 79.4,13.8 C78,14 78.2,14.6 78.8,15.5 C78.8,15.6 78.9,15.6 79,15.7 C79.4,16.1 79.9,16.5 80.3,16.9 C80.3,17 80.2,17 80.2,17.1 C80.1,17.1 79.9,17.1 79.8,17 C78.5,16.2 77.3,15.4 76,14.6 C75.7,14.4 75.3,14.2 74.9,14.2 C74,14.1 73,14.2 72.1,14.2 C71.7,14.2 71.6,14.2 71.3,14.2 Z" id="Shape" fill="#FFFFFF"></path>
                    <path d="M76.6,36.9 C74.8,36.9 73.1,36.7 71.7,35.6 C71.1,35.1 70.6,34.5 70.2,33.9 C69.3,32.5 68.6,31 67.8,29.5 C67.1,28.2 66.1,27.2 65,26.1 C63.2,24.4 61.3,23.1 59.1,22 C57.3,21.1 55.4,20.2 53.6,19.2 C51,17.8 48.4,16.5 46.2,14.5 C45.5,13.9 44.9,13.1 44.4,12.3 C43.5,10.9 44,9.1 45.4,7.9 C46.5,7 47.6,6.2 49,5.8 C50.8,5.3 52.7,5.1 54.6,5.4 C55.6,5.6 56.5,5.8 57.5,6.1 C59,6.6 60.3,7.6 61.3,8.8 C63.7,11.7 66.4,14.2 69.8,16 C72.3,17.3 74.8,18.6 77.3,19.9 C79.6,21.1 81.9,22.2 84.1,23.6 C85.3,24.4 86.2,25.6 87.2,26.6 C87.8,27.2 88.2,27.9 88.3,28.8 C88.5,29.8 88.2,30.6 87.8,31.5 C87,33.1 85.7,34.1 84.1,35 C81.7,36.3 79.2,36.9 76.6,36.9 Z M52.7,9.1 C52,9.1 51.1,9.2 50.4,9.7 C49.8,10.1 49.3,11.1 49.6,11.8 C49.9,12.5 50.3,13.3 50.8,13.9 C51.5,14.7 52.3,15.3 53.2,15.9 C55.1,17.1 57.1,18.3 59,19.3 C60.9,20.3 62.9,21.2 64.8,22.3 C66.6,23.3 68.3,24.3 69.7,25.7 C70.6,26.6 71.5,27.4 72.3,28.4 C72.9,29.1 73.3,29.9 73.8,30.7 C74.7,32 75.8,33 77.5,33.1 C79.2,33.2 80.8,33 82.1,31.6 C83.3,30.4 83.3,28.7 82.5,27.5 C81,25.3 79,23.6 76.6,22.3 C74.8,21.4 73,20.5 71.2,19.6 C69.6,18.8 68,18.1 66.5,17.2 C64.5,16 62.5,14.8 60.6,13.5 C59.1,12.5 57.8,11.3 56.4,10.2 C55.4,9.4 54.2,9 52.7,9.1 Z" id="Shape" fill="#000000"></path>
                    <path d="M29.1,38.3 C29.3,38 29.4,37.7 29.5,37.5 C30.9,35.1 31.2,32.6 30.7,29.9 C30.5,28.9 29.9,28 29.2,27.2 C28.1,26.2 27.1,25.1 25.9,24.3 C24.7,23.4 23.4,22.7 22,22 C19.2,20.5 16.5,19.1 13.7,17.7 C11.6,16.7 9.7,15.4 8,13.8 C5.7,11.8 4.8,9.3 5.1,6.3 C5.1,6 5.3,5.9 5.6,5.9 C6.6,5.9 7.6,5.9 8.7,5.9 C10.5,5.9 12.3,5.9 14,6 C15.6,6.1 17.1,6.4 18.5,7.2 C19.5,7.8 20.3,8.6 21,9.5 C21.9,10.8 22.8,12.1 23.9,13.2 C25,14.3 26.3,15.3 27.7,16.1 C30.4,17.7 33.2,19.2 35.9,20.7 C37.7,21.7 39.6,22.6 41.2,24 C42.1,24.8 42.5,25.9 42.5,27 C42.5,28 41.7,28.4 41,28.6 C40.3,28.8 39.5,28.9 38.8,29 C37.9,29.1 37,29.1 36.1,29.2 C35.6,29.2 35.6,29.5 35.7,29.9 C36.1,31.2 36,32.5 35.8,33.8 C35.6,35.2 34.9,36.6 34.1,37.8 C34,38 33.8,38.1 33.6,38.1 C32.3,38.2 31,38.2 29.7,38.3 C29.5,38.4 29.4,38.3 29.1,38.3 Z M31.3,23.9 C31.8,23.8 32.3,23.8 32.8,23.7 C33.1,23.6 33.4,23.5 33.5,23.2 C33.6,23.1 33.4,22.7 33.2,22.5 C32,21.7 30.9,20.9 29.7,20.1 C27.6,18.9 25.5,17.9 23.4,16.6 C21.1,15.2 19,13.6 17.2,11.6 C16.7,11 16,10.5 15.3,10.2 C13.9,9.6 12.3,9.7 10.8,9.8 C10.5,9.8 10.4,10 10.5,10.2 C10.7,10.7 10.9,11.1 11.2,11.6 C12.2,13.1 13.5,14.2 14.9,15.2 C17.6,17.1 20.7,18.5 23.6,20.1 C25.6,21.2 27.6,22.2 29.6,23.3 C30.2,23.7 30.7,24 31.3,23.9 Z" id="Shape" fill="#000000"></path>
                    <path d="M102,21.1 C101.6,20.8 101.3,20.5 100.9,20.3 C98.7,18.7 96.4,17.2 94.5,15.2 C94.2,14.9 93.9,14.5 93.6,14.1 C93.4,13.9 93.5,13.7 93.8,13.7 C95.3,13.7 96.8,13.7 98.3,13.7 C98.5,13.7 98.7,13.8 98.7,13.9 C99.6,15.5 100.9,16.7 102.3,17.8 C104,19.2 105.7,20.5 107.5,21.8 C108.4,22.5 109.5,22.9 110.6,23.4 C112.5,24.2 114.2,25.3 115.8,26.5 C118.3,28.3 120.1,30.7 121.5,33.4 C121.8,34 121.8,34.1 121.1,34.2 C119.7,34.3 118.2,34.4 116.8,34.5 C116.3,34.5 116.1,34.4 116,33.9 C115.7,32.5 114.8,31.3 114.1,30.1 C112.7,27.8 110.5,26.3 108.2,24.9 C107.8,24.6 107.3,24.4 106.9,24.1 C106.9,24.2 106.8,24.2 106.8,24.3 C107,24.5 107.3,24.7 107.5,24.9 C108.5,25.9 109.6,26.9 110.5,28.1 C111.6,29.5 111.7,31.3 111.6,33 C111.6,33.4 111.4,33.8 111.4,34.3 C111.3,34.8 111.1,34.9 110.6,34.9 C109.4,35 108.1,35 106.9,35.1 C106.5,35.1 106.4,35 106.5,34.6 C107.1,32.7 107,30.8 106.2,29 C105.9,28.3 105.4,27.6 104.8,27 C103,25 100.8,23.4 98.3,22.2 C95.4,20.8 92.5,19.2 89.6,17.7 C87.5,16.6 85.4,15.3 83.6,13.7 C81.5,11.8 80.8,9.4 81,6.6 C81,6.5 81.2,6.2 81.3,6.2 C82.7,6.2 84,6.2 85.4,6.2 C85.5,6.2 85.7,6.5 85.7,6.7 C85.7,7.4 85.7,8.1 85.7,8.8 C85.7,10.2 86.3,11.3 87,12.4 C88.3,14.2 90,15.4 91.8,16.4 C94.3,17.8 96.9,19.1 99.5,20.5 C100.2,20.9 101,21.2 101.7,21.6 C102,21.2 102,21.2 102,21.1 Z" id="Shape" fill="#000000"></path>
                    <path d="M49,37.5 C49.5,36.3 50.1,35.1 50.3,33.9 C50.5,32.8 50.4,31.5 50.3,30.4 C50.1,28.4 48.7,27.1 47.4,25.8 C45.5,23.9 43.2,22.7 40.9,21.5 C37.9,20 34.8,18.5 31.9,16.8 C29.8,15.6 27.7,14.3 26.2,12.2 C25.3,10.9 24.7,9.5 24.8,7.9 C24.8,7.3 24.8,6.8 24.8,6.2 C24.8,5.9 24.9,5.8 25.2,5.8 C26.5,5.8 27.7,5.8 29,5.8 C29.7,5.8 29.7,5.9 29.7,6.6 C29.7,7.6 29.7,8.7 30,9.7 C30.3,11.2 31.2,12.4 32.3,13.4 C33.6,14.5 35,15.6 36.5,16.5 C37.6,17.2 38.9,17.8 40.1,18.5 C43.1,20.1 46.2,21.6 49.2,23.3 C51.3,24.5 53,26.1 54.4,28 C55.5,29.4 55.5,31.2 55.4,32.9 C55.4,33.4 55.5,33.5 56,33.5 C58.8,33.4 61.6,33.2 64.4,33.1 C64.5,33.1 64.5,33.1 64.6,33.1 C65.8,32.9 65.6,33.2 65.4,34 C65.1,34.9 64.8,35.7 64.5,36.5 C64.4,36.8 64.1,37 63.7,37 C59.7,37.1 55.7,37.3 51.6,37.5 C50.9,37.5 50.2,37.6 49.6,37.6 C49.3,37.6 49.1,37.5 49,37.5 Z" id="Shape" fill="#000000"></path>
                    <path d="M71.3,14.2 C71.6,14.2 71.8,14.1 71.9,14.1 C72.8,14.1 73.8,14.1 74.7,14.1 C75.1,14.1 75.5,14.3 75.8,14.5 C77.1,15.3 78.3,16.1 79.6,16.9 C79.7,17 79.9,17 80,17 C80,16.9 80.1,16.9 80.1,16.8 C79.7,16.4 79.2,16 78.8,15.6 C78.7,15.6 78.7,15.5 78.6,15.4 C78,14.5 77.9,13.9 79.2,13.7 C79.8,13.6 80.3,13.7 80.9,14.1 C83.1,15.9 85.5,17.2 88.1,18.4 C88.5,18.6 88.9,18.9 89.3,19.1 C89.3,19.2 89.3,19.2 89.3,19.3 C89,19.3 88.8,19.3 88.5,19.4 C88.3,19.5 87.8,19.6 87.8,19.7 C87.8,19.9 87.9,20.3 88.1,20.5 C88.9,21.1 89.8,21.8 90.7,22.3 C92.3,23.3 93.8,24.4 95.1,25.8 C95.6,26.3 96.1,26.8 96.6,27.4 C97.8,28.7 98.1,30.4 98.1,32.1 C98.1,33 97.8,33.9 97.6,34.8 C97.5,35.2 97.3,35.4 96.8,35.4 C95.6,35.4 94.4,35.5 93.1,35.5 C92.9,35.5 92.8,35.5 92.6,35.4 C92.8,34.6 93.1,34 93.2,33.2 C93.6,30.6 93.1,28.2 91,26.3 C89.7,25.1 88.5,23.9 87,23 C85.7,22.2 84.3,21.6 83,20.9 C81.2,20 79.4,19.2 77.6,18.2 C75.5,17.1 73.6,15.8 71.5,14.6 C71.6,14.6 71.5,14.5 71.3,14.2 Z" id="Shape" fill="#000000"></path>
                    <path d="M52.7,9.1 C54.2,9 55.5,9.4 56.5,10.2 C57.9,11.3 59.2,12.5 60.7,13.5 C62.6,14.8 64.6,16 66.6,17.2 C68.1,18.1 69.7,18.8 71.3,19.6 C73.1,20.5 74.9,21.3 76.7,22.3 C79.1,23.6 81.1,25.3 82.6,27.5 C83.4,28.7 83.4,30.4 82.2,31.6 C80.9,32.9 79.3,33.1 77.6,33.1 C75.9,33 74.8,32 73.9,30.7 C73.4,30 73,29.1 72.4,28.4 C71.6,27.5 70.7,26.6 69.8,25.7 C68.3,24.3 66.6,23.2 64.9,22.3 C63,21.3 61,20.4 59.1,19.3 C57.1,18.2 55.2,17.1 53.3,15.9 C52.4,15.4 51.6,14.7 50.9,13.9 C50.4,13.3 50,12.6 49.7,11.8 C49.4,11.1 49.9,10.2 50.5,9.7 C51.1,9.2 52,9.1 52.7,9.1 Z" id="Shape" fill="#FFFFFF"></path>
                    <path d="M31.3,23.9 C30.6,24 30.1,23.7 29.6,23.4 C27.6,22.3 25.6,21.3 23.6,20.2 C20.6,18.7 17.6,17.2 14.9,15.3 C13.5,14.3 12.2,13.2 11.2,11.7 C10.9,11.3 10.7,10.8 10.5,10.3 C10.4,10 10.5,9.9 10.8,9.9 C12.3,9.7 13.9,9.7 15.3,10.3 C16,10.6 16.7,11.1 17.2,11.7 C19,13.7 21.2,15.3 23.4,16.7 C25.4,18 27.6,19 29.7,20.2 C30.9,20.9 32.1,21.7 33.2,22.6 C33.4,22.7 33.6,23.1 33.5,23.3 C33.4,23.5 33.1,23.7 32.8,23.8 C32.3,23.8 31.8,23.8 31.3,23.9 Z" id="Shape" fill="#FFFFFF"></path>
                </g>
            </g>
        </g>
    </g>
</svg>