<?xml version="1.0" encoding="UTF-8"?>
<svg width="130px" height="36px" viewBox="0 0 130 36" version="1.1" xmlns="http://www.w3.org/2000/svg" xmlns:xlink="http://www.w3.org/1999/xlink">
    <!-- Generator: Sketch 49.3 (51167) - http://www.bohemiancoding.com/sketch -->
    <title>bpPfRW_1_</title>
    <desc>Created with Sketch.</desc>
    <defs></defs>
    <g id="Page-1" stroke="none" stroke-width="1" fill="none" fill-rule="evenodd">
        <g id="plork-logos" transform="translate(-132.000000, -52.000000)" fill-rule="nonzero">
            <g id="bpPfRW_1_" transform="translate(132.000000, 52.000000)">
                <g id="Group">
                    <path d="M0.2,35.3 C0.2,23.8 0.2,12.3 0.2,0.9 C43.2,0.9 86.2,0.9 129.3,0.9 C129.3,12.4 129.3,23.9 129.3,35.3 C86.3,35.3 43.2,35.3 0.2,35.3 Z M81.8,28.3 C83.3,28.4 84.7,28.2 86,27.5 C87,26.9 87.6,26.1 87.6,24.8 C87.5,23.8 87.1,23 86.5,22.2 C85.7,21 84.5,20.2 83.4,19.4 C81.2,17.9 78.8,16.6 76.4,15.5 C74.2,14.5 72.1,13.4 69.9,12.4 C67.6,11.3 65.4,10.3 63.1,9.2 C60.9,8.1 58.8,6.9 56.7,5.8 C54.1,4.4 51.4,3.7 48.5,4.3 C47.5,4.5 46.5,4.8 45.8,5.5 C45.1,6.1 44.8,6.9 45.1,7.9 C45.5,9.2 46.3,10.1 47.3,10.9 C49,12.3 51,13.4 52.9,14.5 C55.3,15.8 57.9,16.9 60.3,18.2 C63.2,19.7 66.1,21.3 69,22.9 C71.1,24.1 73.2,25.4 75.3,26.6 C77.3,27.5 79.4,28.4 81.8,28.3 Z M8.5,4 C8.5,3.9 8.5,3.9 8.5,3.8 C7.5,3.8 6.5,3.8 5.4,3.8 C4.4,3.8 4.4,3.8 4.6,4.7 C4.6,4.9 4.7,5.1 4.8,5.2 C5.6,6.8 7,8 8.4,9.1 C10.8,10.9 13.5,12.2 16.1,13.6 C19.6,15.4 23,17.1 26.5,18.9 C28.7,20.1 30.8,21.5 32.6,23.2 C33.6,24.1 34.5,25.2 35.2,26.4 C35.4,26.8 35.7,27 36.1,27 C37.2,27 38.3,27 39.4,27 C40,27 40.1,26.9 39.8,26.4 C38.5,24.1 36.5,22.4 34.4,21 C32.9,20 31.3,19.1 29.8,18.2 C29.7,18.2 29.6,18 29.6,18 C29.6,17.9 29.7,17.8 29.8,17.8 C30,17.8 30.2,17.8 30.5,17.8 C31.8,17.7 33.1,17.8 34.3,17.6 C35.2,17.5 35.5,16.7 34.8,16 C34.3,15.5 33.7,14.9 33.1,14.6 C31.5,13.6 29.9,12.7 28.3,11.8 C25.1,9.9 22,8 18.8,6.1 C16.8,4.9 14.6,4 12.2,4 C11.1,4 9.8,4 8.5,4 Z M104.2,19 C104.2,19 104.2,18.9 104.3,18.9 C104.4,18.9 104.6,19 104.7,19 C105.2,19.2 105.6,19.4 106.1,19.6 C109.1,20.9 112,22.6 114.7,24.5 C115.9,25.4 117.1,26.5 118,27.7 C118.2,28 118.4,28.1 118.8,28.1 C120.2,28.1 121.5,28.2 122.9,28.2 C123.1,28.2 123.3,28.1 123.5,28.1 C123.4,27.9 123.4,27.7 123.2,27.5 C122.2,26.6 121.3,25.6 120.2,24.8 C118.8,23.7 117.3,22.7 115.8,21.9 C113.3,20.6 110.7,19.5 108.2,18.4 C107,17.9 105.9,17.3 104.9,16.4 C104.6,16 104.2,15.7 103.8,15.4 C102.8,14.5 101.8,13.5 101,12.5 C100.7,12.1 100.4,12 99.9,12 C98.6,12 97.4,12 96.1,11.9 C95.9,11.9 95.7,11.9 95.5,11.9 C95.5,11.9 95.5,12 95.4,12 C97.1,13.5 98.8,15 100.5,16.5 C100.5,16.5 100.4,16.6 100.4,16.6 C100.1,16.5 99.9,16.4 99.6,16.3 C98.2,15.6 96.8,14.9 95.4,14.2 C92.1,12.5 88.8,10.9 85.9,8.7 C84.8,7.8 83.7,6.8 83,5.6 C82.8,5.2 82.5,5 82,5 C80.9,5 79.9,5 78.8,4.9 C78.6,4.9 78.5,5 78.3,5 C78.4,5.2 78.4,5.3 78.5,5.5 C79.4,7.2 80.8,8.4 82.3,9.4 C84.5,10.8 86.7,12.1 89,13.3 C91.4,14.6 94,15.7 96.5,17 C99.2,18.4 101.9,19.9 104.3,21.8 C106.3,23.4 108,25.1 109,27.5 C109.1,27.7 109.3,27.9 109.5,27.9 C110.7,28 112,28 113.2,28 C113.6,28 113.7,27.9 113.5,27.4 C112.7,25.6 111.4,24.1 110,22.7 C108.5,21.3 106.8,20.2 105,19.2 C104.7,19.3 104.5,19.2 104.2,19 Z M61.8,27.4 C61.8,27.5 61.8,27.5 61.8,27.6 C64,27.6 66.2,27.6 68.4,27.6 C68.6,27.6 68.8,27.5 69,27.5 C68.9,27.3 68.9,27.1 68.8,27 C68.1,25.7 67.1,24.6 66,23.5 C65.8,23.3 65.5,23.1 65.2,23.1 C62.3,23.1 59.4,23.1 56.5,23 C56.1,23 55.7,22.8 55.4,22.6 C53.6,21.5 52,20.1 50.1,19.1 C47,17.4 43.7,15.8 40.5,14.1 C38.6,13.1 36.6,12.1 34.8,11 C33.3,10.1 32,9.1 30.6,8 C29.5,7.1 28.6,6 28.2,4.5 C28.1,4.2 28,4.1 27.7,4.1 C26.4,4.1 25.1,4.1 23.9,4.1 C23.5,4.1 23.4,4.3 23.5,4.6 C23.7,5 23.9,5.4 24.1,5.8 C25,7.4 26.4,8.6 27.9,9.5 C30.7,11.2 33.6,12.8 36.6,14.4 C38.2,15.3 39.9,15.9 41.4,16.8 C43.6,18 45.7,19.2 47.8,20.5 C50.5,22.2 52.9,24.2 54.5,27.1 C54.6,27.3 54.9,27.4 55.1,27.4 C57.3,27.4 59.6,27.4 61.8,27.4 Z M88.7,15.3 C88.7,15.2 88.7,15.2 88.7,15.1 C88.5,15 88.3,14.8 88.1,14.7 C86.6,13.9 85,13.2 83.5,12.3 C82.6,11.8 81.8,11.7 80.9,12 C80.3,12.2 80.2,12.5 80.5,13 C80.6,13.2 80.8,13.4 80.9,13.5 C80.6,13.6 80.4,13.5 80.3,13.5 C79.9,13.3 79.5,13.1 79.1,12.8 C78.1,12.2 77.1,11.8 75.9,11.9 C75.4,12 74.8,11.9 74.2,11.9 C74.1,11.9 73.9,11.9 73.8,12 C73.9,12.2 74.1,12.3 74.2,12.4 C76.5,13.5 78.8,14.6 81,15.8 C83.9,17.3 86.8,18.8 89.5,20.6 C90.8,21.5 92.1,22.5 93.3,23.6 C94.4,24.6 95.3,25.8 95.9,27.2 C96.1,27.6 96.3,27.8 96.8,27.8 C97.9,27.8 99,27.8 100.1,27.9 C100.5,27.9 100.7,27.7 100.4,27.4 C99.7,26.4 99.1,25.3 98.3,24.4 C97.1,23 95.6,21.8 94,20.8 C92.7,19.9 91.3,19.2 90,18.3 C89,17.7 88,17.1 87.1,16.5 C86.9,16.3 86.7,16 86.5,15.8 C86.8,15.7 87.1,15.5 87.5,15.4 C87.9,15.3 88.3,15.3 88.7,15.3 Z" id="Shape" fill="#FFFFFF"></path>
                    <path d="M81.8,28.3 C79.4,28.4 77.3,27.5 75.2,26.4 C73.1,25.2 71,23.9 68.9,22.7 C66,21.1 63.1,19.6 60.2,18 C57.7,16.7 55.2,15.6 52.8,14.3 C50.8,13.3 48.9,12.1 47.2,10.7 C46.2,9.9 45.3,9 45,7.7 C44.7,6.7 45.1,6 45.7,5.3 C46.5,4.6 47.4,4.3 48.4,4.1 C51.3,3.6 54.1,4.2 56.6,5.6 C58.7,6.8 60.9,7.9 63,9 C65.2,10.1 67.5,11.2 69.8,12.2 C72,13.2 74.1,14.3 76.3,15.3 C78.7,16.4 81.1,17.7 83.3,19.2 C84.5,20 85.6,20.9 86.4,22 C87,22.8 87.4,23.6 87.5,24.6 C87.6,25.8 86.9,26.6 85.9,27.3 C84.7,28.3 83.3,28.4 81.8,28.3 Z M53.7,8.4 C53.3,8.4 52.9,8.4 52.5,8.5 C51.5,8.7 51.1,9.4 51.8,10.2 C52.4,10.9 53.2,11.6 54,12.1 C56.7,14 59.8,15.3 62.8,16.8 C64.8,17.8 66.8,18.7 68.8,19.8 C71.3,21.1 73.7,22.4 76.3,23.4 C77.4,23.8 78.6,24.1 79.8,24 C81.2,23.8 81.5,23.1 80.9,21.9 C80.8,21.7 80.7,21.5 80.5,21.4 C79.2,19.8 77.4,18.8 75.6,17.8 C73.9,16.9 72.2,16 70.4,15.2 C68.1,14.1 65.8,13 63.5,11.9 C61.4,11 59.3,10.1 57.2,9.3 C56.1,8.7 55,8.4 53.7,8.4 Z" id="Shape" fill="#000000"></path>
                    <path d="M8.5,4 C9.8,4 11.1,4 12.4,4 C14.8,4 17,4.9 19,6.1 C22.1,8 25.3,9.9 28.5,11.8 C30.1,12.8 31.7,13.7 33.3,14.6 C33.9,15 34.5,15.5 35,16 C35.7,16.7 35.4,17.5 34.5,17.6 C33.2,17.7 32,17.7 30.7,17.8 C30.5,17.8 30.2,17.8 30,17.8 C29.9,17.8 29.8,17.9 29.8,18 C29.8,18 29.9,18.2 30,18.2 C31.5,19.1 33.1,20 34.6,21 C36.8,22.5 38.7,24.2 40,26.4 C40.3,26.9 40.2,27 39.6,27 C38.5,27 37.4,26.9 36.3,27 C35.8,27 35.6,26.8 35.4,26.4 C34.7,25.2 33.8,24.1 32.8,23.2 C30.9,21.5 28.9,20.1 26.7,18.9 C23.3,17.1 19.8,15.3 16.3,13.6 C13.6,12.2 11,10.9 8.6,9.1 C7.1,8 5.8,6.8 5,5.2 C4.9,5 4.8,4.9 4.8,4.7 C4.5,3.7 4.5,3.8 5.6,3.8 C6.6,3.8 7.6,3.8 8.7,3.8 C8.5,3.9 8.5,3.9 8.5,4 Z M12.7,8.7 C12.8,8.9 12.9,9 12.9,9 C13.5,9.4 14,9.8 14.6,10.2 C16.7,11.4 18.9,12.6 21.1,13.8 C21.7,14.1 22.4,14.5 23.1,14.6 C24.1,14.7 25.1,14.6 26.1,14.6 C26.3,14.6 26.6,14.4 26.8,14.3 C26.7,14.1 26.6,13.8 26.5,13.6 C26.4,13.5 26.3,13.4 26.1,13.3 C24.3,12.3 22.4,11.2 20.6,10.2 C18.5,9 16.2,8.4 13.7,8.6 C13.4,8.6 13.1,8.7 12.7,8.7 Z" id="Shape" fill="#000000"></path>
                    <path d="M104.2,19 C104.4,19.2 104.7,19.3 104.9,19.5 C106.7,20.5 108.4,21.6 109.9,23 C111.4,24.3 112.6,25.8 113.4,27.7 C113.6,28.1 113.5,28.3 113.1,28.3 C111.9,28.3 110.6,28.3 109.4,28.2 C109.2,28.2 109,28 108.9,27.8 C107.9,25.4 106.2,23.7 104.2,22.1 C101.8,20.2 99.1,18.7 96.4,17.3 C93.9,16 91.4,14.9 88.9,13.6 C86.6,12.4 84.4,11.1 82.2,9.7 C80.7,8.7 79.3,7.5 78.4,5.8 C78.3,5.7 78.3,5.5 78.2,5.3 C78.4,5.3 78.5,5.2 78.7,5.2 C79.8,5.2 80.8,5.2 81.9,5.3 C82.4,5.3 82.7,5.5 82.9,5.9 C83.6,7.2 84.7,8.1 85.8,9 C88.7,11.3 92,12.9 95.3,14.5 C96.7,15.2 98.1,15.9 99.5,16.6 C99.8,16.7 100,16.8 100.3,16.9 C100.3,16.9 100.4,16.8 100.4,16.8 C98.7,15.3 97,13.8 95.3,12.3 C95.3,12.3 95.3,12.2 95.4,12.2 C95.6,12.2 95.8,12.2 96,12.2 C97.3,12.2 98.5,12.3 99.8,12.3 C100.3,12.3 100.6,12.4 100.9,12.8 C101.8,13.8 102.8,14.7 103.7,15.7 C104.1,16.1 104.4,16.4 104.8,16.7 C105.7,17.7 106.9,18.2 108.1,18.7 C110.7,19.8 113.3,21 115.7,22.2 C117.3,23 118.7,24.1 120.1,25.1 C121.2,25.9 122.1,26.9 123.1,27.8 C123.2,27.9 123.3,28.2 123.4,28.4 C123.2,28.4 123,28.5 122.8,28.5 C121.4,28.5 120.1,28.4 118.7,28.4 C118.3,28.4 118.1,28.3 117.9,28 C117,26.7 115.8,25.7 114.6,24.8 C111.9,22.8 109,21.2 106,19.9 C105.5,19.7 105.1,19.5 104.6,19.3 C104.5,19.2 104.3,19.2 104.2,19.2 C104.3,18.9 104.3,19 104.2,19 Z" id="Shape" fill="#000000"></path>
                    <path d="M61.8,27.4 C59.6,27.4 57.3,27.4 55.1,27.4 C54.9,27.4 54.6,27.3 54.5,27.1 C52.9,24.2 50.5,22.2 47.8,20.5 C45.7,19.2 43.6,18 41.4,16.8 C39.8,15.9 38.1,15.3 36.6,14.4 C33.7,12.8 30.8,11.2 27.9,9.5 C26.4,8.6 25,7.4 24.1,5.8 C23.9,5.4 23.7,5 23.5,4.6 C23.4,4.3 23.5,4.1 23.9,4.1 C25.2,4.1 26.5,4.1 27.7,4.1 C28,4.1 28.2,4.3 28.2,4.5 C28.6,5.9 29.5,7 30.6,8 C31.9,9.1 33.3,10.1 34.8,11 C36.6,12.1 38.6,13.1 40.5,14.1 C43.7,15.8 46.9,17.3 50.1,19.1 C51.9,20.1 53.6,21.4 55.4,22.6 C55.7,22.8 56.2,23 56.5,23 C59.4,23 62.3,23 65.2,23.1 C65.5,23.1 65.8,23.3 66,23.5 C67,24.6 68,25.7 68.8,27 C68.9,27.2 68.9,27.3 69,27.5 C68.8,27.5 68.6,27.6 68.4,27.6 C66.2,27.6 64,27.6 61.8,27.6 C61.8,27.5 61.8,27.4 61.8,27.4 Z" id="Shape" fill="#000000"></path>
                    <path d="M88.7,15.3 C88.3,15.3 87.9,15.2 87.6,15.3 C87.3,15.4 87,15.6 86.6,15.7 C86.8,15.9 86.9,16.3 87.2,16.4 C88.2,17 89.1,17.6 90.1,18.2 C91.4,19 92.8,19.8 94.1,20.7 C95.7,21.7 97.2,22.9 98.4,24.3 C99.2,25.2 99.8,26.3 100.5,27.3 C100.7,27.7 100.6,27.9 100.2,27.8 C99.1,27.8 98,27.8 96.9,27.7 C96.5,27.7 96.2,27.5 96,27.1 C95.4,25.7 94.5,24.5 93.4,23.5 C92.2,22.4 91,21.4 89.6,20.5 C86.9,18.6 84,17.2 81.1,15.7 C78.8,14.6 76.6,13.4 74.3,12.3 C74.1,12.2 74,12.1 73.9,11.9 C74,11.9 74.2,11.8 74.3,11.8 C74.9,11.8 75.4,11.9 76,11.8 C77.2,11.7 78.2,12.1 79.2,12.7 C79.6,12.9 80,13.2 80.4,13.4 C80.6,13.5 80.8,13.5 81,13.4 C80.9,13.2 80.7,13 80.6,12.9 C80.2,12.4 80.4,12 81,11.9 C81.9,11.6 82.7,11.7 83.6,12.2 C85.1,13.1 86.7,13.8 88.2,14.6 C88.4,14.7 88.6,14.8 88.8,15 C88.7,15.2 88.7,15.3 88.7,15.3 Z" id="Shape" fill="#000000"></path>
                    <path d="M53.7,8.4 C55,8.4 56.1,8.7 57.3,9.2 C59.4,10 61.5,10.9 63.6,11.8 C65.9,12.8 68.2,14 70.5,15.1 C72.2,15.9 74,16.8 75.7,17.7 C77.5,18.7 79.2,19.8 80.6,21.3 C80.7,21.5 80.9,21.6 81,21.8 C81.6,23 81.3,23.7 79.9,23.9 C78.7,24.1 77.5,23.7 76.4,23.3 C73.8,22.3 71.4,21 68.9,19.7 C66.9,18.7 64.9,17.7 62.9,16.7 C59.9,15.2 56.9,13.9 54.1,12 C53.3,11.4 52.6,10.8 51.9,10.1 C51.2,9.3 51.6,8.6 52.6,8.4 C52.9,8.4 53.3,8.4 53.7,8.4 Z" id="Shape" fill="#FFFFFF"></path>
                    <path d="M12.7,8.7 C13.1,8.7 13.5,8.6 13.8,8.6 C16.3,8.4 18.5,9.1 20.7,10.2 C22.6,11.2 24.4,12.2 26.2,13.3 C26.3,13.4 26.5,13.5 26.6,13.6 C26.7,13.8 26.8,14.1 26.9,14.3 C26.7,14.4 26.4,14.6 26.2,14.6 C25.2,14.6 24.2,14.7 23.2,14.6 C22.5,14.5 21.8,14.1 21.2,13.8 C19,12.6 16.9,11.4 14.7,10.2 C14.1,9.9 13.6,9.4 13,9 C12.8,9 12.8,8.9 12.7,8.7 Z" id="Shape" fill="#FFFFFF"></path>
                </g>
            </g>
        </g>
    </g>
</svg>