<?xml version="1.0" encoding="UTF-8"?>
<svg width="127px" height="59px" viewBox="0 0 127 59" version="1.1" xmlns="http://www.w3.org/2000/svg" xmlns:xlink="http://www.w3.org/1999/xlink">
    <!-- Generator: Sketch 49.3 (51167) - http://www.bohemiancoding.com/sketch -->
    <title>gnvpMf_1_</title>
    <desc>Created with Sketch.</desc>
    <defs></defs>
    <g id="Page-1" stroke="none" stroke-width="1" fill="none" fill-rule="evenodd">
        <g id="plork-logos" transform="translate(-133.000000, -143.000000)" fill-rule="nonzero">
            <g id="gnvpMf_1_" transform="translate(133.000000, 143.000000)">
                <g id="Group">
                    <path d="M0.7,58.8 C0.7,39.5 0.7,20.2 0.7,0.9 C42.7,0.9 84.8,0.9 126.8,0.9 C126.8,20.2 126.8,39.5 126.8,58.8 C84.7,58.8 42.7,58.8 0.7,58.8 Z M58.5,7.2 C58,7.2 57.5,7.2 57.1,7.2 C55.3,7.4 54.7,8.3 55,10 C55.3,11.4 56.1,12.6 57,13.7 C58.1,15.2 59.4,16.6 60.6,17.9 C62,19.4 63,21.1 63.6,23 C64.2,25 64.3,27 64.6,29 C64.8,30.5 65,32 65.2,33.5 C65.4,34.8 65.6,36 65.9,37.3 C66.3,39.1 66.6,40.8 67.1,42.6 C67.5,44.2 68,45.8 68.5,47.5 C68.8,48.4 69,49.4 70,49.8 C70.6,50 71.2,50.2 71.8,50.2 C72.3,50.2 72.9,50.1 73.4,49.9 C74.6,49.5 75,48.3 75.5,47.3 C76.2,46 77,44.6 77.8,43.4 C78.8,41.8 80,40.4 80.9,38.8 C82.2,36.5 83.4,34.2 84.5,31.8 C85.3,30.1 86,28.3 86.2,26.4 C86.3,24.9 86.1,23.5 85.5,22.1 C84.7,20.2 83.3,18.7 81.7,17.5 C78.9,15.4 76.1,13.4 72.9,12 C70.3,10.8 67.6,9.6 64.9,8.6 C62.7,7.8 60.6,7.2 58.5,7.2 Z M90.3,9.8 C90.4,9.9 90.5,10 90.6,10.1 C91.9,11.2 93.3,12.3 94.6,13.4 C96,14.6 97.4,15.8 98.7,17.1 C100.1,18.4 101.4,19.8 102.2,21.5 C103.5,24.2 103.4,27.1 103,30 C102.8,31.4 102.5,32.9 102.2,34.3 C102,35.6 101.7,37 101.5,38.3 C101.3,39.3 101,40.3 100.8,41.3 C100.4,43.5 100,45.6 99.6,47.8 C99.4,48.8 99.4,49.9 99.3,50.9 C99.3,51.2 99.3,51.6 99.7,51.7 C101,51.8 102.2,51.9 103.5,52 C103.9,52 104,51.8 104,51.5 C104.1,48.5 104.5,45.4 105.2,42.5 C105.7,40.6 106,38.6 106.4,36.7 C106.7,35.3 106.9,33.9 107.2,32.5 C107.4,31.6 107.5,30.7 107.7,29.8 C107.7,29.6 107.9,29.4 107.9,29.2 C108,29.2 108,29.2 108.1,29.2 C108.4,30.5 108.7,31.7 108.9,33 C109.4,36.8 109.2,40.5 108.9,44.3 C108.7,46.9 108.4,49.4 108.8,52 C108.9,52.5 109.1,52.7 109.6,52.8 C111,52.9 112.4,53.1 113.8,53.2 C114.3,53.3 114.4,53.1 114.4,52.6 C114.3,51.7 114.1,50.8 114.1,49.9 C114.1,47.6 114.2,45.3 114.4,43 C114.6,40.1 114.6,37.2 114.2,34.3 C113.9,32.5 113.6,30.7 112.8,29 C112.6,28.6 112.6,28.3 112.9,28 C113.5,27.1 114.1,26.3 114.6,25.4 C115.4,23.9 116.1,22.3 116,20.5 C116,19.8 115.9,19.7 115.2,19.7 C113.8,19.6 112.3,19.5 110.9,19.4 C110.5,19.4 110.4,19.5 110.4,19.9 C110.5,20.5 110.5,21.1 110.5,21.7 C110.5,23.3 109.9,24.7 109.2,26.1 C109,26.6 108.6,27.1 108.3,27.5 C108.2,27.5 108.2,27.5 108.1,27.5 C108.1,27.3 108.1,27.1 108,27 C107.9,26.1 107.9,25.1 107.7,24.2 C107.2,21.5 105.5,19.4 103.6,17.6 C101.3,15.5 99,13.6 96.6,11.6 C95.8,10.9 95,10.3 93.9,10.3 C92.8,10.3 91.7,10.2 90.6,10.1 C90.5,9.7 90.4,9.7 90.3,9.8 Z M9.4,5.6 C9.3,5.7 9.3,5.8 9.2,5.9 C9.3,6 9.5,6 9.6,6.1 C10.1,6.4 10.5,6.8 11,7.2 C13.2,9 15.4,10.7 17.5,12.6 C19.9,14.7 22.3,16.7 24.5,19 C26.5,21 27.5,23.5 27.6,26.4 C27.6,28.7 27.3,31 26.8,33.3 C26.5,34.7 26.3,36.1 26,37.6 C25.9,38.4 25.7,39.1 25.6,39.9 C25.6,40.1 25.8,40.4 25.9,40.4 C27.2,40.5 28.5,40.7 29.8,40.7 C29.9,40.7 30.2,40.5 30.2,40.4 C30.6,38.8 30.9,37.2 31.3,35.6 C31.5,34.6 31.6,33.5 31.8,32.5 C32.3,29.8 32.7,27.2 32.2,24.4 C32.1,23.9 32.3,23.8 32.7,23.9 C33.3,24 33.9,24 34.6,24.1 C36.1,24.2 37.5,24.4 38.9,23.6 C40,23 40.8,22.1 40.8,20.7 C40.8,19.6 40.3,18.7 39.6,17.9 C37.8,15.8 35.7,13.9 33.4,12.3 C29.8,9.9 26.1,8 21.9,6.8 C20.3,6.4 18.7,6 17,6 C14.9,5.9 12.7,5.8 10.6,5.7 C10.3,5.6 9.9,5.6 9.4,5.6 Z M58.8,44.1 C58.9,43.8 59.1,43.4 59.2,43 C59.6,41.1 60,39.3 60.4,37.4 C60.6,36.3 60.8,35.1 61,34 C61.1,33.7 61,33.5 60.7,33.5 C60,33.5 59.3,33.4 58.6,33.4 C56.3,33.3 54.1,33.1 51.8,33 C51.4,33 51.3,32.8 51.4,32.4 C51.5,31.9 51.6,31.4 51.7,30.9 C52.1,28.8 52.3,26.6 51.9,24.4 C51.6,22.5 50.8,20.9 49.6,19.5 C48.8,18.5 47.9,17.7 46.9,16.8 C44.9,15 43,13.3 41,11.6 C39.2,10.1 37.4,8.7 35.6,7.2 C35.3,7 35,6.7 34.6,6.7 C33.2,6.6 31.8,6.5 30.4,6.5 C30.3,6.5 30.2,6.6 30.1,6.6 C30.1,6.7 30.2,6.8 30.2,6.9 C31,7.6 31.8,8.3 32.6,8.9 C34.1,10.1 35.7,11.3 37.2,12.6 C39.1,14.2 41,15.9 42.9,17.6 C44.3,18.8 45.4,20.2 46.1,21.9 C47.3,24.5 47.2,27.3 46.8,30.1 C46.7,31 46.5,31.9 46.3,32.8 C46,34.4 45.8,35.9 45.5,37.5 C45.2,38.8 44.9,40.1 44.6,41.5 C44.4,42.2 44.5,42.3 45.2,42.5 C46.4,42.7 47.6,42.8 48.8,43 C50.3,43.2 51.8,43.4 53.3,43.5 C55.2,43.6 57,43.8 58.8,44.1 Z M93.2,21.2 C93,21 92.9,21 92.8,20.8 C92.4,20.2 92,19.6 91.5,19 C91,18.5 90.6,17.8 89.8,17.8 C88.7,17.8 87.6,17.7 86.5,17.6 C86.4,17.6 86.3,17.7 86.2,17.7 C86.2,17.8 86.2,17.9 86.3,18 C86.5,18.3 86.7,18.5 87,18.8 C88.2,20 89,21.4 89.5,23 C90.1,24.7 90.1,26.5 89.9,28.3 C89.6,30.6 89.2,32.8 88.8,35.1 C88.5,36.9 88,38.8 87.7,40.6 C87.3,42.6 86.9,44.6 86.5,46.5 C86.3,47.4 86.3,48.4 86.2,49.3 C86.2,49.7 86.3,50 86.8,50 C87.9,50.1 89.1,50.3 90.2,50.4 C90.5,50.4 90.8,50.3 90.8,49.9 C90.9,49.5 90.9,49.1 91,48.7 C91.2,46.9 91.4,45.1 91.8,43.3 C92.2,41.1 92.8,39 93.2,36.9 C93.4,35.9 93.5,35 93.7,34 C93.9,32.7 94.2,31.3 94.4,30 C94.7,28.5 94.8,27 95.1,25.5 C95.3,24.6 95.8,23.8 96.8,23.6 C97.4,23.5 98.1,23.5 98.7,23.5 C99.4,23.5 99.5,23.4 99.3,22.8 C98.7,21 97.8,19.4 96.5,18.1 C96.3,17.9 96,17.8 95.7,17.8 C95.3,17.8 94.8,17.8 94.4,17.8 C93.8,17.9 93.3,18.4 93.2,19 C93.2,19.9 93.2,20.5 93.2,21.2 Z" id="Shape" fill="#FFFFFF"></path>
                    <path d="M58.5,7.2 C60.7,7.2 62.8,7.7 64.8,8.5 C67.5,9.6 70.2,10.7 72.8,11.9 C75.9,13.4 78.8,15.3 81.6,17.4 C83.2,18.6 84.6,20.1 85.4,22 C86,23.4 86.2,24.8 86.1,26.3 C86,28.2 85.3,30 84.4,31.7 C83.3,34.1 82.1,36.4 80.8,38.7 C79.9,40.3 78.7,41.7 77.7,43.3 C76.9,44.6 76.1,45.9 75.4,47.2 C74.9,48.2 74.5,49.3 73.3,49.8 C72.8,50 72.2,50.1 71.7,50.1 C71.1,50.1 70.4,50 69.9,49.7 C68.9,49.3 68.7,48.3 68.4,47.4 C67.9,45.8 67.4,44.2 67,42.5 C66.6,40.8 66.2,39 65.8,37.2 C65.5,36 65.3,34.7 65.1,33.4 C64.9,31.9 64.7,30.4 64.5,28.9 C64.2,26.9 64.1,24.8 63.5,22.9 C62.9,21 61.8,19.3 60.5,17.8 C59.3,16.4 58,15 56.9,13.6 C56.1,12.5 55.3,11.3 54.9,9.9 C54.5,8.2 55.2,7.3 57,7.1 C57.5,7.2 58,7.2 58.5,7.2 Z M64.7,12.1 C64.4,12.1 64.1,12.1 63.8,12.1 C62.9,12.1 62.5,12.6 62.7,13.5 C62.8,13.8 62.9,14.2 63,14.5 C63.8,16 65,17.1 66.1,18.4 C67.4,20 68.6,21.7 69,23.7 C69.4,25.7 69.6,27.7 69.9,29.7 C70.1,31.2 70.4,32.7 71.2,34 C72,35.4 73.2,36 74.6,35.8 C75.6,35.6 76.4,35.1 77.1,34.4 C78.7,32.7 79.8,30.7 80.5,28.5 C80.9,27 81,25.4 80.7,23.9 C80.4,22.4 79.7,21.1 78.7,19.9 C77.8,18.8 76.7,17.9 75.6,17.1 C73.5,15.6 71.4,14.2 69,13.2 C67.6,12.6 66.2,12.1 64.7,12.1 Z" id="Shape" fill="#000000"></path>
                    <path d="M90.3,9.8 C90.5,9.8 90.6,9.7 90.6,9.7 C91.7,9.8 92.8,9.9 93.9,9.9 C95.1,9.9 95.8,10.5 96.6,11.2 C98.9,13.2 101.3,15.2 103.6,17.2 C105.6,19 107.2,21 107.7,23.8 C107.9,24.7 107.9,25.7 108,26.6 C108,26.8 108,27 108.1,27.1 C108.2,27.1 108.2,27.1 108.3,27.1 C108.6,26.6 108.9,26.2 109.2,25.7 C109.9,24.3 110.5,22.8 110.5,21.3 C110.5,20.7 110.4,20.1 110.4,19.5 C110.3,19.1 110.5,19 110.9,19 C112.3,19.1 113.8,19.2 115.2,19.3 C115.9,19.3 116,19.4 116,20.1 C116.1,21.9 115.4,23.5 114.6,25 C114.1,25.9 113.5,26.8 112.9,27.6 C112.7,27.9 112.7,28.2 112.8,28.6 C113.5,30.3 113.9,32.1 114.2,33.9 C114.7,36.8 114.6,39.7 114.4,42.6 C114.3,44.9 114.2,47.2 114.1,49.5 C114.1,50.4 114.2,51.3 114.4,52.2 C114.5,52.7 114.3,52.9 113.8,52.8 C112.4,52.7 111,52.5 109.6,52.4 C109.1,52.4 108.9,52.1 108.8,51.6 C108.4,49 108.7,46.5 108.9,43.9 C109.2,40.1 109.4,36.4 108.9,32.6 C108.7,31.3 108.4,30.1 108.1,28.8 C108,28.8 108,28.8 107.9,28.8 C107.8,29 107.7,29.2 107.7,29.4 C107.5,30.3 107.4,31.2 107.2,32.1 C107,33.5 106.7,34.9 106.4,36.3 C106,38.2 105.7,40.2 105.2,42.1 C104.4,45.1 104.1,48.1 104,51.1 C104,51.5 103.8,51.7 103.5,51.6 C102.2,51.5 101,51.4 99.7,51.3 C99.3,51.3 99.3,50.9 99.3,50.5 C99.4,49.5 99.4,48.4 99.6,47.4 C99.9,45.2 100.4,43.1 100.8,40.9 C101,39.9 101.3,38.9 101.5,37.9 C101.8,36.6 102,35.2 102.2,33.9 C102.5,32.5 102.7,31 103,29.6 C103.4,26.7 103.5,23.9 102.2,21.1 C101.4,19.4 100.1,18 98.7,16.7 C97.3,15.5 96,14.2 94.6,13 C93.3,11.9 91.9,10.8 90.6,9.7 C90.5,10 90.4,9.9 90.3,9.8 Z" id="Shape" fill="#000000"></path>
                    <path d="M9.4,5.6 C9.8,5.6 10.3,5.6 10.7,5.6 C12.8,5.7 15,5.8 17.1,5.9 C18.8,6 20.4,6.3 22,6.7 C26.2,7.8 29.9,9.8 33.5,12.2 C35.8,13.7 37.9,15.7 39.7,17.8 C40.4,18.6 40.9,19.5 40.9,20.6 C40.9,22 40.1,22.8 39,23.5 C37.6,24.3 36.2,24.1 34.7,24 C34.1,24 33.4,23.9 32.8,23.8 C32.4,23.8 32.2,23.9 32.3,24.3 C32.8,27 32.3,29.7 31.9,32.4 C31.7,33.4 31.6,34.5 31.4,35.5 C31.1,37.1 30.7,38.7 30.3,40.3 C30.3,40.4 30,40.6 29.9,40.6 C28.6,40.5 27.3,40.4 26,40.3 C25.9,40.3 25.7,40 25.7,39.8 C25.8,39 26,38.2 26.1,37.5 C26.4,36.1 26.6,34.7 26.9,33.2 C27.3,30.9 27.7,28.6 27.7,26.3 C27.7,23.4 26.7,20.9 24.6,18.9 C22.4,16.7 20,14.6 17.6,12.5 C15.5,10.7 13.3,8.9 11.1,7.1 C10.7,6.7 10.2,6.4 9.7,6 C9.6,5.9 9.4,5.9 9.3,5.8 C9.3,5.8 9.4,5.7 9.4,5.6 Z M31.6,18.3 C32,18.3 32.4,18.3 32.8,18.2 C33.4,18.1 33.6,17.8 33.3,17.2 C33,16.6 32.6,15.9 32,15.4 C31,14.5 29.9,13.6 28.8,12.8 C26.5,11.1 23.8,10.6 21,10.7 C20.9,10.7 20.8,10.8 20.6,10.9 C20.7,11 20.7,11.2 20.8,11.2 C21.2,11.5 21.5,11.8 21.9,12.1 C24,13.9 26,15.7 28.1,17.5 C28.3,17.7 28.5,17.9 28.8,17.9 C29.8,18.1 30.7,18.2 31.6,18.3 Z" id="Shape" fill="#000000"></path>
                    <path d="M58.8,44.1 C56.9,43.9 55.2,43.6 53.5,43.4 C52,43.2 50.5,43 49,42.9 C47.8,42.7 46.6,42.6 45.4,42.4 C44.7,42.3 44.6,42.2 44.8,41.4 C45.1,40.1 45.4,38.8 45.7,37.4 C46,35.9 46.2,34.3 46.5,32.7 C46.7,31.8 46.8,30.9 47,30 C47.4,27.2 47.5,24.5 46.3,21.8 C45.5,20.1 44.4,18.7 43.1,17.5 C41.2,15.8 39.3,14.1 37.4,12.5 C35.9,11.2 34.3,10 32.8,8.8 C32,8.1 31.2,7.5 30.4,6.8 C30.3,6.7 30.3,6.6 30.3,6.5 C30.4,6.5 30.5,6.4 30.6,6.4 C32,6.5 33.4,6.5 34.8,6.6 C35.1,6.6 35.5,6.9 35.8,7.1 C37.6,8.5 39.4,10 41.2,11.5 C43.2,13.2 45.2,14.9 47.1,16.7 C48,17.5 48.9,18.4 49.8,19.4 C51,20.8 51.8,22.5 52.1,24.3 C52.5,26.5 52.3,28.6 51.9,30.8 C51.8,31.3 51.7,31.8 51.6,32.3 C51.5,32.7 51.7,32.8 52,32.9 C54.3,33 56.5,33.2 58.8,33.3 C59.5,33.3 60.2,33.4 60.9,33.4 C61.3,33.4 61.3,33.7 61.2,33.9 C61,35 60.8,36.2 60.6,37.3 C60.2,39.2 59.8,41 59.4,42.9 C59.2,43.4 59,43.7 58.8,44.1 Z" id="Shape" fill="#000000"></path>
                    <path d="M93.2,21.2 C93.2,20.5 93.2,19.8 93.2,19.2 C93.2,18.6 93.8,18.1 94.4,18 C94.8,18 95.3,17.9 95.7,18 C96,18 96.3,18.1 96.5,18.3 C97.8,19.6 98.8,21.2 99.3,23 C99.5,23.7 99.4,23.7 98.7,23.7 C98.1,23.7 97.4,23.7 96.8,23.8 C95.8,24 95.3,24.8 95.1,25.7 C94.8,27.2 94.6,28.7 94.4,30.2 C94.2,31.5 93.9,32.9 93.7,34.2 C93.5,35.2 93.4,36.1 93.2,37.1 C92.7,39.2 92.2,41.4 91.8,43.5 C91.5,45.3 91.3,47.1 91,48.9 C90.9,49.3 90.9,49.7 90.8,50.1 C90.7,50.4 90.5,50.6 90.2,50.6 C89.1,50.5 87.9,50.3 86.8,50.2 C86.3,50.1 86.2,49.9 86.2,49.5 C86.3,48.6 86.3,47.6 86.5,46.7 C86.9,44.7 87.3,42.7 87.7,40.8 C88.1,39 88.5,37.1 88.8,35.3 C89.2,33.1 89.6,30.8 89.9,28.5 C90.1,26.7 90.1,24.9 89.5,23.2 C89,21.6 88.2,20.2 87,19 C86.8,18.8 86.5,18.5 86.3,18.2 C86.2,18.1 86.2,18 86.2,17.9 C86.3,17.9 86.4,17.8 86.5,17.8 C87.6,17.9 88.7,18 89.8,18 C90.7,18 91.1,18.7 91.5,19.2 C92,19.8 92.3,20.4 92.8,21 C92.9,21 93,21.1 93.2,21.2 Z" id="Shape" fill="#000000"></path>
                    <path d="M64.7,12.1 C66.2,12.1 67.6,12.6 69,13.1 C71.4,14 73.5,15.5 75.6,17 C76.7,17.8 77.8,18.7 78.7,19.8 C79.7,21 80.4,22.3 80.7,23.8 C81,25.3 80.9,26.9 80.5,28.4 C79.8,30.7 78.7,32.7 77.1,34.3 C76.4,35 75.6,35.6 74.6,35.7 C73.2,35.9 72,35.3 71.2,33.9 C70.4,32.6 70.1,31.1 69.9,29.6 C69.6,27.6 69.5,25.5 69,23.6 C68.6,21.6 67.4,19.8 66.1,18.3 C65,17 63.8,15.9 63,14.4 C62.8,14.1 62.7,13.8 62.7,13.4 C62.6,12.5 62.9,12.1 63.8,12 C64,12.1 64.4,12.1 64.7,12.1 Z" id="Shape" fill="#FFFFFF"></path>
                    <path d="M31.6,18.3 C30.7,18.2 29.8,18.1 28.9,18 C28.7,18 28.4,17.7 28.2,17.6 C26.1,15.8 24.1,14 22,12.2 C21.6,11.9 21.3,11.6 20.9,11.3 C20.8,11.2 20.8,11.1 20.7,11 C20.8,10.9 20.9,10.8 21.1,10.8 C23.9,10.7 26.6,11.2 28.9,12.9 C30,13.7 31.1,14.6 32.1,15.5 C32.6,16 33,16.6 33.4,17.3 C33.7,17.8 33.5,18.2 32.9,18.3 C32.4,18.2 32,18.2 31.6,18.3 Z" id="Shape" fill="#FFFFFF"></path>
                </g>
            </g>
        </g>
    </g>
</svg>