<?xml version="1.0" encoding="UTF-8"?>
<svg width="115px" height="30px" viewBox="0 0 115 30" version="1.1" xmlns="http://www.w3.org/2000/svg" xmlns:xlink="http://www.w3.org/1999/xlink">
    <!-- Generator: Sketch 49.3 (51167) - http://www.bohemiancoding.com/sketch -->
    <title>NoHMLC_1_</title>
    <desc>Created with Sketch.</desc>
    <defs></defs>
    <g id="Page-1" stroke="none" stroke-width="1" fill="none" fill-rule="evenodd">
        <g id="plork-logos" transform="translate(-530.000000, -49.000000)" fill-rule="nonzero">
            <g id="NoHMLC_1_" transform="translate(530.000000, 49.000000)">
                <g id="Group">
                    <path d="M0.2,29.7 C0.2,19.9 0.2,10.2 0.2,0.4 C38.5,0.4 76.7,0.4 115,0.4 C115,10.2 115,19.9 115,29.7 C76.7,29.7 38.5,29.7 0.2,29.7 Z M31.5,25.9 C28.7,23.4 26,21.1 23.1,18.6 C23.5,18.5 23.7,18.4 23.9,18.4 C24.6,18.4 25.3,18.4 26,18.3 C26.8,18.2 27.7,18.2 28.5,18 C30.6,17.4 30.9,16.2 29.8,14.4 C29.8,14.3 29.7,14.3 29.7,14.2 C28.6,12.7 27.2,11.4 25.8,10.3 C24.6,9.4 23.4,8.5 22.1,7.7 C20.3,6.6 18.5,5.6 16.4,5.2 C15.2,5 14,4.9 12.8,4.8 C10.7,4.6 8.5,4.5 6.3,4.4 C6.2,4.4 6,4.6 6,4.7 C6.1,5.3 6.1,5.9 6.4,6.4 C6.9,7.2 7.5,8.1 8.2,8.8 C10.6,11.2 13,13.6 15.5,15.9 C17.9,18.1 20.4,20.2 22.8,22.4 C24.1,23.5 25.4,24.6 26.7,25.8 C27.1,26.2 27.6,26.3 28.1,26.3 C29,26.2 30,26.2 30.9,26.1 C31,26.1 31.2,26 31.5,25.9 Z M70.5,23.8 C72.4,23.8 74.1,23.7 75.7,23 C77.1,22.4 77.7,21.1 76.9,19.8 C76.3,18.7 75.5,17.6 74.6,16.8 C73.3,15.6 71.9,14.5 70.5,13.4 C68,11.5 65.2,10 62.2,8.9 C60,8.1 57.9,7.3 55.5,7.1 C53.5,6.9 51.6,6.7 49.7,7.4 C48.4,7.9 47.5,8.8 47.9,10.2 C48.1,11 48.4,11.8 48.8,12.6 C49.6,14.1 50.9,15.2 52.1,16.3 C55.4,19.3 59.1,21.4 63.3,22.8 C65.6,23.5 68.1,23.9 70.5,23.8 Z M59,24.1 C58.8,23.9 58.7,23.7 58.5,23.6 C57.9,23.1 57.3,22.7 56.8,22.2 C56.3,21.6 55.8,21.4 55.1,21.5 C55,21.5 54.9,21.5 54.8,21.5 C52.2,21.6 49.6,21.8 46.9,21.9 C46.7,21.9 46.4,21.8 46.2,21.7 C45.3,20.9 44.4,20.1 43.5,19.3 C41.4,17.4 39.3,15.6 37.3,13.7 C35.7,12.2 34.1,10.6 32.6,9 C31.8,8.2 31,7.4 30.6,6.3 C30.6,6.2 30.4,6 30.2,6 C28.8,5.9 27.3,5.8 25.9,5.8 C25.8,5.8 25.6,6.1 25.6,6.2 C25.8,6.7 26,7.2 26.3,7.5 C27.3,8.7 28.4,9.9 29.5,11 C31.3,12.8 33.1,14.5 35,16.2 C36.7,17.7 38.4,19.2 40.1,20.7 C41.6,22 43.2,23.4 44.7,24.7 C44.9,24.9 45.3,25 45.6,25 C46,25 46.4,25 46.8,24.9 C49.6,24.7 52.4,24.6 55.2,24.4 C56.4,24.3 57.6,24.2 59,24.1 Z M96.8,17 C96.5,16.7 96.2,16.6 96,16.4 C95.6,16 95.2,15.6 94.8,15.2 C94,14.5 93.2,13.8 92.4,13 C91.1,11.7 89.9,10.4 88.6,9.1 C88.5,9 88.2,8.8 88.1,8.8 C87.1,8.7 86,8.7 85,8.6 C84.6,8.6 84.2,8.6 83.6,8.6 C83.9,8.9 84,9.1 84.2,9.3 C84.7,9.8 85.2,10.3 85.7,10.8 C87.8,12.8 89.9,14.9 92,16.9 C93.9,18.6 95.9,20.3 97.9,21.9 C98.2,22.1 98.6,22.2 98.9,22.3 C99.5,22.4 100.2,22.3 100.8,22.3 C101.4,22.3 102,22.2 102.6,22.2 C102.6,22.1 102.6,22.1 102.7,22 C101.2,20.6 99.4,19.4 98,17.9 C98.2,17.9 98.4,17.9 98.5,18 C100.9,19.1 103.4,20.2 105.8,21.3 C106.7,21.7 107.5,22.1 108.5,22.1 C109.7,22 110.9,22 112,22 C112.1,22 112.2,22 112.4,21.9 C112.2,21.8 112.1,21.7 112,21.7 C110.6,21.1 109.2,20.6 107.8,20 C105.9,19.2 104.1,18.5 102.2,17.7 C101.5,17.4 101.4,17.2 101.7,16.4 C102,15.6 102.2,14.9 102.5,14.1 C102.7,13.6 102.6,13.5 102.1,13.5 C100.7,13.5 99.3,13.5 98,13.5 C97.5,13.5 97.3,13.7 97.3,14.2 C97.2,14.9 97,15.9 96.8,17 Z M86.7,15.6 C86.7,15.5 86.7,15.5 86.8,15.4 C86,14.7 85.2,13.9 84.3,13.2 C84.2,13.1 84.1,13.1 84,13.1 C83.3,13.1 82.5,13.1 81.8,13.3 C81.3,13.4 80.7,13.6 80.7,14.3 C80.7,14.6 80.5,14.6 80.2,14.4 C79.9,14.1 79.6,13.8 79.2,13.6 C78.9,13.4 78.6,13.2 78.3,13.2 C77.2,13.1 76.1,13.1 75,13.1 C74.9,13.1 74.8,13.2 74.7,13.2 C74.8,13.3 74.8,13.4 74.9,13.5 C75.8,14.3 76.7,15.1 77.6,15.9 C80.1,18.1 82.6,20.3 85.1,22.5 C85.3,22.7 85.7,22.8 86.1,22.8 C87.2,22.8 88.3,22.8 89.4,22.7 C89.5,22.7 89.6,22.6 89.8,22.5 C89.7,22.4 89.7,22.3 89.6,22.2 C88.3,21.1 86.9,20 85.6,18.9 C84.9,18.3 84.2,17.5 83.6,16.8 C83.3,16.4 83.4,15.9 84,15.8 C84.5,15.7 85.1,15.6 85.6,15.6 C86,15.6 86.3,15.6 86.7,15.6 Z" id="Shape" fill="#FFFFFF"></path>
                    <path d="M31.5,25.9 C31.2,26 31,26.1 30.8,26.1 C29.9,26.2 28.9,26.2 28,26.3 C27.5,26.4 27,26.2 26.6,25.8 C25.3,24.6 24,23.5 22.7,22.4 C20.3,20.2 17.8,18.1 15.4,15.9 C12.9,13.6 10.5,11.2 8.1,8.8 C7.4,8.1 6.8,7.3 6.3,6.4 C6,5.9 6,5.3 5.9,4.7 C5.9,4.6 6.1,4.4 6.2,4.4 C8.4,4.5 10.5,4.6 12.7,4.8 C13.9,4.9 15.1,5 16.3,5.2 C18.4,5.6 20.2,6.6 22,7.7 C23.3,8.5 24.5,9.4 25.7,10.3 C27.2,11.4 28.5,12.7 29.6,14.2 C29.6,14.3 29.7,14.3 29.7,14.4 C30.8,16.2 30.4,17.4 28.4,18 C27.6,18.2 26.7,18.2 25.9,18.3 C25.2,18.4 24.5,18.3 23.8,18.4 C23.6,18.4 23.4,18.5 23,18.6 C26,21.1 28.7,23.4 31.5,25.9 Z M21,15 C21,15 21,15.1 21,15.1 C21.8,15 22.5,15 23.3,14.9 C24,14.8 24.1,14.4 23.8,13.8 C23.7,13.7 23.6,13.5 23.5,13.4 C21.9,11.4 20,9.9 17.5,9.3 C16.2,9 14.9,9.1 13.6,9 C13.5,9 13.3,9.1 13.2,9.1 C13.3,9.2 13.3,9.4 13.4,9.5 C15,11.1 16.7,12.7 18.3,14.3 C18.8,14.8 19.3,15.1 20,15 C20.3,14.9 20.7,15 21,15 Z" id="Shape" fill="#000000"></path>
                    <path d="M70.5,23.8 C68.1,23.9 65.6,23.4 63.2,22.7 C59,21.3 55.3,19.2 52,16.2 C50.8,15.1 49.5,14 48.7,12.5 C48.3,11.8 48,10.9 47.8,10.1 C47.5,8.8 48.3,7.8 49.6,7.3 C51.5,6.6 53.5,6.8 55.4,7 C57.7,7.2 59.9,8 62.1,8.8 C65,10 67.9,11.4 70.4,13.3 C71.8,14.4 73.2,15.4 74.5,16.7 C75.4,17.6 76.2,18.7 76.8,19.7 C77.6,21 77,22.3 75.6,22.9 C74.1,23.8 72.4,23.8 70.5,23.8 Z M68.6,21.6 C69.3,21.5 70.1,21.4 70.8,21.2 C71.4,21.1 71.8,20.6 71.7,20.1 C71.6,19.6 71.4,19.1 71.1,18.6 C69.9,17 68.4,15.6 66.8,14.4 C64.3,12.5 61.7,10.8 58.5,10.2 C57.3,10 56.1,9.9 54.8,10.1 C53.9,10.3 53.4,11 53.7,11.9 C54,12.6 54.3,13.3 54.9,13.9 C56.6,15.8 58.4,17.4 60.5,18.8 C63,20.4 65.6,21.5 68.6,21.6 Z" id="Shape" fill="#000000"></path>
                    <path d="M59,24.1 C57.6,24.2 56.4,24.3 55.2,24.3 C52.4,24.5 49.6,24.6 46.8,24.8 C46.4,24.8 46,24.9 45.6,24.9 C45.3,24.9 45,24.8 44.7,24.6 C43.1,23.3 41.6,21.9 40.1,20.6 C38.4,19.1 36.7,17.7 35,16.1 C33.1,14.4 31.3,12.7 29.5,10.9 C28.4,9.8 27.3,8.6 26.3,7.4 C26,7 25.8,6.5 25.6,6.1 C25.6,6 25.8,5.7 25.9,5.7 C27.3,5.8 28.8,5.8 30.2,5.9 C30.3,5.9 30.5,6.1 30.6,6.2 C31,7.3 31.8,8.1 32.6,8.9 C34.2,10.5 35.7,12.1 37.3,13.6 C39.3,15.5 41.4,17.3 43.5,19.2 C44.4,20 45.3,20.8 46.2,21.6 C46.4,21.7 46.7,21.8 46.9,21.8 C49.5,21.7 52.1,21.5 54.8,21.4 C54.9,21.4 55,21.4 55.1,21.4 C55.8,21.3 56.3,21.5 56.8,22.1 C57.3,22.6 57.9,23 58.5,23.5 C58.7,23.7 58.8,23.9 59,24.1 Z" id="Shape" fill="#000000"></path>
                    <path d="M96.8,17 C97,15.9 97.2,14.9 97.3,14 C97.4,13.5 97.5,13.3 98,13.3 C99.4,13.3 100.7,13.3 102.1,13.3 C102.7,13.3 102.7,13.4 102.5,13.9 C102.2,14.7 102,15.4 101.7,16.2 C101.4,17 101.5,17.2 102.2,17.5 C104,18.3 105.9,19.1 107.8,19.8 C109.2,20.4 110.6,20.9 112,21.5 C112.1,21.5 112.2,21.6 112.4,21.7 C112.2,21.7 112.1,21.8 112,21.8 C110.8,21.8 109.6,21.9 108.5,21.9 C107.5,22 106.6,21.5 105.8,21.1 C103.4,20 100.9,18.9 98.5,17.8 C98.3,17.7 98.2,17.7 98,17.7 C99.4,19.2 101.1,20.4 102.7,21.8 C102.7,21.9 102.7,21.9 102.6,22 C102,22 101.4,22.1 100.8,22.1 C100.2,22.1 99.5,22.2 98.9,22.1 C98.6,22.1 98.2,21.9 97.9,21.7 C95.9,20 93.9,18.4 92,16.7 C89.8,14.7 87.8,12.7 85.7,10.6 C85.2,10.1 84.7,9.6 84.2,9.1 C84,8.9 83.9,8.7 83.6,8.4 C84.2,8.4 84.6,8.4 85,8.4 C86,8.4 87.1,8.5 88.1,8.6 C88.3,8.6 88.5,8.7 88.6,8.9 C89.9,10.2 91.1,11.5 92.4,12.8 C93.2,13.6 94,14.3 94.8,15 C95.2,15.4 95.6,15.8 96,16.2 C96.2,16.6 96.5,16.7 96.8,17 Z" id="Shape" fill="#000000"></path>
                    <path d="M86.7,15.6 C86.3,15.6 86,15.6 85.6,15.6 C85.1,15.7 84.5,15.7 84,15.8 C83.5,15.9 83.3,16.4 83.6,16.8 C84.2,17.5 84.9,18.3 85.6,18.9 C86.9,20 88.2,21.1 89.6,22.2 C89.7,22.3 89.7,22.4 89.8,22.5 C89.7,22.6 89.6,22.7 89.4,22.7 C88.3,22.7 87.2,22.8 86.1,22.8 C85.8,22.8 85.4,22.7 85.1,22.5 C82.6,20.3 80.1,18.1 77.6,15.9 C76.7,15.1 75.8,14.3 74.9,13.5 C74.8,13.4 74.8,13.3 74.7,13.2 C74.8,13.2 74.9,13.1 75,13.1 C76.1,13.1 77.2,13.1 78.3,13.2 C78.6,13.2 78.9,13.4 79.2,13.6 C79.5,13.8 79.9,14.1 80.2,14.4 C80.4,14.6 80.6,14.6 80.7,14.3 C80.7,13.6 81.3,13.4 81.8,13.3 C82.5,13.2 83.3,13.2 84,13.1 C84.1,13.1 84.2,13.1 84.3,13.2 C85.1,13.9 85.9,14.7 86.8,15.4 C86.7,15.4 86.7,15.5 86.7,15.6 Z" id="Shape" fill="#000000"></path>
                    <path d="M21,15 C20.7,15 20.3,15 20,15 C19.3,15.1 18.8,14.8 18.3,14.3 C16.7,12.7 15,11.1 13.4,9.5 C13.3,9.4 13.3,9.2 13.2,9.1 C13.3,9.1 13.5,9 13.6,9 C14.9,9.1 16.3,9.1 17.5,9.3 C20,9.8 21.9,11.4 23.5,13.4 C23.6,13.5 23.7,13.7 23.8,13.8 C24.1,14.4 24,14.8 23.3,14.9 C22.6,15 21.8,15.1 21,15.1 C21,15.1 21,15 21,15 Z" id="Shape" fill="#FFFFFF"></path>
                    <path d="M68.6,21.6 C65.6,21.5 63.1,20.4 60.6,18.8 C58.5,17.4 56.6,15.8 55,13.9 C54.5,13.3 54.1,12.6 53.8,11.9 C53.5,11 54,10.3 54.9,10.1 C56.1,9.9 57.3,10 58.6,10.2 C61.8,10.8 64.4,12.4 66.9,14.4 C68.5,15.6 70,17 71.2,18.6 C71.5,19 71.7,19.5 71.8,20.1 C71.9,20.6 71.5,21.1 70.9,21.2 C70,21.4 69.3,21.5 68.6,21.6 Z" id="Shape" fill="#FFFFFF"></path>
                </g>
            </g>
        </g>
    </g>
</svg>