<?xml version="1.0" encoding="UTF-8"?>
<svg width="109px" height="48px" viewBox="0 0 109 48" version="1.1" xmlns="http://www.w3.org/2000/svg" xmlns:xlink="http://www.w3.org/1999/xlink">
    <!-- Generator: Sketch 49.3 (51167) - http://www.bohemiancoding.com/sketch -->
    <title>WVlNWQ_1_</title>
    <desc>Created with Sketch.</desc>
    <defs></defs>
    <g id="Page-1" stroke="none" stroke-width="1" fill="none" fill-rule="evenodd">
        <g id="plork-logos" transform="translate(-404.000000, -40.000000)" fill-rule="nonzero">
            <g id="WVlNWQ_1_" transform="translate(404.000000, 40.000000)">
                <g id="Group">
                    <path d="M0.4,47.2 C0.4,31.6 0.4,15.9 0.4,0.3 C36.5,0.3 72.6,0.3 108.6,0.3 C108.6,15.9 108.6,31.6 108.6,47.2 C72.6,47.2 36.5,47.2 0.4,47.2 Z M67.2,42.2 C67.6,42.2 68,42.2 68.3,42.1 C69.2,42 70.1,41.8 70.8,41 C71.3,40.4 71.6,39.4 71.2,38.8 C70.8,38.1 70.4,37.4 69.9,36.8 C69,35.8 68,34.9 67,34 C66.2,33.2 65.4,32.4 64.5,31.6 C62.6,30.1 60.7,28.6 59.2,26.7 C58.3,25.6 57.6,24.3 57.1,22.9 C56.7,21.6 56.8,20.3 56.6,19 C56.4,17.8 56.8,16.6 57.7,15.7 C58.8,14.6 59.9,13.6 61,12.6 C62.3,11.5 63.6,10.4 64.4,8.9 C65.1,7.6 65,6.4 63.4,5.9 C62.1,5.4 60.8,5.4 59.5,5.5 C56.8,5.8 54.4,6.9 52,8.1 C49.1,9.5 46.3,10.9 43.5,12.4 C41.7,13.3 39.9,14.3 38.2,15.4 C36.5,16.5 35.5,18.1 35.8,20.2 C35.9,20.7 35.8,21.1 35.9,21.6 C36.5,23.7 37.7,25.3 39.4,26.7 C41,28 42.6,29.1 44.2,30.3 C45.8,31.4 47.4,32.4 49,33.4 C51.1,34.7 53.2,35.9 55.2,37.1 C57.3,38.3 59.5,39.6 61.6,40.7 C63.5,41.7 65.3,42.3 67.2,42.2 Z M2.7,23 C2.6,24 3.3,25.3 4.2,26.3 C5.2,27.5 6.4,28.5 7.7,29.5 C9.4,30.8 11.2,32 12.9,33.3 C15.1,34.9 17.3,36.5 19.5,38.2 C21.2,39.5 22.4,41.2 23.4,43 C23.8,43.6 24.1,44 24.9,43.9 C25.8,43.8 26.8,43.8 27.8,43.7 C28.2,43.7 28.3,43.5 28.1,43.2 C27.7,42.7 27.4,42 27.1,41.5 C26.5,40.7 25.9,39.9 25.2,39.2 C23.6,37.8 21.9,36.5 20.1,35.2 C17.4,33.2 14.7,31.3 11.9,29.3 C10.6,28.4 9.4,27.2 8.4,26 C8.3,25.9 8.2,25.7 8.3,25.5 C8.3,25.4 8.6,25.4 8.7,25.3 C9.7,25.2 10.6,25.2 11.6,25.2 C12.3,25.2 12.9,24.9 13.4,24.5 C13.9,24.1 14.4,23.6 14.7,23.1 C15.5,21.9 16.4,20.8 16.9,19.5 C17.7,17.6 18.7,16 20.4,14.7 C22.1,13.4 23.8,12.1 25.5,10.7 C26.3,10.1 26.9,9.2 27.1,8.2 C27.3,7.6 27,7.1 26.5,6.7 C25.7,6.1 24.7,6 23.8,6 C21.6,5.9 19.4,6 17.2,5.9 C16.7,5.9 16.3,6.1 16,6.5 C15.7,6.9 15.4,7.3 15.1,7.6 C13.7,8.9 12.2,10.2 10.7,11.5 C9.6,12.4 8.5,13.4 7.4,14.2 C5.9,15.4 4.4,16.7 3.7,18.6 C3.2,20 2.7,21.1 2.7,23 Z M91.2,6.5 C91,6.4 91,6.4 90.9,6.4 C89.6,6.4 88.4,6.4 87.1,6.4 C87,6.4 86.8,6.5 86.7,6.6 C84.7,8.7 82.4,10.4 80,11.9 C78.5,12.9 76.9,13.9 75.4,14.9 C74.4,15.6 73.5,16.4 73.1,17.5 C72.5,19.5 72.7,21.4 73.5,23.3 C74.3,25.1 75.5,26.5 77,27.7 C79.3,29.5 81.7,31.3 84.1,33 C85.1,33.8 86.3,34.4 87.3,35.2 C88.9,36.4 90.4,37.8 92,39 C92.2,39.2 92.5,39.3 92.8,39.3 C93.8,39.2 94.8,39.1 95.8,39 C95.9,39 96.1,38.9 96.3,38.9 C95.6,38.3 95.1,37.8 94.5,37.3 C92.3,35.7 90.2,34.1 88,32.5 C86.3,31.2 84.5,30 82.8,28.7 C81.1,27.5 79.7,26 78.5,24.3 C78.4,24.2 78.4,24 78.3,23.9 C78.3,23.9 78.4,23.8 78.4,23.8 C78.5,23.9 78.7,24 78.8,24.2 C79.5,24.9 80.2,25.6 81,26.1 C82.8,27.4 84.6,28.6 86.5,29.8 C88.8,31.3 91.2,32.6 93.6,34.1 C95.6,35.3 97.6,36.6 99.6,37.8 C100.2,38.2 100.9,38.4 101.6,38.3 C102.6,38.2 103.7,38.1 104.7,38 C104.8,38 104.9,37.9 105.1,37.8 C104.5,37.4 104,37 103.5,36.7 C100.8,35.1 98.2,33.6 95.5,32 C94,31.1 92.4,30.3 90.8,29.3 C89.1,28.3 87.5,27.2 85.9,26.1 C84.7,25.2 83.6,24.1 82.4,23.1 C82,22.8 82,22.3 82.2,22 C82.6,21.3 83,20.6 83.4,19.9 C84.5,18.1 86,16.7 87.8,15.7 C88.1,15.5 88.3,15.4 88.6,15.2 C88.6,15.2 88.6,15.1 88.6,15.1 C88.5,15.1 88.4,15.1 88.2,15.1 C87,15.1 85.8,15.2 84.7,15.2 C84.1,15.2 83.7,15.3 83.1,15.6 C81,16.9 79.5,18.7 78.4,20.8 C78.2,21.2 77.9,21.6 77.7,22.2 C77.6,22 77.5,21.8 77.5,21.7 C77.4,20.8 77.4,19.9 77.3,19 C77.2,17.8 77.7,16.9 78.5,16.1 C79.5,15.1 80.6,14.2 81.8,13.5 C84.6,11.8 87.4,10.1 89.8,7.8 C90.3,7.4 90.8,7 91.2,6.5 Z M55.4,42.2 C55,41.6 54.8,41.2 54.5,40.8 C53,38.9 51.1,37.4 49.2,36 C48.9,35.8 48.5,35.6 48.2,35.6 C46.1,35.8 44.1,36.1 42,36.4 C41.4,36.5 40.7,36.7 40.1,36.2 C39.2,35.5 38.2,34.9 37.2,34.2 C35.4,32.9 33.6,31.6 31.8,30.3 C29.6,28.7 27.4,27.1 25.9,24.7 C25.2,23.6 24.7,22.4 24.7,21.1 C24.7,20.3 24.6,19.5 24.7,18.7 C24.8,18.2 24.9,17.6 25.2,17.1 C25.9,15.8 27.2,15 28.3,14.1 C29.4,13.3 30.6,12.7 31.7,12 C33.9,10.6 36,9.1 37.9,7.3 C38.2,7 38.5,6.6 38.8,6.2 C38.6,6.2 38.5,6.1 38.4,6.1 C37.4,6.1 36.3,6.1 35.3,6.1 C34.6,6.1 34.1,6.4 33.7,6.8 C32.4,8.3 30.9,9.4 29.4,10.5 C27.2,12 25,13.4 22.8,14.8 C21,16 20,17.7 20,20 C20,21.9 20.4,23.6 21.5,25.1 C22.8,26.8 24.4,28.2 26.1,29.4 C27.3,30.3 28.6,31.1 29.9,32 C32,33.5 34.2,35.1 36.3,36.7 C38.3,38.2 40.1,39.8 41.3,42 C41.6,42.5 41.9,42.7 42.5,42.7 C45.7,42.5 48.9,42.4 52.1,42.2 C53.2,42.3 54.2,42.3 55.4,42.2 Z M65.7,15.9 C65.5,15.9 65.4,15.8 65.3,15.8 C64.4,15.8 63.4,15.9 62.5,15.8 C61.6,15.8 61.2,16.3 60.9,17 C60.1,18.4 60.4,20 60.6,21.5 C60.8,23.4 61.9,24.9 63.1,26.3 C64.5,27.8 66.2,29.1 67.9,30.3 C69.8,31.6 71.6,33 73.5,34.4 C74.8,35.4 76.2,36.3 77.5,37.3 C78.5,38.1 79.5,39 80.4,39.9 C80.7,40.2 80.9,40.4 81.4,40.4 C81.6,40.4 81.7,40.4 81.9,40.4 C82.9,40.3 83.8,40.2 84.8,40.2 C84.8,40.1 84.9,40.1 84.9,40 C84.4,39.5 84,39 83.5,38.5 C82.2,37.4 80.9,36.4 79.5,35.4 C76.7,33.4 74,31.4 71.2,29.4 C69.6,28.3 68.2,27 67,25.5 C66.2,24.4 65.5,23.3 65.6,21.9 C65.6,21.3 65.9,20.9 66.4,20.6 C67.3,20 68.2,20 69.2,20 C69.8,20 69.9,19.9 69.9,19.3 C69.8,17.9 70.4,16.8 71.4,15.9 C71.5,15.8 71.6,15.7 71.6,15.6 C71.6,15.6 71.5,15.5 71.5,15.5 C68.9,15.7 66.5,16.4 64.7,18.8 C64.4,17.5 65,16.7 65.7,15.9 Z" id="Shape" fill="#FFFFFF"></path>
                    <path d="M67.2,42.2 C65.2,42.2 63.5,41.7 61.8,40.8 C59.6,39.6 57.5,38.4 55.4,37.2 C53.3,36 51.2,34.8 49.2,33.5 C47.6,32.5 45.9,31.4 44.4,30.4 C42.8,29.3 41.1,28.1 39.6,26.8 C38,25.5 36.7,23.8 36.1,21.7 C36,21.3 36.1,20.8 36,20.3 C35.7,18.1 36.7,16.6 38.4,15.5 C40.1,14.4 41.9,13.4 43.7,12.5 C46.5,11 49.4,9.6 52.2,8.2 C54.6,7 57,5.9 59.7,5.6 C61,5.4 62.3,5.5 63.6,6 C65.1,6.6 65.2,7.8 64.6,9 C63.8,10.5 62.5,11.6 61.2,12.7 C60,13.7 58.9,14.7 57.9,15.8 C57,16.7 56.7,17.8 56.8,19.1 C57,20.4 56.9,21.7 57.3,23 C57.8,24.4 58.5,25.7 59.4,26.8 C60.9,28.7 62.9,30.1 64.7,31.7 C65.6,32.4 66.4,33.3 67.2,34.1 C68.2,35 69.2,35.9 70.1,36.9 C70.6,37.5 71,38.2 71.4,38.9 C71.7,39.6 71.5,40.6 71,41.1 C70.3,41.8 69.4,42 68.5,42.2 C68,42.2 67.6,42.2 67.2,42.2 Z M55.1,10.6 C54.8,10.6 54.4,10.6 54,10.7 C52.6,11.1 51.2,11.5 49.8,12.1 C47.4,13 45.1,14.1 43,15.6 C42.2,16.2 41.4,16.8 41.1,17.8 C40.5,19.7 40.6,21.5 41.5,23.3 C42.3,24.9 43.5,26.1 44.9,27.3 C46.7,28.8 48.7,30.1 50.7,31.2 C53.4,32.8 56.1,34.5 59.2,35.4 C59.8,35.6 60.5,35.6 61.1,35.7 C61.8,35.7 62,35.3 61.8,34.7 C61.6,34.2 61.3,33.8 61,33.4 C60.5,32.8 60,32.2 59.5,31.6 C58.3,30.4 56.9,29.3 55.7,28.1 C54.5,27 53.4,25.7 52.8,24.1 C52.4,23.2 52.1,22.3 52,21.4 C51.8,20.6 51.9,19.8 51.8,18.9 C51.7,18.1 51.8,17.4 52.2,16.7 C52.7,15.9 53.3,15.2 53.9,14.5 C54.5,13.8 55.2,13.3 55.9,12.6 C56.2,12.3 56.4,11.9 56.6,11.4 C56.7,11 56.6,10.7 56.2,10.6 C55.8,10.7 55.5,10.7 55.1,10.6 Z" id="Shape" fill="#000000"></path>
                    <path d="M2.7,23 C2.7,21.2 3.2,20 3.7,18.8 C4.4,16.9 5.8,15.6 7.4,14.4 C8.5,13.5 9.6,12.6 10.7,11.7 C12.2,10.4 13.6,9.1 15.1,7.8 C15.5,7.5 15.7,7.1 16,6.7 C16.3,6.3 16.7,6.1 17.2,6.1 C19.4,6.2 21.6,6.1 23.8,6.2 C24.7,6.2 25.7,6.3 26.5,6.9 C27,7.3 27.3,7.7 27.1,8.4 C26.8,9.4 26.2,10.3 25.5,10.9 C23.9,12.3 22.1,13.6 20.4,14.9 C18.8,16.2 17.7,17.8 16.9,19.7 C16.4,21 15.5,22.1 14.7,23.3 C14.3,23.8 13.9,24.3 13.4,24.7 C12.9,25.1 12.3,25.4 11.6,25.4 C10.6,25.4 9.7,25.5 8.7,25.5 C8.5,25.5 8.3,25.6 8.3,25.7 C8.3,25.8 8.3,26.1 8.4,26.2 C9.4,27.4 10.6,28.5 11.9,29.5 C14.6,31.5 17.4,33.4 20.1,35.4 C21.8,36.7 23.5,38 25.2,39.4 C25.9,40 26.5,40.9 27.1,41.7 C27.5,42.2 27.8,42.8 28.1,43.4 C28.3,43.8 28.2,43.9 27.8,43.9 C26.8,44 25.9,43.9 24.9,44.1 C24.1,44.2 23.8,43.9 23.4,43.2 C22.4,41.4 21.2,39.7 19.5,38.4 C17.3,36.8 15.1,35.2 12.9,33.5 C11.2,32.2 9.4,31 7.7,29.7 C6.5,28.7 5.3,27.7 4.2,26.5 C3.3,25.2 2.6,24 2.7,23 Z M8.8,20.3 C8.8,20.3 8.8,20.3 8.8,20.3 C9.4,20.3 10,20.2 10.6,20.1 C11.7,20 12.5,19.4 13,18.4 C13.6,17.1 14.6,16 15.6,15 C16.1,14.5 16.7,14 17.2,13.4 C17.7,12.8 17.5,12.4 16.7,12.4 C15.8,12.4 14.9,12.5 14,12.6 C13.9,12.6 13.8,12.7 13.7,12.8 C12.5,13.7 11.4,14.5 10.3,15.4 C9,16.5 8,17.8 7.6,19.5 C7.4,20.2 7.4,20.2 8.2,20.3 C8.3,20.3 8.6,20.3 8.8,20.3 Z" id="Shape" fill="#000000"></path>
                    <path d="M91.2,6.5 C90.7,7 90.3,7.5 89.8,7.9 C87.4,10.2 84.6,11.8 81.8,13.6 C80.6,14.3 79.5,15.2 78.5,16.2 C77.7,17 77.2,18 77.3,19.1 C77.4,20 77.4,20.9 77.5,21.8 C77.5,21.9 77.6,22.1 77.7,22.3 C78,21.8 78.2,21.4 78.4,20.9 C79.5,18.8 81,17 83.1,15.7 C83.6,15.4 84.1,15.3 84.7,15.3 C85.9,15.3 87.1,15.3 88.2,15.2 C88.3,15.2 88.4,15.2 88.6,15.2 C88.6,15.2 88.6,15.3 88.6,15.3 C88.3,15.5 88.1,15.6 87.8,15.8 C86,16.9 84.6,18.3 83.4,20 C83,20.7 82.6,21.4 82.2,22.1 C82,22.5 82,22.9 82.4,23.2 C83.6,24.2 84.6,25.3 85.9,26.2 C87.5,27.4 89.1,28.4 90.8,29.4 C92.3,30.3 93.9,31.2 95.5,32.1 C98.2,33.7 100.8,35.2 103.5,36.8 C104,37.1 104.5,37.5 105.1,37.9 C104.9,38 104.8,38.1 104.7,38.1 C103.7,38.2 102.6,38.3 101.6,38.4 C100.8,38.5 100.2,38.3 99.6,37.9 C97.6,36.6 95.6,35.4 93.6,34.2 C91.3,32.8 88.9,31.4 86.5,29.9 C84.6,28.7 82.8,27.5 81,26.2 C80.2,25.6 79.5,24.9 78.8,24.3 C78.7,24.2 78.5,24.1 78.4,23.9 C78.4,23.9 78.3,24 78.3,24 C78.4,24.1 78.4,24.3 78.5,24.4 C79.6,26.1 81.1,27.6 82.8,28.8 C84.5,30.1 86.3,31.3 88,32.6 C90.2,34.2 92.3,35.8 94.5,37.4 C95.1,37.8 95.6,38.4 96.3,39 C96,39.1 95.9,39.1 95.8,39.1 C94.8,39.2 93.8,39.3 92.8,39.4 C92.5,39.4 92.2,39.3 92,39.1 C90.4,37.8 88.9,36.5 87.3,35.3 C86.3,34.5 85.2,33.8 84.1,33.1 C81.7,31.3 79.3,29.6 77,27.8 C75.5,26.6 74.2,25.2 73.5,23.4 C72.7,21.5 72.5,19.6 73.1,17.6 C73.5,16.4 74.4,15.6 75.4,15 C76.9,13.9 78.5,13 80,12 C82.4,10.4 84.7,8.7 86.7,6.7 C86.8,6.6 87,6.5 87.1,6.5 C88.4,6.5 89.6,6.5 90.9,6.5 C91,6.4 91.1,6.4 91.2,6.5 Z" id="Shape" fill="#000000"></path>
                    <path d="M55.4,42.2 C54.2,42.3 53.2,42.4 52.2,42.4 C49,42.6 45.8,42.7 42.6,42.9 C42,42.9 41.7,42.8 41.4,42.2 C40.2,40 38.4,38.3 36.4,36.9 C34.3,35.3 32.1,33.8 30,32.2 C28.8,31.3 27.5,30.5 26.2,29.6 C24.5,28.3 22.9,27 21.6,25.3 C20.5,23.8 20.1,22.1 20.1,20.2 C20.1,17.9 21.1,16.2 22.9,15 C25.1,13.5 27.3,12.2 29.5,10.7 C31.1,9.6 32.6,8.5 33.8,7 C34.2,6.5 34.7,6.2 35.4,6.3 C36.4,6.3 37.5,6.3 38.5,6.3 C38.6,6.3 38.7,6.3 38.9,6.4 C38.6,6.8 38.3,7.2 38,7.5 C36.1,9.3 34,10.8 31.8,12.2 C30.7,12.9 29.5,13.6 28.4,14.3 C27.2,15.1 26,15.9 25.3,17.3 C25,17.8 24.9,18.3 24.8,18.9 C24.7,19.7 24.8,20.5 24.8,21.3 C24.8,22.6 25.3,23.8 26,24.9 C27.5,27.3 29.7,28.9 31.9,30.5 C33.7,31.8 35.5,33.1 37.3,34.4 C38.2,35.1 39.2,35.7 40.2,36.4 C40.8,36.9 41.5,36.7 42.1,36.6 C44.2,36.3 46.2,36.1 48.3,35.8 C48.6,35.8 49,35.9 49.3,36.2 C51.2,37.6 53.1,39.1 54.6,41 C54.8,41.1 55,41.6 55.4,42.2 Z" id="Shape" fill="#000000"></path>
                    <path d="M65.7,15.9 C65.1,16.7 64.4,17.5 64.5,18.7 C66.3,16.4 68.6,15.6 71.3,15.4 C71.3,15.4 71.4,15.5 71.4,15.5 C71.3,15.6 71.2,15.7 71.2,15.8 C70.2,16.7 69.6,17.8 69.7,19.2 C69.7,19.9 69.7,19.9 69,19.9 C68,19.9 67.1,20 66.2,20.5 C65.7,20.8 65.5,21.2 65.4,21.8 C65.3,23.2 66,24.3 66.8,25.4 C68,26.9 69.5,28.2 71,29.3 C73.8,31.3 76.5,33.3 79.3,35.3 C80.7,36.3 82,37.3 83.3,38.4 C83.8,38.8 84.2,39.4 84.7,39.9 C84.7,40 84.6,40 84.6,40.1 C83.6,40.2 82.7,40.3 81.7,40.3 C81.5,40.3 81.4,40.3 81.2,40.3 C80.8,40.3 80.5,40.1 80.2,39.8 C79.3,38.9 78.4,38 77.3,37.2 C76,36.2 74.7,35.3 73.3,34.3 C71.4,32.9 69.6,31.6 67.7,30.2 C66,29 64.3,27.7 62.9,26.2 C61.6,24.8 60.6,23.2 60.4,21.4 C60.2,19.9 59.9,18.4 60.7,16.9 C61.1,16.3 61.4,15.7 62.3,15.7 C63.2,15.7 64.2,15.7 65.1,15.7 C65.4,15.8 65.5,15.9 65.7,15.9 Z" id="Shape" fill="#000000"></path>
                    <path d="M55.1,10.6 C55.5,10.6 55.8,10.6 56.1,10.7 C56.5,10.8 56.7,11.1 56.5,11.5 C56.3,11.9 56.1,12.3 55.8,12.7 C55.2,13.4 54.5,13.9 53.8,14.6 C53.2,15.3 52.6,16 52.1,16.8 C51.7,17.4 51.6,18.2 51.7,19 C51.8,19.8 51.7,20.7 51.9,21.5 C52.1,22.4 52.4,23.4 52.7,24.2 C53.3,25.8 54.4,27 55.6,28.2 C56.8,29.4 58.2,30.5 59.4,31.7 C60,32.2 60.5,32.9 60.9,33.5 C61.2,33.9 61.5,34.3 61.7,34.8 C62,35.4 61.7,35.8 61,35.8 C60.4,35.8 59.7,35.7 59.1,35.5 C56,34.6 53.3,32.9 50.6,31.3 C48.6,30.1 46.6,28.8 44.8,27.4 C43.4,26.3 42.2,25 41.4,23.4 C40.5,21.6 40.4,19.7 41,17.9 C41.3,17 42.1,16.3 42.9,15.7 C45,14.2 47.3,13.1 49.7,12.2 C51.1,11.7 52.5,11.3 53.9,10.8 C54.4,10.7 54.8,10.7 55.1,10.6 Z" id="Shape" fill="#FFFFFF"></path>
                    <path d="M8.8,20.3 C8.5,20.3 8.3,20.3 8,20.3 C7.3,20.3 7.3,20.3 7.4,19.5 C7.8,17.8 8.8,16.5 10.1,15.4 C11.2,14.5 12.4,13.6 13.5,12.8 C13.6,12.7 13.7,12.6 13.8,12.6 C14.7,12.5 15.6,12.4 16.5,12.4 C17.3,12.4 17.4,12.8 17,13.4 C16.5,14 16,14.5 15.4,15 C14.3,16 13.4,17.1 12.8,18.4 C12.3,19.4 11.5,20 10.4,20.1 C10,20.2 9.4,20.3 8.8,20.3 C8.8,20.3 8.8,20.3 8.8,20.3 Z" id="Shape" fill="#FFFFFF"></path>
                </g>
            </g>
        </g>
    </g>
</svg>