<?xml version="1.0" encoding="UTF-8"?>
<svg width="122px" height="38px" viewBox="0 0 122 38" version="1.1" xmlns="http://www.w3.org/2000/svg" xmlns:xlink="http://www.w3.org/1999/xlink">
    <!-- Generator: Sketch 49.3 (51167) - http://www.bohemiancoding.com/sketch -->
    <title>I84V8U_1_</title>
    <desc>Created with Sketch.</desc>
    <defs></defs>
    <g id="Page-1" stroke="none" stroke-width="1" fill="none" fill-rule="evenodd">
        <g id="plork-logos" transform="translate(-991.000000, -237.000000)" fill-rule="nonzero">
            <g id="I84V8U_1_" transform="translate(991.000000, 237.000000)">
                <g id="Group">
                    <path d="M0.7,37.4 C0.7,25 0.7,12.6 0.7,0.1 C40.9,0.1 81.2,0.1 121.4,0.1 C121.4,12.5 121.4,24.9 121.4,37.4 C81.2,37.4 41,37.4 0.7,37.4 Z M66.2,33.8 C66.2,33.8 66.2,33.9 66.2,33.8 C66.9,33.8 67.6,33.8 68.2,33.7 C70.6,33.4 72.9,32.8 75.2,32.1 C78.8,31 82.2,29.6 85.4,27.6 C86.6,26.8 87.7,26 88,24.4 C88.1,23.7 88.1,23 88.1,22.4 C88.1,22.1 88.1,21.7 88,21.4 C87.5,20.5 86.8,19.7 85.8,19.2 C84.2,18.3 82.7,17.4 81,16.6 C78.1,15.3 75.2,14.2 72.3,12.9 C69.7,11.8 67,10.7 64.4,9.6 C61.5,8.3 58.8,6.7 56.2,4.8 C54.6,3.6 52.8,3 50.8,2.8 C49.6,2.7 48.4,2.8 47.2,3 C45.8,3.2 44.5,3.6 43.4,4.5 C42.6,5.2 42.3,5.5 42.9,6.5 C43.1,6.9 43.5,7.3 43.8,7.6 C45.5,9 47.4,10.1 49.4,11 C51.9,12.2 54.4,13.2 56.9,14.4 C58.8,15.3 60.6,16.1 62.4,17.1 C63.7,17.8 64.9,18.6 66.1,19.5 C67.2,20.3 67.9,21.5 67.8,23 C67.8,23.5 67.9,24 68,24.5 C68.1,25.2 68.2,25.8 67.8,26.4 C67.2,27.3 66.6,28.1 65.9,29 C65,30.1 64.1,31.1 63.2,32.2 C62.8,32.7 63,33.1 63.5,33.4 C63.7,33.5 63.9,33.6 64.2,33.6 C64.8,33.8 65.5,33.8 66.2,33.8 Z M18.8,35.8 C18.8,35.9 18.8,35.9 18.8,36 C19,36 19.1,36 19.3,36 C20.3,35.9 21.3,35.9 22.3,35.8 C22.9,35.7 23.5,35.6 24.1,35.3 C25.8,34.4 27.5,33.5 29.3,32.6 C31.9,31.3 34.2,29.8 36.4,28 C37.2,27.4 38,26.7 38.3,25.6 C38.3,25.4 38.6,25.3 38.8,25.3 C39.8,25.2 40.9,25.2 41.9,25.2 C43.9,25.2 45.8,24.5 47.3,23.2 C48.2,22.4 48.5,21.4 47.8,20.5 C47.5,20 47,19.6 46.5,19.2 C45.6,18.6 44.7,18 43.7,17.5 C40.6,16.1 37.6,14.8 34.5,13.4 C32.2,12.4 29.9,11.5 27.6,10.5 C24.8,9.2 22.1,7.8 19.7,5.9 C18.3,4.9 16.9,4 15.2,3.7 C14.5,3.6 13.7,3.4 13,3.4 C10.5,3.4 8.1,3.4 5.6,3.4 C5.3,3.4 5,3.3 5,3.7 C5.1,4.4 5.1,5.3 5.7,5.8 C6.3,6.4 6.9,7.1 7.6,7.6 C9.8,9.2 12.2,10.3 14.7,11.4 C18.2,12.9 21.8,14.3 25.3,15.9 C27.3,16.8 29.3,17.9 31.2,19 C32.2,19.6 33.2,20.3 33.5,21.5 C33.7,22.4 33.7,23.4 33.7,24.3 C33.7,24.9 33.6,25.6 33.3,26.1 C32.8,26.8 32.2,27.5 31.5,28.1 C30.2,29.1 28.8,30.1 27.3,31 C24.9,32.4 22.5,33.6 20.1,34.9 C19.8,35.2 19.3,35.5 18.8,35.8 Z M108.6,24 C108.6,24 108.7,24 108.7,24 C108.9,24.4 109.2,24.9 109.4,25.3 C109.8,26.4 109.3,27.3 108.7,28.1 C108,29 107.2,29.8 106.4,30.7 C106.1,31 105.8,31.3 105.5,31.6 C105.8,31.6 106,31.7 106.1,31.7 C107.1,31.7 108.1,31.5 109,31.6 C110.4,31.7 111.3,31.2 112.1,30.1 C112.7,29.3 113.3,28.5 113.8,27.6 C114.4,26.5 114.3,25.4 113.5,24.4 C113.3,24.2 113.2,23.9 113,23.7 C112.7,23.4 112.7,23.1 113,22.8 C113.1,22.6 113.2,22.5 113.3,22.3 C114.1,21.1 113.8,20.3 112.9,19.3 C111.9,18.3 110.8,17.5 109.6,16.9 C106.8,15.4 104,13.9 101.2,12.5 C100.7,12.3 100.1,12.1 99.6,12 C98.6,12 97.5,12 96.5,12.1 C96.4,12.1 96.3,12.2 96.1,12.2 C97,12.7 97.9,13.1 98.7,13.6 C101,14.8 103.3,16 105.6,17.3 C106.6,17.9 107.6,18.7 108.5,19.5 C109.5,20.5 109.5,21.8 108.5,22.7 C108.5,22.6 108.4,22.5 108.4,22.4 C108.3,21 107.5,20.2 106.5,19.4 C105.3,18.5 104,17.7 102.6,17.1 C100,15.9 97.3,14.7 94.7,13.5 C92.2,12.4 89.7,11.4 87.2,10.2 C85.4,9.4 83.7,8.5 82.1,7.2 C80.9,6.2 79.9,5.2 79.9,3.5 C79.9,3.4 79.7,3.2 79.6,3.2 C78.4,3.2 77.2,3.2 76,3.2 C75.7,3.2 75.6,3.3 75.6,3.6 C75.6,4.6 76,5.5 76.7,6.2 C78.1,7.7 79.9,8.7 81.7,9.5 C84.5,10.8 87.3,12 90.1,13.3 C92.7,14.4 95.2,15.5 97.8,16.7 C99.3,17.4 100.7,18.2 102,19.1 C103,19.7 103.9,20.5 104.1,21.8 C104.2,23 104.1,24.2 104.1,25.4 C104.1,25.7 103.9,26 103.7,26.2 C103,26.9 102.3,27.7 101.5,28.3 C100,29.4 98.4,30.3 96.9,31.3 C96.7,31.4 96.5,31.6 96.2,31.8 C96.4,31.9 96.5,31.9 96.5,31.9 C97.6,31.8 98.7,31.8 99.8,31.7 C100.2,31.7 100.7,31.6 101,31.4 C101.7,31.1 102.3,30.6 103,30.2 C104.5,29.2 106.1,28.2 107.4,26.9 C108.1,26.1 108.7,25.3 108.6,24.2 C108.5,24.3 108.5,24.2 108.6,24 Z M39,34.7 C39,34.7 39,34.8 39,34.8 C39.2,34.8 39.3,34.8 39.5,34.8 C40.3,34.8 41.2,34.7 42,34.7 C45.4,34.5 48.8,34.4 52.1,34.2 C52.8,34.2 53.6,34.2 54.2,33.8 C56.4,32.7 58.5,31.5 60.6,30.3 C60.7,30.3 60.7,30.2 60.8,30 C60.6,30 60.4,30 60.3,30 C57.6,30.1 54.9,30.3 52.1,30.4 C51.9,30.4 51.8,30.3 51.6,30.3 C51.6,30.2 51.6,30.2 51.5,30.1 C51.6,30 51.7,30 51.8,29.9 C52.8,29.1 53.9,28.4 54.9,27.5 C55.5,27 56.1,26.3 56.3,25.7 C56.5,24.4 56.5,23.1 56.3,21.8 C56.1,20.5 55,19.7 54,19.1 C52.2,18.1 50.4,17.1 48.6,16.2 C46.7,15.3 44.7,14.5 42.7,13.6 C40.8,12.8 38.8,11.9 36.9,11.1 C34.7,10.1 32.4,9 30.5,7.6 C29.2,6.6 28,5.6 28.1,3.7 C28.1,3.6 27.8,3.3 27.7,3.3 C26.4,3.3 25.2,3.3 23.9,3.3 C23.8,3.3 23.5,3.5 23.5,3.6 C23.6,4.3 23.6,5 24,5.5 C24.6,6.3 25.4,7.1 26.2,7.6 C28.3,9.1 30.6,10.2 33,11.2 C35.7,12.4 38.5,13.5 41.2,14.7 C43.1,15.5 45,16.4 46.9,17.4 C48.1,18 49.2,18.7 50.3,19.5 C51.6,20.4 52.3,21.6 52.1,23.2 C52,23.7 52.1,24.3 52.1,24.8 C52.1,25.2 52,25.5 51.9,25.8 C51.3,27 50.3,27.8 49.3,28.5 C46.9,30.3 44.3,31.7 41.7,33.1 C40.7,33.8 39.9,34.2 39,34.7 Z M90.4,17.2 C90.4,17.2 90.3,17.3 90.3,17.3 C90.1,17.2 89.8,17.1 89.6,17 C88.9,16.7 88.2,16.3 87.5,16 C86,15.3 84.4,14.8 82.9,14 C81.5,13.3 80.1,13.5 78.7,13.6 C78.7,13.6 78.7,13.7 78.6,13.7 C78.7,13.8 78.8,13.9 79,13.9 C80.3,14.5 81.7,15.1 83,15.7 C85.5,16.8 87.9,17.9 90.1,19.6 C91,20.3 91.7,21.2 91.7,22.5 C91.7,23.1 91.7,23.7 91.7,24.3 C91.8,25.5 91.3,26.4 90.5,27.2 C89.6,28 88.6,28.8 87.6,29.5 C86.3,30.4 84.9,31.2 83.6,32 C83.3,32.2 83.1,32.3 82.8,32.4 C82.8,32.4 82.8,32.5 82.8,32.5 C83,32.5 83.2,32.5 83.4,32.5 C84.3,32.5 85.2,32.4 86,32.4 C86.6,32.4 87.2,32.3 87.8,31.9 C88.4,31.5 89.1,31.2 89.7,30.8 C91.7,29.6 93.6,28.4 95.2,26.6 C95.5,26.3 95.8,25.8 95.9,25.4 C96.1,24.6 96.1,23.8 96.3,23 C96.6,21.7 97.2,20.2 99.3,20.3 C99.4,20.3 99.6,20.2 99.7,20.1 C99.6,20 99.6,19.8 99.4,19.7 C98.4,19 97.5,18.3 96.4,17.7 C92.9,15.8 89.3,14.3 85.6,12.8 C85.3,12.7 84.9,12.6 84.6,12.6 C84.5,12.6 84.3,12.7 84.2,12.8 C84.2,12.9 84.3,13.1 84.3,13.2 C84.5,13.4 84.6,13.5 84.8,13.7 C86.1,14.5 87.5,15.3 88.8,16.2 C89.4,16.6 89.9,16.9 90.4,17.2 Z" id="Shape" fill="#FFFFFF"></path>
                    <path d="M66.2,33.8 C65.5,33.8 64.8,33.8 64.1,33.8 C63.9,33.8 63.7,33.7 63.4,33.6 C62.9,33.3 62.7,32.9 63.1,32.4 C64,31.3 64.9,30.3 65.8,29.2 C66.5,28.4 67.1,27.5 67.7,26.6 C68.1,26 68,25.3 67.9,24.7 C67.9,24.2 67.7,23.7 67.7,23.2 C67.8,21.7 67.2,20.6 66,19.7 C64.8,18.8 63.6,18 62.3,17.3 C60.5,16.3 58.6,15.4 56.8,14.6 C54.3,13.5 51.8,12.4 49.3,11.2 C47.3,10.3 45.4,9.2 43.7,7.8 C43.3,7.5 43,7.1 42.8,6.7 C42.3,5.6 42.5,5.4 43.3,4.7 C44.4,3.8 45.7,3.3 47.1,3.2 C48.3,3.1 49.5,2.9 50.7,3 C52.7,3.2 54.5,3.8 56.1,5 C58.7,6.8 61.4,8.5 64.3,9.8 C66.9,10.9 69.6,12 72.2,13.1 C75.1,14.3 78.1,15.5 80.9,16.8 C82.5,17.5 84.1,18.5 85.7,19.4 C86.6,19.9 87.3,20.7 87.9,21.6 C88.1,21.9 88,22.2 88,22.6 C88,23.3 88,24 87.9,24.6 C87.7,26.1 86.5,27 85.3,27.8 C82.1,29.8 78.7,31.2 75.1,32.3 C72.8,33 70.5,33.6 68.1,33.9 C67.6,33.8 66.9,33.8 66.2,33.8 C66.2,33.9 66.2,33.8 66.2,33.8 Z M50.9,6.5 C50.6,6.5 50.4,6.5 50.1,6.5 C49.7,6.5 49.3,6.6 49.2,7.1 C49.2,7.4 49.3,7.9 49.5,8.1 C49.8,8.5 50.3,8.8 50.7,9.2 C52.7,10.6 54.9,11.6 57.1,12.7 C60,14 62.9,15.4 65.8,16.7 C67.7,17.6 69.6,18.6 71.1,20 C71.9,20.8 72.5,21.7 72.5,22.9 C72.5,23.4 72.5,23.9 72.6,24.4 C72.8,25.4 72.7,26.3 72.2,27.1 C71.8,27.7 71.5,28.4 71.2,29.1 C70.9,29.7 71.2,30.1 71.9,30.2 C72.1,30.2 72.2,30.2 72.4,30.2 C73.2,30.1 74,30 74.8,29.9 C77.3,29.3 79.6,28.3 81.7,26.8 C82.4,26.3 83,25.6 83.1,24.7 C83.2,23.9 83.3,23 83.3,22.2 C83.3,21.8 83.1,21.2 82.8,20.9 C82.2,20.2 81.5,19.5 80.7,19 C78.5,17.5 76,16.5 73.6,15.5 C70.6,14.3 67.7,13.1 64.7,11.9 C63.2,11.3 61.7,10.7 60.2,10.1 C58.3,9.3 56.5,8.4 54.7,7.6 C53.5,7.1 52.3,6.5 50.9,6.5 Z" id="Shape" fill="#000000"></path>
                    <path d="M18.8,35.8 C19.3,35.5 19.8,35.3 20.3,35 C22.7,33.7 25.1,32.5 27.5,31.1 C29,30.3 30.3,29.3 31.7,28.2 C32.4,27.7 33,27 33.5,26.2 C33.8,25.7 33.8,25 33.9,24.4 C33.9,23.5 34,22.5 33.7,21.6 C33.4,20.4 32.4,19.7 31.4,19.1 C29.5,18 27.5,16.9 25.5,16 C22,14.4 18.4,13 14.9,11.5 C12.4,10.4 10,9.3 7.8,7.7 C7.1,7.2 6.5,6.5 5.9,5.9 C5.3,5.3 5.3,4.5 5.2,3.8 C5.1,3.4 5.5,3.5 5.8,3.5 C8.3,3.5 10.7,3.5 13.2,3.5 C13.9,3.5 14.7,3.6 15.4,3.8 C17.1,4.1 18.6,4.9 19.9,6 C22.3,7.9 25,9.3 27.8,10.6 C30.1,11.6 32.4,12.5 34.7,13.5 C37.8,14.8 40.9,16.2 43.9,17.6 C44.9,18 45.8,18.7 46.7,19.3 C47.2,19.6 47.6,20.1 48,20.6 C48.6,21.5 48.4,22.5 47.5,23.3 C45.9,24.6 44.1,25.3 42.1,25.3 C41.1,25.3 40,25.4 39,25.4 C38.8,25.4 38.5,25.6 38.5,25.7 C38.2,26.7 37.4,27.4 36.6,28.1 C34.4,29.9 32,31.4 29.5,32.7 C27.8,33.6 26.1,34.5 24.3,35.4 C23.8,35.7 23.1,35.8 22.5,35.9 C21.5,36 20.5,36 19.5,36.1 C19.3,36.1 19.2,36.1 19,36.1 C18.8,35.9 18.8,35.8 18.8,35.8 Z M13.7,8.7 C14.2,9 14.5,9.3 14.9,9.5 C18.7,11.6 22.8,13 26.7,14.8 C29.4,16 32,17.3 34.7,18.6 C36.1,19.3 37.3,20.2 38.1,21.6 C38.2,21.7 38.4,21.8 38.6,21.8 C39.2,21.8 39.8,21.9 40.4,21.8 C41,21.8 41.5,21.7 42.1,21.5 C42.8,21.2 42.9,20.7 42.5,20.1 C41.9,19.2 40.9,18.6 40,18.1 C36.3,16.1 32.3,14.5 28.4,13 C26.7,12.3 25,11.7 23.3,11 C21.3,10.2 19.4,9.4 17.4,8.7 C16.2,8.2 15.1,8.1 13.7,8.7 Z" id="Shape" fill="#000000"></path>
                    <path d="M108.6,24 C108.6,24.1 108.5,24.2 108.5,24.4 C108.6,25.5 108,26.4 107.3,27.1 C106,28.4 104.5,29.4 102.9,30.4 C102.2,30.8 101.6,31.2 100.9,31.6 C100.5,31.8 100.1,31.9 99.7,31.9 C98.6,32 97.5,32 96.4,32.1 C96.3,32.1 96.3,32.1 96.1,32 C96.4,31.8 96.6,31.7 96.8,31.5 C98.3,30.5 99.9,29.5 101.4,28.5 C102.2,27.9 102.9,27.1 103.6,26.4 C103.8,26.2 104,25.9 104,25.6 C104,24.4 104.1,23.2 104,22 C103.9,20.8 102.9,20 101.9,19.3 C100.5,18.4 99.1,17.6 97.7,16.9 C95.2,15.7 92.6,14.6 90,13.5 C87.2,12.2 84.4,11 81.6,9.7 C79.8,8.8 78.1,7.8 76.6,6.4 C75.9,5.7 75.6,4.8 75.5,3.8 C75.5,3.5 75.6,3.4 75.9,3.4 C77.1,3.4 78.3,3.4 79.5,3.4 C79.6,3.4 79.8,3.6 79.8,3.7 C79.8,5.4 80.8,6.5 82,7.4 C83.5,8.6 85.3,9.5 87.1,10.4 C89.6,11.6 92.1,12.6 94.6,13.7 C97.3,14.9 99.9,16.1 102.5,17.3 C103.9,17.9 105.2,18.7 106.4,19.6 C107.4,20.4 108.2,21.3 108.3,22.6 C108.3,22.7 108.4,22.8 108.4,22.9 C109.3,22 109.4,20.7 108.4,19.7 C107.5,18.9 106.6,18.1 105.5,17.5 C103.3,16.2 100.9,15 98.6,13.8 C97.8,13.4 96.9,12.9 96,12.4 C96.2,12.3 96.3,12.3 96.4,12.3 C97.4,12.3 98.5,12.2 99.5,12.2 C100,12.2 100.6,12.4 101.1,12.7 C103.9,14.1 106.7,15.6 109.5,17.1 C110.7,17.7 111.8,18.5 112.8,19.5 C113.7,20.5 114,21.3 113.2,22.5 C113.1,22.7 113,22.9 112.9,23 C112.6,23.3 112.6,23.6 112.9,23.9 C113.1,24.1 113.2,24.4 113.4,24.6 C114.2,25.6 114.3,26.7 113.7,27.8 C113.2,28.7 112.5,29.4 112,30.3 C111.3,31.4 110.3,31.9 108.9,31.8 C107.9,31.7 106.9,31.9 106,31.9 C105.8,31.9 105.7,31.9 105.4,31.8 C105.8,31.4 106.1,31.2 106.3,30.9 C107.1,30.1 107.9,29.3 108.6,28.3 C109.2,27.5 109.7,26.6 109.3,25.5 C109.1,25 108.9,24.6 108.6,24.2 C108.6,24 108.6,24 108.6,24 Z" id="Shape" fill="#000000"></path>
                    <path d="M39,34.7 C39.8,34.3 40.7,33.8 41.5,33.4 C44.1,32.1 46.7,30.6 49.1,28.8 C50.1,28 51.1,27.3 51.7,26.1 C51.9,25.8 51.9,25.4 51.9,25.1 C51.9,24.6 51.9,24 51.9,23.5 C52.1,21.9 51.4,20.7 50.1,19.8 C49,19 47.9,18.3 46.7,17.7 C44.8,16.7 42.9,15.8 41,15 C38.3,13.8 35.5,12.7 32.8,11.5 C30.5,10.5 28.1,9.4 26,7.9 C25.2,7.3 24.4,6.6 23.8,5.8 C23.4,5.3 23.4,4.5 23.3,3.9 C23.3,3.8 23.5,3.6 23.7,3.6 C25,3.6 26.2,3.6 27.5,3.6 C27.6,3.6 27.9,3.8 27.9,4 C27.8,5.9 29,6.9 30.3,7.9 C32.3,9.4 34.5,10.4 36.7,11.4 C38.6,12.3 40.6,13.1 42.5,13.9 C44.5,14.8 46.5,15.6 48.4,16.5 C50.3,17.4 52.1,18.3 53.8,19.4 C54.8,20 55.9,20.8 56.1,22.1 C56.3,23.4 56.3,24.7 56.1,26 C56,26.7 55.3,27.3 54.7,27.8 C53.7,28.7 52.6,29.4 51.6,30.2 C51.5,30.3 51.4,30.3 51.3,30.4 C51.3,30.5 51.3,30.5 51.4,30.6 C51.6,30.6 51.7,30.7 51.9,30.7 C54.6,30.6 57.3,30.4 60.1,30.3 C60.3,30.3 60.4,30.3 60.6,30.3 C60.5,30.4 60.5,30.5 60.4,30.6 C58.3,31.8 56.2,33 54,34.1 C53.4,34.4 52.6,34.4 51.9,34.5 C48.5,34.7 45.1,34.8 41.8,35 C41,35 40.1,35.1 39.3,35.1 C39.1,35.1 39,35.1 38.8,35.1 C39.1,34.8 39.1,34.7 39,34.7 Z" id="Shape" fill="#000000"></path>
                    <path d="M90.4,17.2 C89.9,16.9 89.4,16.6 89,16.3 C87.7,15.5 86.3,14.7 85,13.8 C84.8,13.7 84.6,13.5 84.5,13.3 C84.4,13.2 84.3,13 84.4,12.9 C84.5,12.8 84.7,12.7 84.8,12.7 C85.1,12.7 85.5,12.8 85.8,12.9 C89.5,14.4 93.1,15.9 96.6,17.8 C97.7,18.4 98.6,19.1 99.6,19.8 C99.7,19.9 99.8,20.1 99.9,20.2 C99.8,20.3 99.6,20.4 99.5,20.4 C97.5,20.3 96.8,21.8 96.5,23.1 C96.3,23.9 96.3,24.7 96.1,25.5 C96,25.9 95.7,26.3 95.4,26.7 C93.8,28.4 91.9,29.6 89.9,30.9 C89.3,31.3 88.6,31.6 88,32 C87.4,32.3 86.9,32.5 86.2,32.5 C85.3,32.5 84.4,32.6 83.6,32.6 C83.4,32.6 83.2,32.6 83,32.6 C83,32.6 83,32.5 83,32.5 C83.3,32.4 83.5,32.2 83.8,32.1 C85.2,31.3 86.5,30.5 87.8,29.6 C88.8,28.9 89.8,28.1 90.7,27.3 C91.6,26.6 92,25.6 91.9,24.4 C91.9,23.8 91.9,23.2 91.9,22.6 C91.9,21.3 91.2,20.5 90.3,19.7 C88.2,18 85.7,16.9 83.2,15.8 C81.9,15.2 80.5,14.6 79.2,14 C79.1,13.9 79,13.9 78.8,13.8 C78.8,13.7 78.8,13.7 78.9,13.7 C80.3,13.5 81.7,13.4 83.1,14.1 C84.6,14.9 86.1,15.4 87.7,16.1 C88.4,16.4 89.1,16.8 89.8,17.1 C90,17.2 90.2,17.3 90.5,17.4 C90.3,17.3 90.4,17.3 90.4,17.2 Z" id="Shape" fill="#000000"></path>
                    <path d="M50.9,6.5 C52.2,6.5 53.4,7.1 54.6,7.6 C56.5,8.4 58.3,9.3 60.1,10.1 C61.6,10.7 63.1,11.3 64.6,11.9 C67.6,13.1 70.6,14.2 73.5,15.5 C76,16.5 78.4,17.6 80.6,19 C81.4,19.5 82.1,20.2 82.7,20.9 C83,21.2 83.2,21.8 83.2,22.2 C83.2,23 83.2,23.9 83,24.7 C82.9,25.6 82.3,26.3 81.6,26.8 C79.5,28.3 77.2,29.3 74.7,29.9 C73.9,30.1 73.1,30.1 72.3,30.2 C72.1,30.2 72,30.2 71.8,30.2 C71.1,30.1 70.9,29.7 71.1,29.1 C71.4,28.4 71.8,27.8 72.1,27.1 C72.6,26.2 72.7,25.3 72.5,24.4 C72.4,23.9 72.4,23.4 72.4,22.9 C72.4,21.7 71.8,20.8 71,20 C69.4,18.5 67.6,17.6 65.7,16.7 C62.8,15.3 59.9,14 57,12.7 C54.8,11.7 52.6,10.6 50.6,9.2 C50.2,8.9 49.7,8.5 49.4,8.1 C49.2,7.8 49,7.4 49.1,7.1 C49.2,6.7 49.6,6.6 50,6.5 C50.4,6.5 50.7,6.5 50.9,6.5 Z" id="Shape" fill="#FFFFFF"></path>
                    <path d="M13.7,8.7 C15,8.2 16.2,8.3 17.3,8.6 C19.3,9.3 21.2,10.1 23.2,10.9 C24.9,11.6 26.6,12.2 28.3,12.9 C32.3,14.4 36.2,16 39.9,18 C40.9,18.5 41.8,19.1 42.4,20 C42.8,20.6 42.7,21.1 42,21.4 C41.5,21.6 40.9,21.6 40.3,21.7 C39.7,21.7 39.1,21.7 38.5,21.7 C38.3,21.7 38.1,21.6 38,21.5 C37.2,20.1 36,19.2 34.6,18.5 C32,17.2 29.3,15.9 26.6,14.7 C22.6,13 18.6,11.5 14.8,9.4 C14.6,9.2 14.2,9 13.7,8.7 Z" id="Shape" fill="#FFFFFF"></path>
                </g>
            </g>
        </g>
    </g>
</svg>