<?xml version="1.0" encoding="UTF-8"?>
<svg width="145px" height="44px" viewBox="0 0 145 44" version="1.1" xmlns="http://www.w3.org/2000/svg" xmlns:xlink="http://www.w3.org/1999/xlink">
    <!-- Generator: Sketch 49.3 (51167) - http://www.bohemiancoding.com/sketch -->
    <title>FhsaFo_1_</title>
    <desc>Created with Sketch.</desc>
    <defs></defs>
    <g id="Page-1" stroke="none" stroke-width="1" fill="none" fill-rule="evenodd">
        <g id="plork-logos" transform="translate(-862.000000, -300.000000)" fill-rule="nonzero">
            <g id="FhsaFo_1_" transform="translate(862.000000, 300.000000)">
                <g id="Group">
                    <path d="M0.2,43.8 C0.2,29.5 0.2,15.2 0.2,0.9 C48.4,0.9 96.7,0.9 144.9,0.9 C144.9,15.2 144.9,29.5 144.9,43.8 C96.7,43.8 48.5,43.8 0.2,43.8 Z M88.5,40.7 C89.9,40.7 91.5,40.4 93.1,39.8 C95.9,38.7 97.9,36.9 99.2,34.3 C99.6,33.4 99.7,32.4 99.4,31.5 C98.9,30.1 98.1,29 96.9,28.1 C96,27.4 95.1,26.8 94.4,25.9 C92.7,24 91,22 89.4,20 C87.1,17 84.4,14.4 81.4,12.1 C79.2,10.4 76.8,8.9 74.5,7.5 C71.7,5.8 68.6,4.9 65.3,5 C64,5 62.7,5.2 61.4,5.5 C59.9,5.8 58.6,6.5 57.7,7.7 C57.3,8.3 57,9 57.3,9.8 C58,11.5 58.5,13.2 59.4,14.9 C60.9,17.6 62.4,20.3 64.3,22.7 C65.8,24.6 67.3,26.3 69.3,27.6 C71.9,29.3 74,31.4 75.4,34.2 C76.4,36.2 77.9,37.9 79.9,39 C82.5,40.4 85.3,40.8 88.5,40.7 Z M31.6,28.5 C31.6,28.4 31.7,28.4 31.7,28.3 C31.9,28.3 32.2,28.3 32.4,28.3 C34,28.2 35.7,28.2 37.3,28.1 C38.1,28 38.5,27.5 38.6,26.7 C38.8,25.1 38.5,23.6 38,22.1 C37.3,20.1 36.3,18.2 34.9,16.5 C33.3,14.4 31.5,12.4 29.4,10.8 C27.7,9.5 25.8,8.4 23.9,7.5 C22,6.5 19.9,6.1 17.7,6 C14.7,5.9 11.7,6 8.8,6 C8.2,6 7.7,6 7.1,6 C6.7,6 6.5,6.2 6.7,6.6 C7.1,7.3 7.4,8.1 7.9,8.8 C9.3,10.5 10.8,12.2 12.2,13.9 C14.4,16.6 16.6,19.3 18.6,22.2 C20.2,24.5 22.1,26.4 24.4,28 C27.3,29.9 28.9,32.5 28.6,36.1 C28.5,37.2 28.6,38.4 28.6,39.5 C28.6,40.1 28.8,40.3 29.4,40.3 C30.9,40.3 32.4,40.2 34,40.2 C34.5,40.2 34.7,40 34.7,39.5 C34.7,38.2 34.7,36.8 34.7,35.5 C34.7,34.8 34.7,34.1 34.6,33.4 C34.3,31.8 33.4,30.5 32.2,29.4 C32.1,29.1 31.9,28.8 31.6,28.5 Z M121.4,25.7 C121.3,25.8 121.2,25.8 121.1,25.9 C120.5,25.2 119.8,24.6 119.3,23.9 C116.9,20.7 114.6,17.5 112.2,14.4 C111.3,13.2 110.3,11.9 109.3,10.8 C107.9,9.3 106.6,7.8 106,5.8 C105.9,5.6 105.6,5.4 105.4,5.4 C103.8,5.4 102.3,5.4 100.7,5.4 C100.2,5.4 100.1,5.7 100.3,6.1 C100.7,6.9 101,7.8 101.6,8.5 C102.3,9.4 103.2,10.2 103.8,11.1 C106.4,14.4 108.9,17.7 111.4,21.1 C113.4,23.9 115.7,26.4 118.6,28.5 C120.8,30.1 122,32.3 121.9,35.2 C121.9,36.6 121.9,38.1 121.9,39.5 C121.9,40 122.1,40.2 122.6,40.2 C124.1,40.2 125.6,40.2 127.2,40.2 C127.7,40.2 127.9,40 127.8,39.6 C127.8,37.9 127.8,36.2 127.7,34.5 C127.6,33.1 127.2,31.7 126.2,30.6 C125.9,30.3 125.7,29.9 125.4,29.6 C125.4,29.6 125.5,29.5 125.5,29.5 C125.6,29.6 125.8,29.6 125.9,29.7 C127.5,30.8 128.9,32.2 129.9,33.8 C131.1,35.8 132.2,37.8 133.4,39.7 C133.6,40.1 133.8,40.2 134.2,40.2 C135.4,40.2 136.5,40.2 137.7,40.2 C138.5,40.2 139.3,40.2 140.3,40.2 C139.9,39.5 139.5,38.9 139.2,38.4 C138,36.6 136.9,34.8 135.6,33.1 C133.9,31 131.7,29.4 129.4,28 C128,27.2 127.2,25.9 126.7,24.5 C126.3,22.9 126,21.3 125.8,19.7 C125.6,18.6 125.6,17.5 125.6,16.3 C125.6,15.8 125.4,15.5 124.9,15.5 C123.1,15.6 121.3,15.6 119.5,15.7 C119.3,15.7 119.1,16 119.1,16.2 C119.6,19.3 120,22.4 121.2,25.3 C121.4,25.3 121.4,25.5 121.4,25.7 Z M59.1,35.6 C59.1,35.2 59.1,34.8 59.1,34.5 C59,33.1 58.7,31.8 57.8,30.8 C56.8,29.7 55.7,28.5 54.5,27.7 C52.7,26.4 51.1,24.8 49.7,23 C47.6,20.1 45.5,17.3 43.3,14.4 C42.4,13.2 41.5,11.9 40.4,10.8 C39.1,9.5 37.9,8.1 37.2,6.3 C37.1,6.1 36.8,5.8 36.5,5.8 C34.9,5.8 33.3,5.8 31.7,5.8 C31.3,5.8 31.1,6 31.3,6.4 C31.7,7.1 31.9,7.8 32.4,8.4 C33.3,9.6 34.4,10.7 35.4,11.9 C37.3,14.3 39.1,16.6 41,19 C42.4,20.8 43.8,22.6 45.2,24.4 C46.6,26.2 48.6,27.3 50.3,28.7 C52.1,30.3 53.1,32.2 53.2,34.5 C53.2,35.8 53.2,37.1 53.2,38.5 C53.2,39.9 53.2,39.9 54.6,39.9 C60,39.9 65.4,39.9 70.8,39.9 C71.3,39.9 71.6,39.8 71.5,39.2 C71.5,38.2 71.5,37.1 71.5,36.1 C71.5,35.6 71.3,35.4 70.8,35.4 C68.9,35.4 67,35.4 65.1,35.4 C63.1,35.6 61.2,35.6 59.1,35.6 Z M91.4,16.2 C91.6,16.5 91.8,16.8 92,17 C92.7,17.9 93.5,18.9 94.2,19.8 C95.4,21.3 96.6,22.9 97.8,24.4 C99.1,26 100.8,27.1 102.3,28.3 C103.7,29.4 104.9,30.7 105.4,32.5 C105.7,33.6 105.7,34.8 105.8,35.9 C105.9,37.2 105.8,38.6 105.8,40 C106.1,40 106.3,40 106.4,40 C107.9,40 109.4,40 110.8,40 C111.3,40 111.4,39.8 111.4,39.4 C111.4,37.8 111.4,36.2 111.4,34.6 C111.4,33 110.9,31.5 109.8,30.2 C108.8,29.1 107.7,28.1 106.6,27.1 C105.8,26.3 105,25.5 104.4,24.7 C103.7,23.6 104.2,22.5 105.5,22.4 C106,22.3 106.6,22.3 107.2,22.3 C107.4,22.3 107.6,22.3 107.8,22.2 C107.6,21.9 107.5,21.7 107.4,21.5 C106.2,19.8 105,18.2 103.8,16.5 C103.3,15.8 102.8,15.5 101.9,15.6 C99.8,15.8 98.9,17.1 99.4,19.1 C99.4,19.2 99.4,19.4 99.5,19.7 C99.3,19.5 99.1,19.5 99.1,19.4 C98.6,18.7 98,18 97.5,17.3 C96.9,16.5 96.3,15.8 95.1,16 C94.1,16.1 93,16 92,16 C91.9,16.1 91.8,16.1 91.4,16.2 Z" id="Shape" fill="#FFFFFF"></path>
                    <path d="M88.5,40.7 C85.3,40.9 82.6,40.5 80,39.1 C78,38 76.5,36.3 75.5,34.3 C74.1,31.5 72.1,29.3 69.4,27.7 C67.4,26.4 65.8,24.7 64.4,22.8 C62.5,20.3 61.1,17.6 59.5,15 C58.6,13.4 58.1,11.6 57.4,9.9 C57.1,9.1 57.3,8.5 57.8,7.8 C58.7,6.5 60,5.8 61.5,5.6 C62.8,5.4 64.1,5.2 65.4,5.1 C68.7,5 71.8,6 74.6,7.6 C77,9 79.3,10.5 81.5,12.2 C84.5,14.5 87.1,17.1 89.5,20.1 C91.1,22.1 92.8,24.1 94.5,26 C95.2,26.8 96.1,27.5 97,28.2 C98.2,29.1 99.1,30.2 99.5,31.6 C99.8,32.5 99.7,33.6 99.3,34.4 C98,37.1 95.9,38.9 93.2,39.9 C91.5,40.4 89.9,40.7 88.5,40.7 Z M87.3,36.5 C88.1,36.4 88.9,36.3 89.7,36.1 C91.3,35.6 92.7,34.7 93,32.9 C93.3,31.3 92.7,30 91.5,29 C90.5,28.1 89.4,27.4 88.5,26.4 C86.9,24.7 85.3,23 83.9,21.1 C81,17.3 77.7,13.9 73.5,11.5 C71.6,10.4 69.5,9.7 67.2,9.9 C66,10 65.2,10.7 65.2,12 C65.2,12.6 65.3,13.2 65.5,13.7 C66.3,15.5 67.1,17.3 68.1,18.9 C70.2,22.4 72.6,25.6 76.1,27.8 C78.2,29.2 79.8,30.9 81.2,33 C82.8,35.2 84.6,36.6 87.3,36.5 Z" id="Shape" fill="#000000"></path>
                    <path d="M31.6,28.5 C31.8,28.8 32.1,29.1 32.3,29.3 C33.5,30.4 34.4,31.7 34.7,33.3 C34.8,34 34.8,34.7 34.8,35.4 C34.8,36.7 34.8,38.1 34.8,39.4 C34.8,39.9 34.7,40.1 34.1,40.1 C32.6,40.1 31.1,40.1 29.5,40.2 C29,40.2 28.7,40 28.7,39.4 C28.7,38.3 28.6,37.1 28.7,36 C29,32.4 27.4,29.8 24.5,27.9 C22.2,26.4 20.3,24.4 18.7,22.1 C16.7,19.2 14.5,16.5 12.3,13.8 C10.9,12.1 9.4,10.4 8,8.7 C7.5,8.1 7.2,7.3 6.8,6.5 C6.6,6.1 6.8,5.9 7.2,5.9 C7.8,5.9 8.3,5.9 8.9,5.9 C11.9,5.9 14.9,5.8 17.8,5.9 C19.9,6 22.1,6.4 24,7.4 C25.9,8.4 27.7,9.5 29.5,10.7 C31.6,12.3 33.4,14.3 35,16.4 C36.3,18.1 37.4,19.9 38.1,22 C38.6,23.5 38.8,25 38.7,26.6 C38.6,27.4 38.1,28 37.4,28 C35.8,28.1 34.1,28.2 32.5,28.2 C32.3,28.2 32,28.2 31.8,28.2 C31.7,28.4 31.7,28.5 31.6,28.5 Z M26.7,21.7 C27.6,21.6 28.5,21.5 29.4,21.3 C30.3,21.1 30.6,20.4 30.4,19.6 C30.3,19.2 30.1,18.7 29.9,18.3 C29,16.6 27.7,15.2 26.3,13.9 C23.7,11.3 20.6,10.9 17.1,11.2 C16.7,11.2 16.6,11.5 16.9,11.8 C17.2,12.2 17.5,12.5 17.8,12.9 C19.6,15.1 21.4,17.4 23.1,19.7 C24.5,21.6 24.4,21.6 26.7,21.7 Z" id="Shape" fill="#000000"></path>
                    <path d="M121.4,25.7 C121.4,25.5 121.4,25.3 121.3,25.1 C120.1,22.2 119.7,19.1 119.2,16 C119.2,15.9 119.5,15.5 119.6,15.5 C121.4,15.4 123.2,15.4 125,15.3 C125.6,15.3 125.7,15.6 125.7,16.1 C125.8,17.2 125.8,18.4 125.9,19.5 C126.1,21.1 126.4,22.7 126.8,24.3 C127.2,25.8 128,27 129.5,27.8 C131.9,29.1 134,30.7 135.7,32.9 C137,34.6 138.1,36.4 139.3,38.2 C139.7,38.7 140,39.3 140.4,40 C139.4,40 138.6,40 137.8,40 C136.6,40 135.5,40 134.3,40 C133.9,40 133.7,39.9 133.5,39.5 C132.4,37.5 131.2,35.5 130,33.6 C129,32 127.6,30.6 126,29.5 C125.9,29.4 125.7,29.4 125.6,29.3 C125.6,29.3 125.5,29.4 125.5,29.4 C125.8,29.7 126,30.1 126.3,30.4 C127.2,31.5 127.7,32.8 127.8,34.3 C127.9,36 127.9,37.7 127.9,39.4 C127.9,39.9 127.8,40.1 127.3,40 C125.8,40 124.3,40 122.7,40 C122.2,40 122,39.8 122,39.3 C122,37.9 121.9,36.4 122,35 C122.1,32.2 120.9,29.9 118.7,28.3 C115.9,26.2 113.6,23.7 111.5,20.9 C109.1,17.5 106.5,14.2 103.9,10.9 C103.2,10 102.3,9.2 101.7,8.3 C101.2,7.6 100.8,6.7 100.4,5.9 C100.2,5.5 100.3,5.2 100.8,5.2 C102.4,5.2 103.9,5.2 105.5,5.2 C105.7,5.2 106,5.4 106.1,5.6 C106.7,7.6 108,9.1 109.4,10.6 C110.4,11.7 111.4,12.9 112.3,14.2 C114.7,17.4 117,20.6 119.4,23.7 C119.9,24.4 120.6,25.1 121.2,25.7 C121.3,25.8 121.4,25.7 121.4,25.7 Z" id="Shape" fill="#000000"></path>
                    <path d="M59.1,35.6 C61.2,35.6 63.1,35.6 65,35.6 C66.9,35.6 68.8,35.6 70.7,35.6 C71.2,35.6 71.4,35.8 71.4,36.3 C71.4,37.3 71.4,38.4 71.4,39.4 C71.4,40 71.2,40.1 70.7,40.1 C65.3,40.1 59.9,40.1 54.5,40.1 C53.1,40.1 53.1,40.1 53.1,38.7 C53.1,37.4 53.1,36 53.1,34.7 C53,32.3 52,30.4 50.2,28.9 C48.5,27.4 46.5,26.4 45.1,24.6 C43.7,22.8 42.3,21 40.9,19.2 C39.1,16.8 37.2,14.4 35.3,12.1 C34.3,10.9 33.3,9.8 32.3,8.6 C31.8,8 31.6,7.2 31.2,6.6 C31,6.2 31.2,6 31.6,6 C33.2,6 34.8,5.9 36.4,6 C36.6,6 37,6.3 37.1,6.5 C37.8,8.3 39,9.7 40.3,11 C41.4,12.1 42.3,13.4 43.2,14.6 C45.4,17.4 47.5,20.3 49.6,23.2 C51,25 52.5,26.6 54.4,27.9 C55.6,28.8 56.7,29.9 57.7,31 C58.6,32 58.9,33.4 59,34.7 C59.1,34.9 59.1,35.2 59.1,35.6 Z" id="Shape" fill="#000000"></path>
                    <path d="M91.4,16.2 C91.7,16.2 91.9,16.1 92.1,16.1 C93.1,16.1 94.2,16.2 95.2,16.1 C96.4,15.9 97,16.6 97.6,17.4 C98.1,18.1 98.6,18.8 99.2,19.5 C99.3,19.6 99.4,19.6 99.6,19.8 C99.6,19.5 99.6,19.4 99.5,19.2 C98.9,17.2 99.9,15.9 102,15.7 C102.9,15.6 103.4,15.9 103.9,16.6 C105,18.3 106.3,19.9 107.5,21.6 C107.6,21.8 107.7,22 107.9,22.3 C107.6,22.3 107.4,22.4 107.3,22.4 C106.7,22.4 106.2,22.4 105.6,22.5 C104.3,22.7 103.8,23.8 104.5,24.8 C105.1,25.7 105.9,26.5 106.7,27.2 C107.7,28.3 108.9,29.2 109.9,30.3 C111,31.5 111.5,33 111.5,34.7 C111.5,36.3 111.5,37.9 111.5,39.5 C111.5,40 111.4,40.2 110.9,40.1 C109.4,40.1 107.9,40.1 106.5,40.1 C106.3,40.1 106.1,40.1 105.9,40.1 C105.9,38.7 105.9,37.4 105.9,36 C105.9,34.9 105.8,33.7 105.5,32.6 C105.1,30.8 103.8,29.5 102.4,28.4 C100.8,27.2 99.2,26 97.9,24.5 C96.6,23 95.5,21.4 94.3,19.9 C93.6,19 92.8,18 92.1,17.1 C91.8,16.7 91.7,16.5 91.4,16.2 Z" id="Shape" fill="#000000"></path>
                    <path d="M87.3,36.5 C84.6,36.6 82.8,35.1 81.4,33 C80,31 78.4,29.2 76.3,27.8 C72.8,25.5 70.4,22.4 68.3,18.9 C67.3,17.2 66.5,15.4 65.7,13.7 C65.5,13.2 65.4,12.6 65.4,12 C65.4,10.8 66.2,10 67.4,9.9 C69.7,9.7 71.8,10.4 73.7,11.5 C77.9,13.9 81.2,17.3 84.1,21.1 C85.5,23 87.1,24.7 88.7,26.4 C89.6,27.4 90.7,28.1 91.7,29 C92.8,30 93.5,31.3 93.2,32.9 C92.9,34.7 91.5,35.6 89.9,36.1 C89,36.4 88.1,36.4 87.3,36.5 Z" id="Shape" fill="#FFFFFF"></path>
                    <path d="M26.7,21.7 C24.4,21.6 24.5,21.5 23.1,19.7 C21.4,17.4 19.6,15.2 17.8,12.9 C17.5,12.5 17.2,12.2 16.9,11.8 C16.6,11.5 16.7,11.3 17.1,11.2 C20.5,10.8 23.7,11.3 26.3,13.9 C27.7,15.2 29,16.6 29.9,18.3 C30.1,18.7 30.3,19.2 30.4,19.6 C30.6,20.5 30.3,21.1 29.4,21.3 C28.5,21.6 27.6,21.6 26.7,21.7 Z" id="Shape" fill="#FFFFFF"></path>
                </g>
            </g>
        </g>
    </g>
</svg>