<?xml version="1.0" encoding="UTF-8"?>
<svg width="133px" height="43px" viewBox="0 0 133 43" version="1.1" xmlns="http://www.w3.org/2000/svg" xmlns:xlink="http://www.w3.org/1999/xlink">
    <!-- Generator: Sketch 49.3 (51167) - http://www.bohemiancoding.com/sketch -->
    <title>aimoDe_1_</title>
    <desc>Created with Sketch.</desc>
    <defs></defs>
    <g id="Page-1" stroke="none" stroke-width="1" fill="none" fill-rule="evenodd">
        <g id="plork-logos" transform="translate(-406.000000, -197.000000)" fill-rule="nonzero">
            <g id="aimoDe_1_" transform="translate(406.000000, 197.000000)">
                <g id="Group">
                    <path d="M0.2,43 C0.2,28.7 0.2,14.3 0.2,0 C44.4,0 88.7,0 132.9,0 C132.9,14.3 132.9,28.7 132.9,43 C88.7,43 44.4,43 0.2,43 Z M88.3,15 C88.4,13 87.7,11.3 86.4,9.8 C84.5,7.6 82,6.5 79.3,6.1 C77.6,5.8 75.8,5.9 74,6 C71,6.2 68.3,7.3 66.1,9.4 C64.3,11.1 62.9,13.2 61.6,15.2 C59.8,17.9 58,20.6 56.2,23.3 C55,25.2 53.7,27 52.6,28.9 C52,29.9 51.5,31 51.9,32.2 C52.1,32.9 52.5,33.6 53,34.2 C54.1,35.6 55.6,36.6 57.1,37.6 C59.4,39 61.9,40.2 64.7,40.5 C66.9,40.8 68.8,40.4 70.3,38.5 C70.7,38 71.2,37.6 71.6,37.2 C72.9,36.1 74.3,35.1 75.3,33.7 C76.3,32.3 77.4,31 78.6,29.8 C81.5,27 84.4,24.2 86.5,20.7 C87.5,18.9 88.3,17.1 88.3,15 Z M10.2,40.5 C10.2,40.4 10.3,40.3 10.3,40.2 C10.1,39.9 9.9,39.5 9.7,39.2 C9.4,38.7 9.1,38.1 8.9,37.6 C8.4,36.3 8.7,35 8.8,33.7 C8.8,32.5 9.2,31.4 9.9,30.4 C10.5,29.5 11.3,28.8 11.9,27.8 C12.9,26.2 14.2,25.7 16,25.8 C17.8,25.9 19.7,25.8 21.4,25.5 C24.9,24.8 28.1,23.2 30.8,20.8 C32.9,19 34.4,16.8 35.1,14.1 C35.5,12.4 34.7,9.6 33,8.5 C31.1,7.2 29,6.6 26.7,6.6 C23.1,6.5 19.5,6.5 16,6.5 C15.3,6.5 14.9,6.6 15,7.5 C15.1,8.1 15,8.7 14.9,9.4 C14.7,10.9 14.5,12.4 14.1,13.9 C13.5,16.2 12.5,18.4 11.2,20.4 C9.2,23.3 7.1,26.2 5,29 C4.2,30.1 3.1,31.2 2.8,32.6 C2.6,33.5 2.6,34.5 2.5,35.5 C2.3,36.9 2.7,38.2 3.5,39.4 C3.9,40.1 4.4,40.9 5.3,40.9 C6.9,40.7 8.6,40.6 10.2,40.5 Z M110.2,26.7 C110.3,26.8 110.3,26.8 110.4,26.9 C110.4,27 110.5,27.1 110.4,27.2 C110.2,27.9 109.9,28.5 109.8,29.2 C109.5,30.3 109.3,31.4 109.7,32.5 C110.5,34.6 111.6,36.5 113,38.2 C113.2,38.4 113.6,38.5 113.9,38.5 C115.7,38.5 117.5,38.5 119.3,38.5 C119.6,38.5 119.9,38.5 120.2,38.5 C120,38.2 120,38.1 119.9,37.9 C119.1,36.8 118.4,35.8 117.6,34.7 C116.6,33.2 115.7,31.7 116.1,29.8 C116.3,28.6 116.6,27.4 116.9,26.3 C117,25.8 117.4,25.3 117.8,25 C118.6,24.4 119.4,23.9 120.2,23.3 C123,21.2 125.9,19 128.7,16.9 C129.2,16.5 129.6,16 130.2,15.5 C129.9,15.4 129.8,15.4 129.7,15.4 C127.8,15.4 125.9,15.4 123.9,15.4 C123.7,15.4 123.4,15.6 123.2,15.7 C122.7,16.2 122.2,16.7 121.7,17.1 C119.2,19.2 116.7,21.2 114.2,23.2 C113.6,23.7 113,24 112.4,24.4 C112.3,24.3 112.3,24.3 112.2,24.2 C112.3,24 112.4,23.8 112.5,23.6 C113.7,21.7 115.1,19.8 116.2,17.8 C118,14.5 118.7,10.9 118.6,7.1 C118.6,6.6 118.4,6.4 118,6.4 C116.5,6.4 115.1,6.4 113.6,6.4 C112.5,6.4 112.5,6.4 112.4,7.5 C112.4,7.7 112.4,7.9 112.4,8.1 C112.3,9.5 112.3,11 112,12.4 C111.5,15.2 110.5,17.7 108.9,20 C106.9,22.8 104.8,25.6 102.7,28.4 C101.9,29.6 100.8,30.7 100.5,32 C100,33.8 100,35.8 100.6,37.7 C100.8,38.2 101.1,38.5 101.6,38.5 C103.2,38.5 104.7,38.5 106.3,38.5 C106.7,38.5 106.9,38.3 106.7,37.9 C106.2,36.6 106.3,35.2 106.3,33.9 C106.3,32.8 106.5,31.8 107.1,30.9 C107.8,29.9 108.5,28.9 109.2,27.9 C109.5,27.5 109.8,27.1 110.2,26.7 Z M40.5,33.3 C40.5,33.3 40.5,33.3 40.5,33.3 C38.6,33.3 36.6,33.3 34.7,33.3 C34.1,33.3 34,33.1 34.1,32.6 C34.4,31.2 35.2,30.1 36.1,29 C38.5,26 41,23 43,19.7 C44.5,17.3 45.6,14.7 46,11.9 C46.2,10.4 46.2,8.8 46.4,7.3 C46.5,6.7 46.3,6.5 45.7,6.5 C44.1,6.5 42.4,6.5 40.8,6.5 C40.2,6.5 40,6.7 40,7.3 C40.1,11.3 39.3,15.1 37.4,18.6 C35.7,21.8 33.4,24.6 31.2,27.4 C30.2,28.6 29.2,29.8 28.4,31.2 C27.2,33.3 27.3,35.7 27.9,37.9 C28.4,39.6 28.7,40 30.7,40 C34.8,39.9 38.9,39.8 43,39.7 C44.3,39.7 45.7,39.6 47,39.6 C47.6,39.6 47.7,39.4 47.5,38.8 C47.2,38.1 47,37.4 46.9,36.6 C46.8,35.8 46.8,35 46.8,34.2 C46.8,33.7 46.7,33.5 46.1,33.5 C44.4,33.3 42.5,33.3 40.5,33.3 Z M99.3,15.6 C98.9,15.6 98.7,15.5 98.5,15.5 C97.3,15.5 96,15.6 94.8,15.5 C94.1,15.5 93.8,15.7 93.6,16.3 C93,18.1 92.1,19.7 91,21.2 C89.3,23.6 87.6,26 85.6,28.2 C83.2,31 82.6,34.1 83.5,37.6 C83.7,38.2 84.1,38.6 84.8,38.5 C86.3,38.5 87.7,38.5 89.2,38.5 C89.6,38.5 89.9,38.4 89.7,37.9 C89.1,36.3 89.2,34.6 89.3,33 C89.3,32.3 89.5,31.6 89.9,31 C91.4,28.4 93.3,26.2 95.4,24.2 C97.4,22.2 99.7,21.1 102.6,21.2 C102.7,21.2 102.9,21.2 103,21.2 C103.5,21.2 103.9,21 104.1,20.5 C104.4,19.9 104.8,19.5 105.1,18.9 C105.6,17.8 106.2,16.7 106.7,15.7 C106.9,15.3 106.7,15.1 106.3,15.1 C105,15.3 103.6,15.4 102.4,16 C101.1,16.6 100.1,17.6 98.9,18.5 C98.7,18.6 98.6,18.7 98.5,18.8 C98.4,18.8 98.4,18.7 98.3,18.7 C98.5,17.8 98.9,16.8 99.3,15.6 Z" id="Shape" fill="#FFFFFF"></path>
                    <path d="M88.3,15 C88.3,17.1 87.4,18.9 86.4,20.7 C84.3,24.2 81.4,27 78.5,29.8 C77.3,31 76.2,32.4 75.2,33.7 C74.2,35.1 72.7,36.1 71.5,37.2 C71,37.6 70.5,38 70.2,38.5 C68.7,40.4 66.8,40.7 64.6,40.5 C61.8,40.2 59.4,39.1 57,37.6 C55.5,36.7 54,35.6 52.9,34.2 C52.4,33.6 52.1,32.9 51.8,32.2 C51.4,31 51.9,29.9 52.5,28.9 C53.7,27 54.9,25.1 56.1,23.3 C57.9,20.6 59.7,17.9 61.5,15.2 C62.9,13.1 64.2,11 66,9.4 C68.2,7.4 70.9,6.2 73.9,6 C75.7,5.9 77.5,5.9 79.2,6.1 C81.9,6.5 84.5,7.6 86.3,9.8 C87.7,11.2 88.4,13 88.3,15 Z M64.1,34.2 C65.7,34.3 67.4,33.6 68.9,32.3 C71.9,29.7 74.8,27 77.3,23.9 C79.1,21.7 80.6,19.4 81.3,16.6 C82.1,13.5 80.3,10.8 77.1,10.4 C73.9,10 71.3,11 69.3,13.6 C68,15.3 66.9,17.1 65.7,18.8 C64.2,21 62.6,23.2 61.1,25.5 C60.3,26.7 59.5,28 58.9,29.4 C58.1,31.1 58.6,32.5 60.3,33.4 C61.4,34 62.6,34.2 64.1,34.2 Z" id="Shape" fill="#000000"></path>
                    <path d="M10.2,40.5 C8.6,40.6 6.9,40.7 5.3,40.7 C4.4,40.7 4,39.8 3.5,39.2 C2.7,38 2.3,36.8 2.5,35.3 C2.6,34.3 2.6,33.4 2.8,32.4 C3.1,31 4.2,29.9 5,28.8 C7.1,25.9 9.2,23.1 11.2,20.2 C12.6,18.2 13.5,16.1 14.1,13.7 C14.5,12.2 14.6,10.7 14.9,9.2 C15,8.6 15.1,8 15,7.3 C14.9,6.5 15.3,6.3 16,6.3 C19.6,6.3 23.2,6.3 26.7,6.4 C28.9,6.5 31,7.1 33,8.3 C34.7,9.4 35.5,12.3 35.1,13.9 C34.4,16.6 32.9,18.8 30.8,20.6 C28.1,23 24.9,24.6 21.4,25.3 C19.6,25.7 17.8,25.7 16,25.6 C14.1,25.5 12.8,26 11.9,27.6 C11.4,28.5 10.6,29.3 9.9,30.2 C9.2,31.2 8.8,32.3 8.8,33.5 C8.7,34.8 8.5,36.1 8.9,37.4 C9.1,38 9.4,38.5 9.7,39 C9.9,39.3 10.1,39.7 10.3,40 C10.3,40.4 10.3,40.4 10.2,40.5 Z M20.3,20.5 C20.3,20.6 20.3,20.6 20.3,20.7 C21.4,20.5 22.5,20.4 23.6,20.1 C26.1,19.4 28.3,16.5 28.3,13.9 C28.3,12.9 27.8,12.1 26.9,11.8 C26.2,11.6 25.4,11.4 24.7,11.3 C23.6,11.2 22.6,11.3 21.5,11.3 C21.1,11.3 20.9,11.5 20.8,11.9 C20.3,13.6 19.8,15.3 19.1,17 C18.7,18 18.2,18.8 17.7,19.8 C17.4,20.3 17.5,20.4 18.1,20.4 C18.9,20.5 19.6,20.5 20.3,20.5 Z" id="Shape" fill="#000000"></path>
                    <path d="M110.2,26.7 C109.9,27.1 109.5,27.5 109.2,27.9 C108.5,28.9 107.8,29.9 107.1,30.9 C106.5,31.8 106.3,32.9 106.3,33.9 C106.3,35.3 106.2,36.6 106.7,37.9 C106.8,38.3 106.7,38.5 106.3,38.5 C104.7,38.5 103.2,38.5 101.6,38.5 C101.1,38.5 100.8,38.3 100.6,37.7 C100,35.8 100,33.8 100.5,32 C100.8,30.7 101.9,29.5 102.7,28.4 C104.7,25.6 106.9,22.8 108.9,20 C110.5,17.7 111.5,15.1 112,12.4 C112.3,11 112.3,9.5 112.4,8.1 C112.4,7.9 112.4,7.7 112.4,7.5 C112.5,6.5 112.5,6.4 113.6,6.4 C115.1,6.4 116.5,6.4 118,6.4 C118.5,6.4 118.6,6.6 118.6,7.1 C118.7,10.9 118,14.5 116.2,17.8 C115.1,19.8 113.7,21.7 112.5,23.6 C112.4,23.8 112.3,24 112.2,24.2 C112.3,24.3 112.3,24.3 112.4,24.4 C113,24 113.6,23.6 114.2,23.2 C116.7,21.2 119.2,19.1 121.7,17.1 C122.2,16.7 122.7,16.1 123.2,15.7 C123.4,15.5 123.7,15.4 123.9,15.4 C125.8,15.4 127.7,15.4 129.7,15.4 C129.8,15.4 130,15.5 130.2,15.5 C129.6,16 129.2,16.5 128.7,16.9 C125.9,19.1 123.1,21.2 120.2,23.3 C119.4,23.9 118.5,24.4 117.8,25 C117.4,25.3 117,25.8 116.9,26.3 C116.6,27.4 116.3,28.6 116.1,29.8 C115.7,31.7 116.6,33.2 117.6,34.7 C118.3,35.8 119.1,36.8 119.9,37.9 C120,38 120.1,38.2 120.2,38.5 C119.8,38.5 119.5,38.5 119.3,38.5 C117.5,38.5 115.7,38.5 113.9,38.5 C113.6,38.5 113.2,38.4 113,38.2 C111.6,36.4 110.5,34.5 109.7,32.5 C109.3,31.4 109.5,30.3 109.8,29.2 C110,28.5 110.2,27.9 110.4,27.2 C110.4,27.1 110.4,27 110.4,26.9 C110.3,26.8 110.2,26.8 110.2,26.7 Z" id="Shape" fill="#000000"></path>
                    <path d="M40.5,33.3 C42.4,33.3 44.3,33.3 46.3,33.3 C46.8,33.3 47,33.5 47,34 C47,34.8 47,35.6 47.1,36.4 C47.2,37.1 47.4,37.9 47.7,38.6 C47.9,39.2 47.8,39.4 47.2,39.4 C45.9,39.4 44.5,39.5 43.2,39.5 C39.1,39.6 35,39.7 30.9,39.8 C28.9,39.9 28.6,39.5 28.1,37.7 C27.5,35.5 27.3,33.1 28.6,31 C29.4,29.7 30.5,28.5 31.4,27.2 C33.6,24.4 35.9,21.6 37.6,18.4 C39.5,14.9 40.3,11.1 40.2,7.1 C40.2,6.5 40.4,6.3 41,6.3 C42.6,6.3 44.3,6.3 45.9,6.3 C46.5,6.3 46.6,6.5 46.6,7.1 C46.4,8.6 46.4,10.2 46.2,11.7 C45.8,14.5 44.7,17.1 43.2,19.5 C41.2,22.8 38.7,25.8 36.3,28.8 C35.4,29.9 34.6,31 34.3,32.4 C34.2,32.9 34.3,33.2 34.9,33.1 C36.7,33.3 38.6,33.3 40.5,33.3 C40.5,33.3 40.5,33.3 40.5,33.3 Z" id="Shape" fill="#000000"></path>
                    <path d="M99.3,15.6 C98.8,16.8 98.4,17.8 98,18.8 C98.1,18.8 98.1,18.9 98.2,18.9 C98.3,18.8 98.5,18.7 98.6,18.6 C99.7,17.8 100.8,16.7 102.1,16.1 C103.3,15.5 104.7,15.5 106,15.2 C106.4,15.1 106.6,15.4 106.4,15.8 C105.9,16.9 105.4,18 104.8,19 C104.5,19.6 104.1,20 103.8,20.6 C103.6,21.1 103.2,21.2 102.7,21.3 C102.6,21.3 102.4,21.3 102.3,21.3 C99.4,21.2 97.1,22.3 95.1,24.3 C93,26.4 91.1,28.6 89.6,31.1 C89.3,31.7 89,32.4 89,33.1 C88.9,34.8 88.8,36.4 89.4,38 C89.6,38.5 89.4,38.6 88.9,38.6 C87.4,38.6 86,38.6 84.5,38.6 C83.8,38.6 83.4,38.3 83.2,37.7 C82.3,34.2 82.8,31.1 85.3,28.3 C87.2,26.1 89,23.7 90.7,21.3 C91.8,19.8 92.7,18.2 93.3,16.4 C93.5,15.8 93.8,15.5 94.5,15.6 C95.7,15.7 97,15.6 98.2,15.6 C98.7,15.6 98.9,15.6 99.3,15.6 Z" id="Shape" fill="#000000"></path>
                    <path d="M64.1,34.2 C62.6,34.2 61.4,34.1 60.3,33.5 C58.7,32.6 58.2,31.2 58.9,29.5 C59.5,28.2 60.3,26.9 61.1,25.6 C62.6,23.3 64.2,21.1 65.7,18.9 C66.9,17.2 68,15.3 69.3,13.7 C71.2,11.1 73.9,10.1 77.1,10.5 C80.3,10.9 82.1,13.6 81.3,16.7 C80.6,19.5 79,21.8 77.3,24 C74.8,27.1 71.8,29.7 68.9,32.4 C67.5,33.6 65.8,34.3 64.1,34.2 Z" id="Shape" fill="#FFFFFF"></path>
                    <path d="M20.3,20.5 C19.6,20.5 18.9,20.5 18.2,20.5 C17.6,20.5 17.5,20.4 17.8,19.9 C18.3,19 18.9,18.1 19.2,17.1 C19.8,15.4 20.4,13.7 20.9,12 C21,11.6 21.2,11.4 21.6,11.4 C22.7,11.4 23.7,11.3 24.8,11.4 C25.5,11.4 26.3,11.6 27,11.9 C27.9,12.2 28.4,13 28.4,14 C28.4,16.6 26.2,19.5 23.7,20.2 C22.6,20.5 21.5,20.6 20.4,20.8 C20.3,20.6 20.3,20.6 20.3,20.5 Z" id="Shape" fill="#FFFFFF"></path>
                </g>
            </g>
        </g>
    </g>
</svg>