<?xml version="1.0" encoding="UTF-8"?>
<svg width="135px" height="49px" viewBox="0 0 135 49" version="1.1" xmlns="http://www.w3.org/2000/svg" xmlns:xlink="http://www.w3.org/1999/xlink">
    <!-- Generator: Sketch 49.3 (51167) - http://www.bohemiancoding.com/sketch -->
    <title>Ddg9vz_1_</title>
    <desc>Created with Sketch.</desc>
    <defs></defs>
    <g id="Page-1" stroke="none" stroke-width="1" fill="none" fill-rule="evenodd">
        <g id="plork-logos" transform="translate(-685.000000, -204.000000)" fill-rule="nonzero">
            <g id="Ddg9vz_1_" transform="translate(685.000000, 204.000000)">
                <g id="Group">
                    <path d="M0.5,48.1 C0.5,32.2 0.5,16.3 0.5,0.4 C45,0.4 89.6,0.4 134.1,0.4 C134.1,16.3 134.1,32.2 134.1,48.1 C89.6,48.1 45,48.1 0.5,48.1 Z M75.9,38 C77.5,38.1 79.2,37.9 80.9,37.2 C82.5,36.6 83.9,35.8 85.2,34.7 C86.5,33.5 87.5,32.1 88.2,30.5 C88.8,29 88.9,27.5 88.6,25.9 C88.2,24.3 87.2,22.9 86.2,21.6 C84.5,19.5 82.7,17.5 81,15.5 C79,13.2 76.9,11.2 74.3,9.6 C71,7.5 67.5,6.3 63.6,6.5 C61.7,6.6 59.9,7 58.2,8.2 C56.2,9.6 55.4,11.5 55.2,13.8 C55.1,15.1 55.5,16.5 56.1,17.6 C57.1,19.3 58.2,20.9 59.4,22.5 C60,23.4 60.7,24.1 61.2,25 C62.4,27.1 63.4,29.2 64.5,31.3 C65.6,33.3 66.9,35.1 68.9,36.3 C71,37.6 73.3,38 75.9,38 Z M5.2,5.8 C5.2,6 5.2,6.1 5.2,6.1 C5.8,7.8 6.4,9.4 7.1,11.1 C7.9,13 8.7,14.9 9.7,16.6 C11,18.8 12.5,20.8 14,22.8 C15.6,25 16.5,27.3 16.5,30 C16.5,31.1 16.4,32.2 16.4,33.3 C16.4,33.8 16.6,34 17.1,34.1 C18.7,34.2 20.2,34.3 21.8,34.4 C22.2,34.4 22.4,34.3 22.5,33.9 C22.6,32.6 22.7,31.4 22.7,30.1 C22.7,27.7 22,25.5 20.6,23.6 C20.4,23.4 20.3,23.1 20.1,22.7 C20.5,22.7 20.7,22.6 20.9,22.6 C22.1,22.6 23.2,22.7 24.4,22.8 C26.1,22.9 27.7,22.8 29.2,21.9 C30,21.5 30.7,20.8 30.7,19.8 C30.7,19.1 30.7,18.2 30.4,17.6 C29.7,16 29.1,14.4 28.1,12.9 C25.3,8.6 21.1,6.4 16.1,6.1 C13.5,5.9 10.9,5.9 8.3,5.8 C7.3,5.7 6.3,5.8 5.2,5.8 Z M116.1,26.1 C116,26 115.9,26 115.9,25.9 C115,24.4 114,22.9 113.1,21.4 C111.7,19.2 110.1,17.2 108.8,14.9 C107.8,13 107.1,11 106.3,9 C106.1,8.6 105.9,8.4 105.5,8.4 C104,8.4 102.5,8.3 101,8.3 C100.4,8.3 100.3,8.5 100.5,9.1 C100.9,10.1 101.3,11.1 101.7,12.1 C102.5,14.4 103.7,16.5 105.1,18.5 C106.4,20.3 107.8,22.1 109,24 C109.6,24.9 110.1,25.9 110.4,26.9 C111,29.3 110.8,31.7 110.6,34.1 C110.4,35.6 110.1,37 109.9,38.4 C109.9,38.6 110.1,39 110.2,39 C111.9,39.1 113.6,39.2 115.3,39.2 C115.4,39.2 115.7,39 115.7,38.8 C116.3,35.6 116.9,32.4 116.7,29.2 C116.7,28.9 116.7,28.6 116.6,28.3 C116.7,28.3 116.7,28.3 116.8,28.2 C117,28.4 117.2,28.6 117.3,28.8 C117.9,30.1 118.6,31.4 119.2,32.8 C120,34.8 120.6,36.9 121.3,38.9 C121.4,39.3 121.6,39.7 122.1,39.7 C124,39.8 125.9,39.8 127.8,39.9 C128.1,39.9 128.3,39.8 128.1,39.4 C127.3,37.6 126.6,35.7 125.8,34 C124.8,31.9 123.5,30 122.4,28 C122.2,27.7 122.2,27.2 122.3,26.8 C122.7,25.5 122.9,24.2 122.8,22.8 C122.7,21.4 122.7,19.9 122.8,18.5 C122.8,17.7 122.8,17.6 122,17.6 C120.4,17.6 118.8,17.5 117.1,17.5 C116.2,17.5 116.1,17.5 116.1,18.5 C116.1,18.6 116.1,18.8 116.1,18.9 C116.2,20.8 116.4,22.7 116.5,24.6 C116.5,25.1 116.5,25.6 116.1,26.1 Z M59.5,32.5 C59.5,32.5 59.5,32.5 59.5,32.5 C59.5,32.3 59.5,32 59.5,31.8 C59.6,31.3 59.4,31.1 58.9,31.1 C58,31.1 57.1,31 56.2,30.9 C53.5,30.8 50.8,30.6 48.1,30.5 C47.4,30.5 47.2,30.3 47.2,29.5 C47,28.2 46.9,26.8 46.3,25.6 C45.5,23.9 44.4,22.4 43.3,20.9 C41.7,18.7 40,16.5 38.9,13.9 C37.9,11.6 37.1,9.3 36.2,7 C36.1,6.8 35.8,6.5 35.6,6.5 C34,6.4 32.5,6.4 30.9,6.3 C29.8,6.3 29.8,6.3 30.2,7.3 C30.2,7.4 30.3,7.6 30.3,7.7 C31.3,10.2 32.1,12.8 33.3,15.1 C34.8,17.9 36.8,20.4 38.6,23 C40,24.9 40.9,27 40.9,29.4 C40.9,31.1 40.8,32.9 40.7,34.6 C40.7,35.3 40.7,35.4 41.4,35.5 C42.1,35.5 42.7,35.6 43.4,35.6 C48.3,35.9 53.3,36.2 58.2,36.5 C58.9,36.5 59.1,36.2 59.2,35.7 C59.3,34.6 59.4,33.5 59.5,32.5 Z M87.4,16.9 C87.5,17.1 87.6,17.3 87.6,17.4 C88.9,19.1 90.2,20.8 91.5,22.5 C93.2,24.7 94.3,27.1 94.2,29.8 C94.1,32.4 93.7,35 93.4,37.5 C93.3,38.1 93.5,38.2 94,38.2 C95.2,38.3 96.5,38.3 97.7,38.4 C98.1,38.4 98.6,38.5 98.9,38.3 C99.1,38.1 99.2,37.6 99.2,37.3 C99.5,35.7 99.8,34.1 99.9,32.5 C100.1,29.8 99.8,27.1 99,24.4 C98.6,23.1 99.3,22.2 100.7,22.1 C101.3,22.1 101.8,22.1 102.4,22.1 C102.6,22.1 102.8,22 103.1,22 C103,21.8 102.9,21.6 102.8,21.5 C101.8,20.1 100.8,18.7 99.8,17.3 C99.5,16.9 99.3,16.7 98.8,16.8 C98.2,16.9 97.6,16.9 97,17 C95.9,17.1 95.1,18 95,19.1 C95,19.3 94.9,19.5 94.9,19.8 C94.8,19.8 94.8,19.8 94.7,19.9 C94.2,19.2 93.7,18.4 93.1,17.7 C92.9,17.4 92.5,17.1 92.2,17.1 C90.9,17 89.5,17 88.1,16.9 C87.9,16.8 87.7,16.8 87.4,16.9 Z" id="Shape" fill="#FFFFFF"></path>
                    <path d="M75.9,38 C73.3,38 70.9,37.6 68.8,36.3 C66.8,35.1 65.5,33.3 64.4,31.3 C63.3,29.2 62.2,27 61.1,25 C60.6,24.1 59.9,23.3 59.3,22.5 C58.2,20.9 57,19.3 56,17.6 C55.3,16.5 54.9,15.1 55.1,13.8 C55.3,11.6 56.2,9.6 58.1,8.2 C59.7,7.1 61.5,6.6 63.5,6.5 C67.4,6.3 70.9,7.6 74.2,9.6 C76.7,11.2 78.9,13.2 80.9,15.5 C82.7,17.5 84.5,19.5 86.1,21.6 C87.1,22.9 88.1,24.2 88.5,25.9 C88.9,27.5 88.8,29 88.1,30.5 C87.4,32.1 86.4,33.5 85.1,34.7 C83.9,35.9 82.4,36.6 80.8,37.2 C79.3,37.8 77.5,38 75.9,38 Z M76.1,33 C76.1,33.1 76.1,33.1 76.1,33.2 C77.1,32.9 78.1,32.8 78.9,32.4 C80.7,31.6 81.7,30.1 82,28.1 C82.3,25.6 81.1,23.6 79.7,21.8 C77.8,19.4 75.9,17 73.7,14.9 C71.4,12.7 68.9,11.4 65.6,11.5 C62.8,11.6 61.1,13.9 62.1,16.5 C62.6,17.9 63.3,19.2 64.2,20.4 C66.3,23.3 68.4,26.1 69.9,29.3 C71.2,31.8 73.2,33.2 76.1,33 Z" id="Shape" fill="#000000"></path>
                    <path d="M5.2,5.8 C6.2,5.8 7.3,5.8 8.3,5.8 C10.9,5.9 13.5,5.9 16.1,6.1 C21.2,6.5 25.3,8.6 28.1,12.9 C29,14.3 29.7,16 30.4,17.6 C30.7,18.3 30.7,19.1 30.7,19.8 C30.7,20.8 30,21.4 29.2,21.9 C27.7,22.7 26,22.9 24.4,22.8 C23.2,22.7 22.1,22.7 20.9,22.6 C20.7,22.6 20.4,22.6 20.1,22.7 C20.3,23.1 20.4,23.3 20.6,23.6 C22,25.5 22.7,27.7 22.7,30.1 C22.7,31.4 22.5,32.6 22.5,33.9 C22.5,34.4 22.2,34.5 21.8,34.4 C20.2,34.3 18.7,34.2 17.1,34.1 C16.6,34.1 16.4,33.9 16.4,33.3 C16.5,32.2 16.6,31.1 16.5,30 C16.5,27.3 15.6,24.9 14,22.8 C12.5,20.8 11,18.7 9.7,16.6 C8.7,14.9 7.9,13 7.1,11.1 C6.4,9.5 5.8,7.8 5.2,6.1 C5.2,6 5.2,5.9 5.2,5.8 Z M13.1,11.1 C13.3,11.6 13.6,12 13.7,12.5 C14.3,14.5 15.4,16.2 16.5,17.9 C16.6,18.1 16.9,18.3 17.1,18.3 C18.7,18.3 20.4,18.4 22,18.3 C23.1,18.2 23.4,17.7 23.3,16.7 C23.2,16.2 23,15.6 22.8,15.1 C21.8,12.8 20.3,11.3 17.7,11.1 C16.3,11 14.8,11.1 13.1,11.1 Z" id="Shape" fill="#000000"></path>
                    <path d="M116.1,26.1 C116.5,25.6 116.5,25.1 116.5,24.5 C116.4,22.6 116.2,20.7 116.1,18.8 C116.1,18.7 116.1,18.5 116.1,18.4 C116.1,17.4 116.2,17.4 117.1,17.4 C118.7,17.4 120.3,17.5 122,17.5 C122.8,17.5 122.8,17.6 122.8,18.4 C122.8,19.8 122.8,21.3 122.8,22.7 C122.9,24.1 122.7,25.4 122.3,26.7 C122.2,27.1 122.2,27.6 122.4,27.9 C123.5,29.9 124.7,31.9 125.8,33.9 C126.7,35.7 127.4,37.5 128.1,39.3 C128.3,39.7 128.1,39.8 127.8,39.8 C125.9,39.7 124,39.7 122.1,39.6 C121.6,39.6 121.5,39.2 121.3,38.8 C120.6,36.8 119.9,34.7 119.2,32.7 C118.7,31.3 118,30 117.3,28.7 C117.2,28.5 117,28.3 116.8,28.1 C116.7,28.1 116.7,28.1 116.6,28.2 C116.6,28.5 116.7,28.8 116.7,29.1 C116.9,32.4 116.3,35.5 115.7,38.7 C115.7,38.8 115.4,39.1 115.3,39.1 C113.6,39.1 111.9,39 110.2,38.9 C110.1,38.9 109.9,38.5 109.9,38.3 C110.1,36.8 110.4,35.4 110.6,34 C110.9,31.6 111.1,29.2 110.4,26.8 C110.1,25.8 109.6,24.7 109,23.9 C107.8,22 106.4,20.3 105.1,18.4 C103.7,16.4 102.5,14.3 101.7,12 C101.3,11 100.9,10 100.5,9 C100.3,8.4 100.4,8.2 101,8.2 C102.5,8.2 104,8.3 105.5,8.3 C105.9,8.3 106.2,8.5 106.3,8.9 C107.1,10.9 107.8,13 108.8,14.8 C110.1,17.1 111.6,19.1 113.1,21.3 C114.1,22.8 115,24.3 115.9,25.8 C115.9,26 116,26 116.1,26.1 Z" id="Shape" fill="#000000"></path>
                    <path d="M59.5,32.5 C59.4,33.5 59.3,34.5 59.2,35.5 C59.1,36.1 58.9,36.4 58.2,36.3 C53.3,36 48.3,35.7 43.4,35.4 C42.7,35.4 42.1,35.3 41.4,35.3 C40.7,35.3 40.6,35.2 40.7,34.4 C40.8,32.7 40.9,30.9 40.9,29.2 C40.9,26.8 40,24.7 38.6,22.8 C36.8,20.2 34.8,17.7 33.3,14.9 C32,12.6 31.3,10 30.3,7.5 C30.3,7.4 30.2,7.2 30.2,7.1 C29.8,6.1 29.8,6 30.9,6.1 C32.5,6.1 34,6.2 35.6,6.3 C35.8,6.3 36.1,6.6 36.2,6.8 C37.1,9.1 37.9,11.5 38.9,13.7 C40,16.3 41.6,18.4 43.3,20.7 C44.4,22.2 45.5,23.8 46.3,25.4 C46.9,26.6 47.1,28 47.2,29.3 C47.3,30 47.5,30.2 48.1,30.3 C50.8,30.4 53.5,30.6 56.2,30.7 C57.1,30.7 58,30.9 58.9,30.9 C59.4,30.9 59.6,31.1 59.5,31.6 C59.5,32.1 59.5,32.3 59.5,32.5 C59.5,32.5 59.5,32.5 59.5,32.5 Z" id="Shape" fill="#000000"></path>
                    <path d="M87.4,16.9 C87.7,16.9 87.9,16.8 88.1,16.8 C89.5,16.9 90.8,16.9 92.2,17 C92.5,17 92.9,17.3 93.1,17.6 C93.7,18.3 94.2,19.1 94.7,19.8 C94.8,19.8 94.8,19.8 94.9,19.7 C94.9,19.5 95,19.3 95,19 C95.1,17.9 95.9,17 97,16.9 C97.6,16.8 98.2,16.8 98.8,16.7 C99.3,16.6 99.6,16.8 99.8,17.2 C100.8,18.6 101.8,20 102.8,21.4 C102.9,21.5 102.9,21.7 103.1,21.9 C102.8,21.9 102.6,22 102.4,22 C101.8,22 101.3,22 100.7,22 C99.3,22.1 98.6,22.9 99,24.3 C99.8,26.9 100.2,29.6 99.9,32.4 C99.8,34 99.4,35.6 99.2,37.2 C99.1,37.6 99.1,38.1 98.9,38.2 C98.6,38.4 98.1,38.3 97.7,38.3 C96.5,38.3 95.2,38.2 94,38.1 C93.5,38.1 93.3,37.9 93.4,37.4 C93.7,34.8 94.1,32.3 94.2,29.7 C94.3,26.9 93.1,24.5 91.5,22.4 C90.2,20.7 88.9,19 87.6,17.3 C87.6,17.2 87.5,17.1 87.4,16.9 Z" id="Shape" fill="#000000"></path>
                    <path d="M76.1,33 C73.2,33.1 71.2,31.7 70,29.2 C68.5,26 66.4,23.2 64.3,20.3 C63.4,19.1 62.7,17.8 62.2,16.4 C61.2,13.8 62.9,11.5 65.7,11.4 C68.9,11.3 71.5,12.6 73.8,14.8 C76,16.9 78,19.3 79.8,21.7 C81.2,23.5 82.4,25.5 82.1,28 C81.9,30 80.8,31.5 79,32.3 C78.1,32.7 77.1,32.8 76.2,33.1 C76.1,33.2 76.1,33.1 76.1,33 Z" id="Shape" fill="#FFFFFF"></path>
                    <path d="M13.1,11.1 C14.7,11.1 16.2,11 17.7,11.1 C20.2,11.3 21.8,12.8 22.8,15.1 C23,15.6 23.2,16.1 23.3,16.7 C23.5,17.7 23.1,18.3 22,18.3 C20.4,18.4 18.7,18.3 17.1,18.3 C16.9,18.3 16.7,18.1 16.5,17.9 C15.4,16.2 14.3,14.4 13.7,12.5 C13.6,12 13.4,11.6 13.1,11.1 Z" id="Shape" fill="#FFFFFF"></path>
                </g>
            </g>
        </g>
    </g>
</svg>