<?xml version="1.0" encoding="UTF-8"?>
<svg width="150px" height="49px" viewBox="0 0 150 49" version="1.1" xmlns="http://www.w3.org/2000/svg" xmlns:xlink="http://www.w3.org/1999/xlink">
    <!-- Generator: Sketch 49.3 (51167) - http://www.bohemiancoding.com/sketch -->
    <title>_x33_DyVyj_1_</title>
    <desc>Created with Sketch.</desc>
    <defs></defs>
    <g id="Page-1" stroke="none" stroke-width="1" fill="none" fill-rule="evenodd">
        <g id="plork-logos" transform="translate(-845.000000, -250.000000)" fill-rule="nonzero">
            <g id="_x33_DyVyj_1_" transform="translate(845.000000, 250.000000)">
                <g id="Group">
                    <path d="M0.2,48.4 C0.2,32.3 0.2,16.2 0.2,0.1 C49.9,0.1 99.5,0.1 149.2,0.1 C149.2,16.2 149.2,32.3 149.2,48.4 C99.6,48.4 49.9,48.4 0.2,48.4 Z M56.8,21.7 C56.9,23.1 56.9,24.4 57.2,25.7 C57.5,27.1 57.9,28.5 58.6,29.7 C59.8,32 61.8,33.6 63.8,35.2 C67,37.7 70.5,39.6 74.4,40.7 C77,41.5 79.7,41.9 82.4,41.5 C84.1,41.3 85.4,40.5 86.1,38.9 C86.7,37.5 86.4,36.1 86.4,34.7 C86.3,32.7 86,30.6 86.3,28.7 C87,24.8 87.3,21 86.5,17.2 C86,14.6 84.9,12.3 83.2,10.3 C81.2,8.1 78.6,6.7 75.7,6.2 C72.2,5.6 68.8,5.7 65.5,7 C63,8 61,9.7 59.6,12 C57.7,15.1 56.9,18.3 56.8,21.7 Z M21.2,40.6 C21,40.3 20.9,40.2 20.8,40.1 C19.5,38.4 18.1,36.7 16.8,34.9 C15.3,32.8 14.2,30.5 14.1,27.8 C14.1,26 13.8,26.3 15.6,26.2 C17.9,26.1 20.2,26.3 22.5,25.7 C25.4,25 27.6,23.4 28.9,20.7 C29.8,18.7 29.8,16.5 29.6,14.4 C29.3,12.4 28.4,10.7 26.7,9.5 C24.9,8.2 22.7,7.5 20.5,7.4 C16.5,7.3 12.4,7.4 8.4,7.4 C7.4,7.4 7.4,7.4 7.4,8.4 C7.4,14.1 7.5,19.7 7.5,25.4 C7.5,28.8 8.2,31.9 10.2,34.7 C11.4,36.4 12.8,38 14,39.7 C14.6,40.6 15.4,40.9 16.4,40.8 C17.8,40.7 19.2,40.8 20.6,40.8 C20.7,40.7 20.9,40.7 21.2,40.6 Z M124.1,40.9 C123.9,40.5 123.8,40.4 123.7,40.3 C122.3,38.5 120.9,36.7 119.5,34.9 C118,32.9 117,30.6 116.8,28.1 C116.7,27.4 116.8,26.7 116.8,26.1 C117.1,26.3 117.3,26.5 117.4,26.7 C118.7,29.1 120.4,31.3 122.3,33.3 C124.6,35.7 127,37.9 129.6,40 C130.3,40.6 131,41.1 132.1,41 C133.3,40.9 134.5,41 135.7,41 C136.4,41 137.2,41 137.9,41 C137.9,40.9 137.9,40.9 138,40.8 C137.7,40.6 137.5,40.3 137.2,40.1 C135.5,38.7 133.7,37.3 132.1,35.8 C130.5,34.4 129,33 127.6,31.4 C126,29.6 124.7,27.6 123.3,25.7 C122.9,25.2 123,24.7 123.4,24.3 C125.1,22.1 126.9,19.9 128.6,17.6 C129.1,17 129.6,16.3 130.2,15.6 C129.9,15.5 129.7,15.5 129.6,15.5 C127.6,15.5 125.7,15.5 123.7,15.6 C123.4,15.6 123,15.9 122.8,16.1 C121.1,18.5 119.4,21 117.7,23.5 C117.5,23.8 117.2,24 117,24.3 C116.9,24.3 116.9,24.2 116.8,24.2 C116.8,23.9 116.7,23.5 116.7,23.2 C116.7,17.9 116.6,12.6 116.6,7.4 C116.6,6.8 116.4,6.5 115.8,6.6 C114.4,6.6 113.1,6.7 111.7,6.7 C110.2,6.7 110.1,6.4 110.2,8.3 C110.3,14.7 110.4,21.1 110.4,27.5 C110.4,29.6 111.1,31.5 112.1,33.3 C113.6,35.9 115.4,38.3 117.4,40.5 C117.8,40.9 118.2,41.2 118.8,41.2 C119.7,41.2 120.6,41.2 121.5,41.2 C122.3,40.9 123.1,40.9 124.1,40.9 Z M40.5,19.6 C40.5,14.7 40.5,11.3 40.5,7.8 C40.5,7.5 40.6,7.1 40.1,7.1 C38.2,7.1 36.4,7.1 34.5,7.1 C34.1,7.1 33.9,7.2 34,7.7 C34,14.3 34,20.9 34.1,27.5 C34.1,29.1 34.5,30.7 35.3,32.3 C36.7,35 38.6,37.2 40.3,39.6 C41.2,40.7 42.2,41 43.5,41 C49.3,41 55.2,41 61,41 C61.2,41 61.4,40.9 61.5,40.9 C61.4,40.7 61.4,40.5 61.3,40.4 C60,38.7 58.6,37.1 57.4,35.3 C56.6,34.1 55.8,33.8 54.4,33.8 C50.8,33.9 47.2,33.9 43.6,34 C43.3,34 42.7,33.9 42.6,33.6 C41.7,32.2 41,30.6 40.9,28.9 C40.7,25.1 40.6,21.6 40.5,19.6 Z M105.8,40.8 C105.8,40.7 105.8,40.6 105.8,40.6 C105.7,40.5 105.6,40.4 105.5,40.3 C103.8,38 102.1,35.8 100.5,33.5 C99.8,32.5 99.3,31.3 99,30.1 C98.7,28.5 98.6,26.8 98.7,25.1 C98.7,23.4 99.6,22.1 101.3,21.7 C102.3,21.5 103.3,21.3 104.4,21.3 C105.1,21.3 105.3,21 105.3,20.3 C105.2,19.3 105.3,18.2 105.3,17.2 C105.3,15.5 105.5,15.7 103.8,15.8 C101.9,15.8 100.3,16.6 99,18 C98.6,18.4 98.3,18.9 97.9,19.5 C97.8,19 97.8,18.7 97.7,18.4 C97.7,17.9 97.7,17.4 97.7,16.9 C97.7,16.3 97.4,15.9 96.7,16 C95.3,16.1 94,16.1 92.6,16 C91.9,16 91.7,16.2 91.8,16.9 C91.9,17.7 92,18.6 92,19.4 C92.1,21.4 92.1,23.3 92.1,25.3 C92,28.7 92.8,31.8 94.8,34.6 C96,36.3 97.2,37.9 98.4,39.5 C99.2,40.5 100.1,41.1 101.5,40.9 C102.7,40.8 103.8,40.9 105,40.9 C105.4,40.9 105.6,40.8 105.8,40.8 Z" id="Shape" fill="#FFFFFF"></path>
                    <path d="M56.8,21.7 C56.9,18.3 57.6,15.1 59.4,12.2 C60.8,9.9 62.8,8.2 65.3,7.2 C68.6,5.9 72.1,5.7 75.5,6.4 C78.5,6.9 81,8.3 83,10.5 C84.8,12.5 85.8,14.8 86.3,17.4 C87.1,21.2 86.8,25 86.1,28.9 C85.7,30.8 86.1,32.9 86.2,34.9 C86.2,36.3 86.5,37.7 85.9,39.1 C85.2,40.7 83.9,41.5 82.2,41.7 C79.5,42 76.8,41.7 74.2,40.9 C70.3,39.7 66.8,37.9 63.6,35.4 C61.6,33.8 59.6,32.2 58.4,29.9 C57.8,28.6 57.3,27.3 57,25.9 C57,24.4 57,23.1 56.8,21.7 Z M64,21.6 C64.1,22.9 64.2,24.3 64.4,25.6 C64.6,27 64.9,28.4 65.7,29.6 C67.8,32.7 70.7,34.5 74.5,34.9 C76.8,35.1 78.1,34.2 78.6,32 C78.8,31.2 78.9,30.4 79.1,29.6 C79.4,28.1 79.7,26.6 79.9,25.1 C80.2,22.3 80,19.6 79.3,16.9 C78.8,15 77.9,13.3 76.2,12.1 C74.8,11.2 73.2,11 71.5,11 C68.4,11 66.1,12.9 65.1,15.6 C64.3,17.5 64,19.5 64,21.6 Z" id="Shape" fill="#000000"></path>
                    <path d="M21.2,40.6 C20.9,40.6 20.7,40.7 20.5,40.7 C19.1,40.7 17.7,40.6 16.3,40.7 C15.3,40.8 14.5,40.5 13.9,39.6 C12.7,37.9 11.3,36.3 10.1,34.6 C8.1,31.8 7.4,28.7 7.4,25.3 C7.5,19.6 7.4,14 7.3,8.3 C7.3,7.3 7.3,7.3 8.3,7.3 C12.3,7.3 16.4,7.2 20.4,7.3 C22.6,7.4 24.8,8.1 26.6,9.4 C28.2,10.6 29.2,12.3 29.5,14.3 C29.8,16.4 29.8,18.6 28.8,20.6 C27.5,23.3 25.3,24.9 22.4,25.6 C20.1,26.2 17.8,26 15.5,26.1 C13.7,26.2 14,25.9 14,27.7 C14.1,30.4 15.2,32.7 16.7,34.8 C18,36.6 19.4,38.3 20.7,40 C20.9,40.2 21,40.4 21.2,40.6 Z M14,16.7 C14,16.7 14.1,16.7 14,16.7 C14,17.9 14,19.2 14,20.4 C14,20.7 14,21.1 14.5,21.1 C16.2,21 18,21 19.7,20.8 C20.7,20.7 21.6,20.1 22,19.2 C22.7,17.9 22.7,16.5 22.4,15.1 C22.1,13.6 21.1,12.6 19.6,12.5 C18,12.3 16.3,12.4 14.7,12.3 C14.1,12.3 13.9,12.6 13.9,13.2 C14.1,14.4 14,15.6 14,16.7 Z" id="Shape" fill="#000000"></path>
                    <path d="M124.1,40.9 C123.1,40.9 122.2,40.9 121.4,40.9 C120.5,40.9 119.6,40.9 118.7,40.9 C118.1,40.9 117.6,40.7 117.3,40.2 C115.4,37.9 113.5,35.6 112,33 C111,31.2 110.3,29.3 110.3,27.2 C110.2,20.8 110.2,14.4 110.1,8 C110.1,6.1 110.2,6.4 111.6,6.4 C113,6.4 114.3,6.4 115.7,6.3 C116.3,6.3 116.5,6.5 116.5,7.1 C116.5,12.4 116.5,17.7 116.6,22.9 C116.6,23.2 116.6,23.6 116.7,23.9 C116.8,23.9 116.8,24 116.9,24 C117.1,23.7 117.4,23.5 117.6,23.2 C119.3,20.7 121,18.3 122.7,15.8 C122.9,15.5 123.3,15.3 123.6,15.3 C125.6,15.2 127.5,15.2 129.5,15.2 C129.7,15.2 129.9,15.3 130.1,15.3 C129.5,16 129,16.7 128.5,17.3 C126.8,19.5 125.1,21.8 123.3,24 C122.9,24.5 122.8,24.9 123.2,25.4 C124.6,27.3 126,29.3 127.5,31.1 C128.9,32.7 130.4,34.1 132,35.5 C133.7,37 135.4,38.4 137.1,39.8 C137.4,40 137.6,40.2 137.9,40.5 C137.9,40.6 137.9,40.6 137.8,40.7 C137.1,40.7 136.3,40.7 135.6,40.7 C134.4,40.7 133.2,40.6 132,40.7 C131,40.8 130.3,40.3 129.5,39.7 C126.9,37.6 124.5,35.4 122.2,33 C120.3,31 118.6,28.8 117.3,26.4 C117.2,26.2 117,26 116.7,25.8 C116.7,26.5 116.7,27.2 116.7,27.8 C116.9,30.3 117.9,32.6 119.4,34.6 C120.7,36.4 122.2,38.2 123.6,40 C123.9,40.4 123.9,40.6 124.1,40.9 Z" id="Shape" fill="#000000"></path>
                    <path d="M40.5,19.6 C40.6,21.7 40.6,25.2 40.8,28.7 C40.9,30.4 41.6,32 42.5,33.4 C42.7,33.6 43.2,33.8 43.5,33.8 C47.1,33.8 50.7,33.8 54.3,33.6 C55.7,33.5 56.5,33.9 57.3,35.1 C58.5,36.9 59.9,38.5 61.2,40.2 C61.3,40.4 61.4,40.6 61.4,40.7 C61.2,40.7 61,40.8 60.9,40.8 C55.1,40.8 49.2,40.8 43.4,40.8 C42.1,40.8 41.1,40.6 40.2,39.4 C38.4,37 36.5,34.8 35.2,32.1 C34.4,30.6 34.1,29 34,27.3 C33.9,20.7 33.9,14.1 33.9,7.5 C33.9,7.1 34.1,6.9 34.4,6.9 C36.3,6.9 38.1,6.9 40,6.9 C40.6,6.9 40.4,7.3 40.4,7.6 C40.5,11.2 40.5,14.7 40.5,19.6 Z" id="Shape" fill="#000000"></path>
                    <path d="M105.8,40.8 C105.6,40.8 105.4,40.9 105.1,40.9 C103.9,40.9 102.8,40.8 101.6,40.9 C100.2,41.1 99.3,40.5 98.5,39.5 C97.3,37.9 96,36.3 94.9,34.6 C92.9,31.8 92.2,28.7 92.2,25.3 C92.2,23.3 92.2,21.4 92.1,19.4 C92.1,18.6 92,17.7 91.9,16.9 C91.8,16.3 92,16 92.7,16 C94.1,16 95.4,16.1 96.8,16 C97.5,16 97.8,16.3 97.8,16.9 C97.8,17.4 97.8,17.9 97.8,18.4 C97.8,18.7 97.9,19 98,19.5 C98.4,18.9 98.7,18.4 99.1,18 C100.4,16.6 101.9,15.8 103.9,15.8 C105.5,15.8 105.4,15.5 105.4,17.2 C105.4,18.2 105.4,19.3 105.4,20.3 C105.4,21 105.2,21.2 104.5,21.3 C103.5,21.4 102.4,21.5 101.4,21.7 C99.6,22.1 98.8,23.4 98.8,25.1 C98.8,26.8 98.8,28.5 99.1,30.1 C99.3,31.3 99.9,32.5 100.6,33.5 C102.2,35.8 103.9,38 105.6,40.3 C105.7,40.4 105.8,40.5 105.9,40.6 C105.9,40.6 105.8,40.7 105.8,40.8 Z" id="Shape" fill="#000000"></path>
                    <path d="M64,21.6 C64.1,19.5 64.3,17.5 65,15.5 C66,12.8 68.4,10.9 71.4,10.9 C73.1,10.9 74.6,11.1 76.1,12 C77.9,13.1 78.7,14.9 79.2,16.8 C79.9,19.5 80.1,22.3 79.8,25 C79.6,26.5 79.3,28 79,29.5 C78.9,30.3 78.7,31.1 78.5,31.9 C78,34.1 76.6,35 74.4,34.8 C70.6,34.5 67.7,32.6 65.6,29.5 C64.8,28.3 64.5,26.9 64.3,25.5 C64.2,24.3 64.1,22.9 64,21.6 Z" id="Shape" fill="#FFFFFF"></path>
                    <path d="M14,16.7 C14,15.5 14,14.4 14,13.2 C14,12.6 14.2,12.3 14.8,12.3 C16.4,12.3 18.1,12.2 19.7,12.5 C21.1,12.7 22.2,13.6 22.5,15.1 C22.8,16.5 22.8,17.9 22.1,19.2 C21.6,20.1 20.8,20.7 19.8,20.8 C18.1,21 16.3,21 14.6,21.1 C14.1,21.1 14.1,20.8 14.1,20.4 C14.1,19.2 14.1,18 14,16.7 C14.1,16.7 14,16.7 14,16.7 Z" id="Shape" fill="#FFFFFF"></path>
                </g>
            </g>
        </g>
    </g>
</svg>