<?xml version="1.0" encoding="UTF-8"?>
<svg width="109px" height="50px" viewBox="0 0 109 50" version="1.1" xmlns="http://www.w3.org/2000/svg" xmlns:xlink="http://www.w3.org/1999/xlink">
    <!-- Generator: Sketch 49.3 (51167) - http://www.bohemiancoding.com/sketch -->
    <title>EcOF3B_1_</title>
    <desc>Created with Sketch.</desc>
    <defs></defs>
    <g id="Page-1" stroke="none" stroke-width="1" fill="none" fill-rule="evenodd">
        <g id="plork-logos" transform="translate(-153.000000, 0.000000)" fill-rule="nonzero">
            <g id="EcOF3B_1_" transform="translate(153.000000, 0.000000)">
                <g id="Group">
                    <path d="M0.2,50 C0.2,33.4 0.2,16.7 0.2,0.1 C36.2,0.1 72.2,0.1 108.2,0.1 C108.2,16.7 108.2,33.4 108.2,50 C72.1,50 36.1,50 0.2,50 Z M66.3,41.1 C68.2,41.1 69.9,40.6 71.6,39.7 C73.7,38.6 75.5,37.2 76.8,35.2 C77.4,34.3 77.7,33.4 77.7,32.3 C77.7,30.8 77,29.8 76,28.8 C74.5,27.3 72.8,26.3 71,25.3 C68.1,23.6 65.2,22 62.3,20.3 C60.2,19 58.2,17.6 56.4,15.9 C54.8,14.4 53.6,12.6 52.8,10.5 C52.4,9.3 51.9,8.2 51.2,7.2 C50,5.3 48.2,4.4 46,4 C44.6,3.8 43.1,3.8 41.7,4.1 C38.9,4.7 36.8,6.3 35.5,8.9 C34.8,10.3 34.9,11.7 35.6,13 C36.4,14.4 37.5,15.7 38.8,16.6 C40.8,18.1 42.9,19.5 45,20.8 C47.2,22.1 49.4,23.3 51.7,24.5 C53.8,25.6 55.8,26.8 57.6,28.3 C59,29.5 60.2,30.9 60.7,32.7 C61.3,34.4 61.7,36.2 62.1,38 C62.5,39.7 63.4,40.5 65.1,40.8 C65.6,41.1 65.9,41.1 66.3,41.1 Z M89.9,25.5 C89.9,25.5 90,25.5 89.9,25.5 C90.3,25.6 90.6,25.7 91,25.9 C92.8,26.9 94.5,28.1 96,29.6 C97.4,31.1 98.4,32.8 98.9,34.8 C99.4,36.7 99,38.5 98.3,40.2 C98.2,40.5 98.2,40.6 98.6,40.6 C99.8,40.6 101.1,40.6 102.3,40.6 C102.5,40.6 102.8,40.5 102.8,40.3 C103.1,39.4 103.4,38.5 103.5,37.5 C103.7,35.4 103,33.5 101.9,31.8 C100.9,30.1 99.6,28.8 98,27.7 C95.5,25.9 92.7,24.6 90,23.2 C88.3,22.3 86.5,21.4 84.9,20.4 C83.1,19.3 81.6,17.8 80.4,16.1 C79.4,14.7 79.1,13.2 79.7,11.5 C79.8,11.3 79.8,11.1 79.9,10.8 C79.8,10.8 79.7,10.7 79.7,10.7 C78.4,10.7 77.1,10.6 75.8,10.6 C75.7,10.6 75.5,10.7 75.4,10.9 C74.8,12.2 74.7,13.6 75.4,14.9 C75.9,15.9 76.6,16.8 77.4,17.6 C77.8,17.9 78.1,18.3 78.4,18.6 C78.2,18.6 78.1,18.6 78,18.5 C76.5,17.4 74.9,16.3 73.7,14.9 C72.5,13.5 71.6,12 71.5,10.1 C71.5,9.3 71.5,8.5 71.5,7.7 C71.6,6.8 71.7,6 71.8,5.1 C71.8,4.8 71.8,4.7 71.4,4.7 C70.4,4.7 69.5,4.7 68.5,4.7 C67.8,4.7 67.8,4.8 67.7,5.4 C67.6,6.4 67.5,7.3 67.5,8.3 C67.4,9.7 67.4,11 68,12.3 C68.7,13.8 69.6,15.1 70.9,16.1 C72.5,17.4 74.2,18.7 76,19.9 C77.9,21.1 79.9,22.2 81.9,23.3 C82.9,23.9 83.9,24.4 84.9,25 C86.8,26 88.5,27.1 90.1,28.5 C92.5,30.6 93.2,33.1 92.4,36.2 C92,37.7 91.2,39 90.3,40.2 C90.2,40.3 90.2,40.4 90.1,40.5 C90.2,40.5 90.3,40.6 90.5,40.6 C91.5,40.6 92.5,40.6 93.6,40.6 C93.8,40.6 94.1,40.5 94.2,40.3 C95.4,38.7 96.3,37.1 96.6,35.1 C97,32.8 96.5,30.8 94.8,29.1 C93.9,28.2 92.8,27.5 91.7,26.7 C91.3,26.3 90.6,25.9 89.9,25.5 Z M20.7,22.1 C20.7,22 20.7,22 20.7,21.9 C20.9,21.9 21.1,21.9 21.3,21.9 C21.6,21.9 21.8,21.9 22.1,22 C22.5,22 22.9,22 23.2,22.3 C23.3,22.4 23.4,22.3 23.6,22.3 C23.5,22.2 23.5,22 23.4,21.9 C22.8,21.3 22.1,20.8 21.5,20.2 C21,19.6 20.6,19 20.2,18.4 C19.6,17.5 19,16.7 18.6,15.7 C18.2,14.6 18,13.5 17.9,12.4 C17.7,11.1 17.8,9.7 17.6,8.4 C17.4,7.2 16.9,6.1 15.9,5.4 C14.6,4.5 13.1,4.2 11.5,4.1 C9.3,4 7.1,4 4.9,4 C4.6,4 4.4,4.1 4.4,4.4 C4.2,5.8 4,7.1 3.9,8.5 C3.8,10 3.9,11.6 4.6,13 C5.4,14.6 6.6,15.9 8,17 C10.8,19.2 13.8,21.1 16.9,22.7 C19,23.8 21.1,25 23.2,26.2 C24.7,27.1 26.2,28.1 27.5,29.4 C28.9,30.9 29.6,32.6 29.4,34.6 C29.2,36.4 28.6,38 27.6,39.5 C27.4,39.7 27.3,40 27.1,40.3 C27.3,40.3 27.4,40.3 27.6,40.3 C28.4,40.3 29.3,40.3 30.1,40.3 C30.8,40.3 31.3,40.2 31.6,39.5 C32.6,37.8 33.4,36.1 33.5,34.1 C33.6,32.3 33,30.9 31.8,29.6 C30.7,28.3 29.3,27.3 27.9,26.4 C27.2,26 27.2,25.3 27,24.6 C27,24.6 27,24.6 27.1,24.6 C27.3,24.7 27.5,24.7 27.8,24.8 C27.8,24.6 27.8,24.6 27.7,24.6 C27.2,24.2 26.7,23.8 26.1,23.6 C25.9,23.5 25.6,23.5 25.3,23.4 C25.1,23.8 24.8,23.7 24.4,23.6 C24,23.5 23.6,23.4 23.3,23.3 C22.3,23.2 21.6,22.6 20.7,22.1 Z M49.7,40.4 C49.7,40.4 49.7,40.4 49.7,40.4 C50.2,40.5 50.7,40.5 51.2,40.5 C52.5,40.5 53.9,40.5 55.2,40.5 C55.5,40.5 55.9,40.4 56.1,40.2 C57.1,39 57.8,37.6 58.2,36.1 C58.3,35.7 58.3,35.6 57.8,35.6 C55.3,35.6 52.9,35.6 50.4,35.6 C50.1,35.6 49.9,35.5 50,35.2 C50.1,34.8 50.1,34.3 50.1,33.9 C50.1,32.9 49.9,31.8 49.3,30.9 C48.4,29.4 47.2,28.3 45.8,27.4 C43.7,26.1 41.6,24.8 39.4,23.6 C36.4,21.9 33.3,20.3 30.5,18.2 C28.5,16.7 26.6,15.3 25.4,13 C25,12.2 24.7,11.4 24.7,10.5 C24.7,8.5 24.7,6.5 25.1,4.6 C25.2,4.4 25.2,4.2 24.9,4.2 C23.7,4.2 22.6,4.2 21.4,4.2 C21.2,4.2 21.1,4.3 21,4.5 C20.6,6.3 20.5,8.1 20.5,10 C20.5,11 20.7,12 21.2,12.9 C21.9,14.3 22.9,15.5 24.1,16.5 C25.4,17.6 26.8,18.7 28.2,19.6 C31.1,21.4 34.2,23.1 37.2,24.7 C39.6,26 42,27.3 44,29.3 C45,30.3 45.7,31.5 45.9,32.9 C46.2,35.5 45.3,37.8 43.9,39.9 C43.8,40 43.8,40.2 43.7,40.3 C43.9,40.3 44,40.4 44.2,40.4 C46,40.4 47.8,40.4 49.7,40.4 Z M61.1,12.9 C61.1,12.9 61,12.9 61,12.9 C60.9,12.7 60.8,12.5 60.7,12.3 C60.5,11.9 60.4,11.4 60.3,11 C60.2,10.7 60,10.6 59.7,10.6 C58.8,10.6 57.9,10.6 57,10.6 C56.6,10.6 56.5,10.7 56.6,11.1 C57,12.5 57.7,13.7 58.7,14.8 C60.2,16.5 62,17.8 63.8,19.1 C65.4,20.2 67,21.1 68.7,22.1 C70.7,23.2 72.7,24.3 74.6,25.4 C76.5,26.5 78.3,27.6 79.9,29.2 C81.7,31 82.2,33.1 81.7,35.5 C81.4,37.2 80.6,38.8 79.5,40.2 C79.4,40.3 79.4,40.4 79.4,40.6 C79.5,40.6 79.7,40.7 79.8,40.7 C80.7,40.7 81.7,40.7 82.6,40.7 C82.8,40.7 83.1,40.5 83.3,40.4 C84.9,38.2 86,35.9 85.7,33.1 C85.6,32.4 85.4,31.7 85.1,31.1 C84.1,29.2 82.5,28 80.8,26.9 C78.7,25.6 76.5,24.4 74.4,23.2 C71.8,21.7 69.2,20.3 66.9,18.4 C66.2,17.8 65.4,17.2 65,16.3 C64.8,15.8 65,15.4 65.5,15.3 C65.8,15.2 66.2,15.3 66.5,15.3 C66.6,15.3 66.8,15.3 67,15.2 C66.8,15 66.8,14.8 66.6,14.6 C65.9,13.7 65.4,12.8 65,11.7 C64.9,11.3 64.8,10.8 64.6,10.6 C64.3,10.4 63.8,10.6 63.4,10.6 C62.3,10.8 61.3,11.3 61.2,12.6 C61.2,12.7 61.1,12.8 61.1,12.9 Z" id="Shape" fill="#FFFFFF"></path>
                    <path d="M66.3,41.1 C66,41.1 65.6,41.1 65.3,41 C63.6,40.7 62.7,39.9 62.3,38.2 C61.9,36.4 61.4,34.7 60.9,32.9 C60.3,31.1 59.2,29.7 57.8,28.5 C56,27 54,25.8 51.9,24.7 C49.7,23.5 47.4,22.3 45.2,21 C43.1,19.7 41,18.3 39,16.8 C37.7,15.8 36.6,14.6 35.8,13.2 C35.1,11.8 35,10.5 35.7,9.1 C37,6.4 39.1,4.9 41.9,4.3 C43.3,4 44.8,3.9 46.2,4.2 C48.4,4.5 50.1,5.5 51.4,7.4 C52.1,8.4 52.6,9.5 53,10.7 C53.8,12.8 54.9,14.6 56.6,16.1 C58.4,17.8 60.4,19.2 62.5,20.5 C65.4,22.2 68.3,23.8 71.2,25.5 C73,26.5 74.7,27.6 76.2,29 C77.2,30 77.9,31 77.9,32.5 C77.9,33.6 77.5,34.5 77,35.4 C75.7,37.4 73.9,38.8 71.8,39.9 C69.9,40.6 68.2,41.2 66.3,41.1 Z M43.4,7.1 C42.5,7.1 41.3,7.6 40.4,8.8 C39.7,9.8 39.4,10.8 39.7,12 C40,13.2 40.7,14.2 41.5,15.1 C42.9,16.7 44.7,17.9 46.5,19.1 C48.1,20.1 49.7,21 51.3,22 C53.1,23 55,24 56.8,25.1 C58.3,26 59.8,26.9 61.3,28 C62.7,28.9 63.8,30.1 64.6,31.6 C65.1,32.6 65.6,33.7 66.1,34.7 C66.7,35.8 67.6,36.5 68.9,36.4 C70.6,36.3 72,35.6 72.8,34.1 C73.5,32.9 73.5,31.7 72.8,30.5 C72.2,29.4 71.2,28.5 70.2,27.7 C68.1,26.1 65.9,24.9 63.6,23.7 C60.1,21.8 56.8,19.9 53.7,17.4 C52.5,16.4 51.4,15.3 50.4,14.1 C49.5,12.9 48.9,11.5 48.3,10.1 C47.6,8.2 46.1,7.1 43.4,7.1 Z" id="Shape" fill="#000000"></path>
                    <path d="M89.9,25.5 C90.6,25.9 91.2,26.3 91.9,26.8 C92.9,27.6 94,28.3 95,29.2 C96.7,30.8 97.2,32.9 96.8,35.2 C96.5,37.1 95.5,38.8 94.4,40.4 C94.3,40.6 94,40.7 93.8,40.7 C92.8,40.7 91.8,40.7 90.7,40.7 C90.6,40.7 90.5,40.6 90.3,40.6 C90.4,40.5 90.4,40.4 90.5,40.3 C91.4,39.1 92.1,37.8 92.6,36.3 C93.5,33.2 92.8,30.7 90.3,28.6 C88.7,27.2 86.9,26.1 85.1,25.1 C84.1,24.6 83.1,24 82.1,23.4 C80.1,22.3 78.1,21.2 76.2,20 C74.4,18.9 72.7,17.6 71.1,16.2 C69.9,15.2 68.9,13.9 68.2,12.4 C67.6,11.1 67.6,9.8 67.7,8.4 C67.8,7.4 67.9,6.5 67.9,5.5 C68,4.8 68,4.8 68.7,4.8 C69.7,4.8 70.6,4.8 71.6,4.8 C71.9,4.8 72,4.9 72,5.2 C71.9,6.1 71.8,6.9 71.7,7.8 C71.6,8.6 71.6,9.4 71.7,10.2 C71.8,12.1 72.7,13.6 73.9,15 C75.1,16.4 76.7,17.5 78.2,18.6 C78.3,18.7 78.4,18.7 78.6,18.7 C78.3,18.3 77.9,18 77.6,17.7 C76.8,16.9 76.1,16.1 75.6,15 C74.9,13.7 75,12.3 75.6,11 C75.7,10.9 75.8,10.7 76,10.7 C77.3,10.7 78.6,10.7 79.9,10.8 C80,10.8 80,10.8 80.1,10.9 C80,11.1 80,11.4 79.9,11.6 C79.2,13.3 79.6,14.8 80.6,16.2 C81.8,17.9 83.3,19.4 85.1,20.5 C86.7,21.5 88.5,22.4 90.2,23.3 C92.9,24.7 95.7,26 98.2,27.8 C99.8,28.9 101.1,30.2 102.1,31.9 C103.1,33.7 103.9,35.5 103.7,37.6 C103.6,38.5 103.3,39.5 103,40.4 C103,40.5 102.7,40.7 102.5,40.7 C101.3,40.7 100,40.7 98.8,40.7 C98.4,40.7 98.4,40.6 98.5,40.3 C99.2,38.5 99.6,36.7 99.1,34.9 C98.6,32.9 97.6,31.2 96.2,29.7 C94.7,28.2 93,27.1 91.2,26 C90.7,25.7 90.3,25.6 89.9,25.5 C90,25.5 89.9,25.5 89.9,25.5 Z" id="Shape" fill="#000000"></path>
                    <path d="M20.7,22.1 C21.5,22.5 22.3,23.1 23.3,23.3 C23.7,23.4 24.1,23.4 24.4,23.6 C24.8,23.7 25.2,23.8 25.3,23.4 C25.6,23.5 25.8,23.5 26.1,23.6 C26.7,23.8 27.2,24.2 27.7,24.6 C27.7,24.6 27.7,24.7 27.8,24.8 C27.5,24.7 27.3,24.7 27.1,24.6 C27.1,24.6 27,24.6 27,24.6 C27.2,25.3 27.2,25.9 27.9,26.4 C29.3,27.3 30.7,28.3 31.8,29.6 C32.9,30.9 33.5,32.3 33.5,34.1 C33.4,36.1 32.6,37.8 31.6,39.5 C31.2,40.1 30.8,40.3 30.1,40.3 C29.3,40.2 28.5,40.3 27.6,40.3 C27.5,40.3 27.4,40.3 27.1,40.3 C27.3,40 27.4,39.7 27.6,39.5 C28.6,38 29.2,36.4 29.4,34.6 C29.6,32.5 28.9,30.8 27.5,29.4 C26.3,28.1 24.8,27.1 23.2,26.2 C21.1,25 19.1,23.8 16.9,22.7 C13.8,21.1 10.8,19.2 8,17 C6.6,15.9 5.4,14.6 4.6,13 C3.9,11.6 3.8,10.1 3.9,8.5 C4,7.1 4.2,5.8 4.4,4.4 C4.4,4.1 4.6,4 4.9,4 C7.1,4 9.3,4 11.5,4.1 C13,4.2 14.6,4.5 15.9,5.4 C16.9,6.1 17.5,7.2 17.6,8.4 C17.8,9.7 17.7,11.1 17.9,12.4 C18,13.5 18.2,14.7 18.6,15.7 C19,16.7 19.6,17.5 20.2,18.4 C20.6,19 21,19.7 21.5,20.2 C22.1,20.8 22.7,21.4 23.4,21.9 C23.5,22 23.5,22.1 23.6,22.3 C23.5,22.3 23.3,22.4 23.2,22.3 C22.9,22 22.5,22 22.1,22 C21.8,22 21.6,21.9 21.3,21.9 C21.1,21.9 20.9,21.9 20.7,21.9 C20.8,22 20.8,22.1 20.7,22.1 Z M9.9,7 C9.9,7 9.9,7.1 9.9,7.1 C9.5,7.1 9.1,7.1 8.7,7.1 C8.4,7.1 8.2,7.2 8.2,7.6 C8.2,8.3 8.2,8.9 8.2,9.6 C8.2,10.5 8.3,11.5 8.6,12.3 C8.7,12.5 8.9,12.7 9.1,12.7 C10,12.8 10.9,12.8 11.8,12.7 C12.6,12.7 13.2,12.1 13.3,11.5 C13.4,10.7 13.5,10 13.4,9.2 C13.3,8.3 12.9,7.5 11.9,7.3 C11.3,7.3 10.6,7.2 9.9,7 Z" id="Shape" fill="#000000"></path>
                    <path d="M49.7,40.4 C47.8,40.4 46,40.4 44.1,40.4 C43.9,40.4 43.8,40.3 43.6,40.3 C43.7,40.2 43.7,40 43.8,39.9 C45.2,37.8 46.1,35.6 45.8,32.9 C45.6,31.4 44.9,30.3 43.9,29.3 C41.9,27.3 39.5,26 37.1,24.7 C34.1,23 31.1,21.3 28.1,19.6 C26.6,18.7 25.3,17.6 24,16.5 C22.8,15.5 21.8,14.3 21.1,12.9 C20.6,12 20.4,11 20.4,10 C20.4,8.2 20.5,6.3 20.9,4.5 C21,4.2 21.1,4.2 21.3,4.2 C22.5,4.2 23.6,4.2 24.8,4.2 C25.1,4.2 25.1,4.4 25,4.6 C24.5,6.6 24.5,8.6 24.6,10.5 C24.6,11.4 24.9,12.2 25.3,13 C26.4,15.3 28.4,16.8 30.4,18.2 C33.2,20.3 36.3,21.9 39.3,23.6 C41.5,24.8 43.6,26 45.7,27.4 C47.1,28.3 48.3,29.4 49.2,30.9 C49.7,31.8 49.9,32.8 50,33.9 C50,34.3 50,34.8 49.9,35.2 C49.8,35.6 50,35.6 50.3,35.6 C52.8,35.6 55.2,35.6 57.7,35.6 C58.2,35.6 58.2,35.7 58.1,36.1 C57.7,37.6 57,39 56,40.2 C55.8,40.4 55.4,40.5 55.1,40.5 C53.8,40.5 52.4,40.5 51.1,40.5 C50.7,40.4 50.2,40.4 49.7,40.4 C49.7,40.4 49.7,40.4 49.7,40.4 Z" id="Shape" fill="#000000"></path>
                    <path d="M61.1,12.9 C61.1,12.8 61.2,12.7 61.2,12.6 C61.3,11.3 62.3,10.8 63.4,10.6 C63.8,10.5 64.3,10.4 64.6,10.6 C64.9,10.7 64.9,11.3 65,11.7 C65.3,12.8 65.8,13.7 66.6,14.6 C66.7,14.7 66.8,14.9 67,15.2 C66.8,15.2 66.6,15.2 66.5,15.3 C66.2,15.3 65.8,15.3 65.5,15.3 C65,15.4 64.8,15.8 65,16.3 C65.4,17.2 66.2,17.8 66.9,18.4 C69.2,20.3 71.8,21.7 74.4,23.2 C76.5,24.4 78.7,25.6 80.8,26.9 C82.5,28 84.2,29.2 85.1,31.1 C85.4,31.7 85.7,32.4 85.7,33.1 C86,35.9 84.9,38.2 83.3,40.4 C83.2,40.6 82.9,40.7 82.6,40.7 C81.7,40.7 80.7,40.7 79.8,40.7 C79.7,40.7 79.5,40.6 79.4,40.6 C79.4,40.5 79.5,40.3 79.5,40.2 C80.6,38.8 81.3,37.2 81.7,35.5 C82.2,33.1 81.7,31 79.9,29.2 C78.3,27.7 76.5,26.5 74.6,25.4 C72.6,24.3 70.6,23.2 68.7,22.1 C67.1,21.2 65.4,20.2 63.8,19.1 C61.9,17.9 60.2,16.5 58.7,14.8 C57.8,13.7 57,12.5 56.6,11.1 C56.5,10.8 56.6,10.6 57,10.6 C57.9,10.6 58.8,10.6 59.7,10.6 C60,10.6 60.2,10.7 60.3,11 C60.4,11.4 60.6,11.9 60.7,12.3 C60.8,12.5 60.9,12.7 61,12.9 C61,13 61,13 61.1,12.9 Z" id="Shape" fill="#000000"></path>
                    <path d="M43.4,7.1 C46.1,7.1 47.6,8.2 48.3,10.1 C48.8,11.5 49.5,12.9 50.4,14.1 C51.4,15.3 52.5,16.4 53.7,17.4 C56.8,19.8 60.2,21.8 63.6,23.7 C65.9,24.9 68.2,26.2 70.2,27.7 C71.2,28.5 72.2,29.3 72.8,30.5 C73.5,31.7 73.4,32.9 72.8,34.1 C72,35.6 70.6,36.3 68.9,36.4 C67.6,36.5 66.7,35.8 66.1,34.7 C65.5,33.7 65.1,32.6 64.6,31.6 C63.8,30.1 62.6,28.9 61.3,28 C59.8,27 58.3,26 56.8,25.1 C55,24 53.1,23.1 51.3,22 C49.7,21.1 48,20.2 46.5,19.1 C44.7,17.9 43,16.7 41.5,15.1 C40.7,14.2 40,13.2 39.7,12 C39.4,10.8 39.7,9.7 40.4,8.8 C41.3,7.6 42.6,7.1 43.4,7.1 Z" id="Shape" fill="#FFFFFF"></path>
                    <path d="M9.9,7 C10.6,7.1 11.3,7.2 12,7.4 C13,7.6 13.4,8.4 13.5,9.3 C13.6,10.1 13.5,10.8 13.4,11.6 C13.3,12.3 12.7,12.8 11.9,12.8 C11,12.8 10.1,12.8 9.2,12.8 C9,12.8 8.8,12.6 8.7,12.4 C8.3,11.5 8.2,10.6 8.3,9.7 C8.3,9 8.4,8.4 8.3,7.7 C8.3,7.3 8.4,7.2 8.8,7.2 C9.2,7.2 9.6,7.2 10,7.2 C9.9,7.1 9.9,7.1 9.9,7 Z" id="Shape" fill="#FFFFFF"></path>
                </g>
            </g>
        </g>
    </g>
</svg>