<?xml version="1.0" encoding="UTF-8"?>
<svg width="122px" height="49px" viewBox="0 0 122 49" version="1.1" xmlns="http://www.w3.org/2000/svg" xmlns:xlink="http://www.w3.org/1999/xlink">
    <!-- Generator: Sketch 49.3 (51167) - http://www.bohemiancoding.com/sketch -->
    <title>iBp0Li_1_</title>
    <desc>Created with Sketch.</desc>
    <defs></defs>
    <g id="Page-1" stroke="none" stroke-width="1" fill="none" fill-rule="evenodd">
        <g id="plork-logos" transform="translate(-257.000000, -243.000000)" fill-rule="nonzero">
            <g id="iBp0Li_1_" transform="translate(257.000000, 243.000000)">
                <g id="Group">
                    <path d="M0.1,48.8 C0.1,32.5 0.1,16.2 0.1,0 C40.6,0 81.2,0 121.7,0 C121.7,16.3 121.7,32.6 121.7,48.8 C81.2,48.8 40.6,48.8 0.1,48.8 Z M68,5.2 C68,5.1 68,5.1 68,5 C66.5,5.2 65.1,5.4 63.6,5.7 C62.6,5.9 61.7,6.3 60.8,6.8 C59,7.9 57.6,9.4 56.5,11.1 C54.1,14.6 51.6,18.1 49,21.4 C47.8,22.9 46.6,24.3 45.9,26.1 C45.4,27.4 45.2,28.8 45.5,30.1 C46.2,33.1 48,35.4 50.4,37.2 C53.4,39.5 56.5,41.5 60,42.9 C62.2,43.7 64.4,44.3 66.8,44.3 C68.7,44.2 69.9,43.4 70,41.6 C70.1,40.8 70,40 69.8,39.3 C69,36.5 68.9,33.8 69.8,31.1 C70.3,29.6 70.5,28.1 71.2,26.8 C72.2,24.9 73.5,23.1 74.7,21.4 C76.2,19.2 77.7,17.1 78.3,14.4 C78.5,13.6 78.6,12.7 78.4,11.9 C77.8,9.2 76,7.4 73.5,6.3 C71.8,5.5 69.9,5.2 68,5.2 Z M96.5,28.9 C96.5,28.9 96.6,28.9 96.6,28.9 C96.8,29.2 96.9,29.6 97.1,29.9 C98.3,32.4 99.7,34.8 101.7,36.7 C103.7,38.6 105.7,40.3 107.8,42.2 C109.1,43.4 110.5,44.3 112.4,44.1 C113.7,44 115,44.1 116.5,44.1 C116.3,43.9 116.2,43.8 116,43.6 C112.6,40.9 109.1,38.3 106.3,35 C104.6,33.1 103.3,31 102.2,28.7 C101.9,28.1 102,27.6 102.5,27.2 C104.3,25.6 106.1,23.9 108,22.3 C110.3,20.4 112.7,18.6 115,16.7 C115.3,16.5 115.5,16.3 115.8,16 C115.8,15.9 115.8,15.9 115.8,15.8 C115.6,15.8 115.4,15.7 115.2,15.7 C113.8,15.7 112.4,15.7 111,15.6 C110.3,15.6 109.7,15.7 109.1,16.2 C107.1,18 104.9,19.7 102.8,21.5 C101,23 99.3,24.6 97.5,26.2 C97.4,26.3 97.2,26.4 96.9,26.7 C97,26.4 97,26.2 97.1,26 C97.7,25 98.2,24 98.9,23 C100.7,20.6 102.5,18.3 104.1,15.7 C105.7,12.9 106.3,9.9 106.4,6.7 C106.4,6.5 106.2,6.2 106,6.2 C104.5,6.1 102.9,6.1 101.3,6.1 C101,6.1 100.8,6.2 100.7,6.6 C100.6,7.6 100.5,8.6 100.5,9.7 C100.4,11.6 99.8,13.3 98.9,14.9 C97.5,17.7 95.5,20.1 93.7,22.6 C92.8,23.8 92,25.2 91.3,26.5 C90.5,28 90.6,29.7 90.6,31.4 C90.7,33.2 91.1,34.8 92.1,36.2 C93.6,38.2 95.2,40 96.7,41.9 C97.6,42.9 98.5,43.8 100,43.7 C101.2,43.6 102.4,43.7 103.7,43.7 C103.6,43.5 103.6,43.4 103.5,43.3 C102.2,41.8 100.9,40.3 99.5,38.9 C96.9,36.2 95.7,33 96.1,29.3 C96.4,29.2 96.4,29.1 96.5,28.9 Z M13.6,5.3 C13.5,7 13.3,8.6 13.2,10.2 C13.1,11.7 12.6,13.2 11.9,14.5 C10.4,17.5 8.4,20.1 6.3,22.7 C4.7,24.6 3.3,26.7 2.9,29.2 C2.5,32 2.6,34.7 4.4,37 C5.6,38.5 6.9,40 8.1,41.5 C8.4,41.9 8.7,42 9.2,42 C10.6,42 12,42 13.4,42 C13.5,42 13.6,41.9 13.8,41.8 C13.7,41.6 13.6,41.5 13.5,41.3 C12.5,40.1 11.6,39 10.6,37.8 C8.4,35.3 8,32.3 8.3,29.2 C8.4,28.6 8.5,27.9 8.7,27.3 C8.8,27.1 9.1,26.8 9.4,26.8 C10.5,26.7 11.6,26.8 12.7,26.8 C14.7,26.8 16.5,26.3 18.2,25.4 C21.3,23.9 23.9,21.8 26.4,19.4 C28.3,17.6 29.9,15.5 30.8,12.9 C31.6,10.7 31,8.5 29.2,7 C27.5,5.6 25.5,5.2 23.4,5.1 C21.1,5 18.7,5 16.4,5 C15.5,5.3 14.6,5.3 13.6,5.3 Z M49.1,42.7 C48.9,42.4 48.8,42.2 48.7,42.1 C47.9,41.3 47.2,40.4 46.4,39.6 C45.2,38.2 44.1,36.8 43.3,35.2 C43.2,35 42.8,34.8 42.6,34.8 C41.1,34.7 39.5,34.7 37.9,34.7 C35.9,34.7 33.9,34.6 31.9,34.6 C31.5,34.6 31.4,34.5 31.3,34.1 C31.2,33.4 31,32.7 31,32 C31,30.6 31,29.2 31.2,27.9 C31.5,26 32.7,24.4 33.8,22.9 C35.9,20.2 38.1,17.5 39.5,14.4 C40.1,13.1 40.6,11.6 40.9,10.2 C41.2,8.9 41.2,7.5 41.3,6.1 C41.3,5.7 41.2,5.4 40.7,5.4 C39.2,5.4 37.7,5.4 36.2,5.4 C35.8,5.4 35.7,5.6 35.6,6 C35.5,7 35.4,8.1 35.3,9.1 C35.1,11.7 34.3,14.1 32.9,16.3 C31.5,18.5 29.9,20.6 28.4,22.6 C26.9,24.6 25.5,26.5 25.2,29.1 C24.9,31.9 25.1,34.6 26.9,36.9 C28.2,38.6 29.6,40.2 31,41.8 C31.3,42.1 31.8,42.4 32.2,42.4 C33.5,42.5 34.8,42.5 36,42.6 C40,42.7 44,42.7 48,42.8 C48.3,42.8 48.6,42.7 49.1,42.7 Z M85.8,19.7 C85.7,19.7 85.7,19.6 85.6,19.6 C85.7,19.4 85.8,19.2 85.9,19 C86.5,18.1 87.1,17.1 87.7,16.2 C87.9,15.8 87.9,15.6 87.4,15.6 C86.1,15.6 84.8,15.5 83.5,15.6 C83.3,15.6 82.9,15.8 82.8,16 C81.2,18.3 79.6,20.7 78,23 C76.6,25 75.3,27 75.2,29.5 C75.1,32.1 75.3,34.6 76.9,36.7 C78.4,38.7 80.2,40.6 81.8,42.6 C82.4,43.4 83.2,43.6 84.1,43.5 C85,43.5 85.9,43.5 86.9,43.6 C87.2,43.6 87.6,43.6 88.1,43.6 C87.9,43.3 87.8,43.2 87.7,43.1 C86.6,41.8 85.5,40.5 84.4,39.3 C82.8,37.5 81.4,35.7 81,33.2 C80.7,31.6 80.6,29.9 81,28.3 C81.5,26.2 83,24.7 84.9,23.7 C86.2,23 87.5,22.8 88.9,22.9 C89.4,22.9 89.7,22.8 90,22.4 C90.5,21.7 91.1,21 91.7,20.3 C92.6,18.9 93.6,17.6 94.5,16.2 C94.9,15.6 94.7,15.4 94.1,15.5 C93.4,15.6 92.7,15.7 92,15.9 C90.1,16.4 88.6,17.7 87.1,19 C86.5,19.1 86.2,19.4 85.8,19.7 Z" id="Shape" fill="#FFFFFF"></path>
                    <path d="M68,5.2 C69.9,5.2 71.8,5.5 73.6,6.3 C76.1,7.4 77.9,9.2 78.5,11.9 C78.7,12.7 78.6,13.6 78.4,14.4 C77.8,17 76.3,19.2 74.8,21.4 C73.5,23.1 72.3,24.9 71.3,26.8 C70.6,28.1 70.4,29.7 69.9,31.1 C69,33.8 69.1,36.6 69.9,39.3 C70.1,40 70.1,40.8 70.1,41.6 C70,43.4 68.8,44.2 66.9,44.3 C64.5,44.4 62.3,43.8 60.1,42.9 C56.6,41.5 53.4,39.5 50.5,37.2 C48.2,35.4 46.3,33.1 45.6,30.1 C45.3,28.8 45.4,27.4 46,26.1 C46.7,24.3 47.9,22.9 49.1,21.4 C51.8,18.1 54.3,14.7 56.6,11.1 C57.8,9.4 59.2,7.9 60.9,6.8 C61.7,6.3 62.7,5.9 63.7,5.7 C65.1,5.4 66.6,5.2 68.1,5 C68,5.1 68,5.1 68,5.2 Z M67.6,9.4 C66.7,9.6 66,9.7 65.2,10 C63.6,10.5 62.4,11.7 61.4,13.1 C59.5,15.6 57.5,18.1 55.6,20.7 C54.4,22.3 53.2,23.9 52.1,25.7 C50.5,28.3 51.4,31.4 53,33.3 C54.3,34.9 56,35.9 58,36.3 C59.6,36.6 61.2,36.3 62,34.7 C62.8,33.2 63.4,31.6 63.9,30 C64.5,28.3 64.9,26.5 66,25.1 C67.2,23.5 68.3,21.8 69.5,20.2 C70.7,18.4 71.8,16.6 72.2,14.4 C72.5,12.6 71.7,10.9 70.1,10.2 C69.3,9.7 68.5,9.6 67.6,9.4 Z" id="Shape" fill="#000000"></path>
                    <path d="M96.5,28.9 C96.5,29.1 96.4,29.2 96.4,29.4 C96,33.1 97.2,36.3 99.8,39 C101.2,40.4 102.5,41.9 103.8,43.4 C103.9,43.5 103.9,43.6 104,43.8 C102.7,43.8 101.5,43.7 100.3,43.8 C98.8,43.9 97.8,43.1 97,42 C95.4,40.1 93.8,38.3 92.4,36.3 C91.3,34.9 90.9,33.2 90.9,31.5 C90.8,29.8 90.8,28.1 91.6,26.6 C92.3,25.2 93.1,23.9 94,22.7 C95.8,20.2 97.8,17.8 99.2,15 C100,13.4 100.6,11.7 100.8,9.8 C100.9,8.8 101,7.8 101,6.7 C101,6.3 101.2,6.2 101.6,6.2 C103.2,6.2 104.7,6.3 106.3,6.3 C106.4,6.3 106.7,6.6 106.7,6.8 C106.6,10 106,13 104.4,15.8 C102.9,18.4 101,20.7 99.2,23.1 C98.5,24 98,25.1 97.4,26.1 C97.3,26.3 97.3,26.4 97.2,26.8 C97.5,26.6 97.7,26.5 97.8,26.3 C99.6,24.7 101.3,23.1 103.1,21.6 C105.2,19.8 107.3,18.1 109.4,16.3 C110,15.8 110.6,15.7 111.3,15.7 C112.7,15.7 114.1,15.7 115.5,15.8 C115.7,15.8 115.9,15.8 116.1,15.9 C116.1,16 116.1,16 116.1,16.1 C115.8,16.3 115.6,16.5 115.3,16.8 C113,18.7 110.6,20.5 108.3,22.4 C106.4,24 104.6,25.7 102.8,27.3 C102.3,27.7 102.3,28.2 102.5,28.8 C103.6,31.1 104.9,33.2 106.6,35.1 C109.5,38.4 112.9,41 116.3,43.7 C116.4,43.8 116.6,44 116.8,44.2 C115.4,44.2 114,44.1 112.7,44.2 C110.8,44.4 109.4,43.5 108.1,42.3 C106.1,40.5 104,38.7 102,36.8 C99.9,34.9 98.6,32.5 97.4,30 C97.2,29.7 97.1,29.3 96.9,29 C96.6,28.9 96.5,28.9 96.5,28.9 Z" id="Shape" fill="#000000"></path>
                    <path d="M13.6,5.3 C14.6,5.3 15.5,5.3 16.5,5.3 C18.8,5.3 21.2,5.2 23.5,5.4 C25.6,5.5 27.6,5.9 29.3,7.3 C31.1,8.8 31.6,11 30.9,13.2 C30,15.8 28.4,17.8 26.5,19.7 C24,22.1 21.4,24.2 18.3,25.7 C16.6,26.6 14.7,27.1 12.8,27.1 C11.7,27.1 10.6,27.1 9.5,27.1 C9.3,27.1 8.9,27.3 8.8,27.6 C8.6,28.2 8.5,28.9 8.4,29.5 C8.1,32.7 8.5,35.6 10.7,38.1 C11.7,39.2 12.6,40.4 13.6,41.6 C13.7,41.7 13.8,41.9 13.9,42.1 C13.7,42.2 13.6,42.3 13.5,42.3 C12.1,42.3 10.7,42.3 9.3,42.3 C8.8,42.3 8.5,42.1 8.2,41.8 C7,40.3 5.7,38.9 4.5,37.3 C2.7,35 2.6,32.3 3,29.5 C3.4,26.9 4.8,24.9 6.4,23 C8.5,20.4 10.5,17.8 12,14.8 C12.7,13.5 13.2,12 13.3,10.5 C13.3,8.6 13.5,7 13.6,5.3 Z M16.1,20.2 C16.1,20.3 16.1,20.3 16.1,20.4 C17.2,20.1 18.3,20 19.4,19.6 C20.6,19.1 21.6,18.4 22.4,17.4 C23.5,16.1 24.5,14.8 24.9,13.1 C25.3,11.4 24.6,10.3 23,10 C21.7,9.8 20.4,9.9 19.1,9.9 C18.7,9.9 18.6,10.1 18.5,10.5 C18.1,13.2 16.8,15.5 15.3,17.7 C14.9,18.3 14.4,18.9 14,19.6 C13.7,20.1 13.8,20.2 14.4,20.2 C15,20.2 15.6,20.2 16.1,20.2 Z" id="Shape" fill="#000000"></path>
                    <path d="M49.1,42.7 C48.6,42.7 48.3,42.7 48,42.7 C44,42.6 40,42.6 36,42.5 C34.7,42.5 33.4,42.5 32.2,42.3 C31.8,42.3 31.3,42 31,41.7 C29.6,40.1 28.2,38.5 26.9,36.8 C25.1,34.5 24.9,31.8 25.2,29 C25.5,26.4 26.9,24.5 28.4,22.5 C29.9,20.4 31.5,18.3 32.9,16.2 C34.3,14 35.1,11.6 35.3,9 C35.4,8 35.5,6.9 35.6,5.9 C35.6,5.5 35.7,5.3 36.2,5.3 C37.7,5.3 39.2,5.3 40.7,5.3 C41.2,5.3 41.3,5.5 41.3,6 C41.2,7.4 41.2,8.8 40.9,10.1 C40.6,11.5 40.1,13 39.5,14.3 C38.1,17.5 35.9,20.1 33.8,22.8 C32.6,24.3 31.5,25.8 31.2,27.8 C31,29.1 31,30.5 31,31.9 C31,32.6 31.2,33.3 31.3,34 C31.4,34.4 31.5,34.5 31.9,34.5 C33.9,34.5 35.9,34.5 37.9,34.6 C39.5,34.6 41,34.6 42.6,34.7 C42.9,34.7 43.2,34.9 43.3,35.1 C44.1,36.8 45.2,38.2 46.4,39.5 C47.1,40.3 47.9,41.2 48.7,42 C48.8,42.3 48.9,42.4 49.1,42.7 Z" id="Shape" fill="#000000"></path>
                    <path d="M85.8,19.7 C86.2,19.4 86.6,19.1 86.9,18.8 C88.4,17.5 89.9,16.3 91.8,15.7 C92.5,15.5 93.2,15.4 93.9,15.3 C94.6,15.2 94.7,15.4 94.3,16 C93.4,17.4 92.5,18.8 91.5,20.1 C91,20.8 90.4,21.5 89.8,22.2 C89.5,22.6 89.1,22.7 88.7,22.7 C87.3,22.6 85.9,22.8 84.7,23.5 C82.8,24.5 81.3,26 80.8,28.1 C80.4,29.7 80.5,31.4 80.8,33 C81.2,35.4 82.6,37.3 84.2,39.1 C85.3,40.4 86.4,41.6 87.5,42.9 C87.6,43 87.7,43.2 87.9,43.4 C87.4,43.4 87.1,43.4 86.7,43.4 C85.8,43.4 84.9,43.3 83.9,43.3 C83,43.3 82.2,43.1 81.6,42.4 C80,40.4 78.2,38.6 76.7,36.5 C75.1,34.4 74.8,31.9 75,29.3 C75.1,26.8 76.4,24.8 77.8,22.8 C79.5,20.5 81,18.1 82.6,15.8 C82.8,15.6 83.1,15.4 83.3,15.4 C84.6,15.4 85.9,15.4 87.2,15.4 C87.6,15.4 87.7,15.6 87.5,16 C86.9,16.9 86.3,17.9 85.7,18.8 C85.6,19 85.5,19.2 85.4,19.4 C85.7,19.6 85.7,19.6 85.8,19.7 Z" id="Shape" fill="#000000"></path>
                    <path d="M67.6,9.4 C68.4,9.6 69.3,9.7 70.1,10 C71.8,10.7 72.6,12.4 72.2,14.2 C71.8,16.4 70.7,18.2 69.5,20 C68.4,21.6 67.2,23.3 66,24.9 C64.9,26.4 64.5,28.1 63.9,29.8 C63.4,31.4 62.7,33 62,34.5 C61.2,36.1 59.6,36.4 58,36.1 C56,35.7 54.3,34.7 53,33.1 C51.4,31.2 50.5,28.1 52.1,25.5 C53.1,23.8 54.4,22.1 55.6,20.5 C57.5,17.9 59.4,15.4 61.4,12.9 C62.4,11.6 63.5,10.4 65.2,9.8 C66,9.7 66.8,9.6 67.6,9.4 Z" id="Shape" fill="#FFFFFF"></path>
                    <path d="M16.1,20.2 C15.6,20.2 15,20.2 14.5,20.2 C14,20.2 13.8,20 14.1,19.6 C14.5,19 15,18.4 15.4,17.7 C16.9,15.5 18.2,13.2 18.6,10.5 C18.7,10.1 18.8,9.9 19.2,9.9 C20.5,9.9 21.8,9.8 23.1,10 C24.8,10.2 25.4,11.4 25,13.1 C24.6,14.8 23.6,16.1 22.5,17.4 C21.7,18.4 20.6,19.1 19.5,19.6 C18.5,20 17.3,20.2 16.2,20.4 C16.2,20.3 16.2,20.2 16.1,20.2 Z" id="Shape" fill="#FFFFFF"></path>
                </g>
            </g>
        </g>
    </g>
</svg>