<?xml version="1.0" encoding="UTF-8"?>
<svg width="126px" height="28px" viewBox="0 0 126 28" version="1.1" xmlns="http://www.w3.org/2000/svg" xmlns:xlink="http://www.w3.org/1999/xlink">
    <!-- Generator: Sketch 49.3 (51167) - http://www.bohemiancoding.com/sketch -->
    <title>ujl4ep_1_</title>
    <desc>Created with Sketch.</desc>
    <defs></defs>
    <g id="Page-1" stroke="none" stroke-width="1" fill="none" fill-rule="evenodd">
        <g id="plork-logos" transform="translate(-727.000000, -308.000000)" fill-rule="nonzero">
            <g id="ujl4ep_1_" transform="translate(727.000000, 308.000000)">
                <g id="Group">
                    <path d="M0.2,27.8 C0.2,18.8 0.2,9.9 0.2,0.9 C42.1,0.9 84.1,0.9 126,0.9 C126,9.9 126,18.8 126,27.8 C84.1,27.8 42.2,27.8 0.2,27.8 Z M77.6,22.5 C78.1,22.5 78.5,22.5 79,22.4 C80.3,22.3 81.5,22 82.5,21.3 C83.3,20.8 83.8,19.9 83.2,18.9 C82.9,18.4 82.4,17.9 81.9,17.4 C79.7,15.6 77.2,14.3 74.6,13.2 C73,12.5 71.3,11.7 69.6,11.1 C66.8,10 64,9 61.2,8 C59.6,7.4 58,7 56.3,6.4 C54.4,5.8 52.5,5.3 50.6,5.1 C49.5,5 48.3,5 47.2,5.4 C45.5,6.1 45.6,7.5 46.7,8.5 C47.6,9.3 48.7,10.1 49.7,10.7 C51.5,11.8 53.4,12.7 55.3,13.7 C58.5,15.3 61.8,16.8 65,18.3 C66.7,19.1 68.3,19.9 70,20.6 C72.4,21.7 74.9,22.6 77.6,22.5 Z M29.9,15.8 C29.9,15.7 29.9,15.7 29.9,15.6 C30,15.6 30.2,15.5 30.3,15.5 C31.3,15.5 32.2,15.5 33.2,15.5 C33.8,15.5 34.5,15.4 35.1,15.2 C35.9,15 36.1,14.4 35.5,13.8 C35.2,13.5 34.9,13.2 34.6,13 C32.5,11.5 30.1,10.5 27.8,9.5 C25.4,8.5 23,7.6 20.6,6.8 C18,5.9 15.3,5.4 12.6,5.3 C10.6,5.3 8.6,5.3 6.6,5.3 C6.5,5.3 6.4,5.3 6.2,5.4 C6.2,5.5 6.2,5.5 6.1,5.6 C7.4,6.5 8.7,7.4 10.1,8.2 C12.4,9.4 14.7,10.5 17,11.6 C19.4,12.8 21.9,14 24.3,15.2 C26.6,16.4 28.9,17.6 30.9,19.2 C31.6,19.8 32.2,20.5 32.7,21.3 C33,21.8 33.3,22 33.9,22 C34.9,22 35.9,22 37,22 C37.5,22 37.6,21.9 37.3,21.4 C36.7,20.4 36,19.6 35,19 C33.5,18 32,17.1 30.5,16.2 C30.3,16 30.1,15.9 29.9,15.8 Z M101.4,16.4 C101.4,16.3 101.5,16.3 101.5,16.2 C103.7,17.1 106,18 108.1,19.1 C109.6,19.8 111,20.7 112.2,21.9 C112.4,22.1 112.7,22.2 113,22.2 C114.4,22.2 115.9,22.2 117.3,22.2 C117.4,22.2 117.5,22.1 117.6,22.1 C117.7,22 117.7,22 117.8,21.9 C117.6,21.8 117.4,21.7 117.3,21.6 C116,20.5 114.5,19.7 112.9,19 C110.8,18.1 108.7,17.3 106.5,16.5 C105.1,16 103.7,15.6 102.9,14.1 C102.4,13.2 101.6,12.5 100.9,11.7 C100.5,11.3 100.1,11.1 99.6,11.1 C98.4,11.1 97.2,11.1 96,11.1 C95.8,11.1 95.6,11.1 95.3,11.2 C96.6,12.4 97.9,13.6 98.9,14.9 C98.7,14.9 98.4,14.8 98.3,14.7 C97.2,14.2 96.1,13.6 94.9,13.1 C92.1,11.8 89.3,10.5 86.6,9.1 C84.9,8.2 83.3,7.2 81.7,6.3 C81.4,6.2 81.2,6 80.9,6 C79.8,5.9 78.7,5.9 77.6,5.9 C77.4,5.9 77.3,6 77,6 C77.1,6.1 77.1,6.2 77.2,6.3 C77.9,6.8 78.6,7.3 79.4,7.7 C81,8.6 82.7,9.4 84.4,10.3 C87.2,11.7 90.1,13 92.9,14.4 C95.5,15.7 98,17.2 100.5,18.7 C101.7,19.4 102.7,20.4 103.3,21.7 C103.4,22 103.5,22.3 103.9,22.3 C105.1,22.3 106.2,22.3 107.4,22.3 C107.8,22.3 108,22.1 107.7,21.7 C107.1,20.9 106.5,20 105.7,19.4 C104.6,18.5 103.3,17.8 102.1,17 C101.9,16.7 101.6,16.5 101.4,16.4 Z M65.1,21.9 C64.7,20.8 63.9,20.1 63.2,19.4 C62.9,19.1 62.5,19 62.1,19 C59.7,19 57.4,19 55,19 C54.1,19 53.3,18.9 52.4,18.3 C50,16.8 47.6,15.5 45.1,14.2 C41.6,12.4 38,10.8 34.5,9 C32.7,8.1 30.9,7.1 29.3,5.8 C29,5.5 28.7,5.4 28.3,5.4 C27.4,5.4 26.5,5.4 25.5,5.4 C25.2,5.4 24.8,5.4 24.5,5.4 C24.5,5.5 24.5,5.5 24.5,5.6 C25,6 25.5,6.4 26.1,6.8 C28,8.1 30.1,9 32.1,10 C34.2,11 36.2,11.9 38.3,13 C40,13.9 41.8,14.8 43.5,15.7 C45.6,16.8 47.6,17.9 49.4,19.4 C50,19.9 50.6,20.5 50.9,21.2 C51.2,21.8 51.6,21.9 52.1,21.9 C56.2,21.9 60.2,21.9 64.3,21.9 C64.6,22 64.8,22 65.1,21.9 Z M74.3,11.1 C74.3,11.2 74.3,11.2 74.3,11.3 C74.7,11.5 75.1,11.6 75.4,11.8 C77.4,12.8 79.5,13.7 81.5,14.8 C83.7,16 85.9,17.2 88.1,18.5 C89.4,19.3 90.5,20.3 91.2,21.8 C91.3,21.9 91.5,22.1 91.6,22.1 C92.8,22.1 94,22.1 95.2,22.1 C95.6,22.1 95.7,21.9 95.5,21.6 C94.9,20.8 94.4,20 93.6,19.4 C92.1,18.3 90.5,17.4 89,16.4 C88.1,15.9 87.3,15.4 86.4,14.8 C86.2,14.7 86,14.3 86.1,14.2 C86.2,14 86.5,13.8 86.7,13.8 C87,13.7 87.4,13.8 87.7,13.7 C87.9,13.7 88.1,13.7 88.2,13.6 C88.1,13.4 88,13.3 87.9,13.3 C86.7,12.7 85.4,12.2 84.2,11.5 C83.4,11 82.5,10.9 81.6,11 C81.3,11 81,11.2 80.9,11.4 C80.8,11.5 81,11.8 81.1,12 C81.1,12.1 81.2,12.2 81.2,12.3 C81.2,12.3 81.2,12.4 81.1,12.4 C80.8,12.3 80.6,12.2 80.3,12.1 C79.1,11.4 77.8,10.8 76.4,11 C75.6,11.2 74.9,11.1 74.3,11.1 Z" id="Shape" fill="#FFFFFF"></path>
                    <path d="M77.6,22.5 C74.9,22.6 72.4,21.8 70,20.7 C68.3,19.9 66.6,19.1 65,18.4 C61.8,16.9 58.5,15.3 55.3,13.8 C53.4,12.9 51.6,11.9 49.7,10.8 C48.6,10.2 47.6,9.4 46.7,8.6 C45.6,7.7 45.5,6.3 47.2,5.5 C48.3,5 49.4,5.1 50.6,5.2 C52.6,5.4 54.5,5.9 56.3,6.5 C57.9,7 59.6,7.5 61.2,8.1 C64,9.1 66.8,10.1 69.6,11.2 C71.3,11.8 72.9,12.6 74.6,13.3 C77.2,14.5 79.7,15.7 81.9,17.5 C82.4,17.9 82.8,18.4 83.2,19 C83.9,20.1 83.3,20.9 82.5,21.4 C81.4,22.1 80.2,22.4 79,22.5 C78.5,22.5 78,22.5 77.6,22.5 Z M75.3,19.6 C75.9,19.5 76.5,19.4 77.1,19.3 C77.6,19.2 77.8,18.5 77.5,18.1 C77.1,17.6 76.8,17.1 76.3,16.8 C74.7,15.8 73,14.8 71.3,13.9 C69.6,13 67.8,12.3 66,11.5 C63,10.2 59.9,9.1 56.7,8.5 C55.5,8.3 54.4,8.1 53.2,8.4 C52.7,8.5 52.5,8.9 52.9,9.3 C53.1,9.5 53.3,9.7 53.5,9.9 C54.4,10.5 55.3,11.1 56.2,11.6 C57.5,12.3 58.8,13 60.2,13.7 C62,14.6 63.8,15.5 65.6,16.3 C67.4,17.1 69.2,17.8 71,18.5 C72.3,19.2 73.7,19.5 75.3,19.6 Z" id="Shape" fill="#000000"></path>
                    <path d="M29.9,15.8 C30.1,15.9 30.4,16 30.6,16.2 C32.1,17.1 33.6,18 35.1,19 C36,19.6 36.8,20.4 37.4,21.4 C37.7,21.8 37.6,22 37.1,22 C36.1,22 35.1,22 34,22 C33.4,22 33.1,21.8 32.8,21.3 C32.3,20.5 31.7,19.8 31,19.2 C29,17.6 26.7,16.4 24.4,15.2 C22,14 19.5,12.8 17.1,11.6 C14.8,10.5 12.4,9.4 10.2,8.2 C8.8,7.5 7.6,6.5 6.2,5.6 C6.2,5.5 6.2,5.5 6.3,5.4 C6.4,5.4 6.5,5.3 6.7,5.3 C8.7,5.3 10.7,5.3 12.7,5.3 C15.5,5.3 18.1,5.9 20.7,6.8 C23.1,7.6 25.6,8.5 27.9,9.5 C30.3,10.5 32.6,11.5 34.7,13 C35,13.2 35.3,13.5 35.6,13.8 C36.2,14.4 36,15.1 35.2,15.2 C34.6,15.3 33.9,15.4 33.3,15.5 C32.3,15.5 31.4,15.5 30.4,15.5 C30.3,15.5 30.1,15.5 30,15.6 C29.9,15.7 29.9,15.7 29.9,15.8 Z M15.8,8.7 C15.8,8.7 15.8,8.8 15.8,8.8 C15.9,8.9 16,9 16.1,9.1 C16.6,9.4 17.2,9.6 17.7,9.9 C19.4,10.7 21.1,11.5 22.8,12.3 C23.4,12.6 24,13 24.6,13.1 C25.8,13.2 27,13.1 28.2,13.1 C28.6,13.1 28.7,12.8 28.5,12.5 C28.4,12.4 28.3,12.3 28.1,12.2 C26.9,11.6 25.8,11 24.6,10.4 C22,9.2 19.2,8.5 16.3,8.7 C16.1,8.6 16,8.6 15.8,8.7 Z" id="Shape" fill="#000000"></path>
                    <path d="M101.4,16.4 C101.7,16.6 102,16.8 102.3,17 C103.5,17.8 104.8,18.5 105.9,19.4 C106.7,20 107.3,20.9 107.9,21.7 C108.2,22 108,22.2 107.6,22.3 C106.4,22.3 105.3,22.3 104.1,22.3 C103.6,22.3 103.6,22 103.5,21.7 C102.9,20.4 101.9,19.5 100.7,18.7 C98.2,17.2 95.7,15.8 93.1,14.4 C90.3,12.9 87.4,11.6 84.6,10.3 C82.9,9.5 81.3,8.6 79.6,7.7 C78.8,7.3 78.1,6.8 77.4,6.3 C77.3,6.3 77.3,6.2 77.2,6 C77.4,6 77.6,5.9 77.8,5.9 C78.9,5.9 80,5.9 81.1,6 C81.4,6 81.7,6.2 81.9,6.3 C83.5,7.2 85.1,8.3 86.8,9.1 C89.5,10.5 92.3,11.8 95.1,13.1 C96.2,13.6 97.3,14.2 98.5,14.7 C98.7,14.8 98.9,14.8 99.1,14.9 C98.1,13.5 96.8,12.4 95.5,11.2 C95.8,11.2 96,11.1 96.2,11.1 C97.4,11.1 98.6,11.1 99.8,11.1 C100.4,11.1 100.8,11.3 101.1,11.7 C101.8,12.5 102.6,13.2 103.1,14.1 C103.9,15.6 105.3,16 106.7,16.5 C108.8,17.3 111,18.1 113.1,19 C114.7,19.7 116.2,20.5 117.5,21.6 C117.6,21.7 117.8,21.8 118,21.9 C117.9,22 117.9,22 117.8,22.1 C117.7,22.1 117.6,22.2 117.5,22.2 C116.1,22.2 114.6,22.2 113.2,22.2 C112.9,22.2 112.6,22.1 112.4,21.9 C111.2,20.7 109.8,19.8 108.3,19.1 C106.1,18.1 103.9,17.2 101.7,16.2 C101.4,16.2 101.4,16.3 101.4,16.4 Z" id="Shape" fill="#000000"></path>
                    <path d="M65.1,21.9 C64.8,21.9 64.6,21.9 64.4,21.9 C60.3,21.9 56.3,21.9 52.2,21.9 C51.6,21.9 51.3,21.8 51,21.2 C50.6,20.5 50,19.9 49.5,19.4 C47.7,17.9 45.7,16.8 43.6,15.7 C41.9,14.8 40.1,13.9 38.4,13 C36.4,12 34.3,11 32.2,10 C30.1,9 28.1,8.1 26.2,6.8 C25.7,6.4 25.2,6 24.6,5.6 C24.6,5.5 24.6,5.5 24.6,5.4 C24.9,5.4 25.3,5.4 25.6,5.4 C26.5,5.4 27.4,5.4 28.4,5.4 C28.8,5.4 29.1,5.5 29.4,5.8 C31,7.1 32.8,8.1 34.6,9 C38.1,10.7 41.7,12.4 45.2,14.2 C47.7,15.5 50.1,16.8 52.5,18.3 C53.3,18.8 54.1,19 55.1,19 C57.5,19 59.8,19 62.2,19 C62.7,19 63,19.1 63.3,19.4 C63.9,20.1 64.7,20.8 65.1,21.9 Z" id="Shape" fill="#000000"></path>
                    <path d="M74.3,11.1 C75,11.1 75.7,11.1 76.3,11.1 C77.8,11 79,11.6 80.2,12.2 C80.4,12.3 80.7,12.4 81,12.5 C81,12.5 81,12.4 81.1,12.4 C81.1,12.3 81,12.2 81,12.1 C80.9,11.9 80.7,11.5 80.8,11.5 C81,11.3 81.3,11.1 81.5,11.1 C82.4,11 83.3,11.1 84.1,11.6 C85.3,12.3 86.6,12.8 87.8,13.4 C87.9,13.5 88,13.5 88.1,13.7 C87.9,13.7 87.7,13.7 87.6,13.8 C87.3,13.8 86.9,13.8 86.6,13.9 C86.4,14 86.1,14.1 86,14.3 C85.9,14.4 86.2,14.8 86.3,14.9 C87.1,15.5 88,16 88.9,16.5 C90.5,17.5 92.1,18.4 93.5,19.5 C94.3,20.1 94.8,20.9 95.4,21.7 C95.6,22 95.5,22.2 95.1,22.2 C93.9,22.2 92.7,22.2 91.5,22.2 C91.4,22.2 91.1,22.1 91.1,21.9 C90.4,20.5 89.3,19.4 88,18.6 C85.8,17.3 83.6,16 81.4,14.9 C79.4,13.8 77.4,12.9 75.3,11.9 C74.9,11.7 74.6,11.6 74.2,11.4 C74.2,11.2 74.3,11.2 74.3,11.1 Z" id="Shape" fill="#000000"></path>
                    <path d="M75.3,19.6 C73.8,19.5 72.3,19.1 70.9,18.6 C69.1,17.9 67.3,17.2 65.5,16.4 C63.7,15.6 61.9,14.7 60.1,13.8 C58.8,13.1 57.4,12.4 56.1,11.7 C55.2,11.2 54.3,10.6 53.4,10 C53.2,9.8 53,9.6 52.8,9.4 C52.5,9 52.6,8.6 53.1,8.5 C54.3,8.2 55.5,8.4 56.6,8.6 C59.8,9.2 62.9,10.3 65.9,11.6 C67.7,12.4 69.5,13.1 71.2,14 C72.9,14.9 74.5,15.9 76.2,16.9 C76.7,17.2 77,17.7 77.4,18.2 C77.7,18.6 77.5,19.3 77,19.4 C76.5,19.5 75.9,19.5 75.3,19.6 Z" id="Shape" fill="#FFFFFF"></path>
                    <path d="M15.8,8.7 C16,8.7 16.1,8.7 16.3,8.7 C19.2,8.4 22,9.2 24.6,10.4 C25.8,10.9 26.9,11.6 28.1,12.2 C28.2,12.3 28.4,12.4 28.5,12.5 C28.8,12.8 28.7,13.1 28.2,13.1 C27,13.1 25.8,13.2 24.6,13.1 C24,13 23.4,12.6 22.8,12.3 C21.1,11.5 19.4,10.7 17.7,9.9 C17.2,9.6 16.6,9.4 16.1,9.1 C16,9 15.9,8.9 15.8,8.8 C15.8,8.7 15.8,8.7 15.8,8.7 Z" id="Shape" fill="#FFFFFF"></path>
                </g>
            </g>
        </g>
    </g>
</svg>