<?xml version="1.0" encoding="UTF-8"?>
<svg width="114px" height="49px" viewBox="0 0 114 49" version="1.1" xmlns="http://www.w3.org/2000/svg" xmlns:xlink="http://www.w3.org/1999/xlink">
    <!-- Generator: Sketch 49.3 (51167) - http://www.bohemiancoding.com/sketch -->
    <title>_x36_b9IwQ_1_</title>
    <desc>Created with Sketch.</desc>
    <defs></defs>
    <g id="Page-1" stroke="none" stroke-width="1" fill="none" fill-rule="evenodd">
        <g id="plork-logos" transform="translate(-261.000000, -1.000000)" fill-rule="nonzero">
            <g id="_x36_b9IwQ_1_" transform="translate(261.000000, 1.000000)">
                <g id="Group">
                    <path d="M0.1,48.1 C0.1,32.1 0.1,16.1 0.1,0.1 C37.9,0.1 75.7,0.1 113.6,0.1 C113.6,16.1 113.6,32.1 113.6,48.1 C75.7,48.1 37.9,48.1 0.1,48.1 Z M69.4,43.3 C69.9,43.2 70.9,43.1 71.8,42.9 C73.2,42.5 74.5,41.9 75.7,40.9 C76.7,40.1 77.4,39 77.9,37.9 C78.5,36.2 78.3,34.5 77.4,32.8 C76.5,31.2 75.1,29.9 73.7,28.7 C72,27.3 70.1,26 68.3,24.7 C65.6,22.8 62.9,21 60.6,18.6 C59.7,17.6 58.8,16.6 58.4,15.3 C58,14.1 57.7,12.9 57.3,11.8 C56.8,10.2 56.2,8.8 55.1,7.5 C53.7,5.9 51.8,5.1 49.7,4.7 C48.1,4.5 46.5,4.5 45,4.9 C43.7,5.2 42.5,5.8 41.4,6.6 C39.8,7.9 38.7,9.5 38.1,11.5 C37.7,13 37.6,14.5 38.3,15.9 C38.9,17.4 40,18.6 41.2,19.6 C43.4,21.4 45.7,23.1 48,24.7 C50.5,26.5 53.1,28.2 55.4,30.3 C56.8,31.6 58,33.1 58.9,34.9 C59.6,36.3 60.2,37.7 61,39 C61.9,40.6 63.3,41.9 65,42.7 C66.2,43.2 67.6,43.3 69.4,43.3 Z M8.1,5.3 C8.1,5.3 8.1,5.3 8.1,5.3 C6.9,5.2 5.7,5.3 4.5,5.2 C4.1,5.2 3.9,5.3 3.9,5.8 C3.9,6.7 3.8,7.5 3.8,8.4 C3.8,10.3 3.6,12.3 4,14.2 C4.1,14.9 4.3,15.6 4.6,16.2 C5.2,17.2 5.9,18.2 6.7,19 C8.6,21 10.9,22.5 13.2,24.1 C15.8,25.9 18.4,27.6 20.7,29.7 C22.2,31 23.5,32.4 24.3,34.2 C25.3,36.7 25.3,39.3 25,41.9 C24.9,42.4 24.9,42.4 25.5,42.4 C26.6,42.4 27.6,42.4 28.7,42.4 C29.3,42.4 29.5,42.3 29.5,41.7 C29.6,41.2 29.6,40.7 29.6,40.2 C29.7,38 29.5,35.8 28.5,33.8 C28.3,33.3 27.9,32.9 27.6,32.4 C27.5,32.2 27.4,31.9 27.4,31.7 C27.4,31.6 27.8,31.6 28,31.5 C28.2,31.5 28.4,31.5 28.6,31.5 C29.3,31.5 30,31.5 30.7,31.5 C31.6,31.5 32.1,30.8 31.8,29.9 C31.6,29.4 31.4,29 31.1,28.6 C29.5,26.6 27.4,25.1 25.5,23.5 C23.9,22.2 22.3,20.9 20.8,19.6 C19.1,18.1 18.3,16.3 18.7,14 C18.9,12.6 18.9,11.3 18.7,9.9 C18.5,8.7 18,7.7 17.1,6.9 C15.9,5.8 14.3,5.3 12.7,5.2 C11.3,5.3 9.7,5.3 8.1,5.3 Z M90.1,25.5 C90.1,25.6 90,25.6 90,25.7 C89.8,25.6 89.5,25.5 89.3,25.3 C86.7,23.5 84,21.7 81.6,19.6 C80.2,18.3 78.9,16.9 78.4,15 C78.1,13.8 78,12.5 77.9,11.3 C77.8,9.4 77.9,7.5 77.9,5.6 C77.9,5.2 77.8,5.1 77.4,5.1 C76.3,5.1 75.2,5.1 74.1,5.1 C73.8,5.1 73.6,5.2 73.6,5.5 C73.6,8.1 73.6,10.7 73.7,13.3 C73.7,14.6 74.2,15.9 75,17.1 C76.1,18.8 77.6,20.1 79.2,21.3 C81.6,23 84,24.7 86.4,26.4 C88.6,28 90.8,29.6 92.6,31.7 C93.9,33.3 94.8,35.1 95,37.1 C95.2,38.9 95.2,40.8 94.8,42.6 C94.7,43 94.8,43.2 95.2,43.2 C96.3,43.2 97.4,43.2 98.6,43.2 C98.9,43.2 99.1,43.1 99.1,42.8 C99.2,41.7 99.4,40.6 99.5,39.6 C99.6,37.4 99.2,35.3 98.1,33.3 C98.1,33.2 98.1,33.1 98.1,33 C98.4,33.2 98.7,33.4 98.8,33.7 C99.6,35 100.4,36.2 101.1,37.5 C102,39.1 102.9,40.8 103.3,42.7 C103.4,43.1 103.6,43.2 104,43.2 C105.2,43.2 106.3,43.2 107.5,43.2 C108.8,43.2 108.7,43 108.3,42 C107.3,39.4 105.8,37.1 104.3,34.9 C103.2,33.2 101.8,31.8 100.3,30.5 C99.3,29.6 98.5,28.6 97.4,27.8 C95.2,26 92.9,24.3 90.8,22.5 C89.5,21.5 88.4,20.3 87.2,19.2 C86.3,18.3 85.7,17.3 85.7,15.9 C85.7,14.8 86.1,13.9 86.7,13 C86.9,12.6 87.1,12.2 87.4,11.9 C87.3,11.9 87.2,11.8 87.2,11.8 C85.8,11.8 84.3,11.8 82.9,11.8 C82.8,11.8 82.6,12 82.5,12.1 C82.1,12.7 81.8,13.4 81.5,14.1 C81.1,15.1 81,16.1 81.4,17.1 C81.8,18.1 82.5,19 83.3,19.7 C85.2,21.3 87.1,22.9 89.1,24.5 C89.2,24.7 89.7,25.1 90.1,25.5 Z M49.9,42.6 C49.9,42.6 49.9,42.7 49.9,42.6 C52,42.7 54,42.7 56.1,42.7 C56.6,42.7 56.8,42.6 56.8,42.1 C56.9,41.2 56.9,40.4 57,39.5 C57,39 56.9,38.9 56.4,38.9 C53.7,38.9 50.9,38.9 48.2,38.9 C47.9,38.9 47.7,38.8 47.7,38.5 C47.7,38.1 47.6,37.6 47.6,37.2 C47.4,35.1 46.6,33.2 45.2,31.6 C43.8,29.9 42.1,28.6 40.4,27.3 C38.5,25.9 36.5,24.6 34.6,23.2 C32.5,21.7 30.4,20.3 28.7,18.3 C28.1,17.6 27.6,16.9 27.2,16.1 C26.5,14.6 26.4,13 26.4,11.4 C26.4,9.5 26.5,7.6 26.5,5.7 C26.5,5.3 26.4,5.1 25.9,5.1 C24.7,5.1 23.6,5.1 22.4,5.1 C22.1,5.1 21.9,5.2 21.9,5.6 C21.9,8 21.9,10.5 21.9,12.9 C21.9,15.2 22.9,17.1 24.5,18.6 C25.5,19.6 26.7,20.6 27.8,21.5 C30.4,23.4 33,25.2 35.6,27 C37.6,28.4 39.5,29.9 41,31.8 C41.9,32.9 42.6,34.2 42.9,35.6 C43.3,37.6 43.4,39.5 43.1,41.5 C43,42.4 43,42.4 43.9,42.4 C45.9,42.6 47.9,42.6 49.9,42.6 Z M65.2,11.8 C64,11.8 62.7,11.8 61.5,11.8 C61.4,11.8 61.3,12.1 61.3,12.2 C61.5,14.6 62.3,16.9 64.1,18.6 C65.5,19.9 67.1,21.2 68.6,22.4 C70.7,24 72.8,25.4 75,26.9 C76.7,28.1 78.4,29.5 79.9,31.1 C81.4,32.7 82.3,34.6 82.7,36.7 C83,38.6 83,40.4 82.6,42.3 C82.5,42.8 82.6,43 83.1,43 C84.2,43 85.3,43 86.3,43 C86.7,43 86.9,42.8 86.9,42.4 C87,41.6 87.1,40.7 87.2,39.9 C87.3,37.6 87,35.3 85.9,33.2 C84.9,31.4 83.6,30 82,28.8 C79.6,26.8 77,25 74.6,23.1 C73.2,22 72,20.8 70.7,19.6 C70.3,19.2 70,18.5 69.7,18 C69.5,17.7 69.7,17.4 70,17.3 C70.4,17.2 70.8,17.2 71.2,17.1 C71.7,17.1 71.7,17 71.5,16.6 C70.9,15.4 70.5,14.1 70.4,12.8 C70.3,11.5 70.3,11.4 68.9,11.6 C67.5,11.8 66.4,12.4 65.9,13.8 C65.8,14 65.8,14.1 65.7,14.3 C65.6,14.3 65.6,14.3 65.5,14.3 C65.3,13.5 65.3,12.7 65.2,11.8 Z" id="Shape" fill="#FFFFFF"></path>
                    <path d="M69.4,43.3 C67.5,43.3 66.1,43.2 64.8,42.6 C63,41.8 61.7,40.6 60.8,38.9 C60,37.6 59.4,36.2 58.7,34.8 C57.8,33.1 56.7,31.5 55.2,30.2 C52.9,28.1 50.3,26.3 47.8,24.6 C45.5,23 43.2,21.3 41,19.5 C39.8,18.5 38.8,17.3 38.1,15.8 C37.5,14.3 37.5,12.9 37.9,11.4 C38.4,9.4 39.5,7.8 41.2,6.5 C42.3,5.7 43.5,5.1 44.8,4.8 C46.4,4.4 47.9,4.4 49.5,4.6 C51.6,4.9 53.5,5.7 54.9,7.4 C56,8.6 56.7,10.1 57.1,11.7 C57.5,12.9 57.8,14.1 58.2,15.2 C58.6,16.5 59.5,17.6 60.4,18.5 C62.7,20.9 65.4,22.7 68.1,24.6 C69.9,25.9 71.7,27.2 73.5,28.6 C74.9,29.8 76.3,31 77.2,32.7 C78.1,34.3 78.3,36 77.7,37.8 C77.3,39 76.5,40 75.5,40.8 C74.4,41.8 73.1,42.4 71.6,42.8 C70.9,43.1 70,43.2 69.4,43.3 Z M42.6,13.6 C42.6,14 42.6,14.3 42.7,14.7 C43,16.3 43.9,17.6 45,18.7 C46.5,20.1 48.1,21.4 49.7,22.6 C52.6,24.7 55.5,26.7 58.4,28.9 C59.5,29.7 60.5,30.8 61.5,31.8 C62.9,33.3 63.7,35.1 64.6,36.9 C65.6,38.9 67.2,39.9 69.4,39.8 C72.2,39.7 73.8,37.7 73.4,35.1 C73.2,33.8 72.6,32.7 71.8,31.7 C70.5,30 68.8,28.6 67,27.3 C64.8,25.7 62.6,24.2 60.4,22.6 C59.5,22 58.6,21.3 57.8,20.6 C56.7,19.7 55.7,18.6 54.8,17.5 C53.9,16.3 53.5,15.1 53.1,13.8 C52.8,12.6 52.5,11.4 51.8,10.3 C51.3,9.4 50.5,8.7 49.5,8.5 C48.6,8.3 47.7,8.2 46.8,8.3 C45.7,8.4 44.7,8.9 44,9.8 C43,10.7 42.5,12 42.6,13.6 Z" id="Shape" fill="#000000"></path>
                    <path d="M8.1,5.3 C9.7,5.3 11.3,5.2 12.9,5.3 C14.5,5.4 16,5.9 17.3,7 C18.2,7.8 18.7,8.8 18.9,10 C19.1,11.4 19.1,12.7 18.9,14.1 C18.5,16.4 19.3,18.2 21,19.7 C22.5,21 24.2,22.3 25.7,23.6 C27.6,25.2 29.7,26.7 31.3,28.7 C31.6,29.1 31.8,29.5 32,30 C32.3,30.8 31.8,31.5 30.9,31.6 C30.2,31.6 29.5,31.6 28.8,31.6 C28.6,31.6 28.4,31.6 28.2,31.6 C28,31.6 27.7,31.7 27.6,31.8 C27.6,32 27.6,32.3 27.8,32.5 C28.1,33 28.4,33.4 28.7,33.9 C29.7,35.9 29.9,38.1 29.8,40.3 C29.8,40.8 29.7,41.3 29.7,41.8 C29.6,42.4 29.5,42.5 28.9,42.5 C27.8,42.5 26.8,42.5 25.7,42.5 C25.1,42.5 25.2,42.5 25.2,42 C25.5,39.4 25.5,36.8 24.5,34.3 C23.7,32.5 22.4,31.1 20.9,29.8 C18.5,27.7 15.9,26 13.4,24.2 C11.1,22.7 8.9,21.1 6.9,19.1 C6.1,18.3 5.4,17.3 4.8,16.3 C4.5,15.7 4.3,15 4.2,14.3 C3.8,12.4 4,10.4 4,8.5 C4,7.6 4.1,6.8 4.1,5.9 C4.1,5.4 4.3,5.3 4.7,5.3 C5.7,5.3 6.9,5.3 8.1,5.3 C8.1,5.3 8.1,5.3 8.1,5.3 Z M8.2,11.1 C8.2,11.1 8.2,11.1 8.2,11.1 C8.2,12.2 8.3,13.3 8.4,14.4 C8.4,14.7 8.5,15.1 8.9,15.1 C10,15.1 11,15.1 12.1,15.1 C12.8,15.1 13.3,14.7 13.6,14.1 C14.2,13.1 14.2,12 13.9,10.8 C13.6,9.6 12.8,8.9 11.6,8.9 C10.6,8.9 9.6,8.9 8.5,8.9 C8.2,8.9 8.1,9 8.1,9.3 C8.3,9.8 8.2,10.5 8.2,11.1 Z" id="Shape" fill="#000000"></path>
                    <path d="M90.1,25.5 C89.6,25.1 89.2,24.7 88.7,24.4 C86.8,22.8 84.8,21.2 82.9,19.6 C82.1,18.9 81.4,18 81,17 C80.6,16 80.7,15 81.1,14 C81.4,13.3 81.8,12.7 82.1,12 C82.2,11.9 82.4,11.7 82.5,11.7 C83.9,11.7 85.4,11.7 86.8,11.7 C86.8,11.7 86.9,11.7 87,11.8 C86.8,12.2 86.6,12.6 86.3,12.9 C85.8,13.8 85.3,14.7 85.3,15.8 C85.3,17.1 86,18.2 86.8,19.1 C87.9,20.3 89.1,21.4 90.4,22.4 C92.6,24.2 94.9,25.9 97,27.7 C98,28.5 98.9,29.6 99.9,30.4 C101.4,31.7 102.8,33.2 103.9,34.8 C105.4,37.1 106.9,39.4 107.9,41.9 C108.3,42.9 108.4,43.1 107.1,43.1 C105.9,43.1 104.8,43.1 103.6,43.1 C103.2,43.1 103,42.9 102.9,42.6 C102.5,40.7 101.6,39.1 100.7,37.4 C100,36.1 99.2,34.9 98.4,33.6 C98.2,33.3 98,33.1 97.7,32.9 C97.7,33 97.7,33.1 97.7,33.2 C98.8,35.1 99.2,37.3 99.1,39.5 C99.1,40.6 98.9,41.7 98.7,42.7 C98.7,43.1 98.5,43.1 98.2,43.1 C97.1,43.1 96,43.1 94.8,43.1 C94.4,43.1 94.3,42.9 94.4,42.5 C94.8,40.7 94.8,38.8 94.6,37 C94.4,35 93.6,33.2 92.2,31.6 C90.4,29.5 88.2,27.9 86,26.3 C83.6,24.6 81.2,22.9 78.8,21.2 C77.2,20 75.7,18.7 74.6,17 C73.8,15.9 73.4,14.6 73.3,13.2 C73.2,10.6 73.3,8 73.2,5.4 C73.2,5 73.4,4.9 73.7,5 C74.8,5 75.9,5 77,5 C77.4,5 77.5,5.1 77.5,5.5 C77.5,7.4 77.4,9.3 77.5,11.2 C77.5,12.4 77.7,13.7 78,14.9 C78.4,16.8 79.7,18.3 81.2,19.5 C83.6,21.6 86.3,23.4 88.9,25.2 C89.1,25.4 89.4,25.5 89.6,25.6 C90.1,25.6 90.1,25.5 90.1,25.5 Z" id="Shape" fill="#000000"></path>
                    <path d="M49.9,42.6 C47.9,42.6 45.9,42.6 43.9,42.6 C43,42.6 43,42.6 43.1,41.7 C43.4,39.7 43.3,37.8 42.9,35.8 C42.6,34.4 41.9,33.1 41,32 C39.5,30.1 37.6,28.6 35.6,27.2 C33,25.3 30.4,23.6 27.8,21.7 C26.6,20.8 25.5,19.9 24.5,18.8 C22.9,17.2 21.9,15.4 21.9,13.1 C21.9,10.7 21.9,8.2 21.9,5.8 C21.9,5.4 22.1,5.3 22.4,5.3 C23.6,5.3 24.7,5.3 25.9,5.3 C26.3,5.3 26.5,5.5 26.5,5.9 C26.4,7.8 26.4,9.7 26.4,11.6 C26.4,13.2 26.5,14.8 27.2,16.3 C27.6,17.1 28.1,17.8 28.7,18.5 C30.4,20.5 32.5,21.9 34.6,23.4 C36.5,24.8 38.5,26 40.4,27.5 C42.1,28.8 43.8,30.1 45.2,31.8 C46.6,33.4 47.4,35.3 47.6,37.4 C47.6,37.8 47.7,38.3 47.7,38.7 C47.7,39 47.9,39.1 48.2,39.1 C50.9,39.1 53.7,39.1 56.4,39.1 C56.9,39.1 57,39.2 57,39.7 C56.9,40.6 56.8,41.4 56.8,42.3 C56.8,42.8 56.5,42.9 56.1,42.9 C54,42.7 51.9,42.7 49.9,42.6 C49.9,42.7 49.9,42.6 49.9,42.6 Z" id="Shape" fill="#000000"></path>
                    <path d="M65.2,11.8 C65.3,12.7 65.3,13.5 65.6,14.3 C65.7,14.3 65.7,14.3 65.8,14.3 C65.9,14.1 65.9,14 66,13.8 C66.5,12.4 67.6,11.8 69,11.6 C70.3,11.4 70.4,11.5 70.5,12.8 C70.6,14.1 70.9,15.4 71.6,16.6 C71.8,17 71.7,17.1 71.3,17.1 C70.9,17.1 70.5,17.2 70.1,17.3 C69.8,17.4 69.6,17.6 69.8,18 C70.1,18.6 70.3,19.2 70.8,19.6 C72,20.8 73.3,22 74.7,23.1 C77.1,25 79.7,26.8 82.1,28.8 C83.6,30 85,31.4 86,33.2 C87.1,35.3 87.4,37.5 87.3,39.9 C87.3,40.7 87.1,41.6 87,42.4 C87,42.8 86.8,43 86.4,43 C85.3,43 84.2,43 83.2,43 C82.7,43 82.6,42.9 82.7,42.3 C83.1,40.5 83.1,38.6 82.8,36.7 C82.5,34.6 81.5,32.7 80,31.1 C78.5,29.5 76.9,28.2 75.1,26.9 C73,25.4 70.8,24 68.7,22.4 C67.1,21.2 65.6,19.9 64.2,18.6 C62.4,16.9 61.6,14.7 61.4,12.2 C61.4,12.1 61.5,11.8 61.6,11.8 C62.7,11.8 64,11.8 65.2,11.8 Z" id="Shape" fill="#000000"></path>
                    <path d="M42.6,13.6 C42.5,12.1 43,10.7 44,9.6 C44.7,8.7 45.7,8.2 46.8,8.1 C47.7,8 48.6,8.1 49.5,8.3 C50.5,8.5 51.2,9.2 51.8,10.1 C52.5,11.2 52.8,12.4 53.1,13.6 C53.5,14.9 53.9,16.2 54.8,17.3 C55.7,18.5 56.7,19.5 57.8,20.4 C58.6,21.1 59.5,21.8 60.4,22.4 C62.6,24 64.9,25.5 67,27.1 C68.7,28.4 70.4,29.7 71.8,31.5 C72.6,32.5 73.2,33.6 73.4,34.9 C73.8,37.5 72.2,39.5 69.4,39.6 C67.2,39.7 65.6,38.7 64.6,36.7 C63.7,34.9 62.9,33.1 61.5,31.6 C60.5,30.6 59.5,29.6 58.4,28.7 C55.6,26.6 52.6,24.6 49.7,22.4 C48.1,21.2 46.5,19.9 45,18.5 C43.8,17.4 43,16.1 42.7,14.5 C42.6,14.3 42.6,13.9 42.6,13.6 Z" id="Shape" fill="#FFFFFF"></path>
                    <path d="M8.2,11.1 C8.2,10.5 8.2,9.9 8.2,9.3 C8.2,9 8.3,8.9 8.6,8.9 C9.6,8.9 10.6,8.9 11.7,8.9 C12.9,9 13.7,9.7 14,10.8 C14.3,11.9 14.2,13 13.7,14.1 C13.4,14.7 12.8,15.1 12.2,15.1 C11.1,15.2 10.1,15.2 9,15.1 C8.6,15.1 8.5,14.7 8.5,14.4 C8.4,13.3 8.3,12.2 8.2,11.1 C8.2,11.1 8.2,11.1 8.2,11.1 Z" id="Shape" fill="#FFFFFF"></path>
                </g>
            </g>
        </g>
    </g>
</svg>