<?xml version="1.0" encoding="UTF-8"?>
<svg width="140px" height="46px" viewBox="0 0 140 46" version="1.1" xmlns="http://www.w3.org/2000/svg" xmlns:xlink="http://www.w3.org/1999/xlink">
    <!-- Generator: Sketch 49.3 (51167) - http://www.bohemiancoding.com/sketch -->
    <title>Pzaiek_1_</title>
    <desc>Created with Sketch.</desc>
    <defs></defs>
    <g id="Page-1" stroke="none" stroke-width="1" fill="none" fill-rule="evenodd">
        <g id="plork-logos" transform="translate(-832.000000, -194.000000)" fill-rule="nonzero">
            <g id="Pzaiek_1_" transform="translate(832.000000, 194.000000)">
                <g id="Group">
                    <path d="M0.8,45.7 C0.8,30.7 0.8,15.7 0.8,0.7 C47,0.7 93.1,0.7 139.3,0.7 C139.3,15.7 139.3,30.7 139.3,45.7 C93.1,45.7 46.9,45.7 0.8,45.7 Z M61.7,4.2 C59.8,4.1 58,4.5 56.3,5.2 C54.9,5.7 53.7,6.5 52.8,7.6 C51.5,9.1 50.5,10.8 50.1,12.7 C49.8,14.2 49.9,15.7 50.7,17.1 C51.7,18.8 52.9,20.4 54.3,21.8 C55.6,23.1 56.8,24.5 58.2,25.6 C61.4,28.2 64.9,30.3 68.3,32.5 C71.7,34.6 75.1,36.7 78.5,38.8 C80.8,40.2 83.2,41.6 86,41.8 C87.7,41.9 89.4,42 91,41.4 C92.6,40.8 93.6,39.6 93.3,38.3 C93.1,37.5 92.8,36.6 92.3,35.9 C90.6,33.4 88.2,31.5 86,29.5 C84.2,27.9 82.6,26.2 80.9,24.5 C80,23.6 79.4,22.6 78.6,21.6 C77.6,20.3 76.5,19.1 75.6,17.8 C74.5,16.3 74,14.5 73.5,12.7 C72.6,10 71.3,7.7 68.9,6.2 C66.8,4.8 64.3,4.1 61.7,4.2 Z M103.7,21.8 C103.6,21.8 103.6,21.9 103.5,21.9 C103.4,21.8 103.3,21.7 103.2,21.6 C102.6,20.8 101.9,20.1 101.3,19.3 C99.5,17.2 98.6,14.7 98.6,11.9 C98.6,9.7 98.6,7.5 98.6,5.3 C98.6,5 98.6,4.7 98.2,4.7 C96.8,4.7 95.3,4.7 93.9,4.7 C93.5,4.7 93.4,4.9 93.4,5.3 C93.4,7.6 93.4,9.9 93.4,12.2 C93.4,14.4 93.9,16.4 95.3,18.2 C96.7,20 98.3,21.8 99.7,23.6 C101.2,25.5 103,27 104.9,28.5 C108.3,31.2 111.7,33.7 115,36.5 C116.3,37.6 117.4,38.9 118.3,40.4 C118.9,41.3 119.4,41.7 120.4,41.6 C121.6,41.5 122.8,41.6 124.1,41.6 C124.1,41.4 124.1,41.4 124.1,41.3 C123.6,40.5 123.1,39.6 122.5,38.8 C120.8,36.7 118.6,35 116.5,33.3 C113.6,31 110.7,28.8 107.8,26.5 C107.4,26.2 107.1,25.8 106.8,25.5 C106.9,25.4 106.9,25.4 107,25.3 C107.3,25.5 107.6,25.7 107.9,25.9 C110.3,27.5 112.6,29 115,30.6 C118.1,32.6 121.1,34.6 124.2,36.6 C126.1,37.9 127.9,39.4 129.4,41.1 C129.8,41.5 130.1,41.7 130.7,41.7 C132.3,41.7 133.9,41.7 135.4,41.7 C135.5,41.7 135.7,41.6 135.9,41.6 C135.8,41.4 135.8,41.3 135.7,41.2 C134.4,40.1 133.1,38.9 131.7,37.9 C129.7,36.4 127.6,35 125.5,33.6 C120.9,30.7 116.2,28.1 111.8,24.8 C111.2,24.3 110.5,23.8 110.1,23.2 C109.5,22.3 109.2,21.2 108.8,20.2 C108.3,18.9 107.9,17.5 108.4,16.2 C108.8,15.1 109.3,14.1 109.8,13.1 C109.9,13 109.9,12.8 109.9,12.7 C109.8,12.7 109.7,12.6 109.5,12.6 C107.9,12.6 106.3,12.6 104.7,12.6 C104.3,12.6 104.1,12.7 103.9,13.1 C103.6,13.9 103.1,14.6 102.8,15.4 C102.6,16.1 102.4,16.9 102.6,17.6 C102.9,18.9 103.4,20.1 103.8,21.3 C103.6,21.3 103.7,21.6 103.7,21.8 Z M13.9,4.7 C13.9,4.7 13.9,4.7 13.9,4.7 C12.3,4.7 10.8,4.7 9.2,4.7 C8.7,4.7 8.5,4.9 8.5,5.4 C8.5,7.4 8.5,9.4 8.5,11.5 C8.5,14.2 9.2,16.8 10.9,18.9 C11.9,20.1 12.9,21.2 13.8,22.4 C15.7,24.8 18,27 20.5,28.8 C23.1,30.7 25.7,32.5 28.3,34.5 C30.4,36.1 32.5,37.9 33.8,40.3 C33.9,40.4 34.1,40.6 34.3,40.6 C35.8,40.6 37.3,40.6 38.7,40.6 C39.1,40.6 39.3,40.5 39,40.1 C38.3,39.2 37.6,38.2 36.8,37.4 C34.4,34.9 31.4,32.9 28.6,30.9 C25.8,28.9 23,26.8 20.7,24.3 C20.6,24.2 20.5,23.9 20.4,23.8 C20.6,23.7 20.8,23.6 21,23.6 C22.4,23.6 23.9,23.7 25.3,23.5 C27.3,23.3 28.1,22.4 27.9,20.5 C27.8,20 27.8,19.6 27.7,19.1 C27.2,16.7 27.2,14.2 27,11.7 C26.8,9.3 25.8,7.4 23.7,6.2 C21.9,5.2 19.8,4.8 17.8,4.8 C16.5,4.6 15.2,4.7 13.9,4.7 Z M36,4.7 C34.2,4.7 32.6,4.7 30.9,4.7 C30.6,4.7 30.5,4.9 30.5,5.2 C30.5,7.7 30.5,10.2 30.6,12.8 C30.7,15.2 31.6,17.3 33.1,19.2 C34.2,20.5 35.3,21.8 36.4,23.1 C37.3,24.2 38.3,25.3 39.3,26.1 C41.6,28 44,29.7 46.4,31.5 C48.1,32.8 49.8,34.1 51.5,35.4 C53.2,36.7 54.6,38.2 55.6,40.1 C55.9,40.6 56.2,40.8 56.7,40.8 C60.9,40.8 65.2,40.9 69.4,41 C70.4,41 71.4,41 72.5,41 C72.4,40.8 72.4,40.6 72.3,40.5 C71.7,39.7 71.3,38.8 70.6,38.1 C69.6,37 68.4,36 67.2,35 C67,34.8 66.6,34.6 66.3,34.6 C63,34.6 59.8,34.6 56.5,34.5 C56.1,34.5 55.7,34.4 55.3,34.2 C54.8,33.9 54.4,33.5 53.9,33.2 C52.4,32.1 50.9,31.1 49.5,30 C47.7,28.6 45.8,27.3 44.2,25.6 C42.1,23.5 40.2,21.2 38.3,18.9 C37.1,17.4 36.2,15.7 36.1,13.8 C35.9,11.1 35.9,8.4 35.9,5.7 C36,5.4 36,5.1 36,4.7 Z M83.9,15.7 C83.8,15.5 83.7,15.4 83.7,15.3 C83.5,14.6 83.3,14 83.2,13.3 C83.1,12.8 82.9,12.6 82.4,12.6 C81.3,12.6 80.1,12.6 79,12.6 C78.5,12.6 78.3,12.8 78.4,13.3 C78.7,14.9 79.1,16.5 80.1,17.8 C81.2,19.2 82.3,20.6 83.4,22 C85.6,24.9 88.3,27.3 91.2,29.4 C94.5,31.8 97.8,34.2 100.8,37 C101.9,38.1 102.9,39.3 103.7,40.7 C103.9,41.1 104,41.4 104.5,41.4 C105.9,41.4 107.2,41.4 108.6,41.4 C109.1,41.4 109.1,41.1 109,40.7 C108.8,40.3 108.6,40 108.4,39.7 C107.2,38 105.7,36.5 104.1,35.2 C102.4,33.8 100.5,32.4 98.8,31 C96.7,29.4 94.6,27.8 92.6,26.1 C90.9,24.8 89.8,23 88.6,21.2 C88.3,20.7 88.1,20.1 88,19.6 C87.9,18.9 88.1,18.5 88.8,18.3 C89.3,18.2 89.9,18.2 90.5,18.1 C90.7,18.1 90.9,18.1 91,17.9 C91.1,17.8 90.9,17.5 90.9,17.4 C90.6,16.6 90.2,15.8 90,15 C89.8,14.2 89.7,13.4 89.6,12.7 C89.6,12.4 89.4,12.3 89.1,12.3 C88.5,12.4 88,12.4 87.4,12.5 C85.9,12.9 84.7,13.6 84.3,15.3 C84.1,15.4 84.1,15.5 83.9,15.7 Z" id="Shape" fill="#FFFFFF"></path>
                    <path d="M61.7,4.2 C64.3,4.1 66.8,4.7 69,6.1 C71.4,7.6 72.7,10 73.6,12.6 C74.2,14.3 74.7,16.1 75.7,17.7 C76.7,19 77.7,20.3 78.7,21.5 C79.5,22.5 80.1,23.5 81,24.4 C82.6,26.1 84.3,27.8 86.1,29.4 C88.3,31.4 90.7,33.3 92.4,35.8 C92.9,36.5 93.2,37.3 93.4,38.2 C93.7,39.6 92.7,40.8 91.1,41.3 C89.5,41.9 87.8,41.8 86.1,41.7 C83.3,41.5 80.9,40.2 78.6,38.7 C75.2,36.6 71.8,34.5 68.4,32.4 C64.9,30.3 61.4,28.1 58.3,25.5 C56.9,24.4 55.7,22.9 54.4,21.7 C53,20.3 51.8,18.7 50.8,17 C50,15.6 49.9,14.1 50.2,12.6 C50.5,10.6 51.5,8.9 52.9,7.5 C53.9,6.4 55.1,5.6 56.4,5.1 C58,4.5 59.9,4.2 61.7,4.2 Z M55.8,14.3 C55.7,15.9 56.5,17.4 57.6,18.8 C59.1,20.6 60.6,22.3 62.2,24 C64.3,26.2 66.8,27.9 69.3,29.5 C72.1,31.2 75.1,32.7 78.1,34.3 C79.6,35.1 81.2,35.7 83,35.6 C84.4,35.5 84.8,34.8 84.2,33.6 C83.4,32.2 82.2,31.1 81.1,30.1 C79.4,28.5 77.6,27 76,25.3 C74.5,23.8 73.3,22 71.9,20.4 C70.1,18.3 68.7,16 68,13.3 C67.7,12.3 67.2,11.4 66.7,10.5 C65.7,9.1 64.3,8.3 62.5,8.2 C61.1,8.1 59.8,8.2 58.6,9 C56.7,10.1 55.8,11.8 55.8,14.3 Z" id="Shape" fill="#000000"></path>
                    <path d="M103.7,21.8 C103.6,21.6 103.6,21.3 103.5,21.1 C103.1,19.9 102.6,18.7 102.3,17.4 C102.2,16.7 102.3,15.9 102.5,15.2 C102.7,14.4 103.2,13.7 103.6,12.9 C103.8,12.5 104,12.4 104.4,12.4 C106,12.4 107.6,12.4 109.2,12.4 C109.3,12.4 109.5,12.5 109.6,12.5 C109.6,12.6 109.5,12.8 109.5,12.9 C109,13.9 108.4,14.9 108.1,16 C107.6,17.4 108.1,18.7 108.5,20 C108.9,21 109.2,22.1 109.8,23 C110.2,23.7 110.9,24.2 111.5,24.6 C115.8,27.9 120.6,30.5 125.2,33.4 C127.3,34.7 129.4,36.2 131.4,37.7 C132.8,38.7 134.1,39.9 135.4,41 C135.5,41.1 135.5,41.2 135.6,41.4 C135.4,41.5 135.3,41.5 135.1,41.5 C133.5,41.5 131.9,41.5 130.4,41.5 C129.8,41.5 129.5,41.3 129.1,40.9 C127.6,39.2 125.8,37.7 123.9,36.4 C120.9,34.4 117.8,32.4 114.7,30.4 C112.3,28.9 110,27.3 107.6,25.7 C107.3,25.5 107,25.3 106.7,25.1 C106.6,25.2 106.6,25.2 106.5,25.3 C106.8,25.6 107.1,26 107.5,26.3 C110.4,28.6 113.4,30.8 116.2,33.1 C118.3,34.8 120.5,36.5 122.2,38.6 C122.8,39.4 123.3,40.2 123.8,41.1 C123.8,41.2 123.8,41.2 123.8,41.4 C122.6,41.4 121.3,41.3 120.1,41.4 C119.1,41.5 118.5,41.1 118,40.2 C117.1,38.8 116,37.4 114.7,36.3 C111.4,33.5 108,31 104.6,28.3 C102.7,26.8 100.9,25.3 99.4,23.4 C97.9,21.6 96.4,19.8 95,18 C93.7,16.3 93.2,14.2 93.1,12 C93.1,9.7 93.1,7.4 93.1,5.1 C93.1,4.7 93.3,4.5 93.6,4.5 C95,4.5 96.5,4.5 97.9,4.5 C98.3,4.5 98.3,4.8 98.3,5.1 C98.3,7.3 98.3,9.5 98.3,11.7 C98.3,14.5 99.2,16.9 101,19.1 C101.7,19.8 102.3,20.6 102.9,21.4 C103,21.5 103.1,21.6 103.2,21.7 C103.6,21.9 103.7,21.8 103.7,21.8 Z" id="Shape" fill="#000000"></path>
                    <path d="M13.9,4.7 C15.2,4.7 16.5,4.7 17.9,4.7 C20,4.8 22,5.1 23.8,6.1 C25.9,7.3 26.9,9.2 27.1,11.6 C27.3,14.1 27.3,16.6 27.8,19 C27.9,19.4 28,19.9 28,20.4 C28.2,22.3 27.4,23.1 25.4,23.4 C24,23.6 22.6,23.4 21.1,23.5 C20.9,23.5 20.7,23.6 20.5,23.7 C20.6,23.9 20.7,24.1 20.8,24.2 C23.1,26.8 25.9,28.8 28.7,30.8 C31.6,32.8 34.5,34.8 36.9,37.3 C37.7,38.1 38.4,39.1 39.1,40 C39.4,40.4 39.2,40.5 38.8,40.5 C37.3,40.5 35.8,40.5 34.4,40.5 C34.2,40.5 34,40.4 33.9,40.2 C32.6,37.8 30.5,36 28.4,34.4 C25.8,32.5 23.2,30.6 20.6,28.7 C18.1,26.9 15.9,24.7 13.9,22.3 C13,21.1 11.9,20 11,18.8 C9.3,16.6 8.6,14.1 8.6,11.4 C8.6,9.4 8.6,7.4 8.6,5.3 C8.6,4.8 8.8,4.6 9.3,4.6 C10.8,4.7 12.3,4.7 13.9,4.7 C13.9,4.7 13.9,4.7 13.9,4.7 Z M16.3,8.8 C16.3,8.8 16.3,8.9 16.3,8.9 C15.7,8.9 15.1,8.9 14.5,8.9 C14.1,8.9 14,9 14,9.4 C14,9.9 14,10.4 14,11 C14,12.8 14.2,14.6 14.9,16.3 C15,16.5 15.2,16.7 15.4,16.7 C16.6,16.7 17.9,16.8 19.1,16.7 C20.5,16.6 21.1,15.9 21.2,14.5 C21.3,13.5 21.3,12.5 21.1,11.5 C20.9,10.3 20.3,9.4 19,9.2 C18.1,9 17.2,8.9 16.3,8.8 Z" id="Shape" fill="#000000"></path>
                    <path d="M36,4.7 C36,5.1 36,5.4 36,5.7 C36.1,8.4 36.1,11.1 36.2,13.8 C36.3,15.7 37.1,17.4 38.4,18.9 C40.3,21.2 42.2,23.5 44.3,25.6 C45.9,27.2 47.8,28.5 49.6,30 C51,31.1 52.5,32.1 54,33.2 C54.5,33.5 54.9,33.9 55.4,34.2 C55.8,34.4 56.2,34.5 56.6,34.5 C59.9,34.5 63.1,34.5 66.4,34.6 C66.7,34.6 67.1,34.8 67.3,35 C68.5,36 69.6,37 70.7,38.1 C71.4,38.8 71.9,39.7 72.4,40.5 C72.5,40.6 72.5,40.8 72.6,41 C71.5,41 70.5,41 69.5,41 C65.3,40.9 61,40.9 56.8,40.8 C56.2,40.8 55.9,40.6 55.7,40.1 C54.7,38.2 53.2,36.7 51.6,35.4 C49.9,34.1 48.2,32.8 46.5,31.5 C44.1,29.7 41.7,27.9 39.4,26.1 C38.3,25.2 37.4,24.1 36.5,23.1 C35.4,21.8 34.2,20.5 33.2,19.2 C31.7,17.4 30.8,15.2 30.7,12.8 C30.6,10.3 30.6,7.8 30.6,5.2 C30.6,4.9 30.7,4.7 31,4.7 C32.6,4.7 34.3,4.7 36,4.7 Z" id="Shape" fill="#000000"></path>
                    <path d="M83.9,15.7 C84,15.5 84.1,15.4 84.1,15.3 C84.5,13.7 85.7,12.9 87.2,12.5 C87.7,12.4 88.3,12.4 88.9,12.3 C89.2,12.3 89.4,12.4 89.4,12.7 C89.5,13.5 89.6,14.3 89.8,15 C90,15.8 90.4,16.6 90.7,17.4 C90.8,17.6 90.9,17.8 90.8,17.9 C90.7,18 90.5,18 90.3,18.1 C89.7,18.2 89.1,18.1 88.6,18.3 C88,18.5 87.7,18.9 87.8,19.6 C87.9,20.2 88.1,20.8 88.4,21.2 C89.6,23 90.7,24.8 92.4,26.1 C94.4,27.8 96.5,29.4 98.6,31 C100.4,32.4 102.2,33.7 103.9,35.2 C105.5,36.5 107,38 108.2,39.7 C108.4,40 108.6,40.4 108.8,40.7 C109,41.1 109,41.4 108.4,41.4 C107,41.4 105.7,41.4 104.3,41.4 C103.8,41.4 103.7,41.1 103.5,40.7 C102.8,39.3 101.8,38.1 100.6,37 C97.6,34.2 94.3,31.8 91,29.4 C88.1,27.3 85.4,24.9 83.2,22 C82.1,20.6 80.9,19.3 79.9,17.8 C78.9,16.5 78.5,14.9 78.2,13.3 C78.1,12.8 78.3,12.6 78.8,12.6 C79.9,12.6 81.1,12.6 82.2,12.6 C82.7,12.6 82.9,12.8 83,13.3 C83.1,14 83.3,14.7 83.5,15.3 C83.7,15.4 83.8,15.5 83.9,15.7 Z" id="Shape" fill="#000000"></path>
                    <path d="M55.8,14.3 C55.8,11.8 56.7,10.1 58.5,9 C59.7,8.2 61.1,8.2 62.4,8.2 C64.2,8.3 65.6,9.1 66.6,10.5 C67.2,11.3 67.7,12.3 67.9,13.3 C68.7,16 70.1,18.3 71.8,20.4 C73.2,22 74.4,23.8 75.9,25.3 C77.5,27 79.3,28.5 81,30.1 C82.1,31.2 83.3,32.2 84.1,33.6 C84.7,34.8 84.3,35.5 82.9,35.6 C81.1,35.7 79.6,35.1 78,34.3 C75,32.8 72.1,31.2 69.2,29.5 C66.6,27.9 64.2,26.2 62.1,24 C60.5,22.3 59,20.6 57.5,18.8 C56.5,17.4 55.7,15.9 55.8,14.3 Z" id="Shape" fill="#FFFFFF"></path>
                    <path d="M16.3,8.8 C17.2,8.9 18.1,9 18.9,9.2 C20.2,9.4 20.8,10.4 21,11.5 C21.2,12.5 21.2,13.5 21.1,14.5 C21,15.9 20.4,16.5 19,16.7 C17.8,16.8 16.5,16.7 15.3,16.7 C15.1,16.7 14.9,16.4 14.8,16.3 C14.1,14.6 13.9,12.8 13.9,11 C13.9,10.5 13.9,10 13.9,9.4 C13.9,9 14,8.9 14.4,8.9 C15,8.9 15.6,8.9 16.2,8.9 C16.3,8.9 16.3,8.8 16.3,8.8 Z" id="Shape" fill="#FFFFFF"></path>
                </g>
            </g>
        </g>
    </g>
</svg>