<?xml version="1.0" encoding="UTF-8"?>
<svg width="128px" height="42px" viewBox="0 0 128 42" version="1.1" xmlns="http://www.w3.org/2000/svg" xmlns:xlink="http://www.w3.org/1999/xlink">
    <!-- Generator: Sketch 49.3 (51167) - http://www.bohemiancoding.com/sketch -->
    <title>eHvAcc_1_</title>
    <desc>Created with Sketch.</desc>
    <defs></defs>
    <g id="Page-1" stroke="none" stroke-width="1" fill="none" fill-rule="evenodd">
        <g id="plork-logos" transform="translate(-685.000000, -157.000000)" fill-rule="nonzero">
            <g id="eHvAcc_1_" transform="translate(685.000000, 157.000000)">
                <g id="Group">
                    <path d="M0.8,41.6 C0.8,27.9 0.8,14.1 0.8,0.4 C42.9,0.4 85.1,0.4 127.2,0.4 C127.2,14.1 127.2,27.9 127.2,41.6 C85.1,41.6 42.9,41.6 0.8,41.6 Z M57.9,4 C57,4.1 56.1,4.2 55.2,4.4 C53.2,4.9 52.2,6.3 53,8.4 C53.4,9.4 53.9,10.3 54.5,11.2 C55.1,12.1 55.8,12.9 56.5,13.7 C57.3,14.7 57.6,15.9 57.4,17.2 C56.9,19.5 56.4,21.7 55.8,24 C55.4,25.9 55.2,27.8 55.6,29.8 C55.9,31.2 56.2,32.5 56.9,33.8 C58,35.8 59.6,37 61.7,37.4 C65.1,38.2 68.3,37.5 71.3,35.9 C72.7,35.1 74.1,34.2 75.2,32.9 C76.4,31.6 77.4,30.2 78.2,28.6 C79.2,26.4 80.2,24.2 80.7,21.8 C81.2,19.5 80.7,17.3 79.4,15.3 C78.5,13.9 77.2,12.9 75.8,11.9 C72.6,9.5 69.3,7.4 65.6,5.8 C63,4.8 60.5,4.1 57.9,4 Z M5.6,4 C6.1,4.6 6.6,5.2 7.1,5.7 C9.6,8.2 12,10.7 14.5,13.2 C15.5,14.1 16.3,15.2 16.5,16.5 C16.6,17.5 16.6,18.5 16.6,19.6 C16.6,20.8 16.4,22 16,23.1 C15.6,24.2 15.3,25.4 15,26.5 C14.6,28.2 14.3,29.8 13.9,31.5 C13.5,33.1 13,34.7 12.6,36.3 C12.5,36.6 12.4,36.9 12.8,36.9 C14.3,36.9 15.8,36.9 17.3,36.9 C17.5,36.9 17.8,36.6 17.9,36.4 C18.4,34.9 18.8,33.4 19.2,31.9 C19.6,30.1 20,28.3 20.4,26.5 C20.5,25.9 20.8,25.7 21.4,25.7 C22.9,25.7 24.5,25.8 26,25.7 C28.3,25.4 30.4,24.4 32.2,22.9 C33.4,21.9 34.3,20.6 34.6,19 C35,16.9 34.5,15.1 32.9,13.6 C30.6,11.4 28.2,9.3 25.4,7.6 C22.6,5.8 19.5,4.5 16.2,4.3 C12.9,4 9.6,4.1 6.3,4 C6.1,3.9 5.9,4 5.6,4 Z M103.2,26.7 C103.2,26.7 103.3,26.7 103.3,26.7 C103.4,26.8 103.4,27 103.5,27.1 C103.8,28 104,28.8 104.2,29.7 C104.7,32 105.2,34.3 105.7,36.6 C105.8,37 105.9,37.1 106.3,37.1 C107.9,37.1 109.4,37.1 111,37.1 C111.8,37.1 111.9,37 111.7,36.2 C111.3,34.7 110.9,33.2 110.5,31.8 C109.9,30 109.2,28.2 108.6,26.4 C108.4,25.9 108.5,25.6 108.8,25.3 C109.5,24.6 110.2,23.9 110.9,23.2 C112.6,21.6 114.1,19.8 115.5,18 C115.6,17.9 115.6,17.8 115.6,17.6 C115.6,17.6 115.4,17.5 115.4,17.5 C113.8,17.5 112.1,17.4 110.5,17.5 C110.3,17.5 110,17.7 109.9,17.8 C108.6,19.8 107.2,21.7 105.5,23.4 C104.9,23.9 104.4,24.5 103.8,25 C103.8,24.4 103.9,23.9 104.1,23.4 C104.6,22 105,20.6 104.9,19.1 C104.9,18.6 104.9,18.1 104.9,17.6 C104.9,15.8 104.1,14.4 102.9,13.2 C100.7,11 98.4,8.7 96.2,6.5 C95.5,5.8 94.8,5.2 93.7,5.3 C92.8,5.4 91.9,5.3 91,5.3 C90.7,5.3 90.5,5.4 90.2,5.4 C90.3,5.6 90.4,5.8 90.6,6 C92.8,8.3 95.1,10.5 97.3,12.8 C98.4,13.9 99.5,15.1 99.6,16.7 C99.7,18.1 99.6,19.4 99.6,20.8 C99.6,21.4 99.4,21.9 99.2,22.5 C98.9,23.6 98.5,24.7 98.2,25.9 C97.6,28.2 97.2,30.6 96.6,32.9 C96.3,34 96,35.2 95.6,36.3 C95.4,36.9 95.5,37 96.1,37 C97.2,37 98.4,37 99.5,37 C100.7,37 100.6,37 100.9,35.9 C101.6,33.3 102.2,30.7 102.9,28.1 C103,27.7 103.1,27.2 103.2,26.7 Z M27.5,4.3 C27.6,4.5 27.7,4.6 27.7,4.7 C30.3,7.4 32.9,10 35.5,12.8 C36.2,13.6 37.1,14.4 37.5,15.3 C38.5,17.5 38.2,19.9 37.7,22.2 C37.3,24 36.7,25.7 36.3,27.5 C35.6,30.4 34.9,33.4 34.1,36.3 C33.9,37 33.9,37 34.6,37 C39.6,37 44.6,37 49.6,37.1 C50.1,37.1 50.2,36.9 50.3,36.5 C50.7,35.3 51,34 51.4,32.8 C51.5,32.3 51.4,32.2 50.9,32.2 C47.8,32.2 44.7,32.2 41.5,32.2 C40.6,32.2 40.6,32.1 40.8,31.3 C41.4,28.7 41.9,26.1 42.7,23.5 C43.3,21.5 43.4,19.4 43.4,17.3 C43.4,16.2 43,15.2 42.3,14.4 C40.8,12.8 39.3,11.4 37.8,9.8 C36.2,8.2 34.7,6.5 33.1,4.9 C32.9,4.7 32.6,4.5 32.4,4.5 C30.9,4.4 29.4,4.4 27.9,4.3 C27.9,4.2 27.7,4.3 27.5,4.3 Z M89.9,20.4 C89.8,20.4 89.7,20.4 89.6,20.3 C89.6,19.6 89.6,18.9 89.6,18.3 C89.6,17.7 89.3,17.6 88.8,17.6 C87.7,17.6 86.6,17.6 85.6,17.6 C84.9,17.6 84.9,17.6 84.9,18.4 C84.9,19.8 85,21.2 84.6,22.6 C84,24.6 83.6,26.6 83.1,28.6 C82.8,30 82.5,31.4 82.1,32.7 C81.8,34 81.4,35.3 81,36.5 C80.9,36.8 81,37 81.4,37 C82.8,37 84.1,37 85.5,37 C85.8,37 86.1,36.9 86.1,36.5 C86.2,36.1 86.3,35.6 86.5,35.2 C87.1,32.8 87.7,30.5 88.3,28.1 C88.6,27 88.9,25.9 89.4,24.8 C89.8,23.8 90.6,23.2 91.6,22.7 C92.6,22.2 93.7,22.2 94.8,22.2 C95.3,22.2 95.6,22 95.6,21.5 C95.7,20.2 95.8,19 95.9,17.7 C95.9,17.6 95.7,17.3 95.5,17.3 C93.5,17 91.3,18.1 90.3,19.9 C90.2,20.1 90.1,20.2 89.9,20.4 Z" id="Shape" fill="#FFFFFF"></path>
                    <path d="M57.9,4 C60.6,4.1 63.1,4.8 65.5,5.8 C69.2,7.3 72.6,9.4 75.7,11.9 C77,12.9 78.3,13.9 79.3,15.3 C80.6,17.3 81.1,19.5 80.6,21.8 C80.1,24.2 79.2,26.4 78.1,28.6 C77.3,30.2 76.3,31.6 75.1,32.9 C74,34.1 72.7,35.1 71.2,35.9 C68.2,37.6 65,38.2 61.6,37.4 C59.5,36.9 57.8,35.7 56.8,33.8 C56.1,32.5 55.8,31.2 55.5,29.8 C55.1,27.9 55.3,25.9 55.7,24 C56.2,21.7 56.8,19.5 57.3,17.2 C57.6,15.9 57.2,14.7 56.4,13.7 C55.7,12.8 55,12.1 54.4,11.2 C53.8,10.3 53.2,9.4 52.9,8.4 C52.1,6.3 53.1,4.9 55.1,4.4 C56,4.2 56.9,4.1 57.9,4 Z M65.5,33 C68.1,32.9 69.8,32.1 71.2,30.4 C72.3,29 73,27.5 73.6,25.8 C74,24.8 74.4,23.8 74.7,22.8 C75.3,21 75.1,19.1 74.5,17.3 C74.1,15.9 73.3,14.8 72.2,13.9 C70.7,12.6 69,11.4 67.2,10.5 C65.6,9.7 63.9,9 62,9.2 C60.9,9.3 60.3,10.1 60.8,11.1 C61.2,11.9 61.6,12.6 62.1,13.3 C62.7,14.2 63.3,15.2 63.1,16.4 C63,17.2 62.8,18 62.6,18.8 C62.2,20.4 61.9,22 61.5,23.5 C60.9,25.8 60.7,28 61.5,30.3 C61.7,30.8 62,31.3 62.4,31.7 C63.4,32.8 64.6,33.1 65.5,33 Z" id="Shape" fill="#000000"></path>
                    <path d="M5.6,4 C5.9,4 6.1,3.9 6.3,3.9 C9.6,4 12.9,4 16.2,4.2 C19.5,4.5 22.6,5.8 25.4,7.5 C28.1,9.2 30.5,11.3 32.9,13.5 C34.5,15 35,16.8 34.6,18.9 C34.3,20.5 33.4,21.8 32.2,22.8 C30.4,24.3 28.3,25.3 26,25.6 C24.5,25.8 22.9,25.7 21.4,25.6 C20.7,25.6 20.5,25.8 20.4,26.4 C20.1,28.2 19.7,30 19.2,31.8 C18.8,33.3 18.4,34.8 17.9,36.3 C17.8,36.5 17.5,36.8 17.3,36.8 C15.8,36.8 14.3,36.8 12.8,36.8 C12.4,36.8 12.5,36.5 12.6,36.2 C13.1,34.6 13.5,33 13.9,31.4 C14.3,29.7 14.6,28.1 15,26.4 C15.3,25.2 15.6,24.1 16,23 C16.4,21.9 16.6,20.7 16.6,19.5 C16.6,18.5 16.6,17.4 16.5,16.4 C16.3,15 15.5,14 14.5,13.1 C12,10.6 9.5,8.1 7.1,5.6 C6.6,5.3 6.2,4.7 5.6,4 Z M22,18.5 C22,18.5 21.9,18.5 21.9,18.5 C21.9,19 21.9,19.5 21.9,20 C21.8,20.6 22.1,20.8 22.6,20.8 C23.7,20.8 24.8,20.9 25.9,20.8 C27.2,20.7 28.3,20.2 28.7,18.8 C29.3,17 28.9,15.5 27.6,14.2 C26.4,13.1 25.2,12.1 23.9,11.1 C21.8,9.5 19.3,9.2 16.8,9.4 C16.7,9.4 16.5,9.5 16.4,9.6 C16.4,9.6 16.5,9.8 16.6,9.9 C17.8,11 18.9,12.2 20.1,13.3 C20.9,14 21.5,14.8 21.7,15.9 C21.8,16.8 21.9,17.7 22,18.5 Z" id="Shape" fill="#000000"></path>
                    <path d="M103.2,26.7 C103.1,27.2 103,27.7 102.8,28.2 C102.2,30.8 101.6,33.4 100.8,36 C100.5,37.1 100.7,37.1 99.4,37.1 C98.3,37.1 97.1,37.1 96,37.1 C95.4,37.1 95.3,37 95.5,36.4 C95.8,35.3 96.2,34.1 96.5,33 C97.1,30.7 97.5,28.3 98.1,26 C98.4,24.9 98.8,23.7 99.1,22.6 C99.3,22 99.5,21.5 99.5,20.9 C99.6,19.5 99.6,18.1 99.5,16.8 C99.4,15.1 98.3,14 97.2,12.9 C95,10.7 92.7,8.4 90.5,6.1 C90.3,5.9 90.2,5.7 90.1,5.5 C90.4,5.5 90.6,5.4 90.9,5.4 C91.8,5.4 92.7,5.5 93.6,5.4 C94.7,5.3 95.4,5.8 96.1,6.6 C98.3,8.9 100.6,11.1 102.8,13.3 C104,14.5 104.8,15.9 104.8,17.7 C104.8,18.2 104.8,18.7 104.8,19.2 C104.8,20.7 104.5,22.1 104,23.5 C103.8,24 103.7,24.6 103.7,25.1 C104.3,24.6 104.9,24 105.4,23.5 C107.1,21.8 108.5,19.9 109.8,17.9 C109.9,17.7 110.2,17.6 110.4,17.6 C112,17.6 113.7,17.6 115.3,17.6 C115.4,17.6 115.5,17.7 115.5,17.7 C115.5,17.8 115.5,18 115.4,18.1 C114,19.9 112.5,21.8 110.8,23.3 C110.1,24 109.4,24.7 108.7,25.4 C108.4,25.7 108.3,26.1 108.5,26.5 C109.2,28.3 109.8,30.1 110.4,31.9 C110.9,33.4 111.3,34.8 111.6,36.3 C111.8,37.1 111.7,37.2 110.9,37.2 C109.3,37.2 107.8,37.2 106.2,37.2 C105.8,37.2 105.7,37.1 105.6,36.7 C105.1,34.4 104.6,32.1 104.1,29.8 C103.9,28.9 103.6,28.1 103.4,27.2 C103.4,27.1 103.3,26.9 103.2,26.8 C103.3,26.7 103.3,26.7 103.2,26.7 Z" id="Shape" fill="#000000"></path>
                    <path d="M27.5,4.3 C27.7,4.3 27.9,4.2 28,4.2 C29.5,4.2 31,4.3 32.5,4.4 C32.7,4.4 33,4.6 33.2,4.8 C34.8,6.4 36.3,8.1 37.9,9.7 C39.4,11.2 40.9,12.7 42.4,14.3 C43.2,15.1 43.5,16.1 43.5,17.2 C43.5,19.3 43.5,21.3 42.8,23.4 C42,25.9 41.5,28.6 40.9,31.2 C40.7,32 40.8,32.1 41.6,32.1 C44.7,32.1 47.8,32.1 51,32.1 C51.5,32.1 51.6,32.3 51.5,32.7 C51.1,33.9 50.8,35.2 50.4,36.4 C50.3,36.8 50.1,37 49.7,37 C44.7,37 39.7,37 34.7,36.9 C34,36.9 34,36.8 34.2,36.2 C34.9,33.3 35.6,30.3 36.4,27.4 C36.8,25.6 37.5,23.9 37.8,22.1 C38.3,19.8 38.6,17.4 37.6,15.2 C37.2,14.3 36.3,13.5 35.6,12.7 C33,10 30.4,7.3 27.8,4.6 C27.7,4.6 27.6,4.5 27.5,4.3 Z" id="Shape" fill="#000000"></path>
                    <path d="M89.9,20.4 C90,20.3 90.1,20.1 90.2,20 C91.2,18.3 93.4,17.2 95.4,17.4 C95.6,17.4 95.8,17.7 95.8,17.8 C95.7,19.1 95.6,20.3 95.5,21.6 C95.5,22.1 95.2,22.3 94.7,22.3 C93.6,22.3 92.5,22.3 91.5,22.8 C90.5,23.3 89.7,23.9 89.3,24.9 C88.8,26 88.5,27.1 88.2,28.2 C87.6,30.6 87,32.9 86.4,35.3 C86.3,35.7 86.1,36.2 86,36.6 C85.9,37 85.7,37.1 85.4,37.1 C84,37.1 82.7,37.1 81.3,37.1 C81,37.1 80.9,36.9 80.9,36.6 C81.3,35.3 81.7,34.1 82,32.8 C82.4,31.4 82.6,30.1 83,28.7 C83.5,26.7 83.9,24.7 84.5,22.7 C84.9,21.3 84.9,19.9 84.8,18.5 C84.8,17.7 84.8,17.7 85.5,17.7 C86.6,17.7 87.7,17.7 88.7,17.7 C89.2,17.7 89.5,17.8 89.5,18.4 C89.5,19.1 89.5,19.8 89.5,20.4 C89.8,20.3 89.9,20.3 89.9,20.4 Z" id="Shape" fill="#000000"></path>
                    <path d="M65.5,33 C64.6,33.1 63.4,32.8 62.5,31.8 C62.1,31.4 61.8,30.9 61.6,30.4 C60.8,28.2 61,25.9 61.6,23.6 C62,22 62.3,20.4 62.7,18.9 C62.9,18.1 63,17.3 63.2,16.5 C63.4,15.3 62.9,14.3 62.2,13.4 C61.7,12.7 61.2,12 60.9,11.2 C60.4,10.2 61,9.4 62.1,9.3 C64,9.1 65.7,9.8 67.3,10.6 C69.1,11.5 70.8,12.7 72.3,14 C73.4,14.9 74.1,16 74.6,17.4 C75.2,19.2 75.3,21.1 74.8,22.9 C74.5,23.9 74.1,24.9 73.7,25.9 C73.1,27.5 72.4,29.1 71.3,30.5 C69.8,32.1 68.1,32.9 65.5,33 Z" id="Shape" fill="#FFFFFF"></path>
                    <path d="M22,18.5 C21.9,17.7 21.8,16.8 21.7,16 C21.5,14.9 20.8,14.1 20.1,13.4 C18.9,12.3 17.8,11.1 16.6,10 C16.5,9.9 16.4,9.7 16.4,9.7 C16.5,9.6 16.6,9.5 16.8,9.5 C19.4,9.3 21.8,9.6 23.9,11.2 C25.2,12.2 26.4,13.2 27.6,14.3 C28.9,15.6 29.3,17.1 28.7,18.9 C28.3,20.3 27.2,20.8 25.9,20.9 C24.8,21 23.7,20.9 22.6,20.9 C22.1,20.9 21.8,20.7 21.9,20.1 C21.9,19.6 21.9,19.1 21.9,18.6 C21.9,18.5 22,18.5 22,18.5 Z" id="Shape" fill="#FFFFFF"></path>
                </g>
            </g>
        </g>
    </g>
</svg>