<?xml version="1.0" encoding="UTF-8"?>
<svg width="132px" height="49px" viewBox="0 0 132 49" version="1.1" xmlns="http://www.w3.org/2000/svg" xmlns:xlink="http://www.w3.org/1999/xlink">
    <!-- Generator: Sketch 49.3 (51167) - http://www.bohemiancoding.com/sketch -->
    <title>Jr19kh_1_</title>
    <desc>Created with Sketch.</desc>
    <defs></defs>
    <g id="Page-1" stroke="none" stroke-width="1" fill="none" fill-rule="evenodd">
        <g id="plork-logos" transform="translate(-134.000000, -98.000000)" fill-rule="nonzero">
            <g id="Jr19kh_1_" transform="translate(134.000000, 98.000000)">
                <g id="Group">
                    <path d="M0.6,48.4 C0.6,32.5 0.6,16.6 0.6,0.7 C44.1,0.7 87.7,0.7 131.2,0.7 C131.2,16.6 131.2,32.5 131.2,48.4 C87.7,48.4 44.1,48.4 0.6,48.4 Z M63.8,39.1 C66.2,39.1 68.7,38.6 71,37.6 C72.8,36.8 74.4,35.8 75.8,34.4 C77.2,33 78.6,31.5 79.8,29.9 C80.7,28.8 81.4,27.6 82,26.3 C82.6,24.9 83,23.3 83.5,21.8 C83.9,20.4 84,18.9 83.5,17.5 C82.7,15.1 81.1,13.2 79.1,11.6 C77.5,10.3 75.8,9.3 74,8.7 C72.1,8.1 70.3,7.4 68.3,7.4 C66.5,7.4 64.7,8 63.6,9.3 C62,11.3 60.6,13.4 59.5,15.6 C57.8,19.2 56.3,22.8 55.4,26.7 C54.9,28.9 54.2,31 54.7,33.3 C55.1,35.2 55.9,36.7 57.5,37.7 C59.3,38.8 61.5,39 63.8,39.1 Z M6.1,38 C6.3,38.1 6.4,38.2 6.4,38.2 C8.1,38.2 9.7,38.2 11.4,38.2 C11.7,38.2 12,37.9 12.1,37.7 C12.5,36.8 12.8,35.9 13.2,35 C14.3,32.5 15.3,30 16.4,27.5 C16.6,27.1 16.9,26.9 17.4,26.9 C18.8,26.9 20.2,27 21.6,26.9 C24,26.8 26.1,26.2 28.2,25 C29.7,24.2 30.7,23 31.8,21.7 C33.4,19.8 33.8,17.7 33.1,15.4 C32.6,13.8 31.6,12.5 30.3,11.5 C27.9,9.5 25,8.4 21.9,8.1 C18.5,7.8 15,7.8 11.6,7.7 C11,7.7 11,7.8 11.2,8.4 C11.8,9.7 12.5,10.9 12.9,12.3 C13.3,13.9 13.4,15.6 13.5,17.3 C13.6,18.3 13.4,19.3 13.2,20.3 C13,21.1 12.6,21.8 12.4,22.6 C11.6,25.6 10.4,28.4 9.1,31.2 C8,33.4 7.1,35.7 6.1,38 Z M98,38.5 C98.3,38.5 98.5,38.6 98.7,38.6 C99.8,38.6 101,38.6 102.1,38.6 C103.9,38.6 103.9,38.5 104.5,36.8 C105.5,34.1 106.6,31.5 107.6,28.8 C107.7,28.6 107.9,28.4 108,28.2 C108.3,29.6 108.5,30.9 108.7,32.2 C109,34.1 109.3,36 109.5,37.9 C109.6,38.5 109.8,38.6 110.3,38.6 C112.2,38.6 114,38.6 115.9,38.6 C116,38.6 116.1,38.5 116.3,38.5 C116,37.3 115.7,36.1 115.4,34.9 C114.9,32.6 114.5,30.4 114,28.1 C113.8,27.4 114,27.1 114.5,26.6 C116.8,24.5 119,22.5 121.2,20.4 C121.8,19.8 122.4,19.2 123,18.6 C122.8,18.5 122.6,18.4 122.5,18.4 C120.6,18.4 118.8,18.4 116.9,18.4 C116.7,18.4 116.5,18.5 116.3,18.7 C115.6,19.5 114.9,20.3 114.1,21.1 C112.5,22.7 110.9,24.4 109.3,26 C109.1,26.2 108.9,26.3 108.5,26.5 C108.5,26.2 108.5,26.1 108.5,26 C108.8,24.9 109.2,23.9 109.6,22.8 C110.6,20 111,17.1 110.9,14.1 C110.8,12.4 110.4,10.7 109.6,9.2 C109.5,9 109.1,8.8 108.9,8.8 C107.3,8.7 105.8,8.8 104.2,8.8 C104.1,8.8 103.9,8.9 103.7,8.9 C103.9,9.3 104,9.7 104.2,10 C105.4,13.1 105.4,16.3 104.8,19.4 C104,23.5 102.4,27.4 100.7,31.2 C99.9,33.6 99,36 98,38.5 Z M29.8,38.3 C30.3,38.3 30.6,38.4 31,38.4 C36.5,38.4 42,38.4 47.5,38.4 C47.7,38.4 48,38.2 48.1,38 C48.6,36.9 49,35.8 49.4,34.7 C49.5,34.4 49.7,34 49.8,33.6 C49.5,33.6 49.3,33.5 49.1,33.5 C46,33.5 42.9,33.5 39.7,33.5 C39.2,33.5 38.7,33.5 38.3,33.5 C37.9,33.5 37.7,33.4 37.9,32.9 C38.1,32.5 38.2,32.1 38.4,31.7 C39,30.3 39.7,28.9 40.2,27.4 C40.8,25.8 41.4,24.2 41.9,22.5 C42.4,21 43,19.5 43.1,17.8 C43.2,14.6 43,11.4 41.3,8.6 C41.1,8.2 40.9,8 40.4,8 C38.9,8 37.4,7.9 35.9,7.9 C35.6,7.9 35.4,7.9 35,7.9 C35.1,8.2 35.2,8.3 35.3,8.4 C36.3,10.1 37.1,12 37.1,14 C37.1,15.9 37.1,17.8 36.9,19.7 C36.8,20.5 36.4,21.3 36.1,22.1 C35.3,24.9 34.2,27.6 33,30.3 C31.8,33 30.9,35.5 29.8,38.3 Z M93.8,21.5 C93.7,21.4 93.6,21.4 93.5,21.3 C93.5,21.1 93.6,20.8 93.6,20.6 C93.7,20 93.9,19.5 93.9,18.9 C93.9,18.7 93.7,18.4 93.5,18.4 C92.1,18.4 90.7,18.4 89.3,18.4 C88.8,18.4 88.6,18.7 88.6,19.2 C88.6,19.5 88.6,19.8 88.5,20.1 C87.7,22.6 87.1,25.1 86.2,27.5 C84.9,30.9 83.5,34.3 82.2,37.7 C81.9,38.4 82,38.5 82.8,38.5 C83.9,38.5 84.9,38.5 86,38.5 C88,38.5 87.4,38.8 88.2,36.9 C89.6,33.6 90.8,30.3 92.2,27.1 C93.1,25.1 94.6,23.8 96.9,23.6 C97.5,23.5 98.1,23.6 98.7,23.6 C99,23.6 99.5,23.4 99.6,23.2 C100.1,21.7 100.4,20.2 100.8,18.7 C100.8,18.6 100.6,18.3 100.4,18.3 C98.4,18.3 96.6,18.7 95.1,20.1 C94.7,20.5 94.3,21 93.8,21.5 Z" id="Shape" fill="#FFFFFF"></path>
                    <path d="M63.8,39.1 C61.5,39 59.3,38.9 57.4,37.6 C55.8,36.5 55,35 54.6,33.2 C54.1,30.9 54.8,28.8 55.3,26.6 C56.2,22.7 57.7,19.1 59.4,15.5 C60.5,13.2 61.9,11.1 63.5,9.2 C64.6,7.8 66.4,7.3 68.2,7.3 C70.2,7.3 72.1,7.9 73.9,8.6 C75.8,9.3 77.5,10.3 79,11.5 C81,13.1 82.5,15 83.4,17.4 C83.9,18.8 83.9,20.3 83.4,21.7 C82.9,23.2 82.5,24.8 81.9,26.2 C81.3,27.5 80.6,28.7 79.7,29.8 C78.5,31.4 77.1,32.9 75.7,34.3 C74.3,35.7 72.7,36.7 70.9,37.5 C68.7,38.6 66.2,39 63.8,39.1 Z M66,34.5 C67,34.6 68.3,34.1 69.5,33.4 C72,31.9 73.8,29.7 75.2,27.1 C76.2,25.2 76.9,23.1 77.2,20.9 C77.4,19.5 77.4,18 76.7,16.7 C75.5,14.6 73.7,13.6 71.3,13.4 C68.4,13.2 65.9,14.8 64.8,17.6 C63.6,20.5 62.4,23.5 61.6,26.6 C61.3,27.9 61.1,29.2 60.9,30.5 C60.8,31.5 61,32.4 61.8,33.2 C62.8,34.4 64.1,34.5 66,34.5 Z" id="Shape" fill="#000000"></path>
                    <path d="M6.1,38 C7,35.7 7.9,33.4 8.9,31.1 C10.1,28.3 11.3,25.5 12.2,22.5 C12.4,21.7 12.9,21 13,20.2 C13.2,19.2 13.4,18.2 13.3,17.2 C13.2,15.5 13.1,13.8 12.7,12.2 C12.4,10.9 11.6,9.6 11,8.3 C10.8,7.8 10.8,7.6 11.4,7.6 C14.8,7.7 18.3,7.6 21.7,8 C24.8,8.3 27.6,9.4 30.1,11.4 C31.4,12.5 32.4,13.8 32.9,15.3 C33.7,17.6 33.3,19.7 31.6,21.6 C30.5,22.8 29.5,24.1 28,24.9 C25.9,26 23.8,26.7 21.4,26.8 C20,26.8 18.6,26.8 17.2,26.8 C16.7,26.8 16.4,27 16.2,27.4 C15.1,29.9 14.1,32.4 13,34.9 C12.6,35.8 12.3,36.7 11.9,37.6 C11.8,37.8 11.4,38.1 11.2,38.1 C9.5,38.1 7.9,38.1 6.2,38.1 C6.4,38.1 6.3,38.1 6.1,38 Z M21,21.9 C21,21.9 21,21.9 21,21.9 C21.7,21.9 22.4,21.9 23.1,21.9 C25.2,21.7 27.2,20.1 27.1,17.6 C27,15.9 26.3,14.7 24.7,14.4 C23.2,14.1 21.7,14.1 20.2,14.1 C19.2,14.1 19.2,14.1 19.3,15.1 C19.5,17.3 19.6,19.4 18.6,21.5 C18.4,21.9 18.6,22 19,22 C19.6,21.9 20.3,21.9 21,21.9 Z" id="Shape" fill="#000000"></path>
                    <path d="M98,38.5 C99,36 99.9,33.5 100.9,31.2 C102.6,27.3 104.2,23.5 105,19.4 C105.6,16.3 105.6,13.1 104.4,10 C104.3,9.6 104.1,9.3 103.9,8.9 C104.1,8.9 104.2,8.8 104.4,8.8 C106,8.8 107.5,8.8 109.1,8.8 C109.3,8.8 109.7,9 109.8,9.2 C110.6,10.7 111,12.4 111.1,14.1 C111.2,17.1 110.9,20 109.8,22.8 C109.4,23.8 109.1,24.9 108.7,26 C108.7,26.1 108.7,26.2 108.7,26.5 C109,26.3 109.3,26.2 109.5,26 C111.1,24.4 112.7,22.8 114.3,21.1 C115.1,20.3 115.8,19.5 116.5,18.7 C116.6,18.6 116.9,18.4 117.1,18.4 C119,18.4 120.8,18.4 122.7,18.4 C122.8,18.4 122.9,18.5 123.2,18.6 C122.5,19.3 122,19.9 121.4,20.4 C119.2,22.5 116.9,24.6 114.7,26.6 C114.2,27 114.1,27.4 114.2,28.1 C114.7,30.3 115.2,32.6 115.6,34.9 C115.9,36.1 116.2,37.3 116.5,38.5 C116.3,38.6 116.2,38.6 116.1,38.6 C114.2,38.6 112.4,38.6 110.5,38.6 C110,38.6 109.7,38.4 109.7,37.9 C109.5,36 109.2,34.1 108.9,32.2 C108.7,30.9 108.5,29.6 108.2,28.2 C108.1,28.4 107.9,28.6 107.8,28.8 C106.7,31.5 105.7,34.1 104.7,36.8 C104,38.5 104.1,38.6 102.3,38.6 C101.2,38.6 100,38.6 98.9,38.6 C98.5,38.6 98.3,38.6 98,38.5 Z" id="Shape" fill="#000000"></path>
                    <path d="M29.8,38.3 C30.9,35.6 31.9,33 33,30.5 C34.2,27.8 35.2,25.1 36.1,22.3 C36.3,21.5 36.8,20.7 36.9,19.9 C37.1,18 37.1,16.1 37.1,14.2 C37.1,12.2 36.3,10.3 35.3,8.6 C35.2,8.5 35.2,8.3 35,8.1 C35.4,8.1 35.6,8.1 35.9,8.1 C37.4,8.1 38.9,8.2 40.4,8.2 C40.9,8.2 41.1,8.4 41.3,8.8 C43,11.7 43.2,14.8 43.1,18 C43,19.7 42.4,21.1 41.9,22.7 C41.4,24.3 40.8,26 40.2,27.6 C39.6,29 39,30.4 38.4,31.9 C38.2,32.3 38,32.7 37.9,33.1 C37.7,33.5 38,33.7 38.3,33.7 C38.8,33.7 39.3,33.7 39.7,33.7 C42.8,33.7 45.9,33.7 49.1,33.7 C49.3,33.7 49.5,33.7 49.8,33.8 C49.6,34.2 49.5,34.5 49.4,34.9 C49,36 48.5,37.1 48.1,38.2 C48,38.4 47.7,38.6 47.5,38.6 C42,38.6 36.5,38.6 31,38.6 C30.6,38.3 30.3,38.3 29.8,38.3 Z" id="Shape" fill="#000000"></path>
                    <path d="M93.8,21.5 C94.3,21 94.7,20.5 95.2,20 C96.7,18.6 98.5,18.2 100.5,18.2 C100.6,18.2 100.9,18.5 100.9,18.6 C100.5,20.1 100.1,21.6 99.7,23.1 C99.6,23.3 99.1,23.5 98.8,23.5 C98.2,23.6 97.6,23.5 97,23.5 C94.7,23.7 93.1,25 92.3,27 C90.9,30.2 89.6,33.5 88.3,36.8 C87.5,38.7 88.1,38.4 86.1,38.4 C85,38.4 84,38.4 82.9,38.4 C82.2,38.4 82.1,38.3 82.3,37.6 C83.6,34.2 85.1,30.8 86.3,27.4 C87.2,25 87.9,22.5 88.6,20 C88.7,19.7 88.7,19.4 88.7,19.1 C88.7,18.6 88.9,18.3 89.4,18.3 C90.8,18.3 92.2,18.3 93.6,18.3 C93.7,18.3 94,18.6 94,18.8 C93.9,19.4 93.8,19.9 93.7,20.5 C93.7,20.7 93.6,21 93.6,21.2 C93.6,21.4 93.7,21.5 93.8,21.5 Z" id="Shape" fill="#000000"></path>
                    <path d="M66,34.5 C64.2,34.5 62.8,34.4 61.8,33.3 C61.1,32.5 60.9,31.5 60.9,30.6 C61,29.3 61.2,28 61.6,26.7 C62.4,23.6 63.5,20.6 64.8,17.7 C66,14.9 68.5,13.3 71.3,13.5 C73.7,13.7 75.6,14.7 76.7,16.8 C77.4,18.1 77.5,19.6 77.2,21 C76.8,23.2 76.2,25.2 75.2,27.2 C73.8,29.8 72,32 69.5,33.5 C68.3,34.2 67,34.6 66,34.5 Z" id="Shape" fill="#FFFFFF"></path>
                    <path d="M21,21.9 C20.3,21.9 19.6,21.9 19,21.9 C18.6,21.9 18.4,21.8 18.6,21.4 C19.6,19.4 19.4,17.2 19.3,15 C19.2,14.1 19.3,14 20.2,14 C21.7,14.1 23.2,14 24.7,14.3 C26.3,14.6 27,15.8 27.1,17.5 C27.2,20.1 25.2,21.6 23.1,21.8 C22.4,21.9 21.7,21.9 21,21.9 C21,21.9 21,21.9 21,21.9 Z" id="Shape" fill="#FFFFFF"></path>
                </g>
            </g>
        </g>
    </g>
</svg>