<?xml version="1.0" encoding="UTF-8"?>
<svg width="128px" height="54px" viewBox="0 0 128 54" version="1.1" xmlns="http://www.w3.org/2000/svg" xmlns:xlink="http://www.w3.org/1999/xlink">
    <!-- Generator: Sketch 49.3 (51167) - http://www.bohemiancoding.com/sketch -->
    <title>awzVes_1_</title>
    <desc>Created with Sketch.</desc>
    <defs></defs>
    <g id="Page-1" stroke="none" stroke-width="1" fill="none" fill-rule="evenodd">
        <g id="plork-logos" transform="translate(-408.000000, -144.000000)" fill-rule="nonzero">
            <g id="awzVes_1_" transform="translate(408.000000, 144.000000)">
                <g id="Group">
                    <path d="M0.2,53.3 C0.2,35.7 0.2,18.1 0.2,0.5 C42.8,0.5 85.3,0.5 127.9,0.5 C127.9,18.1 127.9,35.7 127.9,53.3 C85.4,53.3 42.8,53.3 0.2,53.3 Z M66,41.9 C68.1,41.7 69.8,41.7 71.4,41.5 C73.6,41.2 75.8,40.7 77.7,39.5 C78.6,38.9 79.3,38.1 79.8,37.1 C80.8,34.8 80.7,32.4 80.2,30 C79.8,28 78.8,26.2 77.5,24.6 C76.9,23.8 76.2,23 76,22 C75.8,20.7 76.5,19.7 77.1,18.6 C77.7,17.4 78.4,16.3 79,15.1 C79.8,13.3 79.1,11.1 77.6,9.9 C75.7,8.4 73.5,7.6 71.1,7.2 C67.3,6.6 63.4,6.5 59.6,7.3 C57.6,7.7 55.8,8.4 54.4,9.9 C52.5,11.9 52.3,13.9 54,16.3 C54.9,17.6 56,18.6 57,19.8 C58.3,21.4 58.6,22.1 57.5,24.1 C56.7,25.7 55.8,27.3 55.2,28.9 C54.4,31 54,33.2 54,35.4 C54,36.4 54.2,37.3 54.7,38.1 C55.9,39.9 57.8,40.6 59.8,41 C62,41.6 64.3,41.7 66,41.9 Z M18.5,11.2 C17.6,11.2 16.6,11.2 15.7,11.2 C15.5,11.2 15.2,10.9 15.2,10.8 C15.2,9.4 15.2,8.1 15.2,6.7 C15.2,6.1 15.2,5.9 14.5,5.9 C13,5.9 11.5,5.8 10,5.8 C9.6,5.8 9.4,6 9.4,6.4 C9.3,7 9.3,7.7 9.3,8.3 C9.3,9.6 9.3,10.9 9.3,12.3 C9.3,14.7 9.3,17.2 9.8,19.6 C10,20.7 10.2,21.7 10.4,22.8 C11.1,26.6 10.9,30.4 10.6,34.2 C10.5,35.1 10.4,36.1 10.3,37 C10.2,38.4 10.1,39.8 9.9,41.1 C9.9,41.5 9.9,41.7 10.4,41.7 C11.9,41.7 13.3,41.7 14.8,41.8 C15.4,41.8 15.7,41.5 15.8,41 C15.9,39.9 16.1,38.7 16.2,37.6 C16.2,37.2 16.4,37 16.8,37 C18.2,37 19.7,37 21.1,36.9 C23.3,36.8 25.4,36.6 27.4,35.6 C28.1,35.3 28.7,34.8 29.2,34.2 C30.8,32.4 30.8,30.2 30.5,28 C30.4,26.8 29.8,25.9 29.1,25 C28.5,24.3 28,23.7 27.5,22.9 C27,22.1 27,21.2 27.4,20.3 C27.9,19.3 28.4,18.3 28.9,17.3 C29.6,15.6 29.2,14.2 27.8,13.2 C27.2,12.8 26.4,12.4 25.7,12.2 C23.2,11.3 20.9,11.2 18.5,11.2 Z M106.3,36.6 C106.6,36.9 106.8,37 107,37.2 C108.2,38.4 109.4,39.6 110.6,40.8 C111.1,41.3 111.7,41.6 112.5,41.6 C114.1,41.6 115.7,41.6 117.3,41.6 C117.4,41.6 117.6,41.5 117.8,41.5 C117.7,41.3 117.6,41.2 117.5,41.2 C115.9,39.8 114.2,38.5 112.6,37.1 C111.8,36.4 111.9,36.1 112.7,35.5 C113.4,35 114,34.4 114.6,33.8 C115.9,32.4 117.2,30.9 118.5,29.5 C118.6,29.4 118.6,29.2 118.6,29.2 C118.5,29.1 118.4,29 118.2,29 C116.5,29 114.7,29 113,29 C112.8,29 112.6,29.1 112.4,29.3 C110.8,31.2 109.3,33.1 107.7,34.9 C107.4,35.2 107.1,35.5 106.6,35.9 C106.6,35.4 106.5,35.1 106.5,34.7 C106.6,33 106.7,31.4 106.8,29.7 C106.9,26.9 106.7,24.1 106.1,21.4 C105.5,18.9 105.3,16.4 105.3,13.9 C105.3,13.7 105.4,13.4 105.5,13.3 C105.6,13.2 105.9,13.3 106.1,13.4 C107.3,14.2 108.4,15 109.6,15.7 C110.2,16.1 110.8,16.6 111.4,16.6 C113,16.8 114.7,16.7 116.3,16.7 C116.4,16.7 116.6,16.6 116.8,16.6 C116.5,16.4 116.4,16.2 116.2,16.1 C114.6,15.1 113,14.1 111.3,13.2 C110.8,12.9 110.8,12.7 111.3,12.3 C112.6,11.5 113.8,10.7 115.1,9.9 C115.8,9.4 116.5,8.9 117.4,8.3 C117.1,8.2 116.9,8.2 116.7,8.2 C115,8.2 113.2,8.1 111.5,8.1 C111.2,8.1 110.8,8.3 110.6,8.5 C109.1,9.7 107.5,10.9 106,12 C105.8,12.1 105.6,12.2 105.3,12.3 C105.3,11 105.3,9.9 105.3,8.7 C105.3,8.1 105.2,7.9 104.6,7.9 C103.2,7.9 101.8,7.9 100.4,7.8 C99.9,7.8 99.7,8 99.7,8.5 C99.7,10.5 99.7,12.4 99.6,14.4 C99.5,16.6 99.9,18.7 100.3,20.9 C100.6,22.9 101,24.9 101.1,26.9 C101.1,29.8 100.9,32.6 100.7,35.5 C100.6,37.3 100.3,39.2 100.1,41 C100.1,41.4 100.2,41.5 100.5,41.5 C102.1,41.5 103.6,41.5 105.2,41.5 C105.4,41.5 105.7,41.4 105.7,41.2 C105.9,40.8 106,40.3 106,39.9 C106.1,38.9 106.2,37.8 106.3,36.6 Z M41.9,41.5 C41.9,41.5 41.9,41.5 41.9,41.5 C44.4,41.5 46.9,41.5 49.5,41.5 C50.8,41.5 50.8,41.5 51.1,40.3 C51.3,39.7 51.1,39.6 50.5,39.6 C47,39.6 43.5,39.6 40.1,39.6 C39.4,39.6 39.3,39.5 39.3,38.8 C39.5,37.1 39.7,35.3 39.8,33.6 C39.9,31.2 40,28.7 39.9,26.3 C39.8,24.6 39.6,23 39.2,21.4 C38.7,19.1 38.4,16.9 38.4,14.6 C38.4,12.9 38.5,11.2 38.5,9.5 C38.5,8.9 38.7,8.7 39.3,8.7 C39.6,8.7 40,8.7 40.3,8.7 C43.5,8.8 46.7,8.8 49.9,8.9 C50.3,8.9 50.5,8.7 50.5,8.3 C50.5,6.4 50.8,6.8 49.1,6.7 C49.1,6.7 49.1,6.7 49,6.7 C45,6.6 41,6.5 37,6.4 C35.9,6.4 34.7,6.3 33.6,6.3 C32.7,6.3 32.7,6.3 32.7,7.2 C32.7,8.9 32.7,10.5 32.7,12.2 C32.7,15 32.6,17.8 33.3,20.5 C33.9,22.9 34.3,25.4 34.2,27.9 C34.1,30.2 34,32.4 33.9,34.7 C33.8,36.7 33.5,38.7 33.3,40.7 C33.2,41.4 33.2,41.5 34,41.5 C36.5,41.5 39.2,41.5 41.9,41.5 Z M89.8,41.6 C89.9,41.3 90,41.1 90,40.9 C90.2,39.6 90.3,38.2 90.5,36.9 C90.7,35.6 91.4,34.7 92.8,34.2 C93.9,33.9 95.1,33.8 96.2,33.8 C96.5,33.8 96.8,33.8 96.8,33.4 C96.9,32.2 97,30.9 97.1,29.7 C97.1,29.4 97,29.1 96.6,29.1 C95.1,29.1 93.6,29.3 92.4,30.2 C91.7,30.8 91.1,31.5 90.4,32.2 C90.4,31.8 90.3,31.2 90.3,30.7 C90.4,29.2 90.4,29.2 88.9,29.3 C88.8,29.3 88.7,29.3 88.6,29.3 C87.7,29.3 86.7,29.4 85.8,29.3 C85.3,29.3 85.1,29.4 85.1,29.9 C85.1,30.6 85.2,31.3 85.2,32 C85.2,33.1 85.1,34.2 85,35.3 C84.9,36.5 84.8,37.7 84.6,38.8 C84.5,39.7 84.4,40.6 84.2,41.5 C86.1,41.6 87.9,41.6 89.8,41.6 Z M89,14.9 C91.5,16.2 94.2,16.8 95.5,16.4 C95.5,16.2 95.5,16 95.5,15.8 C95.5,14.1 95.5,14.1 93.8,14.1 C92.8,14.1 91.7,13.9 90.7,13.6 C89.9,13.4 89.5,12.8 89.5,12 C89.5,10.8 89.5,9.6 89.5,8.4 C89.5,7.9 89.4,7.6 88.8,7.6 C87.3,7.6 85.8,7.5 84.4,7.5 C84,7.5 83.8,7.7 83.8,8.1 C83.8,8.6 83.9,9.1 83.9,9.6 C83.8,11.5 83.7,13.5 83.7,15.4 C83.7,15.9 83.7,16.3 84.4,16.3 C85.7,16.3 87,16.3 88.3,16.3 C88.7,16.3 88.9,16.1 88.9,15.7 C88.9,15.4 88.9,15.2 89,14.9 Z" id="Shape" fill="#FFFFFF"></path>
                    <path d="M66,41.9 C64.2,41.7 62,41.6 59.8,41.2 C57.8,40.8 55.9,40.1 54.7,38.3 C54.1,37.5 54,36.6 54,35.6 C54,33.4 54.4,31.2 55.2,29.1 C55.8,27.4 56.7,25.9 57.5,24.3 C58.6,22.3 58.3,21.6 57,20 C56,18.8 54.9,17.7 54,16.5 C52.3,14.1 52.4,12.1 54.4,10.1 C55.8,8.6 57.6,7.9 59.6,7.5 C63.4,6.7 67.3,6.8 71.1,7.4 C73.5,7.8 75.7,8.6 77.6,10.1 C79.1,11.3 79.8,13.5 79,15.3 C78.5,16.5 77.8,17.6 77.1,18.8 C76.5,19.9 75.8,20.8 76,22.2 C76.2,23.3 76.9,24 77.5,24.8 C78.8,26.4 79.8,28.1 80.2,30.2 C80.7,32.6 80.8,35 79.8,37.3 C79.4,38.3 78.7,39.1 77.7,39.7 C75.8,40.9 73.6,41.4 71.4,41.7 C69.8,41.7 68.2,41.7 66,41.9 Z M74.4,33 C74.2,31.9 74.2,30.9 73.9,29.8 C73.5,28.3 72.9,27 71.6,26 C70.3,25.1 69,24.7 67.4,24.7 C64.9,24.7 63.1,26 62,28.1 C61.2,29.5 60.9,31 60.7,32.6 C60.6,33.9 60.2,35.1 60.4,36.4 C60.6,37.3 60.9,38.1 61.7,38.7 C62.5,39.3 63.4,39.5 64.4,39.7 C66.4,40.1 68.4,39.9 70.3,39.5 C72.1,39.1 73.4,38.1 73.9,36.2 C74.1,35.2 74.2,34.1 74.4,33 Z M66.2,19.2 C68.4,19.3 70.3,18.5 71.7,16.8 C72.7,15.6 73.1,14.1 72.9,12.5 C72.6,10.6 71.1,9.8 69.5,9.3 C67.1,8.6 64.7,8.5 62.4,9.3 C59.1,10.4 58.4,13.6 60,16 C61.4,18.2 63.7,19.1 66.2,19.2 Z" id="Shape" fill="#000000"></path>
                    <path d="M18.5,11.2 C20.8,11.3 23.2,11.4 25.4,12.1 C26.1,12.3 26.9,12.7 27.5,13.1 C28.9,14 29.3,15.5 28.6,17.2 C28.2,18.2 27.7,19.2 27.1,20.2 C26.6,21.1 26.6,22 27.2,22.8 C27.7,23.5 28.2,24.2 28.8,24.9 C29.5,25.8 30.1,26.8 30.2,27.9 C30.5,30.1 30.5,32.3 28.9,34.1 C28.4,34.7 27.7,35.1 27.1,35.5 C25.1,36.5 23,36.7 20.8,36.8 C19.4,36.8 17.9,36.9 16.5,36.9 C16.1,36.9 16,37 15.9,37.5 C15.8,38.6 15.7,39.8 15.5,40.9 C15.4,41.5 15.2,41.8 14.5,41.7 C13.1,41.6 11.6,41.6 10.1,41.6 C9.6,41.6 9.6,41.4 9.6,41 C9.8,39.6 9.9,38.2 10,36.9 C10.1,36 10.3,35 10.3,34.1 C10.6,30.3 10.7,26.5 10.1,22.7 C9.9,21.6 9.7,20.6 9.5,19.5 C9,17.1 9,14.7 9,12.2 C9,10.9 9,9.6 9,8.2 C9,7.6 9.1,6.9 9.1,6.3 C9.1,5.9 9.3,5.7 9.7,5.7 C11.2,5.8 12.7,5.8 14.2,5.8 C14.8,5.8 14.9,6.1 14.9,6.6 C14.8,8 14.8,9.3 14.9,10.7 C14.9,10.9 15.2,11.1 15.4,11.1 C16.6,11.2 17.6,11.2 18.5,11.2 Z M16.6,26.2 C16.6,28.7 16.6,31.1 16.6,33.5 C17.7,33.5 18.8,33.5 19.9,33.5 C20.3,33.5 20.7,33.4 21.1,33.4 C22.6,33.2 23.6,32.5 23.9,31 C24,30.4 24,29.8 24,29.2 C23.9,27.5 22.9,26.4 21.4,26.2 C19.9,26.1 18.3,26.2 16.6,26.2 Z M15.1,17.4 C17.1,17.5 18.9,17.7 20.6,17.3 C21.3,17.2 21.8,16.9 22.2,16.4 C22.9,15.6 22.8,14.2 21.5,13.8 C19.5,13.2 17.5,13.3 15.4,13.3 C15.3,13.3 15.1,13.5 15.1,13.6 C15.1,14.8 15.1,16.1 15.1,17.4 Z" id="Shape" fill="#000000"></path>
                    <path d="M106.3,36.6 C106.2,37.9 106.1,39 105.9,40 C105.8,40.4 105.7,40.9 105.6,41.3 C105.6,41.4 105.3,41.5 105.1,41.6 C103.5,41.6 102,41.6 100.4,41.6 C100.1,41.6 99.9,41.5 100,41.1 C100.2,39.3 100.5,37.4 100.6,35.6 C100.8,32.7 101,29.9 101,27 C101,25 100.6,23 100.2,21 C99.8,18.9 99.5,16.7 99.5,14.5 C99.5,12.5 99.6,10.6 99.6,8.6 C99.6,8 99.8,7.9 100.3,7.9 C101.7,7.9 103.1,8 104.5,8 C105.1,8 105.3,8.2 105.2,8.8 C105.2,9.9 105.2,11.1 105.2,12.4 C105.5,12.3 105.7,12.2 105.9,12.1 C107.4,10.9 109,9.7 110.5,8.6 C110.8,8.4 111.1,8.2 111.4,8.2 C113.1,8.2 114.9,8.3 116.6,8.3 C116.8,8.3 116.9,8.4 117.3,8.4 C116.4,9 115.7,9.6 115,10 C113.7,10.8 112.5,11.6 111.2,12.4 C110.7,12.7 110.7,13 111.2,13.3 C112.8,14.3 114.5,15.2 116.1,16.2 C116.3,16.3 116.4,16.5 116.7,16.7 C116.4,16.8 116.3,16.9 116.2,16.8 C114.6,16.8 112.9,16.8 111.3,16.7 C110.7,16.6 110.1,16.1 109.5,15.8 C108.3,15.1 107.2,14.3 106,13.5 C105.8,13.4 105.5,13.3 105.4,13.4 C105.3,13.5 105.2,13.8 105.2,14 C105.1,16.5 105.4,19 106,21.5 C106.6,24.2 106.8,27 106.7,29.8 C106.6,31.5 106.5,33.1 106.4,34.8 C106.4,35.1 106.4,35.5 106.5,36 C107,35.6 107.3,35.4 107.6,35 C109.2,33.1 110.7,31.2 112.3,29.4 C112.4,29.2 112.7,29.1 112.9,29.1 C114.6,29.1 116.4,29.1 118.1,29.1 C118.2,29.1 118.4,29.2 118.5,29.3 C118.5,29.3 118.5,29.5 118.4,29.6 C117.1,31.1 115.9,32.5 114.5,33.9 C113.9,34.5 113.3,35.1 112.6,35.6 C111.8,36.2 111.8,36.5 112.5,37.2 C114.1,38.6 115.8,39.9 117.4,41.3 C117.5,41.4 117.5,41.5 117.7,41.6 C117.5,41.7 117.4,41.7 117.2,41.7 C115.6,41.7 114,41.7 112.4,41.7 C111.6,41.7 111.1,41.5 110.5,40.9 C109.3,39.7 108.1,38.5 106.9,37.3 C106.8,37 106.7,36.8 106.3,36.6 Z" id="Shape" fill="#000000"></path>
                    <path d="M41.9,41.5 C39.2,41.5 36.6,41.5 33.9,41.5 C33.2,41.5 33.1,41.5 33.2,40.7 C33.4,38.7 33.7,36.7 33.8,34.7 C34,32.4 34.1,30.2 34.1,27.9 C34.2,25.4 33.8,22.9 33.2,20.5 C32.5,17.7 32.6,15 32.6,12.2 C32.6,10.5 32.6,8.9 32.6,7.2 C32.6,6.3 32.6,6.3 33.5,6.3 C34.6,6.3 35.8,6.4 36.9,6.4 C40.9,6.5 44.9,6.6 48.9,6.7 C48.9,6.7 48.9,6.7 49,6.7 C50.7,6.8 50.5,6.4 50.4,8.3 C50.4,8.7 50.3,8.9 49.8,8.9 C46.6,8.8 43.4,8.8 40.2,8.7 C39.9,8.7 39.5,8.7 39.2,8.7 C38.6,8.6 38.4,8.9 38.4,9.5 C38.4,11.2 38.3,12.9 38.3,14.6 C38.3,16.9 38.6,19.2 39.1,21.4 C39.5,23 39.7,24.7 39.8,26.3 C39.9,28.7 39.8,31.2 39.7,33.6 C39.6,35.3 39.4,37.1 39.2,38.8 C39.1,39.5 39.2,39.6 40,39.6 C43.5,39.6 47,39.6 50.4,39.6 C50.9,39.6 51.1,39.7 51,40.3 C50.6,41.5 50.7,41.5 49.4,41.5 C46.9,41.5 44.4,41.5 41.9,41.5 C41.9,41.5 41.9,41.5 41.9,41.5 Z" id="Shape" fill="#000000"></path>
                    <path d="M89.8,41.6 C87.9,41.6 86.1,41.6 84.2,41.6 C84.3,40.7 84.5,39.8 84.6,38.9 C84.7,37.7 84.9,36.5 85,35.4 C85.1,34.3 85.2,33.2 85.2,32.1 C85.2,31.4 85.1,30.7 85.1,30 C85.1,29.5 85.2,29.4 85.8,29.4 C86.7,29.5 87.7,29.4 88.6,29.4 C88.7,29.4 88.8,29.4 88.9,29.4 C90.4,29.3 90.4,29.3 90.3,30.8 C90.3,31.3 90.4,31.8 90.4,32.3 C91,31.6 91.6,30.9 92.4,30.3 C93.6,29.3 95.1,29.2 96.6,29.2 C97,29.2 97.1,29.4 97.1,29.8 C97,31 96.9,32.3 96.8,33.5 C96.8,33.9 96.5,33.9 96.2,33.9 C95.1,33.9 93.9,33.9 92.8,34.3 C91.5,34.7 90.8,35.6 90.5,37 C90.3,38.3 90.2,39.7 90,41 C90,41.1 89.9,41.3 89.8,41.6 Z" id="Shape" fill="#000000"></path>
                    <path d="M89,14.9 C88.9,15.2 88.9,15.4 88.9,15.7 C88.9,16.1 88.7,16.3 88.3,16.3 C87,16.3 85.7,16.3 84.4,16.3 C83.7,16.3 83.7,15.9 83.7,15.4 C83.8,13.5 83.9,11.5 83.9,9.6 C83.9,9.1 83.8,8.6 83.8,8.1 C83.8,7.7 84,7.5 84.4,7.5 C85.9,7.6 87.4,7.6 88.8,7.6 C89.4,7.6 89.5,7.8 89.5,8.4 C89.5,9.6 89.5,10.8 89.5,12 C89.5,12.8 89.8,13.4 90.7,13.6 C91.7,13.8 92.7,14 93.8,14.1 C95.5,14.2 95.5,14.1 95.5,15.8 C95.5,16 95.5,16.2 95.5,16.4 C94.2,16.8 91.5,16.2 89,14.9 Z" id="Shape" fill="#000000"></path>
                    <path d="M74.4,33 C74.2,34.1 74.1,35.2 73.9,36.3 C73.4,38.1 72.1,39.2 70.3,39.6 C68.3,40 66.4,40.2 64.4,39.8 C63.4,39.6 62.5,39.4 61.7,38.8 C60.9,38.2 60.6,37.4 60.4,36.5 C60.1,35.2 60.5,33.9 60.7,32.7 C60.9,31.1 61.2,29.6 62,28.2 C63.1,26.1 64.9,24.8 67.4,24.8 C69,24.8 70.3,25.2 71.6,26.1 C72.9,27 73.5,28.4 73.9,29.9 C74.1,30.9 74.2,32 74.4,33 Z" id="Shape" fill="#FFFFFF"></path>
                    <path d="M66.2,19.2 C63.6,19.1 61.4,18.2 59.9,16 C58.3,13.6 59,10.4 62.3,9.3 C64.7,8.5 67.1,8.7 69.4,9.3 C71,9.8 72.5,10.6 72.8,12.5 C73.1,14.1 72.7,15.5 71.6,16.8 C70.3,18.5 68.5,19.3 66.2,19.2 Z" id="Shape" fill="#FFFFFF"></path>
                    <path d="M16.6,26.2 C18.3,26.2 19.9,26.1 21.5,26.2 C23,26.4 24,27.5 24.1,29.2 C24.1,29.8 24.1,30.4 24,31 C23.7,32.5 22.6,33.2 21.2,33.4 C20.8,33.5 20.4,33.5 20,33.5 C18.9,33.5 17.8,33.5 16.7,33.5 C16.6,31.1 16.6,28.7 16.6,26.2 Z" id="Shape" fill="#FFFFFF"></path>
                    <path d="M15.1,17.4 C15.1,16.1 15.1,14.9 15.1,13.6 C15.1,13.5 15.3,13.3 15.4,13.3 C17.4,13.3 19.5,13.2 21.5,13.8 C22.8,14.2 22.9,15.7 22.2,16.4 C21.8,16.9 21.3,17.2 20.6,17.3 C18.9,17.7 17.1,17.5 15.1,17.4 Z" id="Shape" fill="#FFFFFF"></path>
                </g>
            </g>
        </g>
    </g>
</svg>