<?xml version="1.0" encoding="UTF-8"?>
<svg width="131px" height="47px" viewBox="0 0 131 47" version="1.1" xmlns="http://www.w3.org/2000/svg" xmlns:xlink="http://www.w3.org/1999/xlink">
    <!-- Generator: Sketch 49.3 (51167) - http://www.bohemiancoding.com/sketch -->
    <title>_x37_klqap_1_</title>
    <desc>Created with Sketch.</desc>
    <defs></defs>
    <g id="Page-1" stroke="none" stroke-width="1" fill="none" fill-rule="evenodd">
        <g id="plork-logos" transform="translate(-274.000000, -147.000000)" fill-rule="nonzero">
            <g id="_x37_klqap_1_" transform="translate(274.000000, 147.000000)">
                <g id="Group">
                    <path d="M0.7,46.3 C0.7,30.9 0.7,15.5 0.7,0.1 C44,0.1 87.3,0.1 130.7,0.1 C130.7,15.5 130.7,30.9 130.7,46.3 C87.3,46.3 44,46.3 0.7,46.3 Z M45.4,18.7 C45.4,20.8 46.3,22.7 47.6,24.3 C49,26 50.7,27.2 52.5,28.4 C55.8,30.6 59.4,32.3 63,34 C66.2,35.5 69.4,37 72.6,38.4 C75,39.5 77.4,40.5 80,40.8 C81.5,41 83.1,40.9 84.5,40.3 C85.4,39.8 85.8,38.9 85.3,38 C84.9,37.4 84.5,36.8 84,36.3 C83,35.4 81.9,34.5 80.9,33.6 C78.3,31.6 75.6,29.6 73,27.6 C70.2,25.4 68.9,22.4 68.3,19 C68.1,17.9 68,16.7 67.7,15.6 C67.1,13.2 65.9,11.3 63.9,9.8 C62,8.5 59.9,7.8 57.6,7.8 C55.8,7.8 54,7.9 52.3,8.6 C50.7,9.2 49.4,10.1 48.3,11.3 C46.3,13.4 45.6,16 45.4,18.7 Z M7.6,14.4 C7.6,14.4 7.6,14.4 7.6,14.4 C7.6,15.6 7.6,16.7 7.6,17.9 C7.6,20.5 8.4,22.8 9.9,24.8 C11.1,26.3 12.5,27.6 14.1,28.6 C16.4,30.2 18.8,31.6 21.2,33 C23.8,34.6 26.4,36.1 28.9,37.7 C30.7,38.9 32.5,40.2 33.4,42.3 C33.5,42.5 33.8,42.7 34.1,42.7 C35.3,42.7 36.5,42.6 37.7,42.5 C38.3,42.5 38.5,42.2 38.1,41.7 C37.5,40.9 36.9,40 36.1,39.3 C34.4,38 32.7,36.8 30.9,35.7 C29,34.5 26.9,33.5 25,32.3 C22.7,30.9 20.5,29.5 18.3,28 C16.8,27 15.6,25.8 14.5,24.3 C14.4,24.1 14.3,23.9 14.3,23.7 C14.5,23.6 14.7,23.5 14.9,23.5 C16,23.5 17.1,23.5 18.2,23.5 C20,23.4 21.6,22.8 22.7,21.3 C24.2,19.3 24.8,17 24.5,14.5 C24.3,13 23.8,11.7 22.6,10.7 C21.3,9.6 19.8,9.1 18.2,8.9 C16.3,8.7 14.3,8.8 12.4,8.7 C12.1,8.7 11.8,8.7 11.5,8.7 C10.3,8.7 9.2,8.7 8,8.7 C7.7,8.7 7.5,8.9 7.5,9.2 C7.6,11 7.6,12.7 7.6,14.4 Z M101.3,15.2 C101.1,15.1 101,15.1 100.9,15.1 C99.3,15.1 97.7,15.1 96.1,15.1 C95.9,15.1 95.7,15.3 95.5,15.5 C95.1,16.1 94.7,16.7 94.2,17.3 C93.3,18.7 92.2,20 91.9,21.7 C91.9,21.8 91.8,21.9 91.7,22.2 C91.1,21 90.8,19.9 90.8,18.7 C90.8,15.4 90.8,12.2 90.8,8.9 C90.8,8.4 90.6,8.2 90.1,8.2 C89,8.2 87.8,8.2 86.7,8.2 C85.9,8.2 85.9,8.2 85.9,9 C85.9,11.9 85.9,14.8 85.9,17.6 C85.9,19.8 86.4,21.7 87.6,23.5 C88.9,25.6 90.8,27.2 92.9,28.5 C95.9,30.4 98.9,32.1 101.9,33.9 C104.2,35.3 106.5,36.7 108.8,38.1 C109,38.2 109.3,38.3 109.6,38.3 C110.5,38.3 111.5,38.2 112.4,38.2 C112.8,38.2 113.1,38.1 113.6,38.1 C113.4,37.9 113.3,37.8 113.2,37.7 C112.1,37 111,36.2 109.8,35.5 C107.5,34.2 105.2,32.9 102.9,31.6 C100.1,30 97.3,28.3 94.9,26.1 C94.3,25.5 93.7,24.8 93.1,24.2 C93.2,24.1 93.2,24.1 93.3,24 C93.5,24.2 93.8,24.3 94,24.5 C95,25.3 95.9,26.2 97,26.9 C99.3,28.3 101.7,29.6 104.1,30.8 C107,32.3 110,33.6 112.9,35 C114.4,35.7 115.8,36.5 117.3,37.2 C118.2,37.7 119.1,38 120.1,37.9 C121.2,37.8 122.3,37.8 123.4,37.7 C123.5,37.7 123.6,37.6 123.8,37.6 C123.6,37.5 123.5,37.4 123.3,37.3 C121.4,36.4 119.6,35.5 117.7,34.6 C114.5,33.1 111.3,31.6 108.1,30.1 C104.3,28.3 100.7,26.2 97.6,23.2 C97.2,22.8 97,22.4 97.1,21.8 C97.3,21.2 97.3,20.6 97.6,20.1 C98.2,19 98.9,18 99.7,17 C100.1,16.6 100.7,16 101.3,15.2 Z M32.9,14.3 C32.9,14.3 32.9,14.3 32.9,14.3 C32.9,12.6 32.9,10.8 32.9,9.1 C32.9,8.7 32.7,8.6 32.4,8.6 C31.1,8.6 29.7,8.6 28.4,8.6 C27.9,8.6 27.8,8.8 27.8,9.2 C27.8,12.3 27.9,15.5 27.9,18.6 C27.9,19.7 28.2,20.8 28.6,21.8 C29.5,24.2 31.1,26.1 33.1,27.5 C35.5,29.2 38.1,30.9 40.6,32.4 C43.3,34.1 46.2,35.7 48.9,37.4 C50.4,38.3 51.9,39.4 52.9,40.9 C53.3,41.4 53.7,41.6 54.3,41.5 C56.7,41.3 59.2,41.2 61.6,41.1 C63.6,41 65.5,40.9 67.5,40.8 C67.7,40.8 67.9,40.7 68,40.6 C67.9,40.4 67.9,40.2 67.7,40.1 C67.2,39.6 66.7,39.1 66.2,38.7 C63.9,37.2 61.5,35.7 59.2,34.2 C58.7,33.9 58.1,33.7 57.6,33.7 C55,33.7 52.4,33.9 49.9,34 C49.1,34 48.3,33.9 47.5,33.5 C45.9,32.5 44.3,31.6 42.8,30.7 C40.7,29.4 38.6,28.1 36.8,26.4 C34.4,24.1 33,21.4 33,18.1 C32.9,16.8 32.9,15.6 32.9,14.3 Z M76.7,18 C76.7,17.7 76.6,17.5 76.6,17.3 C76.6,16.9 76.5,16.4 76.6,16 C76.6,15.6 76.4,15.5 76,15.5 C74.9,15.5 73.7,15.5 72.6,15.5 C72.1,15.5 72,15.7 72.1,16.1 C72.1,16.7 72.2,17.2 72.2,17.8 C72.2,19.5 72.6,21.1 73.4,22.7 C74.6,25.1 76.5,26.9 78.6,28.3 C81,29.9 83.4,31.4 85.9,32.9 C89.3,34.9 92.7,36.7 95.8,39.1 C95.9,39.2 96.1,39.3 96.3,39.3 C97.5,39.3 98.8,39.2 100,39.2 C100.1,39.2 100.2,39.1 100.4,39 C100.3,38.9 100.3,38.7 100.2,38.7 C98.2,37.4 96.2,36.1 94.1,34.8 C91.3,33.1 88.4,31.5 85.6,29.8 C83.8,28.7 82.2,27.5 80.7,26.1 C79.6,25 78.6,23.8 78.3,22.2 C78.1,21.1 78.4,20.5 79.5,20 C80.3,19.6 81.2,19.7 82,19.7 C82.3,19.7 82.5,19.6 82.5,19.2 C82.5,18.1 82.5,17 82.5,15.9 C82.5,15.5 82.4,15.3 82,15.4 C81.5,15.5 81,15.4 80.6,15.6 C79.9,15.9 79.1,16.1 78.5,16.6 C77.7,16.7 77.3,17.4 76.7,18 Z" id="Shape" fill="#FFFFFF"></path>
                    <path d="M45.4,18.7 C45.6,15.9 46.3,13.4 48.2,11.3 C49.3,10.1 50.6,9.2 52.2,8.6 C53.9,7.9 55.7,7.8 57.5,7.8 C59.8,7.8 61.9,8.5 63.8,9.8 C65.8,11.2 67,13.2 67.6,15.6 C67.9,16.7 68.1,17.8 68.2,19 C68.7,22.4 70.1,25.4 72.9,27.6 C75.5,29.7 78.2,31.6 80.8,33.6 C81.9,34.4 82.9,35.3 83.9,36.3 C84.4,36.8 84.8,37.4 85.2,38 C85.7,38.9 85.4,39.8 84.4,40.3 C83,41 81.5,41 79.9,40.8 C77.3,40.5 74.9,39.4 72.5,38.4 C69.3,37 66.1,35.5 62.9,34 C59.3,32.3 55.8,30.5 52.4,28.4 C50.6,27.2 48.9,26 47.5,24.3 C46.3,22.7 45.4,20.9 45.4,18.7 Z M56.9,11.6 C54.9,11.6 53.3,12.3 52.2,13.8 C51.4,14.8 51.2,16 50.9,17.3 C50.6,19 50.8,20.6 51.5,22.1 C52.4,24.1 54,25.6 55.7,27 C57.9,28.7 60.3,30 62.8,31.2 C65.4,32.5 68,33.7 70.8,34.5 C71.7,34.7 72.6,34.8 73.5,34.9 C73.8,34.9 74.1,34.7 74.2,34.5 C74.3,34.3 74.2,33.9 74,33.7 C73.1,32.8 72.1,31.8 71.1,31 C69.2,29.5 67.3,28 65.6,26.2 C63.9,24.3 63.1,22 62.6,19.6 C62.3,18.3 62.2,17.1 61.9,15.8 C61.5,13.1 59.3,11.4 56.9,11.6 Z" id="Shape" fill="#000000"></path>
                    <path d="M7.6,14.4 C7.6,12.7 7.6,11 7.6,9.3 C7.6,8.9 7.7,8.8 8.1,8.8 C9.3,8.8 10.4,8.8 11.6,8.8 C11.9,8.8 12.2,8.8 12.5,8.8 C14.4,8.8 16.4,8.8 18.3,9 C19.9,9.1 21.5,9.7 22.7,10.8 C23.9,11.8 24.4,13.1 24.6,14.6 C24.9,17.1 24.3,19.4 22.8,21.4 C21.7,22.9 20.1,23.5 18.3,23.6 C17.2,23.7 16.1,23.6 15,23.6 C14.8,23.6 14.6,23.7 14.4,23.8 C14.5,24 14.5,24.2 14.6,24.4 C15.6,25.9 16.9,27.1 18.4,28.1 C20.6,29.6 22.8,31.1 25.1,32.4 C27,33.6 29.1,34.6 31,35.8 C32.8,36.9 34.5,38.1 36.2,39.4 C37,40 37.6,40.9 38.2,41.8 C38.6,42.3 38.4,42.5 37.8,42.6 C36.6,42.7 35.4,42.8 34.2,42.8 C34,42.8 33.6,42.6 33.5,42.4 C32.5,40.4 30.8,39 29,37.8 C26.5,36.2 23.8,34.7 21.3,33.1 C18.9,31.6 16.5,30.2 14.2,28.7 C12.6,27.6 11.2,26.4 10,24.9 C8.4,22.9 7.6,20.5 7.7,18 C7.6,16.7 7.6,15.6 7.6,14.4 C7.6,14.4 7.6,14.4 7.6,14.4 Z M12.6,16 C12.6,16 12.6,16 12.6,16 C12.7,16.9 12.7,17.8 12.6,18.7 C12.6,19 12.7,19.2 13,19.2 C14.2,19.2 15.3,19.3 16.4,19.1 C18.1,18.9 19,18.1 19.1,16.2 C19.1,15.8 19.1,15.3 19,14.9 C18.9,13.9 18.1,13.1 17.2,12.8 C15.8,12.5 14.4,12.5 13.1,12.7 C12.7,12.7 12.6,12.9 12.6,13.3 C12.6,14.3 12.6,15.1 12.6,16 Z" id="Shape" fill="#000000"></path>
                    <path d="M101.3,15.2 C100.7,16 100.1,16.6 99.6,17.4 C98.9,18.4 98.2,19.4 97.5,20.5 C97.2,21 97.1,21.6 97,22.2 C96.8,22.8 97.1,23.2 97.5,23.6 C100.6,26.5 104.2,28.7 108,30.5 C111.2,32 114.4,33.5 117.6,35 C119.5,35.9 121.3,36.8 123.2,37.7 C123.3,37.8 123.5,37.9 123.7,38 C123.5,38.1 123.4,38.1 123.3,38.1 C122.2,38.2 121.1,38.2 120,38.3 C119,38.4 118.1,38.1 117.2,37.6 C115.8,36.8 114.3,36.1 112.8,35.4 C109.9,34 106.9,32.7 104,31.2 C101.6,30 99.2,28.7 96.9,27.3 C95.8,26.6 94.9,25.7 93.9,24.9 C93.7,24.7 93.4,24.6 93.2,24.4 C93.1,24.5 93.1,24.5 93,24.6 C93.6,25.2 94.2,25.9 94.8,26.5 C97.2,28.7 100,30.4 102.8,32 C105.1,33.3 107.4,34.6 109.7,35.9 C110.9,36.6 111.9,37.3 113.1,38.1 C113.2,38.2 113.3,38.3 113.5,38.5 C113,38.6 112.7,38.6 112.3,38.6 C111.4,38.7 110.4,38.7 109.5,38.7 C109.2,38.7 109,38.6 108.7,38.5 C106.4,37.1 104.1,35.7 101.8,34.3 C98.8,32.5 95.8,30.7 92.8,28.9 C90.7,27.6 88.8,26 87.5,23.9 C86.4,22.1 85.8,20.1 85.8,18 C85.9,15.1 85.8,12.2 85.8,9.4 C85.8,8.6 85.8,8.6 86.6,8.6 C87.7,8.6 88.9,8.6 90,8.6 C90.5,8.6 90.7,8.8 90.7,9.3 C90.7,12.6 90.7,15.8 90.7,19.1 C90.7,20.3 91,21.5 91.6,22.6 C91.7,22.4 91.8,22.3 91.8,22.1 C92.1,20.4 93.1,19.1 94.1,17.7 C94.5,17.1 94.9,16.5 95.4,15.9 C95.5,15.7 95.8,15.5 96,15.5 C97.6,15.5 99.2,15.5 100.8,15.5 C101.1,15.1 101.1,15.1 101.3,15.2 Z" id="Shape" fill="#000000"></path>
                    <path d="M32.9,14.3 C32.9,15.6 32.9,16.9 32.9,18.2 C32.9,21.6 34.3,24.3 36.7,26.5 C38.5,28.2 40.6,29.5 42.7,30.8 C44.3,31.8 45.9,32.7 47.4,33.6 C48.1,34.1 49,34.2 49.8,34.1 C52.4,34 55,33.9 57.5,33.8 C58,33.8 58.7,34 59.1,34.3 C61.5,35.8 63.8,37.3 66.1,38.8 C66.7,39.2 67.1,39.7 67.6,40.2 C67.7,40.3 67.8,40.5 67.9,40.7 C67.7,40.8 67.5,40.9 67.4,40.9 C65.4,41 63.5,41.1 61.5,41.2 C59,41.3 56.6,41.5 54.2,41.6 C53.6,41.6 53.2,41.5 52.8,41 C51.8,39.5 50.3,38.4 48.8,37.5 C46.1,35.8 43.2,34.2 40.5,32.5 C37.9,30.9 35.4,29.3 33,27.6 C31,26.2 29.4,24.3 28.5,21.9 C28.1,20.9 27.8,19.8 27.8,18.7 C27.8,15.6 27.8,12.4 27.7,9.3 C27.7,8.9 27.8,8.7 28.3,8.7 C29.6,8.7 31,8.7 32.3,8.7 C32.6,8.7 32.8,8.8 32.8,9.2 C32.9,10.8 32.9,12.6 32.9,14.3 C32.9,14.3 32.9,14.3 32.9,14.3 Z" id="Shape" fill="#000000"></path>
                    <path d="M76.7,18 C77.3,17.4 77.7,16.7 78.3,16.3 C78.9,15.9 79.7,15.6 80.4,15.3 C80.8,15.2 81.3,15.2 81.8,15.1 C82.2,15 82.3,15.2 82.3,15.6 C82.3,16.7 82.3,17.8 82.3,18.9 C82.3,19.3 82.1,19.4 81.8,19.4 C80.9,19.4 80.1,19.4 79.3,19.7 C78.3,20.1 77.9,20.8 78.1,21.9 C78.4,23.5 79.4,24.7 80.5,25.8 C82,27.3 83.6,28.5 85.4,29.5 C88.2,31.2 91.1,32.8 93.9,34.5 C96,35.8 98,37.1 100,38.4 C100.1,38.5 100.2,38.6 100.2,38.7 C100.1,38.8 100,38.9 99.8,38.9 C98.6,39 97.3,39 96.1,39 C95.9,39 95.8,38.9 95.6,38.8 C92.5,36.4 89.1,34.6 85.7,32.6 C83.2,31.1 80.8,29.6 78.4,28 C76.2,26.5 74.3,24.8 73.2,22.4 C72.5,20.9 72,19.2 72,17.5 C72,16.9 71.9,16.4 71.9,15.8 C71.9,15.4 72,15.2 72.4,15.2 C73.5,15.2 74.7,15.2 75.8,15.2 C76.1,15.2 76.4,15.3 76.4,15.7 C76.4,16.1 76.4,16.6 76.4,17 C76.6,17.5 76.7,17.7 76.7,18 Z" id="Shape" fill="#000000"></path>
                    <path d="M56.9,11.6 C59.3,11.5 61.5,13.1 62.1,15.6 C62.4,16.8 62.5,18.1 62.8,19.4 C63.3,21.8 64.1,24.1 65.8,26 C67.4,27.8 69.4,29.3 71.3,30.8 C72.3,31.6 73.3,32.6 74.2,33.5 C74.4,33.7 74.5,34.1 74.4,34.3 C74.3,34.5 73.9,34.8 73.7,34.7 C72.8,34.6 71.8,34.6 71,34.3 C68.2,33.5 65.6,32.3 63,31 C60.5,29.8 58.1,28.5 55.9,26.8 C54.2,25.5 52.6,24 51.7,21.9 C51,20.4 50.8,18.8 51.1,17.1 C51.3,15.9 51.6,14.6 52.4,13.6 C53.3,12.3 54.9,11.6 56.9,11.6 Z" id="Shape" fill="#FFFFFF"></path>
                    <path d="M12.6,16 C12.6,15.1 12.6,14.2 12.6,13.3 C12.6,12.9 12.7,12.7 13.1,12.7 C14.5,12.6 15.9,12.5 17.2,12.8 C18.1,13 18.9,13.9 19,14.9 C19.1,15.3 19.1,15.8 19.1,16.2 C19,18.1 18.1,18.9 16.4,19.1 C15.3,19.3 14.1,19.2 13,19.2 C12.6,19.2 12.6,19 12.6,18.7 C12.6,17.9 12.6,16.9 12.6,16 C12.6,16 12.6,16 12.6,16 Z" id="Shape" fill="#FFFFFF"></path>
                </g>
            </g>
        </g>
    </g>
</svg>