<?xml version="1.0" encoding="UTF-8"?>
<svg width="162px" height="42px" viewBox="0 0 162 42" version="1.1" xmlns="http://www.w3.org/2000/svg" xmlns:xlink="http://www.w3.org/1999/xlink">
    <!-- Generator: Sketch 49.3 (51167) - http://www.bohemiancoding.com/sketch -->
    <title>wrX4JR_1_</title>
    <desc>Created with Sketch.</desc>
    <defs></defs>
    <g id="Page-1" stroke="none" stroke-width="1" fill="none" fill-rule="evenodd">
        <g id="plork-logos" transform="translate(-267.000000, -95.000000)" fill-rule="nonzero">
            <g id="wrX4JR_1_" transform="translate(267.000000, 95.000000)">
                <g id="Group">
                    <path d="M0.7,41.3 C0.7,27.7 0.7,14.1 0.7,0.4 C54.4,0.4 108.1,0.4 161.9,0.4 C161.9,14 161.9,27.6 161.9,41.3 C108.2,41.3 54.4,41.3 0.7,41.3 Z M96.3,36.1 C99,36.3 101.3,35.7 103.4,34.3 C104.9,33.3 106.3,31.1 105.5,29.1 C104.9,27.6 103.9,26.4 102.8,25.3 C101.2,23.7 99.5,22.2 97.9,20.6 C95.5,18.3 93.6,15.5 91.6,12.8 C89.7,10.2 87.4,8.1 85,6 C83.1,4.4 80.8,3.4 78.5,2.4 C76.5,1.5 74.4,1.2 72.4,2.1 C70.8,2.8 69.3,3.5 67.8,4.4 C66.2,5.3 64.8,6.5 64.2,8.3 C62.9,12.5 63.9,16.1 66.8,19.3 C69,21.7 71.6,23.5 74.3,25.2 C77.9,27.6 81.6,29.9 85.2,32.4 C88.6,34.7 92.3,36.2 96.3,36.1 Z M153.8,38.7 C153.8,38.6 153.8,38.5 153.8,38.5 C152.4,36 151,33.6 149.1,31.6 C146.7,29.1 143.8,27.5 140.8,25.8 C139.2,24.9 137.5,24.2 136.6,22.2 C135.5,19.5 134.9,16.9 135.7,14.1 C135.9,13.3 135.8,13.2 135,13.2 C133.2,13.2 131.3,13.2 129.5,13.2 C128.9,13.2 128.6,13.5 128.5,14 C128,16.5 128.2,18.9 129.4,21.1 C129.7,21.6 129.9,22.1 130.1,22.6 C129.8,22.6 129.6,22.6 129.5,22.5 C128,20.9 126.4,19.4 124.9,17.8 C123.3,16 122.6,13.8 121.6,11.7 C120.2,8.8 119.4,5.8 119,2.6 C118.9,1.9 118.6,1.6 117.9,1.7 C116.4,1.8 115,1.9 113.5,2 C112.7,2.1 112.5,2.3 112.7,3.1 C112.9,4.5 113.1,5.8 113.4,7.2 C113.8,8.7 114.4,10.1 115,11.5 C115.7,13.2 116.5,14.9 117.4,16.5 C118.8,19 120.9,20.8 123,22.6 C125.1,24.4 127.4,26.2 129.5,28 C131.2,29.5 132.5,31.4 133,33.7 C133.2,34.8 133.4,36 133.5,37.1 C133.5,37.5 133.6,37.7 134,37.7 C135.7,37.8 137.4,37.9 139.1,38 C139.5,38 139.8,37.9 139.8,37.4 C139.9,34.8 139.3,32.4 137.9,30.2 C136.9,28.6 135.5,27.5 134,26.3 C133.7,26.1 133.5,25.8 133.3,25.6 C133.3,25.6 133.4,25.5 133.4,25.5 C134.6,26.2 135.8,26.8 137,27.5 C138.5,28.5 140,29.6 141.4,30.8 C143.4,32.7 144.8,35 146,37.5 C146.3,38.2 146.8,38.4 147.5,38.4 C149,38.5 150.4,38.6 151.8,38.7 C152.6,38.7 153.2,38.7 153.8,38.7 Z M26.6,21.9 C27.1,21.8 27.3,21.8 27.6,21.8 C29.9,21.7 32.2,21.8 34.4,21.5 C36.3,21.3 37.7,20 37.2,17.8 C36.9,16.3 36.4,14.9 35.9,13.5 C34.8,10.7 33,8.5 30.6,6.7 C27.8,4.7 24.6,4 21.2,4 C19.8,4 18.4,4 17,4 C15.1,4 13.2,4.1 11.3,4.1 C10.9,4.1 10.4,4.1 10.6,4.7 C10.8,5.8 11,7 11.4,8.1 C11.9,9.4 12.5,10.7 13,12 C14.3,15.6 16.4,18.7 19.4,21.1 C21.4,22.7 23.3,24.4 25.2,26.1 C26.5,27.2 28,28.3 28.7,29.7 C29.7,31.4 30.9,31.8 32.6,31.8 C33.8,31.8 35.1,31.8 36.3,31.8 C36.2,30.9 35,29.1 33.9,28.1 C32,26.5 30,24.8 28.1,23.2 C27.8,23 27.3,22.5 26.6,21.9 Z M40.4,3.8 C40.4,3.8 40.4,3.8 40.4,3.8 C39.5,3.8 38.6,3.8 37.6,3.8 C37.2,3.8 36.9,3.9 37,4.3 C37.2,5.6 37.4,6.8 37.8,8 C38.2,9.4 38.9,10.7 39.4,12.1 C40.4,14.6 41.6,16.9 43.5,18.9 C46.2,21.8 49.3,24.1 52.3,26.7 C54.1,28.3 55.8,30 56.7,32.3 C56.9,32.9 57.3,33.1 57.9,33.2 C62,33.4 66.1,33.6 70.2,33.8 C72.4,33.9 74.5,34 76.6,34.2 C77,34.2 77.4,34.2 77.2,33.7 C76.6,32.3 75.9,30.9 75.1,29.5 C74.9,29.2 74.4,28.9 74,28.9 C69.7,28.7 65.5,28.6 61.2,28.4 C60.8,28.4 60.4,28.2 60.1,28 C59.2,27.3 58.4,26.5 57.5,25.8 C55.8,24.3 54,22.8 52.3,21.4 C50.7,20.1 49.2,18.6 48.3,16.8 C47.2,14.8 46.3,12.7 45.3,10.6 C44.3,8.6 43.8,6.6 43.6,4.4 C43.6,4 43.4,3.9 43,3.9 C42.3,3.8 41.4,3.8 40.4,3.8 Z M105.8,16.8 C105.7,16.8 105.6,16.9 105.6,16.9 C105.1,16.1 104.6,15.2 104.2,14.3 C103.9,13.6 103.5,13.3 102.7,13.4 C101.4,13.5 100,13.4 98.7,13.4 C98.5,13.4 98.3,13.5 98.1,13.5 C98.2,13.7 98.2,14 98.3,14.2 C99.8,16.8 101.6,19.2 103.8,21.1 C106.1,23.1 108.5,25 110.9,27 C112.2,28.1 113.4,29.3 114.2,30.8 C115,32.3 115.5,33.9 115.6,35.6 C115.6,36.2 115.9,36.5 116.6,36.6 C118.2,36.7 119.8,36.8 121.4,36.9 C121.9,36.9 122.1,36.8 122,36.3 C121.9,35.4 121.8,34.5 121.6,33.6 C121.2,32.1 120.6,30.6 119.6,29.5 C118.1,28 116.5,26.6 114.9,25.2 C113.6,24 112.3,22.7 111.1,21.4 C110.8,21.1 110.7,20.4 110.9,20.1 C111.1,19.7 111.6,19.5 112.1,19.3 C112.5,19.2 113,19.3 113.4,19.3 C113.9,19.3 114.3,19.3 114.9,19.2 C114.6,18.8 114.3,18.5 114.1,18.1 C113.4,17 112.6,16 112,14.9 C110.9,12.6 111.2,13 109.1,13.3 C107,13.5 106.1,14.5 106,16.6 C105.9,16.6 105.9,16.7 105.8,16.8 Z" id="Shape" fill="#FFFFFF"></path>
                    <path d="M96.3,36.1 C92.3,36.2 88.6,34.7 85.2,32.4 C81.6,29.9 77.9,27.6 74.3,25.2 C71.6,23.4 69,21.7 66.8,19.3 C63.9,16.1 62.9,12.4 64.2,8.3 C64.8,6.5 66.3,5.3 67.8,4.4 C69.3,3.5 70.8,2.8 72.4,2.1 C74.5,1.2 76.5,1.5 78.5,2.4 C80.8,3.4 83.1,4.4 85,6 C87.4,8.1 89.8,10.2 91.6,12.8 C93.6,15.5 95.5,18.3 97.9,20.6 C99.5,22.2 101.2,23.7 102.8,25.3 C103.9,26.4 105,27.6 105.5,29.1 C106.3,31.2 104.8,33.4 103.4,34.3 C101.3,35.7 99,36.3 96.3,36.1 Z M93.9,30.9 C94.7,30.7 95.6,30.6 96.4,30.4 C97.2,30.2 97.7,29.5 97.5,28.7 C97.4,28.2 97.3,27.6 96.9,27.2 C95.6,25.7 94.3,24.1 92.9,22.7 C90.4,20.3 88,17.8 86,14.9 C84.9,13.3 83.6,11.8 82.2,10.6 C79.9,8.5 77.2,7.6 74.1,8.1 C72.6,8.3 71.2,9.4 70.9,10.6 C70.4,12.7 70.7,14.7 71.7,16.6 C72.8,18.7 74.5,20.4 76.3,21.8 C80,24.7 84,27.2 88.3,29.2 C90.2,30.1 91.9,30.8 93.9,30.9 Z" id="Shape" fill="#000000"></path>
                    <path d="M153.8,38.7 C153.2,38.7 152.6,38.7 152,38.7 C150.5,38.6 149.1,38.5 147.7,38.4 C147,38.4 146.5,38.2 146.2,37.5 C145.1,35 143.7,32.6 141.6,30.8 C140.3,29.6 138.7,28.5 137.2,27.5 C136.1,26.7 134.8,26.1 133.6,25.5 C133.6,25.5 133.5,25.6 133.5,25.6 C133.7,25.8 134,26.1 134.2,26.3 C135.6,27.5 137,28.6 138.1,30.2 C139.5,32.4 140.1,34.8 140,37.4 C140,37.9 139.7,38 139.3,38 C137.6,37.9 135.9,37.8 134.2,37.7 C133.8,37.7 133.7,37.4 133.7,37.1 C133.6,35.9 133.4,34.8 133.2,33.7 C132.7,31.4 131.5,29.5 129.7,28 C127.6,26.2 125.3,24.4 123.2,22.6 C121.1,20.8 119,19 117.6,16.5 C116.7,14.9 115.9,13.2 115.2,11.5 C114.6,10.1 114,8.7 113.6,7.2 C113.2,5.9 113.1,4.5 112.9,3.1 C112.8,2.3 112.9,2.1 113.7,2 C115.2,1.9 116.6,1.8 118.1,1.7 C118.7,1.7 119.1,1.9 119.2,2.6 C119.6,5.8 120.3,8.8 121.8,11.7 C122.8,13.8 123.6,16 125.1,17.8 C126.6,19.4 128.2,20.9 129.7,22.5 C129.8,22.6 130,22.6 130.3,22.6 C130.1,22.1 129.9,21.6 129.6,21.1 C128.4,18.8 128.2,16.4 128.7,14 C128.8,13.4 129,13.2 129.7,13.2 C131.5,13.2 133.4,13.2 135.2,13.2 C136,13.2 136.1,13.3 135.9,14.1 C135.1,16.9 135.7,19.6 136.8,22.2 C137.6,24.2 139.4,24.8 141,25.8 C143.9,27.5 146.9,29.1 149.3,31.6 C151.3,33.7 152.7,36.1 154,38.5 C153.9,38.5 153.8,38.5 153.8,38.7 Z" id="Shape" fill="#000000"></path>
                    <path d="M26.6,21.9 C27.3,22.5 27.8,23 28.3,23.4 C30.2,25 32.2,26.7 34.1,28.3 C35.2,29.2 36.4,31.1 36.5,32 C35.3,32 34,32 32.8,32 C31.1,32 29.9,31.6 28.9,29.9 C28.1,28.5 26.6,27.5 25.4,26.3 C23.5,24.6 21.5,22.9 19.6,21.3 C16.6,18.8 14.5,15.8 13.2,12.2 C12.7,10.9 12,9.6 11.6,8.3 C11.2,7.2 11,6.1 10.8,4.9 C10.7,4.3 11.1,4.3 11.5,4.3 C13.4,4.3 15.3,4.2 17.2,4.2 C18.6,4.2 20,4.2 21.4,4.2 C24.8,4.2 28,4.8 30.8,6.9 C33.2,8.7 35,10.9 36.1,13.7 C36.7,15.1 37.1,16.5 37.4,18 C37.9,20.2 36.5,21.4 34.6,21.7 C32.4,22 30.1,21.9 27.8,22 C27.4,21.8 27.1,21.8 26.6,21.9 Z M21.3,9.3 C20.7,9.3 20.2,9.4 19.8,9.4 C18.6,9.5 18.5,9.5 19,10.6 C20,12.7 21,14.8 22,16.8 C22.1,17.1 22.5,17.4 22.8,17.4 C24.5,17.4 26.2,17.4 27.9,17.3 C29,17.2 29.5,16.5 29.3,15.4 C29.2,14.7 29,14.1 28.8,13.5 C28.3,12.4 27.7,11.3 26.6,10.6 C24.9,9.4 23.1,9.2 21.3,9.3 Z" id="Shape" fill="#000000"></path>
                    <path d="M40.4,3.8 C41.3,3.8 42.2,3.8 43.2,3.8 C43.6,3.8 43.8,3.9 43.8,4.3 C44,6.5 44.5,8.6 45.5,10.5 C46.5,12.5 47.4,14.7 48.5,16.7 C49.5,18.5 51,20 52.5,21.3 C54.2,22.8 56,24.2 57.7,25.7 C58.6,26.4 59.4,27.2 60.3,27.9 C60.6,28.1 61,28.3 61.4,28.3 C65.7,28.5 69.9,28.6 74.2,28.8 C74.6,28.8 75.1,29.1 75.3,29.4 C76.1,30.8 76.8,32.2 77.4,33.6 C77.6,34.1 77.1,34.1 76.8,34.1 C74.7,34 72.5,33.9 70.4,33.7 C66.3,33.5 62.2,33.3 58.1,33.1 C57.5,33.1 57.1,32.9 56.9,32.2 C56,29.9 54.3,28.2 52.5,26.6 C49.5,24 46.4,21.7 43.7,18.8 C41.9,16.8 40.7,14.5 39.6,12 C39,10.6 38.4,9.3 38,7.9 C37.6,6.7 37.4,5.4 37.2,4.2 C37.1,3.8 37.4,3.7 37.8,3.7 C38.6,3.9 39.5,3.9 40.4,3.8 C40.4,3.8 40.4,3.8 40.4,3.8 Z" id="Shape" fill="#000000"></path>
                    <path d="M105.8,16.8 C105.8,16.7 105.9,16.6 105.9,16.5 C106.1,14.4 107,13.5 109,13.2 C111.1,13 110.8,12.6 111.9,14.8 C112.4,15.9 113.3,17 114,18 C114.2,18.3 114.5,18.6 114.8,19.1 C114.2,19.1 113.8,19.2 113.3,19.2 C112.9,19.2 112.4,19.1 112,19.2 C111.6,19.3 111,19.6 110.8,20 C110.6,20.3 110.7,21 111,21.3 C112.2,22.6 113.5,23.8 114.8,25.1 C116.3,26.6 118,27.9 119.5,29.4 C120.6,30.5 121.2,32 121.5,33.5 C121.7,34.4 121.8,35.3 121.9,36.2 C122,36.7 121.7,36.8 121.3,36.8 C119.7,36.7 118.1,36.6 116.5,36.5 C115.8,36.5 115.6,36.2 115.5,35.5 C115.4,33.8 114.9,32.2 114.1,30.7 C113.3,29.2 112.1,28 110.8,26.9 C108.5,24.9 106.1,23 103.7,21 C101.4,19 99.6,16.7 98.2,14.1 C98.1,13.9 98.1,13.7 98,13.4 C98.2,13.4 98.4,13.3 98.6,13.3 C99.9,13.3 101.3,13.4 102.6,13.3 C103.4,13.3 103.8,13.5 104.1,14.2 C104.5,15.1 105.1,15.9 105.5,16.8 C105.7,16.9 105.8,16.9 105.8,16.8 Z" id="Shape" fill="#000000"></path>
                    <path d="M93.9,30.9 C91.9,30.9 90.1,30.1 88.4,29.3 C84.1,27.3 80.1,24.8 76.4,21.9 C74.6,20.5 72.9,18.8 71.8,16.7 C70.8,14.8 70.4,12.8 71,10.7 C71.3,9.5 72.7,8.4 74.2,8.2 C77.3,7.7 80,8.7 82.3,10.7 C83.7,12 85,13.5 86.1,15 C88.1,17.9 90.5,20.4 93,22.8 C94.4,24.2 95.7,25.7 97,27.3 C97.3,27.7 97.5,28.3 97.6,28.8 C97.7,29.6 97.3,30.3 96.5,30.5 C95.6,30.6 94.8,30.7 93.9,30.9 Z" id="Shape" fill="#FFFFFF"></path>
                    <path d="M21.3,9.3 C23.1,9.3 24.9,9.4 26.6,10.6 C27.7,11.3 28.2,12.4 28.8,13.5 C29.1,14.1 29.2,14.8 29.3,15.4 C29.5,16.5 29,17.2 27.9,17.3 C26.2,17.4 24.5,17.4 22.8,17.4 C22.5,17.4 22.1,17.1 22,16.8 C21,14.7 19.9,12.7 19,10.6 C18.5,9.5 18.6,9.5 19.8,9.4 C20.2,9.3 20.7,9.3 21.3,9.3 Z" id="Shape" fill="#FFFFFF"></path>
                </g>
            </g>
        </g>
    </g>
</svg>