<?xml version="1.0" encoding="UTF-8"?>
<svg width="126px" height="51px" viewBox="0 0 126 51" version="1.1" xmlns="http://www.w3.org/2000/svg" xmlns:xlink="http://www.w3.org/1999/xlink">
    <!-- Generator: Sketch 49.3 (51167) - http://www.bohemiancoding.com/sketch -->
    <title>hfaYz1_1_</title>
    <desc>Created with Sketch.</desc>
    <defs></defs>
    <g id="Page-1" stroke="none" stroke-width="1" fill="none" fill-rule="evenodd">
        <g id="plork-logos" transform="translate(-2.000000, -97.000000)" fill-rule="nonzero">
            <g id="hfaYz1_1_" transform="translate(2.000000, 97.000000)">
                <g id="Group">
                    <path d="M0.1,50.1 C0.1,33.7 0.1,17.3 0.1,0.9 C41.9,0.9 83.7,0.9 125.4,0.9 C125.4,17.3 125.4,33.7 125.4,50.1 C83.7,50.1 41.9,50.1 0.1,50.1 Z M63,5.8 C61.8,6 60.6,6.1 59.4,6.4 C58.5,6.6 58.1,7.7 58.3,8.6 C58.5,9.8 58.8,11 58.8,12.2 C58.6,15.7 57.6,18.9 56,22 C55.2,23.5 54.5,25 53.8,26.6 C53.1,28.4 52.5,30.4 51.8,32.2 C51.1,34 50.7,35.9 50.8,37.8 C50.9,40.2 51.8,42 53.8,43.3 C55.2,44.2 56.7,44.6 58.3,44.8 C61.9,45.1 65.2,44.7 68.2,42.6 C70,41.4 71.3,39.8 72,37.7 C72.6,36.1 72.9,34.3 73.8,32.8 C75,30.6 76.5,28.5 78,26.4 C79.6,24.2 81.4,22.1 82.5,19.6 C83.3,17.9 83.6,16.2 83.4,14.4 C83.3,13.7 83,13.1 82.7,12.5 C81.7,10.9 80.1,10 78.4,9.4 C76.2,8.5 74,7.8 71.7,7.2 C68.9,6.3 65.9,6 63,5.8 Z M106.3,23.2 C106.4,23.2 106.4,23.3 106.5,23.3 C106.5,23.5 106.5,23.7 106.4,24 C106.1,25.4 105.8,26.7 105.5,28.1 C105.2,29.4 104.8,30.6 104.4,31.9 C103.8,33.7 103.2,35.5 103.3,37.5 C103.4,39.2 103.8,40.9 104.4,42.5 C104.7,43.4 105.2,43.6 106,43.5 C107.3,43.4 108.7,43.4 110,43.4 C111.2,43.4 111.2,43.4 110.7,42.3 C109.5,39.7 109,37 109.7,34.1 C110,33 110.5,31.9 110.8,30.8 C111.3,28.1 111.8,25.4 112.2,22.7 C112.3,22.3 112.5,22 112.7,21.7 C113.4,21 114.3,20.4 115,19.7 C116.6,18.2 118.3,16.8 119.9,15.3 C120.3,15 120.6,14.5 120.9,14.1 C120.7,14 120.6,14 120.5,14 C118.7,14 117,13.9 115.2,13.9 C115,13.9 114.8,14 114.7,14.2 C114.3,14.6 113.9,15.1 113.5,15.5 C112,17 110.4,18.6 108.9,20.1 C108.5,20.5 108,20.8 107.5,21.2 C107.4,21 107.4,20.9 107.4,20.8 C108.2,19.1 108.9,17.4 109.1,15.6 C109.2,14.4 109.4,13.3 108.9,12.1 C108.2,10.3 106.7,9.1 105.2,8.1 C104.7,7.8 104.2,7.4 103.6,7.4 C102.1,7.3 100.6,7.3 99.1,7.3 C99,7.3 98.8,7.4 98.6,7.4 C99.5,8.1 100.4,8.7 101.2,9.4 C102.7,10.7 103.8,12.3 103.5,14.5 C103.2,16.7 102.7,18.9 101.6,20.8 C100.7,22.5 99.8,24 98.9,25.7 C97.8,27.8 96.6,29.9 95.6,32.1 C95,33.4 94.5,34.9 94.2,36.3 C93.8,38.5 93.5,40.7 93.2,42.9 C93.1,43.8 93.2,44 94.1,43.9 C94.4,43.9 94.6,43.9 94.9,43.9 C96,43.9 97.1,43.8 98.2,43.8 C98.4,43.8 98.7,43.6 98.8,43.4 C99.1,41.6 99.3,39.8 99.6,37.9 C99.8,36.3 100,34.7 100.7,33.3 C102,30.7 103.3,28 104.7,25.4 C105.4,24.5 105.9,23.9 106.3,23.2 Z M6.2,5 C6.2,5 6.2,5.1 6.2,5.1 C6.3,5.2 6.4,5.3 6.5,5.3 C8.6,6.2 10.5,7.3 12.3,8.6 C13.7,9.6 15,10.8 15.6,12.5 C16.2,14.1 16.1,15.7 15.9,17.3 C15.8,18.2 15.5,19.2 15,20 C14.1,21.6 13.1,23.1 12,24.6 C10.5,26.7 9.3,29.1 8.1,31.4 C7.1,33.3 6.5,35.2 6.3,37.3 C6,39.7 5.6,42.1 5.2,44.5 C5.1,45 5.3,45.2 5.8,45.2 C7.2,45.2 8.7,45.1 10.1,45.1 C10.5,45.1 10.7,44.9 10.8,44.5 C11.1,42.5 11.5,40.6 11.7,38.6 C12,35.7 12.8,33 14.2,30.4 C15.5,27.9 16.8,25.5 18.6,23.2 C18.9,22.8 19.2,22.6 19.8,22.6 C20.8,22.6 21.8,22.6 22.8,22.5 C23.6,22.5 24.4,22.4 25.2,22.3 C26.9,22 28.5,21.4 30,20.5 C31.8,19.5 33.4,18.2 34.3,16.3 C34.9,15 35.4,13.7 34.7,12.3 C34.2,11.2 33.6,10.4 32.6,9.7 C30.7,8.4 28.6,7.5 26.3,6.9 C22.4,5.7 18.4,5.1 14.4,5 C12.3,5 10.1,4.9 8,4.8 C7.4,5 6.8,5 6.2,5 Z M30.4,5.7 C30.4,5.8 30.4,5.8 30.4,5.9 C30.5,5.9 30.5,6 30.6,6 C32.9,7 35.1,8.3 36.8,10.1 C37.7,11 38.3,12 38.5,13.3 C38.8,16.1 38.4,18.8 36.8,21.3 C35.8,23 34.6,24.6 33.6,26.2 C32.8,27.6 32.1,29.1 31.3,30.6 C30.5,32.1 29.7,33.6 29.4,35.3 C28.9,38.2 28.5,41 28.1,43.9 C28,44.8 28.1,44.9 29,44.9 C30.6,44.8 32.3,44.8 33.9,44.8 C37.5,44.7 41.1,44.7 44.7,44.6 C45.1,44.6 45.4,44.5 45.4,44 C45.6,42.4 45.8,40.8 46.1,39.3 C46.2,38.9 46,38.7 45.6,38.8 C43.4,38.9 41.2,38.9 38.9,39 C37.6,39 36.3,39.1 35.1,39.1 C34.8,39.1 34.5,39 34.5,38.6 C34.7,37.5 34.8,36.3 35.1,35.2 C35.6,32.9 36.7,30.9 37.8,28.9 C38.9,26.9 40.1,25 41.3,23 C42.4,21.3 43.4,19.5 43.9,17.5 C44.1,16.8 44.1,16.1 44.2,15.4 C44.5,13.2 43.8,11.3 42.2,9.9 C40.8,8.7 39.2,7.8 37.7,6.7 C36.5,5.9 35.2,5.6 33.7,5.7 C32.8,5.8 31.9,5.7 30.9,5.7 C30.8,5.6 30.6,5.7 30.4,5.7 Z M93.1,16.5 C93.2,15.7 93.2,15 93.3,14.3 C93.4,13.8 93.1,13.7 92.7,13.7 C91.7,13.7 90.7,13.7 89.7,13.7 C88.3,13.7 88.3,13.7 88.2,15.1 C88.1,17.4 87.3,19.4 86.3,21.4 C84.7,24.4 83.1,27.4 81.5,30.4 C80.5,32.2 79.6,34.1 79.3,36.2 C79,38.5 78.6,40.8 78.3,43.1 C78.2,44 78.3,44.1 79.1,44.1 C80.3,44.1 81.5,44.1 82.7,44 C83.7,44 83.7,43.9 83.8,43 C83.8,42.8 83.8,42.6 83.9,42.4 C84.1,41 84.4,39.6 84.6,38.1 C84.8,35.9 85.3,33.9 86.3,32 C88,28.5 89.7,25 91.9,21.7 C93,20.1 94.2,18.8 96.2,18.6 C96.9,18.5 97.7,18.5 98.4,18.4 C98.7,18.4 99.1,18.2 99.2,18 C99.5,16.7 99.7,15.4 100,14.1 C100,14 99.8,13.7 99.7,13.7 C98.2,13.6 96.8,13.8 95.6,14.6 C94.5,15 93.9,15.7 93.1,16.5 Z" id="Shape" fill="#FFFFFF"></path>
                    <path d="M63,5.8 C66,6 68.9,6.4 71.8,7.2 C74.1,7.9 76.3,8.6 78.5,9.4 C80.2,10.1 81.8,11 82.8,12.5 C83.2,13.1 83.5,13.7 83.5,14.4 C83.7,16.2 83.4,18 82.6,19.6 C81.4,22.1 79.6,24.2 78.1,26.4 C76.6,28.5 75.2,30.6 73.9,32.8 C73.1,34.3 72.7,36 72.1,37.7 C71.4,39.7 70.1,41.3 68.3,42.6 C65.3,44.7 61.9,45.1 58.4,44.8 C56.8,44.7 55.2,44.2 53.9,43.3 C51.9,42 51,40.2 50.9,37.8 C50.8,35.8 51.2,34 51.9,32.2 C52.6,30.3 53.1,28.4 53.9,26.6 C54.5,25 55.3,23.5 56.1,22 C57.7,18.9 58.7,15.7 58.9,12.2 C59,11 58.7,9.8 58.4,8.6 C58.2,7.7 58.6,6.6 59.5,6.4 C60.6,6.1 61.8,6 63,5.8 Z M68.8,9.4 C68.4,9.4 68,9.4 67.5,9.4 C66.2,9.5 65.4,10.1 65.2,11.4 C65,12.6 64.7,13.9 64.5,15.1 C64.2,16.2 64,17.4 63.6,18.4 C62.9,20.3 62,22.1 61.1,23.9 C60.3,25.6 59.5,27.4 59.2,29.3 C59,30.6 58.5,31.8 58.2,33.1 C57.8,34.6 57.5,36.1 57.9,37.7 C58.2,39 59.4,39.9 60.4,40 C62.8,40.3 65,39.3 65.8,36.7 C66.6,34.3 67.8,32.1 69.4,30 C71.7,27.1 73.8,24.1 75.9,21 C77,19.5 77.5,17.7 77.5,15.8 C77.5,14.3 77.2,12.9 76,11.9 C73.9,10.1 71.4,9.4 68.8,9.4 Z" id="Shape" fill="#000000"></path>
                    <path d="M106.3,23.2 C105.9,23.8 105.5,24.4 105.1,25.1 C103.8,27.7 102.4,30.3 101.1,33 C100.4,34.4 100.2,36 100,37.6 C99.8,39.4 99.5,41.2 99.2,43.1 C99.2,43.3 98.8,43.5 98.6,43.5 C97.5,43.6 96.4,43.6 95.3,43.6 C95,43.6 94.8,43.6 94.5,43.6 C93.6,43.6 93.5,43.5 93.6,42.6 C93.9,40.4 94.2,38.2 94.6,36 C94.9,34.6 95.4,33.1 96,31.8 C97,29.6 98.1,27.5 99.3,25.4 C100.2,23.8 101.1,22.2 102,20.5 C103,18.5 103.6,16.4 103.9,14.2 C104.2,12 103.1,10.5 101.6,9.1 C100.8,8.4 99.9,7.8 99,7.1 C99.2,7.1 99.3,7 99.5,7 C101,7 102.5,7 104,7.1 C104.5,7.1 105.1,7.5 105.6,7.8 C107.2,8.8 108.6,10 109.3,11.8 C109.8,12.9 109.6,14.1 109.5,15.3 C109.3,17.1 108.6,18.8 107.8,20.5 C107.8,20.6 107.8,20.7 107.9,20.9 C108.4,20.5 108.8,20.2 109.3,19.8 C110.9,18.3 112.4,16.7 113.9,15.2 C114.3,14.8 114.7,14.3 115.1,13.9 C115.2,13.8 115.4,13.6 115.6,13.6 C117.4,13.6 119.1,13.6 120.9,13.7 C121,13.7 121.1,13.8 121.3,13.8 C120.9,14.3 120.6,14.7 120.3,15 C118.7,16.5 117.1,17.9 115.4,19.4 C114.6,20.1 113.8,20.7 113.1,21.4 C112.8,21.6 112.6,22 112.6,22.4 C112.1,25.1 111.7,27.8 111.2,30.5 C111,31.6 110.4,32.7 110.1,33.8 C109.3,36.6 109.9,39.4 111.1,42 C111.6,43.1 111.6,43.1 110.4,43.1 C109.1,43.1 107.7,43.1 106.4,43.2 C105.6,43.2 105.1,43.1 104.8,42.2 C104.2,40.6 103.8,38.9 103.7,37.2 C103.6,35.2 104.2,33.4 104.8,31.6 C105.2,30.3 105.6,29.1 105.9,27.8 C106.3,26.4 106.5,25.1 106.8,23.7 C106.8,23.5 106.9,23.3 106.9,23 C106.4,23.3 106.3,23.3 106.3,23.2 Z" id="Shape" fill="#000000"></path>
                    <path d="M6.2,5 C6.8,5 7.4,5 8,5 C10.1,5.1 12.3,5.1 14.4,5.2 C18.5,5.3 22.4,5.9 26.3,7.1 C28.5,7.8 30.6,8.6 32.6,9.9 C33.5,10.6 34.2,11.4 34.7,12.5 C35.3,13.9 34.8,15.3 34.3,16.5 C33.4,18.5 31.8,19.7 30,20.7 C28.5,21.6 26.9,22.2 25.2,22.5 C24.4,22.6 23.6,22.7 22.8,22.7 C21.8,22.7 20.8,22.8 19.8,22.8 C19.3,22.8 18.9,23 18.6,23.4 C16.9,25.6 15.5,28.1 14.2,30.6 C12.9,33.2 12,35.9 11.7,38.8 C11.5,40.8 11.1,42.7 10.8,44.7 C10.7,45.1 10.5,45.3 10.1,45.3 C8.7,45.3 7.2,45.4 5.8,45.4 C5.3,45.4 5.1,45.2 5.2,44.7 C5.6,42.3 6,39.9 6.3,37.5 C6.6,35.4 7.2,33.5 8.1,31.6 C9.3,29.3 10.5,26.9 12,24.8 C13.1,23.3 14.1,21.8 15,20.2 C15.5,19.4 15.8,18.4 15.9,17.5 C16.1,15.9 16.2,14.2 15.6,12.7 C15,11 13.8,9.8 12.3,8.8 C10.5,7.5 8.5,6.4 6.5,5.5 C6.4,5.4 6.3,5.3 6.2,5.3 C6.1,5.1 6.2,5.1 6.2,5 Z M18.7,9.2 C19.3,9.9 19.9,10.4 20.3,11 C21.2,12.3 21.6,13.8 21.6,15.5 C21.6,16.6 21.6,16.6 22.7,16.7 C22.8,16.7 22.9,16.7 23.1,16.8 C24.3,17 25.5,16.9 26.7,16.6 C27.7,16.3 28.4,15.6 28.7,14.6 C29.2,13 28.2,11.4 26.9,10.6 C24.5,9.1 21.9,9 19.2,9.1 C19,9 18.9,9.1 18.7,9.2 Z" id="Shape" fill="#000000"></path>
                    <path d="M30.4,5.7 C30.6,5.7 30.8,5.6 31,5.6 C31.9,5.6 32.8,5.7 33.8,5.6 C35.3,5.5 36.6,5.8 37.8,6.6 C39.3,7.6 40.9,8.6 42.3,9.8 C43.9,11.2 44.6,13.1 44.3,15.3 C44.2,16 44.2,16.7 44,17.4 C43.5,19.4 42.5,21.2 41.4,22.9 C40.2,24.8 39,26.7 37.9,28.8 C36.8,30.8 35.7,32.8 35.2,35.1 C35,36.2 34.8,37.4 34.6,38.5 C34.5,38.9 34.9,39 35.2,39 C36.5,39 37.8,39 39,38.9 C41.2,38.8 43.4,38.8 45.7,38.7 C46.1,38.7 46.2,38.9 46.2,39.2 C46,40.8 45.7,42.3 45.5,43.9 C45.4,44.4 45.2,44.5 44.8,44.5 C41.2,44.6 37.6,44.6 34,44.7 C32.4,44.7 30.7,44.8 29.1,44.8 C28.1,44.8 28,44.8 28.2,43.8 C28.6,40.9 29,38.1 29.5,35.2 C29.8,33.5 30.6,32 31.4,30.5 C32.2,29.1 32.9,27.5 33.7,26.1 C34.7,24.4 35.9,22.8 36.9,21.2 C38.4,18.7 38.9,16 38.6,13.2 C38.4,11.9 37.8,10.9 36.9,10 C35.1,8.2 33,6.9 30.7,5.9 C30.6,5.9 30.6,5.8 30.5,5.8 C30.4,5.8 30.4,5.8 30.4,5.7 Z" id="Shape" fill="#000000"></path>
                    <path d="M93.1,16.5 C93.9,15.8 94.6,15.1 95.3,14.5 C96.5,13.6 98,13.5 99.4,13.6 C99.5,13.6 99.8,13.9 99.7,14 C99.5,15.3 99.2,16.6 98.9,17.9 C98.8,18.1 98.4,18.3 98.1,18.3 C97.4,18.4 96.6,18.4 95.9,18.5 C93.9,18.8 92.6,20 91.6,21.6 C89.4,24.8 87.7,28.4 86,31.9 C85.1,33.8 84.5,35.9 84.3,38 C84.2,39.4 83.9,40.8 83.6,42.3 C83.6,42.5 83.5,42.7 83.5,42.9 C83.4,43.9 83.4,43.9 82.4,43.9 C81.2,43.9 80,44 78.8,44 C78,44 77.9,43.9 78,43 C78.3,40.7 78.7,38.4 79,36.1 C79.3,34 80.2,32.2 81.2,30.3 C82.8,27.3 84.4,24.3 86,21.3 C87.1,19.3 87.8,17.3 87.9,15 C88,13.6 88,13.6 89.4,13.6 C90.4,13.6 91.4,13.6 92.4,13.6 C92.8,13.6 93.1,13.7 93,14.2 C93.1,15 93.1,15.7 93.1,16.5 Z" id="Shape" fill="#000000"></path>
                    <path d="M68.8,9.4 C71.5,9.4 73.9,10.2 76,11.9 C77.2,12.9 77.6,14.3 77.5,15.8 C77.4,17.7 76.9,19.5 75.9,21 C73.8,24 71.6,27 69.4,30 C67.8,32 66.6,34.2 65.8,36.7 C64.9,39.3 62.7,40.3 60.4,40 C59.3,39.9 58.1,39 57.9,37.7 C57.6,36.1 57.8,34.6 58.2,33.1 C58.5,31.8 59,30.6 59.2,29.3 C59.5,27.4 60.3,25.6 61.1,23.9 C61.9,22.1 62.8,20.3 63.6,18.4 C64,17.3 64.2,16.2 64.5,15.1 C64.8,13.9 65,12.6 65.2,11.4 C65.5,10.1 66.2,9.4 67.5,9.4 C67.9,9.4 68.3,9.4 68.8,9.4 Z" id="Shape" fill="#FFFFFF"></path>
                    <path d="M18.7,9.2 C18.9,9.1 19.1,9 19.2,9 C21.9,8.9 24.6,9 26.9,10.5 C28.2,11.3 29.2,12.9 28.7,14.5 C28.4,15.5 27.7,16.2 26.7,16.5 C25.5,16.8 24.3,16.9 23.1,16.7 C23,16.7 22.9,16.7 22.7,16.6 C21.6,16.5 21.6,16.5 21.6,15.4 C21.7,13.8 21.3,12.2 20.3,10.9 C19.9,10.3 19.3,9.8 18.7,9.2 Z" id="Shape" fill="#FFFFFF"></path>
                </g>
            </g>
        </g>
    </g>
</svg>