<?xml version="1.0" encoding="UTF-8"?>
<svg width="109px" height="39px" viewBox="0 0 109 39" version="1.1" xmlns="http://www.w3.org/2000/svg" xmlns:xlink="http://www.w3.org/1999/xlink">
    <!-- Generator: Sketch 49.3 (51167) - http://www.bohemiancoding.com/sketch -->
    <title>_x37_djPAc_1_</title>
    <desc>Created with Sketch.</desc>
    <defs></defs>
    <g id="Page-1" stroke="none" stroke-width="1" fill="none" fill-rule="evenodd">
        <g id="plork-logos" transform="translate(-142.000000, -201.000000)" fill-rule="nonzero">
            <g id="_x37_djPAc_1_" transform="translate(142.000000, 201.000000)">
                <g id="Group">
                    <path d="M0.7,38.9 C0.7,26.1 0.7,13.3 0.7,0.5 C36.7,0.5 72.8,0.5 108.8,0.5 C108.8,13.3 108.8,26.1 108.8,38.9 C72.7,38.9 36.7,38.9 0.7,38.9 Z M50.3,35.6 C51.6,35.4 52.9,35.3 54,34.9 C56.1,34.2 58.2,33.5 60.2,32.6 C62.3,31.7 64.5,30.6 66.5,29.5 C68.4,28.4 70.2,27.2 71.9,25.9 C73,25.1 73.9,24 74.5,22.7 C75,21.6 75,20.5 74.9,19.3 C74.8,18.1 74.5,17 73.9,16 C72.6,13.9 70.6,12.4 68.5,11.3 C66.6,10.3 64.7,9.5 62.7,8.6 C59.5,7.3 56.2,6.1 52.7,5.7 C51.2,5.5 49.6,5.3 48.1,5.9 C47.5,6.2 47.2,6.7 47.5,7.3 C47.9,8 48.4,8.7 48.9,9.3 C49.9,10.5 51.1,11.5 52.1,12.7 C53.1,14 53.7,15.4 53.6,17.1 C53.5,18.4 53.5,19.8 53.2,21.1 C53,22.1 52.8,23.2 52.2,24.1 C51.4,25.5 50.3,26.8 49.3,28.2 C48.3,29.6 47.2,31 46.2,32.4 C45.5,33.4 45.9,34.7 47.1,35.1 C48.3,35.4 49.3,35.5 50.3,35.6 Z M3,35.7 C3,35.7 3.1,35.8 3.1,35.8 C3.2,35.8 3.3,35.8 3.4,35.8 C4.4,35.8 5.4,35.8 6.4,35.8 C7.2,35.8 7.8,35.7 8.4,35.1 C8.6,34.9 8.8,34.7 9,34.6 C11.2,32.9 13.4,31.3 15.5,29.6 C17.2,28.3 18.8,27 20.2,25.5 C20.3,25.4 20.6,25.3 20.8,25.2 C22,25.1 23.1,25.1 24.3,25 C26.4,24.9 28.3,24.4 30.1,23.5 C31.2,23 32.2,22.2 32.8,21.2 C34,19.1 33.6,16.4 31.9,14.6 C30.2,12.8 28.2,11.5 26,10.5 C23.9,9.6 21.8,8.8 19.7,8.1 C17.8,7.5 15.8,7.1 13.8,7.1 C11.5,7.1 9.3,7.2 7,7.2 C6.8,7.2 6.7,7.3 6.4,7.3 C6.8,7.5 7,7.7 7.2,7.9 C8.5,8.7 9.8,9.5 11.1,10.4 C12.8,11.5 14.5,12.8 15.7,14.5 C16.2,15.1 16.7,15.9 16.8,16.6 C17.1,18 17.2,19.5 17.3,21 C17.4,21.9 17,22.8 16.6,23.6 C15.8,25.4 14.3,26.6 12.8,27.8 C9.8,30.2 6.8,32.5 3.8,34.8 C3.7,35 3.4,35.4 3,35.7 Z M88.9,33.9 C89.2,34 89.3,34 89.4,34 C90.6,34 91.9,33.9 93.1,34 C94,34 94.8,33.8 95.3,33 C95.4,32.8 95.5,32.7 95.6,32.5 C96.9,30.9 98.2,29.2 99.5,27.5 C100.5,26.2 101.1,24.7 100.8,22.9 C100.8,22.7 100.9,22.5 101,22.4 C102.1,21 103.2,19.7 104.2,18.2 C104.8,17.3 105.4,16.3 105.3,15.1 C105.3,14.6 105.1,14.4 104.6,14.4 C103.3,14.5 102,14.6 100.7,14.6 C100.2,14.6 100.2,14.8 100.1,15.2 C100.1,15.7 100.1,16.3 99.9,16.7 C99.1,18.6 98,20.2 96.8,21.8 C96.7,21.9 96.6,21.9 96.3,22.1 C96.4,21.5 96.5,21.2 96.5,20.8 C96.5,19.9 96.5,18.9 96.4,18 C96.3,16.5 95.8,15.1 94.9,14 C93.8,12.6 92.4,11.5 90.9,10.6 C88.7,9.2 86.5,7.9 84.3,6.5 C83.3,5.8 82.3,5.4 81,5.6 C80.3,5.7 79.7,5.6 79,5.6 C78.9,5.6 78.8,5.7 78.5,5.7 C78.7,5.9 78.8,6 78.9,6 C80.4,6.9 81.9,7.9 83.5,8.8 C85.4,9.9 87.2,11 88.8,12.5 C90,13.6 91.1,14.7 91.4,16.3 C91.7,17.5 91.7,18.8 91.8,20.1 C91.9,22.3 91.1,24.2 89.5,25.7 C87.8,27.3 86,28.8 84.3,30.2 C82.8,31.4 81.3,32.5 79.8,33.6 C79.6,33.7 79.5,33.8 79.3,33.9 C79.4,34 79.4,34 79.5,34.1 C79.6,34.1 79.7,34.2 79.8,34.2 C81.1,34.2 82.4,34.2 83.7,34.1 C83.9,34.1 84.1,34 84.3,33.9 C84.7,33.6 85.1,33.3 85.4,33 C87.3,31.5 89.2,30.1 91.1,28.6 C92.5,27.5 93.8,26.4 94.9,25 C95.2,24.6 95.5,24.2 95.8,23.8 C95.8,23.8 95.9,23.8 95.9,23.9 C95.9,24 95.9,24.2 95.9,24.3 C95.7,24.9 95.6,25.4 95.3,25.9 C94.2,28 92.6,29.7 91,31.4 C90.4,32.2 89.7,33 88.9,33.9 Z M25.2,6.6 C25.2,6.7 25.2,6.7 25.2,6.8 C25.4,6.9 25.5,7.1 25.7,7.2 C26.3,7.6 26.9,7.9 27.5,8.3 C29.4,9.6 31.4,10.9 33.3,12.2 C34.7,13.3 36,14.6 36.4,16.4 C36.7,17.7 36.8,19.2 36.8,20.6 C36.9,22.2 36.3,23.6 35.3,24.8 C34,26.4 32.5,27.7 30.9,28.9 C28.3,30.9 25.7,32.9 23.1,34.9 C23,35 22.9,35.1 22.8,35.3 C23.2,35.3 23.5,35.4 23.7,35.4 C28.1,35.3 32.5,35.2 36.9,35.1 C37.3,35.1 37.8,34.9 38.1,34.7 C39.6,33.6 41.1,32.4 42.6,31.2 C43,30.9 43.3,30.6 43.7,30.3 C43.7,30.3 43.7,30.2 43.7,30.2 C40.5,30.3 37.4,30.3 34.2,30.4 C34.2,30.3 34.2,30.3 34.1,30.2 C34.2,30.1 34.3,30 34.4,29.9 C35.5,29 36.7,28.2 37.7,27.2 C38.6,26.3 39.6,25.4 40.3,24.4 C41.4,22.9 41.8,21.2 41.6,19.4 C41.5,18.2 41.5,16.9 40.9,15.7 C40,13.8 38.5,12.4 36.8,11.2 C34.8,9.8 32.7,8.5 30.6,7.2 C30.1,6.9 29.7,6.4 28.9,6.5 C28.2,6.6 27.6,6.5 26.9,6.5 C26.4,6.6 25.8,6.6 25.2,6.6 Z M83.2,18.6 C83.1,18.6 83.1,18.6 83,18.6 C83,18.4 82.9,18.2 82.9,18 C82.8,17.5 82.7,16.9 82.6,16.4 C82.5,16.1 82.3,15.9 82,16 C80.9,16 79.9,16.1 78.8,16.1 C78.5,16.1 78.3,16.2 78.4,16.6 C78.6,17.7 78.7,18.7 78.9,19.8 C79,21.1 78.8,22.3 78.3,23.5 C77.4,25.4 75.8,26.8 74.2,28.1 C72,29.9 69.6,31.6 67.4,33.4 C67,33.7 66.6,34.1 66.1,34.5 C66.4,34.6 66.5,34.6 66.6,34.6 C67.9,34.6 69.1,34.5 70.4,34.4 C70.6,34.4 70.8,34.3 71,34.2 C73.1,32.6 75.1,31 77.2,29.4 C78.3,28.6 79.3,27.7 80.4,26.8 C81.9,25.5 83,23.9 83.9,22.2 C84.5,21.1 85.5,20.5 86.8,20.3 C87.3,20.2 87.8,20.2 88.3,20.2 C88.6,20.2 88.8,20 88.8,19.7 C88.8,19.3 88.8,18.8 88.8,18.4 C88.7,17.5 88.7,16.6 88.2,15.8 C88,15.5 87.8,15.4 87.4,15.4 C85.9,15.6 84.8,16.4 84.1,17.7 C83.6,18 83.4,18.3 83.2,18.6 Z" id="Shape" fill="#FFFFFF"></path>
                    <path d="M50.3,35.6 C49.3,35.5 48.2,35.4 47.2,35.1 C46,34.7 45.6,33.5 46.3,32.4 C47.3,31 48.3,29.6 49.4,28.2 C50.4,26.9 51.5,25.6 52.3,24.1 C52.8,23.2 53.1,22.1 53.3,21.1 C53.5,19.8 53.6,18.4 53.7,17.1 C53.8,15.4 53.3,13.9 52.2,12.7 C51.2,11.5 50,10.4 49,9.3 C48.5,8.7 48,8 47.6,7.3 C47.3,6.7 47.5,6.2 48.2,5.9 C49.7,5.3 51.3,5.5 52.8,5.7 C56.3,6.1 59.6,7.3 62.8,8.6 C64.8,9.4 66.7,10.2 68.6,11.3 C70.7,12.5 72.7,13.9 74,16 C74.6,17 74.9,18.1 75,19.3 C75.1,20.4 75.1,21.6 74.6,22.7 C74,24 73.1,25.1 72,25.9 C70.2,27.2 68.4,28.4 66.6,29.5 C64.6,30.7 62.5,31.7 60.3,32.6 C58.3,33.5 56.2,34.2 54.1,34.9 C52.9,35.3 51.6,35.4 50.3,35.6 Z M69.9,20.4 C69.9,20.2 69.9,20.1 69.9,19.9 C69.8,18 69.3,16.3 67.9,14.9 C66,13 63.7,11.7 61.2,10.8 C60.1,10.4 58.9,10.1 57.7,10.3 C57.2,10.4 57,10.6 57.1,11.1 C57.2,11.5 57.4,11.9 57.6,12.3 C58,13.3 58.7,14.3 58.7,15.3 C58.8,17.3 58.7,19.3 58.4,21.3 C58.2,23.1 57.3,24.7 56.2,26.1 C55.5,27 54.9,28 54.3,29 C53.8,30 54.2,30.7 55.4,30.7 C56.4,30.6 57.4,30.5 58.4,30.3 C60.5,29.7 62.5,28.7 64.4,27.6 C66.1,26.6 67.8,25.4 68.9,23.7 C69.6,22.7 70,21.6 69.9,20.4 Z" id="Shape" fill="#000000"></path>
                    <path d="M3,35.7 C3.3,35.4 3.7,35.1 4.1,34.8 C7.1,32.5 10.1,30.2 13.1,27.8 C14.6,26.6 16,25.3 16.9,23.6 C17.3,22.8 17.6,21.9 17.6,21 C17.5,19.5 17.4,18 17.1,16.6 C16.9,15.8 16.5,15.1 16,14.5 C14.8,12.8 13.2,11.5 11.4,10.4 C10.1,9.6 8.8,8.7 7.5,7.9 C7.3,7.8 7,7.6 6.7,7.3 C7,7.2 7.1,7.2 7.3,7.2 C9.6,7.2 11.8,7.1 14.1,7.1 C16.1,7.1 18.1,7.4 20,8.1 C22.1,8.8 24.3,9.6 26.3,10.5 C28.5,11.5 30.5,12.8 32.2,14.6 C33.9,16.4 34.3,19.1 33.1,21.2 C32.5,22.3 31.5,23 30.4,23.5 C28.6,24.4 26.6,24.9 24.6,25 C23.4,25 22.3,25.1 21.1,25.2 C20.9,25.2 20.6,25.3 20.5,25.5 C19.1,27.1 17.4,28.3 15.8,29.6 C13.6,31.3 11.4,32.9 9.3,34.6 C9.1,34.8 8.8,34.9 8.7,35.1 C8.2,35.7 7.5,35.8 6.7,35.8 C5.7,35.8 4.7,35.8 3.7,35.8 C3.6,35.8 3.5,35.8 3.4,35.8 C3.1,35.8 3.1,35.7 3,35.7 Z M24,21.3 C24,21.3 24,21.3 24,21.3 C24.9,21.3 25.8,21.2 26.7,21 C27.6,20.8 28.2,20.1 28.4,19.2 C28.8,16.8 27.4,15.1 25.2,14.2 C23.9,13.7 22.5,13.7 21.1,14 C20.7,14.1 20.6,14.3 20.9,14.6 C21.6,15.5 22,16.5 22.1,17.6 C22.2,18.7 22.3,19.8 22.4,20.9 C22.4,21.2 22.5,21.4 22.9,21.4 C23.2,21.3 23.6,21.3 24,21.3 Z" id="Shape" fill="#000000"></path>
                    <path d="M88.9,33.9 C89.7,33 90.4,32.3 91.1,31.5 C92.7,29.8 94.3,28 95.4,26 C95.7,25.5 95.8,24.9 96,24.4 C96,24.3 96,24.1 96,24 C96,24 95.9,24 95.9,23.9 C95.6,24.3 95.3,24.7 95,25.1 C93.9,26.5 92.5,27.6 91.2,28.7 C89.3,30.2 87.4,31.7 85.5,33.1 C85.1,33.4 84.8,33.7 84.4,34 C84.2,34.1 84,34.2 83.8,34.2 C82.5,34.2 81.2,34.3 79.9,34.3 C79.8,34.3 79.7,34.2 79.6,34.2 C79.5,34.1 79.5,34.1 79.4,34 C79.6,33.9 79.8,33.9 79.9,33.7 C81.4,32.6 82.9,31.5 84.4,30.3 C86.2,28.8 88,27.4 89.6,25.8 C91.2,24.3 92.1,22.4 91.9,20.2 C91.8,18.9 91.8,17.6 91.5,16.4 C91.1,14.8 90,13.7 88.9,12.6 C87.3,11.1 85.5,10 83.6,8.9 C82.1,8 80.6,7.1 79,6.1 C78.9,6 78.8,5.9 78.6,5.8 C78.8,5.7 79,5.7 79.1,5.7 C79.8,5.7 80.4,5.7 81.1,5.7 C82.3,5.6 83.3,6 84.4,6.6 C86.6,8 88.8,9.3 91,10.7 C92.5,11.6 93.9,12.8 95,14.1 C95.9,15.3 96.5,16.6 96.5,18.1 C96.5,19 96.6,20 96.6,20.9 C96.6,21.3 96.5,21.7 96.4,22.2 C96.6,22 96.8,22 96.9,21.9 C98.2,20.4 99.3,18.7 100,16.8 C100.2,16.3 100.2,15.8 100.2,15.3 C100.2,14.9 100.3,14.7 100.8,14.7 C102.1,14.7 103.4,14.6 104.7,14.5 C105.2,14.5 105.4,14.6 105.4,15.2 C105.5,16.4 104.9,17.4 104.3,18.3 C103.3,19.7 102.1,21.1 101.1,22.5 C101,22.6 100.9,22.9 100.9,23 C101.2,24.7 100.5,26.2 99.6,27.6 C98.4,29.3 97,30.9 95.7,32.6 C95.6,32.8 95.5,32.9 95.4,33.1 C94.9,34 94.2,34.2 93.2,34.1 C92,34 90.7,34.1 89.5,34.1 C89.3,34 89.2,33.9 88.9,33.9 Z" id="Shape" fill="#000000"></path>
                    <path d="M25.2,6.6 C25.8,6.6 26.4,6.6 27,6.6 C27.7,6.6 28.3,6.6 29,6.6 C29.7,6.5 30.2,7 30.7,7.3 C32.8,8.6 34.9,9.9 36.9,11.3 C38.6,12.5 40.1,13.9 41,15.8 C41.6,17 41.6,18.2 41.7,19.5 C41.9,21.3 41.5,23 40.4,24.5 C39.7,25.5 38.7,26.4 37.8,27.3 C36.8,28.3 35.6,29.1 34.5,30 C34.4,30.1 34.3,30.2 34.2,30.3 C34.2,30.4 34.2,30.4 34.3,30.5 C37.5,30.4 40.6,30.4 43.8,30.3 C43.8,30.3 43.8,30.4 43.8,30.4 C43.4,30.7 43.1,31 42.7,31.3 C41.2,32.5 39.7,33.7 38.2,34.8 C37.9,35 37.4,35.2 37,35.2 C32.6,35.3 28.2,35.4 23.8,35.5 C23.5,35.5 23.3,35.5 22.9,35.4 C23.1,35.2 23.1,35 23.2,35 C25.8,33 28.4,31 31,29 C32.6,27.8 34.1,26.5 35.4,24.9 C36.4,23.7 37,22.3 36.9,20.7 C36.8,19.3 36.8,17.9 36.5,16.5 C36.1,14.7 34.8,13.4 33.4,12.3 C31.5,10.9 29.6,9.7 27.6,8.4 C27,8 26.4,7.7 25.8,7.3 C25.6,7.2 25.5,7.1 25.3,6.9 C25.2,6.8 25.2,6.7 25.2,6.6 Z" id="Shape" fill="#000000"></path>
                    <path d="M83.2,18.6 C83.4,18.3 83.6,18 83.7,17.7 C84.4,16.4 85.5,15.5 87,15.4 C87.4,15.4 87.6,15.5 87.8,15.8 C88.3,16.6 88.2,17.5 88.4,18.4 C88.5,18.8 88.4,19.3 88.4,19.7 C88.4,20 88.3,20.2 87.9,20.2 C87.4,20.2 86.9,20.2 86.4,20.3 C85.1,20.5 84.1,21.1 83.5,22.2 C82.6,23.9 81.5,25.5 80,26.8 C79,27.7 77.9,28.6 76.8,29.4 C74.8,31 72.7,32.6 70.6,34.2 C70.4,34.3 70.2,34.4 70,34.4 C68.7,34.5 67.5,34.5 66.2,34.6 C66.1,34.6 66,34.6 65.7,34.5 C66.2,34.1 66.6,33.7 67,33.4 C69.3,31.6 71.6,29.9 73.8,28.1 C75.4,26.8 77,25.4 77.9,23.5 C78.5,22.3 78.7,21.1 78.5,19.8 C78.4,18.7 78.2,17.7 78,16.6 C78,16.3 78.1,16.1 78.4,16.1 C79.5,16.1 80.5,16 81.6,16 C81.9,16 82.1,16.1 82.2,16.4 C82.3,16.9 82.4,17.5 82.5,18 C82.5,18.2 82.6,18.4 82.6,18.6 C83.1,18.6 83.2,18.6 83.2,18.6 Z" id="Shape" fill="#000000"></path>
                    <path d="M69.9,20.4 C70,21.7 69.6,22.8 68.9,23.8 C67.8,25.5 66.1,26.6 64.4,27.7 C62.5,28.8 60.5,29.8 58.4,30.4 C57.4,30.7 56.4,30.8 55.4,30.8 C54.2,30.9 53.8,30.1 54.3,29.1 C54.8,28.1 55.5,27.1 56.2,26.2 C57.3,24.7 58.2,23.2 58.4,21.4 C58.6,19.4 58.8,17.4 58.7,15.4 C58.6,14.4 58,13.4 57.6,12.4 C57.4,12 57.3,11.6 57.1,11.2 C57,10.7 57.2,10.5 57.7,10.4 C58.9,10.2 60.1,10.5 61.2,10.9 C63.7,11.8 66,13.1 67.9,15 C69.3,16.4 69.8,18.1 69.9,20 C69.9,20.1 69.9,20.2 69.9,20.4 Z" id="Shape" fill="#FFFFFF"></path>
                    <path d="M24,21.3 C23.6,21.3 23.2,21.3 22.8,21.3 C22.5,21.3 22.3,21.2 22.3,20.8 C22.2,19.7 22.1,18.6 22,17.5 C21.9,16.4 21.5,15.4 20.8,14.5 C20.5,14.1 20.6,14 21,13.9 C22.4,13.6 23.8,13.6 25.1,14.1 C27.3,15 28.7,16.7 28.3,19.1 C28.1,20.1 27.5,20.7 26.6,20.9 C25.8,21.2 24.9,21.2 24,21.3 C24,21.3 24,21.3 24,21.3 Z" id="Shape" fill="#FFFFFF"></path>
                </g>
            </g>
        </g>
    </g>
</svg>