<?xml version="1.0" encoding="UTF-8"?>
<svg width="143px" height="56px" viewBox="0 0 143 56" version="1.1" xmlns="http://www.w3.org/2000/svg" xmlns:xlink="http://www.w3.org/1999/xlink">
    <!-- Generator: Sketch 49.3 (51167) - http://www.bohemiancoding.com/sketch -->
    <title>nMSU7b_1_</title>
    <desc>Created with Sketch.</desc>
    <defs></defs>
    <g id="Page-1" stroke="none" stroke-width="1" fill="none" fill-rule="evenodd">
        <g id="plork-logos" transform="translate(-696.000000, -251.000000)" fill-rule="nonzero">
            <g id="nMSU7b_1_" transform="translate(696.000000, 251.000000)">
                <g id="Group">
                    <path d="M0.7,55.6 C0.7,37.3 0.7,19.1 0.7,0.8 C47.9,0.8 95.1,0.8 142.3,0.8 C142.3,19.1 142.3,37.3 142.3,55.6 C95.2,55.6 48,55.6 0.7,55.6 Z M59.5,7.1 C56.2,7.3 53.7,8.2 51.4,9.9 C50,10.9 48.7,12 47.8,13.5 C46.9,14.9 46.7,16.3 47.7,17.7 C48.3,18.5 48.9,19.2 49.6,19.9 C51.3,21.7 53.4,23 55.5,24.3 C59.5,26.9 63.7,29.1 67.6,32 C70.6,34.2 73.3,36.7 75.5,39.8 C77.2,42 78.7,44.4 80.7,46.4 C82,47.6 83.5,48.5 85.1,49.1 C86.9,49.7 88.7,49.8 90.6,49.5 C93.5,49.1 95.7,47.7 96.9,45 C98,42.6 97.6,40.3 96.4,38.1 C95.4,36.4 94,34.9 92.5,33.5 C90.1,31.4 87.5,29.6 84.7,27.9 C83,26.8 81.3,25.8 79.5,24.7 C77.6,23.5 75.7,22.3 73.8,21.1 C71.8,19.8 69.8,18.4 68.3,16.6 C67.5,15.6 66.8,14.4 66,13.4 C65,12.1 63.9,10.8 63.2,9.3 C62.9,8.6 62.3,8 61.6,7.7 C60.8,7.3 59.9,7.2 59.5,7.1 Z M31.1,30 C31.1,29.9 31.1,29.9 31.2,29.8 C31.4,29.8 31.6,29.7 31.8,29.8 C32.9,29.9 34.1,29.9 35.2,30 C36.3,30.1 36.7,29.5 36.2,28.5 C36.1,28.4 36.1,28.3 36,28.2 C34.7,26.4 33.1,24.8 31.5,23.3 C30.2,22.1 28.9,21 27.6,19.8 C26.4,18.7 25.2,17.5 24.6,15.9 C24.1,14.5 23.6,13 23.2,11.5 C23,10.5 22.9,9.5 22.9,8.5 C22.9,7.5 22.6,6.8 21.7,6.3 C21.2,6 20.6,5.8 20.1,5.7 C17.5,5.5 14.9,5.3 12.2,5.2 C11.9,5.2 11.6,5.4 11.4,5.6 C10.9,6 10.6,6.5 10.1,6.9 C8.9,8.1 7.7,9.4 7.2,11.1 C7,12 6.9,13 6.9,14 C6.9,14.7 7,15.4 7.2,16 C7.8,17.8 9.2,19 10.6,20.1 C11.9,21.2 13.3,22.1 14.7,23.1 C17,24.6 19.4,26 21.7,27.5 C23.3,28.5 24.9,29.6 26.5,30.7 C29.2,32.5 31.7,34.6 33.8,37 C35.6,39.1 36.7,41.5 37.4,44.1 C37.7,45.5 37.9,46.9 38.2,48.3 C38.3,48.7 38.4,48.8 38.8,48.8 C40.1,48.8 41.5,48.8 42.8,48.8 C43.3,48.8 43.4,48.7 43.3,48.2 C43.1,47.2 43,46.2 42.8,45.2 C42.4,43 41.6,40.9 40.4,39 C38.3,35.7 35.4,33.3 32.2,31.1 C31.9,30.6 31.5,30.3 31.1,30 Z M112.7,30.4 C112.7,30.5 112.6,30.5 112.6,30.6 C112.5,30.6 112.4,30.5 112.3,30.5 C110.7,29.5 109,28.4 107.4,27.4 C105.7,26.3 103.9,25.2 102.2,24.1 C99.8,22.7 97.5,21.1 95.3,19.3 C94.2,18.4 93.3,17.4 92.7,16.1 C91.9,14.5 92.2,12.7 92.4,11 C92.5,10.5 92.3,10.3 91.8,10.3 C90.9,10.3 89.9,10.2 89,10.1 C87.5,10 87.5,10 87.2,11.5 C87.2,11.7 87.1,11.8 87.1,11.9 C87.1,12.9 87,13.9 87.2,14.9 C87.6,16.8 88.9,18 90.3,19.2 C92.8,21.4 95.7,23 98.5,24.8 C101.3,26.6 104.1,28.3 106.9,30.1 C109.5,31.8 111.9,33.9 114,36.2 C116.2,38.7 117.5,41.5 118.1,44.8 C118.3,45.9 118.5,47 118.6,48.1 C118.7,48.5 118.9,48.7 119.3,48.7 C120.5,48.7 121.8,48.7 123,48.7 C123.5,48.7 123.7,48.6 123.6,48 C123.3,45.8 122.9,43.7 122.1,41.6 C121.5,39.9 120.7,38.3 119.5,37 C119.1,36.6 118.7,36.1 118.4,35.6 C118.4,35.6 118.5,35.5 118.5,35.5 C118.6,35.6 118.8,35.7 118.9,35.8 C119,35.8 119,35.9 119.1,35.9 C121.7,38.2 124,40.8 125.9,43.7 C126.8,45 127.5,46.4 128.3,47.8 C128.6,48.4 129,48.7 129.7,48.7 C131.1,48.6 132.5,48.7 133.9,48.7 C134.1,48.7 134.3,48.7 134.6,48.6 C134.5,48.4 134.5,48.3 134.4,48.2 C133.4,46.8 132.5,45.3 131.5,43.9 C129.7,41.3 127.6,39 125.2,36.9 C123.2,35.1 121,33.5 119,31.5 C117,29.6 114.8,27.9 112.7,26.1 C110.5,24.3 108.2,22.5 106.7,20 C106.6,19.9 106.4,19.8 106.2,19.7 C104.6,19.6 103,19.5 101.4,19.5 C101.2,19.5 101,19.5 100.8,19.6 C101,19.9 101,20 101.2,20.2 C102.2,21.6 103.4,22.8 104.7,23.8 C106.9,25.6 109.1,27.3 111.4,29.1 C111.9,29.7 112.3,30.1 112.7,30.4 Z M67,48.7 C67,48.7 67,48.7 67,48.7 C69.5,48.7 71.9,48.7 74.4,48.8 C74.8,48.8 74.9,48.6 74.9,48.3 C74.6,46.8 74.3,45.3 74.1,43.9 C74,43.5 73.8,43.5 73.5,43.5 C70.3,43.5 67.2,43.5 64,43.5 C63.6,43.5 63.4,43.4 63.2,43 C62.4,40.7 61.4,38.7 59.8,36.9 C57.9,34.7 55.7,32.7 53.2,31.1 C51.1,29.7 48.9,28.4 46.8,27 C45,25.9 43.3,24.8 41.5,23.6 C39.2,22.1 36.9,20.6 35,18.6 C33,16.6 32.3,13.2 33.4,10.6 C33.9,9.4 34.7,8.4 35.5,7.5 C35.6,7.4 35.7,7.2 35.8,7 C35.6,6.9 35.4,6.8 35.2,6.8 C34.2,6.7 33.1,6.7 32.1,6.6 C31.7,6.6 31.3,6.6 31,6.9 C29.3,8.6 27.9,10.4 27.8,13 C27.6,15.2 28.3,17 29.8,18.6 C31.5,20.4 33.6,21.8 35.6,23.1 C38.1,24.8 40.7,26.3 43.2,27.9 C45,29.1 46.8,30.2 48.6,31.5 C49.8,32.3 51,33.2 52,34.2 C53.4,35.5 54.7,36.9 55.8,38.4 C57,40 57.8,41.9 58.3,43.9 C58.7,45.4 58.9,46.8 59.2,48.3 C59.3,48.8 59.5,48.9 59.9,48.9 C62.2,48.7 64.6,48.7 67,48.7 Z M95.3,25.6 C95.3,25.6 95.3,25.5 95.3,25.5 C95.2,25.4 95,25.2 94.9,25.1 C92.5,23.5 90.1,22 87.8,20.4 C86.8,19.7 86,19 84.7,19.3 C83.9,19.5 83.5,20 83.8,20.7 C84,21 84.2,21.3 84.4,21.7 C84.5,21.8 84.5,22 84.6,22.2 C84.4,22.2 84.2,22.2 84.1,22.1 C83,21.3 81.9,20.5 80.8,19.8 C80.6,19.6 80.3,19.5 80,19.5 C78.9,19.4 77.8,19.4 76.7,19.4 C76.5,19.4 76.4,19.4 76.2,19.5 C76.2,19.6 76.1,19.7 76.1,19.7 C76.3,19.8 76.5,20 76.7,20.1 C78.7,21.4 80.6,22.8 82.6,24.1 C85.3,25.8 88,27.4 90.7,29.1 C93.7,31 96.5,33.1 99,35.7 C101.8,38.6 103.4,42 104,45.9 C104.1,46.7 104.3,47.6 104.4,48.4 C104.4,48.7 104.6,48.8 104.9,48.8 C106.1,48.8 107.4,48.8 108.6,48.8 C109.4,48.8 109.4,48.8 109.3,48 C109,46.4 108.8,44.7 108.3,43.1 C107.8,41.5 107.1,39.9 106.3,38.5 C104.9,36.2 102.9,34.3 100.9,32.6 C99.2,31.2 97.4,30 95.7,28.6 C94.9,28 94.2,27.3 93.5,26.7 C93.3,26.5 93.2,26.1 93.3,25.9 C93.3,25.8 93.8,25.7 94,25.6 C94.5,25.6 94.9,25.6 95.3,25.6 Z" id="Shape" fill="#FFFFFF"></path>
                    <path d="M59.5,7.1 C59.9,7.2 60.8,7.3 61.5,7.6 C62.3,7.9 62.8,8.4 63.1,9.2 C63.8,10.8 64.9,12 65.9,13.3 C66.7,14.3 67.3,15.5 68.2,16.5 C69.8,18.3 71.7,19.7 73.7,21 C75.6,22.2 77.5,23.4 79.4,24.6 C81.1,25.7 82.8,26.7 84.6,27.8 C87.3,29.5 90,31.3 92.4,33.4 C93.9,34.7 95.3,36.2 96.3,38 C97.6,40.2 97.9,42.5 96.8,44.9 C95.6,47.6 93.4,49 90.5,49.4 C88.6,49.6 86.8,49.6 85,49 C83.3,48.4 81.8,47.6 80.6,46.3 C78.6,44.3 77.1,42 75.4,39.7 C73.2,36.7 70.5,34.2 67.5,31.9 C63.7,29 59.4,26.8 55.4,24.2 C53.3,22.9 51.2,21.6 49.5,19.8 C48.8,19.1 48.2,18.4 47.6,17.6 C46.6,16.2 46.8,14.8 47.7,13.4 C48.6,11.9 50,10.9 51.3,9.8 C53.7,8.2 56.3,7.3 59.5,7.1 Z M56.8,13.2 C56.8,13.1 56.8,13.1 56.8,13 C56.1,13.2 55.3,13.4 54.6,13.7 C52.8,14.5 52.3,16.2 53.3,17.9 C54,19.1 55,20.2 56.2,21 C58.9,22.9 61.7,24.7 64.5,26.5 C67.2,28.3 70,30 72.7,31.8 C74,32.7 75.3,33.8 76.5,34.9 C77.5,35.8 78.5,36.8 79.4,37.8 C80.4,39 81.4,40.2 82.4,41.4 C83.9,43 85.4,44.5 87.9,44.5 C89.5,44.5 90.9,44.1 91.4,42.4 C91.7,41.4 91.7,40.4 91.4,39.5 C90.8,37.5 89.5,36.1 88.1,34.6 C86,32.4 83.6,30.7 81,29 C77.4,26.7 73.7,24.5 70.1,22.2 C67,20.3 64,18.2 61.5,15.4 C60.3,14 58.9,12.9 56.8,13.2 Z" id="Shape" fill="#000000"></path>
                    <path d="M31.1,30 C31.5,30.3 31.9,30.6 32.3,30.9 C35.4,33.1 38.4,35.6 40.5,38.8 C41.7,40.7 42.5,42.8 42.9,45 C43.1,46 43.2,47 43.4,48 C43.5,48.5 43.4,48.6 42.9,48.6 C41.6,48.6 40.2,48.6 38.9,48.6 C38.6,48.6 38.4,48.4 38.3,48.1 C38.1,46.7 37.9,45.3 37.5,43.9 C36.8,41.3 35.7,38.8 33.9,36.8 C31.8,34.3 29.3,32.2 26.6,30.5 C25,29.4 23.4,28.4 21.8,27.3 C19.5,25.8 17.1,24.4 14.8,22.9 C13.4,22 12,21 10.7,19.9 C9.3,18.8 8,17.6 7.3,15.8 C7.1,15.2 7,14.5 7,13.8 C7,12.8 7.1,11.8 7.3,10.9 C7.7,9.2 9,8 10.2,6.7 C10.6,6.3 11,5.8 11.5,5.4 C11.7,5.2 12.1,5 12.3,5 C14.9,5.1 17.5,5.3 20.2,5.5 C20.7,5.5 21.3,5.8 21.8,6.1 C22.6,6.6 23,7.3 23,8.3 C23,9.3 23.1,10.3 23.3,11.3 C23.7,12.8 24.1,14.3 24.7,15.7 C25.3,17.3 26.5,18.4 27.7,19.6 C29,20.8 30.3,21.9 31.6,23.1 C33.2,24.6 34.8,26.2 36.1,28 C36.2,28.1 36.2,28.2 36.3,28.3 C36.8,29.3 36.5,29.9 35.3,29.8 C34.2,29.7 33,29.7 31.9,29.6 C31.7,29.6 31.5,29.6 31.3,29.6 C31.1,29.8 31.1,29.9 31.1,30 Z M13.8,12.4 C13.8,12.4 13.8,12.5 13.8,12.5 C13.4,12.5 13.1,12.5 12.7,12.5 C12.3,12.5 12.2,12.6 12.2,13 C11.9,15 12.6,16.8 14,18.2 C15,19.3 16.2,20.2 17.4,21.1 C17.8,21.4 18.2,21.7 18.6,21.8 C19.6,22 20.6,22 21.7,22 C22.2,22 22.8,22.1 23.1,21.5 C23.4,20.9 22.8,20.4 22.5,20.1 C20.8,18.4 19.4,16.5 18.5,14.2 C18.2,13.4 17.6,12.9 16.8,12.8 C15.7,12.6 14.8,12.5 13.8,12.4 Z" id="Shape" fill="#000000"></path>
                    <path d="M112.7,30.4 C112.3,30 111.9,29.7 111.5,29.3 C109.3,27.5 107,25.8 104.8,24 C103.5,22.9 102.3,21.8 101.3,20.4 C101.2,20.2 101.1,20.1 100.9,19.8 C101.2,19.8 101.4,19.7 101.5,19.7 C103.1,19.8 104.7,19.8 106.3,19.9 C106.5,19.9 106.7,20 106.8,20.2 C108.4,22.7 110.6,24.4 112.8,26.3 C114.9,28.1 117.1,29.7 119.1,31.7 C121.1,33.6 123.3,35.2 125.3,37.1 C127.6,39.2 129.7,41.5 131.6,44.1 C132.6,45.5 133.5,47 134.5,48.4 C134.6,48.5 134.6,48.6 134.7,48.8 C134.4,48.8 134.2,48.9 134,48.9 C132.6,48.9 131.2,48.9 129.8,48.9 C129.1,48.9 128.7,48.6 128.4,48 C127.6,46.6 126.8,45.2 126,43.9 C124.1,41 121.8,38.4 119.2,36.1 C119.1,36.1 119.1,36 119,36 C118.9,35.9 118.7,35.8 118.6,35.7 C118.6,35.7 118.5,35.8 118.5,35.8 C118.9,36.3 119.2,36.7 119.6,37.2 C120.8,38.6 121.6,40.1 122.2,41.8 C123,43.9 123.4,46 123.7,48.2 C123.8,48.7 123.6,48.9 123.1,48.9 C121.9,48.9 120.6,48.9 119.4,48.9 C118.9,48.9 118.7,48.7 118.7,48.3 C118.5,47.2 118.4,46.1 118.2,45 C117.6,41.8 116.3,38.9 114.1,36.4 C112,34 109.6,32 107,30.3 C104.2,28.5 101.4,26.8 98.6,25 C95.8,23.2 92.9,21.6 90.4,19.4 C89,18.2 87.7,16.9 87.3,15.1 C87.1,14.1 87.2,13.1 87.2,12.1 C87.2,12 87.3,11.8 87.3,11.7 C87.6,10.2 87.6,10.2 89.1,10.3 C90,10.3 91,10.4 91.9,10.5 C92.4,10.5 92.5,10.7 92.5,11.2 C92.3,12.9 92,14.6 92.8,16.3 C93.4,17.6 94.4,18.6 95.4,19.5 C97.5,21.3 99.9,22.8 102.3,24.3 C104.1,25.4 105.8,26.5 107.5,27.6 C109.1,28.6 110.8,29.7 112.4,30.7 C112.5,30.8 112.6,30.8 112.7,30.8 C112.6,30.5 112.6,30.5 112.7,30.4 Z" id="Shape" fill="#000000"></path>
                    <path d="M67,48.7 C64.6,48.7 62.2,48.7 59.7,48.7 C59.2,48.7 59,48.6 59,48.1 C58.8,46.6 58.5,45.1 58.1,43.7 C57.6,41.7 56.8,39.8 55.6,38.2 C54.4,36.7 53.1,35.3 51.8,34 C50.8,33 49.6,32.1 48.4,31.3 C46.6,30.1 44.8,28.9 43,27.7 C40.5,26.1 37.9,24.6 35.4,22.9 C33.3,21.5 31.3,20.2 29.6,18.4 C28.1,16.8 27.5,15 27.6,12.8 C27.8,10.3 29.1,8.4 30.8,6.7 C31.1,6.4 31.4,6.3 31.9,6.4 C32.9,6.5 34,6.5 35,6.6 C35.2,6.6 35.4,6.7 35.6,6.8 C35.5,7 35.4,7.2 35.3,7.3 C34.5,8.3 33.7,9.2 33.2,10.4 C32.1,13 32.8,16.4 34.8,18.4 C36.8,20.3 39,21.9 41.3,23.4 C43.1,24.5 44.8,25.6 46.6,26.8 C48.8,28.2 50.9,29.5 53,30.9 C55.5,32.5 57.7,34.5 59.6,36.7 C61.2,38.5 62.3,40.6 63,42.8 C63.1,43.2 63.3,43.3 63.8,43.3 C67,43.3 70.1,43.3 73.3,43.3 C73.6,43.3 73.8,43.4 73.9,43.7 C74.2,45.2 74.5,46.7 74.7,48.1 C74.8,48.4 74.7,48.6 74.2,48.6 C71.9,48.7 69.5,48.7 67,48.7 C67,48.7 67,48.7 67,48.7 Z" id="Shape" fill="#000000"></path>
                    <path d="M95.3,25.6 C94.9,25.6 94.4,25.6 94,25.6 C93.7,25.6 93.3,25.7 93.3,25.9 C93.2,26.1 93.4,26.5 93.5,26.7 C94.2,27.4 95,28 95.7,28.6 C97.4,29.9 99.2,31.2 100.9,32.6 C103,34.3 104.9,36.2 106.3,38.5 C107.2,39.9 107.8,41.5 108.3,43.1 C108.8,44.7 109,46.3 109.3,48 C109.4,48.8 109.4,48.8 108.6,48.8 C107.4,48.8 106.1,48.8 104.9,48.8 C104.6,48.8 104.4,48.7 104.4,48.4 C104.3,47.6 104.1,46.7 104,45.9 C103.3,42 101.8,38.6 99,35.7 C96.5,33.1 93.7,31 90.7,29.1 C88,27.4 85.3,25.8 82.6,24.1 C80.6,22.8 78.6,21.5 76.7,20.1 C76.5,20 76.3,19.8 76.1,19.7 C76.1,19.6 76.2,19.5 76.2,19.5 C76.4,19.5 76.5,19.4 76.7,19.4 C77.8,19.4 78.9,19.5 80,19.5 C80.3,19.5 80.6,19.6 80.8,19.8 C81.9,20.6 83,21.3 84.1,22.1 C84.2,22.2 84.4,22.2 84.6,22.2 C84.5,22 84.5,21.9 84.4,21.7 C84.2,21.4 83.9,21.1 83.8,20.7 C83.5,20 83.9,19.4 84.7,19.3 C86,19 86.9,19.7 87.8,20.4 C90.1,22 92.5,23.5 94.9,25.1 C95.1,25.2 95.2,25.3 95.3,25.5 C95.4,25.5 95.3,25.6 95.3,25.6 Z" id="Shape" fill="#000000"></path>
                    <path d="M56.8,13.2 C58.8,13 60.3,14.1 61.5,15.4 C64,18.1 67,20.2 70.1,22.2 C73.7,24.5 77.4,26.7 81,29 C83.5,30.6 86,32.4 88.1,34.6 C89.5,36 90.8,37.5 91.4,39.5 C91.7,40.5 91.7,41.5 91.4,42.4 C90.9,44 89.6,44.4 87.9,44.5 C85.5,44.6 83.9,43.1 82.4,41.4 C81.4,40.2 80.4,39 79.4,37.8 C78.5,36.8 77.5,35.8 76.5,34.9 C75.3,33.8 74.1,32.7 72.7,31.8 C70,30 67.2,28.3 64.5,26.5 C61.7,24.7 59,22.9 56.2,21 C55,20.2 54,19.1 53.3,17.9 C52.3,16.2 52.7,14.5 54.6,13.7 C55.3,13.4 56.1,13.3 56.8,13 C56.8,13.1 56.8,13.1 56.8,13.2 Z" id="Shape" fill="#FFFFFF"></path>
                    <path d="M13.8,12.4 C14.7,12.5 15.7,12.7 16.6,12.8 C17.4,12.9 18,13.5 18.3,14.2 C19.2,16.4 20.6,18.4 22.3,20.1 C22.7,20.5 23.2,20.9 22.9,21.5 C22.7,22.1 22,22 21.5,22 C20.5,22 19.4,22 18.4,21.8 C18,21.7 17.6,21.4 17.2,21.1 C16,20.1 14.8,19.2 13.8,18.2 C12.4,16.8 11.7,15 12,13 C12.1,12.6 12.2,12.5 12.5,12.5 C12.9,12.5 13.2,12.5 13.6,12.5 C13.8,12.5 13.8,12.4 13.8,12.4 Z" id="Shape" fill="#FFFFFF"></path>
                </g>
            </g>
        </g>
    </g>
</svg>