<?xml version="1.0" encoding="UTF-8"?>
<svg width="126px" height="42px" viewBox="0 0 126 42" version="1.1" xmlns="http://www.w3.org/2000/svg" xmlns:xlink="http://www.w3.org/1999/xlink">
    <!-- Generator: Sketch 49.3 (51167) - http://www.bohemiancoding.com/sketch -->
    <title>JbJgJ8_1_</title>
    <desc>Created with Sketch.</desc>
    <defs></defs>
    <g id="Page-1" stroke="none" stroke-width="1" fill="none" fill-rule="evenodd">
        <g id="plork-logos" transform="translate(-393.000000, -4.000000)" fill-rule="nonzero">
            <g id="JbJgJ8_1_" transform="translate(393.000000, 4.000000)">
                <g id="Group">
                    <path d="M0.9,41.1 C0.9,27.7 0.9,14.3 0.9,0.8 C42.6,0.8 84.2,0.8 125.9,0.8 C125.9,14.2 125.9,27.6 125.9,41.1 C84.2,41.1 42.5,41.1 0.9,41.1 Z M75.3,34.2 C75.8,34.2 76.3,34.2 76.8,34.2 C77.3,34.2 77.7,34 78.2,33.9 C79.9,33.5 80.6,32 79.8,30.4 C79,28.9 77.9,27.7 76.7,26.5 C74.7,24.5 72.6,22.5 70.6,20.5 C69.4,19.3 68.2,18.1 67.5,16.6 C66.5,14.6 65.6,12.5 64.8,10.4 C63.8,7.7 62.2,5.7 59.5,4.5 C56.9,3.4 54.3,3.3 51.6,3.9 C49.3,4.4 47.3,5.5 45.9,7.6 C45.1,8.8 44.4,10 44.2,11.4 C43.9,13.5 44.8,15.4 46,17.1 C47.7,19.4 49.8,21.2 52.2,22.8 C54.5,24.4 56.8,25.9 59.2,27.3 C62.2,29.1 65.3,30.8 68.5,32.4 C70.5,33.4 72.8,34.2 75.3,34.2 Z M107.7,33.4 C107.5,33.1 107.4,32.9 107.3,32.8 C106.3,31.9 105.4,30.9 104.4,30.1 C102.6,28.7 100.8,27.3 99,25.9 C97.7,24.9 96.3,23.9 95,22.9 C94.4,22.5 93.9,22 93.4,21.5 C93.4,21.5 93.5,21.4 93.5,21.4 C93.8,21.5 94,21.7 94.3,21.8 C95.3,22.4 96.3,23.1 97.3,23.7 C99.6,25.1 101.9,26.4 104.2,27.8 C107,29.5 109.8,31.1 112.3,33.2 C112.5,33.4 112.9,33.5 113.2,33.5 C114.5,33.5 115.8,33.5 117.1,33.5 C117.4,33.5 117.6,33.5 117.9,33.5 C117.9,33.4 117.9,33.4 118,33.3 C117.5,32.9 117.1,32.6 116.6,32.2 C114.8,31.1 113,29.9 111.1,28.8 C108.6,27.3 106.1,25.9 103.7,24.5 C101.5,23.2 99.4,21.9 97.3,20.5 C96.7,20.1 96.1,19.7 95.7,19 C94.8,17.2 95,15.3 95.6,13.5 C95.9,12.5 96.5,11.6 96.9,10.6 C96.9,10.6 96.8,10.5 96.7,10.5 C95.2,10.5 93.7,10.5 92.2,10.5 C92,10.5 91.7,10.7 91.6,10.9 C91.3,11.5 91,12.1 90.7,12.7 C90.2,14.2 89.9,15.8 90.3,17.4 C90.4,17.6 90.4,17.9 90.4,18.1 C90.3,18.1 90.3,18.2 90.2,18.2 C90.1,18.1 90,17.9 89.9,17.8 C89,16.6 88.2,15.4 87.8,13.9 C87.5,12.8 87.1,11.6 87,10.5 C86.9,8.5 86.9,6.4 86.9,4.4 C86.9,3.9 86.8,3.8 86.3,3.8 C85.1,3.8 84,3.9 82.8,3.9 C82.4,3.9 82.2,4 82.2,4.5 C82.2,6.5 82.2,8.4 82.2,10.4 C82.3,13.8 83.7,16.6 86,19 C87.6,20.7 89.3,22.2 91.2,23.7 C93.8,25.7 96.4,27.6 98.9,29.7 C100.3,30.8 101.5,32.1 102.7,33.3 C102.9,33.5 103.2,33.7 103.5,33.7 C104.7,33.7 105.8,33.7 107,33.7 C107.3,33.4 107.4,33.4 107.7,33.4 Z M33,33.8 C33,33.7 33.1,33.7 33.1,33.6 C32.6,33 32.1,32.4 31.5,31.9 C29.3,30.1 27.1,28.2 24.8,26.4 C22.4,24.5 20,22.6 17.6,20.7 C17.3,20.5 17,20.1 16.7,19.7 C17.1,19.6 17.3,19.6 17.5,19.6 C18.5,19.6 19.5,19.6 20.4,19.6 C21.5,19.6 22.5,19.3 23,18.3 C23.4,17.6 23.7,16.8 23.8,16 C24.2,13.7 23.8,11.3 23.4,9 C23.1,7.7 22.4,6.5 21.2,5.8 C19.5,4.8 17.6,4.4 15.6,4.4 C13.1,4.4 10.6,4.4 8.1,4.4 C7.7,4.4 7.5,4.5 7.5,5 C7.5,6.1 7.5,7.1 7.5,8.2 C7.4,10.5 7.5,12.8 8.5,14.9 C9.1,16.2 9.7,17.4 10.7,18.4 C11.9,19.7 13.2,21 14.6,22.1 C16.8,23.9 19,25.6 21.3,27.3 C23.7,29.1 26.1,30.9 28.1,33.3 C28.3,33.5 28.6,33.7 28.9,33.7 C29.9,33.7 31,33.7 32,33.7 C32.4,33.8 32.7,33.8 33,33.8 Z M51.4,28.1 C51.4,28.1 51.4,28.1 51.4,28.1 C50,28.1 48.5,28.2 47.1,28.1 C46.7,28.1 46.2,27.9 45.8,27.7 C43.5,26 41.2,24.2 39,22.4 C36.8,20.5 34.6,18.6 33.2,15.9 C32.4,14.3 31.8,12.5 31.7,10.7 C31.6,8.8 31.7,6.8 31.7,4.8 C31.7,4.4 31.6,4.2 31.1,4.2 C29.9,4.2 28.7,4.3 27.5,4.2 C27,4.2 26.9,4.4 26.9,4.8 C26.9,6.7 26.9,8.7 26.9,10.6 C26.9,12.8 27.8,14.8 28.9,16.6 C30.4,19.1 32.6,20.9 34.8,22.7 C37.3,24.7 39.9,26.6 42.4,28.6 C44.2,30 45.9,31.4 47.4,33.2 C47.7,33.5 47.9,33.7 48.3,33.7 C52.8,33.7 57.3,33.7 61.8,33.6 C61.9,33.6 62.1,33.5 62.1,33.5 C62.1,33.4 62.1,33.2 62,33.1 C60.4,31.3 58.6,29.8 56.7,28.3 C56.4,28.1 56,28 55.7,28 C54.3,28.1 52.8,28.1 51.4,28.1 Z M74.1,13.5 C74,13.3 73.9,13.2 73.9,13.1 C73.7,12.5 73.5,11.9 73.4,11.3 C73.3,11 73.3,10.9 73,10.9 C71.9,10.9 70.8,10.9 69.6,10.9 C69.2,10.9 69,11.1 69.1,11.5 C69.4,12.3 69.6,13.1 69.9,13.9 C70.5,15.5 71.3,16.9 72.4,18.2 C74.3,20.3 76.4,22.2 78.7,23.9 C80.7,25.4 82.7,27 84.7,28.5 C86.5,29.8 88.2,31.3 89.6,32.9 C89.9,33.2 90.2,33.4 90.6,33.4 C91.7,33.4 92.8,33.4 93.9,33.3 C94.1,33.3 94.2,33.2 94.4,33.2 C94.4,33.1 94.5,33.1 94.5,33 C93.5,32 92.4,31 91.3,30.1 C89.2,28.4 87.1,26.7 85,25.1 C82.7,23.3 80.3,21.6 78.4,19.4 C77.8,18.7 77.3,17.9 76.9,17.1 C76.6,16.6 76.8,16.1 77.2,15.8 C77.7,15.4 78.3,15.3 78.9,15.3 C79.3,15.3 79.7,15.3 80.2,15.3 C80.1,15 80,14.8 80,14.7 C79.7,13.6 79.4,12.6 79.1,11.5 C78.9,10.7 79,10.7 78.1,10.7 C77.8,10.7 77.6,10.7 77.3,10.7 C75.9,11 74.8,11.5 74.3,13.1 C74.3,13.2 74.2,13.3 74.1,13.5 Z" id="Shape" fill="#FFFFFF"></path>
                    <path d="M75.3,34.2 C72.8,34.2 70.5,33.5 68.3,32.4 C65.2,30.8 62.1,29.1 59,27.3 C56.6,25.9 54.3,24.4 52,22.8 C49.7,21.2 47.5,19.4 45.8,17.1 C44.6,15.4 43.8,13.5 44,11.4 C44.2,10 44.9,8.8 45.7,7.6 C47.1,5.6 49.1,4.5 51.4,3.9 C54.1,3.3 56.7,3.4 59.3,4.5 C62,5.6 63.6,7.7 64.6,10.4 C65.4,12.5 66.3,14.6 67.3,16.6 C68.1,18.1 69.2,19.3 70.4,20.5 C72.4,22.5 74.5,24.4 76.5,26.5 C77.7,27.7 78.8,28.9 79.6,30.4 C80.4,32 79.7,33.4 78,33.9 C77.6,34 77.1,34.1 76.6,34.2 C76.3,34.2 75.8,34.2 75.3,34.2 Z M54.4,7.2 C53.4,7.1 52.4,7.4 51.5,8 C49.4,9.4 48.9,11.2 49.3,13.4 C49.5,14.8 50.2,16.1 51,17.3 C52.2,19 53.7,20.3 55.3,21.6 C57.8,23.6 60.4,25.3 63.2,26.7 C64.8,27.5 66.5,28.2 68.2,28.8 C69.1,29.1 70.1,29.1 71,29.1 C71.8,29.1 72.1,28.4 71.7,27.7 C71.5,27.3 71.3,26.8 70.9,26.5 C69.2,24.7 67.3,22.9 65.6,21.1 C64.4,19.8 63.2,18.6 62.3,17.2 C61.1,15.1 60.1,12.9 59.2,10.7 C58.6,8.4 56.6,7 54.4,7.2 Z" id="Shape" fill="#000000"></path>
                    <path d="M107.7,33.4 C107.4,33.4 107.3,33.5 107.1,33.5 C105.9,33.5 104.8,33.5 103.6,33.5 C103.3,33.5 103,33.3 102.8,33.1 C101.5,31.9 100.3,30.6 99,29.5 C96.5,27.5 93.9,25.5 91.3,23.5 C89.4,22.1 87.7,20.6 86.1,18.8 C83.8,16.4 82.4,13.6 82.3,10.2 C82.2,8.3 82.3,6.3 82.3,4.3 C82.3,3.9 82.5,3.7 82.9,3.7 C84.1,3.7 85.2,3.7 86.4,3.6 C86.9,3.6 87,3.7 87,4.2 C87,6.2 86.9,8.3 87.1,10.3 C87.2,11.5 87.5,12.6 87.9,13.7 C88.3,15.1 89.1,16.4 90,17.6 C90.1,17.7 90.2,17.9 90.3,18 C90.4,18 90.4,17.9 90.5,17.9 C90.5,17.7 90.5,17.4 90.4,17.2 C90,15.6 90.2,14 90.8,12.5 C91,11.9 91.3,11.3 91.7,10.7 C91.8,10.5 92.1,10.3 92.3,10.3 C93.8,10.3 95.3,10.3 96.8,10.3 C96.9,10.3 97,10.4 97,10.4 C96.5,11.4 96,12.3 95.7,13.3 C95.1,15.1 94.9,16.9 95.8,18.8 C96.2,19.5 96.8,19.9 97.4,20.3 C99.5,21.7 101.6,23 103.8,24.3 C106.3,25.8 108.8,27.2 111.2,28.6 C113,29.7 114.9,30.8 116.7,32 C117.2,32.3 117.6,32.7 118.1,33.1 C118.1,33.2 118.1,33.2 118,33.3 C117.7,33.3 117.5,33.3 117.2,33.3 C115.9,33.3 114.6,33.4 113.3,33.3 C113,33.3 112.6,33.2 112.4,33 C109.9,30.9 107.1,29.3 104.3,27.6 C102,26.3 99.7,24.9 97.4,23.5 C96.4,22.9 95.4,22.2 94.4,21.6 C94.2,21.4 93.9,21.3 93.6,21.2 C93.6,21.2 93.5,21.3 93.5,21.3 C94,21.8 94.5,22.3 95.1,22.7 C96.4,23.7 97.8,24.7 99.1,25.7 C100.9,27.1 102.7,28.5 104.5,29.9 C105.5,30.7 106.4,31.7 107.4,32.6 C107.4,32.9 107.5,33.1 107.7,33.4 Z" id="Shape" fill="#000000"></path>
                    <path d="M33,33.8 C32.7,33.8 32.4,33.8 32.1,33.8 C31.1,33.8 30,33.8 29,33.8 C28.7,33.8 28.4,33.6 28.2,33.4 C26.2,31 23.8,29.2 21.4,27.4 C19.2,25.7 16.9,24 14.7,22.2 C13.3,21.1 12.1,19.8 10.8,18.5 C9.8,17.5 9.2,16.2 8.6,15 C7.6,12.9 7.5,10.6 7.6,8.3 C7.6,7.2 7.6,6.2 7.6,5.1 C7.6,4.7 7.8,4.5 8.2,4.5 C10.7,4.5 13.2,4.5 15.7,4.5 C17.7,4.5 19.6,4.9 21.3,5.9 C22.5,6.6 23.3,7.8 23.5,9.1 C23.9,11.4 24.3,13.7 23.9,16.1 C23.8,16.9 23.5,17.7 23.1,18.4 C22.6,19.4 21.5,19.7 20.5,19.7 C19.5,19.7 18.5,19.7 17.6,19.7 C17.4,19.7 17.2,19.8 16.8,19.8 C17.2,20.2 17.4,20.5 17.7,20.8 C20.1,22.7 22.5,24.6 24.9,26.5 C27.1,28.3 29.4,30.1 31.6,32 C32.2,32.5 32.6,33.2 33.2,33.7 C33,33.7 33,33.8 33,33.8 Z M14.7,8 C14.7,8 14.7,8.1 14.7,8.1 C14.1,8.1 13.5,8.2 12.9,8.2 C12.6,8.2 12.5,8.3 12.5,8.6 C12.5,9.6 12.4,10.6 12.6,11.5 C12.7,12.5 13.1,13.4 13.4,14.4 C13.4,14.5 13.6,14.6 13.7,14.6 C14.9,14.6 16,14.6 17.2,14.6 C18.2,14.5 18.8,13.9 18.9,12.9 C19,12 18.9,11 18.7,10.1 C18.6,9.3 18.1,8.7 17.4,8.4 C16.3,8.3 15.5,8.2 14.7,8 Z" id="Shape" fill="#000000"></path>
                    <path d="M51.4,28.1 C52.8,28.1 54.3,28.1 55.7,28.1 C56,28.1 56.5,28.2 56.7,28.4 C58.6,29.8 60.4,31.3 62,33.2 C62.1,33.3 62.1,33.5 62.1,33.6 C62.1,33.7 61.9,33.7 61.8,33.7 C57.3,33.7 52.8,33.7 48.3,33.8 C47.9,33.8 47.6,33.7 47.4,33.3 C46,31.5 44.2,30.1 42.4,28.7 C39.9,26.7 37.3,24.9 34.8,22.8 C32.6,21 30.4,19.2 28.9,16.7 C27.8,14.9 27,12.9 26.9,10.7 C26.9,8.8 26.9,6.8 26.9,4.9 C26.9,4.4 27,4.2 27.5,4.3 C28.7,4.3 29.9,4.3 31.1,4.3 C31.6,4.3 31.7,4.4 31.7,4.9 C31.7,6.9 31.6,8.8 31.7,10.8 C31.8,12.6 32.4,14.4 33.2,16 C34.6,18.7 36.7,20.6 39,22.5 C41.2,24.3 43.5,26.1 45.8,27.8 C46.1,28.1 46.6,28.2 47.1,28.2 C48.5,28.2 50,28.1 51.4,28.1 C51.4,28.1 51.4,28.1 51.4,28.1 Z" id="Shape" fill="#000000"></path>
                    <path d="M74.1,13.5 C74.2,13.3 74.3,13.2 74.3,13.1 C74.7,11.5 75.9,11 77.3,10.7 C77.6,10.6 77.8,10.7 78.1,10.7 C78.9,10.7 78.9,10.7 79.1,11.5 C79.4,12.6 79.7,13.6 80,14.7 C80,14.9 80.1,15 80.2,15.3 C79.7,15.3 79.3,15.3 78.9,15.3 C78.3,15.3 77.7,15.4 77.2,15.8 C76.8,16.2 76.6,16.7 76.9,17.1 C77.4,17.9 77.8,18.7 78.4,19.4 C80.3,21.6 82.7,23.3 85,25.1 C87.1,26.7 89.3,28.4 91.3,30.1 C92.4,31 93.4,32 94.5,33 C94.5,33.1 94.4,33.1 94.4,33.2 C94.2,33.2 94.1,33.3 93.9,33.3 C92.8,33.3 91.7,33.3 90.6,33.4 C90.2,33.4 89.9,33.2 89.6,32.9 C88.1,31.2 86.5,29.8 84.7,28.5 C82.7,27 80.7,25.4 78.7,23.9 C76.4,22.2 74.3,20.3 72.4,18.2 C71.3,16.9 70.5,15.5 69.9,13.9 C69.6,13.1 69.4,12.3 69.1,11.5 C69,11.1 69.1,10.9 69.6,10.9 C70.7,10.9 71.8,10.9 73,10.9 C73.3,10.9 73.4,11 73.4,11.3 C73.5,11.9 73.7,12.5 73.9,13.1 C73.9,13.3 74,13.4 74.1,13.5 Z" id="Shape" fill="#000000"></path>
                    <path d="M54.4,7.2 C56.6,7 58.6,8.5 59.4,10.6 C60.3,12.8 61.2,15.1 62.5,17.1 C63.4,18.6 64.6,19.8 65.8,21 C67.5,22.8 69.3,24.6 71.1,26.4 C71.4,26.7 71.7,27.2 71.9,27.6 C72.2,28.3 71.9,29 71.2,29 C70.3,29 69.2,29 68.4,28.7 C66.7,28.1 65,27.4 63.4,26.6 C60.6,25.1 57.9,23.5 55.5,21.5 C53.9,20.2 52.3,18.9 51.2,17.2 C50.4,16 49.7,14.7 49.5,13.3 C49.1,11.1 49.6,9.2 51.7,7.9 C52.4,7.3 53.4,7 54.4,7.2 Z" id="Shape" fill="#FFFFFF"></path>
                    <path d="M14.7,8 C15.5,8.2 16.4,8.3 17.2,8.5 C18,8.7 18.4,9.4 18.5,10.2 C18.6,11.1 18.7,12.1 18.7,13 C18.6,14 18.1,14.6 17,14.7 C15.8,14.8 14.7,14.8 13.5,14.7 C13.4,14.7 13.2,14.6 13.2,14.5 C12.9,13.5 12.6,12.6 12.4,11.6 C12.3,10.6 12.4,9.7 12.3,8.7 C12.3,8.4 12.4,8.3 12.7,8.3 C13.3,8.3 13.9,8.2 14.5,8.2 C14.6,8.1 14.6,8 14.7,8 Z" id="Shape" fill="#FFFFFF"></path>
                </g>
            </g>
        </g>
    </g>
</svg>