<?xml version="1.0" encoding="UTF-8"?>
<svg width="137px" height="38px" viewBox="0 0 137 38" version="1.1" xmlns="http://www.w3.org/2000/svg" xmlns:xlink="http://www.w3.org/1999/xlink">
    <!-- Generator: Sketch 49.3 (51167) - http://www.bohemiancoding.com/sketch -->
    <title>P9awv4_1_</title>
    <desc>Created with Sketch.</desc>
    <defs></defs>
    <g id="Page-1" stroke="none" stroke-width="1" fill="none" fill-rule="evenodd">
        <g id="plork-logos" transform="translate(-1003.000000, -294.000000)" fill-rule="nonzero">
            <g id="P9awv4_1_" transform="translate(1003.000000, 294.000000)">
                <g id="Group">
                    <path d="M0.2,37.3 C0.2,24.9 0.2,12.5 0.2,0.1 C45.8,0.1 91.4,0.1 136.9,0.1 C136.9,12.5 136.9,24.9 136.9,37.3 C91.4,37.3 45.8,37.3 0.2,37.3 Z M84.6,4 C83.6,4.1 82.5,4.2 81.5,4.4 C79.5,4.7 77.6,5.4 75.8,6.4 C72,8.5 69.1,11.5 66.5,14.9 C64,18.2 61.7,21.7 60.2,25.6 C59.6,27 59.2,28.4 59.2,29.9 C59.2,32 60,33.5 62.1,34.1 C63.3,34.5 64.5,34.7 65.7,34.7 C71.1,34.8 75.9,33.1 80.4,30.2 C83.4,28.2 86.1,25.8 88.4,23.1 C89.8,21.4 90.9,19.6 92,17.7 C93.2,15.7 94,13.5 94.1,11.1 C94.2,8.2 92.5,5.7 89.7,4.7 C87.9,4.2 86.3,4 84.6,4 Z M31.4,4.6 C31.4,4.6 31.4,4.6 31.4,4.6 C29.6,4.6 27.7,4.6 25.9,4.6 C25.5,4.6 25.2,4.7 25,5.2 C24.6,6.2 24.2,7.2 23.7,8.2 C22,11.5 20.4,14.8 18.5,18 C16.3,21.6 13.9,25.1 11.5,28.6 C10.3,30.4 8.9,32 7.6,33.7 C7.5,33.8 7.4,34 7.3,34.2 C7.5,34.3 7.7,34.4 7.8,34.4 C9.4,34.4 11,34.4 12.6,34.4 C12.8,34.4 13.2,34.2 13.3,34 C14,33.2 14.6,32.4 15.2,31.5 C17.1,28.9 19,26.2 20.9,23.6 C21.1,23.3 21.5,23 21.8,23 C22.7,22.9 23.6,22.9 24.5,22.9 C27.5,23.1 30.3,22.5 33,21.3 C36.8,19.6 39.8,17 41.7,13.3 C42.3,12.2 42.8,11 42.8,9.7 C42.9,8.2 42.4,6.9 41.1,6.1 C39.6,5.1 37.8,4.7 36,4.6 C34.6,4.6 33,4.6 31.4,4.6 Z M117.2,21.5 C117.3,21.2 117.2,21 117.3,20.9 C117.6,20.5 117.9,20 118.1,19.6 C119.4,17.3 120.9,15 122.1,12.7 C123.3,10.3 124.4,7.8 125.5,5.3 C125.7,4.8 125.5,4.7 125,4.7 C123.5,4.7 121.9,4.7 120.4,4.7 C120.1,4.7 119.7,5 119.6,5.3 C118.1,9 116.4,12.5 114.4,15.9 C112.2,19.6 109.8,23.2 107.4,26.7 C105.9,28.9 104.2,31 102.6,33.2 C102.4,33.4 102.3,33.7 102.1,33.9 C102.3,34 102.4,34 102.4,34 C104,34 105.7,34 107.3,34 C107.6,34 107.9,33.8 108.1,33.6 C109.2,32.1 110.4,30.7 111.5,29.2 C112.4,28 113.2,26.8 114.1,25.6 C114.6,24.9 115.1,24.2 115.7,23.5 C115.8,23.5 115.8,23.6 115.9,23.6 C115.6,27.1 114.7,30.5 114,34 C114.2,34.1 114.3,34.1 114.4,34.1 C116.3,34.1 118.3,34.1 120.2,34.1 C120.8,34.1 121,33.7 121.1,33.2 C121.2,32.4 121.3,31.6 121.4,30.7 C121.6,28.2 121.8,25.7 122.1,23.3 C122.2,22.6 122.3,22 123,21.6 C123.4,21.4 123.8,21.1 124.2,20.8 C127,18.8 129.8,16.8 132.5,14.8 C133,14.4 133.5,14 134,13.7 C132.5,13.5 131,13.6 129.6,13.5 C128.3,13.5 127.3,13.7 126.3,14.6 C123.8,16.7 121.2,18.7 118.6,20.7 C118.2,20.8 117.8,21.1 117.2,21.5 Z M31.8,34.3 C32.4,34.3 32.8,34.3 33.2,34.3 C38.7,34.3 44.3,34.3 49.8,34.3 C50.1,34.3 50.4,34.1 50.6,33.9 C51.6,32.6 52.7,31.3 53.7,30 C53.8,29.9 53.8,29.7 53.9,29.5 C53.7,29.4 53.5,29.3 53.4,29.3 C49.9,29.3 46.4,29.4 42.8,29.4 C42.5,29.4 42.2,29.3 41.8,29.3 C41.9,29 42.1,28.7 42.2,28.5 C44.5,25 46.9,21.5 49.2,17.9 C50.2,16.3 51.1,14.7 52,13.1 C53.1,10.9 54.1,8.7 55.1,6.5 C55.4,6 55.5,5.4 55.8,4.8 C55.6,4.7 55.5,4.7 55.4,4.7 C53.6,4.7 51.9,4.7 50.1,4.7 C49.9,4.7 49.7,4.9 49.6,5 C49.4,5.3 49.3,5.6 49.2,5.9 C47.9,8.7 46.7,11.5 45.3,14.2 C44,16.7 42.5,19.2 40.9,21.5 C38.3,25.3 35.6,29 32.9,32.7 C32.6,33.1 32.2,33.6 31.8,34.3 Z M104.1,13.8 C103.9,13.7 103.8,13.7 103.7,13.7 C102.2,13.7 100.7,13.6 99.3,13.7 C99.1,13.7 98.7,14 98.6,14.3 C97.8,15.7 97.2,17.1 96.3,18.5 C95.1,20.4 93.9,22.3 92.6,24.2 C90.4,27.3 88.2,30.3 86,33.4 C85.9,33.6 85.8,33.7 85.8,33.9 C86,34 86.2,34.1 86.4,34.1 C87.3,34.1 88.3,34 89.2,34.1 C90.7,34.3 91.8,33.9 92.5,32.6 C92.5,32.5 92.6,32.5 92.7,32.4 C94.9,29.3 97.1,26.2 99.4,23.1 C100.8,21.2 102.4,19.6 104.8,19 C105.7,18.8 106.8,18.8 107.7,18.7 C108,18.7 108.5,18.5 108.7,18.3 C109.6,17 110.3,15.6 111.1,14.3 C111.2,14.1 111.3,13.8 111.4,13.5 C109.7,13.4 108.2,13.6 106.9,14.3 C105.5,15 104.3,15.8 102.8,16.7 C103.2,15.7 103.7,14.8 104.1,13.8 Z" id="Shape" fill="#FFFFFF"></path>
                    <path d="M84.6,4 C86.3,4 88,4.2 89.6,4.8 C92.4,5.8 94.1,8.3 94,11.2 C93.9,13.6 93.1,15.8 91.9,17.8 C90.8,19.7 89.7,21.5 88.3,23.2 C86,26 83.4,28.4 80.3,30.3 C75.8,33.2 71,34.9 65.6,34.8 C64.4,34.8 63.1,34.5 62,34.2 C60,33.5 59.1,32.1 59.1,30 C59.1,28.5 59.6,27.1 60.1,25.7 C61.7,21.8 64,18.3 66.4,15 C69,11.6 71.9,8.6 75.7,6.5 C77.5,5.5 79.4,4.8 81.4,4.5 C82.5,4.2 83.5,4.1 84.6,4 Z M83.1,8.5 C82.2,8.6 81.3,8.7 80.5,8.9 C77.4,9.7 75.3,11.8 73.5,14.1 C71.3,16.9 69.3,19.9 67.7,23.1 C67.1,24.3 66.6,25.6 66.3,26.9 C65.9,28.4 66.4,29.3 67.8,29.8 C68.5,30.1 69.4,30 70.2,30 C73.4,29.8 76.1,28.5 78.4,26.4 C81.6,23.6 84.1,20.2 86,16.3 C86.7,14.8 87.3,13.2 87.1,11.4 C87,10.1 86.4,9.2 85.2,8.8 C84.5,8.8 83.7,8.7 83.1,8.5 Z" id="Shape" fill="#000000"></path>
                    <path d="M31.4,4.6 C33,4.6 34.6,4.5 36.2,4.6 C38,4.7 39.7,5 41.3,6.1 C42.6,7 43.1,8.2 43,9.7 C43,11 42.4,12.1 41.9,13.3 C40,17.1 37,19.6 33.2,21.3 C30.5,22.5 27.6,23 24.7,22.9 C23.8,22.9 22.9,22.9 22,23 C21.7,23 21.3,23.3 21.1,23.6 C19.2,26.2 17.3,28.9 15.4,31.5 C14.8,32.4 14.1,33.2 13.5,34 C13.3,34.2 13,34.4 12.8,34.4 C11.2,34.4 9.6,34.4 8,34.4 C7.8,34.4 7.6,34.3 7.5,34.2 C7.6,34 7.7,33.9 7.8,33.7 C9.1,32 10.5,30.3 11.7,28.6 C14.1,25.1 16.6,21.7 18.7,18 C20.6,14.8 22.2,11.5 23.9,8.2 C24.4,7.2 24.8,6.2 25.2,5.2 C25.4,4.8 25.6,4.6 26.1,4.6 C27.7,4.6 29.6,4.6 31.4,4.6 C31.4,4.6 31.4,4.6 31.4,4.6 Z M24.7,17.9 C26,17.9 27.1,17.9 28.3,17.9 C31.1,17.9 33.2,16.7 34.7,14.4 C35.3,13.5 35.9,12.5 35.8,11.4 C35.8,10.6 35.4,10.1 34.7,9.9 C32.9,9.3 31.1,9.6 29.4,9.7 C29.2,9.7 29,10 28.9,10.2 C28.5,11.1 28.1,11.9 27.6,12.8 C26.7,14.4 25.8,16.1 24.7,17.9 Z" id="Shape" fill="#000000"></path>
                    <path d="M117.2,21.5 C117.8,21.1 118.2,20.9 118.6,20.6 C121.2,18.6 123.8,16.7 126.3,14.5 C127.3,13.6 128.4,13.3 129.6,13.4 C131.1,13.5 132.5,13.4 134,13.6 C133.5,14 133,14.4 132.5,14.7 C129.7,16.7 127,18.7 124.2,20.7 C123.8,21 123.4,21.3 123,21.5 C122.3,21.9 122.1,22.5 122.1,23.2 C121.9,25.7 121.7,28.2 121.4,30.6 C121.3,31.4 121.2,32.2 121.1,33.1 C121,33.6 120.8,34 120.2,34 C118.3,34 116.3,34 114.4,34 C114.3,34 114.2,34 114,33.9 C114.6,30.4 115.6,27 115.9,23.5 C115.8,23.5 115.8,23.4 115.7,23.4 C115.2,24.1 114.7,24.8 114.1,25.5 C113.2,26.7 112.4,27.9 111.5,29.1 C110.4,30.6 109.3,32.1 108.1,33.5 C107.9,33.7 107.6,33.9 107.3,33.9 C105.7,33.9 104,33.9 102.4,33.9 C102.3,33.9 102.2,33.8 102.1,33.8 C102.3,33.5 102.4,33.3 102.6,33.1 C104.2,30.9 105.9,28.9 107.4,26.6 C109.8,23 112.2,19.4 114.4,15.8 C116.4,12.4 118.1,8.9 119.6,5.2 C119.7,4.9 120.1,4.7 120.4,4.6 C121.9,4.5 123.5,4.6 125,4.6 C125.4,4.6 125.7,4.8 125.5,5.2 C124.4,7.7 123.3,10.2 122.1,12.6 C120.9,15 119.5,17.2 118.1,19.5 C117.8,19.9 117.5,20.4 117.3,20.8 C117.3,21 117.3,21.1 117.2,21.5 Z" id="Shape" fill="#000000"></path>
                    <path d="M31.8,34.3 C32.3,33.6 32.6,33.2 33,32.7 C35.7,29 38.4,25.3 41,21.5 C42.6,19.1 44.1,16.7 45.4,14.2 C46.8,11.5 48,8.7 49.3,5.9 C49.4,5.6 49.5,5.3 49.7,5 C49.8,4.8 50,4.7 50.2,4.7 C52,4.7 53.7,4.7 55.5,4.7 C55.6,4.7 55.7,4.8 55.9,4.8 C55.7,5.4 55.5,5.9 55.2,6.5 C54.2,8.7 53.2,10.9 52.1,13.1 C51.3,14.8 50.4,16.4 49.3,17.9 C47,21.5 44.6,24.9 42.3,28.5 C42.1,28.8 42,29.1 41.9,29.3 C42.2,29.3 42.5,29.4 42.9,29.4 C46.4,29.4 49.9,29.3 53.5,29.3 C53.7,29.3 53.9,29.4 54,29.5 C53.9,29.7 53.9,29.8 53.8,30 C52.8,31.3 51.8,32.6 50.7,33.9 C50.5,34.1 50.2,34.3 49.9,34.3 C44.4,34.3 38.8,34.3 33.3,34.3 C32.8,34.3 32.4,34.3 31.8,34.3 Z" id="Shape" fill="#000000"></path>
                    <path d="M104.1,13.8 C103.7,14.7 103.2,15.6 102.8,16.6 C104.3,15.7 105.5,14.9 106.9,14.2 C108.3,13.5 109.8,13.3 111.4,13.4 C111.3,13.7 111.2,14 111.1,14.2 C110.3,15.6 109.5,16.9 108.7,18.2 C108.5,18.4 108.1,18.6 107.7,18.6 C106.7,18.7 105.7,18.7 104.8,18.9 C102.4,19.5 100.8,21.1 99.4,23 C97.2,26.1 94.9,29.2 92.7,32.3 C92.6,32.4 92.6,32.4 92.5,32.5 C91.8,33.9 90.7,34.2 89.2,34 C88.3,33.9 87.3,34 86.4,34 C86.2,34 86,33.9 85.8,33.8 C85.9,33.6 85.9,33.4 86,33.3 C88.2,30.2 90.4,27.2 92.6,24.1 C93.9,22.3 95.1,20.4 96.3,18.4 C97.1,17 97.8,15.6 98.6,14.2 C98.7,13.9 99.1,13.6 99.3,13.6 C100.8,13.6 102.3,13.6 103.7,13.6 C103.8,13.7 103.9,13.8 104.1,13.8 Z" id="Shape" fill="#000000"></path>
                    <path d="M83.1,8.5 C83.8,8.7 84.5,8.8 85.2,9 C86.4,9.4 87,10.3 87.1,11.6 C87.3,13.4 86.7,15 86,16.5 C84.2,20.4 81.6,23.7 78.4,26.6 C76.1,28.7 73.4,30 70.2,30.2 C69.4,30.2 68.5,30.3 67.8,30 C66.5,29.5 66,28.6 66.3,27.1 C66.6,25.8 67.1,24.5 67.7,23.3 C69.3,20.1 71.2,17.1 73.5,14.3 C75.4,12 77.5,9.8 80.5,9.1 C81.3,8.8 82.1,8.7 83.1,8.5 Z" id="Shape" fill="#FFFFFF"></path>
                    <path d="M24.7,17.9 C25.7,16 26.7,14.4 27.6,12.7 C28.1,11.9 28.4,11 28.9,10.1 C29,9.9 29.2,9.7 29.4,9.6 C31.2,9.5 33,9.2 34.7,9.8 C35.4,10 35.7,10.5 35.8,11.3 C35.9,12.5 35.3,13.4 34.7,14.3 C33.2,16.7 31.1,17.9 28.3,17.8 C27.2,17.9 26,17.9 24.7,17.9 Z" id="Shape" fill="#FFFFFF"></path>
                </g>
            </g>
        </g>
    </g>
</svg>