<?xml version="1.0" encoding="UTF-8"?>
<svg width="126px" height="47px" viewBox="0 0 126 47" version="1.1" xmlns="http://www.w3.org/2000/svg" xmlns:xlink="http://www.w3.org/1999/xlink">
    <!-- Generator: Sketch 49.3 (51167) - http://www.bohemiancoding.com/sketch -->
    <title>_x34_sOCEO_1_</title>
    <desc>Created with Sketch.</desc>
    <defs></defs>
    <g id="Page-1" stroke="none" stroke-width="1" fill="none" fill-rule="evenodd">
        <g id="plork-logos" transform="translate(-2.000000, -244.000000)" fill-rule="nonzero">
            <g id="_x34_sOCEO_1_" transform="translate(2.000000, 244.000000)">
                <g id="Group">
                    <path d="M0,46.2 C0,30.9 0,15.6 0,0.3 C41.8,0.3 83.6,0.3 125.4,0.3 C125.4,15.6 125.4,30.9 125.4,46.2 C83.6,46.2 41.8,46.2 0,46.2 Z M84.1,28.4 C85.1,28.5 86.4,28.3 87.6,27.6 C88.6,27.1 89.2,26.3 89.2,25.1 C89.2,23.8 88.4,22.8 87.5,22 C85.9,20.6 84,19.5 82.1,18.6 C79.7,17.5 77.2,16.4 74.8,15.4 C72.1,14.2 69.4,13.1 66.8,11.8 C64.7,10.8 62.7,9.6 60.7,8.5 C59.2,7.7 57.7,6.7 56.1,6 C54.8,5.4 53.4,5.1 52.1,4.8 C50.5,4.4 48.9,4.6 47.4,5.3 C45.8,6 45.1,7.8 45.7,9.4 C46.3,10.7 47.4,11.6 48.5,12.4 C51.4,14.3 54.5,15.7 57.7,17.2 C60.5,18.5 63.2,19.8 66,21.1 C69.6,22.8 73.1,24.6 76.7,26.4 C78.9,27.6 81.3,28.3 84.1,28.4 Z M112.8,24.8 C112.8,24.8 112.8,24.8 112.8,24.8 C114.1,25.5 115.1,26.3 115.9,27.5 C117.1,29.4 117.3,31.4 116,33.4 C115,34.9 113.9,36.4 112.9,37.8 C112.4,38.5 112.4,38.5 112.9,39.1 C113,39.2 113,39.2 113,39.3 C113.3,39.9 113.7,40.5 114,41.1 C114.3,41.6 114.7,41.6 115.1,41.2 C115.7,40.6 116.3,39.9 116.8,39.2 C117.9,37.7 118.9,36.2 119.9,34.7 C120.5,33.8 121,32.9 121.4,31.9 C122,30.3 121.2,28.9 120.4,27.5 C119.7,26.3 118.5,25.5 117.4,24.7 C117.1,24.5 117,24.3 117,23.9 C117,23.4 116.9,22.9 116.8,22.4 C116.4,21.1 115.7,20.1 114.7,19.3 C113.9,18.6 113.1,18 111.9,18 C110.6,18 109.3,17.7 107.9,17.5 C107.4,17.4 107,17.4 106.4,17.4 C106.5,17.6 106.5,17.6 106.5,17.6 C106.6,17.7 106.7,17.7 106.8,17.8 C108.6,19 110.2,20.3 111.1,22.2 C111.2,22.4 111.2,22.7 111.3,22.9 C111.2,22.9 111.2,22.9 111.1,23 C111,22.9 110.8,22.8 110.7,22.7 C108.8,21.1 106.7,19.9 104.4,18.8 C102.3,17.8 100.2,16.8 98.1,15.8 C96,14.8 93.9,13.8 91.8,12.8 C89.7,11.8 87.7,10.6 86,9 C84.8,7.9 83.9,6.6 83,5.2 C82.9,5 82.5,4.8 82.3,4.7 C81.1,4.7 79.9,4.7 78.8,4.7 C78.7,4.7 78.5,4.8 78.5,4.8 C78.5,4.9 78.5,5.1 78.6,5.2 C78.8,5.5 79,5.8 79.2,6.1 C79.9,7 80.6,7.9 81.4,8.7 C83.7,10.9 86.4,12.3 89.2,13.6 C92.9,15.4 96.6,17.1 100.3,18.8 C102.7,20 104.9,21.3 106.8,23.2 C107.8,24.1 108.7,25.1 109.2,26.3 C109.9,27.9 109.6,29.6 108.8,31.1 C108.3,31.9 107.7,32.7 107,33.4 C106.7,33.8 106.7,33.9 107.1,34.2 C107.7,34.6 108.3,35 108.8,35.4 C109.2,35.7 109.5,35.7 109.8,35.4 C110.3,34.9 110.7,34.5 111.1,34 C112.2,32.8 113.4,31.5 113.9,29.8 C114.3,28.4 114.4,27 113.6,25.8 C113.4,25.8 113.1,25.3 112.8,24.8 Z M25.4,16.7 C25.4,16.6 25.4,16.6 25.5,16.5 C25.8,16.5 26,16.5 26.3,16.5 C27.8,16.6 29.3,16.7 30.9,16.6 C31.5,16.6 32.1,16.4 32.6,16.2 C33,16.1 33.1,15.7 32.7,15.5 C32.3,15.1 31.8,14.7 31.3,14.4 C29.8,13.5 28.3,12.6 26.8,11.8 C24.6,10.5 22.5,9.2 20.3,8 C17.6,6.5 14.6,5.8 11.5,5.9 C10.3,5.9 9,5.9 7.8,6 C6.9,6 6,6 5.2,6 C5.1,6 4.9,6 4.8,6.1 C4.8,6.2 4.8,6.4 4.9,6.5 C5.7,7.5 6.5,8.5 7.4,9.4 C9,11 11,12.1 12.9,13.1 C15.7,14.5 18.6,15.8 21.4,17.2 C23.5,18.3 25.6,19.4 27.7,20.5 C28.3,20.8 28.9,21.2 29.5,21.3 C30.9,21.5 32.3,21.6 33.6,21.7 C33.7,21.7 33.8,21.6 34,21.6 C31.2,19.6 28.3,18.1 25.4,16.7 Z M23.7,5.7 C23.8,5.9 23.8,6 23.8,6.1 C24.7,7.2 25.4,8.3 26.4,9.3 C27.6,10.3 28.9,11.2 30.2,12 C32,13 33.8,13.9 35.7,14.8 C38.6,16.2 41.5,17.6 44.4,19 C46.4,20 48.4,21.2 50.1,22.7 C50.6,23.1 51.1,23.3 51.7,23.3 C52.9,23.4 54.1,23.5 55.3,23.7 C57.2,23.9 59,24.1 60.9,24.4 C62.8,24.7 64.8,24.9 66.7,25.2 C66.8,25.2 67,25.1 67.1,25.1 C67,25 67,24.8 66.9,24.7 C66.4,24.1 65.8,23.5 65.2,23 C64.8,22.7 64.4,22.3 64,22.1 C63.5,21.9 62.9,21.9 62.3,21.9 C59.2,21.6 56.1,21.3 53.1,21 C52.9,21 52.6,20.9 52.4,20.8 C50.5,19.8 48.6,18.7 46.6,17.7 C44.6,16.7 42.5,15.8 40.5,14.8 C38.7,13.9 36.9,13 35.2,12.1 C33.5,11.2 32,10.2 30.7,8.8 C29.9,7.9 29.2,7 28.4,6 C28.3,5.8 28,5.7 27.8,5.7 C27,5.7 26.2,5.7 25.4,5.7 C25,5.7 24.4,5.7 23.7,5.7 Z M88.5,17.6 C88.5,17.6 88.5,17.7 88.5,17.7 C88.4,17.7 88.3,17.7 88.2,17.6 C86.8,17 85.3,16.3 83.9,15.7 C83.5,15.5 83.1,15.4 82.7,15.3 C81.5,15.2 80.4,15.1 79.2,15 C79,15 78.7,15 78.5,15 C78.5,15 78.5,15.1 78.5,15.1 C78.9,15.3 79.4,15.5 79.8,15.7 C82.7,17 85.5,18.3 88.3,19.8 C90.6,21 92.8,22.5 94.6,24.4 C96.1,26 97,27.7 96.3,30 C96.2,30.3 96.3,30.5 96.6,30.6 C97.6,30.9 98.7,31.2 99.7,31.5 C100.1,31.6 100.4,31.5 100.5,31.1 C100.6,30.8 100.8,30.4 100.9,30.1 C101.2,29 101.3,27.9 100.8,26.8 C100.2,25.5 99.3,24.5 98.2,23.5 C97.3,22.7 96.3,21.9 95.4,21 C95.3,20.9 95.1,20.5 95.1,20.4 C95.2,20.2 95.5,20 95.7,20 C96.1,19.9 96.5,20 97,20 C97.4,20 97.8,20.1 98.2,20.1 C98.2,20 98.2,20 98.2,19.9 C96.6,19.1 95.1,18.4 93.5,17.6 C92.3,17 91.1,16.6 89.9,16 C89.1,15.6 88.3,15.5 87.4,15.6 C86.8,15.7 86.7,16 87.1,16.4 C87.6,16.8 88,17.2 88.5,17.6 Z" id="Shape" fill="#FFFFFF"></path>
                    <path d="M84.1,28.4 C81.2,28.3 78.9,27.6 76.6,26.5 C73,24.8 69.5,23 65.9,21.2 C63.2,19.9 60.4,18.6 57.6,17.3 C54.5,15.8 51.3,14.4 48.4,12.5 C47.2,11.7 46.2,10.8 45.6,9.5 C44.9,8 45.7,6.2 47.3,5.4 C48.8,4.7 50.4,4.5 52,4.9 C53.4,5.2 54.8,5.5 56,6.1 C57.6,6.8 59,7.7 60.6,8.6 C62.6,9.7 64.6,10.9 66.7,11.9 C69.3,13.2 72,14.3 74.7,15.5 C77.2,16.6 79.6,17.6 82,18.7 C84,19.6 85.8,20.7 87.4,22.1 C88.3,22.9 89,23.9 89.1,25.2 C89.1,26.4 88.5,27.1 87.5,27.7 C86.5,28.3 85.2,28.4 84.1,28.4 Z M80.5,24.5 C80.9,24.5 81.3,24.5 81.7,24.4 C82.8,24.2 83,23.5 82.5,22.6 C82.3,22.2 81.9,21.8 81.6,21.5 C79.4,19.5 76.7,18.3 74,17.1 C71.7,16.1 69.4,15.1 67.1,14.1 C64.9,13.2 62.7,12.2 60.5,11.3 C59.1,10.7 57.7,10.3 56.3,9.8 C55.3,9.4 54.2,9.3 53.1,9.5 C52.1,9.7 51.8,10.4 52.5,11.2 C53.1,11.8 53.7,12.5 54.5,12.9 C56.9,14.3 59.4,15.5 61.9,16.8 C64.5,18.1 67.1,19.3 69.7,20.5 C71.5,21.3 73.2,22.2 75,23 C76.7,23.9 78.6,24.4 80.5,24.5 Z" id="Shape" fill="#000000"></path>
                    <path d="M112.8,24.8 C113.1,25.3 113.4,25.7 113.7,26.2 C114.5,27.5 114.4,28.9 114,30.2 C113.5,31.9 112.4,33.1 111.2,34.4 C110.8,34.9 110.3,35.3 109.9,35.8 C109.6,36.1 109.3,36.2 108.9,35.8 C108.4,35.3 107.7,35 107.2,34.6 C106.8,34.3 106.8,34.2 107.1,33.8 C107.7,33 108.4,32.3 108.9,31.5 C109.8,30 110,28.3 109.3,26.7 C108.8,25.5 107.8,24.5 106.9,23.6 C105,21.8 102.7,20.4 100.4,19.2 C96.7,17.4 93,15.7 89.3,14 C86.5,12.7 83.7,11.3 81.5,9.1 C80.7,8.3 80,7.4 79.3,6.5 C79.1,6.2 78.9,5.9 78.7,5.6 C78.6,5.5 78.5,5.3 78.6,5.2 C78.6,5.1 78.8,5.1 78.9,5.1 C80.1,5.1 81.3,5 82.4,5.1 C82.7,5.1 83,5.3 83.1,5.6 C84,7 84.9,8.3 86.1,9.4 C87.8,11 89.8,12.2 91.9,13.2 C94,14.2 96.1,15.2 98.2,16.2 C100.3,17.2 102.4,18.1 104.5,19.2 C106.7,20.3 108.8,21.5 110.8,23.1 C110.9,23.2 111.1,23.3 111.2,23.4 C111.3,23.4 111.3,23.4 111.4,23.3 C111.3,23.1 111.3,22.8 111.2,22.6 C110.3,20.6 108.7,19.3 106.9,18.2 C106.8,18.1 106.7,18.1 106.6,18 C106.6,18 106.6,17.9 106.5,17.8 C107,17.8 107.5,17.9 108,17.9 C109.3,18.1 110.6,18.4 112,18.4 C113.2,18.4 114,19 114.8,19.7 C115.8,20.6 116.6,21.6 116.9,22.8 C117,23.3 117.1,23.8 117.1,24.3 C117.1,24.6 117.3,24.9 117.5,25.1 C118.6,25.9 119.7,26.7 120.5,27.9 C121.3,29.2 122,30.7 121.5,32.3 C121.2,33.3 120.6,34.2 120,35.1 C119,36.6 118,38.1 116.9,39.6 C116.4,40.3 115.8,40.9 115.2,41.6 C114.8,42 114.4,42 114.1,41.5 C113.7,40.9 113.4,40.3 113.1,39.7 C113.1,39.6 113,39.5 113,39.5 C112.5,38.9 112.5,38.9 113,38.2 C114.1,36.7 115.1,35.3 116.1,33.8 C117.4,31.8 117.2,29.9 116,27.9 C115.1,26.4 114,25.5 112.8,24.8 C112.8,24.8 112.8,24.8 112.8,24.8 Z" id="Shape" fill="#000000"></path>
                    <path d="M25.4,16.7 C28.3,18.1 31.2,19.5 34,21.4 C33.8,21.5 33.7,21.5 33.6,21.5 C32.2,21.4 30.8,21.3 29.5,21.1 C28.9,21 28.2,20.6 27.7,20.3 C25.6,19.2 23.5,18 21.4,17 C18.6,15.6 15.7,14.3 12.9,12.9 C10.9,11.9 9,10.8 7.4,9.2 C6.5,8.3 5.7,7.3 4.9,6.3 C4.8,6.2 4.8,6 4.8,5.9 C4.9,5.8 5,5.8 5.2,5.8 C6.1,5.8 7,5.8 7.8,5.8 C9,5.8 10.3,5.8 11.5,5.7 C14.6,5.6 17.6,6.3 20.3,7.8 C22.5,9 24.6,10.4 26.8,11.6 C28.3,12.5 29.8,13.3 31.3,14.2 C31.8,14.5 32.2,14.9 32.7,15.3 C33,15.6 32.9,15.9 32.6,16 C32,16.2 31.5,16.4 30.9,16.4 C29.4,16.4 27.9,16.3 26.3,16.3 C26,16.3 25.8,16.3 25.5,16.3 C25.4,16.6 25.4,16.7 25.4,16.7 Z M12.5,9.7 C13.2,10.2 13.8,10.7 14.4,11.1 C15.8,11.9 17.2,12.7 18.6,13.5 C19.1,13.8 19.7,14.2 20.3,14.2 C21.7,14.3 23,14.3 24.4,14.3 C24.5,14.3 24.8,14.2 24.8,14.1 C24.8,13.9 24.7,13.7 24.6,13.6 C24.4,13.4 24.1,13.2 23.8,13.1 C22.7,12.5 21.7,11.9 20.6,11.3 C18.3,10 15.7,9.4 13.1,9.7 C12.9,9.6 12.8,9.7 12.5,9.7 Z" id="Shape" fill="#000000"></path>
                    <path d="M23.7,5.7 C24.4,5.7 25,5.7 25.6,5.7 C26.4,5.7 27.2,5.7 28,5.7 C28.2,5.7 28.5,5.9 28.6,6 C29.4,6.9 30.1,7.9 30.9,8.8 C32.2,10.2 33.8,11.2 35.4,12.1 C37.2,13.1 38.9,14 40.7,14.8 C42.7,15.8 44.8,16.7 46.8,17.7 C48.8,18.7 50.6,19.8 52.6,20.8 C52.8,20.9 53.1,21 53.3,21 C56.4,21.3 59.5,21.6 62.5,21.9 C63.1,22 63.7,21.9 64.2,22.1 C64.7,22.3 65.1,22.6 65.4,23 C66,23.5 66.5,24.1 67.1,24.7 C67.2,24.8 67.2,24.9 67.3,25.1 C67.2,25.1 67,25.2 66.9,25.2 C65,24.9 63,24.7 61.1,24.4 C59.2,24.2 57.4,23.9 55.5,23.7 C54.3,23.6 53.1,23.4 51.9,23.3 C51.3,23.2 50.8,23.1 50.3,22.7 C48.6,21.2 46.6,20 44.6,19 C41.7,17.6 38.8,16.2 35.9,14.8 C34.1,13.9 32.2,13 30.4,12 C29,11.2 27.7,10.3 26.6,9.3 C25.6,8.4 24.8,7.2 24,6.1 C23.8,6 23.7,5.9 23.7,5.7 Z" id="Shape" fill="#000000"></path>
                    <path d="M88.5,17.6 C88,17.2 87.5,16.8 87.1,16.4 C86.7,16 86.8,15.6 87.4,15.6 C88.2,15.5 89.1,15.6 89.9,16 C91.1,16.6 92.3,17.1 93.5,17.6 C95.1,18.3 96.6,19.1 98.2,19.9 C98.2,20 98.2,20 98.2,20.1 C97.8,20.1 97.4,20 97,20 C96.6,20 96.2,19.9 95.7,20 C95.5,20 95.2,20.2 95.1,20.4 C95,20.5 95.2,20.8 95.4,21 C96.3,21.8 97.3,22.7 98.2,23.5 C99.2,24.5 100.1,25.5 100.8,26.8 C101.3,27.9 101.3,29 100.9,30.1 C100.8,30.5 100.7,30.8 100.5,31.1 C100.4,31.5 100.1,31.6 99.7,31.5 C98.7,31.2 97.6,30.9 96.6,30.6 C96.3,30.5 96.2,30.4 96.3,30 C97,27.8 96,26 94.6,24.4 C92.8,22.5 90.7,21 88.3,19.8 C85.5,18.3 82.6,17.1 79.8,15.7 C79.4,15.5 78.9,15.3 78.5,15.1 C78.5,15.1 78.5,15 78.5,15 C78.7,15 79,15 79.2,15 C80.4,15.1 81.5,15.2 82.7,15.3 C83.1,15.4 83.5,15.5 83.9,15.7 C85.3,16.3 86.8,17 88.2,17.6 C88.3,17.6 88.4,17.6 88.5,17.7 C88.5,17.7 88.5,17.6 88.5,17.6 Z" id="Shape" fill="#000000"></path>
                    <path d="M80.5,24.5 C78.5,24.4 76.7,23.9 74.9,23.1 C73.1,22.3 71.4,21.4 69.6,20.6 C67,19.4 64.4,18.2 61.8,16.9 C59.3,15.7 56.8,14.4 54.4,13 C53.6,12.6 53,11.9 52.4,11.3 C51.7,10.5 52,9.8 53,9.6 C54.1,9.4 55.2,9.5 56.2,9.9 C57.6,10.4 59,10.9 60.4,11.4 C62.6,12.3 64.8,13.3 67,14.2 C69.3,15.2 71.6,16.2 73.9,17.2 C76.6,18.4 79.3,19.6 81.5,21.6 C81.8,21.9 82.2,22.3 82.4,22.7 C82.9,23.6 82.7,24.3 81.6,24.5 C81.3,24.5 80.9,24.5 80.5,24.5 Z" id="Shape" fill="#FFFFFF"></path>
                    <path d="M12.5,9.7 C12.8,9.6 12.9,9.5 13.1,9.5 C15.8,9.2 18.3,9.8 20.6,11.1 C21.7,11.7 22.7,12.3 23.8,12.9 C24.1,13.1 24.3,13.2 24.6,13.4 C24.7,13.5 24.8,13.8 24.8,13.9 C24.8,14 24.5,14.1 24.4,14.1 C23,14.1 21.7,14.1 20.3,14 C19.7,13.9 19.2,13.6 18.6,13.3 C17.2,12.5 15.8,11.7 14.4,10.9 C13.7,10.7 13.2,10.3 12.5,9.7 Z" id="Shape" fill="#FFFFFF"></path>
                </g>
            </g>
        </g>
    </g>
</svg>