<?xml version="1.0" encoding="UTF-8"?>
<svg width="182px" height="55px" viewBox="0 0 182 55" version="1.1" xmlns="http://www.w3.org/2000/svg" xmlns:xlink="http://www.w3.org/1999/xlink">
    <!-- Generator: Sketch 49.3 (51167) - http://www.bohemiancoding.com/sketch -->
    <title>M5lweP_1_</title>
    <desc>Created with Sketch.</desc>
    <defs></defs>
    <g id="Page-1" stroke="none" stroke-width="1" fill="none" fill-rule="evenodd">
        <g id="plork-logos" transform="translate(-684.000000, -95.000000)" fill-rule="nonzero">
            <g id="M5lweP_1_" transform="translate(684.000000, 95.000000)">
                <g id="Group">
                    <path d="M0.4,55 C0.4,36.7 0.4,18.4 0.4,0.1 C60.7,0.1 120.9,0.1 181.2,0.1 C181.2,18.4 181.2,36.7 181.2,55 C121,55 60.7,55 0.4,55 Z M71,5.7 C71,5.8 71,5.8 71,5.9 C70.5,5.9 70.1,5.8 69.6,5.8 C68.2,5.9 66.8,5.9 65.4,6 C65.1,6 64.9,6.3 64.7,6.4 C64.9,6.6 65,6.9 65.2,7 C66,7.4 66.8,7.8 67.7,8.1 C72.2,9.3 76.8,10.5 81.3,11.7 C85.8,12.9 90.2,14 94.7,15.2 C97.2,15.9 99.7,16.8 102.1,17.6 C103,17.9 103.9,18.4 104.7,18.9 C106,19.7 106.6,20.9 106.1,22.4 C105.7,23.6 105.4,24.8 105.1,26 C104.4,29.1 104.4,32.1 104.8,35.2 C105.1,37.4 105.6,39.5 106.4,41.6 C107.5,44.4 109.5,46.2 112.4,46.9 C114.9,47.5 117.5,47.4 120.1,46.8 C123.9,45.9 127,44 129.2,40.7 C130.9,38.3 131.9,35.7 132.2,32.8 C132.5,30 132.2,27.2 131.6,24.5 C131.1,22.7 130.3,21 128.9,19.7 C126.8,17.7 124.3,16.5 121.6,15.5 C118.8,14.5 116,13.6 113.2,12.8 C110.1,11.9 106.9,11.1 103.7,10.5 C100.6,9.8 97.4,9.4 94.3,8.8 C91.2,8.3 88.2,7.7 85.1,7.2 C80.5,6.7 75.7,6.3 71,5.7 Z M63.6,19.4 C63.6,19.5 63.6,19.6 63.6,19.7 C63.1,19.9 62.6,20.2 62,20.3 C60.9,20.6 59.8,20.7 58.6,20.9 C58.2,21 58.1,21.1 58.2,21.5 C58.3,21.9 58.5,22.4 58.5,22.8 C58.7,27.5 58.9,32.2 59,36.9 C59,38.4 58.9,39.9 58.7,41.3 C58.4,44.1 58,47 57.7,49.8 C57.6,50.4 57.9,50.4 58.3,50.4 C59.9,50.3 61.5,50.2 63.1,50.1 C63.6,50.1 63.8,49.9 63.8,49.4 C63.8,48.8 63.8,48.1 63.9,47.5 C64.2,44.7 64.6,42 64.9,39.2 C65,38.5 65.3,38.3 65.9,38.2 C68.5,37.9 71.1,38.1 73.6,37 C74.9,36.5 76.2,35.8 77.2,34.7 C79,32.7 79.6,30.4 79.4,27.7 C79.1,24.6 77.8,22.3 75,20.9 C74.2,20.5 73.4,20.1 72.7,19.7 C71.7,19.2 70.8,18.6 70.4,17.4 C70.2,16.9 69.8,16.4 69.3,16.2 C68.1,15.5 66.8,14.8 65.5,14.3 C61.8,12.9 58,11.9 54.1,11.3 C50.2,10.7 46.3,10 42.4,9.6 C39.7,9.3 37,9.3 34.3,9.1 C32.2,8.9 30.1,9.1 28,8.5 C24.9,7.6 21.8,6.9 18.6,6.2 C15.9,5.6 13.2,4.5 10.3,4.5 C9.2,4.5 8.2,4.5 7,4.5 C7.3,4.6 7.4,4.7 7.5,4.8 C9.3,5.3 11,5.7 12.8,6.2 C15.2,6.8 17.5,7.4 19.9,7.9 C23.3,8.7 26.6,9.4 30,10.2 C32.1,10.7 34.2,11.2 36.3,11.7 C38.3,12.2 40.3,12.8 42.2,13.4 C44.9,14.2 47.5,15.1 50.2,16 C51.3,16.4 52.4,16.9 53.6,17.1 C55.2,17.4 56.9,17.5 58.5,17.8 C59.8,18 61.1,18.3 62.3,18.6 C62.8,18.9 63.2,19.2 63.6,19.4 Z M135.7,11.2 C135.7,11.3 135.7,11.4 135.7,11.5 C135.5,11.5 135.2,11.5 135,11.4 C133.4,11 131.9,10.6 130.3,10.2 C127.6,9.6 124.8,9 122.1,8.4 C120.2,8 118.4,7.5 116.5,7.2 C115,7 113.5,7 112.1,7 C112,7 111.9,7.1 111.6,7.1 C112,7.3 112.2,7.4 112.4,7.5 C113.9,7.9 115.3,8.2 116.8,8.5 C121.1,9.5 125.4,10.3 129.7,11.4 C134.4,12.6 139.1,14 143.7,15.4 C146.3,16.2 148.8,17.2 151.1,18.7 C152.6,19.7 153.6,21 153.7,22.9 C153.8,24.7 153.8,26.5 153.9,28.3 C154.3,33.3 154.2,38.3 153.4,43.3 C153.3,43.8 153.4,44 153.9,43.9 C155.4,43.8 157,43.7 158.5,43.6 C158.9,43.6 159.3,43.5 159.4,42.9 C159.9,39.4 160.3,35.9 160.1,32.3 C160.1,32.1 160.2,31.8 160.2,31.5 C160.4,31.7 160.6,31.8 160.6,31.9 C161.3,33.2 162.1,34.5 162.7,35.9 C163.6,38 164.5,40.2 165.3,42.3 C165.5,42.8 165.7,43 166.3,42.9 C168.2,42.7 170.2,42.6 172.1,42.5 C172.5,42.5 172.6,42.3 172.4,41.9 C170.7,37.9 168.6,34.1 166.1,30.5 C165.9,30.3 165.9,29.8 166,29.5 C166.1,29.1 166.5,28.8 166.7,28.4 C167.8,26.5 168.9,24.6 169.9,22.7 C170.5,21.5 170.5,20.2 169,19.1 C167.1,17.7 164.8,17 162.6,16.3 C160.4,15.6 158.1,15.1 155.9,14.6 C153.7,14.1 151.4,13.6 149.2,13.1 C147.9,12.8 146.5,12.5 145.2,12.1 C143.3,11.5 141.4,10.7 139.4,10 C136.9,9.2 134.4,8.4 131.9,7.5 C131.5,7.4 131.1,7.3 130.7,7.3 C129,7.2 127.2,7.2 125.5,7.2 C125.3,7.2 125,7.2 124.8,7.3 C124.8,7.4 124.8,7.5 124.8,7.5 C128.4,8.9 132,10.1 135.7,11.2 Z M33.9,5.3 C33.9,5.3 33.9,5.4 33.9,5.4 C34,5.5 34.2,5.6 34.3,5.6 C34.9,5.7 35.5,5.9 36.1,6 C39.8,6.9 43.5,7.8 47.2,8.7 C50.4,9.5 53.5,10.1 56.7,10.9 C60.8,11.9 64.9,13 68.9,14.1 C72.7,15.2 76.5,16.4 79.9,18.5 C81.6,19.6 82.9,21 83,23.1 C83.1,25.1 83.3,27.1 83.3,29.1 C83.4,32.6 83.7,36.1 83.2,39.6 C82.8,42.4 82.5,45.2 82.2,48.1 C82.1,48.7 82.2,48.9 82.8,48.9 C84.8,48.8 86.8,48.7 88.8,48.6 C92.6,48.4 96.5,48.1 100.3,47.9 C100.8,47.9 100.9,47.7 101,47.2 C101.1,45.9 101.3,44.7 101.5,43.4 C101.6,42.7 101.4,42.7 100.8,42.7 C99.4,42.8 97.9,42.9 96.5,43 C94.2,43.2 92,43.3 89.7,43.5 C89,43.6 88.9,43.5 89,42.8 C89.2,40.7 89.5,38.7 89.5,36.6 C89.5,32.6 89.3,28.6 89.2,24.6 C89.2,21.9 88.1,19.9 85.8,18.6 C83,17 80,16 77,15 C74.6,14.2 72.2,13.6 69.8,12.9 C66.1,11.9 62.4,11 58.7,10.1 C55.5,9.3 52.3,8.7 49.1,8 C48.9,8 48.7,7.8 48.5,7.7 C48.5,7.7 48.5,7.6 48.6,7.6 C52.3,7.6 55.9,7.6 59.6,7.6 C58.7,7.3 57.8,7 56.9,6.8 C55.3,6.4 53.6,6 52,5.8 C50.4,5.6 48.8,5.7 47.2,5.6 C42.9,5.5 38.7,5.4 34.4,5.3 C34.3,5.3 34.1,5.3 33.9,5.3 Z M142.4,26.3 C142.4,25.9 142.3,25.5 142.3,25.1 C142.2,24.4 142.2,23.8 142.1,23.1 C142.1,22.9 141.8,22.7 141.7,22.7 C140.3,22.8 138.8,23 137.4,23.2 C137,23.3 136.7,23.5 136.8,24 C136.9,25 137,26 137.1,26.9 C137.2,29.6 137.3,32.4 137.4,35.1 C137.4,36 137.4,37 137.3,37.9 C137.2,39.4 137,40.9 136.8,42.4 C136.7,43.4 136.5,44.4 136.4,45.5 C138.5,45.3 140.4,45.2 142.3,45.1 C142.4,44.8 142.5,44.6 142.5,44.3 C142.5,44.1 142.5,43.8 142.5,43.6 C143.1,40.4 143.2,37.2 143.3,33.9 C143.3,33.2 143.3,32.5 143.4,31.8 C143.6,30.5 144.1,29.3 145.4,28.8 C146.3,28.4 147.3,28.2 148.3,28.1 C149.3,28 149.4,28 149.3,27.1 C149.3,25.7 149.3,24.3 149.1,22.9 C149,22.1 148.9,21.2 147.9,20.8 C146.8,21.6 145.6,22.2 144.7,23.1 C143.9,23.9 143.2,25.1 142.4,26.3 Z M133.2,15.9 C133.2,15.8 133.3,15.7 133.3,15.7 C137.4,16.5 141.5,17.7 145.6,18.6 C145.5,18.4 145.4,18.2 145.2,18.1 C143.9,17.5 142.6,16.9 141.3,16.4 C139.4,15.7 137.4,15 135.4,14.4 C134.8,14.2 134.2,14.1 133.6,14 C131.4,13.8 129.2,13.7 127,13.3 C124.1,12.8 121.3,12.1 118.4,11.5 C115.8,10.9 113.2,10.3 110.7,9.7 C108.7,9.3 106.8,8.8 104.8,8.4 C101.8,7.7 98.9,6.6 95.7,6.8 C94.9,6.8 94.2,6.8 93.4,6.8 C93.5,7 93.6,7.1 93.8,7.1 C95.9,7.6 97.9,8.1 100,8.6 C102.6,9.2 105.2,9.7 107.7,10.3 C110.7,11 113.7,11.6 116.7,12.5 C120.1,13.5 123.5,14.6 127,15.7 C128,16 128.9,16.4 129.9,16.6 C131.6,16.9 133.4,17 135.1,17.1 C135.2,17.1 135.3,17.1 135.4,17 C135.4,16.9 135.4,16.9 135.4,16.8 C134.6,16.5 133.9,16.2 133.2,15.9 Z" id="Shape" fill="#FFFFFF"></path>
                    <path d="M71,5.7 C75.7,6.2 80.4,6.7 85.1,7.3 C88.2,7.7 91.2,8.3 94.3,8.9 C97.4,9.4 100.6,9.9 103.7,10.6 C106.9,11.3 110,12 113.2,12.9 C116,13.7 118.9,14.6 121.6,15.6 C124.2,16.6 126.8,17.8 128.9,19.8 C130.3,21.1 131.1,22.8 131.6,24.6 C132.3,27.3 132.5,30.1 132.2,32.9 C131.9,35.8 130.9,38.4 129.2,40.8 C127,44 123.9,46 120.1,46.9 C117.6,47.5 115,47.6 112.4,47 C109.5,46.3 107.5,44.5 106.4,41.7 C105.6,39.6 105.1,37.5 104.8,35.3 C104.4,32.2 104.4,29.1 105.1,26.1 C105.4,24.9 105.7,23.7 106.1,22.5 C106.6,21 106,19.8 104.7,19 C103.9,18.5 103,18 102.1,17.7 C99.7,16.8 97.2,16 94.7,15.3 C90.3,14.1 85.8,12.9 81.3,11.8 C76.7,10.6 72.2,9.4 67.7,8.2 C66.8,8 66,7.5 65.2,7.1 C65,7 64.9,6.7 64.7,6.5 C64.9,6.4 65.2,6.1 65.4,6.1 C66.8,6 68.2,5.9 69.6,5.9 C70.1,5.9 70.5,5.9 71,6 C71,5.8 71,5.8 71,5.7 Z M111.2,30.8 C111.3,32.2 111.3,33.7 111.6,35.1 C111.8,36.5 112.1,37.8 112.5,39.1 C113,40.6 114,41.7 115.5,42.2 C116.6,42.6 117.7,42.5 118.9,42.3 C120.8,42 122.4,41 123.6,39.5 C125.2,37.4 125.8,35 125.8,32.4 C125.8,30.4 125.6,28.3 125.3,26.3 C125.1,25.2 124.7,24 124.2,23 C122.8,20.5 120.6,18.7 118.3,17.3 C115.3,15.4 111.9,14.4 108.5,13.4 C106,12.7 103.6,12.1 101.1,11.5 C99,11 96.9,10.5 94.8,10.1 C92.4,9.6 90,9.2 87.6,8.9 C84.5,8.5 81.5,8.2 78.4,7.8 C77.6,7.7 76.7,7.8 75.9,7.9 C75.8,7.9 75.6,8.1 75.5,8.2 C75.6,8.3 75.7,8.5 75.8,8.6 C76.3,8.8 76.9,9 77.4,9.2 C79.5,9.8 81.6,10.4 83.7,10.9 C85.4,11.3 87.1,11.7 88.7,12.1 C90.7,12.6 92.8,13.2 94.8,13.7 C96.6,14.2 98.5,14.6 100.3,15.1 C102.3,15.6 104.2,16.2 106.2,16.8 C108.2,17.4 110.1,18 111.9,19.1 C112.7,19.5 113.3,20.2 113.2,21.1 C113.2,21.6 113,22 112.8,22.4 C111.6,25.1 111.1,27.9 111.2,30.8 Z" id="Shape" fill="#000000"></path>
                    <path d="M63.6,19.4 C63.2,19.2 62.9,18.9 62.4,18.8 C61.1,18.5 59.9,18.2 58.6,18 C57,17.7 55.3,17.7 53.7,17.3 C52.6,17.1 51.5,16.5 50.3,16.2 C47.6,15.3 45,14.5 42.3,13.6 C40.3,13 38.4,12.4 36.4,11.9 C34.3,11.4 32.2,10.9 30.1,10.4 C26.7,9.6 23.4,8.9 20,8.1 C17.6,7.6 15.2,7 12.9,6.4 C11.1,6 9.3,5.5 7.6,5 C7.5,5 7.3,4.9 7.1,4.7 C8.3,4.7 9.4,4.7 10.4,4.7 C13.3,4.6 15.9,5.8 18.7,6.4 C21.8,7.1 25,7.8 28.1,8.7 C30.2,9.3 32.3,9.1 34.4,9.3 C37.1,9.5 39.8,9.5 42.5,9.8 C46.4,10.3 50.3,10.9 54.2,11.5 C58.1,12.1 61.9,13.2 65.6,14.5 C66.9,15 68.2,15.7 69.4,16.4 C69.9,16.7 70.3,17.1 70.5,17.6 C70.9,18.8 71.8,19.4 72.8,19.9 C73.6,20.3 74.4,20.7 75.1,21.1 C77.9,22.5 79.2,24.8 79.5,27.9 C79.7,30.6 79.1,32.9 77.3,34.9 C76.3,36 75,36.6 73.7,37.2 C71.2,38.2 68.6,38.1 66,38.4 C65.3,38.5 65.1,38.7 65,39.4 C64.7,42.2 64.3,44.9 64,47.7 C63.9,48.3 63.9,49 63.9,49.6 C63.9,50.1 63.7,50.3 63.2,50.3 C61.6,50.4 60,50.5 58.4,50.6 C57.9,50.6 57.7,50.5 57.8,50 C58.2,47.2 58.5,44.3 58.8,41.5 C59,40 59.1,38.5 59.1,37.1 C59,32.4 58.8,27.7 58.6,23 C58.6,22.6 58.4,22.1 58.3,21.7 C58.2,21.3 58.3,21.2 58.7,21.1 C59.8,20.9 61,20.7 62.1,20.5 C62.6,20.4 63.2,20.1 63.7,19.9 C63.6,19.6 63.6,19.5 63.6,19.4 Z M65.2,33.6 C66.2,33.6 67.1,33.6 68,33.6 C68.7,33.6 69.3,33.5 70,33.3 C71.4,33 72.5,32.3 72.8,30.9 C73,29.9 73,28.9 72.8,27.9 C72.4,26.1 71.3,25.3 69.3,25.3 C68.1,25.3 66.8,25.5 65.6,25.6 C65,25.6 64.9,25.9 64.9,26.4 C65,28.7 65.1,30.9 65.2,33.2 C65.2,33.3 65.2,33.4 65.2,33.6 Z M39.1,11 C39.1,11.1 39.1,11.1 39.1,11.2 C39.2,11.2 39.3,11.3 39.4,11.3 C42.2,12 45,12.6 47.7,13.5 C50.4,14.4 53.1,14.6 55.8,14.6 C56.2,14.6 56.6,14.4 57,14.3 C56.6,14 56.3,13.7 55.9,13.6 C53.4,12.7 50.7,12 48,11.6 C45.3,11.3 42.6,11.1 39.8,10.9 C39.7,10.8 39.4,10.9 39.1,11 Z" id="Shape" fill="#000000"></path>
                    <path d="M135.7,11.2 C132.1,10 128.4,8.9 124.8,7.7 C124.8,7.6 124.8,7.5 124.8,7.5 C125,7.5 125.3,7.4 125.5,7.4 C127.2,7.4 129,7.5 130.7,7.5 C131.1,7.5 131.5,7.6 131.9,7.7 C134.4,8.5 136.9,9.3 139.4,10.2 C141.3,10.9 143.2,11.6 145.2,12.3 C146.5,12.7 147.9,13 149.2,13.3 C151.4,13.8 153.7,14.3 155.9,14.8 C158.1,15.3 160.4,15.9 162.6,16.5 C164.8,17.2 167.1,17.9 169,19.3 C170.5,20.4 170.5,21.7 169.9,22.9 C168.9,24.9 167.8,26.7 166.7,28.6 C166.5,29 166.2,29.3 166,29.7 C165.9,30 165.9,30.4 166.1,30.7 C168.6,34.3 170.7,38.1 172.4,42.1 C172.6,42.5 172.5,42.7 172.1,42.7 C170.2,42.8 168.2,43 166.3,43.1 C165.8,43.1 165.5,43 165.3,42.5 C164.5,40.4 163.6,38.2 162.7,36.1 C162.1,34.7 161.3,33.4 160.6,32.1 C160.5,32 160.4,31.9 160.2,31.7 C160.1,32.1 160.1,32.3 160.1,32.5 C160.3,36.1 159.9,39.6 159.4,43.1 C159.3,43.7 158.9,43.7 158.5,43.8 C157,43.9 155.4,44 153.9,44.1 C153.4,44.1 153.3,43.9 153.4,43.5 C154.1,38.5 154.3,33.5 153.9,28.5 C153.8,26.7 153.8,24.9 153.7,23.1 C153.6,21.3 152.6,19.9 151.1,18.9 C148.8,17.4 146.3,16.4 143.7,15.6 C139,14.2 134.4,12.8 129.7,11.6 C125.4,10.5 121.1,9.6 116.8,8.7 C115.3,8.4 113.9,8 112.4,7.7 C112.2,7.6 112,7.5 111.6,7.3 C111.9,7.2 112,7.2 112.1,7.2 C113.6,7.3 115.1,7.2 116.5,7.4 C118.4,7.7 120.3,8.2 122.1,8.6 C124.8,9.2 127.6,9.8 130.3,10.4 C131.9,10.8 133.4,11.2 135,11.6 C135.2,11.7 135.5,11.6 135.7,11.7 C135.7,11.4 135.7,11.3 135.7,11.2 Z M144.1,13.5 C144.1,13.6 144.1,13.6 144,13.7 C144.2,13.8 144.4,13.9 144.6,14 C145.9,14.4 147.3,14.8 148.6,15.3 C151.3,16.2 154,17.1 156.5,18.7 C158,19.6 159.3,20.8 159.5,22.7 C159.6,23.9 159.7,25.2 159.7,26.4 C159.7,27.4 159.8,28.4 159.8,29.4 C159.8,29.6 159.9,29.7 160,29.9 C160.2,29.8 160.4,29.7 160.4,29.6 C160.9,28.8 161.4,28 161.8,27.2 C162.5,25.8 163.2,24.5 163.7,23.1 C164.2,22 164.2,20.9 163.2,20 C162.2,19 160.9,18.3 159.6,17.9 C158.3,17.4 157.1,17 155.8,16.6 C154.2,16.1 152.5,15.7 150.9,15.3 C149.7,15 148.5,14.7 147.3,14.5 C146.3,14 145.2,13.7 144.1,13.5 Z" id="Shape" fill="#000000"></path>
                    <path d="M33.9,5.3 C34.1,5.3 34.3,5.3 34.5,5.3 C38.8,5.4 43,5.5 47.3,5.6 C48.9,5.6 50.5,5.6 52.1,5.8 C53.8,6 55.4,6.4 57,6.8 C57.9,7 58.8,7.2 59.7,7.6 C56,7.6 52.4,7.6 48.7,7.6 C48.7,7.6 48.7,7.7 48.6,7.7 C48.8,7.8 49,7.9 49.2,8 C52.4,8.7 55.6,9.4 58.8,10.1 C62.5,11 66.2,11.9 69.9,12.9 C72.3,13.5 74.7,14.2 77.1,15 C80.1,16 83.1,17 85.9,18.6 C88.2,19.9 89.3,22 89.3,24.6 C89.3,28.6 89.6,32.6 89.6,36.6 C89.6,38.7 89.3,40.7 89.1,42.8 C89,43.5 89.1,43.6 89.8,43.5 C92.1,43.3 94.3,43.2 96.6,43 C98,42.9 99.5,42.8 100.9,42.7 C101.4,42.7 101.7,42.7 101.6,43.4 C101.4,44.7 101.2,45.9 101.1,47.2 C101,47.7 100.9,47.8 100.4,47.9 C96.6,48.1 92.7,48.4 88.9,48.6 C86.9,48.7 84.9,48.8 82.9,48.9 C82.3,48.9 82.2,48.7 82.3,48.1 C82.7,45.3 83,42.5 83.3,39.6 C83.8,36.1 83.5,32.6 83.4,29.1 C83.3,27.1 83.2,25.1 83.1,23.1 C83,20.9 81.7,19.5 80,18.5 C76.6,16.4 72.8,15.2 69,14.1 C65,12.9 60.9,11.9 56.8,10.9 C53.7,10.1 50.5,9.4 47.3,8.7 C43.6,7.8 39.9,6.9 36.2,6 C35.6,5.9 35,5.7 34.4,5.6 C34.2,5.6 34.1,5.5 34,5.4 C33.8,5.4 33.9,5.4 33.9,5.3 Z" id="Shape" fill="#000000"></path>
                    <path d="M142.4,26.3 C143.2,25.2 143.8,24 144.8,23 C145.7,22.1 146.9,21.4 148,20.7 C149,21.2 149.1,22 149.2,22.8 C149.3,24.2 149.3,25.6 149.4,27 C149.4,27.9 149.3,27.9 148.4,28 C147.4,28.1 146.4,28.4 145.5,28.7 C144.2,29.2 143.7,30.4 143.5,31.7 C143.4,32.4 143.4,33.1 143.4,33.8 C143.4,37 143.2,40.3 142.6,43.5 C142.6,43.7 142.6,44 142.6,44.2 C142.6,44.4 142.5,44.6 142.4,45 C140.5,45.1 138.5,45.3 136.5,45.4 C136.7,44.3 136.8,43.3 136.9,42.3 C137.1,40.8 137.2,39.3 137.4,37.8 C137.5,36.9 137.5,35.9 137.5,35 C137.4,32.3 137.3,29.5 137.2,26.8 C137.2,25.8 137,24.8 136.9,23.9 C136.8,23.4 137.1,23.2 137.5,23.1 C138.9,22.9 140.4,22.8 141.8,22.6 C141.9,22.6 142.2,22.9 142.2,23 C142.3,23.7 142.3,24.3 142.4,25 C142.3,25.5 142.4,25.9 142.4,26.3 Z" id="Shape" fill="#000000"></path>
                    <path d="M133.2,15.9 C133.9,16.2 134.7,16.5 135.4,16.8 C135.4,16.9 135.4,16.9 135.4,17 C135.3,17 135.2,17.1 135.1,17.1 C133.4,16.9 131.6,16.8 129.9,16.6 C128.9,16.4 127.9,16 127,15.7 C123.6,14.6 120.2,13.5 116.7,12.5 C113.7,11.7 110.7,11 107.7,10.3 C105.1,9.7 102.5,9.2 100,8.6 C97.9,8.1 95.9,7.6 93.8,7.1 C93.7,7.1 93.6,7 93.4,6.8 C94.2,6.8 94.9,6.8 95.7,6.8 C98.9,6.7 101.8,7.8 104.8,8.4 C106.8,8.8 108.7,9.3 110.7,9.7 C113.3,10.3 115.9,10.9 118.4,11.5 C121.3,12.1 124.1,12.8 127,13.3 C129.2,13.7 131.4,13.8 133.6,14 C134.2,14.1 134.8,14.2 135.4,14.4 C137.4,15 139.4,15.7 141.3,16.4 C142.6,16.9 143.9,17.5 145.2,18.1 C145.4,18.2 145.5,18.4 145.6,18.6 C141.4,17.8 137.4,16.6 133.3,15.7 C133.2,15.7 133.2,15.8 133.2,15.9 Z" id="Shape" fill="#000000"></path>
                    <path d="M111.2,30.8 C111.1,27.9 111.7,25.1 112.8,22.5 C113,22.1 113.2,21.6 113.2,21.2 C113.3,20.2 112.7,19.6 111.9,19.2 C110.1,18.1 108.1,17.5 106.2,16.9 C104.3,16.3 102.3,15.7 100.3,15.2 C98.5,14.7 96.6,14.2 94.8,13.8 C92.8,13.3 90.7,12.7 88.7,12.2 C87,11.8 85.3,11.4 83.7,11 C81.6,10.4 79.5,9.9 77.4,9.3 C76.8,9.1 76.3,8.9 75.8,8.7 C75.7,8.6 75.6,8.4 75.5,8.3 C75.6,8.2 75.8,8 75.9,8 C76.7,8 77.6,7.9 78.4,7.9 C81.5,8.2 84.6,8.5 87.6,9 C90,9.3 92.4,9.7 94.8,10.2 C96.9,10.6 99,11.1 101.1,11.6 C103.6,12.2 106.1,12.8 108.5,13.5 C111.9,14.5 115.3,15.5 118.3,17.4 C120.7,18.9 122.8,20.6 124.2,23.1 C124.8,24.1 125.1,25.3 125.3,26.4 C125.6,28.4 125.8,30.4 125.8,32.5 C125.8,35 125.2,37.5 123.6,39.6 C122.4,41.2 120.8,42.1 118.9,42.4 C117.8,42.6 116.6,42.7 115.5,42.3 C113.9,41.8 113,40.6 112.5,39.2 C112,37.9 111.8,36.5 111.6,35.2 C111.3,33.7 111.3,32.2 111.2,30.8 Z" id="Shape" fill="#FFFFFF"></path>
                    <path d="M65.2,33.6 C65.2,33.5 65.1,33.3 65.1,33.2 C65,30.9 64.9,28.7 64.8,26.4 C64.8,25.9 64.9,25.6 65.5,25.6 C66.8,25.5 68,25.3 69.2,25.3 C71.2,25.3 72.2,26.1 72.7,27.9 C72.9,28.9 72.9,29.9 72.7,30.9 C72.4,32.3 71.3,33 69.9,33.3 C69.2,33.4 68.6,33.5 67.9,33.6 C67.1,33.6 66.2,33.6 65.2,33.6 Z" id="Shape" fill="#FFFFFF"></path>
                    <path d="M39.1,11 C39.4,11 39.7,10.8 40,10.9 C42.7,11.1 45.5,11.3 48.2,11.6 C50.9,11.9 53.5,12.6 56.1,13.6 C56.5,13.7 56.8,14.1 57.2,14.3 C56.8,14.4 56.4,14.6 56,14.6 C53.2,14.6 50.5,14.4 47.9,13.5 C45.2,12.6 42.4,12 39.6,11.3 C39.5,11.3 39.4,11.2 39.3,11.2 C39.1,11.1 39.1,11 39.1,11 Z" id="Shape" fill="#FFFFFF"></path>
                    <path d="M144.1,13.5 C145.2,13.7 146.3,14 147.4,14.2 C148.6,14.5 149.8,14.7 151,15 C152.6,15.4 154.3,15.9 155.9,16.3 C157.2,16.7 158.5,17.1 159.7,17.6 C161,18.1 162.3,18.7 163.3,19.7 C164.2,20.6 164.2,21.7 163.8,22.8 C163.2,24.2 162.5,25.6 161.9,26.9 C161.5,27.7 161,28.5 160.5,29.3 C160.4,29.4 160.2,29.5 160.1,29.6 C160,29.4 159.9,29.3 159.9,29.1 C159.9,28.1 159.8,27.1 159.8,26.1 C159.7,24.9 159.7,23.6 159.6,22.4 C159.4,20.5 158.1,19.4 156.6,18.4 C154.2,16.9 151.4,16 148.7,15 C147.4,14.5 146,14.1 144.7,13.7 C144.5,13.6 144.3,13.5 144.1,13.4 C144,13.6 144.1,13.6 144.1,13.5 Z" id="Shape" fill="#FFFFFF"></path>
                </g>
            </g>
        </g>
    </g>
</svg>