<?xml version="1.0" encoding="UTF-8"?>
<svg width="132px" height="47px" viewBox="0 0 132 47" version="1.1" xmlns="http://www.w3.org/2000/svg" xmlns:xlink="http://www.w3.org/1999/xlink">
    <!-- Generator: Sketch 49.3 (51167) - http://www.bohemiancoding.com/sketch -->
    <title>w0rC9R_1_</title>
    <desc>Created with Sketch.</desc>
    <defs></defs>
    <g id="Page-1" stroke="none" stroke-width="1" fill="none" fill-rule="evenodd">
        <g id="plork-logos" transform="translate(-392.000000, -248.000000)" fill-rule="nonzero">
            <g id="w0rC9R_1_" transform="translate(392.000000, 248.000000)">
                <g id="Group">
                    <path d="M0.6,46.2 C0.6,30.9 0.6,15.5 0.6,0.2 C44.4,0.2 88.2,0.2 131.9,0.2 C131.9,15.5 131.9,30.9 131.9,46.2 C88.1,46.2 44.4,46.2 0.6,46.2 Z M73.8,3.4 C72.7,3.5 71.7,3.6 70.6,3.8 C68.2,4.2 66.1,5.2 64.2,6.6 C61.6,8.5 59.9,11.1 58,13.6 C56.7,15.3 55.5,17 54.2,18.6 C53.2,19.8 52.6,21.1 52.6,22.7 C52.7,24.2 52.7,25.7 52.8,27.2 C52.9,28 53,28.9 53,29.7 C53.2,32.6 54.8,34.8 57,36.5 C60,38.9 63.5,40.6 67.2,41.4 C69.8,41.9 70.4,41.8 71.8,39.7 C72.4,38.7 73.1,37.7 73.8,36.8 C74.9,35.4 76.1,34 77.1,32.6 C77.7,31.8 78.1,30.9 78.6,30 C79.9,27.6 80.8,25.1 81,22.3 C81.1,21.1 81.4,20 82.1,19 C83.3,17.3 84.2,15.5 84.6,13.5 C85.4,10 84,7.1 81.1,5.2 C78.9,3.9 76.4,3.4 73.8,3.4 Z M12.1,39.8 C12,39.6 12,39.5 12,39.5 C11.6,38.6 11,37.8 10.8,36.9 C10.3,34.8 10.6,32.6 10.9,30.5 C11.1,29 11.4,27.6 11.6,26.1 C11.7,25.2 11.8,25 12.8,25 C14.4,25 16.1,25.1 17.7,24.9 C20.5,24.6 23.1,23.7 25,21.4 C25.6,20.7 26.3,20 27,19.3 C29.2,17.3 30.9,15 31.8,12.2 C32.5,10 31.8,7.5 29.6,6.1 C27.8,5 25.7,4.7 23.7,4.6 C20.2,4.5 16.7,4.7 13.1,4.7 C12.6,4.7 12.5,4.9 12.4,5.3 C12.3,6.1 12.2,7 12,7.8 C11.3,11.6 9.7,15 7.4,18.1 C6.2,19.7 5.7,21.5 5.5,23.4 C5.4,25.1 5.2,26.7 4.9,28.4 C4.5,30.6 4.1,32.8 4.2,35.1 C4.2,36.4 4.6,37.6 5.3,38.7 C5.6,39.1 6,39.6 6.4,39.6 C8.3,39.9 10.1,39.8 12.1,39.8 Z M126.5,13.4 C126.2,13.3 126.1,13.3 126,13.3 C124.1,13.3 122.1,13.3 120.2,13.4 C120,13.4 119.7,13.6 119.6,13.7 C117.9,15.2 116.2,16.7 114.4,18.2 C113.4,19 112.4,19.9 111.5,20.8 C110.8,21.5 110.2,22.4 109.6,23.2 C109.5,23.3 109.3,23.4 109.2,23.5 C109.1,23.4 109,23.3 109,23.1 C109.2,21.6 109.3,20.1 110.4,18.9 C112.5,16.3 114,13.3 114.9,10.1 C115.4,8.2 115.9,6.4 115.9,4.4 C115.9,3.9 115.8,3.7 115.2,3.7 C114.5,3.8 113.8,3.7 113.1,3.7 C112.2,3.7 111.4,3.7 110.5,3.7 C110.2,3.7 109.9,3.8 109.8,4.3 C109.6,5.9 109.3,7.6 109,9.2 C108.3,12.8 106.5,15.8 104.4,18.8 C103.8,19.6 103.1,20.5 103.1,21.4 C102.9,25.2 102.2,29 101.8,32.8 C101.6,34.5 101.6,36.2 102.3,37.9 C102.9,39.4 103.2,39.5 104.6,39.5 C105.9,39.5 107.1,39.5 108.4,39.4 C108.6,39.4 108.8,39.3 109,39.3 C108.9,39.1 108.9,38.9 108.8,38.7 C108.5,37.8 108.1,36.9 108,36 C107.9,34.9 107.9,33.8 108,32.7 C108.3,30.4 108.6,28.2 109,26 C109,25.8 109.2,25.6 109.2,25.5 C109.3,25.5 109.3,25.5 109.4,25.5 C109.8,26.6 110.2,27.8 110.5,28.9 C111.4,32.4 112.6,35.7 114.8,38.6 C115.2,39.1 115.6,39.5 116.3,39.5 C118.2,39.5 120.1,39.5 122,39.5 C122.1,39.5 122.2,39.4 122.4,39.3 C122.3,39.2 122.3,39.1 122.2,39 C120.3,36.9 119.1,34.3 118,31.7 C117.1,29.4 116.1,27.2 115.2,24.9 C115.1,24.7 115.1,24.3 115.2,24.1 C116.4,22.6 117.6,21.1 119,19.8 C121,18 123.2,16.3 125.3,14.6 C125.7,14.2 126.1,13.9 126.5,13.4 Z M50.2,39.8 C50,39.4 49.9,39.1 49.7,38.8 C49.5,38.5 49.3,38.1 49.2,37.8 C48.6,36.5 48.7,35.1 48.7,33.7 C48.7,33 48.5,32.9 47.8,32.9 C44.1,33 40.4,33 36.7,33 C36,33 35.8,32.8 35.9,32.2 C36,31.8 35.9,31.3 36,30.9 C36.6,28.2 37.1,25.4 37.1,22.6 C37.1,21.2 37.6,20 38.4,18.8 C39.5,17.1 40.6,15.4 41.5,13.6 C42.9,10.9 43.4,8 43.9,5 C44,4.6 43.9,4.4 43.4,4.4 C41.7,4.4 40,4.5 38.3,4.5 C37.8,4.5 37.6,4.6 37.5,5.2 C37.2,7 36.9,8.8 36.4,10.6 C35.5,13.6 33.9,16.3 32.1,18.9 C31.7,19.4 31.3,20 31.1,20.6 C30.8,21.6 30.8,22.7 30.6,23.8 C30.3,26.4 29.9,29.1 29.6,31.7 C29.3,33.9 29.1,36 30.1,38.1 C30.8,39.7 30.8,40 32.8,40 C33.8,40 34.7,40 35.7,40 C40.5,39.8 45.2,39.8 50.2,39.8 Z M95.6,14.1 C95.4,14 95.3,14 95.3,14 C93.8,14 92.2,14 90.7,14.1 C90.4,14.1 90,14.4 89.9,14.7 C89,16.1 88.2,17.5 87.4,18.9 C86.7,20 86.1,21 86.1,22.3 C86.1,24 85.9,25.7 85.7,27.3 C85.5,29.3 85.1,31.2 84.9,33.2 C84.8,34.7 84.7,36.4 85.3,37.8 C85.6,38.5 85.9,39.5 87,39.5 C88.5,39.5 90,39.5 91.5,39.5 C92.1,39.5 92.2,39.4 91.9,38.8 C91.6,38.2 91.3,37.7 91.2,37.1 C90.6,34.6 91,32.1 91.4,29.6 C91.6,28.1 91.9,26.7 92.1,25.2 C92.3,23.4 92.9,21.9 94.6,21.1 C95.8,20.5 97,20.6 98.2,20.5 C98.5,20.5 98.9,20.3 99.1,20 C100.4,18.1 101.6,16.1 102.9,14.2 C103.2,13.7 103,13.5 102.6,13.6 C101.5,13.8 100.3,13.9 99.2,14.3 C97.4,14.9 95.9,16.1 94.5,17.4 C94.3,17.6 94.1,17.7 93.9,17.8 C93.9,17.8 93.8,17.7 93.8,17.7 C94.3,16.5 94.9,15.3 95.6,14.1 Z" id="Shape" fill="#FFFFFF"></path>
                    <path d="M73.8,3.4 C76.4,3.4 78.9,3.9 81.1,5.3 C84.1,7.1 85.4,10 84.6,13.6 C84.2,15.6 83.2,17.5 82.1,19.1 C81.4,20.1 81.1,21.2 81,22.4 C80.8,25.2 79.9,27.7 78.6,30.1 C78.1,31 77.7,31.9 77.1,32.7 C76.1,34.1 74.9,35.5 73.8,36.9 C73.1,37.8 72.5,38.8 71.8,39.8 C70.4,41.9 69.8,42 67.2,41.5 C63.4,40.7 60,39 57,36.6 C54.8,34.9 53.2,32.7 53,29.8 C52.9,29 52.8,28.1 52.8,27.3 C52.7,25.8 52.6,24.3 52.6,22.8 C52.5,21.2 53.2,19.9 54.2,18.7 C55.5,17 56.8,15.4 58,13.7 C59.9,11.2 61.6,8.6 64.2,6.7 C66.1,5.3 68.2,4.2 70.6,3.9 C71.7,3.6 72.7,3.5 73.8,3.4 Z M59.2,23.6 C59.4,25.6 59.6,27.4 59.9,29.3 C60.4,32.3 62.3,33.6 64.8,33.8 C67.4,34 69.6,33.1 71.1,30.9 C72.6,28.8 73.8,26.6 74.1,24 C74.2,23 74.2,21.9 74.6,20.9 C74.9,19.9 75.5,18.9 76.1,18 C77.1,16.3 78,14.6 78,12.5 C78,11.4 77.9,10.3 77.1,9.4 C75.4,7.7 73.3,7.9 71.3,8.2 C69.6,8.5 68,9.4 66.9,10.8 C64.6,13.6 62.4,16.4 60.2,19.2 C60,19.5 59.8,19.9 59.7,20.2 C59.4,21.6 59.3,22.6 59.2,23.6 Z" id="Shape" fill="#000000"></path>
                    <path d="M12.1,39.8 C10.1,39.8 8.3,39.9 6.4,39.8 C6,39.8 5.6,39.3 5.3,38.9 C4.6,37.8 4.2,36.6 4.2,35.3 C4.1,33 4.5,30.8 4.9,28.6 C5.2,27 5.4,25.3 5.5,23.6 C5.7,21.6 6.1,19.9 7.4,18.3 C9.7,15.2 11.3,11.8 12,8 C12.2,7.2 12.3,6.3 12.4,5.5 C12.4,5 12.6,4.9 13.1,4.9 C16.6,4.9 20.1,4.7 23.7,4.8 C25.7,4.9 27.8,5.2 29.6,6.3 C31.8,7.6 32.5,10.1 31.8,12.4 C31,15.3 29.2,17.5 27,19.5 C26.3,20.2 25.6,20.8 25,21.6 C23.1,23.8 20.5,24.8 17.7,25.1 C16.1,25.3 14.4,25.2 12.8,25.2 C11.8,25.2 11.7,25.3 11.6,26.3 C11.4,27.8 11.1,29.2 10.9,30.7 C10.6,32.8 10.3,35 10.8,37.1 C11,38 11.6,38.8 12,39.7 C12,39.5 12,39.6 12.1,39.8 Z M12.6,19.7 C13,19.7 13.2,19.8 13.4,19.8 C14.3,19.8 15.1,19.8 16,19.8 C20.3,19.9 23.9,16.5 24.8,12.6 C25.1,11.4 24.3,10.2 23.1,10 C21.5,9.6 19.8,9.7 18.2,10 C18,10 17.6,10.3 17.6,10.6 C16.7,13.4 15.4,15.9 13.7,18.2 C13.3,18.6 13,19.1 12.6,19.7 Z" id="Shape" fill="#000000"></path>
                    <path d="M126.5,13.4 C126,13.8 125.6,14.2 125.2,14.5 C123.1,16.2 120.9,17.9 118.9,19.7 C117.5,21 116.4,22.5 115.1,24 C115,24.2 115,24.5 115.1,24.8 C116,27.1 116.9,29.3 117.9,31.6 C119,34.2 120.2,36.7 122.1,38.9 C122.2,39 122.2,39.1 122.3,39.2 C122.2,39.3 122.1,39.4 121.9,39.4 C120,39.4 118.1,39.4 116.2,39.4 C115.5,39.4 115.1,39 114.7,38.5 C112.5,35.6 111.3,32.3 110.4,28.8 C110.1,27.6 109.7,26.5 109.3,25.4 C109.2,25.4 109.2,25.4 109.1,25.4 C109,25.6 108.9,25.7 108.9,25.9 C108.6,28.1 108.2,30.4 107.9,32.6 C107.8,33.7 107.8,34.8 107.9,35.9 C108,36.8 108.4,37.7 108.7,38.6 C108.8,38.8 108.8,39 108.9,39.2 C108.7,39.2 108.5,39.3 108.3,39.3 C107,39.3 105.8,39.4 104.5,39.4 C103.2,39.4 102.8,39.3 102.2,37.8 C101.5,36.1 101.5,34.4 101.7,32.7 C102.2,28.9 102.8,25.1 103,21.3 C103,20.4 103.8,19.5 104.3,18.7 C106.4,15.8 108.1,12.7 108.9,9.1 C109.2,7.5 109.5,5.9 109.7,4.2 C109.8,3.7 110.1,3.7 110.4,3.6 C111.3,3.6 112.1,3.6 113,3.6 C113.7,3.6 114.4,3.6 115.1,3.6 C115.7,3.5 115.8,3.8 115.8,4.3 C115.8,6.3 115.3,8.1 114.8,10 C113.9,13.3 112.4,16.2 110.3,18.8 C109.3,20.1 109.1,21.5 108.9,23 C108.9,23.1 109,23.2 109.1,23.4 C109.2,23.3 109.4,23.3 109.5,23.1 C110.1,22.3 110.7,21.4 111.4,20.7 C112.3,19.8 113.3,19 114.3,18.1 C116,16.6 117.7,15.1 119.5,13.6 C119.7,13.4 119.9,13.3 120.1,13.3 C122,13.3 124,13.2 125.9,13.2 C126.1,13.3 126.3,13.3 126.5,13.4 Z" id="Shape" fill="#000000"></path>
                    <path d="M50.2,39.8 C45.2,39.8 40.5,39.8 35.7,39.8 C34.7,39.8 33.8,39.8 32.8,39.8 C30.8,39.8 30.8,39.5 30.1,37.9 C29.2,35.9 29.4,33.7 29.6,31.5 C29.9,28.9 30.3,26.2 30.6,23.6 C30.7,22.5 30.8,21.5 31.1,20.4 C31.3,19.8 31.7,19.2 32.1,18.7 C34,16.2 35.5,13.5 36.4,10.4 C36.9,8.6 37.2,6.8 37.5,5 C37.6,4.5 37.8,4.3 38.3,4.3 C40,4.3 41.7,4.3 43.4,4.2 C43.9,4.2 43.9,4.5 43.9,4.8 C43.5,7.8 43,10.7 41.5,13.4 C40.5,15.2 39.5,16.9 38.4,18.6 C37.6,19.8 37.1,21 37.1,22.4 C37.1,25.2 36.6,28 36,30.7 C35.9,31.1 36,31.6 35.9,32 C35.8,32.6 36,32.8 36.7,32.8 C40.4,32.7 44.1,32.7 47.8,32.7 C48.4,32.7 48.7,32.8 48.7,33.5 C48.7,34.9 48.6,36.3 49.2,37.6 C49.4,38 49.5,38.3 49.7,38.6 C49.9,39.1 50,39.3 50.2,39.8 Z" id="Shape" fill="#000000"></path>
                    <path d="M95.6,14.1 C94.9,15.3 94.3,16.5 93.7,17.6 C93.7,17.6 93.8,17.7 93.8,17.7 C94,17.6 94.2,17.5 94.4,17.3 C95.8,16 97.3,14.8 99.1,14.2 C100.2,13.8 101.4,13.7 102.5,13.5 C103,13.4 103.1,13.6 102.8,14.1 C101.5,16 100.3,18 99,19.9 C98.8,20.2 98.4,20.3 98.1,20.4 C96.9,20.5 95.6,20.4 94.5,21 C92.7,21.9 92.2,23.4 92,25.1 C91.8,26.6 91.5,28 91.3,29.5 C90.9,32 90.6,34.5 91.1,37 C91.2,37.6 91.6,38.1 91.8,38.7 C92.1,39.3 92,39.4 91.4,39.4 C89.9,39.4 88.4,39.4 86.9,39.4 C85.8,39.4 85.6,38.4 85.2,37.7 C84.5,36.2 84.6,34.6 84.8,33.1 C85,31.1 85.4,29.2 85.6,27.2 C85.8,25.5 85.9,23.9 86,22.2 C86,20.9 86.6,19.8 87.3,18.8 C88.2,17.4 89,16 89.8,14.6 C90,14.3 90.3,14 90.6,14 C92.1,13.9 93.7,14 95.2,13.9 C95.3,14 95.4,14.1 95.6,14.1 Z" id="Shape" fill="#000000"></path>
                    <path d="M59.2,23.6 C59.3,22.6 59.5,21.5 59.7,20.5 C59.8,20.1 60,19.8 60.2,19.5 C62.4,16.7 64.6,13.9 66.9,11.1 C68,9.7 69.6,8.7 71.3,8.5 C73.3,8.2 75.4,8 77.1,9.7 C77.9,10.6 78,11.7 78,12.8 C78,14.8 77.1,16.6 76.1,18.3 C75.5,19.2 74.9,20.2 74.6,21.2 C74.3,22.2 74.3,23.2 74.1,24.3 C73.8,26.9 72.7,29.1 71.1,31.2 C69.5,33.4 67.4,34.3 64.8,34.1 C62.3,33.9 60.4,32.6 59.9,29.6 C59.5,27.5 59.4,25.6 59.2,23.6 Z" id="Shape" fill="#FFFFFF"></path>
                    <path d="M12.6,19.7 C13,19.1 13.3,18.6 13.6,18.1 C15.3,15.8 16.7,13.3 17.5,10.5 C17.6,10.3 17.9,10 18.1,9.9 C19.7,9.7 21.4,9.6 23,9.9 C24.1,10.2 24.9,11.4 24.7,12.5 C23.8,16.3 20.2,19.8 15.9,19.7 C15,19.7 14.2,19.7 13.3,19.7 C13.2,19.8 13,19.7 12.6,19.7 Z" id="Shape" fill="#FFFFFF"></path>
                </g>
            </g>
        </g>
    </g>
</svg>