<?xml version="1.0" encoding="UTF-8"?>
<svg width="98px" height="30px" viewBox="0 0 98 30" version="1.1" xmlns="http://www.w3.org/2000/svg" xmlns:xlink="http://www.w3.org/1999/xlink">
    <!-- Generator: Sketch 49.3 (51167) - http://www.bohemiancoding.com/sketch -->
    <title>MxiHjC_1_</title>
    <desc>Created with Sketch.</desc>
    <defs></defs>
    <g id="Page-1" stroke="none" stroke-width="1" fill="none" fill-rule="evenodd">
        <g id="plork-logos" transform="translate(-974.000000, -201.000000)" fill-rule="nonzero">
            <g id="MxiHjC_1_" transform="translate(974.000000, 201.000000)">
                <g id="Group">
                    <path d="M0.2,29.1 C0.2,19.4 0.2,9.8 0.2,0.1 C32.7,0.1 65.2,0.1 97.7,0.1 C97.7,9.8 97.7,19.4 97.7,29.1 C65.2,29.1 32.7,29.1 0.2,29.1 Z M54.7,25.3 C55.3,25.3 55.9,25.3 56.5,25.2 C58.6,24.9 59.7,23.6 60.1,21.8 C60.3,20.8 60.3,19.7 60.2,18.6 C60,16.7 59.2,14.9 58.6,13.2 C58.3,12.2 57.8,11.2 57.5,10.2 C57,8.4 56.3,6.7 54.9,5.4 C53.6,4.1 52.1,3.4 50.4,3.1 C48.5,2.7 46.7,2.8 44.9,3.3 C43.6,3.7 42.4,4.3 41.4,5.3 C40.6,6.1 39.9,7 39.5,8.2 C39,9.5 38.7,10.8 39.1,12.2 C39.5,13.6 40,14.9 40.8,16.2 C42.2,18.5 43.7,20.6 45.9,22.2 C48.5,24.1 51.4,25.3 54.7,25.3 Z M17.2,24.7 C17.1,24.5 17.1,24.5 17.1,24.4 C15.5,21.9 14.4,19.2 13.2,16.5 C13,16 13.1,15.9 13.6,15.8 C14.3,15.8 15,15.8 15.7,15.8 C16.5,15.8 17.2,15.8 18,15.6 C19.5,15.2 20.7,14.3 21,12.8 C21.3,11.5 21.5,10.1 21.4,8.7 C21.3,6.6 20.3,5 18.4,4.1 C17,3.4 15.4,3.2 13.9,3.2 C11.8,3.2 9.7,3.2 7.6,3.2 C7.2,3.2 7.1,3.3 7.2,3.6 C7.3,5.7 7.3,7.9 7.3,10 C7.3,11.2 7.6,12.4 7.9,13.6 C8.3,14.9 8.8,16.1 9.4,17.4 C10.4,19.6 11.5,21.8 12.6,24 C12.8,24.4 13.1,24.7 13.6,24.7 C14.6,24.7 15.7,24.7 16.7,24.7 C16.9,24.8 17,24.8 17.2,24.7 Z M79.1,16.5 C79.1,16.5 79.1,16.5 79.1,16.5 C79.3,16.6 79.4,16.7 79.6,16.8 C80.6,17.9 81.5,18.9 82.5,20 C83.8,21.4 85.1,22.7 86.5,24 C86.9,24.3 87.2,24.8 87.8,24.8 C89.1,24.8 90.4,24.8 91.6,24.8 C91.7,24.8 91.8,24.7 91.9,24.7 C91.9,24.6 91.8,24.5 91.8,24.4 C90.7,23.4 89.6,22.4 88.5,21.4 C86.7,19.6 84.9,17.8 83.1,16 C82.7,15.6 82.7,15.3 82.8,14.9 C83.1,14.1 83.3,13.2 83.5,12.3 C83.7,11.4 84.1,10.7 84.6,10 C84.9,9.7 85.1,9.3 85.4,8.9 C85.2,8.9 85,8.9 84.9,8.9 C84,8.9 83.2,8.9 82.3,8.9 C80.9,8.9 80.9,8.9 80.2,10 C79.8,10.6 79.5,11.2 79.3,11.8 C79,12.7 78.9,13.6 78.7,14.5 C78.7,14.6 78.6,14.7 78.5,14.9 C78.4,14.7 78.3,14.6 78.3,14.5 C78,13.6 77.6,12.8 77.3,11.9 C77.1,11.2 76.9,10.4 76.8,9.6 C76.7,7.6 76.8,5.5 76.8,3.5 C76.8,3.1 76.7,3 76.3,3 C75.4,3 74.5,3 73.5,3 C73.2,3 72.9,3 72.6,3 C72.6,3.2 72.6,3.3 72.6,3.4 C72.6,5.5 72.6,7.5 72.7,9.6 C72.7,10 72.7,10.5 72.8,10.9 C73.3,12.3 73.8,13.6 74.3,15 C75,16.6 75.6,18.2 76.4,19.8 C77.1,21.3 77.9,22.8 78.7,24.3 C78.9,24.6 79.1,24.8 79.5,24.8 C80.5,24.8 81.6,24.8 82.6,24.8 C82.9,24.8 83,24.6 82.8,24.4 C81.2,22.1 80.3,19.5 79.2,16.9 C79.1,16.8 79.1,16.6 79.1,16.5 Z M36.7,24.9 C36.7,24.9 36.7,24.8 36.7,24.9 C38.7,24.9 40.7,24.9 42.7,24.9 C43,24.9 43.2,24.9 43,24.5 C42.4,23.5 41.9,22.5 41.3,21.4 C41.2,21.1 41,21.1 40.7,21.1 C38.1,21.1 35.5,21.1 32.9,21.1 C32.5,21.1 32.3,21 32.1,20.6 C31.7,19.7 31.3,18.9 31,18 C30.3,16.4 29.7,14.8 29,13.1 C28.6,12.1 28.3,11.1 28.3,10 C28.3,9.1 28.3,8.2 28.3,7.3 C28.3,6.2 28.2,5.1 28.2,3.9 C28.2,3.4 28.2,3.3 27.7,3.3 C26.6,3.3 25.5,3.3 24.4,3.3 C24,3.3 23.9,3.4 23.9,3.8 C24,5.6 24.1,7.5 24,9.3 C24,11 24.4,12.6 25,14.1 C25.6,15.7 26.3,17.4 27.1,18.9 C28,20.7 28.9,22.5 29.9,24.3 C30.1,24.6 30.3,24.7 30.7,24.7 C32.7,24.9 34.7,24.9 36.7,24.9 Z M65.1,11.4 C65,11.4 65,11.4 64.9,11.4 C64.8,10.9 64.8,10.5 64.7,10 C64.7,9.4 64.6,9.3 64,9.3 C63.1,9.3 62.3,9.3 61.4,9.3 C61,9.3 60.9,9.5 61,9.8 C61.1,11.2 61.7,12.4 62.2,13.7 C62.7,15.1 63.4,16.3 63.9,17.7 C64.8,19.9 65.8,22.1 67,24.2 C67.3,24.7 67.6,25 68.3,24.9 C69.1,24.8 69.9,24.9 70.6,24.9 C71.5,24.9 71.5,24.9 71.1,24.2 C69.9,22.3 69,20.2 68.1,18.1 C67.7,17.1 67.3,16 67,14.9 C66.8,14 67.2,13.3 67.9,13.1 C68.3,13 68.8,12.9 69.3,12.9 C69.6,12.9 69.9,12.9 70.4,12.9 C69.6,11.7 69.6,10.4 69.6,9.1 C67.6,9 65.9,9.4 65.1,11.4 Z" id="Shape" fill="#FFFFFF"></path>
                    <path d="M54.7,25.3 C51.4,25.3 48.5,24.1 45.9,22.1 C43.7,20.5 42.2,18.4 40.8,16.1 C40.1,14.8 39.5,13.5 39.1,12.1 C38.7,10.7 39.1,9.4 39.5,8.1 C39.9,7 40.6,6.1 41.4,5.2 C42.4,4.2 43.6,3.5 44.9,3.2 C46.7,2.7 48.6,2.6 50.4,3 C52.1,3.3 53.6,4 54.9,5.3 C56.3,6.7 57,8.3 57.5,10.1 C57.8,11.1 58.2,12.1 58.6,13.1 C59.2,14.9 60,16.6 60.2,18.5 C60.3,19.6 60.3,20.7 60.1,21.7 C59.7,23.5 58.6,24.9 56.5,25.1 C55.9,25.3 55.3,25.3 54.7,25.3 Z M48.3,5.9 C46.2,5.8 44.7,6.6 43.9,8.5 C43.4,9.7 43.2,10.8 43.6,12.1 C43.9,13 44.2,13.9 44.7,14.8 C45.5,16.6 46.6,18.2 48,19.6 C49.5,21 51.2,21.8 53.3,21.6 C54.7,21.5 55.6,20.6 55.6,19.2 C55.6,17.9 55.4,16.7 55,15.5 C54.3,13.4 53.5,11.3 52.8,9.2 C52.2,7.3 50.5,5.8 48.3,5.9 Z" id="Shape" fill="#000000"></path>
                    <path d="M17.2,24.7 C17,24.7 16.9,24.8 16.7,24.8 C15.7,24.8 14.6,24.8 13.6,24.8 C13.1,24.8 12.8,24.5 12.6,24.1 C11.5,21.9 10.4,19.7 9.4,17.5 C8.8,16.3 8.3,15 7.9,13.7 C7.5,12.5 7.3,11.3 7.3,10.1 C7.3,8 7.2,5.8 7.2,3.7 C7.2,3.3 7.3,3.3 7.6,3.3 C9.7,3.3 11.8,3.3 13.9,3.3 C15.5,3.3 17,3.5 18.4,4.2 C20.3,5.1 21.3,6.7 21.4,8.8 C21.4,10.2 21.3,11.5 21,12.9 C20.6,14.4 19.5,15.4 18,15.7 C17.3,15.9 16.5,15.9 15.7,15.9 C15,15.9 14.3,15.9 13.6,15.9 C13.1,15.9 13,16.1 13.2,16.6 C14.4,19.3 15.5,22 17.1,24.5 C17.1,24.5 17.2,24.6 17.2,24.7 Z M13.3,6.5 C13.3,6.5 13.3,6.5 13.3,6.5 C12.9,6.6 12.5,6.6 12.1,6.6 C11.5,6.6 11.4,6.7 11.5,7.3 C11.5,8.2 11.5,9.2 11.6,10.1 C11.6,10.6 11.7,11.2 11.7,11.7 C11.7,12 11.8,12.3 12.2,12.2 C13,12.2 13.9,12.3 14.7,12.2 C15.7,12.1 16.4,11.8 16.8,10.8 C17.1,10 17.1,9.2 16.9,8.5 C16.7,7.6 16.1,7 15.2,6.8 C14.6,6.6 14,6.6 13.3,6.5 Z" id="Shape" fill="#000000"></path>
                    <path d="M79.1,16.5 C79.1,16.6 79.1,16.8 79.2,16.9 C80.3,19.4 81.3,22.1 82.8,24.4 C83,24.7 82.9,24.8 82.6,24.8 C81.6,24.8 80.5,24.8 79.5,24.8 C79.1,24.8 78.9,24.7 78.7,24.3 C77.9,22.8 77.1,21.3 76.4,19.8 C75.7,18.2 75,16.6 74.3,15 C73.8,13.7 73.2,12.3 72.8,10.9 C72.7,10.5 72.7,10 72.7,9.6 C72.7,7.5 72.7,5.5 72.6,3.4 C72.6,3.3 72.6,3.2 72.6,3 C72.9,3 73.2,3 73.5,3 C74.4,3 75.3,3 76.3,3 C76.7,3 76.8,3.1 76.8,3.5 C76.8,5.5 76.8,7.6 76.8,9.6 C76.8,10.4 77,11.1 77.3,11.9 C77.6,12.8 77.9,13.6 78.3,14.5 C78.3,14.6 78.4,14.7 78.5,14.9 C78.6,14.7 78.7,14.6 78.7,14.5 C78.9,13.6 79,12.7 79.3,11.8 C79.5,11.2 79.8,10.6 80.2,10 C80.9,8.8 81,8.9 82.3,8.9 C83.2,8.9 84,8.9 84.9,8.9 C85,8.9 85.2,8.9 85.4,8.9 C85.1,9.3 84.8,9.7 84.6,10 C84.1,10.7 83.7,11.4 83.5,12.3 C83.3,13.2 83,14 82.8,14.9 C82.7,15.3 82.7,15.7 83.1,16 C84.9,17.8 86.7,19.7 88.5,21.4 C89.6,22.4 90.7,23.4 91.8,24.4 C91.9,24.5 91.9,24.6 91.9,24.7 C91.8,24.7 91.7,24.8 91.6,24.8 C90.3,24.8 89,24.8 87.8,24.8 C87.2,24.8 86.9,24.3 86.5,24 C85.1,22.7 83.8,21.3 82.5,20 C81.5,19 80.6,17.9 79.6,16.8 C79.4,16.7 79.3,16.6 79.1,16.5 C79.1,16.5 79.1,16.5 79.1,16.5 Z" id="Shape" fill="#000000"></path>
                    <path d="M36.7,24.9 C34.7,24.9 32.8,24.9 30.8,24.9 C30.4,24.9 30.2,24.8 30,24.5 C29.1,22.7 28.1,20.9 27.2,19.1 C26.4,17.5 25.8,15.9 25.1,14.3 C24.5,12.7 24,11.2 24.1,9.5 C24.1,7.7 24,5.8 24,4 C24,3.6 24.1,3.5 24.5,3.5 C25.6,3.5 26.7,3.5 27.8,3.5 C28.3,3.5 28.3,3.6 28.3,4.1 C28.3,5.2 28.4,6.3 28.4,7.5 C28.4,8.4 28.4,9.3 28.4,10.2 C28.4,11.3 28.7,12.3 29.1,13.3 C29.7,14.9 30.4,16.6 31.1,18.2 C31.5,19.1 31.9,19.9 32.2,20.8 C32.4,21.2 32.6,21.3 33,21.3 C35.6,21.3 38.2,21.3 40.8,21.3 C41.1,21.3 41.3,21.4 41.4,21.6 C41.9,22.6 42.5,23.7 43.1,24.7 C43.3,25.1 43.2,25.1 42.8,25.1 C40.7,24.8 38.7,24.8 36.7,24.9 C36.7,24.8 36.7,24.9 36.7,24.9 Z" id="Shape" fill="#000000"></path>
                    <path d="M65.1,11.4 C65.9,9.4 67.6,9.1 69.5,9 C69.5,10.3 69.6,11.6 70.3,12.8 C69.8,12.8 69.5,12.8 69.2,12.8 C68.7,12.8 68.3,12.9 67.8,13 C67.1,13.2 66.6,14 66.9,14.8 C67.2,15.9 67.6,16.9 68,18 C68.8,20.1 69.8,22.2 71,24.1 C71.4,24.8 71.4,24.8 70.5,24.8 C69.7,24.8 68.9,24.8 68.2,24.8 C67.6,24.8 67.2,24.6 66.9,24.1 C65.7,22 64.7,19.8 63.8,17.6 C63.3,16.3 62.6,15 62.1,13.6 C61.6,12.3 61,11.1 60.9,9.7 C60.9,9.3 60.9,9.1 61.3,9.2 C62.2,9.2 63,9.2 63.9,9.2 C64.5,9.2 64.6,9.3 64.6,9.9 C64.6,10.4 64.7,10.8 64.8,11.3 C65,11.3 65.1,11.4 65.1,11.4 Z" id="Shape" fill="#000000"></path>
                    <path d="M48.3,5.9 C50.5,5.8 52.2,7.2 52.8,9.3 C53.5,11.4 54.3,13.5 55,15.6 C55.4,16.8 55.7,18 55.6,19.3 C55.5,20.7 54.7,21.6 53.3,21.7 C51.2,21.8 49.5,21.1 48,19.7 C46.6,18.3 45.5,16.7 44.7,14.9 C44.3,14 44,13.1 43.6,12.2 C43.2,11 43.4,9.8 43.9,8.6 C44.8,6.6 46.3,5.9 48.3,5.9 Z" id="Shape" fill="#FFFFFF"></path>
                    <path d="M13.3,6.5 C13.9,6.6 14.6,6.6 15.2,6.8 C16.1,7 16.7,7.6 16.9,8.5 C17.1,9.3 17.1,10.1 16.8,10.8 C16.4,11.8 15.6,12.2 14.7,12.2 C13.9,12.3 13.1,12.2 12.2,12.2 C11.8,12.2 11.7,11.9 11.7,11.7 C11.6,11.2 11.6,10.6 11.6,10.1 C11.6,9.2 11.6,8.2 11.5,7.3 C11.5,6.7 11.6,6.6 12.1,6.6 C12.5,6.5 12.9,6.6 13.3,6.5 C13.3,6.5 13.3,6.5 13.3,6.5 Z" id="Shape" fill="#FFFFFF"></path>
                </g>
            </g>
        </g>
    </g>
</svg>