<?xml version="1.0" encoding="UTF-8"?>
<svg width="101px" height="43px" viewBox="0 0 101 43" version="1.1" xmlns="http://www.w3.org/2000/svg" xmlns:xlink="http://www.w3.org/1999/xlink">
    <!-- Generator: Sketch 49.3 (51167) - http://www.bohemiancoding.com/sketch -->
    <title>qZM1Fl_1_</title>
    <desc>Created with Sketch.</desc>
    <defs></defs>
    <g id="Page-1" stroke="none" stroke-width="1" fill="none" fill-rule="evenodd">
        <g id="plork-logos" transform="translate(-137.000000, -244.000000)" fill-rule="nonzero">
            <g id="qZM1Fl_1_" transform="translate(137.000000, 244.000000)">
                <g id="Group">
                    <path d="M0.9,42.5 C0.9,28.5 0.9,14.4 0.9,0.4 C34.2,0.4 67.4,0.4 100.7,0.4 C100.7,14.4 100.7,28.5 100.7,42.5 C67.5,42.5 34.2,42.5 0.9,42.5 Z M42.8,2.7 C42,2.8 41.1,2.8 40.3,3 C38.4,3.4 36.8,4.3 35.6,5.9 C35,6.8 34.8,7.8 35.2,8.8 C35.7,10.1 36.6,11 37.7,11.8 C39.9,13.4 42.2,14.9 44.5,16.4 C47,18.1 49.6,19.6 51.9,21.6 C53,22.6 54.1,23.6 54.8,24.9 C55.6,26.3 55.9,27.8 56,29.4 C56,30.4 55.8,31.3 55.4,32.1 C54.9,33 54.3,33.9 53.7,34.8 C53.1,35.7 52.7,36.6 52.5,37.6 C52.3,38.4 52.7,39.2 53.5,39.5 C54,39.7 54.6,39.8 55.1,39.8 C56.4,39.9 57.6,39.9 58.8,39.4 C59.9,39 60.9,38.6 62,38.1 C64.6,37 66.9,35.4 69.1,33.6 C70.6,32.4 72,31.1 72.7,29.3 C73.4,27.7 73.5,26.1 72.7,24.4 C72.2,23.6 71.7,22.8 71,22.2 C70.3,21.6 69.7,20.9 68.9,20.3 C66.7,18.8 64.5,17.4 62.3,15.9 C60.6,14.8 58.8,13.7 57.1,12.6 C55.7,11.7 54.4,10.7 53.2,9.5 C52.1,8.5 51.2,7.2 50.3,6 C49.6,5.2 49,4.4 48.1,3.8 C46.5,3.1 44.7,2.7 42.8,2.7 Z M7.2,3.2 C7.2,3.2 7.2,3.2 7.2,3.2 C6.1,3.2 4.9,3.2 3.8,3.2 C3.6,3.2 3.4,3.3 3.4,3.5 C3.4,4.4 3.3,5.4 3.4,6.3 C3.6,8.1 4.5,9.6 5.9,10.7 C7.2,11.8 8.6,12.8 10,13.7 C12.7,15.5 15.4,17.2 18.1,19 C20,20.2 21.8,21.6 23.3,23.3 C25.3,25.4 25.9,28.8 24.4,31.4 C23.4,33.1 22.1,34.5 20.8,35.9 C19.8,37 18.8,38 17.9,39.1 C17.7,39.3 17.5,39.6 17.3,40 C17.1,40.3 17.2,40.5 17.6,40.4 C18.5,40.4 19.4,40.4 20.4,40.3 C20.6,40.3 20.9,40.1 21,40 C21.4,39.5 21.8,38.9 22.3,38.4 C23.2,37.4 24.1,36.5 25,35.6 C26.2,34.3 27.5,33 28.5,31.4 C29.1,30.3 29.4,29.1 29.3,27.8 C29.3,27.3 29.3,27.2 29.8,27.2 C30.4,27.2 31.1,27.2 31.7,27.2 C32.9,27.2 34,27 35,26.3 C35.5,25.9 35.9,25.4 35.9,24.7 C35.9,23.7 35.4,23 34.8,22.3 C33.5,20.8 31.8,19.5 30.2,18.4 C27.8,16.8 25.4,15.2 23,13.6 C21.8,12.7 20.6,11.8 19.5,10.8 C18.3,9.7 17.5,8.3 16.8,6.8 C16.1,5.3 15,4.3 13.5,3.9 C12.6,3.6 11.6,3.5 10.6,3.4 C9.3,3.1 8.3,3.2 7.2,3.2 Z M66.2,3.1 C66.2,3.3 66.2,3.5 66.2,3.7 C66.3,4.7 66.3,5.6 66.4,6.6 C66.6,8.1 67.5,9.3 68.6,10.3 C69.7,11.3 71,12.3 72.3,13.1 C74.5,14.6 76.8,16 79,17.5 C80.5,18.5 82,19.5 83.4,20.6 C84.6,21.5 85.8,22.5 86.7,23.7 C87.4,24.7 87.9,25.9 88,27.1 C88.2,29.3 87.5,31.1 86,32.7 C84.4,34.5 82.6,36.2 80.9,37.9 C80.8,38 80.8,38.1 80.7,38.2 C80.8,38.2 80.9,38.3 81.1,38.3 C81.9,38.3 82.7,38.2 83.6,38.2 C84.3,38.2 84.8,38.1 85.2,37.5 C85.3,37.4 85.4,37.3 85.5,37.1 C86.8,35.8 88.1,34.5 89.4,33.2 C90.3,32.2 91.1,31.2 91.6,30 C92.2,28.5 92.1,26.9 91.6,25.4 C91.6,25.3 91.5,25.2 91.5,25.1 C91.5,25.1 91.6,25 91.6,25 C91.7,25.1 91.8,25.2 91.8,25.3 C92.3,26.3 92.9,27.3 93.3,28.4 C93.6,29.2 93.6,30.1 93.3,30.9 C92.9,32.2 92.1,33.3 91.3,34.4 C90.6,35.4 89.8,36.5 89.1,37.5 C89,37.6 89,37.7 89,37.8 C89,37.8 89.2,37.9 89.3,37.9 C90.6,37.9 91.9,37.9 93.2,37.8 C93.4,37.8 93.7,37.6 93.8,37.4 C94.3,36.7 94.7,36 95.2,35.4 C95.9,34.3 96.7,33.1 97.4,32 C98,31.1 98.1,30 97.8,28.9 C97.5,27.7 96.9,26.7 96.2,25.6 C95.5,24.6 94.5,23.7 93.9,22.5 C93.2,21.1 92,20.1 90.9,19.1 C89.5,17.9 88.1,16.9 86.7,15.7 C85.4,14.6 84.1,13.6 82.8,12.4 C81.9,11.6 81.1,10.8 80.5,9.8 C80.4,9.6 80.1,9.5 79.8,9.4 C79.1,9.3 78.3,9.4 77.6,9.4 C77.2,9.4 76.8,9.4 76.4,9.4 C76,9.4 76,9.6 76.1,9.8 C76.3,10.1 76.5,10.4 76.7,10.7 C77.7,11.6 78.6,12.6 79.7,13.5 C81,14.6 82.3,15.6 83.6,16.6 C85.3,17.9 87,19.2 88.5,20.7 C88.9,21.2 89.3,21.7 89.8,22.2 C89.8,22.2 89.7,22.3 89.7,22.3 C89.5,22.2 89.3,22.1 89.2,22 C87.9,21 86.7,19.9 85.3,19 C83.7,17.9 82.1,16.9 80.4,15.9 C77.9,14.3 75.3,12.7 73,10.8 C71.4,9.4 70.3,7.8 70.2,5.6 C70.2,4.9 70.1,4.3 70.2,3.6 C70.2,3.2 70.1,3.1 69.7,3.1 C68.7,3.1 67.7,3.1 66.7,3.1 C66.5,3.1 66.4,3.1 66.2,3.1 Z M51,33.9 C51,33.8 50.9,33.8 50.9,33.7 C50.7,33.7 50.4,33.7 50.2,33.8 C48.6,33.9 46.9,34 45.3,34 C44.6,34 43.8,34.1 43.1,34.1 C43,34.1 42.9,34.1 42.8,34 C42.8,33.9 42.9,33.8 42.9,33.6 C42.9,33.5 43,33.5 43.1,33.4 C43.7,32.6 44.4,31.8 44.9,30.9 C45.9,29 45.9,27 44.9,25 C44.2,23.5 43,22.3 41.7,21.3 C39.9,19.8 37.9,18.4 35.8,17.2 C33.4,15.7 31,14.1 28.6,12.5 C27.3,11.6 26,10.7 25.1,9.4 C24.3,8.4 23.8,7.3 23.7,6 C23.7,5.1 23.7,4.2 23.6,3.4 C23.6,3.2 23.5,3 23.2,3 C22.1,3 21,3 19.9,3 C19.6,3 19.5,3.1 19.5,3.4 C19.5,4.1 19.5,4.7 19.5,5.4 C19.5,7.2 20.3,8.8 21.6,10 C22.6,10.9 23.6,11.7 24.7,12.5 C26.2,13.6 27.8,14.5 29.3,15.5 C30.5,16.3 31.7,17 32.9,17.8 C34.7,19 36.5,20.2 38.1,21.6 C39.6,23 40.9,24.4 41.4,26.5 C41.7,28.1 41.5,29.6 40.7,31 C40,32.4 38.8,33.4 37.8,34.5 C36.4,35.9 35,37.3 33.6,38.7 C33.4,38.9 33.2,39.2 33,39.6 C33.3,39.6 33.5,39.6 33.7,39.6 C34.7,39.6 35.7,39.5 36.7,39.5 C39.5,39.4 42.3,39.3 45.1,39.3 C45.4,39.3 45.7,39.2 45.9,38.9 C46.1,38.6 46.4,38.3 46.7,38 C47.9,36.8 49.1,35.6 50.3,34.4 C50.4,34.5 50.7,34.2 51,33.9 Z M69.4,38.8 C69.6,38.9 69.7,38.9 69.9,38.9 C70.9,38.9 72,38.8 73,38.8 C73.2,38.8 73.4,38.7 73.5,38.6 C73.9,38.2 74.3,37.8 74.8,37.3 C76.5,35.7 78.2,34 79.7,32.2 C80.5,31.2 81,30 81.2,28.8 C81.3,27.4 81,26 80.4,24.6 C79.7,23.1 78.5,22 77.5,20.8 C77.1,20.3 76.7,19.8 76.4,19.3 C76.1,18.9 76.3,18.7 76.8,18.7 C77.1,18.7 77.3,18.7 77.6,18.7 C77.6,18.6 77.6,18.6 77.6,18.5 C77.5,18.4 77.4,18.3 77.3,18.3 C76.1,17.6 75,16.8 73.8,16.1 C72.2,15.1 70.6,14.1 69.1,13 C67.9,12.2 66.8,11.3 65.8,10.3 C65.3,9.8 64.8,9.5 64.1,9.7 C63.2,9.9 63,10.4 63.5,11.2 C63.6,11.4 63.8,11.6 64,11.8 C64.7,12.4 65.4,13.1 66,13.7 C66.1,13.8 66.2,13.9 66.2,13.9 C65.9,13.8 65.6,13.7 65.4,13.5 C63.9,12.4 62.3,11.4 61,10.1 C60.8,9.9 60.6,9.8 60.4,9.8 C59.5,9.8 58.6,9.8 57.6,9.7 C57.5,9.7 57.4,9.8 57.3,9.8 C57.4,9.9 57.4,10 57.5,10 C58.2,10.6 59,11.3 59.7,11.9 C61.2,13 62.8,14 64.4,15 C66,16 67.6,17 69.2,18 C70.4,18.8 71.5,19.5 72.6,20.4 C73.9,21.4 75.1,22.4 76.1,23.8 C77.4,25.6 77.7,27.7 77.2,29.8 C76.9,30.9 76.3,31.8 75.6,32.6 C74.3,34.1 72.8,35.5 71.5,36.9 C70.5,37.6 70,38.1 69.4,38.8 Z" id="Shape" fill="#FFFFFF"></path>
                    <path d="M42.8,2.7 C44.7,2.7 46.5,3.1 48.1,4.2 C49,4.8 49.7,5.5 50.3,6.4 C51.3,7.6 52.1,8.8 53.2,9.9 C54.4,11 55.8,12 57.1,13 C58.8,14.2 60.5,15.2 62.3,16.3 C64.5,17.7 66.7,19.2 68.9,20.7 C69.7,21.2 70.3,22 71,22.6 C71.7,23.2 72.3,23.9 72.7,24.8 C73.6,26.4 73.5,28 72.7,29.7 C71.9,31.5 70.5,32.8 69.1,34 C66.9,35.8 64.6,37.4 62,38.5 C61,39 59.9,39.4 58.8,39.8 C57.6,40.2 56.3,40.2 55.1,40.2 C54.5,40.2 54,40 53.5,39.9 C52.7,39.6 52.3,38.9 52.5,38 C52.7,37 53.2,36.1 53.7,35.2 C54.3,34.3 54.9,33.4 55.4,32.5 C55.9,31.7 56.1,30.8 56,29.8 C55.9,28.2 55.5,26.7 54.8,25.3 C54.1,24 53,22.9 51.9,22 C49.6,20 47,18.4 44.5,16.8 C42.2,15.3 40,13.8 37.7,12.2 C36.6,11.4 35.7,10.5 35.2,9.2 C34.8,8.1 35,7.2 35.6,6.3 C36.7,4.7 38.4,3.8 40.3,3.4 C41.1,2.8 42,2.8 42.8,2.7 Z M42.7,5.6 C42.2,5.7 41.6,5.8 41.1,5.9 C40.4,6.1 39.8,6.6 39.6,7.4 C39.4,8.1 39.6,8.7 39.9,9.3 C40.4,10.3 41.2,11 42,11.7 C44.8,13.9 47.9,15.7 50.9,17.7 C52.9,19 54.9,20.3 56.7,21.9 C57.8,22.8 58.7,23.9 59.4,25.2 C60,26.3 60.4,27.5 60.6,28.8 C60.7,29.7 60.9,30.6 60.6,31.5 C60.4,32.1 60.3,32.8 60.1,33.4 C59.9,34.2 60.2,34.7 61,34.7 C61.4,34.7 61.8,34.6 62.2,34.5 C64,34 65.6,32.9 66.9,31.7 C67.8,30.9 68.5,30 68.9,28.8 C69.5,26.9 69.2,25.2 67.9,23.6 C66.6,22 65.1,20.8 63.4,19.7 C61.8,18.6 60.1,17.6 58.5,16.5 C56.1,14.9 53.7,13.4 51.3,11.8 C49.7,10.8 48.4,9.4 47.2,8 C46,6.6 44.7,5.6 42.7,5.6 Z" id="Shape" fill="#000000"></path>
                    <path d="M7.2,3.2 C8.3,3.2 9.3,3.1 10.4,3.2 C11.4,3.3 12.4,3.4 13.3,3.7 C14.8,4.2 15.9,5.2 16.6,6.6 C17.3,8.1 18.1,9.5 19.3,10.6 C20.4,11.6 21.6,12.6 22.8,13.4 C25.2,15.1 27.6,16.6 30,18.2 C31.7,19.3 33.3,20.6 34.6,22.1 C35.2,22.8 35.7,23.5 35.7,24.5 C35.7,25.2 35.3,25.7 34.8,26.1 C33.8,26.8 32.7,27 31.5,27 C30.9,27 30.2,27 29.6,27 C29.1,27 29.1,27.1 29.1,27.6 C29.2,28.9 28.9,30.1 28.3,31.2 C27.4,32.8 26.1,34.1 24.8,35.4 C23.9,36.4 23,37.3 22.1,38.2 C21.6,38.7 21.3,39.3 20.8,39.8 C20.7,40 20.4,40.1 20.2,40.1 C19.3,40.2 18.4,40.2 17.4,40.2 C17,40.2 16.9,40.1 17.1,39.8 C17.3,39.5 17.4,39.2 17.7,38.9 C18.7,37.8 19.7,36.8 20.6,35.7 C21.9,34.3 23.2,32.9 24.2,31.2 C25.8,28.6 25.1,25.2 23.1,23.1 C21.5,21.5 19.8,20.1 17.9,18.8 C15.2,17 12.4,15.3 9.8,13.5 C8.4,12.6 7,11.5 5.7,10.5 C4.3,9.4 3.4,7.8 3.2,6.1 C3.1,5.2 3.2,4.2 3.2,3.3 C3.2,3 3.4,3 3.6,3 C4.9,3.2 6,3.2 7.2,3.2 C7.2,3.2 7.2,3.2 7.2,3.2 Z M9.1,6.2 C9.1,6.2 9.1,6.2 9.1,6.2 C8.7,6.3 8.2,6.4 7.8,6.4 C7.5,6.4 7.3,6.6 7.4,6.9 C7.6,7.6 7.8,8.3 8.2,8.9 C8.9,10.1 9.9,11.1 11,11.9 C12.9,13.2 14.8,14.5 16.7,15.7 C18.2,16.7 19.7,17.6 21.1,18.5 C22.1,19.1 23.1,19.3 24.2,19.2 C24.7,19.2 24.7,18.9 24.5,18.6 C24.2,18.2 23.9,17.8 23.5,17.5 C21.7,16.1 19.8,14.7 18,13.3 C17,12.5 15.9,11.7 15,10.7 C14.1,9.7 13.4,8.6 12.5,7.6 C12.2,7.2 11.8,6.9 11.4,6.7 C10.7,6.4 9.9,6.3 9.1,6.2 Z" id="Shape" fill="#000000"></path>
                    <path d="M66.2,3.1 C66.3,3.1 66.4,3.1 66.6,3.1 C67.6,3.1 68.6,3.1 69.6,3.1 C70,3.1 70.1,3.2 70.1,3.6 C70.1,4.3 70.1,4.9 70.1,5.6 C70.2,7.8 71.3,9.4 72.9,10.8 C75.2,12.8 77.7,14.3 80.3,15.9 C81.9,16.9 83.6,17.9 85.2,19 C86.5,19.9 87.8,21 89.1,22 C89.3,22.1 89.5,22.2 89.6,22.3 C89.6,22.3 89.7,22.2 89.7,22.2 C89.3,21.7 88.9,21.2 88.4,20.7 C86.9,19.2 85.2,17.9 83.5,16.6 C82.2,15.6 80.8,14.6 79.6,13.5 C78.6,12.6 77.6,11.7 76.6,10.7 C76.3,10.5 76.2,10.1 76,9.8 C75.8,9.5 75.9,9.4 76.3,9.4 C76.7,9.4 77.1,9.4 77.5,9.4 C78.2,9.4 79,9.4 79.7,9.4 C79.9,9.4 80.3,9.6 80.4,9.8 C81,10.8 81.8,11.6 82.7,12.4 C84,13.5 85.3,14.6 86.6,15.7 C88,16.8 89.4,17.9 90.8,19.1 C92,20.1 93.1,21.2 93.8,22.5 C94.4,23.6 95.4,24.5 96.1,25.6 C96.8,26.6 97.4,27.7 97.7,28.9 C98,29.9 97.9,31 97.3,32 C96.6,33.2 95.8,34.3 95.1,35.4 C94.7,36.1 94.2,36.8 93.7,37.4 C93.6,37.6 93.3,37.8 93.1,37.8 C91.8,37.9 90.5,37.9 89.2,37.9 C89.1,37.9 89,37.8 88.9,37.8 C88.9,37.7 88.9,37.6 89,37.5 C89.7,36.5 90.5,35.4 91.2,34.4 C92,33.3 92.8,32.2 93.2,30.9 C93.4,30.1 93.5,29.2 93.2,28.4 C92.8,27.3 92.2,26.3 91.7,25.3 C91.6,25.2 91.6,25.1 91.5,25 C91.5,25 91.4,25.1 91.4,25.1 C91.4,25.2 91.4,25.3 91.5,25.4 C92,26.9 92.1,28.5 91.5,30 C91,31.2 90.2,32.3 89.3,33.2 C88,34.5 86.7,35.8 85.4,37.1 C85.3,37.2 85.2,37.3 85.1,37.5 C84.7,38 84.1,38.2 83.5,38.2 C82.7,38.2 81.9,38.3 81,38.3 C80.9,38.3 80.8,38.2 80.6,38.2 C80.7,38.1 80.7,38 80.8,37.9 C82.5,36.2 84.2,34.5 85.9,32.7 C87.3,31.1 88.1,29.3 87.9,27.1 C87.8,25.8 87.3,24.7 86.6,23.7 C85.7,22.5 84.5,21.5 83.3,20.6 C81.9,19.5 80.4,18.5 78.9,17.5 C76.7,16 74.4,14.6 72.2,13.1 C70.9,12.2 69.7,11.3 68.5,10.3 C67.4,9.3 66.5,8.1 66.3,6.6 C66.2,5.7 66.2,4.7 66.1,3.7 C66.2,3.6 66.2,3.4 66.2,3.1 Z" id="Shape" fill="#000000"></path>
                    <path d="M51,33.9 C50.7,34.2 50.5,34.5 50.2,34.8 C49,36 47.8,37.2 46.6,38.4 C46.3,38.7 46,39 45.8,39.3 C45.6,39.6 45.4,39.7 45,39.7 C42.2,39.8 39.4,39.9 36.6,39.9 C35.6,39.9 34.6,40 33.6,40 C33.4,40 33.3,40 32.9,40 C33.2,39.6 33.3,39.3 33.5,39.1 C34.9,37.7 36.3,36.3 37.7,34.9 C38.8,33.8 39.9,32.7 40.6,31.4 C41.4,30 41.6,28.5 41.3,26.9 C40.9,24.8 39.6,23.4 38,22 C36.4,20.6 34.6,19.4 32.8,18.2 C31.6,17.4 30.4,16.7 29.2,15.9 C27.7,14.9 26.1,13.9 24.6,12.9 C23.5,12.1 22.4,11.3 21.5,10.4 C20.2,9.2 19.5,7.6 19.4,5.8 C19.4,5.1 19.4,4.5 19.4,3.8 C19.4,3.5 19.5,3.4 19.8,3.4 C20.9,3.4 22,3.4 23.1,3.4 C23.4,3.4 23.5,3.6 23.5,3.8 C23.5,4.7 23.5,5.6 23.6,6.4 C23.7,7.7 24.2,8.8 25,9.8 C26,11.1 27.2,12 28.5,12.9 C30.9,14.5 33.2,16.1 35.7,17.6 C37.7,18.9 39.7,20.2 41.6,21.7 C42.9,22.7 44.1,23.9 44.8,25.4 C45.7,27.4 45.7,29.4 44.8,31.3 C44.3,32.2 43.6,33 43,33.8 C42.9,33.9 42.9,33.9 42.8,34 C42.7,34.1 42.7,34.2 42.7,34.4 C42.8,34.4 42.9,34.5 43,34.5 C43.7,34.5 44.5,34.4 45.2,34.4 C46.8,34.3 48.5,34.2 50.1,34.2 C50.3,34.2 50.6,34.2 50.8,34.1 C50.9,33.8 50.9,33.9 51,33.9 Z" id="Shape" fill="#000000"></path>
                    <path d="M69.4,38.8 C70,38.2 70.6,37.6 71.1,37.1 C72.5,35.7 73.9,34.3 75.2,32.8 C75.9,32 76.5,31.1 76.8,30 C77.3,27.8 77,25.8 75.7,24 C74.7,22.7 73.5,21.6 72.2,20.6 C71.1,19.8 70,19 68.8,18.2 C67.2,17.2 65.6,16.2 64,15.2 C62.4,14.2 60.9,13.1 59.3,12.1 C58.5,11.5 57.8,10.8 57.1,10.2 C57,10.2 57,10.1 56.9,10 C57,9.9 57.1,9.9 57.2,9.9 C58.1,9.9 59,9.9 60,10 C60.2,10 60.5,10.2 60.6,10.3 C61.9,11.6 63.5,12.6 65,13.7 C65.2,13.9 65.5,14 65.8,14.1 C65.7,14 65.7,13.9 65.6,13.9 C64.9,13.3 64.2,12.6 63.6,12 C63.4,11.8 63.3,11.6 63.1,11.4 C62.6,10.6 62.8,10.1 63.7,9.9 C64.4,9.7 64.9,10 65.4,10.5 C66.4,11.5 67.6,12.4 68.7,13.2 C70.2,14.3 71.8,15.3 73.4,16.3 C74.6,17.1 75.7,17.8 76.9,18.5 C77,18.6 77.1,18.7 77.2,18.7 C77.2,18.8 77.2,18.8 77.2,18.9 C76.9,18.9 76.7,18.9 76.4,18.9 C75.9,18.9 75.7,19.1 76,19.5 C76.3,20 76.7,20.5 77.1,21 C78.1,22.2 79.3,23.3 80,24.8 C80.6,26.1 80.9,27.5 80.8,29 C80.7,30.3 80.1,31.4 79.3,32.4 C77.8,34.3 76.1,35.9 74.4,37.5 C74,37.9 73.6,38.4 73.1,38.8 C73,38.9 72.8,39 72.6,39 C71.6,39.1 70.5,39.1 69.5,39.1 C69.7,38.9 69.6,38.8 69.4,38.8 Z" id="Shape" fill="#000000"></path>
                    <path d="M42.7,5.6 C44.6,5.6 46,6.6 47.1,7.9 C48.3,9.3 49.6,10.6 51.2,11.7 C53.6,13.3 56,14.8 58.4,16.4 C60,17.5 61.7,18.5 63.3,19.6 C64.9,20.7 66.5,22 67.8,23.5 C69.1,25.1 69.4,26.8 68.8,28.7 C68.4,29.8 67.7,30.7 66.8,31.6 C65.4,32.9 63.9,33.9 62.1,34.4 C61.7,34.5 61.3,34.6 60.9,34.6 C60.1,34.6 59.8,34.1 60,33.3 C60.2,32.7 60.3,32 60.5,31.4 C60.7,30.5 60.6,29.6 60.5,28.7 C60.3,27.5 59.9,26.2 59.3,25.1 C58.6,23.8 57.7,22.8 56.6,21.8 C54.8,20.2 52.8,18.9 50.8,17.6 C47.8,15.7 44.7,13.9 41.9,11.6 C41.1,10.9 40.3,10.2 39.8,9.2 C39.5,8.6 39.3,8 39.5,7.3 C39.7,6.5 40.3,6.1 41,5.8 C41.6,5.8 42.2,5.7 42.7,5.6 Z" id="Shape" fill="#FFFFFF"></path>
                    <path d="M9.1,6.2 C9.9,6.4 10.7,6.4 11.5,6.7 C11.9,6.8 12.3,7.2 12.6,7.6 C13.4,8.6 14.2,9.8 15.1,10.7 C16,11.6 17,12.5 18.1,13.3 C19.9,14.7 21.8,16.1 23.6,17.5 C24,17.8 24.3,18.2 24.6,18.6 C24.9,19 24.8,19.2 24.3,19.2 C23.2,19.3 22.1,19.1 21.2,18.5 C19.7,17.5 18.2,16.6 16.8,15.7 C14.9,14.5 13,13.2 11.1,11.9 C10,11.1 9,10.2 8.3,8.9 C8,8.3 7.8,7.6 7.5,6.9 C7.4,6.6 7.5,6.4 7.9,6.4 C8.2,6.4 8.7,6.3 9.1,6.2 C9.1,6.2 9.1,6.2 9.1,6.2 Z" id="Shape" fill="#FFFFFF"></path>
                </g>
            </g>
        </g>
    </g>
</svg>