<?xml version="1.0" encoding="UTF-8"?>
<svg width="201px" height="26px" viewBox="0 0 201 26" version="1.1" xmlns="http://www.w3.org/2000/svg" xmlns:xlink="http://www.w3.org/1999/xlink">
    <!-- Generator: Sketch 49.3 (51167) - http://www.bohemiancoding.com/sketch -->
    <title>_x35_4uNjt_1_</title>
    <desc>Created with Sketch.</desc>
    <defs></defs>
    <g id="Page-1" stroke="none" stroke-width="1" fill="none" fill-rule="evenodd">
        <g id="plork-logos" transform="translate(-512.000000, -306.000000)" fill-rule="nonzero">
            <g id="_x35_4uNjt_1_" transform="translate(512.000000, 306.000000)">
                <g id="Group">
                    <path d="M0.7,25.4 C0.7,17.1 0.7,8.8 0.7,0.5 C67.3,0.5 133.9,0.5 200.5,0.5 C200.5,8.8 200.5,17.1 200.5,25.4 C133.9,25.4 67.3,25.4 0.7,25.4 Z M119.6,19 C119.6,19 119.6,19.1 119.6,19.1 C121.8,19.1 123.9,19.2 126.1,19.1 C127.9,19 129.7,18.7 131.5,18.4 C131.8,18.4 132,18.1 132.2,17.9 C132,17.6 131.9,17.4 131.6,17.1 C131.4,16.9 131.2,16.8 131,16.8 C127.2,15.7 123.4,14.6 119.6,13.6 C115,12.4 110.3,11.3 105.6,10.1 C101.9,9.2 98.2,7.9 94.2,7.9 C90.5,7.9 86.9,8 83.2,8.4 C81.5,8.6 79.8,9.3 78.3,10.1 C77.6,10.4 77.2,11.3 76.6,11.9 C77.3,12.4 77.8,13.2 78.6,13.5 C82.7,15.2 87.1,15.9 91.5,16.7 C94.6,17.3 97.8,17.7 101,18 C104.9,18.4 108.8,18.8 112.7,19 C114.9,19.1 117.2,19 119.6,19 Z M194.3,17.4 C194.3,17.3 194.3,17.3 194.3,17.2 C193.1,17 191.8,16.8 190.6,16.7 C188.3,16.4 186,16.1 183.7,15.8 C180.7,15.4 177.8,15 174.8,14.6 C173.7,14.5 172.7,14.3 171.6,14.1 C170.6,13.9 169.9,12.9 170,11.9 C170,11.2 170.2,10.4 170.3,9.6 C170,9.6 169.6,9.6 169.3,9.6 C167.1,9.7 164.9,9.9 162.6,10 C161.1,10.1 160.6,10.6 161.2,12.1 C161.3,12.4 161.6,12.7 161.7,13 C161.8,13.2 161.9,13.5 162,13.8 C161.7,13.9 161.6,13.9 161.6,13.9 C158.8,12.9 156,12.1 153.4,10.9 C150.8,9.7 149,7.4 147.2,5.3 C146.9,4.9 146.7,4.4 146.7,3.9 C146.6,3.1 146.2,2.9 145.6,3 C143.5,3.2 141.3,3.5 139.2,3.8 C138.9,3.8 138.6,3.9 138.4,4 C138.2,4.2 138,4.8 138.1,4.9 C139.8,6.7 141.3,8.6 143.3,10.1 C147.1,13 151.9,13.5 156.3,14.8 C158.8,15.5 161.5,15.9 164,16.6 C167.7,17.6 171.5,18.5 175.4,18.1 C176,18 176.7,18.1 177.3,18.1 C177.3,18 177.3,17.9 177.3,17.8 C174.5,17.1 171.6,16.5 168.8,15.8 C168.8,15.7 168.8,15.6 168.8,15.5 C169.3,15.5 169.9,15.4 170.4,15.5 C171.4,15.6 172.5,15.9 173.5,16 C177,16.5 180.6,16.8 184.1,17.4 C187.3,18 190.5,17.6 193.8,17.7 C194,17.5 194.1,17.4 194.3,17.4 Z M36.5,17.9 C36.5,17.8 36.5,17.7 36.5,17.5 C36.8,17.4 37.1,17.3 37.4,17.3 C40.2,17.2 43,17.1 45.9,17 C46.5,17 47.2,16.8 47.8,16.6 C48,16.5 48.2,16.3 48.2,16.1 C48.2,16 48,15.8 47.8,15.7 C47.2,15.5 46.6,15.2 46,15 C43,14.4 40.1,13.8 37.1,13.3 C31.7,12.4 26.3,12.2 20.9,12.3 C17.6,12.4 14.3,12.5 11,12.6 C9.8,12.6 8.6,12.7 7.5,12.7 C7.6,13.1 7.7,13.2 7.8,13.2 C11.9,14.2 16,15.1 20.2,16.1 C25.2,17.2 30.3,18.1 35.3,19.4 C38.9,20.3 42.4,20.2 46,20.1 C46.1,20.1 46.1,20 46.2,19.9 C42.9,19.3 39.7,18.6 36.5,17.9 Z M40.2,11.6 C40.2,11.7 40.2,11.7 40.2,11.8 C40.5,12 40.9,12.2 41.3,12.3 C45.4,13.4 49.4,14.5 53.5,15.4 C58.2,16.5 63,17.5 67.8,18.5 C70.1,19 72.4,19.7 74.7,19.8 C82.3,19.9 89.8,19.6 97.4,19.5 C97.7,19.5 97.9,19.4 98.2,19.4 C96.7,18.9 95.1,18.4 93.6,18.3 C91.7,18.2 89.7,18.3 87.7,18.3 C83.8,18.3 80,18.5 76.1,18.3 C74.5,18.2 72.9,17.7 71.3,17.3 C66.6,16.2 61.8,15.2 57.1,14 C54,13.2 51,12.1 47.9,11.2 C47.5,11.1 47,11.1 46.5,11.1 C45.6,11.1 44.7,11.2 43.8,11.3 C42.6,11.5 41.4,11.6 40.2,11.6 Z M143.3,13.5 C140.5,12.1 137.7,10.7 134.4,11.8 C134,11.9 133.4,12 133.3,12.3 C132.8,13.2 132.2,12.9 131.5,12.7 C130.7,12.4 129.8,12.1 129,12 C127.2,11.9 125.4,12.1 123.6,12.2 C123.5,12.2 123.3,12.4 123,12.5 C123.3,12.6 123.5,12.7 123.7,12.7 C128.4,13.8 133,15 137.7,16.1 C140.7,16.8 143.6,17.7 146.6,18.1 C149.1,18.5 151.6,18.2 154.1,18.3 C154.2,18.3 154.3,18.2 154.6,18.1 C153.6,17.9 152.8,17.7 152,17.5 C148.2,16.6 144.4,15.7 140.6,14.7 C140.3,14.6 140,14.3 139.7,14.1 C140.1,13.9 140.4,13.6 140.8,13.6 C141.7,13.5 142.5,13.5 143.3,13.5 Z" id="Shape" fill="#FFFFFF"></path>
                    <path d="M119.6,19 C117.3,19 114.9,19.1 112.6,19 C108.7,18.8 104.8,18.4 100.9,18 C97.7,17.7 94.6,17.3 91.4,16.7 C87,15.9 82.7,15.1 78.5,13.5 C77.8,13.2 77.2,12.5 76.5,11.9 C77.1,11.3 77.5,10.5 78.2,10.1 C79.8,9.4 81.4,8.6 83.1,8.4 C86.7,8 90.4,8 94.1,7.9 C98,7.9 101.7,9.1 105.5,10.1 C110.2,11.3 114.8,12.4 119.5,13.6 C123.3,14.6 127.1,15.7 130.9,16.8 C131.1,16.9 131.4,17 131.5,17.1 C131.7,17.3 131.9,17.6 132.1,17.9 C131.9,18.1 131.6,18.3 131.4,18.4 C129.6,18.7 127.8,19 126,19.1 C123.9,19.2 121.7,19.1 119.5,19.1 C119.6,19.1 119.6,19 119.6,19 Z M115.1,18 C116.4,18 117.8,18 119.1,18 C119.7,18 120.4,17.9 121,17.7 C121.2,17.6 121.4,17.3 121.6,17.1 C121.4,16.9 121.2,16.7 121,16.6 C118.8,15.9 116.5,15.1 114.2,14.6 C109.6,13.5 105.1,12.5 100.5,11.7 C96.5,11 92.4,10.6 88.3,11.4 C87.7,11.5 87.3,12 86.8,12.3 C87.3,12.7 87.7,13.1 88.2,13.5 C88.3,13.6 88.5,13.6 88.6,13.6 C91.5,14.3 94.4,15.1 97.3,15.8 C103.1,17.2 109,17.9 115.1,18 Z" id="Shape" fill="#000000"></path>
                    <path d="M194.3,17.4 C194.2,17.4 194,17.5 193.9,17.5 C190.7,17.5 187.5,17.8 184.2,17.2 C180.7,16.6 177.1,16.3 173.6,15.8 C172.6,15.7 171.5,15.4 170.5,15.3 C170,15.2 169.4,15.3 168.9,15.3 C168.9,15.4 168.9,15.5 168.9,15.6 C171.7,16.3 174.6,16.9 177.4,17.6 C177.4,17.7 177.4,17.8 177.4,17.9 C176.8,17.9 176.1,17.8 175.5,17.9 C171.6,18.3 167.8,17.4 164.1,16.4 C161.5,15.7 158.9,15.3 156.4,14.6 C152,13.4 147.2,12.8 143.4,9.9 C141.5,8.4 139.9,6.5 138.2,4.7 C138.1,4.6 138.3,4 138.5,3.8 C138.6,3.6 139,3.6 139.3,3.6 C141.4,3.3 143.6,3.1 145.7,2.8 C146.4,2.7 146.8,2.9 146.8,3.7 C146.8,4.2 147,4.7 147.3,5.1 C149.2,7.2 150.9,9.6 153.5,10.7 C156.2,11.9 159,12.7 161.7,13.7 C161.8,13.7 161.9,13.7 162.1,13.6 C162,13.3 161.9,13 161.8,12.8 C161.6,12.5 161.4,12.3 161.3,11.9 C160.7,10.4 161.1,9.8 162.7,9.8 C164.9,9.7 167.1,9.5 169.4,9.4 C169.7,9.4 170.1,9.4 170.4,9.4 C170.3,10.2 170.1,11 170.1,11.7 C170,12.8 170.7,13.7 171.7,13.9 C172.7,14.1 173.8,14.3 174.9,14.4 C177.9,14.8 180.8,15.2 183.8,15.6 C186.1,15.9 188.4,16.2 190.7,16.5 C191.9,16.7 193.2,16.9 194.4,17 C194.3,17.3 194.3,17.4 194.3,17.4 Z" id="Shape" fill="#000000"></path>
                    <path d="M36.5,17.9 C39.7,18.6 43,19.3 46.2,20 C46.1,20.1 46,20.2 46,20.2 C42.4,20.3 38.8,20.5 35.3,19.5 C30.3,18.2 25.3,17.3 20.2,16.2 C16.1,15.3 12,14.3 7.8,13.3 C7.7,13.3 7.6,13.1 7.5,12.8 C8.7,12.8 9.9,12.7 11,12.7 C14.3,12.6 17.6,12.5 20.9,12.4 C26.3,12.3 31.7,12.5 37.1,13.4 C40.1,13.9 43,14.5 46,15.1 C46.6,15.2 47.2,15.5 47.8,15.8 C48,15.9 48.2,16.1 48.2,16.2 C48.1,16.4 47.9,16.6 47.8,16.7 C47.2,16.9 46.6,17.1 45.9,17.1 C43.1,17.2 40.3,17.3 37.4,17.4 C37.1,17.4 36.8,17.5 36.5,17.6 C36.5,17.7 36.5,17.8 36.5,17.9 Z M21.1,14 C23.2,15.9 35.1,17 37.4,15.5 C32,13.6 26.7,13.8 21.1,14 Z" id="Shape" fill="#000000"></path>
                    <path d="M40.2,11.6 C41.4,11.5 42.6,11.5 43.8,11.4 C44.7,11.3 45.6,11.2 46.5,11.2 C47,11.2 47.5,11.2 47.9,11.3 C51,12.2 54,13.3 57.1,14.1 C61.8,15.3 66.5,16.3 71.3,17.4 C72.9,17.8 74.5,18.3 76.1,18.4 C80,18.5 83.8,18.4 87.7,18.4 C89.7,18.4 91.6,18.2 93.6,18.4 C95.2,18.5 96.7,18.9 98.2,19.5 C97.9,19.5 97.7,19.6 97.4,19.6 C89.8,19.7 82.3,19.9 74.7,19.9 C72.4,19.9 70.1,19.1 67.8,18.6 C63,17.6 58.3,16.6 53.5,15.5 C49.4,14.5 45.4,13.4 41.3,12.4 C40.9,12.3 40.6,12.1 40.2,11.9 C40.2,11.8 40.2,11.7 40.2,11.6 Z" id="Shape" fill="#000000"></path>
                    <path d="M143.3,13.5 C142.5,13.5 141.6,13.5 140.8,13.6 C140.4,13.7 140.1,13.9 139.7,14.1 C140,14.3 140.3,14.6 140.6,14.7 C144.4,15.6 148.2,16.5 152,17.5 C152.8,17.7 153.6,17.9 154.6,18.1 C154.3,18.2 154.2,18.3 154.1,18.3 C151.6,18.3 149,18.5 146.6,18.1 C143.6,17.7 140.6,16.8 137.7,16.1 C133,15 128.4,13.8 123.7,12.7 C123.5,12.7 123.3,12.6 123,12.5 C123.3,12.3 123.4,12.2 123.6,12.2 C125.4,12.1 127.2,12 129,12 C129.8,12 130.7,12.4 131.5,12.7 C132.2,12.9 132.8,13.2 133.3,12.3 C133.4,12 134,11.9 134.4,11.8 C137.7,10.7 140.5,12.1 143.3,13.5 Z" id="Shape" fill="#000000"></path>
                    <path d="M115.1,18 C109.1,17.9 103.2,17.2 97.3,15.9 C94.4,15.2 91.5,14.4 88.6,13.7 C88.5,13.7 88.3,13.7 88.2,13.6 C87.7,13.2 87.3,12.8 86.8,12.4 C87.3,12.1 87.8,11.7 88.3,11.5 C92.4,10.6 96.5,11 100.5,11.8 C105.1,12.6 109.7,13.7 114.2,14.7 C116.5,15.2 118.7,16 121,16.7 C121.2,16.8 121.4,17 121.6,17.2 C121.4,17.4 121.2,17.7 121,17.8 C120.4,18 119.7,18.1 119.1,18.1 C117.7,18 116.4,18 115.1,18 Z" id="Shape" fill="#FFFFFF"></path>
                    <path d="M21.1,14 C26.7,13.8 32,13.6 37.4,15.5 C35.1,17 23.1,15.9 21.1,14 Z" id="Shape" fill="#FFFFFF"></path>
                </g>
            </g>
        </g>
    </g>
</svg>