<?xml version="1.0" encoding="UTF-8"?>
<svg width="101px" height="38px" viewBox="0 0 101 38" version="1.1" xmlns="http://www.w3.org/2000/svg" xmlns:xlink="http://www.w3.org/1999/xlink">
    <!-- Generator: Sketch 49.3 (51167) - http://www.bohemiancoding.com/sketch -->
    <title>xsK0fN_1_</title>
    <desc>Created with Sketch.</desc>
    <defs></defs>
    <g id="Page-1" stroke="none" stroke-width="1" fill="none" fill-rule="evenodd">
        <g id="plork-logos" transform="translate(-832.000000, -151.000000)" fill-rule="nonzero">
            <g id="xsK0fN_1_" transform="translate(832.000000, 151.000000)">
                <g id="Group">
                    <path d="M0.7,37.7 C0.7,25.2 0.7,12.7 0.7,0.2 C34,0.2 67.3,0.2 100.7,0.2 C100.7,12.7 100.7,25.2 100.7,37.7 C67.4,37.7 34,37.7 0.7,37.7 Z M59.2,35.1 C60.1,35 60.9,35 61.8,34.8 C62.8,34.6 63.5,33.8 62.8,32.6 C62.6,32.3 62.4,31.9 62.2,31.7 C61.1,30.6 60,29.6 58.9,28.6 C58,27.7 56.9,26.9 56.3,25.8 C55.3,24.3 54.6,22.7 54.2,20.9 C53.9,19.8 54,18.8 54.6,17.8 C55.2,16.9 55.9,16.1 56.7,15.4 C58.2,14.1 59.8,12.9 61.3,11.6 C62.2,10.8 62.9,10 63.7,9.1 C64.4,8.2 64.4,7.1 63.5,6.3 C63,5.9 62.5,5.5 61.9,5.3 C59.9,4.5 57.8,4.5 55.8,4.5 C54.3,4.5 52.9,4.7 51.4,5.1 C50,5.4 48.8,6 47.6,6.8 C45.4,8.4 43.8,10.5 42.6,12.9 C41.6,14.9 40.6,16.8 39.5,18.7 C38.7,20.1 37.7,21.4 37.3,23.1 C37.1,23.9 37.2,24.7 37.4,25.5 C37.8,26.6 38.6,27.4 39.5,28 C40.9,29.1 42.5,30 44.2,30.8 C46.9,32.1 49.7,33.2 52.6,34 C54.7,34.5 56.9,35 59.2,35.1 Z M19.2,7.1 C19.3,6.8 19.4,6.6 19.5,6.4 C19.8,5.6 20.2,4.8 20.5,4 C20.6,3.8 20.6,3.6 20.3,3.6 C19.2,3.6 18.1,3.5 17,3.5 C16.7,3.5 16.5,3.6 16.4,4 C15.9,5.6 15.2,7.2 14.1,8.5 C12.9,9.9 11.6,11.3 10.3,12.7 C8.9,14.2 7.5,15.7 6.4,17.4 C5.3,19.2 4.7,21.1 5.2,23.2 C5.6,24.9 6.3,26.3 7.5,27.4 C9.2,29 11.2,30.1 13.1,31.3 C15,32.5 16.9,33.5 18.8,34.7 C20,35.5 21.2,36 22.6,35.7 C23,35.6 23.5,35.7 23.9,35.7 C24,35.7 24.1,35.7 24.4,35.6 C24.2,35.4 24.1,35.4 24,35.3 C22.9,34.6 21.8,34 20.7,33.3 C19.1,32.3 17.5,31.3 15.8,30.3 C15.7,30.2 15.6,30.1 15.5,30.1 C15.6,30 15.8,29.9 15.9,29.9 C16.7,29.9 17.5,29.8 18.3,29.8 C18.9,29.8 19.4,29.7 20,29.6 C21.2,29.3 21.6,28.5 21.1,27.4 C20.9,27 20.7,26.6 20.5,26.1 C19.6,23.8 18.7,21.5 17.8,19.2 C17.4,18.2 17.6,17.2 18.5,16.5 C19.6,15.6 20.8,14.7 22,13.9 C22.8,13.3 23.6,12.9 24.4,12.3 C25.4,11.6 26.3,10.9 27,10 C27.6,9.2 27.4,8.4 26.5,8 C25.8,7.7 25,7.4 24.3,7.3 C23.1,7.1 21.9,7.1 20.6,7.1 C20,7.2 19.7,7.2 19.2,7.1 Z M78.2,29 C78.2,28.9 78.2,28.9 78.3,28.8 C78.5,28.8 78.6,28.8 78.8,28.9 C80.2,29.5 81.5,30.2 82.9,30.8 C85.1,31.8 87.4,32.7 89.6,33.7 C89.9,33.8 90.2,33.9 90.4,33.9 C91.6,33.9 92.8,33.9 93.9,33.8 C93.9,33.8 94,33.8 94,33.7 C93.9,33.6 93.8,33.6 93.8,33.5 C93.3,33.3 92.8,33 92.3,32.8 C90.6,32.1 88.9,31.4 87.2,30.6 C85.1,29.7 83.1,28.7 81,27.8 C80.9,27.7 80.7,27.6 80.7,27.5 C80.4,26.6 80.3,25.7 80.6,24.8 C81,23.7 81.6,22.6 82.2,21.5 C82.4,21.1 82.4,21 82,21.1 C80.8,21.2 79.6,21.3 78.4,21.3 C78.1,21.3 77.9,21.4 77.8,21.7 C77.6,22.1 77.4,22.5 77.2,22.9 C76.6,24.1 76.2,25.4 76.6,26.8 C76.6,26.9 76.6,27 76.6,27.2 C76.4,27.1 76.3,27 76.2,26.9 C75.2,25.9 74.5,24.8 74.2,23.4 C73.8,21.4 74,19.5 74.9,17.6 C75.8,15.9 77.1,14.5 78.3,13.1 C79.1,12.1 80,11.3 80.9,10.4 C81.1,10.2 81.4,10 81.7,9.8 C81.8,10.2 81.9,10.5 82,10.9 C82,10.9 82,11 82,11 C82.1,12 81.8,12.9 81.4,13.8 C81.3,14.1 81.2,14.5 81,14.9 C81.5,15 81.8,15 82.2,15 C83,15.1 83.7,15.2 84.5,15.3 C84.7,15.3 85,15.2 85.1,15 C85.8,13.5 86.4,11.9 85.6,10.2 C85.4,9.7 85.6,9.5 86,9.3 C88.1,8.2 90.2,7.1 92.3,6 C92.4,5.9 92.5,5.8 92.7,5.7 C92.5,5.6 92.4,5.6 92.2,5.6 C91.3,5.6 90.3,5.6 89.4,5.5 C88.8,5.5 88.3,5.6 87.7,5.9 C86,6.9 84.3,7.9 82.6,8.8 C82.5,8.9 82.4,8.8 82.1,8.9 C82.2,8.7 82.3,8.5 82.4,8.4 C83,7.5 83.5,6.6 84.1,5.7 C84.3,5.5 84.2,5.3 83.9,5.3 C82.9,5.3 81.8,5.2 80.8,5.2 C80.6,5.2 80.3,5.4 80.2,5.6 C79.8,6.2 79.6,6.8 79.2,7.3 C78.2,8.6 77.2,9.8 76.1,11.1 C74.9,12.5 73.7,13.8 72.4,15.2 C71.4,16.4 70.5,17.7 70,19.2 C69.6,20.4 69.6,21.6 69.8,22.8 C70,24.2 70.5,25.5 71.5,26.5 C72.6,27.7 74,28.7 75.4,29.6 C77.2,30.8 79,31.8 80.8,33 C81.7,33.6 82.6,33.9 83.7,33.8 C84.2,33.8 84.8,33.8 85.3,33.8 C85.4,33.8 85.5,33.8 85.6,33.7 C83.2,32.3 80.7,30.6 78.2,29 Z M48.3,34.9 C48.2,34.8 48.2,34.7 48.1,34.7 C46.9,34 45.7,33.3 44.6,32.6 C44.5,32.5 44.4,32.5 44.3,32.5 C43.9,32.5 43.5,32.5 43.2,32.5 C41,32.6 38.8,32.6 36.6,32.7 C36.4,32.7 36.1,32.7 35.9,32.6 C35.1,32.2 34.4,31.7 33.7,31.2 C32.1,30.1 30.5,29 28.9,27.9 C27.6,26.9 26.7,25.7 26.3,24.1 C25.6,21.2 26.3,18.6 28.1,16.4 C29.6,14.5 31.3,12.8 33,11 C34.3,9.6 35.6,8.1 36.5,6.4 C36.7,5.9 37.1,5.8 37.6,5.8 C39.8,5.9 42.1,5.9 44.3,6 C45.4,6 45.4,6 45.8,5 C45.9,4.7 45.9,4.6 45.5,4.5 C44.7,4.5 43.8,4.4 43,4.4 C39.9,4.3 36.9,4.2 33.8,4.1 C33.4,4.1 33.3,4.3 33.2,4.6 C33,5.1 32.8,5.7 32.6,6.2 C31.6,8.1 30.3,9.7 28.8,11.2 C27.2,12.9 25.6,14.5 24.1,16.3 C23.1,17.6 22.3,18.9 22.1,20.5 C21.7,23.2 22.3,25.6 24.4,27.6 C26,29 27.8,30.2 29.6,31.3 C31.5,32.5 33.4,33.6 35.3,34.7 C35.8,35 36.3,35.4 37.1,35.4 C40.7,35.3 44.3,35.2 48,35.1 C48,34.9 48.1,34.9 48.3,34.9 Z M62.9,24.9 C62.8,24.9 62.8,24.9 62.7,24.9 C62.5,24.3 62.3,23.8 62.2,23.2 C62.1,22.9 62,22.7 61.6,22.8 C60.7,22.8 59.8,22.9 58.9,22.9 C58.6,22.9 58.4,23.1 58.5,23.4 C58.8,24.2 59,25 59.4,25.7 C60.2,27 61.3,28 62.6,28.8 C65.3,30.6 68,32.3 70.7,34.1 C70.9,34.2 71.2,34.3 71.5,34.3 C72.2,34.3 73,34.3 73.7,34.3 C74,34.3 74.3,34.3 74.7,34.3 C74.6,34.2 74.5,34.1 74.5,34.1 C74,33.8 73.5,33.5 73,33.2 C71.2,32.1 69.5,30.9 67.7,29.7 C66.9,29.2 66.1,28.7 65.5,27.8 C65,27 65.1,26.5 66,26.3 C66.5,26.2 67,26.2 67.5,26.1 C67.8,26.1 67.9,26 67.7,25.7 C67.2,24.9 67,24.1 66.9,23.1 C66.8,22.3 66.8,22.3 66,22.3 C65.9,22.3 65.8,22.3 65.7,22.3 C64.4,22.6 63.3,23.1 62.9,24.6 C63,24.7 62.9,24.8 62.9,24.9 Z M73.7,10.7 C73.2,10.7 72.8,10.7 72.5,10.6 C72,10.5 71.6,10.4 71.1,10.2 C70.7,10 70.7,9.5 71.1,8.9 C71.8,7.8 72.5,6.7 73.1,5.6 C73.3,5.2 73.3,5.1 72.8,5.1 C71.8,5.1 70.9,5 69.9,5 C69.5,5 69.3,5.1 69.2,5.5 C68.6,6.6 68,7.8 67.2,8.8 C66.2,10 65.1,11.1 64,12.2 C63.9,12.3 63.8,12.5 63.7,12.7 C63.9,12.8 64.1,12.9 64.2,12.9 C64.8,13 65.4,13 66,13 C66.5,13.1 66.9,12.9 67.3,12.5 C67.6,12.2 67.9,11.9 68.2,11.6 C68.3,11.5 68.4,11.5 68.5,11.5 C68.5,11.5 68.6,11.7 68.6,11.8 C68.6,12 68.6,12.2 68.6,12.4 C68.7,13.1 69.3,13.3 70,13.5 C70.6,13.7 71.1,13.6 71.5,13.1 C72.1,12.4 72.7,11.8 73.3,11.2 C73.4,11.1 73.5,11 73.7,10.7 Z" id="Shape" fill="#FFFFFF"></path>
                    <path d="M59.2,35.1 C56.9,35 54.7,34.6 52.5,34 C49.6,33.2 46.8,32.1 44.1,30.8 C42.5,30 40.9,29.1 39.4,28 C38.5,27.3 37.7,26.5 37.3,25.5 C37,24.7 37,23.9 37.2,23.1 C37.6,21.4 38.6,20.1 39.4,18.7 C40.5,16.8 41.5,14.9 42.5,12.9 C43.7,10.5 45.3,8.3 47.5,6.8 C48.6,6 49.9,5.5 51.3,5.1 C52.7,4.7 54.2,4.5 55.7,4.5 C57.8,4.5 59.9,4.6 61.8,5.3 C62.4,5.5 63,5.9 63.4,6.3 C64.2,7.1 64.3,8.2 63.6,9.1 C62.9,10 62.1,10.8 61.2,11.6 C59.7,12.9 58.1,14.1 56.6,15.4 C55.8,16.1 55,16.8 54.5,17.8 C53.9,18.8 53.8,19.9 54.1,20.9 C54.5,22.6 55.3,24.3 56.2,25.8 C56.9,26.9 57.9,27.7 58.8,28.6 C59.9,29.6 61,30.7 62.1,31.7 C62.4,32 62.6,32.3 62.7,32.6 C63.4,33.8 62.7,34.6 61.7,34.8 C60.9,34.9 60,35 59.2,35.1 Z M56.3,5.9 C56.1,5.9 55.9,5.9 55.7,5.9 C54,5.9 52.3,6.4 51,7.5 C49.4,8.7 48.2,10.2 47.3,12 C46.6,13.3 46.1,14.7 46.3,16.2 C46.4,17.3 46.1,18.1 45.2,18.7 C44.2,19.4 43.3,20.2 42.5,21.2 C42,21.8 41.7,22.5 41.6,23.3 C41.3,25 42.1,26.3 43.3,27.3 C44.3,28.1 45.4,28.9 46.5,29.5 C49.1,31 51.8,32.1 54.8,32.5 C55.5,32.6 56.3,32.5 57.1,32.4 C57.6,32.3 57.8,31.9 57.6,31.4 C57.5,31.1 57.3,30.8 57,30.6 C56.2,29.8 55.3,29 54.4,28.3 C53,27.1 51.7,25.8 50.9,24 C50.1,22.3 49.2,20.7 48.4,19.1 C47.9,18.1 48,17.7 48.9,17 C50.3,16 51.8,15.1 53.2,14.1 C54.5,13.2 55.9,12.2 57.2,11.2 C58.2,10.5 59,9.6 59.6,8.5 C60.1,7.7 59.8,6.8 59,6.3 C58,6 57.2,5.9 56.3,5.9 Z" id="Shape" fill="#000000"></path>
                    <path d="M19.2,7.1 C19.7,7.1 20,7.2 20.4,7.2 C21.6,7.3 22.8,7.3 24.1,7.4 C24.9,7.5 25.6,7.8 26.3,8.1 C27.1,8.4 27.3,9.3 26.8,10.1 C26.1,11 25.2,11.8 24.2,12.4 C23.4,12.9 22.6,13.4 21.8,14 C20.6,14.8 19.4,15.7 18.3,16.6 C17.5,17.2 17.3,18.3 17.6,19.3 C18.5,21.6 19.4,23.9 20.3,26.2 C20.5,26.6 20.7,27.1 20.9,27.5 C21.4,28.6 21,29.5 19.8,29.7 C19.2,29.8 18.7,29.9 18.1,29.9 C17.3,30 16.5,30 15.7,30 C15.6,30 15.4,30.1 15.3,30.2 C15.4,30.3 15.5,30.4 15.6,30.4 C17.2,31.4 18.8,32.4 20.5,33.4 C21.6,34.1 22.7,34.7 23.8,35.4 C23.9,35.5 24,35.6 24.2,35.7 C24,35.7 23.9,35.8 23.7,35.8 C23.3,35.8 22.8,35.7 22.4,35.8 C21,36.1 19.8,35.5 18.6,34.8 C16.8,33.6 14.8,32.6 12.9,31.4 C11,30.2 9,29 7.3,27.5 C6,26.3 5.4,24.9 5,23.3 C4.5,21.1 5.1,19.2 6.2,17.5 C7.3,15.8 8.7,14.3 10.1,12.8 C11.4,11.4 12.7,10.1 13.9,8.6 C15,7.3 15.7,5.7 16.2,4.1 C16.3,3.8 16.5,3.6 16.8,3.6 C17.9,3.6 19,3.7 20.1,3.7 C20.4,3.7 20.4,3.9 20.3,4.1 C20,4.9 19.6,5.7 19.3,6.5 C19.4,6.6 19.3,6.8 19.2,7.1 Z M11.8,22.1 C11.3,22.2 10.7,22.2 10.2,22.3 C9.2,22.4 9.2,22.4 9.4,23.3 C9.6,24.9 10.4,26.2 11.5,27.2 C11.7,27.4 11.9,27.5 12.1,27.5 C13,27.5 13.9,27.4 14.8,27.4 C15.6,27.3 16,26.8 15.7,26 C15.5,25.4 15.3,24.8 15,24.2 C14.8,23.8 14.5,23.3 14.2,23 C13.5,22.3 12.7,22.2 11.8,22.1 Z M17.1,12.1 C19,12.3 20.7,11.9 22,10.4 C22.2,10.2 22.4,9.8 22.4,9.5 C22.3,9.3 21.9,9 21.7,9 C20.6,8.9 19.4,8.8 18.3,8.8 C18.1,8.8 17.9,8.9 17.8,9 C17,9.8 16.3,10.6 15.6,11.4 C15.5,11.5 15.4,11.7 15.5,11.7 C15.5,11.8 15.7,11.9 15.8,11.9 C16.2,12 16.6,12 17.1,12.1 Z" id="Shape" fill="#000000"></path>
                    <path d="M78.2,29 C80.7,30.6 83.2,32.3 85.7,33.9 C85.6,33.9 85.5,34 85.4,34 C84.9,34 84.3,34 83.8,34 C82.7,34.1 81.8,33.8 80.9,33.2 C79.1,32 77.3,30.9 75.5,29.8 C74.1,28.9 72.8,27.9 71.6,26.7 C70.6,25.7 70.1,24.4 69.9,23 C69.7,21.8 69.7,20.6 70.1,19.4 C70.6,17.9 71.4,16.6 72.5,15.4 C73.7,14 75,12.7 76.2,11.3 C77.3,10.1 78.3,8.8 79.3,7.5 C79.7,7 80,6.3 80.3,5.8 C80.4,5.6 80.7,5.4 80.9,5.4 C81.9,5.4 83,5.4 84,5.5 C84.3,5.5 84.4,5.7 84.2,5.9 C83.6,6.8 83.1,7.7 82.5,8.6 C82.4,8.7 82.4,8.9 82.2,9.1 C82.4,9.1 82.6,9.1 82.7,9 C84.4,8 86.1,7.1 87.8,6.1 C88.3,5.8 88.8,5.6 89.5,5.7 C90.4,5.8 91.4,5.8 92.3,5.8 C92.4,5.8 92.6,5.8 92.8,5.9 C92.7,6 92.6,6.1 92.4,6.2 C90.3,7.3 88.2,8.4 86.1,9.5 C85.7,9.7 85.5,9.9 85.7,10.4 C86.4,12.1 85.8,13.7 85.2,15.2 C85.1,15.4 84.8,15.5 84.6,15.5 C83.8,15.4 83.1,15.3 82.3,15.2 C81.9,15.2 81.6,15.1 81.1,15.1 C81.2,14.7 81.3,14.4 81.5,14 C81.9,13.1 82.1,12.2 82.1,11.2 C82.1,11.2 82.1,11.1 82.1,11.1 C82,10.7 81.9,10.4 81.8,10 C81.5,10.2 81.3,10.4 81,10.6 C80.1,11.5 79.2,12.4 78.4,13.3 C77.2,14.7 75.9,16.1 75,17.8 C74,19.6 73.8,21.5 74.3,23.6 C74.6,25 75.3,26.1 76.3,27.1 C76.4,27.2 76.5,27.3 76.7,27.4 C76.7,27.2 76.8,27.1 76.7,27 C76.4,25.6 76.7,24.3 77.3,23.1 C77.5,22.7 77.8,22.3 77.9,21.9 C78,21.6 78.2,21.5 78.5,21.5 C79.7,21.4 80.9,21.3 82.1,21.3 C82.5,21.3 82.5,21.4 82.3,21.7 C81.8,22.8 81.2,23.8 80.7,25 C80.4,25.9 80.4,26.8 80.8,27.7 C80.8,27.8 81,27.9 81.1,28 C83.2,28.9 85.2,29.9 87.3,30.8 C89,31.5 90.7,32.2 92.4,33 C92.9,33.2 93.4,33.4 93.9,33.7 C94,33.7 94,33.8 94.1,33.9 C94,33.9 94,34 94,34 C92.8,34 91.6,34.1 90.5,34.1 C90.2,34.1 89.9,34 89.7,33.9 C87.5,32.9 85.2,32 83,31 C81.6,30.4 80.3,29.7 78.9,29.1 C78.8,29 78.6,29 78.4,29 C78.3,28.9 78.2,28.9 78.2,29 Z" id="Shape" fill="#000000"></path>
                    <path d="M48.3,34.9 C48.1,34.9 48,35 47.9,35 C44.3,35.1 40.7,35.1 37,35.3 C36.3,35.3 35.8,34.9 35.2,34.6 C33.3,33.5 31.3,32.4 29.5,31.2 C27.7,30.1 25.9,28.9 24.3,27.5 C22.1,25.6 21.6,23.1 22,20.4 C22.2,18.9 23,17.5 24,16.2 C25.4,14.4 27.1,12.7 28.7,11.1 C30.2,9.6 31.5,8 32.5,6.1 C32.8,5.6 33,5.1 33.1,4.5 C33.2,4.2 33.4,4 33.7,4 C36.8,4.1 39.8,4.2 42.9,4.3 C43.7,4.3 44.6,4.4 45.4,4.4 C45.8,4.4 45.8,4.5 45.7,4.9 C45.3,6 45.3,6 44.2,5.9 C42,5.8 39.7,5.8 37.5,5.7 C37,5.7 36.7,5.8 36.4,6.3 C35.5,8 34.2,9.5 32.9,10.9 C31.3,12.7 29.5,14.4 28,16.3 C26.2,18.5 25.5,21.1 26.2,24 C26.6,25.6 27.5,26.9 28.8,27.8 C30.3,29 32,30 33.6,31.1 C34.3,31.6 35.1,32.1 35.8,32.5 C36,32.6 36.2,32.6 36.5,32.6 C38.7,32.6 40.9,32.5 43.1,32.4 C43.5,32.4 43.9,32.4 44.2,32.4 C44.3,32.4 44.4,32.4 44.5,32.5 C45.7,33.2 46.9,33.9 48,34.6 C48.2,34.7 48.2,34.7 48.3,34.9 Z" id="Shape" fill="#000000"></path>
                    <path d="M62.9,24.9 C62.9,24.8 63,24.7 63,24.6 C63.3,23.1 64.5,22.6 65.8,22.3 C65.9,22.3 66,22.3 66.1,22.3 C66.9,22.2 66.9,22.2 67,23.1 C67.1,24 67.3,24.9 67.8,25.7 C68,26 67.9,26.1 67.6,26.1 C67.1,26.1 66.6,26.1 66.1,26.3 C65.2,26.5 65.1,27 65.6,27.8 C66.2,28.6 67,29.1 67.8,29.7 C69.5,30.9 71.3,32 73.1,33.2 C73.6,33.5 74.1,33.8 74.6,34.1 C74.7,34.1 74.7,34.2 74.8,34.3 C74.4,34.3 74.1,34.3 73.8,34.3 C73.1,34.3 72.3,34.3 71.6,34.3 C71.3,34.3 71,34.2 70.8,34.1 C68.1,32.4 65.4,30.6 62.7,28.8 C61.5,28 60.3,27 59.5,25.7 C59.1,25 58.8,24.2 58.6,23.4 C58.5,23.1 58.7,22.9 59,22.9 C59.9,22.9 60.8,22.8 61.7,22.8 C62,22.8 62.2,22.9 62.3,23.2 C62.4,23.8 62.6,24.4 62.8,24.9 C62.7,24.9 62.8,24.9 62.9,24.9 Z" id="Shape" fill="#000000"></path>
                    <path d="M73.7,10.7 C73.6,10.9 73.5,11.1 73.4,11.2 C72.8,11.8 72.2,12.4 71.6,13.1 C71.2,13.6 70.7,13.7 70.1,13.5 C69.5,13.3 68.9,13.1 68.7,12.4 C68.7,12.2 68.7,12 68.7,11.8 C68.7,11.7 68.7,11.5 68.6,11.5 C68.5,11.5 68.4,11.5 68.3,11.6 C68,11.9 67.7,12.1 67.4,12.5 C67.1,12.9 66.6,13.1 66.1,13 C65.5,12.9 64.9,12.9 64.3,12.9 C64.1,12.9 63.9,12.8 63.8,12.7 C63.9,12.5 64,12.3 64.1,12.2 C65.2,11.1 66.3,10 67.3,8.8 C68.1,7.8 68.7,6.6 69.3,5.5 C69.5,5.2 69.7,5 70,5 C71,5.1 71.9,5.1 72.9,5.1 C73.4,5.1 73.4,5.2 73.2,5.6 C72.5,6.7 71.8,7.8 71.2,8.9 C70.9,9.5 70.8,10 71.2,10.2 C71.6,10.4 72.1,10.5 72.6,10.6 C72.8,10.7 73.1,10.7 73.7,10.7 Z" id="Shape" fill="#000000"></path>
                    <path d="M56.3,5.9 C57.2,5.9 58,6 58.8,6.4 C59.6,6.8 59.9,7.7 59.4,8.6 C58.8,9.7 57.9,10.6 57,11.3 C55.7,12.3 54.4,13.2 53,14.2 C51.6,15.2 50.1,16.1 48.7,17.1 C47.8,17.7 47.7,18.2 48.2,19.2 C49,20.8 49.9,22.5 50.7,24.1 C51.5,25.8 52.8,27.2 54.2,28.4 C55.1,29.1 55.9,29.9 56.8,30.7 C57,30.9 57.2,31.2 57.4,31.5 C57.6,32 57.4,32.4 56.9,32.5 C56.1,32.6 55.4,32.7 54.6,32.6 C51.6,32.3 48.9,31.2 46.3,29.6 C45.2,28.9 44.1,28.2 43.1,27.4 C41.9,26.4 41.1,25.1 41.4,23.4 C41.5,22.6 41.8,21.9 42.3,21.3 C43,20.3 44,19.5 45,18.8 C45.9,18.2 46.2,17.4 46.1,16.3 C45.9,14.8 46.4,13.4 47.1,12.1 C48,10.3 49.3,8.8 50.8,7.6 C52.2,6.5 53.8,6.1 55.5,6 C55.9,5.9 56.1,5.9 56.3,5.9 Z" id="Shape" fill="#FFFFFF"></path>
                    <path d="M11.8,22.1 C12.7,22.1 13.5,22.3 14.2,22.9 C14.6,23.2 14.8,23.7 15,24.1 C15.3,24.7 15.5,25.3 15.7,25.9 C16,26.7 15.6,27.2 14.8,27.3 C13.9,27.4 13,27.4 12.1,27.4 C11.9,27.4 11.6,27.3 11.5,27.1 C10.4,26 9.6,24.7 9.4,23.2 C9.3,22.2 9.2,22.2 10.2,22.2 C10.7,22.3 11.2,22.2 11.8,22.1 Z" id="Shape" fill="#FFFFFF"></path>
                    <path d="M17.1,12.1 C16.6,12.1 16.2,12.1 15.7,12 C15.6,12 15.4,11.9 15.4,11.8 C15.4,11.7 15.5,11.5 15.5,11.5 C16.2,10.7 17,9.9 17.7,9.1 C17.8,9 18,8.9 18.2,8.9 C19.3,8.9 20.5,9 21.6,9.1 C21.9,9.1 22.3,9.4 22.3,9.6 C22.4,9.8 22.1,10.2 21.9,10.5 C20.7,11.8 19,12.2 17.1,12.1 Z" id="Shape" fill="#FFFFFF"></path>
                </g>
            </g>
        </g>
    </g>
</svg>