<?xml version="1.0" encoding="UTF-8"?>
<svg width="109px" height="99px" viewBox="0 0 109 99" version="1.1" xmlns="http://www.w3.org/2000/svg" xmlns:xlink="http://www.w3.org/1999/xlink">
    <!-- Generator: Sketch 49.3 (51167) - http://www.bohemiancoding.com/sketch -->
    <title>yFtLwB_1_</title>
    <desc>Created with Sketch.</desc>
    <defs></defs>
    <g id="Page-1" stroke="none" stroke-width="1" fill="none" fill-rule="evenodd">
        <g id="plork-logos" transform="translate(-960.000000, -100.000000)" fill-rule="nonzero">
            <g id="yFtLwB_1_" transform="translate(960.000000, 100.000000)">
                <g id="Group">
                    <path d="M108.4,98.7 C72.4,98.7 36.3,98.7 0.3,98.7 C0.3,66.1 0.3,33.5 0.3,0.9 C36.3,0.9 72.4,0.9 108.4,0.9 C108.4,33.5 108.4,66.1 108.4,98.7 Z M20.8,25.1 C21,25 21.1,25 21.2,25 C22.1,25.1 22.9,25.1 23.8,25.2 C24.2,25.2 24.4,25.1 24.3,24.8 C24.1,24 24,23.2 23.8,22.5 C23.4,21.3 22.8,20.2 22.4,19 C22,18.1 21.6,17.2 21.4,16.3 C21,14.8 20.8,13.3 20.5,11.9 C20.3,10.7 19.8,9.6 18.9,8.8 C17.7,7.8 16.2,7.3 14.7,7.3 C12.3,7.2 9.8,7.2 7.4,7.2 C7.1,7.2 7,7.3 7,7.6 C7,8.7 7,9.9 7,11 C7,12 7,13 7.3,13.9 C7.7,15.5 8.5,16.9 9.5,18.2 C10.9,20 12.5,21.6 14.1,23.1 C14.8,23.7 15.6,24.3 16.3,24.8 C17.4,25.7 18.6,26.6 19.8,27.4 C21.8,28.8 23.8,30 25.8,31.4 C28.2,33.1 30.6,34.9 32.7,37 C34.4,38.7 35.7,40.6 35.9,43 C36,44.3 35.9,45.6 35.4,46.8 C34.7,48.7 33.7,50.5 32.5,52.2 C31.3,53.9 30.2,55.7 29,57.4 C27.4,59.7 25.4,61.6 23.5,63.6 C21.8,65.3 20.2,67 18.6,68.8 C17.2,70.4 15.9,72 14.7,73.7 C12.9,76.1 11.4,78.6 10,81.3 C9.4,82.5 8.9,83.7 8.5,84.9 C8.1,85.9 7.8,87 7.6,88.1 C7.2,90 6.8,91.8 6.4,93.7 C6.3,94.1 6.4,94.2 6.9,94.2 C7.9,94.1 8.9,94.1 9.9,94.1 C10.2,94.1 10.4,93.9 10.4,93.6 C10.6,92.4 10.8,91.2 11.1,90.1 C11.6,88.3 12.1,86.4 12.6,84.6 C12.7,84.3 12.9,84.1 13.3,84.1 C14.2,84.1 15,84.1 15.9,84 C17.2,84 18.5,83.6 19.6,83 C21.5,82 23,80.6 24.3,78.9 C26,76.7 27.8,74.4 29.4,72.2 C31.2,69.7 33.2,67.3 35.3,65.1 C37.1,63.2 38.9,61.4 40.7,59.5 C42.3,57.8 43.8,55.9 44.6,53.7 C45.1,52.3 45.3,50.9 45.1,49.5 C45,48.7 45.2,48 45.2,47.2 C45.2,46.8 45.3,46.5 45.3,46.1 C45.3,45.1 45.1,44 45.2,43 C45.3,41.3 45,39.7 43.8,38.4 C43.1,37.6 42.4,36.9 41.7,36.2 C40.8,35.2 39.7,34.2 38.5,33.6 C38,33.3 37.4,33 36.9,32.7 C35.9,32.2 34.9,31.8 33.9,31.3 C33.1,30.9 32.3,30.4 31.5,30 C31.1,29.8 30.6,29.6 30.2,29.6 C29.4,29.6 28.6,29.7 27.7,29.7 C27.6,29.7 27.4,29.7 27.3,29.6 C26.6,29.2 26,28.8 25.3,28.4 C23.9,27.5 22.6,26.5 21.2,25.6 C21.1,25.4 21,25.3 20.8,25.1 Z M46.3,6.7 C45.8,6.7 45.2,6.7 44.7,6.8 C42.4,7 40.5,7.9 39.1,9.7 C38.4,10.5 37.9,11.5 37.7,12.6 C37.4,14.3 38,15.8 38.8,17.1 C39.9,18.9 41.3,20.5 42.9,21.9 C44.7,23.4 46.5,24.8 48.3,26.2 C49.9,27.4 51.5,28.4 53.1,29.5 C54.6,30.6 56.1,31.6 57.6,32.8 C59.2,34.1 60.9,35.4 62.4,36.8 C64,38.3 65.2,40 65.6,42.3 C65.8,43.8 65.8,45.2 65.3,46.7 C64.7,48.5 63.6,50.1 62.7,51.8 C61.8,53.3 60.9,54.9 60,56.4 C59.2,57.8 58.5,59.2 57.7,60.5 C56.6,62.2 55.1,63.5 53.7,64.9 C51.9,66.6 50.1,68.3 48.4,70.1 C46.9,71.6 45.6,73.3 44.2,74.9 C42.3,77.2 40.7,79.8 39.6,82.6 C38.8,84.6 38.4,86.6 38.7,88.8 C38.9,90.1 39.4,91.3 40.5,92.3 C41.7,93.4 43.3,93.9 44.9,93.9 C46.8,94 48.7,93.6 50.4,92.6 C51.4,92 52.3,91.2 53.1,90.3 C54.3,88.9 55.2,87.3 56.1,85.7 C57.5,83 58.9,80.3 60.3,77.6 C61.7,74.9 63.4,72.3 65,69.8 C66.3,67.9 67.8,66.2 69.3,64.5 C70,63.8 70.7,63.1 71.4,62.4 C72.3,61.5 73.2,60.7 74.1,59.8 C76,58 77.7,56.1 79.2,54 C80.1,52.8 80.8,51.5 81.5,50.2 C82.5,48.4 83.4,46.6 83.4,44.5 C83.4,42.7 83.1,41 82.2,39.5 C80.9,37.4 79.1,35.7 77.2,34.2 C75.9,33.2 74.6,32.2 73.2,31.3 C71.3,30 69.4,28.7 67.5,27.3 C66,26.2 64.5,25 63,23.8 C62.1,23 61.2,22.2 60.4,21.3 C59.3,20.1 58.2,18.8 57.2,17.5 C55.9,15.8 55.1,13.8 54.3,11.9 C53.8,10.6 53,9.5 51.9,8.7 C50.3,7.2 48.4,6.7 46.3,6.7 Z M69.4,7.2 C69.4,7.3 69.4,7.4 69.4,7.5 C69.4,8.9 69.4,10.3 69.4,11.7 C69.4,13.6 69.9,15.3 71,16.8 C71.8,18 72.7,19.2 73.7,20.3 C74.9,21.6 76.1,22.8 77.4,23.9 C79.6,25.7 82,27.4 84.3,29.1 C85.9,30.3 87.5,31.4 89.1,32.6 C90.2,33.4 91.3,34.3 92.3,35.2 C93.4,36.2 94.4,37.2 95.3,38.2 C96.5,39.5 97.2,41.1 97.4,42.9 C97.7,45.4 97,47.6 95.9,49.8 C95.3,50.9 94.7,52 94,53.1 C92.8,55 91.6,57 90.2,58.8 C88.7,60.7 87,62.4 85.3,64.2 C83.1,66.5 80.8,68.8 79,71.4 C77.5,73.4 76,75.4 74.7,77.5 C73.7,79.1 72.8,80.8 72,82.6 C71.3,84.3 70.7,86.1 70.2,87.9 C69.8,89.3 69.5,90.8 69.2,92.3 C69.1,92.9 69.1,92.9 69.7,92.9 C70.6,92.9 71.5,92.8 72.4,92.8 C72.9,92.8 73,92.6 73.1,92.2 C73.2,91.5 73.3,90.8 73.5,90.2 C74,88.3 74.5,86.5 75.1,84.6 C75.2,84.4 75.3,84.2 75.3,84.1 C75.5,84.2 75.5,84.3 75.5,84.5 C75.7,85.9 75.7,87.3 76,88.6 C76.2,89.9 76.6,91.1 76.9,92.4 C76.9,92.5 77.2,92.7 77.3,92.7 C78.6,92.7 79.8,92.7 81.1,92.6 C81.4,92.6 81.5,92.4 81.4,92.1 C81.1,91.1 80.7,90.2 80.4,89.2 C79.9,87.4 79.6,85.5 79.4,83.6 C79.4,83.2 79.5,82.8 79.8,82.5 C80.8,81.5 81.7,80.6 82.7,79.6 C84.9,77.4 87.2,75.3 89.5,73.1 C89.6,73 89.6,72.9 89.7,72.8 C89.5,72.8 89.5,72.7 89.4,72.7 C88.3,72.7 87.2,72.7 86.2,72.7 C85.9,72.7 85.6,72.8 85.4,73 C85.1,73.2 84.9,73.5 84.6,73.7 C83.3,75 82,76.2 80.8,77.5 C79.6,78.7 78.5,79.9 77.3,81.2 C77,81.5 76.6,81.8 76.3,82.2 C76.3,82.2 76.2,82.2 76.2,82.1 C76.3,81.9 76.3,81.7 76.4,81.6 C77.1,80.3 77.8,79 78.5,77.7 C79.9,75.1 81.7,72.8 83.5,70.5 C84.6,69.1 85.8,67.9 87,66.6 C88.1,65.4 89.2,64.2 90.3,63.1 C91.4,61.9 92.6,60.8 93.6,59.5 C95,57.7 96.3,55.7 97.6,53.8 C98.7,52.1 99.8,50.3 100.5,48.4 C100.5,48.3 100.6,48.3 100.7,48.2 C100.8,48.4 100.8,48.5 100.8,48.6 C100.7,49 100.7,49.3 100.6,49.7 C100.1,52.2 99.6,54.8 99,57.3 C98.9,57.6 99,57.8 99.4,57.8 C100.3,57.8 101.3,57.8 102.2,57.8 C103.3,57.8 103.2,57.7 103.4,56.7 C103.4,56.6 103.4,56.6 103.4,56.5 C103.8,54 104.1,51.6 104.5,49.1 C104.8,47.5 105.2,45.8 105.2,44.2 C105.2,42.2 104.8,40.4 103.6,38.8 C103.3,38.4 103,38 102.6,37.6 C101.7,36.7 100.9,35.8 100,35 C98.8,34 97.5,33 96.2,32.1 C94.3,30.7 92.4,29.3 90.5,27.9 C88.9,26.7 87.3,25.6 85.8,24.2 C84.2,22.8 82.9,21.1 81.9,19.1 C81,17.2 80.7,15.3 81.6,13.3 C81.8,12.9 81.7,12.8 81.3,12.8 C80.2,12.8 79,12.8 77.9,12.8 C77.6,12.8 77.5,12.9 77.3,13.1 C76.8,14.2 76.7,15.3 76.9,16.5 C77.2,18.2 78.1,19.6 79.1,21 C79.4,21.4 79.6,21.7 79.9,22.1 C79.9,22.1 79.8,22.2 79.8,22.2 C79.2,21.6 78.5,21 77.9,20.3 C76.9,19.2 76,18 75.2,16.7 C74.4,15.5 73.8,14.2 73.7,12.8 C73.6,11.7 73.6,10.7 73.6,9.6 C73.6,8.9 73.6,8.2 73.6,7.5 C73.6,7.3 73.5,7.1 73.3,7.1 C71.7,7.2 70.6,7.2 69.4,7.2 Z M27,9.8 C27,9.8 27.1,9.8 27,9.8 C27.1,9 27,8.3 27.1,7.5 C27.1,7.2 27,7.1 26.7,7.1 C25.6,7.1 24.6,7.1 23.5,7.1 C23.2,7.1 23.1,7.2 23.1,7.5 C23.1,8.7 23.1,9.9 23.1,11 C23,13 23.5,14.9 24.6,16.6 C25.8,18.5 27.3,20.2 28.9,21.8 C30.7,23.6 32.8,25.2 35,26.7 C37.4,28.3 39.8,29.9 42.2,31.5 C44.2,32.9 46.2,34.4 48,36.1 C49.6,37.6 51,39.1 51.7,41.2 C52.2,42.8 52.2,44.3 51.9,45.9 C51.6,47.3 50.9,48.5 50.2,49.7 C49.6,50.8 48.9,51.9 48.2,52.9 C46.8,54.9 45.5,57 44,58.9 C42.8,60.5 41.3,61.9 39.9,63.4 C37.3,66.1 34.7,68.7 32.5,71.7 C31.2,73.4 29.9,75.2 28.8,77 C27.7,78.8 26.7,80.7 25.8,82.6 C25.1,84.2 24.5,85.9 24.1,87.6 C23.6,89.5 23.2,91.4 22.8,93.4 C22.7,93.7 22.8,93.9 23.2,93.9 C24.1,93.9 25.1,93.8 26,93.8 C28.9,93.7 31.8,93.7 34.7,93.6 C35.1,93.6 35.3,93.4 35.3,93.1 C35.5,92.2 35.6,91.3 35.8,90.4 C35.9,89.9 35.8,89.8 35.3,89.8 C32.9,89.9 30.5,89.9 28.1,90 C27.6,90 27.5,89.9 27.6,89.4 C28.2,87.4 28.8,85.3 29.5,83.3 C30.7,80.3 32.3,77.6 34.1,75 C35.8,72.6 37.5,70.2 39.5,68.1 C41.6,65.9 43.7,63.7 45.8,61.5 C47,60.2 48.2,58.8 49.2,57.4 C50.9,54.9 52.5,52.3 54.1,49.7 C54.9,48.4 55.5,47 55.8,45.5 C56.2,43.4 55.8,41.5 54.8,39.7 C54,38.2 52.8,37 51.5,35.9 C49.7,34.4 47.9,33 46,31.6 C44.2,30.3 42.2,29.1 40.4,27.8 C38.3,26.4 36.3,24.9 34.4,23.3 C32.3,21.4 30.3,19.4 28.8,17 C28.1,15.8 27.5,14.6 27.4,13.2 C27.1,11.9 27.1,10.9 27,9.8 Z M85.7,54.2 C85.8,54.2 85.8,54.2 85.9,54.3 C85.9,54.5 85.9,54.8 85.8,55 C85.6,56.7 86.1,57.4 87.6,57.5 C87.9,57.5 88.2,57.4 88.3,57.1 C89,56.1 89.7,55 90.3,54 C90.6,53.5 90.9,53.1 91.2,52.6 C91.4,52.3 91.3,52.1 90.9,52.1 C90.6,52.1 90.4,52.1 90.1,52.1 C89.4,52.1 89,51.7 89,51.1 C89,50.6 89,50.1 89.2,49.6 C89.5,48.5 90,47.4 90.3,46.3 C90.8,44.1 90.7,41.8 89.5,39.8 C89,38.9 88.3,38.1 87.7,37.4 C86.3,35.8 84.7,34.5 83.1,33.3 C81.7,32.3 80.3,31.3 79,30.3 C76.9,28.8 74.7,27.3 72.6,25.8 C70.7,24.4 69,22.9 67.6,21.1 C67.1,20.5 66.7,19.9 66.7,19 C66.7,18.4 67,18.1 67.6,18.1 C67.9,18.1 68.3,18.1 68.7,18.1 C68.6,17.9 68.6,17.8 68.5,17.6 C67.6,16.3 66.9,14.9 66.6,13.3 C66.5,13 66.4,12.9 66.1,12.9 C65.7,12.9 65.2,13 64.8,13.1 C63.7,13.4 63,14.1 63.1,15.3 C63.1,15.4 63.1,15.5 63.1,15.6 C63.1,15.6 63,15.6 63,15.6 C63,15.5 62.9,15.5 62.9,15.4 C62.6,14.7 62.3,14.1 62.1,13.4 C62,13.1 61.8,13 61.5,13 C60.7,13 59.9,13 59.1,13 C58.5,13 58.4,13.1 58.6,13.7 C59.1,15.4 60,16.8 61.1,18.2 C62.5,20.1 64.3,21.8 66.1,23.4 C67.9,24.9 69.8,26.2 71.7,27.6 C73.8,29.2 76,30.6 78.1,32.2 C79.8,33.5 81.4,34.8 82.9,36.2 C83.8,37 84.6,37.9 85.3,38.9 C87,41.5 87.2,44.2 86.2,47.1 C85.1,50.2 83.3,52.8 81.4,55.5 C81.1,55.9 80.8,56.3 80.5,56.8 C80.7,56.9 80.8,56.9 80.9,56.9 C81.8,56.9 82.6,56.9 83.5,56.9 C83.7,56.9 83.9,56.8 84,56.7 C84.3,56.3 84.6,55.8 84.9,55.4 C85.1,55 85.4,54.6 85.7,54.2 Z M58,92.9 C59.2,92.9 60.4,92.9 61.5,92.9 C61.6,92.9 61.9,92.7 61.9,92.5 C62.3,90.9 62.6,89.3 63,87.7 C63.4,85.7 64.1,83.8 65.2,82.1 C66.2,80.5 67.6,79.4 69.6,79.5 C70.2,79.5 70.5,79.3 70.8,78.8 C71.6,77.5 72.4,76.2 73.2,74.9 C73.6,74.3 74,73.7 74.4,73.2 C74.5,73.1 74.5,73 74.5,72.8 C74.4,72.8 74.3,72.7 74.1,72.7 C73.8,72.7 73.5,72.8 73.2,72.9 C71.2,73.5 69.7,74.8 68.3,76.3 C68,76.6 67.7,77 67.3,77.4 C67.2,77.4 67.2,77.3 67.1,77.3 C67.2,77 67.4,76.7 67.5,76.5 C68.1,75.6 68.7,74.7 69.3,73.8 C69.5,73.5 69.5,73.3 69.2,73.3 C68.4,73.3 67.6,73.3 66.9,73.3 C66.5,73.3 66.1,73.5 65.8,73.8 C65.6,74.1 65.4,74.4 65.2,74.7 C64.2,76.4 63.2,78 62.3,79.7 C61.1,81.8 60.2,84 59.5,86.3 C59,88 58.6,89.8 58.2,91.6 C58.1,91.9 58.1,92.4 58,92.9 Z M26.4,27 C26.4,26.9 26.5,26.9 26.5,26.8 C25.8,26.3 25,25.8 24.3,25.3 C24.2,25.8 24.2,25.8 24.5,26 C25,26.3 25.5,26.6 26,26.8 C26.1,26.9 26.2,27 26.4,27 Z" id="Shape" fill="#FFFFFF"></path>
                    <path d="M20.8,25.1 C21,25.3 21.1,25.5 21.3,25.6 C22.7,26.5 24,27.5 25.4,28.4 C26,28.8 26.7,29.2 27.4,29.6 C27.5,29.7 27.7,29.7 27.8,29.7 C28.6,29.7 29.4,29.6 30.3,29.6 C30.7,29.6 31.2,29.8 31.6,30 C32.4,30.4 33.2,30.9 34,31.3 C35,31.8 36,32.2 37,32.7 C37.6,33 38.1,33.3 38.6,33.6 C39.8,34.3 40.8,35.2 41.8,36.2 C42.5,36.9 43.3,37.6 43.9,38.4 C45,39.7 45.4,41.3 45.3,43 C45.2,44 45.4,45 45.4,46.1 C45.4,46.5 45.4,46.8 45.3,47.2 C45.3,48 45.1,48.8 45.2,49.5 C45.3,51 45.2,52.3 44.7,53.7 C43.9,56 42.4,57.8 40.8,59.5 C39,61.4 37.1,63.2 35.4,65.1 C33.3,67.4 31.4,69.7 29.5,72.2 C27.8,74.5 26.1,76.7 24.4,78.9 C23.1,80.6 21.6,82 19.7,83 C18.5,83.6 17.3,84 16,84 C15.1,84 14.3,84.1 13.4,84.1 C13,84.1 12.8,84.3 12.7,84.6 C12.2,86.4 11.7,88.3 11.2,90.1 C10.9,91.3 10.7,92.5 10.5,93.6 C10.4,93.9 10.3,94.1 10,94.1 C9,94.1 8,94.1 7,94.2 C6.6,94.2 6.5,94 6.5,93.7 C6.9,91.8 7.3,90 7.7,88.1 C8,87 8.2,86 8.6,84.9 C9,83.7 9.6,82.5 10.1,81.3 C11.4,78.6 13,76.1 14.8,73.7 C16.1,72 17.3,70.4 18.7,68.8 C20.3,67 21.9,65.3 23.6,63.6 C25.6,61.6 27.5,59.6 29.1,57.4 C30.3,55.7 31.4,53.9 32.6,52.2 C33.7,50.5 34.7,48.7 35.5,46.8 C36,45.6 36.1,44.3 36,43 C35.8,40.5 34.5,38.6 32.8,37 C30.7,34.9 28.3,33.1 25.9,31.4 C23.9,30 21.9,28.8 19.9,27.4 C18.7,26.6 17.6,25.7 16.4,24.8 C15.7,24.2 14.9,23.7 14.2,23.1 C12.5,21.6 10.9,20 9.6,18.2 C8.6,16.9 7.7,15.5 7.4,13.9 C7.2,12.9 7.2,11.9 7.1,11 C7.1,9.9 7.1,8.7 7.1,7.6 C7.1,7.3 7.2,7.2 7.5,7.2 C9.9,7.2 12.4,7.2 14.8,7.3 C16.3,7.4 17.8,7.8 19,8.8 C19.9,9.6 20.4,10.7 20.6,11.9 C20.8,13.4 21.1,14.9 21.5,16.3 C21.7,17.2 22.1,18.1 22.5,19 C23,20.2 23.5,21.3 23.9,22.5 C24.2,23.2 24.3,24 24.4,24.8 C24.5,25.2 24.3,25.3 23.9,25.2 C23,25.1 22.2,25 21.3,25 C21.1,25 21,25 20.8,25.1 Z M17.1,78.8 C18.3,78.9 19.5,78.5 20.3,77.7 C21.3,76.7 22.3,75.7 23.2,74.6 C24.8,72.5 26.4,70.3 27.9,68.2 C28.8,67 29.5,65.7 30.4,64.4 C30.8,63.8 31.1,63.2 31.6,62.8 C32.2,62.2 32.9,61.7 33.6,61.2 C35.4,60 37.2,58.8 38.5,57 C39,56.3 39.4,55.6 39.7,54.9 C40.1,54 39.7,53.4 38.7,53.3 C37.8,53.2 36.9,53.2 36,53.3 C35.9,53.3 35.8,53.4 35.7,53.5 C35.4,53.8 35.2,54.2 34.9,54.6 C33.8,56.1 32.8,57.6 31.7,59.1 C31,60 30.2,60.9 29.5,61.7 C29.2,62.1 28.9,62.6 28.5,62.9 C27.3,63.9 26.1,65 25.1,66.1 C23,68.3 21.1,70.5 19.3,72.9 C18,74.7 16.8,76.5 15.6,78.4 C15.4,78.7 15.4,78.8 15.8,78.9 C16.2,78.8 16.7,78.8 17.1,78.8 Z M12.7,10.1 C12.7,10.1 12.6,10.2 12.7,10.1 C12.2,10.1 11.8,10.1 11.3,10.1 C11,10.1 10.9,10.2 10.9,10.6 C10.9,11.1 10.9,11.6 10.9,12.1 C11,13.7 11.5,15.1 12.3,16.4 C12.4,16.5 12.5,16.6 12.6,16.6 C13.5,16.6 14.5,16.6 15.4,16.6 C15.9,16.6 16.4,16.1 16.4,15.6 C16.4,14.4 16.3,13.2 16.1,12 C15.9,11 15.2,10.4 14.2,10.3 C13.7,10.1 13.1,10.2 12.7,10.1 Z" id="Shape" fill="#000000"></path>
                    <path d="M46.3,6.7 C48.4,6.7 50.3,7.3 51.9,8.6 C53,9.5 53.8,10.6 54.3,11.8 C55.1,13.7 55.9,15.7 57.2,17.4 C58.2,18.7 59.3,20 60.4,21.2 C61.2,22.1 62.1,22.9 63,23.7 C64.5,24.9 66,26.1 67.5,27.2 C69.4,28.6 71.3,29.9 73.2,31.2 C74.5,32.2 75.9,33.1 77.2,34.1 C79.1,35.6 80.9,37.2 82.2,39.4 C83.1,40.9 83.4,42.6 83.4,44.4 C83.3,46.5 82.5,48.4 81.5,50.1 C80.8,51.4 80,52.7 79.2,53.9 C77.7,56 76,57.9 74.1,59.7 C73.2,60.5 72.3,61.4 71.4,62.3 C70.7,63 69.9,63.7 69.3,64.4 C67.8,66.1 66.3,67.8 65,69.7 C63.3,72.2 61.7,74.8 60.3,77.5 C58.9,80.2 57.5,82.9 56.1,85.6 C55.3,87.2 54.4,88.8 53.1,90.2 C52.3,91.1 51.4,91.8 50.4,92.5 C48.7,93.5 46.9,93.8 44.9,93.8 C43.3,93.7 41.7,93.3 40.5,92.2 C39.5,91.3 38.9,90.1 38.7,88.7 C38.4,86.6 38.8,84.5 39.6,82.5 C40.7,79.7 42.3,77.2 44.2,74.8 C45.5,73.1 46.9,71.5 48.4,70 C50.1,68.2 51.9,66.5 53.7,64.8 C55.1,63.4 56.6,62.1 57.7,60.4 C58.6,59.1 59.3,57.7 60,56.3 C60.9,54.8 61.8,53.2 62.7,51.7 C63.7,50.1 64.7,48.4 65.3,46.6 C65.8,45.2 65.8,43.7 65.6,42.2 C65.3,39.9 64,38.2 62.4,36.7 C60.9,35.3 59.3,34 57.6,32.7 C56.1,31.6 54.6,30.5 53.1,29.4 C51.5,28.3 49.8,27.3 48.3,26.1 C46.4,24.7 44.6,23.3 42.9,21.8 C41.3,20.4 39.9,18.8 38.8,17 C37.9,15.6 37.3,14.2 37.7,12.5 C37.9,11.4 38.4,10.5 39.1,9.6 C40.5,7.8 42.5,6.9 44.7,6.7 C45.2,6.7 45.8,6.7 46.3,6.7 Z M43,86.7 C43,87.1 43.1,87.6 43.2,88 C43.4,89.1 44.3,90 45.5,90.1 C47.6,90.3 49.2,89.4 50.5,87.8 C51.6,86.4 52.3,84.7 53.1,83.1 C54,81.3 54.9,79.4 55.9,77.6 C56.9,75.7 58,73.9 59.1,72.1 C60.4,70 61.7,67.9 63.3,65.9 C64.4,64.5 65.7,63.2 67,62 C68.1,61 69.3,60 70.4,59 C72,57.6 73.4,56 74.6,54.3 C75.6,52.8 76.7,51.4 77.5,49.7 C78.2,48.2 78.9,46.7 79.1,44.9 C79.3,42.9 78.9,41 77.9,39.2 C76.7,37.3 75,35.8 73.3,34.4 C71,32.6 68.6,30.9 66.2,29.2 C64.7,28.1 63.2,27.1 61.7,26 C60.7,25.3 59.6,24.5 58.7,23.7 C57.2,22.3 55.8,20.9 54.5,19.4 C53.5,18.3 52.6,17.1 51.9,15.7 C51.4,14.6 50.9,13.5 50.3,12.4 C49.9,11.7 49.6,11 48.9,10.5 C47.5,9.5 46.1,9.4 44.5,9.9 C42.7,10.4 41.8,12.1 41.9,13.8 C42,15 42.5,16.1 43.1,17.1 C44.4,19.2 46.2,21 48,22.7 C50,24.5 52.3,26.1 54.5,27.6 C57.3,29.5 60.1,31.5 62.8,33.5 C64.4,34.7 65.9,36 67.2,37.5 C68.7,39.1 69.6,41 69.8,43.2 C70,45 69.5,46.6 68.7,48.2 C68,49.5 67.3,50.7 66.6,51.9 C65.8,53.3 65,54.7 64.2,56.2 C63.6,57.4 63.1,58.6 62.4,59.8 C61.4,61.6 60,63.2 58.5,64.6 C57.1,65.9 55.6,67.1 54.3,68.4 C52.8,69.9 51.3,71.5 49.9,73.1 C49,74.1 48.1,75.2 47.3,76.3 C46.2,77.9 45.3,79.5 44.4,81.2 C43.6,82.8 43.1,84.6 43,86.7 Z" id="Shape" fill="#000000"></path>
                    <path d="M69.4,7.2 C70.6,7.2 71.7,7.2 72.9,7.2 C73.2,7.2 73.2,7.4 73.2,7.6 C73.2,8.3 73.2,9 73.2,9.7 C73.2,10.8 73.2,11.9 73.3,12.9 C73.5,14.3 74,15.7 74.8,16.8 C75.7,18 76.6,19.2 77.5,20.4 C78.1,21.1 78.8,21.7 79.4,22.3 C79.4,22.3 79.5,22.2 79.5,22.2 C79.2,21.8 79,21.5 78.7,21.1 C77.7,19.7 76.8,18.3 76.5,16.6 C76.3,15.4 76.4,14.3 76.9,13.2 C77,12.9 77.2,12.9 77.5,12.9 C78.6,12.9 79.8,12.9 80.9,12.9 C81.3,12.9 81.4,13 81.2,13.4 C80.3,15.4 80.6,17.3 81.5,19.2 C82.5,21.2 83.8,22.8 85.4,24.3 C86.9,25.6 88.5,26.8 90.1,28 C92,29.4 93.9,30.8 95.8,32.2 C97.1,33.2 98.4,34.1 99.6,35.1 C100.5,35.9 101.4,36.8 102.2,37.7 C102.6,38.1 102.9,38.5 103.2,38.9 C104.4,40.5 104.8,42.4 104.8,44.3 C104.8,46 104.3,47.6 104.1,49.2 C103.7,51.7 103.3,54.1 103,56.6 C103,56.7 103,56.7 103,56.8 C102.7,57.8 102.8,57.9 101.8,57.9 C100.9,57.9 99.9,57.9 99,57.9 C98.7,57.9 98.6,57.7 98.6,57.4 C99.1,54.9 99.7,52.3 100.2,49.8 C100.3,49.4 100.3,49.1 100.4,48.7 C100.4,48.6 100.4,48.4 100.3,48.3 C100.2,48.4 100.2,48.4 100.1,48.5 C99.4,50.4 98.3,52.2 97.2,53.9 C95.9,55.8 94.6,57.8 93.2,59.6 C92.2,60.9 91,62 89.9,63.2 C88.8,64.4 87.7,65.5 86.6,66.7 C85.4,68 84.2,69.3 83.1,70.6 C81.3,72.9 79.5,75.2 78.1,77.8 C77.4,79.1 76.7,80.4 76,81.7 C75.9,81.9 75.9,82 75.8,82.2 C75.8,82.2 75.9,82.2 75.9,82.3 C76.2,82 76.6,81.7 76.9,81.3 C78.1,80.1 79.2,78.9 80.4,77.6 C81.7,76.3 82.9,75 84.2,73.8 C84.5,73.5 84.7,73.3 85,73.1 C85.2,72.9 85.6,72.8 85.8,72.8 C86.9,72.8 87.9,72.8 89,72.8 C89.1,72.8 89.2,72.8 89.3,72.9 C89.2,73 89.2,73.1 89.1,73.2 C86.8,75.4 84.6,77.5 82.3,79.7 C81.3,80.6 80.4,81.6 79.4,82.6 C79.1,82.9 79,83.2 79,83.7 C79.2,85.6 79.5,87.4 80,89.3 C80.3,90.3 80.6,91.2 81,92.2 C81.1,92.5 81.1,92.7 80.7,92.7 C79.4,92.7 78.2,92.8 76.9,92.8 C76.8,92.8 76.5,92.6 76.5,92.5 C76.2,91.2 75.8,90 75.6,88.7 C75.4,87.3 75.3,86 75.1,84.6 C75.1,84.5 75,84.4 74.9,84.2 C74.8,84.4 74.7,84.6 74.7,84.7 C74.2,86.5 73.6,88.4 73.1,90.3 C72.9,91 72.8,91.7 72.7,92.3 C72.6,92.7 72.5,92.9 72,92.9 C71.1,92.9 70.2,92.9 69.3,93 C68.7,93 68.7,93 68.8,92.4 C69.1,90.9 69.4,89.5 69.8,88 C70.3,86.2 70.9,84.4 71.6,82.7 C72.4,80.9 73.3,79.2 74.3,77.6 C75.6,75.5 77.1,73.5 78.6,71.5 C80.5,68.9 82.8,66.6 84.9,64.3 C86.6,62.5 88.3,60.8 89.8,58.9 C91.2,57.1 92.4,55.1 93.6,53.2 C94.3,52.1 94.9,51 95.5,49.9 C96.6,47.7 97.4,45.5 97,43 C96.8,41.2 96.1,39.7 94.9,38.3 C93.9,37.2 92.9,36.2 91.9,35.3 C90.9,34.4 89.8,33.5 88.7,32.7 C87.1,31.5 85.5,30.4 83.9,29.2 C81.6,27.5 79.3,25.8 77,24 C75.7,22.9 74.5,21.6 73.3,20.4 C72.3,19.3 71.4,18.1 70.6,16.9 C69.6,15.4 69,13.7 69,11.8 C69,10.4 69,9 69,7.6 C69.3,7.4 69.3,7.3 69.4,7.2 Z" id="Shape" fill="#000000"></path>
                    <path d="M27,9.8 C27.1,10.9 27.1,11.9 27.2,13 C27.3,14.4 27.9,15.6 28.6,16.8 C30.1,19.2 32.1,21.2 34.2,23.1 C36.1,24.8 38.1,26.2 40.2,27.6 C42.1,28.8 44,30 45.8,31.4 C47.7,32.8 49.5,34.2 51.3,35.7 C52.6,36.8 53.8,38 54.6,39.5 C55.6,41.3 56,43.3 55.6,45.3 C55.3,46.8 54.7,48.2 53.9,49.5 C52.3,52.1 50.7,54.7 49,57.2 C48,58.7 46.8,60 45.6,61.3 C43.5,63.6 41.4,65.7 39.3,67.9 C37.3,70.1 35.5,72.4 33.9,74.8 C32.1,77.4 30.4,80.1 29.3,83.1 C28.5,85.1 28,87.2 27.4,89.2 C27.3,89.7 27.4,89.8 27.9,89.8 C30.3,89.8 32.7,89.7 35.1,89.6 C35.6,89.6 35.7,89.7 35.6,90.2 C35.4,91.1 35.2,92 35.1,92.9 C35,93.3 34.9,93.4 34.5,93.4 C31.6,93.4 28.7,93.5 25.8,93.6 C24.9,93.6 23.9,93.6 23,93.7 C22.7,93.7 22.5,93.6 22.6,93.2 C23,91.3 23.4,89.3 23.9,87.4 C24.4,85.7 24.9,84 25.6,82.4 C26.5,80.5 27.5,78.6 28.6,76.8 C29.7,75 31,73.2 32.3,71.5 C34.5,68.5 37.2,65.9 39.7,63.2 C41.1,61.8 42.5,60.3 43.8,58.7 C45.3,56.8 46.6,54.7 48,52.7 C48.7,51.7 49.4,50.6 50,49.5 C50.7,48.3 51.3,47 51.7,45.7 C52.1,44.1 52,42.6 51.5,41 C50.8,38.9 49.4,37.4 47.8,35.9 C46,34.2 44,32.7 42,31.3 C39.6,29.7 37.2,28.1 34.8,26.5 C32.7,25 30.6,23.5 28.7,21.6 C27.1,20 25.6,18.4 24.4,16.4 C23.3,14.7 22.8,12.8 22.9,10.8 C22.9,9.6 22.9,8.4 22.9,7.3 C22.9,7 23,6.9 23.3,6.9 C24.4,6.9 25.4,6.9 26.5,6.9 C26.8,6.9 26.9,7 26.9,7.3 C27.1,8.2 27.1,9 27,9.8 C27.1,9.8 27,9.8 27,9.8 Z" id="Shape" fill="#000000"></path>
                    <path d="M85.7,54.2 C85.4,54.6 85.1,55 84.9,55.4 C84.6,55.8 84.3,56.3 84,56.7 C83.9,56.8 83.7,56.9 83.5,56.9 C82.6,56.9 81.8,56.9 80.9,56.9 C80.8,56.9 80.7,56.9 80.5,56.8 C80.8,56.3 81.1,55.9 81.4,55.5 C83.3,52.9 85.1,50.2 86.2,47.1 C87.2,44.3 87,41.5 85.3,38.9 C84.6,37.9 83.8,37 82.9,36.2 C81.3,34.8 79.7,33.4 78.1,32.2 C76,30.6 73.8,29.1 71.7,27.6 C69.8,26.2 67.9,24.9 66.1,23.4 C64.3,21.9 62.5,20.2 61.1,18.2 C60.1,16.8 59.1,15.3 58.6,13.7 C58.4,13.1 58.4,13 59.1,13 C59.9,13 60.7,13 61.5,13 C61.8,13 62,13.1 62.1,13.4 C62.3,14.1 62.6,14.7 62.9,15.4 C62.9,15.5 63,15.5 63,15.6 C63,15.6 63.1,15.6 63.1,15.6 C63.1,15.5 63.2,15.4 63.1,15.3 C63,14.1 63.8,13.4 64.8,13.1 C65.2,13 65.7,13 66.1,12.9 C66.4,12.9 66.5,13 66.6,13.3 C66.9,14.9 67.6,16.3 68.5,17.6 C68.6,17.7 68.6,17.8 68.7,18.1 C68.3,18.1 67.9,18.1 67.6,18.1 C67,18.1 66.7,18.4 66.7,19 C66.7,19.8 67.1,20.5 67.6,21.1 C69.1,22.9 70.8,24.4 72.6,25.8 C74.7,27.4 76.9,28.8 79,30.3 C80.4,31.3 81.8,32.3 83.1,33.3 C84.8,34.6 86.4,35.9 87.7,37.4 C88.4,38.2 89,38.9 89.5,39.8 C90.6,41.9 90.7,44.1 90.3,46.3 C90.1,47.4 89.5,48.5 89.2,49.6 C89.1,50.1 89,50.6 89,51.1 C89,51.8 89.5,52.1 90.1,52.1 C90.4,52.1 90.6,52.1 90.9,52.1 C91.3,52.1 91.4,52.3 91.2,52.6 C90.9,53.1 90.6,53.6 90.3,54 C89.6,55 88.9,56.1 88.3,57.1 C88.1,57.4 87.9,57.5 87.6,57.5 C86.1,57.4 85.6,56.6 85.8,55 C85.8,54.8 85.8,54.5 85.9,54.3 C85.8,54.3 85.7,54.2 85.7,54.2 Z" id="Shape" fill="#000000"></path>
                    <path d="M58,92.9 C58.1,92.4 58.1,91.9 58.3,91.4 C58.7,89.6 59.1,87.8 59.6,86.1 C60.3,83.8 61.2,81.6 62.4,79.5 C63.4,77.8 64.3,76.2 65.3,74.5 C65.5,74.2 65.7,73.9 65.9,73.6 C66.2,73.3 66.5,73.1 67,73.1 C67.8,73.1 68.6,73.1 69.3,73.1 C69.6,73.1 69.7,73.2 69.4,73.6 C68.8,74.5 68.2,75.4 67.6,76.3 C67.4,76.6 67.3,76.9 67.2,77.1 C67.3,77.1 67.3,77.2 67.4,77.2 C67.7,76.8 68,76.5 68.4,76.1 C69.8,74.7 71.4,73.4 73.3,72.7 C73.6,72.6 73.9,72.6 74.2,72.5 C74.3,72.5 74.4,72.5 74.6,72.6 C74.6,72.7 74.6,72.9 74.5,73 C74.1,73.6 73.7,74.1 73.3,74.7 C72.5,76 71.6,77.3 70.9,78.6 C70.6,79.1 70.3,79.3 69.7,79.3 C67.7,79.2 66.3,80.3 65.3,81.9 C64.2,83.6 63.6,85.5 63.1,87.5 C62.8,89.1 62.4,90.7 62,92.3 C62,92.5 61.7,92.7 61.6,92.7 C60.4,92.9 59.2,92.9 58,92.9 Z" id="Shape" fill="#000000"></path>
                    <path d="M26.4,27 C26.3,26.9 26.1,26.9 26,26.8 C25.5,26.5 25,26.2 24.5,26 C24.2,25.9 24.2,25.8 24.3,25.3 C25.1,25.8 25.8,26.3 26.5,26.8 C26.4,26.9 26.4,27 26.4,27 Z" id="Shape" fill="#000000"></path>
                    <path d="M17.1,78.8 C16.7,78.8 16.2,78.7 15.8,78.7 C15.4,78.7 15.4,78.5 15.6,78.2 C16.8,76.4 18,74.5 19.3,72.7 C21,70.3 23,68 25.1,65.9 C26.2,64.8 27.3,63.7 28.5,62.7 C28.9,62.4 29.2,61.9 29.5,61.5 C30.2,60.6 31,59.8 31.7,58.9 C32.8,57.4 33.8,55.9 34.9,54.4 C35.2,54 35.4,53.7 35.7,53.3 C35.8,53.2 35.9,53.1 36,53.1 C36.9,53.1 37.8,53.1 38.7,53.1 C39.7,53.2 40.1,53.8 39.7,54.7 C39.4,55.5 39,56.2 38.5,56.8 C37.2,58.6 35.4,59.8 33.6,61 C32.9,61.5 32.2,62 31.6,62.6 C31.1,63.1 30.8,63.7 30.4,64.2 C29.6,65.5 28.8,66.8 27.9,68 C26.4,70.2 24.8,72.3 23.2,74.4 C22.3,75.5 21.4,76.6 20.3,77.5 C19.5,78.5 18.3,78.9 17.1,78.8 Z" id="Shape" fill="#FFFFFF"></path>
                    <path d="M12.7,10.1 C13.2,10.1 13.7,10.1 14.2,10.2 C15.2,10.3 15.9,10.9 16.1,11.9 C16.3,13.1 16.4,14.3 16.4,15.5 C16.4,16.1 16,16.5 15.4,16.5 C14.5,16.6 13.5,16.5 12.6,16.5 C12.5,16.5 12.3,16.4 12.3,16.3 C11.5,15 11,13.5 10.9,12 C10.9,11.5 10.9,11 10.9,10.5 C10.9,10.2 11,10 11.3,10 C11.7,10.2 12.2,10.2 12.7,10.1 C12.6,10.2 12.7,10.1 12.7,10.1 Z" id="Shape" fill="#FFFFFF"></path>
                    <path d="M43,86.7 C43.1,84.6 43.6,82.8 44.5,81.1 C45.4,79.4 46.4,77.8 47.4,76.2 C48.2,75.1 49.1,74 50,73 C51.4,71.4 52.9,69.8 54.4,68.3 C55.8,67 57.2,65.8 58.6,64.5 C60.1,63.1 61.5,61.6 62.5,59.7 C63.1,58.5 63.6,57.3 64.3,56.1 C65.1,54.7 65.9,53.3 66.7,51.8 C67.4,50.6 68.1,49.4 68.8,48.1 C69.6,46.5 70.1,44.9 69.9,43.1 C69.7,40.9 68.8,39 67.3,37.4 C66,35.9 64.5,34.6 62.9,33.4 C60.1,31.4 57.4,29.4 54.6,27.5 C52.3,26 50.1,24.4 48.1,22.6 C46.3,20.9 44.5,19.2 43.2,17 C42.6,16 42,14.9 42,13.7 C41.9,12.1 42.8,10.4 44.6,9.8 C46.2,9.3 47.6,9.4 49,10.4 C49.7,10.9 50.1,11.6 50.4,12.3 C50.9,13.4 51.4,14.5 52,15.6 C52.7,17 53.6,18.2 54.6,19.3 C56,20.8 57.4,22.2 58.8,23.6 C59.7,24.5 60.8,25.2 61.8,25.9 C63.3,27 64.8,28 66.3,29.1 C68.7,30.8 71.1,32.5 73.4,34.3 C75.2,35.7 76.8,37.2 78,39.1 C79.1,40.8 79.4,42.7 79.2,44.8 C79,46.5 78.3,48 77.6,49.6 C76.8,51.3 75.8,52.7 74.7,54.2 C73.5,55.9 72.1,57.5 70.5,58.9 C69.4,59.9 68.2,60.9 67.1,61.9 C65.8,63.1 64.5,64.4 63.4,65.8 C61.8,67.7 60.5,69.8 59.2,72 C58.1,73.8 57,75.6 56,77.5 C55,79.3 54.1,81.2 53.2,83 C52.4,84.6 51.7,86.2 50.6,87.7 C49.3,89.3 47.8,90.3 45.6,90 C44.4,89.9 43.5,89 43.3,87.9 C43.1,87.5 43.1,87 43,86.7 Z" id="Shape" fill="#FFFFFF"></path>
                </g>
            </g>
        </g>
    </g>
</svg>