<?xml version="1.0" encoding="UTF-8"?>
<svg width="110px" height="38px" viewBox="0 0 110 38" version="1.1" xmlns="http://www.w3.org/2000/svg" xmlns:xlink="http://www.w3.org/1999/xlink">
    <!-- Generator: Sketch 49.3 (51167) - http://www.bohemiancoding.com/sketch -->
    <title>_x38_sDlYp_1_</title>
    <desc>Created with Sketch.</desc>
    <defs></defs>
    <g id="Page-1" stroke="none" stroke-width="1" fill="none" fill-rule="evenodd">
        <g id="plork-logos" transform="translate(-1082.000000, -8.000000)" fill-rule="nonzero">
            <g id="_x38_sDlYp_1_" transform="translate(1082.000000, 8.000000)">
                <g id="Group">
                    <path d="M0.5,37.2 C0.5,25.1 0.5,13 0.5,0.9 C36.9,0.9 73.3,0.9 109.7,0.9 C109.7,13 109.7,25.1 109.7,37.2 C73.2,37.2 36.8,37.2 0.5,37.2 Z M56.5,30.9 C57.3,30.8 58,30.9 58.8,30.7 C60.3,30.4 61.6,29.6 62.2,28.1 C62.8,26.6 63.4,25 64,23.5 C64.6,21.9 64.7,20.2 64.6,18.5 C64.5,17.3 64.4,16 64.9,14.9 C65.3,14 65.9,13.1 66.5,12.2 C67.3,10.9 68.2,9.7 69.1,8.5 C69.9,7.4 69.5,6.3 68.2,5.9 C67.1,5.6 66,5.5 64.9,5.7 C63.5,5.9 62.1,6.1 60.8,6.4 C59.4,6.7 58,7.1 56.7,7.6 C54.9,8.3 53.2,9.1 51.4,9.9 C49.1,11 46.9,12.3 45,14 C44,14.9 43.1,16.1 43.1,17.5 C43.1,18.9 43.2,20.4 43.4,21.8 C43.7,24 44.8,25.9 46.6,27.2 C47.8,28.1 49.1,28.8 50.4,29.4 C52.3,30.3 54.3,30.9 56.5,30.9 Z M13.9,29.6 C13.7,29.3 13.7,29.2 13.6,29 C12.9,28 12.4,26.9 12.3,25.7 C12.2,24.3 12.2,22.9 12.1,21.5 C12.1,21 12.3,20.9 12.8,20.9 C13.8,20.9 14.8,20.9 15.7,20.9 C17,20.9 18.3,20.7 19.5,20.2 C20.9,19.6 22.1,18.7 22.8,17.3 C23.4,16.1 24.1,14.9 24.9,13.8 C26,12.4 27.4,11.2 28.6,9.8 C29.2,9.2 29.8,8.6 30,7.7 C30.2,7.1 30,6.7 29.5,6.5 C28.9,6.3 28.3,6 27.7,6 C24.9,5.9 22.1,5.9 19.2,5.9 C19,5.9 18.8,6 18.6,6.1 C17.8,6.6 17.1,7.1 16.3,7.6 C13.7,9.3 11.2,11.1 9,13.3 C7.9,14.5 7.2,15.8 7.2,17.4 C7.2,19.9 7.3,22.3 7.3,24.8 C7.3,26.4 8,27.8 8.9,29.1 C9,29.3 9.3,29.4 9.6,29.4 C10.8,29.4 11.9,29.4 13.1,29.5 C13.4,29.7 13.6,29.7 13.9,29.6 Z M85.9,22.1 C86,22.2 86.1,22.3 86.2,22.3 C86.5,22.9 86.9,23.5 87.2,24.1 C88.6,26.6 90.7,28.6 92.9,30.3 C93.1,30.5 93.4,30.7 93.7,30.7 C95,30.8 96.4,30.8 97.7,30.9 C98.1,30.9 98.4,30.9 98.8,30.9 C98.7,30.6 98.6,30.5 98.4,30.4 C97.8,29.9 97.2,29.5 96.6,29 C94.1,27 92.2,24.4 90.6,21.7 C90.5,21.5 90.5,21.2 90.6,21.1 C91.4,20 92.2,19 93,18 C93.8,17 94.7,16.2 95.6,15.3 C95.9,15 96.2,14.8 96.6,14.5 C96.3,14.5 96.2,14.4 96,14.4 C94.9,14.4 93.7,14.5 92.6,14.4 C91.7,14.3 91.1,14.7 90.5,15.3 C89,16.7 88,18.5 86.7,20.1 C86.5,20.4 86.3,20.7 86,21 C85.9,20.8 85.8,20.7 85.8,20.5 C85.8,19.7 85.8,18.8 85.8,18 C85.7,16.1 86.5,14.7 87.8,13.4 C88.7,12.5 89.7,11.6 90.7,10.9 C92.2,9.7 93.8,8.6 95.4,7.5 C95.8,7.2 96.2,6.9 96.7,6.6 C96.5,6.5 96.4,6.5 96.3,6.5 C95.3,6.5 94.4,6.5 93.4,6.5 C92.6,6.5 91.9,6.6 91.3,7.2 C91.1,7.4 90.9,7.5 90.8,7.6 C88.3,9.4 85.7,11 83.5,13.2 C82.2,14.5 81.2,16 81.2,18 C81.2,19.9 81.2,21.8 81.2,23.8 C81.1,26.5 82.2,28.7 83.8,30.7 C84,30.9 84.3,31 84.5,31 C85.5,31.1 86.5,31 87.5,31.1 C87.9,31.1 88.2,31.1 88.6,31.1 C88.6,31.1 88.7,31 88.7,31 C86.4,28.3 85.5,25.5 85.9,22.1 Z M42.7,6.2 C42.5,6.1 42.3,6.1 42.1,6.1 C40.9,6.1 39.6,6.1 38.4,6.1 C38.2,6.1 38,6.1 37.9,6.2 C36.7,7 35.4,7.9 34.2,8.7 C32.2,10.1 30.2,11.6 28.4,13.3 C27,14.7 26.3,16.3 26.4,18.2 C26.5,19.8 26.4,21.3 26.4,22.9 C26.4,24.3 26.4,25.6 26.9,26.9 C27.2,27.7 27.6,28.4 28,29.1 C28.2,29.5 28.6,29.8 29.2,29.8 C30.4,29.8 31.7,29.9 32.9,29.9 C36.1,29.9 39.4,30 42.6,30 C42.7,30 42.9,29.9 43,29.8 C42.9,29.7 42.9,29.6 42.8,29.4 C42.3,28.4 41.8,27.5 41.3,26.5 C41.1,26.1 41,25.9 40.5,25.9 C37.6,25.9 34.7,25.9 31.8,25.9 C31.5,25.9 31.3,25.8 31.2,25.5 C31.1,25.1 31.1,24.6 31.1,24.2 C31.1,21.9 31.1,19.6 31.1,17.2 C31.1,16 31.6,14.9 32.3,14 C34.2,11.8 36.5,10.2 38.9,8.5 C40.2,7.8 41.4,7.1 42.7,6.2 Z M72.6,17.2 C72.5,17 72.5,16.9 72.5,16.8 C72.7,16.2 72.8,15.6 73.1,15 C73.3,14.5 73.3,14.4 72.8,14.4 C71.8,14.4 70.8,14.4 69.8,14.4 C69.6,14.4 69.2,14.6 69.1,14.8 C68.5,15.7 68.4,16.7 68.4,17.6 C68.4,19.6 68.5,21.6 68.5,23.6 C68.4,26.1 69.3,28.2 70.8,30.1 C71,30.3 71.3,30.5 71.5,30.5 C72.6,30.6 73.7,30.6 74.8,30.6 C75,30.6 75.2,30.6 75.5,30.5 C75.3,30.2 75.2,30 75,29.8 C74.2,28.6 73.4,27.4 73.2,26 C73,24.5 73,23 73.1,21.6 C73.2,19.7 74.2,18.8 76.2,18.7 C76.6,18.7 77,18.7 77.4,18.7 C77.8,18.7 78,18.6 77.9,18.1 C77.8,17.2 77.9,16.4 78.3,15.6 C78.5,15.2 78.7,14.8 78.9,14.3 C76.2,14.3 74.1,15 72.6,17.2 Z" id="Shape" fill="#FFFFFF"></path>
                    <path d="M56.5,30.9 C54.4,30.8 52.3,30.3 50.4,29.5 C49,28.9 47.7,28.2 46.6,27.3 C44.8,25.9 43.7,24.1 43.4,21.9 C43.2,20.5 43.1,19 43.1,17.6 C43.1,16.2 44,15 45,14.1 C46.9,12.4 49.1,11.1 51.4,10 C53.1,9.2 54.9,8.4 56.7,7.7 C58,7.2 59.4,6.8 60.8,6.5 C62.1,6.2 63.5,6 64.9,5.8 C66,5.6 67.1,5.7 68.2,6 C69.5,6.4 69.9,7.5 69.1,8.6 C68.3,9.9 67.3,11.1 66.5,12.3 C65.9,13.2 65.4,14 64.9,15 C64.4,16.1 64.5,17.4 64.6,18.6 C64.7,20.3 64.5,22 64,23.6 C63.5,25.2 62.9,26.7 62.2,28.2 C61.6,29.7 60.3,30.5 58.8,30.8 C58,30.9 57.2,30.9 56.5,30.9 Z M48.1,19 C48.1,19 48,19 48.1,19 C48.2,20.3 48.3,21.5 48.6,22.8 C48.9,24.1 49.6,25.2 50.6,26 C51.9,27 53.4,27.1 55,27.1 C55.8,27.1 56.4,26.8 57,26.4 C58.2,25.5 58.7,24.3 59,22.9 C59.4,21.1 59.5,19.3 59.4,17.5 C59.3,16.3 59.6,15.2 60.2,14.2 C60.7,13.3 61.2,12.4 61.6,11.5 C62,10.6 61.6,10 60.5,9.9 C58.8,9.8 57.3,10.3 55.8,10.9 C53.8,11.7 51.9,12.8 50.2,14.2 C49.3,15 48.5,15.9 48.3,17.2 C48.2,17.6 48.2,18.3 48.1,19 Z" id="Shape" fill="#000000"></path>
                    <path d="M13.9,29.6 C13.6,29.6 13.4,29.7 13.2,29.7 C12,29.7 10.9,29.7 9.7,29.6 C9.5,29.6 9.2,29.4 9,29.3 C8.1,28 7.4,26.6 7.4,25 C7.3,22.5 7.3,20.1 7.3,17.6 C7.3,16 8,14.6 9.1,13.5 C11.3,11.3 13.8,9.5 16.4,7.8 C17.2,7.3 17.9,6.8 18.7,6.3 C18.9,6.2 19.1,6.1 19.3,6.1 C22.1,6.1 24.9,6.1 27.8,6.2 C28.4,6.2 29,6.5 29.6,6.7 C30.2,6.9 30.3,7.4 30.1,7.9 C29.8,8.7 29.2,9.4 28.7,10 C27.5,11.3 26.1,12.6 25,14 C24.2,15 23.5,16.3 22.9,17.5 C22.1,18.9 21,19.9 19.6,20.4 C18.4,20.9 17.1,21.1 15.8,21.1 C14.8,21.1 13.8,21.1 12.9,21.1 C12.5,21.1 12.2,21.2 12.2,21.7 C12.3,23.1 12.3,24.5 12.4,25.9 C12.5,27.1 13,28.2 13.7,29.2 C13.7,29.2 13.8,29.4 13.9,29.6 Z M18.8,10.4 C17.8,10.2 16.9,10.6 16.2,11.3 C16,11.5 15.8,11.6 15.7,11.8 C14.6,12.7 13.5,13.7 12.8,15 C12.5,15.6 12.4,16.3 12.2,16.9 C12.2,17 12.4,17.3 12.5,17.3 C13.6,17.3 14.7,17.3 15.8,17.3 C16.8,17.3 17.6,16.7 18.2,16 C18.7,15.4 19.2,14.8 19.6,14.2 C20.2,13.4 20.9,12.7 21.4,11.8 C21.9,11 21.6,10.5 20.7,10.4 C20.1,10.4 19.5,10.4 18.8,10.4 Z" id="Shape" fill="#000000"></path>
                    <path d="M85.9,22.1 C85.5,25.5 86.4,28.3 88.6,30.7 C88.6,30.7 88.5,30.8 88.5,30.8 C88.1,30.8 87.8,30.8 87.4,30.8 C86.4,30.8 85.4,30.8 84.4,30.7 C84.2,30.7 83.9,30.5 83.7,30.4 C82.1,28.4 81,26.1 81.1,23.5 C81.1,21.6 81.1,19.7 81.1,17.7 C81.1,15.8 82,14.3 83.4,12.9 C85.6,10.7 88.2,9 90.7,7.3 C90.9,7.2 91.1,7.1 91.2,6.9 C91.8,6.3 92.5,6.2 93.3,6.2 C94.3,6.2 95.2,6.2 96.2,6.2 C96.3,6.2 96.4,6.2 96.6,6.3 C96.1,6.7 95.7,6.9 95.3,7.2 C93.7,8.3 92.1,9.4 90.6,10.6 C89.6,11.4 88.6,12.2 87.7,13.1 C86.4,14.3 85.6,15.8 85.7,17.7 C85.7,18.5 85.7,19.4 85.7,20.2 C85.7,20.3 85.7,20.5 85.9,20.7 C86.1,20.4 86.4,20.1 86.6,19.8 C87.8,18.2 88.9,16.4 90.4,15 C91,14.4 91.6,14 92.5,14.1 C93.6,14.2 94.8,14.1 95.9,14.1 C96,14.1 96.2,14.1 96.5,14.2 C96.1,14.5 95.7,14.8 95.5,15 C94.6,15.9 93.8,16.8 92.9,17.7 C92,18.7 91.3,19.8 90.5,20.8 C90.4,20.9 90.4,21.3 90.5,21.4 C92.1,24.2 94,26.7 96.5,28.7 C97.1,29.2 97.7,29.6 98.3,30.1 C98.5,30.2 98.6,30.4 98.7,30.6 C98.3,30.6 98,30.6 97.6,30.6 C96.3,30.5 94.9,30.5 93.6,30.4 C93.3,30.4 93.1,30.2 92.8,30 C90.6,28.2 88.5,26.3 87.1,23.8 C86.8,23.2 86.4,22.6 86.1,22 C86.1,22.3 86.1,22.2 85.9,22.1 Z" id="Shape" fill="#000000"></path>
                    <path d="M42.7,6.2 C41.4,7.1 40.3,7.8 39.1,8.6 C36.8,10.3 34.4,11.9 32.5,14.1 C31.7,15 31.3,16.1 31.3,17.3 C31.3,19.6 31.3,21.9 31.3,24.3 C31.3,24.7 31.4,25.2 31.4,25.6 C31.4,25.9 31.6,26 32,26 C34.9,26 37.8,26 40.7,26 C41.2,26 41.3,26.2 41.5,26.6 C41.9,27.6 42.5,28.5 43,29.5 C43.1,29.6 43.1,29.7 43.2,29.9 C43.1,30 42.9,30.1 42.8,30.1 C39.6,30.1 36.3,30 33.1,30 C31.9,30 30.6,29.9 29.4,29.9 C28.8,29.9 28.5,29.6 28.2,29.2 C27.8,28.5 27.4,27.7 27.1,27 C26.6,25.7 26.6,24.3 26.6,23 C26.6,21.4 26.7,19.9 26.6,18.3 C26.5,16.3 27.2,14.8 28.6,13.4 C30.3,11.6 32.3,10.2 34.4,8.8 C35.6,8 36.8,7.1 38.1,6.3 C38.2,6.2 38.5,6.2 38.6,6.2 C39.8,6.2 41.1,6.2 42.3,6.2 C42.3,6.1 42.4,6.1 42.7,6.2 Z" id="Shape" fill="#000000"></path>
                    <path d="M72.6,17.2 C74.1,15 76.3,14.3 78.8,14.2 C78.6,14.7 78.4,15.1 78.2,15.5 C77.8,16.3 77.7,17.1 77.8,18 C77.8,18.4 77.7,18.6 77.3,18.6 C76.9,18.6 76.5,18.6 76.1,18.6 C74.1,18.7 73.1,19.6 73,21.5 C72.9,23 73,24.5 73.1,25.9 C73.3,27.3 74.1,28.5 74.9,29.7 C75,29.9 75.2,30.1 75.4,30.4 C75.1,30.4 74.9,30.5 74.7,30.5 C73.6,30.5 72.5,30.5 71.4,30.4 C71.1,30.4 70.8,30.2 70.7,30 C69.2,28.1 68.3,26 68.4,23.5 C68.5,21.5 68.3,19.5 68.3,17.5 C68.3,16.5 68.4,15.5 69,14.7 C69.1,14.5 69.5,14.3 69.7,14.3 C70.7,14.3 71.7,14.3 72.7,14.3 C73.2,14.3 73.2,14.4 73,14.9 C72.8,15.5 72.6,16.1 72.4,16.7 C72.4,16.9 72.5,17 72.6,17.2 Z" id="Shape" fill="#000000"></path>
                    <path d="M48.1,19 C48.2,18.3 48.2,17.6 48.3,17 C48.5,15.7 49.2,14.8 50.2,14 C51.9,12.6 53.8,11.5 55.8,10.7 C57.3,10.1 58.8,9.6 60.5,9.7 C61.7,9.8 62,10.4 61.6,11.3 C61.2,12.2 60.7,13.1 60.2,14 C59.6,15 59.4,16.1 59.4,17.3 C59.5,19.1 59.4,21 59,22.7 C58.7,24.1 58.1,25.3 57,26.2 C56.4,26.6 55.8,26.9 55,26.9 C53.4,27 51.9,26.8 50.6,25.8 C49.5,25 48.8,23.9 48.6,22.6 C48.3,21.5 48.2,20.3 48.1,19 C48,19 48.1,19 48.1,19 Z" id="Shape" fill="#FFFFFF"></path>
                    <path d="M18.8,10.4 C19.5,10.4 20.1,10.4 20.7,10.4 C21.6,10.4 21.9,11 21.4,11.8 C20.9,12.6 20.2,13.4 19.6,14.2 C19.1,14.8 18.6,15.4 18.2,16 C17.6,16.8 16.8,17.3 15.8,17.3 C14.7,17.3 13.6,17.4 12.5,17.3 C12.4,17.3 12.1,17 12.2,16.9 C12.4,16.3 12.5,15.6 12.8,15 C13.5,13.7 14.6,12.7 15.7,11.8 C15.9,11.6 16.1,11.5 16.2,11.3 C17,10.6 17.8,10.3 18.8,10.4 Z" id="Shape" fill="#FFFFFF"></path>
                </g>
            </g>
        </g>
    </g>
</svg>