<?xml version="1.0" encoding="UTF-8"?>
<svg width="148px" height="45px" viewBox="0 0 148 45" version="1.1" xmlns="http://www.w3.org/2000/svg" xmlns:xlink="http://www.w3.org/1999/xlink">
    <!-- Generator: Sketch 49.3 (51167) - http://www.bohemiancoding.com/sketch -->
    <title>vYkMGg_1_</title>
    <desc>Created with Sketch.</desc>
    <defs></defs>
    <g id="Page-1" stroke="none" stroke-width="1" fill="none" fill-rule="evenodd">
        <g id="plork-logos" transform="translate(-2.000000, 0.000000)" fill-rule="nonzero">
            <g id="vYkMGg_1_" transform="translate(2.000000, 0.000000)">
                <g id="Group">
                    <path d="M0.1,44.2 C0.1,29.5 0.1,14.8 0.1,0.1 C49.2,0.1 98.4,0.1 147.5,0.1 C147.5,14.8 147.5,29.5 147.5,44.2 C98.4,44.2 49.3,44.2 0.1,44.2 Z M69.1,38.4 C72.2,38.6 75,37.7 77.6,36.1 C79.7,34.8 81,32.9 82.2,30.9 C83.7,28.5 85.4,26.4 87.6,24.6 C91.1,21.8 94.7,19.2 98.3,16.5 C99.7,15.4 101,14.3 102,12.8 C102.9,11.4 102.7,10.1 101.4,9.1 C100,8.1 98.3,7.9 96.7,7.8 C94.3,7.6 91.9,7.9 89.6,8.4 C86.2,9.2 82.9,10.3 79.8,11.8 C77.2,13 74.6,14.3 72,15.5 C68.7,17.1 65.4,18.9 62.5,21.1 C60.6,22.6 58.6,23.9 57.2,25.9 C55.8,27.7 55.2,29.6 56.2,31.7 C57.5,34.5 59.8,36.3 62.6,37.3 C64.7,38.2 66.9,38.5 69.1,38.4 Z M139.1,7.4 C139,7.3 139,7.2 138.9,7.2 C138.7,7.2 138.4,7.2 138.2,7.2 C136.9,7.2 135.6,7.3 134.2,7.3 C133.2,7.3 132.3,7.3 132,8.4 C132,8.5 131.9,8.5 131.9,8.6 C130.1,10.7 127.9,12.3 125.7,13.8 C121.9,16.5 117.9,19 114.1,21.7 C112.3,23 110.7,24.5 109.2,26 C107.7,27.5 106.8,29.4 106.6,31.5 C106.4,33.5 106.5,35.4 106.6,37.4 C106.6,37.6 106.9,37.9 107.1,37.9 C108.9,37.9 110.6,37.9 112.4,37.9 C112.9,37.9 113,37.7 113,37.2 C113,35.5 113.1,33.8 113,32.2 C113,30.8 113.4,29.5 114,28.2 C114.3,27.6 114.7,27.1 115,26.6 C115.1,26.6 115.2,26.7 115.3,26.7 C115.3,26.9 115.3,27.2 115.3,27.4 C114.9,29.1 115.4,30.7 116.2,32.3 C117.1,34 118.1,35.6 119,37.3 C119.3,37.9 119.8,38.2 120.4,38.2 C122.1,38.2 123.7,38.2 125.4,38.2 C125.8,38.2 126.2,38.1 126.8,38.1 C126.7,37.8 126.6,37.7 126.5,37.5 C125.3,35.6 124.1,33.8 122.9,31.9 C122,30.4 121.6,28.7 122,26.9 C122.2,26 122.4,25.2 123.4,24.8 C124.4,24.4 125.3,23.7 126.2,23.3 C129.2,21.8 132.1,20.3 135.1,18.9 C137.6,17.8 140.1,16.8 142.7,15.7 C142.9,15.6 143,15.5 143.3,15.3 C142.9,15.2 142.8,15.2 142.6,15.2 C140.8,15.2 139,15.3 137.1,15.4 C136.7,15.4 136.3,15.4 136,15.6 C134.1,16.4 132.1,17.2 130.2,18.1 C126.7,19.8 123.2,21.6 119.7,23.4 C119.2,23.6 118.7,23.9 118.2,24.1 C118.1,24 118.1,23.9 118,23.8 C118.3,23.6 118.5,23.4 118.8,23.1 C121.9,20.6 125.2,18.4 128.6,16.2 C131.7,14.3 134.7,12.2 137.2,9.7 C137.9,8.9 138.5,8.1 139.1,7.4 Z M4.8,37.6 C6.9,37.6 8.9,37.6 10.8,37.6 C11,37.6 11.3,37.3 11.3,37.1 C11.4,36.1 11.4,35 11.4,34 C11.4,31.6 11.7,29.3 13.3,27.4 C14.2,26.3 15,25.2 16.8,25.4 C18.4,25.6 20.1,25.5 21.7,25.3 C24.5,25 27.2,24.1 29.8,23.1 C34.8,21 39.7,18.6 44.2,15.6 C45.3,14.9 46.4,14.1 47.1,12.8 C47.5,12 47.4,11.4 46.7,10.9 C46.2,10.6 45.7,10.3 45.1,10.2 C43.3,10 41.6,9.8 39.8,9.7 C36.8,9.7 33.8,9.8 30.8,9.8 C29.7,9.8 29,10.2 28.4,10.9 C28.2,11.2 27.9,11.4 27.6,11.6 C24.4,13.8 21.2,16.1 18,18.2 C14.7,20.3 11.5,22.6 8.7,25.2 C7.5,26.3 6.5,27.5 5.8,29 C4.5,31.7 4.9,34.6 4.8,37.6 Z M62.7,9.5 C62.7,9.4 62.6,9.3 62.6,9.2 C62.4,9.2 62.1,9.2 61.9,9.2 C60.3,9.2 58.8,9.3 57.2,9.3 C56.6,9.3 56.2,9.5 55.8,9.8 C53.8,11.3 52,13 50,14.4 C46.9,16.6 43.6,18.5 40.5,20.7 C38.4,22.2 36.3,23.9 34.4,25.7 C32.5,27.5 31.3,29.8 31.2,32.5 C31.2,33.9 31.2,35.3 31.1,36.7 C31.1,37.4 31.4,37.6 32.1,37.6 C38.2,37.6 44.3,37.6 50.4,37.6 C51.2,37.6 51.3,37.4 51.3,36.7 C51.3,35.7 51.3,34.6 51.3,33.6 C51.3,32.7 51.2,32.7 50.4,32.7 C46.5,32.7 42.6,32.7 38.7,32.7 C37.9,32.7 37.8,32.4 37.8,31.8 C37.9,29.6 38.9,27.8 40.4,26.2 C43.5,22.9 47.2,20.3 51,17.9 C54.2,15.8 57.5,13.9 60.4,11.4 C61.2,10.8 61.9,10.1 62.7,9.5 Z M107.5,18.1 C107.5,18 107.4,18 107.4,17.9 C108.4,17.2 109.4,16.5 110.5,15.7 C110.2,15.6 110.1,15.5 109.9,15.5 C108.5,15.5 107.1,15.5 105.7,15.6 C105.3,15.6 104.9,15.7 104.6,15.9 C100.4,18.6 96.3,21.3 92.7,24.7 C91.1,26.2 89.5,28 89.2,30.2 C88.9,32.5 89,34.8 88.9,37.2 C88.9,37.3 89.3,37.6 89.5,37.6 C91.2,37.6 92.8,37.6 94.5,37.6 C95,37.6 95.2,37.4 95.2,36.9 C95.2,35.3 95.2,33.6 95.2,32 C95.2,29.4 96.3,27.3 98.1,25.5 C99.7,23.9 101.6,22.7 103.6,21.7 C105.5,20.9 107.4,20.3 109.5,20.3 C110.3,20.3 111.1,20.1 111.8,19.6 C113.6,18.4 115.4,17.2 117.2,16.1 C117.7,15.8 118.1,15.5 118.5,15.2 C118.5,15.1 118.4,15.1 118.4,15 C114.5,15.2 111,16.8 107.5,18.1 Z" id="Shape" fill="#FFFFFF"></path>
                    <path d="M69.1,38.4 C66.9,38.5 64.8,38.2 62.7,37.4 C59.9,36.3 57.6,34.5 56.3,31.8 C55.3,29.7 55.9,27.7 57.3,26 C58.8,24.1 60.7,22.7 62.6,21.2 C65.5,18.9 68.8,17.2 72.1,15.6 C74.7,14.3 77.2,13 79.9,11.9 C83.1,10.5 86.3,9.3 89.7,8.5 C92,8 94.4,7.7 96.8,7.9 C98.4,8 100.1,8.2 101.5,9.2 C102.8,10.2 103,11.5 102.1,12.9 C101.1,14.4 99.8,15.5 98.4,16.6 C94.8,19.3 91.2,21.9 87.7,24.7 C85.5,26.4 83.7,28.6 82.3,31 C81.1,33 79.8,35 77.7,36.2 C75,37.7 72.2,38.5 69.1,38.4 Z M91.1,11.7 C90.1,11.8 89.2,11.8 88.4,12 C86.5,12.5 84.5,13 82.7,13.8 C78,15.8 73.5,18.1 69.4,21.2 C67.4,22.7 65.3,24.2 63.8,26.4 C62.5,28.3 62.3,30.4 64.1,32.1 C64.8,32.8 65.8,33.4 66.8,33.5 C69.2,33.9 71.6,33.9 73.6,32.3 C74.3,31.7 75,31 75.6,30.2 C77.7,27.4 80.2,24.9 83.1,22.8 C85.9,20.7 88.7,18.7 91.4,16.7 C92.4,15.9 93.5,15.2 94,13.9 C94.4,13.1 94.2,12.4 93.3,12.2 C92.4,11.9 91.7,11.8 91.1,11.7 Z" id="Shape" fill="#000000"></path>
                    <path d="M139.1,7.4 C138.5,8.1 137.9,8.9 137.2,9.5 C134.6,12.1 131.6,14.1 128.6,16 C125.2,18.1 121.9,20.3 118.8,22.9 C118.5,23.1 118.3,23.3 118,23.6 C118.1,23.7 118.1,23.8 118.2,23.9 C118.7,23.7 119.2,23.5 119.7,23.2 C123.2,21.4 126.7,19.6 130.2,17.9 C132.1,17 134.1,16.2 136,15.4 C136.3,15.3 136.7,15.2 137.1,15.2 C138.9,15.1 140.7,15.1 142.6,15 C142.8,15 142.9,15.1 143.3,15.1 C143,15.3 142.8,15.4 142.7,15.5 C140.2,16.6 137.6,17.5 135.1,18.7 C132.1,20.1 129.2,21.6 126.2,23.1 C125.2,23.6 124.3,24.2 123.4,24.6 C122.4,25 122.2,25.8 122,26.7 C121.7,28.5 122,30.2 122.9,31.7 C124,33.6 125.3,35.5 126.5,37.3 C126.6,37.5 126.7,37.6 126.8,37.9 C126.3,37.9 125.9,38 125.4,38 C123.7,38 122.1,38 120.4,38 C119.7,38 119.3,37.8 119,37.1 C118.1,35.4 117.1,33.8 116.2,32.1 C115.4,30.6 115,29 115.3,27.2 C115.3,27 115.3,26.8 115.3,26.5 C115.2,26.5 115.1,26.4 115,26.4 C114.7,26.9 114.3,27.5 114,28 C113.4,29.2 112.9,30.5 113,32 C113,33.7 113,35.4 113,37 C113,37.5 112.9,37.7 112.4,37.7 C110.6,37.7 108.9,37.7 107.1,37.7 C106.9,37.7 106.6,37.4 106.6,37.2 C106.6,35.2 106.5,33.3 106.6,31.3 C106.8,29.2 107.7,27.3 109.2,25.8 C110.8,24.3 112.3,22.8 114.1,21.5 C117.9,18.8 121.9,16.3 125.7,13.6 C127.9,12.1 130.1,10.4 131.9,8.4 C131.9,8.3 132,8.3 132,8.2 C132.4,7 133.3,7.1 134.2,7.1 C135.5,7.1 136.8,7 138.2,7 C138.4,7 138.7,7 138.9,7 C139,7.2 139,7.3 139.1,7.4 Z" id="Shape" fill="#000000"></path>
                    <path d="M4.8,37.6 C4.8,34.6 4.4,31.8 5.7,29.1 C6.4,27.6 7.4,26.4 8.6,25.3 C11.5,22.6 14.7,20.4 17.9,18.3 C21.2,16.2 24.3,13.9 27.5,11.7 C27.8,11.5 28,11.2 28.3,11 C29,10.3 29.7,9.9 30.7,9.9 C33.7,9.9 36.7,9.8 39.7,9.8 C41.5,9.8 43.2,10 45,10.3 C45.5,10.4 46.1,10.7 46.6,11 C47.3,11.5 47.4,12.1 47,12.9 C46.4,14.2 45.3,14.9 44.1,15.7 C39.6,18.8 34.7,21.2 29.7,23.2 C27.1,24.3 24.4,25.2 21.6,25.4 C20,25.6 18.3,25.6 16.7,25.5 C14.9,25.3 14.2,26.4 13.2,27.5 C11.6,29.5 11.4,31.8 11.3,34.1 C11.3,35.1 11.3,36.2 11.2,37.2 C11.2,37.4 10.9,37.7 10.7,37.7 C8.9,37.6 6.9,37.6 4.8,37.6 Z M22.1,19.9 C22.4,20 22.5,20 22.7,20 C27.2,20.4 31.3,19.3 35,16.9 C36,16.3 37,15.5 37.9,14.7 C38.4,14.3 38.3,13.8 37.7,13.6 C37.5,13.5 37.2,13.4 36.9,13.4 C35.8,13.4 34.7,13.4 33.6,13.4 C32.5,13.4 31.5,13.6 30.6,14.2 C28.2,15.8 25.8,17.3 23.4,18.9 C22.9,19.2 22.5,19.5 22.1,19.9 Z" id="Shape" fill="#000000"></path>
                    <path d="M62.7,9.5 C62,10.2 61.2,10.8 60.5,11.5 C57.6,14 54.3,15.9 51.1,18 C47.3,20.5 43.6,23 40.5,26.3 C39.1,27.8 38.1,29.7 37.9,31.9 C37.9,32.6 38,32.8 38.8,32.8 C42.7,32.8 46.6,32.8 50.5,32.8 C51.4,32.8 51.4,32.9 51.4,33.7 C51.4,34.7 51.4,35.8 51.4,36.8 C51.4,37.6 51.3,37.7 50.5,37.7 C44.4,37.7 38.3,37.7 32.2,37.7 C31.5,37.7 31.2,37.5 31.2,36.8 C31.3,35.4 31.2,34 31.3,32.6 C31.4,29.9 32.6,27.6 34.5,25.8 C36.4,24 38.4,22.3 40.6,20.8 C43.7,18.6 47,16.7 50.1,14.5 C52.1,13.1 53.9,11.5 55.8,9.9 C56.2,9.5 56.6,9.4 57.2,9.4 C58.8,9.4 60.3,9.4 61.9,9.3 C62.1,9.3 62.4,9.3 62.6,9.3 C62.6,9.3 62.6,9.4 62.7,9.5 Z" id="Shape" fill="#000000"></path>
                    <path d="M107.5,18.1 C111,16.7 114.5,15.2 118.4,15.2 C118.4,15.3 118.5,15.3 118.5,15.4 C118.1,15.7 117.6,16 117.2,16.3 C115.4,17.5 113.6,18.6 111.8,19.8 C111.1,20.3 110.4,20.6 109.5,20.5 C107.4,20.4 105.5,21 103.6,21.9 C101.5,22.8 99.7,24.1 98.1,25.7 C96.3,27.5 95.2,29.6 95.2,32.2 C95.2,33.8 95.2,35.5 95.2,37.1 C95.2,37.6 95,37.8 94.5,37.8 C92.8,37.8 91.2,37.8 89.5,37.8 C89.3,37.8 88.9,37.5 88.9,37.4 C89,35.1 88.9,32.7 89.2,30.4 C89.5,28.1 91,26.4 92.7,24.9 C96.3,21.5 100.4,18.7 104.6,16.1 C104.9,15.9 105.3,15.8 105.7,15.8 C107.1,15.7 108.5,15.7 109.9,15.7 C110,15.7 110.2,15.8 110.5,15.9 C109.4,16.7 108.4,17.4 107.4,18.1 C107.4,18 107.4,18.1 107.5,18.1 Z" id="Shape" fill="#000000"></path>
                    <path d="M91.1,11.7 C91.7,11.8 92.5,11.9 93.2,12.1 C94,12.4 94.2,13 93.9,13.8 C93.3,15 92.3,15.8 91.3,16.6 C88.6,18.7 85.8,20.7 83,22.7 C80.2,24.8 77.7,27.3 75.5,30.1 C74.9,30.9 74.3,31.6 73.5,32.2 C71.5,33.8 69.1,33.9 66.7,33.4 C65.7,33.2 64.8,32.6 64,32 C62.2,30.4 62.5,28.3 63.7,26.3 C65.2,24.1 67.2,22.6 69.3,21.1 C73.4,18 77.9,15.7 82.6,13.7 C84.4,12.9 86.4,12.4 88.3,11.9 C89.2,11.8 90,11.8 91.1,11.7 Z" id="Shape" fill="#FFFFFF"></path>
                    <path d="M22.1,19.9 C22.6,19.5 22.9,19.2 23.3,19 C25.7,17.4 28.2,16 30.5,14.3 C31.5,13.6 32.4,13.4 33.5,13.5 C34.6,13.5 35.7,13.5 36.8,13.5 C37.1,13.5 37.4,13.6 37.6,13.7 C38.2,14 38.3,14.4 37.8,14.8 C36.9,15.6 35.9,16.4 34.9,17 C31.1,19.3 27,20.4 22.6,20.1 C22.5,20 22.4,19.9 22.1,19.9 Z" id="Shape" fill="#FFFFFF"></path>
                </g>
            </g>
        </g>
    </g>
</svg>