<?xml version="1.0" encoding="UTF-8"?>
<svg width="114px" height="35px" viewBox="0 0 114 35" version="1.1" xmlns="http://www.w3.org/2000/svg" xmlns:xlink="http://www.w3.org/1999/xlink">
    <!-- Generator: Sketch 49.3 (51167) - http://www.bohemiancoding.com/sketch -->
    <title>glx4aF_1_</title>
    <desc>Created with Sketch.</desc>
    <defs></defs>
    <g id="Page-1" stroke="none" stroke-width="1" fill="none" fill-rule="evenodd">
        <g id="plork-logos" transform="translate(-431.000000, -91.000000)" fill-rule="nonzero">
            <g id="glx4aF_1_" transform="translate(431.000000, 91.000000)">
                <g id="Group">
                    <path d="M0.4,34.2 C0.4,22.9 0.4,11.6 0.4,0.4 C38,0.4 75.6,0.4 113.2,0.4 C113.2,11.7 113.2,23 113.2,34.2 C75.6,34.2 38,34.2 0.4,34.2 Z M63.3,1.7 C62.3,1.8 61.2,1.9 60.2,2.1 C57.9,2.5 56,3.6 54.5,5.3 C52.6,7.4 51.8,10 51.7,12.8 C51.6,14.1 51.7,15.5 51.7,16.8 C51.6,17.8 51.5,18.7 51.2,19.6 C50.7,21.5 49.7,23.1 48.4,24.6 C48,25 47.9,25.5 48.1,26.1 C48.2,26.5 48.3,26.8 48.3,27.2 C48.4,27.9 48.5,28.6 49.2,29 C49.7,29.2 50.2,29.4 50.7,29.4 C52,29.4 53.4,29.4 54.7,29.1 C57.2,28.7 59.6,27.8 61.8,26.6 C62.8,26.1 63.6,25.4 64.6,24.9 C67,23.6 69.4,22.2 71.4,20.3 C72.4,19.4 73.2,18.3 73.6,17 C74.1,15.6 74.1,14.1 74,12.6 C73.8,10.3 73.3,8.1 72,6.1 C70.9,4.4 69.4,3.2 67.5,2.5 C66.2,1.9 64.7,1.6 63.3,1.7 Z M3.4,29.8 C3.4,29.9 3.4,29.9 3.4,30 C3.6,30 3.7,30.1 3.9,30.1 C5.2,30.1 6.4,30 7.7,29.9 C7.9,29.9 8.1,29.8 8.2,29.7 C9,29 9.9,28.4 10.6,27.6 C12.1,26.2 13.4,24.6 15,23.3 C16.6,22 17.9,20.4 18.7,18.5 C19.1,17.6 19.1,17.6 20,17.6 C22.2,17.6 24.4,17.6 26.5,16.8 C28.3,16.1 29.6,15 30.4,13.3 C31.2,11.8 31.1,10.2 31,8.6 C30.9,7.4 30.4,6.4 29.6,5.5 C28.2,3.9 26.4,3.3 24.5,3.3 C21.3,3.2 18.1,3.3 14.8,3.3 C14.3,3.3 14.3,3.6 14.3,3.9 C14.3,7.9 14.2,11.8 14.1,15.8 C14.1,16.5 14,17.1 13.8,17.8 C13.1,20 11.7,21.8 10,23.3 C9.4,23.9 8.7,24.3 8.1,24.9 C7.1,25.9 6.2,26.9 5.2,27.9 C4.8,28.6 4.1,29.2 3.4,29.8 Z M106.3,8.1 C104.5,8.1 102.8,8.2 101.1,8.2 C101,8.2 100.9,8.3 100.8,8.4 C100.4,9 100,9.6 99.6,10.3 C98.7,11.7 97.7,13.1 96.8,14.6 C96.7,14.7 96.6,14.8 96.4,14.9 C96.4,14.8 96.3,14.6 96.3,14.5 C96.3,12.4 96.2,10.2 96.2,8.1 C96.2,6.1 96.1,4.1 96.1,2.2 C96.1,1.9 96,1.6 95.6,1.7 C94.3,1.7 93.1,1.8 91.8,1.8 C91.4,1.8 91.3,2 91.4,2.3 C91.4,3.6 91.4,4.9 91.4,6.2 C91.4,9.7 91.4,13.1 91.4,16.6 C91.4,17.3 91.1,18 90.9,18.7 C90,20.9 88.5,22.6 86.6,23.9 C85.1,25 84.2,26.6 82.8,27.9 C83.1,27.9 83.3,28 83.4,28 C84.5,28 85.6,27.9 86.7,27.9 C87.3,27.9 87.7,27.7 88.1,27.4 C88.5,26.9 88.9,26.4 89.3,25.9 C89.5,25.6 89.8,25.3 90,25.1 C91.1,24.1 92.3,23.2 93.3,22.1 C94.5,20.9 95.4,19.5 95.9,17.9 C96,17.6 96.1,17.2 96.2,16.8 C96.3,16.8 96.4,16.8 96.4,16.9 C96.4,16.9 96.5,17 96.5,17 C97,18.3 97.1,19.5 96.6,20.8 C96.2,22.2 95.4,23.4 94.4,24.4 C93.4,25.3 93.5,26.7 92.6,27.7 C92.9,27.7 93,27.8 93.2,27.8 C94.6,27.8 96,27.7 97.4,27.7 C98,27.7 98.5,27.6 98.8,27 C98.9,26.8 99,26.5 99,26.3 C99.2,25.9 99.3,25.5 99.5,25.1 C99.7,24.7 100.1,24.4 100.3,24.1 C100.8,23.2 101.5,22.4 101.8,21.4 C102.4,19.8 102.2,18.2 101.3,16.7 C100.9,16.1 101,15.7 101.4,15.1 C102.8,13.3 104.2,11.5 105.5,9.7 C105.8,8.9 106,8.5 106.3,8.1 Z M34.5,2.8 C34.5,3 34.5,3.1 34.5,3.2 C34.5,6.9 34.5,10.7 34.5,14.4 C34.5,15.9 34.4,17.5 33.7,18.9 C32.7,21 31.1,22.5 29.4,23.9 C28.8,24.4 28.2,24.8 27.7,25.4 C26.9,26.5 26,27.4 25,28.3 C24.6,28.6 24.3,29 23.9,29.3 C24.4,29.4 24.8,29.4 25.3,29.4 C29.8,29.3 34.2,29.1 38.7,29 C39,29 39.3,28.9 39.5,28.8 C40.2,28.2 41,27.7 41.6,27 C42.5,26.1 43.1,24.8 44.3,24.1 C44.6,23.9 44.8,23.7 45.1,23.5 C45,23.4 44.9,23.3 44.8,23.4 C43.5,23.4 42.2,23.5 40.9,23.5 C39.2,23.6 37.4,23.6 35.7,23.7 C35.5,23.7 35.4,23.6 35.2,23.5 C35.3,23.4 35.3,23.2 35.4,23.1 C36.1,22.3 36.8,21.6 37.5,20.8 C38.5,19.5 39.3,18.1 39.4,16.4 C39.5,14.6 39.5,12.8 39.5,11 C39.5,8.5 39.5,5.9 39.5,3.4 C39.5,2.9 39.3,2.8 38.9,2.8 C37.4,2.8 36,2.8 34.5,2.8 Z M68.9,27.9 C68.9,28 69,28 69,28.1 C69.2,28.1 69.3,28.1 69.5,28.1 C70.4,28.1 71.3,27.9 72.2,28 C73.5,28.1 74.3,27.4 75.1,26.5 C75.7,25.8 76.3,25 76.9,24.4 C77.4,23.9 78.1,23.5 78.6,23 C80.1,21.7 81.4,20.2 82.1,18.3 C82.5,17.4 82.6,16.3 82.9,15.4 C83.3,13.9 84.1,13.2 85.6,12.9 C86.2,12.8 86.8,12.8 87.4,12.7 C87.7,12.7 87.8,12.6 87.8,12.3 C87.8,11.2 87.8,10 87.7,8.9 C87.7,8.8 87.5,8.5 87.4,8.5 C86.2,8.5 85,8.7 84,9.5 C83.5,9.9 83.2,10.4 82.7,10.9 C82.6,11 82.4,11.1 82.3,11.2 C82.2,11.1 82.1,10.9 82.1,10.8 C82.1,10.4 82,10 82.1,9.6 C82.1,9.1 82,8.9 81.5,9 C80.5,9 79.5,9.1 78.4,9.1 C77.8,9.1 77.7,9.3 77.7,9.8 C77.8,11.8 77.9,13.8 77.8,15.8 C77.8,16.7 77.6,17.6 77.3,18.5 C76.7,20.3 75.4,21.6 74.1,22.9 C72.8,24.1 71.2,25 70.3,26.6 C70.3,26.6 70.3,26.6 70.3,26.6 C69.9,27 69.4,27.5 68.9,27.9 Z" id="Shape" fill="#FFFFFF"></path>
                    <path d="M63.3,1.7 C64.8,1.7 66.2,1.9 67.5,2.5 C69.3,3.2 70.9,4.4 72,6.1 C73.3,8.1 73.9,10.3 74,12.6 C74.1,14.1 74.1,15.6 73.6,17 C73.2,18.3 72.3,19.3 71.4,20.3 C69.4,22.2 67,23.6 64.6,24.9 C63.6,25.4 62.8,26.1 61.8,26.6 C59.6,27.8 57.2,28.7 54.7,29.1 C53.4,29.3 52.1,29.4 50.7,29.4 C50.2,29.4 49.6,29.2 49.2,29 C48.5,28.6 48.4,27.9 48.3,27.2 C48.3,26.8 48.2,26.4 48.1,26.1 C47.9,25.5 48,25.1 48.4,24.6 C49.7,23.1 50.6,21.5 51.2,19.6 C51.5,18.7 51.6,17.7 51.7,16.8 C51.8,15.5 51.7,14.1 51.7,12.8 C51.8,10 52.7,7.4 54.5,5.3 C56,3.6 57.9,2.5 60.2,2.1 C61.2,1.8 62.2,1.8 63.3,1.7 Z M62.9,5.4 C59.9,5.3 58.1,7.2 57.4,9.5 C57,11 56.9,12.5 56.9,14.1 C57,16.7 56.7,19.2 55.9,21.6 C55.8,22.1 55.7,22.6 55.7,23.1 C55.7,23.4 56.1,23.8 56.4,23.9 C56.8,24.1 57.2,24.1 57.6,24 C58.5,23.8 59.4,23.7 60.3,23.4 C62.8,22.6 65,21.2 66.8,19.3 C67.8,18.3 68.3,17 68.5,15.6 C68.7,13.8 68.6,12 68.2,10.3 C68,9.2 67.7,8.1 66.9,7.3 C66,5.9 64.6,5.3 62.9,5.4 Z" id="Shape" fill="#000000"></path>
                    <path d="M3.4,29.8 C4.1,29.2 4.8,28.6 5.5,28 C6.5,27 7.4,26 8.4,25 C9,24.4 9.7,23.9 10.3,23.4 C12,21.9 13.4,20.1 14.1,17.9 C14.3,17.3 14.4,16.6 14.4,15.9 C14.5,11.9 14.5,8 14.6,4 C14.6,3.7 14.6,3.4 15.1,3.4 C18.3,3.4 21.5,3.2 24.8,3.4 C26.7,3.5 28.5,4.1 29.9,5.6 C30.7,6.5 31.2,7.6 31.3,8.7 C31.4,10.3 31.4,11.9 30.7,13.4 C29.8,15.1 28.5,16.2 26.8,16.9 C24.7,17.7 22.5,17.6 20.3,17.7 C19.3,17.7 19.3,17.7 19,18.6 C18.2,20.5 16.9,22.1 15.3,23.4 C13.7,24.7 12.4,26.2 10.9,27.7 C10.1,28.4 9.3,29.1 8.5,29.8 C8.4,29.9 8.2,29.9 8,30 C6.7,30.1 5.5,30.1 4.2,30.2 C4,30.2 3.9,30.1 3.7,30.1 C3.4,29.9 3.4,29.8 3.4,29.8 Z M19.5,10.1 C19.5,10.1 19.5,10.1 19.5,10.1 C19.4,11.1 19.4,12.1 19.4,13.1 C19.4,13.4 19.4,13.7 19.8,13.7 C20.9,13.7 22.1,13.7 23.2,13.5 C24.8,13.3 25.6,12.4 25.8,10.8 C26,8.5 25.2,7 22.5,7 C21.6,7 20.7,7 19.8,7.1 C19.4,7.1 19.3,7.4 19.3,7.7 C19.5,8.5 19.5,9.3 19.5,10.1 Z" id="Shape" fill="#000000"></path>
                    <path d="M106.3,8.1 C106,8.5 105.8,8.9 105.6,9.2 C104.2,11 102.9,12.8 101.5,14.6 C101.1,15.1 101,15.6 101.4,16.2 C102.3,17.7 102.5,19.3 101.9,20.9 C101.6,21.9 100.9,22.7 100.4,23.6 C100.2,24 99.8,24.3 99.6,24.6 C99.4,25 99.3,25.4 99.1,25.8 C99,26 99,26.3 98.9,26.5 C98.6,27.1 98.2,27.2 97.5,27.2 C96.1,27.2 94.7,27.3 93.3,27.3 C93.1,27.3 93,27.3 92.7,27.2 C93.5,26.1 93.5,24.8 94.5,23.9 C95.6,22.9 96.3,21.7 96.7,20.3 C97.1,19 97,17.7 96.6,16.5 C96.6,16.5 96.5,16.4 96.5,16.4 C96.5,16.4 96.4,16.4 96.3,16.3 C96.2,16.7 96.1,17 96,17.4 C95.5,19 94.6,20.5 93.4,21.6 C92.3,22.6 91.2,23.6 90.1,24.6 C89.8,24.9 89.6,25.2 89.4,25.4 C89,25.9 88.6,26.4 88.2,26.9 C87.8,27.3 87.4,27.4 86.8,27.4 C85.7,27.4 84.6,27.5 83.5,27.5 C83.3,27.5 83.2,27.5 82.9,27.4 C84.3,26.1 85.2,24.5 86.7,23.4 C88.6,22 90.1,20.4 91,18.2 C91.3,17.5 91.5,16.8 91.5,16.1 C91.6,12.6 91.5,9.2 91.5,5.7 C91.5,4.4 91.5,3.1 91.5,1.8 C91.5,1.4 91.6,1.3 91.9,1.3 C93.2,1.3 94.4,1.2 95.7,1.2 C96.1,1.2 96.2,1.4 96.2,1.7 C96.2,3.7 96.3,5.7 96.3,7.6 C96.3,9.7 96.4,11.9 96.4,14 C96.4,14.1 96.5,14.3 96.5,14.4 C96.6,14.3 96.8,14.3 96.9,14.1 C97.9,12.7 98.8,11.3 99.7,9.8 C100.1,9.2 100.5,8.6 100.9,7.9 C101,7.8 101.1,7.7 101.2,7.7 C102.8,8.2 104.4,8.1 106.3,8.1 Z" id="Shape" fill="#000000"></path>
                    <path d="M34.5,2.8 C36,2.8 37.4,2.8 38.9,2.8 C39.3,2.8 39.5,2.9 39.5,3.4 C39.5,5.9 39.5,8.5 39.5,11 C39.5,12.8 39.5,14.6 39.4,16.4 C39.3,18 38.5,19.5 37.5,20.8 C36.9,21.6 36.1,22.3 35.4,23.1 C35.3,23.2 35.2,23.4 35.2,23.5 C35.4,23.6 35.5,23.7 35.7,23.7 C37.4,23.6 39.2,23.6 40.9,23.5 C42.2,23.5 43.5,23.4 44.8,23.4 C44.9,23.4 45,23.5 45.1,23.5 C44.8,23.7 44.6,24 44.3,24.1 C43.1,24.8 42.5,26 41.6,27 C41,27.7 40.2,28.2 39.5,28.8 C39.3,29 39,29 38.7,29 C34.2,29.2 29.8,29.3 25.3,29.4 C24.9,29.4 24.4,29.4 23.9,29.3 C24.3,29 24.6,28.6 25,28.3 C26,27.5 26.9,26.5 27.7,25.4 C28.1,24.8 28.8,24.4 29.4,23.9 C31.1,22.5 32.7,20.9 33.7,18.9 C34.4,17.5 34.5,15.9 34.5,14.4 C34.5,10.7 34.5,6.9 34.5,3.2 C34.4,3.1 34.4,3 34.5,2.8 Z" id="Shape" fill="#000000"></path>
                    <path d="M68.9,27.9 C69.4,27.4 69.9,27 70.4,26.5 C70.4,26.5 70.4,26.5 70.4,26.5 C71.3,24.9 72.9,24 74.2,22.8 C75.5,21.5 76.8,20.2 77.4,18.4 C77.7,17.5 77.9,16.6 77.9,15.7 C77.9,13.7 77.9,11.7 77.8,9.7 C77.8,9.2 77.9,8.9 78.5,9 C79.5,9 80.5,9 81.6,8.9 C82.1,8.9 82.3,9.1 82.2,9.5 C82.2,9.9 82.2,10.3 82.2,10.7 C82.2,10.8 82.3,11 82.4,11.1 C82.5,11 82.7,11 82.8,10.8 C83.2,10.3 83.6,9.8 84.1,9.4 C85.1,8.6 86.3,8.5 87.5,8.4 C87.6,8.4 87.8,8.6 87.8,8.8 C87.8,9.9 87.8,11.1 87.9,12.2 C87.9,12.5 87.8,12.6 87.5,12.6 C86.9,12.6 86.3,12.7 85.7,12.8 C84.2,13 83.4,13.8 83,15.3 C82.8,16.3 82.6,17.3 82.2,18.2 C81.5,20.1 80.2,21.5 78.7,22.9 C78.1,23.4 77.5,23.8 77,24.3 C76.3,25 75.7,25.7 75.2,26.4 C74.5,27.3 73.7,28 72.3,27.9 C71.4,27.8 70.5,28 69.6,28 C69.4,28 69.3,28 69.1,28 C68.9,28.1 68.9,28 68.9,27.9 Z" id="Shape" fill="#000000"></path>
                    <path d="M62.9,5.4 C64.6,5.3 66,5.9 67.2,7.2 C67.9,8.1 68.2,9.2 68.5,10.2 C68.9,11.9 69,13.7 68.8,15.5 C68.6,16.9 68.1,18.1 67.1,19.2 C65.3,21.2 63.1,22.5 60.6,23.3 C59.7,23.6 58.8,23.8 57.9,23.9 C57.5,24 57,24 56.7,23.8 C56.4,23.7 56.1,23.3 56,23 C55.9,22.5 56,22 56.2,21.5 C57,19 57.2,16.5 57.2,14 C57.2,12.5 57.2,10.9 57.7,9.4 C58.1,7.2 59.9,5.3 62.9,5.4 Z" id="Shape" fill="#FFFFFF"></path>
                    <path d="M19.5,10.1 C19.5,9.3 19.5,8.5 19.5,7.7 C19.5,7.4 19.6,7.1 20,7.1 C20.9,7.1 21.8,7 22.7,7 C25.4,7 26.2,8.5 26,10.8 C25.9,12.4 25,13.3 23.4,13.5 C22.3,13.6 21.1,13.6 20,13.7 C19.6,13.7 19.6,13.4 19.6,13.1 C19.5,12.1 19.5,11.1 19.5,10.1 C19.5,10.1 19.5,10.1 19.5,10.1 Z" id="Shape" fill="#FFFFFF"></path>
                </g>
            </g>
        </g>
    </g>
</svg>