<?xml version="1.0" encoding="UTF-8"?>
<svg width="119px" height="39px" viewBox="0 0 119 39" version="1.1" xmlns="http://www.w3.org/2000/svg" xmlns:xlink="http://www.w3.org/1999/xlink">
    <!-- Generator: Sketch 49.3 (51167) - http://www.bohemiancoding.com/sketch -->
    <title>_x39_Q81kQ_1_</title>
    <desc>Created with Sketch.</desc>
    <defs></defs>
    <g id="Page-1" stroke="none" stroke-width="1" fill="none" fill-rule="evenodd">
        <g id="plork-logos" transform="translate(-832.000000, -58.000000)" fill-rule="nonzero">
            <g id="_x39_Q81kQ_1_" transform="translate(832.000000, 58.000000)">
                <g id="Group">
                    <path d="M0.7,38.8 C0.7,25.9 0.7,13.1 0.7,0.2 C39.9,0.2 79.1,0.2 118.3,0.2 C118.3,13.1 118.3,25.9 118.3,38.8 C79.1,38.8 39.9,38.8 0.7,38.8 Z M69.1,32.9 C69.6,32.8 70.1,32.8 70.6,32.7 C73.8,31.9 76.3,30 78.3,27.3 C79.4,25.8 79.9,24.1 80.4,22.4 C80.9,20.6 80.7,18.9 79.3,17.6 C78.6,16.9 77.8,16.3 77,15.8 C74.5,14.1 71.8,12.7 69,11.6 C67.5,11 66,10.3 64.5,9.7 C63.1,9.1 61.7,8.5 60.3,8 C58.3,7.3 56.2,6.5 54.2,5.9 C52.7,5.5 51.1,5.2 49.5,4.9 C48.8,4.8 48,4.9 47.4,5.1 C46.6,5.3 46.4,5.9 46.8,6.6 C47.3,7.3 47.8,8.1 48.4,8.7 C49.6,9.8 50.9,10.8 52.1,11.9 C53.9,13.4 55.7,14.8 57.5,16.3 C58.9,17.5 59.9,19 60.2,20.8 C60.6,24 61.7,26.9 63.4,29.6 C64,30.6 64.9,31.6 66,32.2 C66.9,32.7 68,32.8 69.1,32.9 Z M76.3,5.1 C76.3,5.2 76.3,5.2 76.2,5.3 C76.4,5.4 76.6,5.6 76.8,5.7 C78,6.4 79.1,7.1 80.3,7.7 C82.6,9 84.9,10.2 87.2,11.5 C89.9,13 92.4,14.7 94.8,16.7 C95.9,17.7 96.8,18.9 96.8,20.4 C96.8,21.3 96.8,22.3 96.7,23.2 C96.6,25.1 96.5,26.9 96,28.7 C95.5,30.6 94.7,32.4 94,34.2 C93.9,34.6 93.9,34.7 94.3,34.8 C95.4,34.9 96.4,35 97.5,35.2 C97.9,35.2 98.1,35.1 98.2,34.7 C98.4,34.1 98.7,33.5 99,32.8 C100.1,30.2 100.9,27.5 101,24.6 C101,24.4 101.1,24.3 101.2,24 C101.3,24.2 101.4,24.3 101.4,24.4 C102.6,27.3 103.1,30.2 102.7,33.3 C102.6,33.9 102.5,34.6 102.4,35.2 C102.3,35.5 102.4,35.7 102.8,35.8 C104.1,35.9 105.3,36 106.6,36.2 C107.3,36.3 107.4,36.2 107.5,35.5 C107.6,34.7 107.7,34 107.7,33.2 C107.8,31.5 107.8,29.8 107.2,28.2 C106.7,26.9 106.2,25.5 105.7,24.2 C105.5,23.8 105.5,23.5 105.8,23.2 C106.6,22.3 107.4,21.4 108.2,20.5 C108.8,19.8 109.2,18.9 109.3,18 C109.3,17.5 109.1,17.3 108.6,17.2 C107.2,17.1 105.8,17 104.3,16.9 C103.9,16.9 103.8,17 103.9,17.4 C104,18.1 104,18.8 103.7,19.5 C103.3,20.2 102.9,20.9 102.5,21.5 C102.2,22 101.8,22.4 101.4,22.9 C101.3,22.9 101.3,22.8 101.2,22.8 C101.2,22.2 101.2,21.6 101.2,21.1 C101.3,19.8 100.9,18.7 100.1,17.8 C99.3,16.9 98.4,16.2 97.4,15.4 C95.2,13.8 92.9,12.3 90.5,11 C87.7,9.4 84.9,7.9 82.1,6.3 C81.3,5.9 80.5,5.4 79.7,5.2 C79,5 78.3,5.1 77.6,5.1 C77.1,5.1 76.7,5.1 76.3,5.1 Z M6.2,5.8 C6.2,5.8 6.2,5.9 6.2,5.9 C6.3,6 6.4,6.1 6.5,6.1 C7.4,6.6 8.2,7 9.1,7.5 C11.4,8.8 13.6,10 15.9,11.3 C18.5,12.7 21,14.4 23.4,16.3 C25.2,17.7 26,19.5 25.6,21.8 C25.5,22.2 25.6,22.7 25.5,23.1 C25.4,24.3 25.4,25.5 25.2,26.7 C25.1,27.2 25.3,27.3 25.7,27.3 C26.8,27.4 27.9,27.5 29,27.6 C29.6,27.7 29.8,27.6 29.8,26.9 C29.9,25.6 30,24.4 30.1,23.1 C30.1,22.7 30.2,22.2 30.2,21.8 C30.3,20.7 30.3,19.6 29.8,18.6 C29.5,18.1 29.6,17.9 30.2,18 C31.3,18.1 32.4,18.2 33.5,18.2 C34.4,18.2 35.2,18.1 36.1,17.9 C37.6,17.5 37.8,16.5 36.9,15.3 C35.5,13.6 33.7,12.5 31.8,11.5 C30.2,10.6 28.6,9.9 26.9,9.2 C25,8.4 23,7.6 21,7 C18.8,6.3 16.5,5.8 14.1,5.7 C11.9,5.6 9.6,5.7 7.4,5.7 C6.9,5.8 6.5,5.8 6.2,5.8 Z M57.8,25.6 C57.7,25.5 57.6,25.5 57.6,25.5 C54.7,25.2 51.8,24.9 48.9,24.7 C48.6,24.7 48.4,24.6 48.4,24.2 C48.4,23.5 48.5,22.8 48.5,22 C48.6,20.9 48.6,19.8 48.1,18.7 C47.6,17.6 46.8,16.8 45.9,16.1 C43,13.8 39.8,11.9 36.5,10.1 C34.3,8.9 32.1,7.6 29.9,6.4 C29.5,6.2 29,5.8 28.6,5.7 C27.2,5.6 25.8,5.7 24.4,5.7 C24.6,5.9 24.7,6 24.9,6.1 C25.4,6.4 25.9,6.6 26.5,6.9 C27.9,7.7 29.3,8.5 30.8,9.4 C32.7,10.5 34.7,11.5 36.6,12.7 C38.3,13.7 39.9,14.9 41.4,16 C43.2,17.4 44.3,19.1 44,21.5 C43.8,23.8 43.8,26.1 43.4,28.3 C43.2,29.1 43.3,29.1 44.1,29.2 C46.7,29.5 49.4,29.7 52,30 C53.4,30.1 54.8,30.3 56.2,30.5 C56.6,30.5 56.9,30.5 56.9,30 C57.1,29.1 57.3,28.2 57.5,27.3 C57.7,26.8 57.7,26.2 57.8,25.6 Z M80.6,15.4 C80.8,15.6 80.8,15.7 80.9,15.7 C81.4,16.1 82,16.5 82.5,16.9 C83.9,18.1 84.6,19.6 84.4,21.4 C84.3,22.1 84.3,22.7 84.3,23.4 C84.2,25.6 84,27.7 83.4,29.8 C83.1,30.8 82.7,31.8 82.3,32.8 C82.2,33.1 82.1,33.4 82.5,33.5 C83.6,33.6 84.7,33.8 85.9,33.8 C86.1,33.8 86.4,33.6 86.4,33.5 C86.9,32.3 87.5,31.1 87.8,29.8 C88.3,27.9 88.6,26 88.7,24.1 C88.7,23.4 88.8,22.8 89,22.1 C89.2,21.2 89.7,20.4 90.7,20.2 C91.5,20.1 92.3,20.1 93,20.1 C93.4,20.1 93.5,20 93.4,19.6 C93.3,19.2 93.1,18.8 92.9,18.4 C92.5,17.8 92,17.2 91.5,16.7 C90.9,16.1 90.2,15.6 89.3,15.7 C89,15.8 88.6,15.7 88.3,15.8 C87.7,16 87.6,16.6 87.8,17.4 C87.8,17.6 87.9,17.8 87.9,17.9 C87.9,17.9 87.8,17.9 87.8,18 C87.6,17.9 87.5,17.7 87.3,17.6 C86.6,17 86,16.4 85.3,15.8 C85.1,15.6 84.8,15.5 84.5,15.5 C83.6,15.4 82.7,15.4 81.8,15.3 C81.3,15.4 81,15.4 80.6,15.4 Z" id="Shape" fill="#FFFFFF"></path>
                    <path d="M69.1,32.9 C68,32.9 66.9,32.7 65.9,32.2 C64.8,31.6 64,30.7 63.3,29.6 C61.6,26.9 60.5,24 60.1,20.8 C59.8,18.9 58.8,17.5 57.4,16.3 C55.6,14.8 53.8,13.4 52,11.9 C50.7,10.9 49.5,9.9 48.3,8.7 C47.7,8.1 47.2,7.3 46.7,6.6 C46.3,5.9 46.4,5.3 47.3,5.1 C48,4.9 48.7,4.8 49.4,4.9 C51,5.1 52.6,5.4 54.1,5.9 C56.2,6.5 58.2,7.3 60.2,8 C61.6,8.5 63,9.1 64.4,9.7 C65.9,10.3 67.4,11 68.9,11.6 C71.7,12.8 74.4,14.2 76.9,15.8 C77.7,16.3 78.5,17 79.2,17.6 C80.6,18.9 80.8,20.6 80.3,22.4 C79.8,24.1 79.3,25.9 78.2,27.3 C76.3,30 73.8,31.9 70.5,32.7 C70.2,32.8 69.7,32.8 69.1,32.9 Z M58,10 C57.7,10 57.4,10 57.1,10 C56.4,10.1 56.2,10.5 56.6,11.1 C56.9,11.5 57.3,11.9 57.7,12.3 C59.3,13.7 61,15.1 62.6,16.5 C64,17.7 64.8,19.2 65,21 C65.1,22.4 65.5,23.8 66.2,25.1 C66.8,26.2 67.6,27.2 68.9,27.5 C71.1,28.1 73.3,27.2 74.4,25.1 C74.8,24.3 75.2,23.4 75.4,22.6 C76.1,20.1 75.8,18.5 73.7,16.9 C72.2,15.7 70.6,14.7 68.9,13.8 C66.9,12.8 64.8,11.9 62.6,11.1 C61.1,10.5 59.6,10 58,10 Z" id="Shape" fill="#000000"></path>
                    <path d="M76.3,5.1 C76.7,5.1 77.1,5 77.5,5 C78.2,5 78.9,4.9 79.6,5.1 C80.5,5.4 81.3,5.8 82,6.2 C84.8,7.7 87.6,9.3 90.4,10.9 C92.8,12.2 95.1,13.7 97.3,15.3 C98.3,16 99.2,16.7 100,17.7 C100.8,18.7 101.2,19.8 101.1,21 C101.1,21.6 101.1,22.2 101.1,22.7 C101.2,22.7 101.2,22.8 101.3,22.8 C101.7,22.3 102.1,21.9 102.4,21.4 C102.8,20.8 103.2,20.1 103.6,19.4 C104,18.7 104,18 103.8,17.3 C103.7,16.9 103.9,16.8 104.2,16.8 C105.6,16.9 107,17 108.5,17.1 C109,17.1 109.2,17.3 109.2,17.9 C109.1,18.9 108.7,19.7 108.1,20.4 C107.3,21.3 106.5,22.2 105.7,23.1 C105.4,23.4 105.4,23.7 105.6,24.1 C106.1,25.4 106.7,26.7 107.1,28.1 C107.7,29.7 107.7,31.4 107.6,33.1 C107.6,33.9 107.5,34.6 107.4,35.4 C107.3,36.1 107.3,36.2 106.5,36.1 C105.2,36 104,35.8 102.7,35.7 C102.3,35.7 102.2,35.5 102.3,35.1 C102.4,34.5 102.5,33.8 102.6,33.2 C103,30.1 102.5,27.1 101.3,24.3 C101.3,24.2 101.2,24.1 101.1,23.9 C101,24.2 101,24.4 100.9,24.5 C100.8,27.4 100,30 98.9,32.7 C98.6,33.3 98.4,33.9 98.1,34.6 C98,35 97.7,35.1 97.4,35.1 C96.3,35 95.3,34.9 94.2,34.7 C93.8,34.7 93.8,34.5 93.9,34.1 C94.6,32.3 95.3,30.5 95.9,28.6 C96.4,26.8 96.5,24.9 96.6,23.1 C96.6,22.2 96.7,21.2 96.7,20.3 C96.7,18.7 95.8,17.5 94.7,16.6 C92.4,14.6 89.8,12.9 87.1,11.4 C84.8,10.1 82.5,8.9 80.2,7.6 C79,6.9 77.9,6.3 76.7,5.6 C76.5,5.5 76.3,5.3 76.1,5.2 C76.3,5.3 76.3,5.2 76.3,5.1 Z" id="Shape" fill="#000000"></path>
                    <path d="M6.2,5.8 C6.5,5.8 6.9,5.8 7.2,5.8 C9.4,5.8 11.7,5.7 13.9,5.8 C16.3,5.9 18.6,6.3 20.8,7.1 C22.8,7.8 24.8,8.5 26.7,9.3 C28.4,10 30,10.8 31.6,11.6 C33.5,12.6 35.3,13.7 36.7,15.4 C37.7,16.6 37.4,17.6 35.9,18 C35.1,18.2 34.2,18.3 33.3,18.3 C32.2,18.3 31.1,18.2 30,18.1 C29.4,18.1 29.3,18.2 29.6,18.7 C30.1,19.7 30.1,20.8 30,21.9 C30,22.3 29.9,22.8 29.9,23.2 C29.8,24.5 29.7,25.7 29.6,27 C29.5,27.6 29.4,27.7 28.8,27.7 C27.7,27.6 26.6,27.5 25.5,27.4 C25.1,27.4 25,27.3 25,26.8 C25.1,25.6 25.2,24.4 25.3,23.2 C25.3,22.8 25.3,22.3 25.4,21.9 C25.8,19.6 24.9,17.8 23.2,16.4 C20.8,14.5 18.4,12.8 15.7,11.4 C13.4,10.2 11.2,8.9 8.9,7.6 C8,7.1 7.2,6.7 6.3,6.2 C6.2,6.1 6.1,6 6,6 C6.2,5.9 6.2,5.9 6.2,5.8 Z M17.1,9.4 C17.1,9.5 17.1,9.5 17.1,9.6 C17.9,10 18.7,10.4 19.5,10.9 C21.3,12 23,13.1 24.8,14.1 C25.2,14.3 25.7,14.5 26.1,14.6 C26.4,14.7 26.8,14.7 27.1,14.7 C28,14.7 28.8,14.8 29.7,14.7 C30.3,14.7 30.5,14.3 30.1,13.8 C29.9,13.5 29.7,13.3 29.4,13.1 C28.5,12.5 27.6,11.9 26.7,11.4 C24.3,10.1 21.7,9.2 18.9,9.2 C18.2,9.3 17.6,9.4 17.1,9.4 Z" id="Shape" fill="#000000"></path>
                    <path d="M57.8,25.6 C57.7,26.2 57.7,26.8 57.5,27.4 C57.3,28.3 57.1,29.2 56.9,30.1 C56.8,30.5 56.5,30.6 56.2,30.6 C54.8,30.4 53.4,30.3 52,30.1 C49.4,29.8 46.7,29.5 44.1,29.3 C43.3,29.2 43.2,29.2 43.4,28.4 C43.9,26.2 43.8,23.9 44,21.6 C44.2,19.2 43.2,17.5 41.4,16.1 C39.8,14.9 38.2,13.8 36.6,12.8 C34.7,11.6 32.7,10.6 30.8,9.5 C29.4,8.7 28,7.9 26.5,7 C26,6.7 25.5,6.5 24.9,6.2 C24.7,6.1 24.6,6 24.4,5.8 C25.9,5.8 27.3,5.7 28.6,5.8 C29.1,5.8 29.5,6.2 29.9,6.5 C32.1,7.7 34.3,9 36.5,10.2 C39.8,12 43,13.9 45.9,16.2 C46.8,16.9 47.6,17.7 48.1,18.8 C48.6,19.9 48.6,20.9 48.5,22.1 C48.4,22.8 48.4,23.5 48.4,24.3 C48.4,24.6 48.5,24.8 48.9,24.8 C51.8,25.1 54.7,25.3 57.6,25.6 C57.6,25.5 57.7,25.5 57.8,25.6 Z" id="Shape" fill="#000000"></path>
                    <path d="M80.6,15.4 C81,15.4 81.3,15.4 81.6,15.4 C82.5,15.5 83.4,15.5 84.3,15.6 C84.6,15.6 84.9,15.7 85.1,15.9 C85.8,16.5 86.4,17.1 87.1,17.7 C87.3,17.9 87.4,18 87.6,18.1 C87.6,18.1 87.7,18.1 87.7,18 C87.7,17.8 87.6,17.6 87.6,17.5 C87.4,16.6 87.5,16.1 88.1,15.9 C88.4,15.8 88.8,15.8 89.1,15.8 C90.1,15.6 90.8,16.1 91.3,16.8 C91.8,17.3 92.3,17.9 92.7,18.5 C92.9,18.8 93.1,19.3 93.2,19.7 C93.3,20.1 93.2,20.2 92.8,20.2 C92,20.2 91.2,20.2 90.5,20.3 C89.5,20.5 89,21.3 88.8,22.2 C88.6,22.9 88.5,23.5 88.5,24.2 C88.5,26.1 88.1,28 87.6,29.9 C87.2,31.2 86.7,32.4 86.2,33.6 C86.1,33.8 85.8,33.9 85.7,33.9 C84.6,33.8 83.5,33.7 82.3,33.6 C81.9,33.5 82,33.2 82.1,32.9 C82.5,31.9 82.9,30.9 83.2,29.9 C83.8,27.8 84.1,25.7 84.1,23.5 C84.1,22.8 84.2,22.2 84.2,21.5 C84.4,19.6 83.7,18.2 82.3,17 C81.8,16.6 81.3,16.2 80.7,15.8 C80.8,15.7 80.7,15.6 80.6,15.4 Z" id="Shape" fill="#000000"></path>
                    <path d="M58,10 C59.6,10 61.2,10.5 62.6,11 C64.7,11.8 66.8,12.6 68.9,13.7 C70.6,14.6 72.2,15.6 73.7,16.8 C75.8,18.4 76.2,20 75.4,22.5 C75.1,23.4 74.8,24.2 74.4,25 C73.3,27.1 71.2,28 68.9,27.4 C67.6,27 66.8,26.1 66.2,25 C65.5,23.7 65.2,22.4 65,20.9 C64.8,19.1 64,17.6 62.6,16.4 C61,15 59.3,13.6 57.7,12.2 C57.3,11.9 56.9,11.4 56.6,11 C56.2,10.5 56.4,10 57.1,9.9 C57.4,10 57.7,10 58,10 Z" id="Shape" fill="#FFFFFF"></path>
                    <path d="M17.1,9.4 C17.6,9.4 18.2,9.4 18.7,9.4 C21.5,9.4 24.1,10.3 26.5,11.6 C27.4,12.1 28.3,12.7 29.2,13.3 C29.5,13.5 29.7,13.7 29.9,14 C30.3,14.5 30.1,14.9 29.5,14.9 C28.6,14.9 27.8,14.9 26.9,14.9 C26.6,14.9 26.2,14.9 25.9,14.8 C25.4,14.7 25,14.5 24.6,14.3 C22.8,13.2 21.1,12.1 19.3,11.1 C18.5,10.6 17.7,10.2 16.9,9.8 C17.1,9.5 17.1,9.4 17.1,9.4 Z" id="Shape" fill="#FFFFFF"></path>
                </g>
            </g>
        </g>
    </g>
</svg>