<?xml version="1.0" encoding="UTF-8"?>
<svg width="137px" height="42px" viewBox="0 0 137 42" version="1.1" xmlns="http://www.w3.org/2000/svg" xmlns:xlink="http://www.w3.org/1999/xlink">
    <!-- Generator: Sketch 49.3 (51167) - http://www.bohemiancoding.com/sketch -->
    <title>Fex0Eb_1_</title>
    <desc>Created with Sketch.</desc>
    <defs></defs>
    <g id="Page-1" stroke="none" stroke-width="1" fill="none" fill-rule="evenodd">
        <g id="plork-logos" transform="translate(-2.000000, -49.000000)" fill-rule="nonzero">
            <g id="Fex0Eb_1_" transform="translate(2.000000, 49.000000)">
                <g id="Group">
                    <path d="M0.1,42 C0.1,28 0.1,14.1 0.1,0.1 C45.4,0.1 90.7,0.1 136.1,0.1 C136.1,14.1 136.1,28 136.1,42 C90.7,42 45.4,42 0.1,42 Z M49.4,6 C48.7,6.1 48,6.1 47.2,6.2 C45.3,6.4 43.6,7.1 42.2,8.3 C40.8,9.5 40.6,10.8 41.5,12 C42.5,13.2 43.5,14.4 44.6,15.5 C46.3,17.1 48.3,18.3 50.4,19.2 C53.5,20.6 56.7,21.9 59.9,23.3 C61.9,24.2 63.9,25.2 65.6,26.6 C66.6,27.4 67.6,28.3 68.3,29.4 C69.3,30.9 70.1,32.5 71,34.1 C71.4,34.8 71.8,35.5 72.4,36 C74.2,37.5 76.3,37.5 78.4,37.3 C80.8,37 83,35.9 84.9,34.4 C86,33.5 87,32.5 87.6,31.1 C87.9,30.3 88.1,29.5 87.7,28.7 C87.3,27.7 86.6,26.9 85.8,26.2 C84.5,25 83.1,24.2 81.5,23.4 C78.5,22 75.4,20.6 72.4,19.3 C70.4,18.4 68.5,17.4 66.7,16.2 C64.8,14.9 62.9,13.6 61.1,12.2 C59.6,11.1 58.2,9.8 56.8,8.6 C54.5,6.9 52.1,6.1 49.4,6 Z M77.1,6.9 C76.8,8.6 77.1,10.1 78.3,11.3 C78.9,12 79.7,12.5 80.4,13.2 C81.4,14.1 82.4,15.1 83.5,16 C86.4,18.2 89.8,19.6 93.1,21 C96.6,22.5 100.1,23.9 103.1,26.3 C103.9,27 104.7,27.8 105.2,28.8 C106.2,30.6 105.9,32.5 105.1,34.3 C104.5,35.7 103.8,37 103.1,38.3 C102.8,38.9 102.9,39 103.5,39.1 C104.5,39.2 105.4,39.2 106.4,39.3 C107,39.4 107.3,39.2 107.6,38.7 C108.1,37.7 108.6,36.7 109.1,35.7 C110.1,34 110.5,32.3 110.3,30.3 C110.3,29.8 110.1,29.4 109.9,28.9 C109.8,28.6 109.7,28.4 109.6,28.1 C109.8,28.1 109.8,28.1 109.9,28.2 C110.7,29 111.2,30 111.6,31.1 C112,32.1 112.3,33.1 112.3,34.2 C112.2,35.9 112,37.6 111.8,39.3 C111.8,39.7 111.9,39.7 112.2,39.7 C113.6,39.8 115.1,39.9 116.5,40 C116.8,40 117,39.9 117,39.6 C117.1,38.3 117.2,36.9 117.2,35.6 C117.3,34.6 117.2,33.7 116.9,32.7 C116.3,30.8 115.4,29 113.9,27.7 C113.5,27.4 113.1,27 112.8,26.7 C112.2,26.2 111.8,25.5 111.1,25.1 C109.4,23.9 107.7,22.8 106,21.8 C104,20.6 102,19.4 100.4,17.7 C100.2,17.5 99.9,17.4 99.6,17.4 C98.2,17.3 96.8,17.2 95.3,17 C95,17 94.7,17 94.4,17 C94.5,17.2 94.5,17.3 94.6,17.4 C95.7,18.3 96.7,19.2 97.9,20 C99.4,21 101,21.8 102.5,22.7 C102.9,22.9 103.2,23.2 103.6,23.5 C103.6,23.5 103.6,23.6 103.5,23.6 C103.3,23.6 103.1,23.5 103,23.5 C101.2,22.7 99.4,21.9 97.6,21.1 C96.5,20.6 95.3,20.1 94.2,19.6 C92.8,18.9 91.4,18.3 90.1,17.5 C87.6,15.9 85.4,13.8 83.2,11.8 C82.4,11 81.8,10.1 81.8,8.9 C81.8,8.5 81.8,8.1 81.7,7.7 C81.7,7.6 81.5,7.3 81.4,7.3 C79.9,6.9 78.5,6.9 77.1,6.9 Z M21,20.2 C21,20.1 21,20.1 21,20 C21.6,20 22.2,20 22.9,20 C23.9,20 25,20.1 26,20.1 C26.5,20.1 27.1,19.8 27.3,19.5 C27.6,19.1 27.1,18.6 26.8,18.2 C25.9,17.2 24.9,16.2 24,15.3 C23.3,14.5 22.6,13.7 21.8,13.1 C20.3,11.9 18.9,10.6 17.8,9.1 C17,8 15.9,7.4 14.7,7 C13.2,6.5 11.6,6.3 10.1,6.3 C7.9,6.3 5.7,6.3 3.4,6.2 C3,6.2 2.8,6.3 2.8,6.8 C2.8,7.2 2.8,7.7 2.8,8.1 C2.9,8.8 2.9,9.5 3.1,10.1 C3.6,11.4 4.7,12.3 5.7,13.2 C6.4,13.8 7,14.6 7.8,15.3 C10.1,17.4 12.8,18.9 15.6,20.1 C18.5,21.4 21.4,22.6 24.2,24 C26,24.8 27.6,25.8 29.1,27.2 C30.2,28.3 31.3,29.5 31.3,31.2 C31.3,31.6 31.2,32.1 31.4,32.3 C31.6,32.5 32.1,32.5 32.5,32.5 C33.5,32.6 34.4,32.7 35.4,32.8 C35.6,32.8 35.9,32.9 36,32.5 C36.3,30.7 35.8,29.2 34.5,27.9 C33.2,26.6 31.8,25.5 30.2,24.7 C27.6,23.4 24.9,22.3 22.3,21.1 C21.9,20.6 21.5,20.4 21,20.2 Z M24.5,6.3 C24.5,6.3 24.5,6.3 24.5,6.3 C23.9,6.3 23.2,6.3 22.6,6.3 C22.2,6.3 22.1,6.5 22.1,6.8 C22.1,7.3 22.1,7.9 22.1,8.4 C22.1,8.9 22.1,9.4 22.3,9.8 C22.6,10.7 23.2,11.5 24,12.1 C24.6,12.6 25.2,13 25.8,13.6 C28.2,16.3 31.2,18.1 34.4,19.5 C37.3,20.8 40.3,22.1 43.3,23.5 C45.3,24.4 47.2,25.5 48.8,27.1 C49.3,27.7 49.9,28.3 50.2,29 C50.9,30.3 50.7,31.8 50.5,33.2 C50.4,33.8 50.5,33.9 51.1,33.9 C53,34.1 54.9,34.2 56.7,34.4 C59.1,34.6 61.5,34.9 63.8,35.2 C64,35.2 64.3,35.1 64.4,34.9 C65.1,33.6 65.4,32.2 65.3,30.8 C65.3,30.4 65.1,30.2 64.7,30.2 C64.3,30.2 63.8,30.2 63.4,30.2 C61.1,30 58.9,29.8 56.6,29.6 C56.2,29.6 55.9,29.5 55.5,29.4 C55.3,29.4 55.2,29.2 55.1,29.1 C54.6,28.1 53.8,27.3 53,26.5 C51,24.8 48.7,23.6 46.4,22.5 C43.5,21.2 40.5,19.9 37.6,18.6 C35.3,17.5 33.1,16.1 31.3,14.2 C30.8,13.7 30.2,13.3 29.7,12.8 C29,12.2 28.3,11.6 27.8,10.9 C27.4,10.4 27.1,9.8 27,9.3 C26.9,8.5 26.9,7.6 27,6.8 C27,6.4 26.9,6.2 26.4,6.2 C25.7,6.3 25.1,6.3 24.5,6.3 Z M70.1,15.8 C70.1,15.8 70.1,15.9 70.1,15.9 C70.4,16.1 70.8,16.4 71.1,16.6 C73.6,18.3 76.3,19.5 79.1,20.7 C81.5,21.8 84,22.9 86.4,24 C87.9,24.7 89.4,25.6 90.6,26.9 C91.2,27.6 91.9,28.3 92.3,29.2 C93,30.7 92.9,32.2 92.3,33.7 C91.8,35 91.2,36.2 90.6,37.4 C90.3,37.9 90.4,38 91,38.1 C91.9,38.2 92.7,38.3 93.6,38.3 C94.2,38.3 94.7,38.5 95,37.7 C95.2,37.2 95.4,36.8 95.7,36.3 C96.7,34.5 97.5,32.8 97.3,30.7 C97.2,29.8 96.9,29 96.4,28.2 C95.1,26.4 93.3,25.1 91.3,24.1 C89.8,23.3 88.3,22.5 86.8,21.6 C86.5,21.4 86.2,21 85.9,20.7 C86.3,20.6 86.7,20.5 87.1,20.4 C87.3,20.4 87.5,20.4 87.7,20.4 C87.7,20.3 87.7,20.2 87.6,20.2 C87.5,20.1 87.4,20.1 87.3,20 C85.1,19 83,18.1 81,16.6 C80.3,16.1 79.6,15.7 78.6,15.8 C78.2,15.9 77.7,15.8 77.6,16.3 C77.5,16.6 77.7,17 77.8,17.4 C77.9,17.6 78.1,17.7 78.3,17.9 C78.4,18 78.5,18.1 78.5,18.2 C78.2,18.3 78,18.2 77.9,18.1 C77.1,17.7 76.4,17.2 75.6,16.7 C74.7,16.1 73.8,15.6 72.6,15.6 C71.9,15.7 71.3,15.5 70.6,15.5 C70.6,15.7 70.4,15.7 70.1,15.8 Z" id="Shape" fill="#FFFFFF"></path>
                    <path d="M49.4,6 C52.1,6.1 54.5,6.9 56.6,8.6 C58,9.8 59.4,11.1 60.9,12.2 C62.7,13.6 64.6,14.9 66.5,16.2 C68.3,17.4 70.2,18.4 72.2,19.3 C75.3,20.6 78.3,22 81.3,23.4 C82.8,24.1 84.3,25 85.6,26.2 C86.4,26.9 87.1,27.7 87.5,28.7 C87.9,29.5 87.7,30.3 87.4,31.1 C86.8,32.5 85.9,33.5 84.7,34.4 C82.8,35.9 80.7,37 78.2,37.3 C76.1,37.6 73.9,37.5 72.2,36 C71.6,35.5 71.2,34.8 70.8,34.1 C69.9,32.6 69.1,30.9 68.1,29.4 C67.4,28.3 66.4,27.4 65.4,26.6 C63.7,25.2 61.7,24.2 59.7,23.3 C56.6,21.9 53.4,20.6 50.2,19.2 C48.1,18.3 46.1,17.1 44.4,15.5 C43.3,14.4 42.3,13.2 41.3,12 C40.3,10.8 40.6,9.4 42,8.3 C43.5,7.1 45.1,6.4 47,6.2 C47.9,6.1 48.6,6.1 49.4,6 Z M49.5,9.8 C49.2,9.8 48.9,9.8 48.6,9.8 C47.9,9.9 47.3,10 46.9,10.7 C46.5,11.5 46.8,12.1 47.3,12.7 C47.5,13 47.7,13.2 47.9,13.5 C49,15 50.3,16.3 51.8,17.3 C53.8,18.6 55.9,19.6 58.1,20.5 C60.7,21.6 63.3,22.7 65.8,23.8 C67.2,24.5 68.6,25.2 69.9,26.1 C71.6,27.2 73,28.7 74.2,30.4 C75.5,32.3 78.3,33.2 80.5,31.9 C82.2,31 82.9,29.2 81.5,27.4 C80.5,26.1 79.3,25 77.8,24.3 C76.4,23.5 74.9,22.7 73.5,22 C70.9,20.8 68.3,19.8 65.8,18.6 C64,17.7 62.3,16.7 60.7,15.6 C59.3,14.7 58,13.7 56.7,12.8 C56,12.3 55.2,11.9 54.5,11.4 C52.9,10.5 51.3,9.6 49.5,9.8 Z" id="Shape" fill="#000000"></path>
                    <path d="M77.1,6.9 C78.5,6.9 79.9,6.9 81.3,6.9 C81.4,6.9 81.6,7.1 81.6,7.3 C81.7,7.7 81.6,8.1 81.7,8.5 C81.7,9.7 82.3,10.7 83.1,11.4 C85.3,13.4 87.5,15.5 90,17.1 C91.3,17.9 92.7,18.6 94.1,19.2 C95.2,19.7 96.4,20.2 97.5,20.7 C99.3,21.5 101.1,22.3 102.9,23.1 C103.1,23.2 103.3,23.2 103.4,23.2 C103.4,23.2 103.4,23.1 103.5,23.1 C103.1,22.8 102.8,22.6 102.4,22.3 C100.9,21.4 99.3,20.5 97.8,19.6 C96.6,18.8 95.6,17.9 94.5,17 C94.4,17 94.4,16.9 94.3,16.6 C94.7,16.6 95,16.6 95.2,16.6 C96.6,16.7 98,16.8 99.5,17 C99.8,17 100.1,17.1 100.3,17.3 C102,19 103.9,20.2 105.9,21.4 C107.7,22.4 109.4,23.6 111,24.7 C111.6,25.1 112.1,25.8 112.7,26.3 C113.1,26.7 113.5,27 113.8,27.3 C115.3,28.7 116.2,30.4 116.8,32.3 C117.1,33.2 117.1,34.2 117.1,35.2 C117,36.5 116.9,37.9 116.9,39.2 C116.9,39.5 116.7,39.7 116.4,39.6 C115,39.5 113.5,39.4 112.1,39.3 C111.9,39.3 111.7,39.2 111.7,38.9 C111.9,37.2 112.1,35.5 112.2,33.8 C112.3,32.7 111.9,31.7 111.5,30.7 C111.1,29.7 110.6,28.6 109.8,27.8 C109.7,27.7 109.7,27.7 109.5,27.7 C109.6,28 109.7,28.2 109.8,28.5 C109.9,28.9 110.1,29.4 110.2,29.9 C110.4,31.8 109.9,33.6 109,35.3 C108.4,36.3 107.9,37.3 107.5,38.3 C107.3,38.8 106.9,39 106.3,38.9 C105.3,38.8 104.4,38.8 103.4,38.7 C102.7,38.6 102.7,38.5 103,37.9 C103.7,36.6 104.4,35.3 105,33.9 C105.8,32.1 106.1,30.2 105.1,28.4 C104.6,27.5 103.8,26.6 103,25.9 C100,23.5 96.5,22 93,20.6 C89.7,19.2 86.3,17.8 83.4,15.6 C82.3,14.8 81.3,13.8 80.3,12.8 C79.6,12.2 78.9,11.6 78.2,10.9 C77.1,10.1 76.8,8.6 77.1,6.9 Z" id="Shape" fill="#000000"></path>
                    <path d="M21,20.2 C21.4,20.4 21.8,20.6 22.3,20.8 C24.9,22 27.6,23.1 30.2,24.4 C31.8,25.2 33.3,26.3 34.5,27.6 C35.8,28.9 36.3,30.4 36,32.2 C35.9,32.6 35.7,32.6 35.4,32.5 C34.4,32.4 33.5,32.3 32.5,32.2 C32.1,32.2 31.6,32.2 31.4,32 C31.2,31.8 31.3,31.3 31.3,30.9 C31.3,29.2 30.2,28 29.1,26.9 C27.7,25.5 26,24.5 24.2,23.7 C21.3,22.4 18.5,21.1 15.6,19.8 C12.8,18.6 10.1,17.1 7.8,15 C7.1,14.3 6.5,13.5 5.7,12.9 C4.7,12 3.6,11.1 3.1,9.8 C2.9,9.2 2.8,8.5 2.8,7.8 C2.8,7.4 2.8,6.9 2.8,6.5 C2.8,6.1 3,6 3.4,6 C5.6,6 7.8,6.1 10.1,6.1 C11.7,6.1 13.2,6.3 14.7,6.8 C15.9,7.2 17,7.9 17.8,8.9 C18.9,10.5 20.3,11.7 21.8,12.9 C22.6,13.6 23.3,14.4 24,15.1 C24.9,16.1 25.9,17.1 26.8,18 C27.1,18.4 27.6,18.8 27.3,19.3 C27.1,19.7 26.5,19.9 26,19.9 C25,20 23.9,19.9 22.9,19.8 C22.3,19.8 21.7,19.8 21,19.8 C21.1,20.1 21,20.1 21,20.2 Z M16.7,16.6 C16.7,16.6 16.7,16.6 16.7,16.6 C17.3,16.6 17.8,16.6 18.4,16.6 C19,16.6 19.3,16 18.9,15.5 C18.6,15 18.3,14.4 17.8,14 C16.5,12.9 15.1,11.8 13.7,10.7 C13.4,10.4 13,10.3 12.6,10.2 C11.2,9.8 9.8,10 8.3,10 C8,10 7.9,10.2 8.1,10.4 C8.5,11 9,11.6 9.5,12.1 C10.6,13.2 11.8,14.2 12.8,15.3 C13.8,16.3 14.9,16.7 16.2,16.6 C16.3,16.6 16.5,16.6 16.7,16.6 Z" id="Shape" fill="#000000"></path>
                    <path d="M24.5,6.3 C25.1,6.3 25.7,6.3 26.4,6.3 C26.8,6.3 27,6.5 27,6.9 C27,7.7 26.9,8.6 27,9.4 C27.1,10 27.4,10.6 27.8,11 C28.4,11.7 29.1,12.3 29.7,12.9 C30.2,13.4 30.8,13.8 31.3,14.3 C33.1,16.2 35.2,17.6 37.6,18.7 C40.5,20.1 43.5,21.3 46.4,22.6 C48.8,23.7 51.1,24.8 53,26.6 C53.8,27.3 54.6,28.1 55.1,29.2 C55.2,29.3 55.4,29.5 55.5,29.5 C55.9,29.6 56.2,29.6 56.6,29.7 C58.9,29.9 61.1,30.1 63.4,30.3 C63.8,30.3 64.3,30.4 64.7,30.3 C65.1,30.3 65.3,30.5 65.3,30.9 C65.4,32.4 65.1,33.7 64.4,35 C64.3,35.2 64,35.3 63.8,35.3 C61.4,35.1 59,34.8 56.7,34.5 C54.8,34.3 53,34.1 51.1,34 C50.5,33.9 50.5,33.8 50.5,33.3 C50.7,31.9 50.9,30.4 50.2,29.1 C49.9,28.4 49.3,27.8 48.8,27.2 C47.3,25.6 45.3,24.5 43.3,23.6 C40.4,22.2 37.4,21 34.4,19.6 C31.2,18.1 28.2,16.4 25.8,13.7 C25.3,13.1 24.6,12.7 24,12.2 C23.3,11.6 22.6,10.8 22.3,9.9 C22.2,9.4 22.1,8.9 22.1,8.5 C22.1,8 22.1,7.4 22.1,6.9 C22.1,6.6 22.2,6.4 22.6,6.4 C23.2,6.3 23.8,6.3 24.5,6.3 C24.5,6.3 24.5,6.3 24.5,6.3 Z" id="Shape" fill="#000000"></path>
                    <path d="M70.1,15.8 C70.3,15.8 70.5,15.7 70.7,15.7 C71.4,15.7 72,15.9 72.7,15.8 C73.9,15.7 74.8,16.2 75.7,16.9 C76.4,17.4 77.2,17.8 78,18.3 C78.2,18.4 78.4,18.4 78.6,18.4 C78.5,18.3 78.4,18.2 78.4,18.1 C78.2,17.9 78,17.8 77.9,17.6 C77.8,17.3 77.6,16.9 77.7,16.5 C77.8,16.1 78.3,16.1 78.7,16 C79.6,15.9 80.4,16.3 81.1,16.8 C83,18.2 85.2,19.1 87.4,20.2 C87.5,20.3 87.6,20.3 87.7,20.4 C87.7,20.4 87.7,20.5 87.8,20.6 C87.6,20.6 87.4,20.6 87.2,20.6 C86.8,20.7 86.4,20.8 86,20.9 C86.3,21.2 86.5,21.6 86.9,21.8 C88.4,22.7 89.9,23.5 91.4,24.3 C93.3,25.4 95.2,26.6 96.5,28.4 C97,29.1 97.3,29.9 97.4,30.9 C97.5,33 96.7,34.8 95.8,36.5 C95.6,36.9 95.3,37.4 95.1,37.9 C94.8,38.6 94.2,38.5 93.7,38.5 C92.8,38.4 92,38.3 91.1,38.3 C90.5,38.3 90.5,38.2 90.7,37.6 C91.3,36.4 91.9,35.2 92.4,33.9 C93,32.4 93.1,30.8 92.4,29.4 C92,28.6 91.4,27.8 90.7,27.1 C89.5,25.9 88.1,25 86.5,24.2 C84.1,23.1 81.7,21.9 79.2,20.9 C76.5,19.7 73.7,18.5 71.2,16.8 C70.9,16.6 70.5,16.3 70.2,16.1 C70.1,15.8 70.1,15.8 70.1,15.8 Z" id="Shape" fill="#000000"></path>
                    <path d="M49.5,9.8 C51.4,9.7 52.9,10.6 54.5,11.5 C55.3,11.9 56,12.4 56.7,12.9 C58,13.8 59.3,14.9 60.7,15.7 C62.4,16.8 64.1,17.8 65.8,18.7 C68.3,19.9 71,21 73.5,22.1 C75,22.8 76.4,23.6 77.8,24.4 C79.3,25.2 80.5,26.2 81.5,27.5 C82.9,29.3 82.2,31 80.5,32 C78.2,33.2 75.5,32.4 74.2,30.5 C73,28.8 71.6,27.3 69.9,26.2 C68.6,25.3 67.2,24.6 65.8,23.9 C63.3,22.7 60.7,21.6 58.1,20.6 C55.9,19.7 53.7,18.7 51.8,17.4 C50.3,16.4 49,15.1 47.9,13.6 C47.7,13.3 47.5,13.1 47.3,12.8 C46.8,12.2 46.5,11.6 46.9,10.8 C47.2,10.1 47.9,10 48.6,9.9 C48.9,9.7 49.2,9.8 49.5,9.8 Z" id="Shape" fill="#FFFFFF"></path>
                    <path d="M16.7,16.6 C16.5,16.6 16.4,16.6 16.2,16.6 C14.8,16.7 13.7,16.3 12.8,15.3 C11.8,14.2 10.6,13.2 9.5,12.1 C9,11.6 8.5,11 8.1,10.4 C7.9,10.1 8,9.9 8.3,10 C9.7,10 11.2,9.8 12.5,10.3 C12.9,10.4 13.3,10.6 13.6,10.8 C15,11.9 16.4,13 17.7,14.1 C18.2,14.5 18.4,15.1 18.8,15.6 C19.1,16.1 18.9,16.6 18.3,16.7 C17.8,16.7 17.2,16.6 16.7,16.6 C16.7,16.6 16.7,16.6 16.7,16.6 Z" id="Shape" fill="#FFFFFF"></path>
                </g>
            </g>
        </g>
    </g>
</svg>