<?xml version="1.0" encoding="UTF-8"?>
<svg width="129px" height="54px" viewBox="0 0 129 54" version="1.1" xmlns="http://www.w3.org/2000/svg" xmlns:xlink="http://www.w3.org/1999/xlink">
    <!-- Generator: Sketch 49.3 (51167) - http://www.bohemiancoding.com/sketch -->
    <title>OexpR3_1_</title>
    <desc>Created with Sketch.</desc>
    <defs></defs>
    <g id="Page-1" stroke="none" stroke-width="1" fill="none" fill-rule="evenodd">
        <g id="plork-logos" transform="translate(-548.000000, -190.000000)" fill-rule="nonzero">
            <g id="OexpR3_1_" transform="translate(548.000000, 190.000000)">
                <g id="Group">
                    <path d="M0.7,53.4 C0.7,35.9 0.7,18.4 0.7,0.9 C43.2,0.9 85.7,0.9 128.2,0.9 C128.2,18.4 128.2,35.9 128.2,53.4 C85.7,53.4 43.2,53.4 0.7,53.4 Z M68.5,48.1 C69.6,48 70.8,47.9 71.9,47.7 C74.8,47 77.4,45.8 79.6,43.9 C80.9,42.8 82,41.7 82.9,40.2 C83.3,39.5 83.7,38.8 84.1,38.2 C85,36.6 85.9,35 86.3,33.2 C86.7,31.2 86.3,29.3 85.7,27.5 C84.7,24.8 83.1,22.5 81.1,20.4 C79.2,18.5 77.2,16.7 75.1,14.9 C73,13.2 70.9,11.6 68.7,10 C67.1,8.9 65.5,7.8 63.8,6.8 C62.5,6 61,5.6 59.5,5.3 C58,5 56.5,5.1 55,5.6 C54.4,5.8 53.9,6.1 53.5,6.6 C52.6,7.6 52.5,9.1 53.3,10.5 C54.2,11.9 55.2,13.4 56.4,14.7 C58.2,16.8 60.2,18.8 62,20.9 C63.2,22.2 63.9,23.8 64.2,25.6 C64.5,27.3 64.1,28.9 63.8,30.5 C63.3,32.8 62.5,35 61.8,37.3 C61.7,37.7 61.4,38.2 61.4,38.6 C61.3,40 61.3,41.3 61.4,42.7 C61.6,44.9 62.6,46.6 64.7,47.5 C65.8,47.9 67.1,48 68.5,48.1 Z M18.6,46.7 C18.6,46.7 18.7,46.8 18.8,46.8 C20.3,46.8 21.7,46.8 23.2,46.8 C23.4,46.8 23.7,46.6 23.9,46.4 C24.6,45.1 25.3,43.9 25.8,42.5 C26.5,40.9 27,39.3 27.6,37.8 C27.8,37.4 28,37.1 28.5,37.1 C29.7,37.1 30.9,37.1 32,37.1 C33.4,37.1 34.8,36.8 36.1,36.3 C37.6,35.7 38.9,34.9 40.1,33.8 C41.2,32.7 41.9,31.4 42,29.9 C42.2,27.4 41.4,25.2 40,23.2 C38.3,20.7 36,18.6 33.8,16.6 C31.2,14.3 28.6,12.1 26,9.9 C24.7,8.8 23.3,7.9 21.9,7 C20.2,5.9 18.2,5.4 16.2,5.3 C13.7,5.2 11.2,5.2 8.7,5.2 C8.4,5.2 8.1,5.2 7.7,5.2 C7.8,5.4 7.8,5.6 7.8,5.6 C8.4,6.7 9,7.9 9.8,8.9 C11.6,11 13.5,13.1 15.5,15.1 C17.2,16.9 19,18.6 20.8,20.4 C22.7,22.4 24.1,24.8 24.5,27.6 C25,30.6 24.6,33.4 23.4,36.2 C22.9,37.4 22.4,38.6 21.8,39.9 C21.6,40.4 21.5,40.9 21.3,41.3 C20.4,43.1 19.5,44.9 18.6,46.7 Z M108.4,36.7 C108.4,36.4 108.4,36.4 108.4,36.3 C108.8,35.2 109.2,34.1 109.5,33 C110.1,30.9 110.1,28.7 109.7,26.6 C109.2,24 107.7,21.8 105.9,19.9 C104.1,18 102.2,16.2 100.2,14.4 C97.7,12.1 95.2,9.8 93.4,6.8 C93.3,6.6 93,6.5 92.8,6.5 C91.5,6.5 90.2,6.5 89,6.4 C88.8,6.4 88.6,6.5 88.4,6.5 C88.8,7.1 89,7.7 89.4,8.1 C91,9.8 92.5,11.6 94.2,13.2 C96.6,15.6 99,17.9 101.4,20.3 C102.7,21.6 103.6,23.1 104.2,24.8 C104.6,26 104.9,27.2 104.9,28.4 C104.9,29.9 104.8,31.5 104.5,33 C104.2,34.5 103.5,35.9 102.9,37.3 C102.5,38.5 102.1,39.7 101.6,40.8 C100.7,42.9 99.7,44.9 98.7,47 C98.4,47.6 98.4,47.7 99.1,47.7 C100.4,47.7 101.6,47.7 102.9,47.7 C103.3,47.7 103.5,47.6 103.7,47.3 C105.2,44.6 106.5,41.8 107.4,38.9 C107.5,38.7 107.6,38.5 107.7,38.2 C107.8,38.5 107.9,38.6 108,38.8 C108.2,39.6 108.4,40.5 108.4,41.3 C108.6,43.2 108.8,45.2 108.5,47.1 C108.4,47.6 108.6,47.8 109.1,47.8 C110.7,47.8 112.3,47.8 113.8,47.8 C114.2,47.8 114.4,47.6 114.4,47.2 C114.3,45.8 114.3,44.3 114.1,42.9 C113.8,41.3 113.4,39.7 113,38.2 C112.8,37.6 112.9,37.1 113.4,36.7 C114.1,36.2 114.7,35.6 115.3,35 C117.3,33.3 119,31.4 120.4,29.1 C120.7,28.7 120.6,28.6 120.1,28.6 C118.5,28.6 116.9,28.6 115.4,28.6 C115.2,28.6 115,28.7 115,28.8 C113.6,31.6 111.4,33.8 109.2,36 C108.9,36.4 108.7,36.5 108.4,36.7 Z M57,43.1 C57,43 56.9,43 56.9,42.9 C54.2,42.9 51.5,42.9 48.8,42.9 C48.2,42.9 47.6,42.9 47,42.9 C46.7,42.9 46.5,42.8 46.6,42.5 C47.2,40.8 47.8,39.2 48.4,37.5 C48.9,36.1 49.6,34.7 50,33.2 C50.6,30.9 50.7,28.5 50.1,26.2 C49.8,25 49.3,23.9 48.7,22.9 C47.3,20.6 45.3,18.8 43.4,16.9 C41.8,15.3 40.1,13.8 38.5,12.2 C36.6,10.4 34.9,8.4 33.7,6 C33.5,5.6 33.3,5.5 32.9,5.5 C31.5,5.5 30.2,5.5 28.8,5.5 C28.7,5.5 28.5,5.6 28.4,5.6 C28.4,5.7 28.5,5.8 28.5,5.9 C28.5,6 28.6,6.1 28.6,6.2 C29.6,8 30.8,9.6 32.3,11.1 C35.1,13.9 38,16.7 40.8,19.6 C42.3,21.1 43.6,22.7 44.4,24.7 C45.7,28.1 45.6,31.5 44.4,34.9 C44,36.1 43.3,37.3 42.9,38.5 C41.9,41.3 40.9,44.1 39.4,46.6 C39.3,46.7 39.3,46.9 39.3,47.1 C39.5,47.1 39.7,47.2 39.8,47.2 C44.5,47.3 49.2,47.3 53.9,47.4 C54.8,47.4 55.1,47 55.5,46.3 C55.6,46.2 55.6,46 55.7,45.9 C56.1,44.9 56.6,44 57,43.1 Z M84.5,47.5 C84.8,47.5 85,47.6 85.2,47.6 C86.3,47.6 87.5,47.6 88.6,47.7 C89.1,47.7 89.4,47.6 89.7,47.1 C90.7,45 91.7,43 92.6,40.9 C93.3,39.1 93.9,37.4 95.1,35.9 C95.7,35.2 96.4,34.6 97.3,34.4 C98.2,34.2 99.1,34.1 100.1,34 C100.4,34 100.7,33.9 100.8,33.6 C101.3,32.1 101.4,30.6 101.3,29.1 C101.3,29 101.1,28.7 101,28.8 C100.2,28.9 99.4,28.9 98.7,29.2 C97.4,29.6 96.5,30.7 95.8,31.8 C95.7,32 95.6,32.1 95.5,32.2 C95.4,32 95.4,31.8 95.4,31.7 C95.4,31.1 95.5,30.5 95.5,29.9 C95.5,29.2 95.4,29.1 94.7,29.1 C93.7,29.1 92.8,29.1 91.8,29.1 C90.9,29.1 90.9,29.1 90.8,30 C90.8,30.1 90.8,30.2 90.8,30.2 C90.9,32 90.6,33.7 89.9,35.3 C89.5,36.4 88.9,37.4 88.5,38.5 C87.6,41.4 86.5,44.1 85,46.7 C84.8,46.9 84.7,47.1 84.5,47.5 Z" id="Shape" fill="#FFFFFF"></path>
                    <path d="M68.5,48.1 C67.1,48 65.8,47.9 64.5,47.4 C62.4,46.5 61.4,44.7 61.2,42.6 C61.1,41.2 61.1,39.9 61.2,38.5 C61.2,38.1 61.5,37.6 61.6,37.2 C62.3,34.9 63,32.7 63.6,30.4 C64,28.8 64.3,27.2 64,25.5 C63.7,23.7 63,22.1 61.8,20.8 C60,18.7 58,16.7 56.2,14.6 C55.1,13.3 54.1,11.9 53.1,10.4 C52.2,9.1 52.3,7.6 53.3,6.5 C53.7,6.1 54.3,5.7 54.8,5.5 C56.3,5 57.8,5 59.3,5.2 C60.8,5.5 62.3,5.9 63.6,6.7 C65.3,7.7 66.9,8.8 68.5,9.9 C70.7,11.5 72.9,13.1 74.9,14.8 C77,16.5 79,18.3 80.9,20.3 C82.9,22.3 84.5,24.7 85.5,27.4 C86.2,29.2 86.5,31.1 86.1,33.1 C85.7,34.9 84.9,36.6 83.9,38.1 C83.5,38.8 83.1,39.5 82.7,40.1 C81.8,41.5 80.7,42.7 79.4,43.8 C77.1,45.7 74.5,47 71.7,47.6 C70.8,47.9 69.6,47.9 68.5,48.1 Z M70.1,43.9 C73.1,43.8 75.3,42.8 76.9,40.7 C78,39.2 78.9,37.5 79.9,35.8 C80.6,34.6 80.9,33.3 81,31.9 C81.1,28.8 79.9,26.2 78.1,23.8 C76.5,21.7 74.6,19.7 72.5,18 C70.8,16.6 69,15.3 67.1,14.2 C66.3,13.7 65.4,13.5 64.5,13.5 C63.8,13.5 63.5,13.9 63.8,14.5 C64,14.9 64.1,15.3 64.4,15.7 C65.6,17.3 66.8,18.9 68.1,20.5 C69.6,22.4 70.2,24.5 69.9,26.8 C69.4,30.1 68.7,33.5 67.4,36.6 C66.9,37.9 66.6,39.2 66.8,40.6 C66.9,41.4 67,42.3 67.8,42.9 C68.5,43.7 69.4,44 70.1,43.9 Z" id="Shape" fill="#000000"></path>
                    <path d="M18.6,46.7 C19.5,44.8 20.4,43 21.2,41.2 C21.4,40.7 21.5,40.2 21.7,39.8 C22.2,38.6 22.7,37.4 23.3,36.1 C24.5,33.4 24.8,30.5 24.4,27.5 C24,24.7 22.6,22.3 20.7,20.3 C19,18.5 17.2,16.8 15.4,15 C13.5,13 11.5,11 9.7,8.8 C8.9,7.8 8.4,6.6 7.7,5.5 C7.6,5.4 7.6,5.3 7.6,5.1 C8,5.1 8.3,5.1 8.6,5.1 C11.1,5.1 13.6,5.1 16.1,5.2 C18.1,5.3 20.1,5.8 21.8,6.9 C23.2,7.8 24.6,8.7 25.9,9.8 C28.5,12 31.1,14.2 33.7,16.5 C36,18.5 38.2,20.6 39.9,23.1 C41.3,25.1 42.1,27.3 41.9,29.8 C41.8,31.3 41.1,32.6 40,33.7 C38.9,34.8 37.5,35.7 36,36.2 C34.7,36.7 33.3,36.9 31.9,37 C30.7,37 29.5,37 28.4,37 C27.9,37 27.6,37.2 27.5,37.7 C26.9,39.3 26.4,40.9 25.7,42.4 C25.1,43.7 24.4,45 23.8,46.3 C23.7,46.5 23.4,46.7 23.1,46.7 C21.6,46.7 20.2,46.7 18.7,46.7 C18.7,46.8 18.7,46.8 18.6,46.7 Z M31.8,32.6 C31.8,32.6 31.8,32.7 31.8,32.6 C32.5,32.6 33.2,32.7 33.8,32.5 C35.3,32.2 36.2,31.4 36.4,29.7 C36.6,27.7 35.9,26 34.7,24.5 C33.2,22.7 31.6,21 29.6,19.8 C28.4,19.1 27.2,18.3 25.7,19.2 C25.3,19.4 25.1,19.5 25.5,19.9 C26.1,20.6 26.6,21.3 27.1,22 C28,23.2 28.7,24.5 29.1,25.9 C29.8,27.9 29.7,30 29.5,32.1 C29.5,32.5 29.6,32.6 30,32.6 C30.6,32.6 31.2,32.6 31.8,32.6 Z" id="Shape" fill="#000000"></path>
                    <path d="M108.4,36.7 C108.7,36.5 108.9,36.4 109.1,36.2 C111.3,34 113.5,31.8 114.9,29 C115,28.9 115.2,28.8 115.3,28.8 C116.9,28.8 118.5,28.8 120,28.8 C120.5,28.8 120.5,28.9 120.3,29.3 C118.9,31.5 117.2,33.5 115.2,35.2 C114.6,35.8 113.9,36.3 113.3,36.9 C112.8,37.3 112.7,37.8 112.9,38.4 C113.3,40 113.7,41.5 114,43.1 C114.2,44.5 114.2,45.9 114.3,47.4 C114.3,47.8 114.1,48 113.7,48 C112.1,48 110.5,48 109,48 C108.5,48 108.4,47.8 108.4,47.3 C108.7,45.4 108.5,43.4 108.3,41.5 C108.2,40.7 108,39.8 107.9,39 C107.9,38.8 107.8,38.7 107.6,38.4 C107.5,38.7 107.4,38.9 107.3,39.1 C106.3,42 105.1,44.8 103.6,47.5 C103.4,47.8 103.2,47.9 102.8,47.9 C101.5,47.9 100.3,47.9 99,47.9 C98.4,47.9 98.4,47.8 98.6,47.2 C99.6,45.1 100.6,43.1 101.5,41 C102,39.9 102.3,38.7 102.8,37.5 C103.3,36.1 104,34.7 104.4,33.2 C104.7,31.7 104.8,30.1 104.8,28.6 C104.8,27.4 104.5,26.1 104.1,25 C103.5,23.3 102.5,21.8 101.3,20.5 C98.9,18.1 96.5,15.8 94.1,13.4 C92.5,11.7 90.9,10 89.3,8.3 C88.9,7.9 88.7,7.3 88.3,6.7 C88.6,6.7 88.7,6.6 88.9,6.6 C90.2,6.6 91.5,6.6 92.7,6.7 C92.9,6.7 93.2,6.9 93.3,7 C95.1,9.9 97.6,12.2 100.1,14.6 C102,16.4 103.9,18.2 105.8,20.1 C107.6,22 109.1,24.2 109.6,26.8 C110,28.9 110,31.1 109.4,33.2 C109.1,34.3 108.7,35.4 108.3,36.5 C108.4,36.4 108.5,36.4 108.4,36.7 Z" id="Shape" fill="#000000"></path>
                    <path d="M57,43.1 C56.6,44 56.1,44.9 55.7,45.7 C55.6,45.8 55.6,46 55.5,46.1 C55.2,46.7 54.8,47.2 53.9,47.2 C49.2,47.1 44.5,47.1 39.8,47 C39.7,47 39.5,47 39.3,46.9 C39.3,46.7 39.3,46.5 39.4,46.4 C40.9,43.9 41.9,41.1 42.9,38.3 C43.3,37.1 44,35.9 44.4,34.7 C45.5,31.3 45.7,27.9 44.4,24.5 C43.6,22.5 42.3,20.9 40.8,19.4 C38,16.6 35.1,13.8 32.3,10.9 C30.8,9.4 29.6,7.8 28.6,6 C28.5,5.9 28.5,5.8 28.5,5.7 C28.5,5.6 28.5,5.5 28.4,5.4 C28.6,5.4 28.7,5.3 28.8,5.3 C30.2,5.3 31.5,5.3 32.9,5.3 C33.3,5.3 33.6,5.4 33.7,5.8 C34.9,8.2 36.6,10.1 38.5,12 C40.1,13.6 41.8,15.1 43.4,16.7 C45.3,18.6 47.3,20.4 48.7,22.7 C49.3,23.7 49.8,24.8 50.1,26 C50.7,28.4 50.7,30.7 50,33 C49.6,34.5 48.9,35.8 48.4,37.3 C47.8,39 47.2,40.6 46.6,42.3 C46.5,42.7 46.7,42.7 47,42.7 C47.6,42.7 48.2,42.7 48.8,42.7 C51.5,42.7 54.2,42.7 56.9,42.7 C56.9,43 57,43.1 57,43.1 Z" id="Shape" fill="#000000"></path>
                    <path d="M84.5,47.5 C84.7,47.1 84.8,46.9 84.9,46.6 C86.4,44 87.5,41.2 88.4,38.4 C88.8,37.3 89.3,36.3 89.8,35.2 C90.5,33.6 90.8,31.8 90.7,30.1 C90.7,30 90.7,29.9 90.7,29.9 C90.7,28.9 90.7,29 91.7,29 C92.7,29 93.6,29 94.6,29 C95.3,29 95.4,29.1 95.4,29.8 C95.4,30.4 95.3,31 95.3,31.6 C95.3,31.8 95.3,31.9 95.4,32.1 C95.5,32 95.6,31.8 95.7,31.7 C96.5,30.6 97.3,29.5 98.6,29.1 C99.3,28.9 100.1,28.8 100.9,28.7 C101,28.7 101.2,28.9 101.2,29 C101.2,30.5 101.2,32 100.7,33.5 C100.6,33.9 100.3,33.9 100,33.9 C99.1,34 98.1,34.1 97.2,34.3 C96.3,34.5 95.6,35.1 95,35.8 C93.7,37.3 93.2,39.1 92.5,40.8 C91.7,42.9 90.6,44.9 89.6,47 C89.4,47.5 89.1,47.6 88.5,47.6 C87.4,47.5 86.2,47.5 85.1,47.5 C85,47.6 84.8,47.5 84.5,47.5 Z" id="Shape" fill="#000000"></path>
                    <path d="M70.1,43.9 C69.4,43.9 68.5,43.7 67.7,43 C67,42.4 66.8,41.5 66.7,40.7 C66.5,39.3 66.8,38 67.3,36.7 C68.6,33.5 69.3,30.2 69.8,26.9 C70.1,24.6 69.5,22.5 68,20.6 C66.7,19 65.5,17.4 64.3,15.8 C64,15.5 63.9,15 63.7,14.6 C63.5,14 63.7,13.6 64.4,13.6 C65.3,13.6 66.2,13.9 67,14.3 C68.9,15.4 70.7,16.7 72.4,18.1 C74.5,19.8 76.3,21.7 78,23.9 C79.8,26.3 81,28.9 80.9,32 C80.9,33.4 80.5,34.7 79.8,35.9 C78.8,37.6 77.9,39.3 76.8,40.8 C75.3,42.9 73.1,43.9 70.1,43.9 Z" id="Shape" fill="#FFFFFF"></path>
                    <path d="M31.8,32.6 C31.2,32.6 30.7,32.6 30.1,32.6 C29.7,32.6 29.6,32.5 29.6,32.1 C29.8,30 29.8,27.9 29.2,25.9 C28.7,24.5 28.1,23.2 27.2,22 C26.7,21.3 26.1,20.6 25.6,19.9 C25.3,19.5 25.5,19.4 25.8,19.2 C27.3,18.3 28.5,19.1 29.7,19.8 C31.7,21 33.3,22.7 34.8,24.5 C36,26 36.7,27.8 36.5,29.7 C36.3,31.4 35.4,32.2 33.9,32.5 C33.1,32.6 32.4,32.6 31.8,32.6 C31.8,32.7 31.8,32.6 31.8,32.6 Z" id="Shape" fill="#FFFFFF"></path>
                </g>
            </g>
        </g>
    </g>
</svg>