<?xml version="1.0" encoding="UTF-8"?>
<svg width="131px" height="37px" viewBox="0 0 131 37" version="1.1" xmlns="http://www.w3.org/2000/svg" xmlns:xlink="http://www.w3.org/1999/xlink">
    <!-- Generator: Sketch 49.3 (51167) - http://www.bohemiancoding.com/sketch -->
    <title>oCjNuo_1_</title>
    <desc>Created with Sketch.</desc>
    <defs></defs>
    <g id="Page-1" stroke="none" stroke-width="1" fill="none" fill-rule="evenodd">
        <g id="plork-logos" transform="translate(0.000000, -152.000000)" fill-rule="nonzero">
            <g id="oCjNuo_1_" transform="translate(0.000000, 152.000000)">
                <g id="Group">
                    <path d="M0.8,36.4 C0.8,24.3 0.8,12.1 0.8,0 C44,0 87.2,0 130.4,0 C130.4,12.1 130.4,24.3 130.4,36.4 C87.2,36.4 44,36.4 0.8,36.4 Z M56.6,33 C59.4,33 61.8,32.5 64.1,31.3 C66.7,30 69.2,28.6 71.7,27.2 C74.6,25.6 77.5,24 80.4,22.4 C83.3,20.8 86.2,18.9 88.8,16.8 C90.4,15.5 91.8,14.2 92.6,12.3 C93.5,10.3 93,8.6 91.2,7.7 C90.3,7.3 89.4,7.1 88.4,7 C86.6,6.8 84.7,6.9 82.9,7.4 C81.7,7.7 80.4,7.9 79.2,8.3 C76.1,9.4 73.3,11 70.5,12.7 C67.6,14.6 64.6,16.4 61.7,18.2 C59.7,19.4 57.8,20.7 55.9,22 C54,23.3 52.1,24.7 50.7,26.5 C48.9,28.8 49.4,30.9 52.1,32.1 C53.6,32.9 55.2,33.1 56.6,33 Z M104.5,23.4 C104.5,23.4 104.6,23.5 104.6,23.5 C104.4,23.8 104.2,24 103.9,24.3 C102.6,25.8 101.3,27.3 100.5,29.2 C100.1,30.1 99.8,31.1 100,32.1 C100.1,32.6 100.2,32.7 100.7,32.7 C102.3,32.7 104,32.7 105.6,32.8 C106.2,32.8 106.3,32.6 106.2,32.1 C106,30.4 106.3,28.8 107.2,27.4 C108.2,25.9 109.3,24.4 110.4,23 C110.8,22.5 111.3,22.2 111.9,22 C113.4,21.3 115,20.8 116.5,20.1 C120.1,18.5 123.6,16.9 127.1,15.3 C127.4,15.1 127.8,15 128.2,14.7 C128,14.6 127.9,14.6 127.8,14.6 C126,14.6 124.2,14.7 122.5,14.7 C122.3,14.7 122.2,14.8 122,14.8 C120.8,15.4 119.5,16 118.3,16.6 C115.2,18 112,19.5 108.9,20.9 C108.5,21.1 108,21.2 107.6,21.4 C107.6,21.3 107.5,21.3 107.5,21.2 C107.9,20.9 108.3,20.6 108.7,20.3 C111.2,18.6 113.8,16.9 116.2,15.1 C118.7,13.2 120.9,10.9 122.8,8.4 C123.3,7.8 123.8,7.1 124.3,6.3 C123.9,6.3 123.7,6.2 123.5,6.2 C122.3,6.2 121.1,6.3 119.8,6.3 C119.2,6.3 118.7,6.5 118.4,7 C118.2,7.4 117.9,7.7 117.7,8 C115.2,11.3 112.3,14.1 108.9,16.5 C106,18.5 103.1,20.4 100.1,22.3 C97.3,24.1 94.3,25.8 91.9,28.2 C90.9,29.2 90.1,30.3 89.4,31.4 C88.9,32.1 89.1,32.4 89.9,32.4 C91.1,32.4 92.3,32.4 93.6,32.4 C94.1,32.4 94.3,32.2 94.6,31.8 C95.3,30.7 96,29.6 96.9,28.6 C98.8,26.5 101.2,25 103.5,23.5 C103.9,23.6 104.2,23.5 104.5,23.4 Z M1.9,31.8 C2,31.9 2.1,31.9 2.2,31.9 C3.7,31.9 5.3,31.9 6.8,31.9 C7,31.9 7.3,31.7 7.5,31.5 C8.4,30.5 9.2,29.4 10.2,28.4 C12.3,26.4 14.9,24.9 17.3,23.3 C17.9,22.9 18.6,22.6 19.4,22.7 C20,22.7 20.6,22.7 21.3,22.7 C25.1,22.8 28.7,22.1 32.2,20.9 C35.3,19.8 38.3,18.5 41,16.6 C42.4,15.6 43.8,14.6 44.8,13.1 C45.7,11.7 45.9,10.9 45,10.1 C44.6,9.7 44.1,9.5 43.6,9.3 C42,8.7 40.3,8.8 38.7,8.8 C36.1,8.8 33.4,8.9 30.8,9 C30.6,9 30.3,9.1 30.1,9.3 C29.5,9.9 28.9,10.6 28.3,11.2 C27,12.5 25.7,13.9 24.2,15 C22.1,16.6 19.9,18.1 17.7,19.5 C15,21.3 12.2,23 9.5,24.8 C7.4,26.1 5.3,27.6 3.6,29.4 C2.9,30.2 2.2,30.8 1.9,31.8 Z M45.1,27.9 C44.7,27.9 44.5,27.8 44.3,27.8 C41.3,27.8 38.3,27.8 35.3,27.8 C34.9,27.8 34.6,27.7 34.2,27.6 C34.5,27.3 34.7,27 35,26.8 C37,25.4 39,24.1 41,22.8 C43.4,21.2 45.8,19.7 48.2,18.1 C49.9,17 51.5,15.8 53,14.5 C55,12.9 56.7,11 58.3,9 C58.4,8.9 58.5,8.7 58.6,8.5 C58.4,8.5 58.2,8.4 58,8.4 C56.6,8.4 55.1,8.5 53.7,8.5 C53.4,8.5 53.1,8.7 52.9,8.9 C51.3,10.6 49.8,12.4 48.1,13.9 C45.2,16.6 41.8,18.7 38.5,20.9 C35.2,23 32,25.2 28.8,27.4 C27.3,28.5 26,29.8 25,31.4 C24.9,31.6 24.8,31.8 24.7,32.1 C25,32.1 25.2,32.2 25.4,32.2 C30.7,32.2 36,32.3 41.3,32.3 C41.6,32.3 41.9,32 42.1,31.7 C42.5,31.2 42.8,30.5 43.3,30 C43.7,29.3 44.3,28.6 45.1,27.9 Z M107.2,15.1 C107.2,15 107.1,15 107.1,14.9 C103.8,14.8 101,16.3 98,17.5 C98,17.4 97.9,17.3 97.9,17.3 C98.7,16.7 99.5,16.1 100.4,15.3 C100,15.2 99.9,15.2 99.7,15.2 C98.6,15.2 97.5,15.2 96.4,15.2 C95.9,15.2 95.4,15.4 95,15.7 C93.5,16.7 92.2,17.9 90.7,18.9 C87.9,20.8 85,22.6 82.2,24.4 C79.8,26 77.5,27.6 75.6,29.8 C75,30.5 74.6,31.2 74.1,31.9 C73.8,32.3 74,32.6 74.5,32.6 C75.8,32.6 77.2,32.7 78.5,32.6 C78.8,32.6 79.2,32.4 79.3,32.1 C80.2,30.2 81.5,28.7 83.1,27.4 C85.9,25.1 88.9,23.1 92.2,21.5 C94.5,20.3 97,19.4 99.7,19.5 C100.6,19.5 101.4,19.2 102.1,18.7 C103.2,17.9 104.4,17.1 105.5,16.3 C106.1,15.9 106.6,15.5 107.2,15.1 Z" id="Shape" fill="#FFFFFF"></path>
                    <path d="M56.6,33 C55.2,33.1 53.6,32.9 52.1,32.3 C49.3,31.1 48.8,29 50.7,26.7 C52.1,24.9 54,23.5 55.9,22.2 C57.8,20.9 59.8,19.6 61.7,18.4 C64.6,16.5 67.6,14.7 70.5,12.9 C73.2,11.2 76.1,9.6 79.2,8.5 C80.4,8.1 81.7,7.9 82.9,7.6 C84.7,7.2 86.5,7 88.4,7.2 C89.4,7.3 90.3,7.5 91.2,7.9 C93,8.7 93.5,10.4 92.6,12.5 C91.8,14.4 90.4,15.8 88.8,17 C86.2,19.1 83.3,20.9 80.4,22.6 C77.5,24.2 74.6,25.8 71.7,27.4 C69.2,28.8 66.7,30.2 64.1,31.5 C61.8,32.5 59.4,33 56.6,33 Z M82.9,11.1 C80.5,11 78.4,11.9 76.4,13 C74.1,14.3 71.9,15.6 69.7,17 C66.2,19.3 62.7,21.6 59.2,24 C58.3,24.6 57.6,25.5 57,26.4 C56.4,27.3 56.9,28.3 58.1,28.5 C60,28.9 61.7,28.5 63.4,27.8 C65.6,27 67.8,26 69.9,24.9 C72.9,23.3 75.8,21.6 78.7,19.8 C80.3,18.8 81.8,17.7 83.2,16.5 C84.1,15.7 85,14.7 85.6,13.7 C86.5,12.3 85.8,11.1 84.1,11 C83.8,11.1 83.3,11.1 82.9,11.1 Z" id="Shape" fill="#000000"></path>
                    <path d="M104.5,23.4 C104.2,23.5 103.9,23.6 103.6,23.8 C101.3,25.4 98.9,26.8 97,28.9 C96.1,29.9 95.4,31 94.7,32.1 C94.4,32.5 94.2,32.7 93.7,32.7 C92.5,32.7 91.3,32.7 90,32.7 C89.1,32.7 88.9,32.4 89.5,31.7 C90.3,30.6 91.1,29.5 92,28.5 C94.4,26.1 97.3,24.4 100.2,22.6 C103.1,20.7 106.1,18.8 109,16.8 C112.4,14.5 115.3,11.6 117.8,8.3 C118.1,8 118.3,7.7 118.5,7.3 C118.8,6.7 119.3,6.6 119.9,6.6 C121.1,6.6 122.3,6.5 123.6,6.5 C123.8,6.5 124,6.5 124.4,6.6 C123.8,7.4 123.4,8 122.9,8.7 C121,11.2 118.8,13.5 116.3,15.4 C113.9,17.2 111.3,18.9 108.8,20.6 C108.4,20.9 108,21.2 107.6,21.5 C107.6,21.6 107.7,21.6 107.7,21.7 C108.1,21.5 108.6,21.4 109,21.2 C112.1,19.8 115.3,18.3 118.4,16.9 C119.7,16.3 120.9,15.7 122.1,15.1 C122.2,15 122.4,15 122.6,15 C124.4,15 126.2,14.9 127.9,14.9 C128,14.9 128,14.9 128.3,15 C127.8,15.2 127.5,15.4 127.2,15.6 C123.7,17.2 120.1,18.8 116.6,20.4 C115.1,21.1 113.5,21.6 112,22.3 C111.5,22.5 110.9,22.9 110.5,23.3 C109.4,24.7 108.3,26.2 107.3,27.7 C106.4,29.1 106.1,30.7 106.3,32.4 C106.3,32.9 106.2,33.1 105.7,33.1 C104.1,33.1 102.4,33 100.8,33 C100.3,33 100.2,32.8 100.1,32.4 C99.9,31.4 100.2,30.4 100.6,29.5 C101.3,27.6 102.6,26.1 104,24.6 C104.2,24.3 104.5,24.1 104.7,23.8 C104.6,23.5 104.6,23.4 104.5,23.4 Z" id="Shape" fill="#000000"></path>
                    <path d="M1.9,31.8 C2.2,30.8 2.9,30.2 3.5,29.5 C5.2,27.7 7.3,26.2 9.4,24.9 C12.2,23.2 14.9,21.4 17.6,19.6 C19.8,18.2 22,16.7 24.1,15.1 C25.6,14 26.9,12.6 28.2,11.3 C28.8,10.7 29.4,10 30,9.4 C30.2,9.2 30.5,9.1 30.7,9.1 C33.3,9 36,8.9 38.6,8.9 C40.3,8.9 41.9,8.9 43.5,9.4 C44,9.6 44.6,9.8 44.9,10.2 C45.8,11 45.6,11.8 44.7,13.2 C43.8,14.7 42.3,15.7 40.9,16.7 C38.2,18.6 35.2,20 32.1,21 C28.6,22.2 25,23 21.2,22.8 C20.6,22.8 20,22.8 19.3,22.8 C18.5,22.7 17.8,23 17.2,23.4 C14.7,25 12.2,26.5 10.1,28.5 C9.1,29.4 8.3,30.6 7.4,31.6 C7.2,31.8 6.9,32 6.7,32 C5.2,32 3.6,32 2.1,32 C2.1,31.9 2.1,31.8 1.9,31.8 Z M24.4,18.8 C24.4,18.9 24.4,18.9 24.5,19 C26.1,19.2 27.7,19.2 29.3,18.9 C31.8,18.5 34,17.4 36,15.9 C36.7,15.4 37.3,14.8 37.8,14.2 C38.3,13.6 38.1,13 37.3,12.8 C37,12.7 36.7,12.6 36.3,12.6 C35.1,12.6 34,12.6 32.8,12.6 C32.5,12.6 32.1,12.8 31.9,13 C30.2,14.7 28.2,16.2 26.2,17.5 C25.5,18 25,18.4 24.4,18.8 Z" id="Shape" fill="#000000"></path>
                    <path d="M45.1,27.9 C44.4,28.7 43.7,29.3 43.1,30 C42.7,30.5 42.3,31.2 41.9,31.7 C41.7,31.9 41.4,32.3 41.1,32.3 C35.8,32.3 30.5,32.2 25.2,32.2 C25,32.2 24.8,32.2 24.5,32.1 C24.6,31.8 24.7,31.6 24.8,31.4 C25.8,29.8 27.1,28.4 28.6,27.4 C31.8,25.2 35.1,23 38.3,20.9 C41.6,18.7 45,16.7 47.9,13.9 C49.6,12.3 51.1,10.5 52.7,8.9 C52.9,8.7 53.2,8.5 53.5,8.5 C54.9,8.4 56.4,8.4 57.8,8.4 C58,8.4 58.2,8.5 58.4,8.5 C58.3,8.7 58.3,8.9 58.1,9 C56.5,11 54.8,12.9 52.8,14.5 C51.2,15.8 49.6,17 48,18.1 C45.6,19.7 43.2,21.2 40.8,22.8 C38.8,24.1 36.8,25.5 34.8,26.8 C34.5,27 34.3,27.4 34,27.6 C34.4,27.7 34.7,27.8 35.1,27.8 C38.1,27.8 41.1,27.8 44.1,27.8 C44.5,27.8 44.7,27.8 45.1,27.9 Z" id="Shape" fill="#000000"></path>
                    <path d="M107.2,15.1 C106.7,15.5 106.1,15.9 105.6,16.3 C104.5,17.1 103.3,17.9 102.2,18.7 C101.5,19.2 100.7,19.5 99.8,19.5 C97.1,19.5 94.7,20.3 92.3,21.5 C89.1,23.2 86.1,25.2 83.2,27.4 C81.6,28.7 80.3,30.2 79.4,32.1 C79.3,32.3 78.9,32.6 78.6,32.6 C77.3,32.6 75.9,32.6 74.6,32.6 C74.1,32.6 73.9,32.4 74.2,31.9 C74.7,31.2 75.1,30.4 75.7,29.8 C77.6,27.6 79.9,26 82.3,24.4 C85.1,22.5 88,20.8 90.8,18.9 C92.3,17.9 93.6,16.8 95.1,15.7 C95.5,15.4 96,15.3 96.5,15.2 C97.6,15.1 98.7,15.2 99.8,15.2 C100,15.2 100.1,15.2 100.5,15.3 C99.6,16 98.8,16.6 98,17.3 C98,17.4 98.1,17.5 98.1,17.5 C101,16.2 103.9,14.8 107.2,14.9 C107.1,15 107.1,15 107.2,15.1 Z" id="Shape" fill="#000000"></path>
                    <path d="M82.9,11.1 C83.3,11.1 83.7,11.1 84.1,11.1 C85.8,11.2 86.5,12.4 85.6,13.8 C84.9,14.8 84.1,15.8 83.2,16.6 C81.8,17.8 80.3,18.9 78.7,19.9 C75.8,21.7 72.9,23.4 69.9,25 C67.8,26.1 65.6,27.1 63.4,27.9 C61.7,28.5 60,29 58.1,28.6 C57,28.4 56.4,27.4 57,26.5 C57.6,25.6 58.3,24.7 59.2,24.1 C62.6,21.7 66.1,19.4 69.7,17.1 C71.9,15.7 74.1,14.3 76.4,13.1 C78.5,11.9 80.6,11.1 82.9,11.1 Z" id="Shape" fill="#FFFFFF"></path>
                    <path d="M24.4,18.8 C25,18.4 25.5,18 26.1,17.6 C28.1,16.2 30.1,14.8 31.8,13.1 C32,12.9 32.4,12.7 32.7,12.7 C33.9,12.6 35,12.7 36.2,12.7 C36.5,12.7 36.9,12.8 37.2,12.9 C38,13.1 38.2,13.7 37.7,14.3 C37.2,14.9 36.6,15.5 35.9,16 C33.9,17.5 31.7,18.6 29.2,19 C27.6,19.3 26,19.3 24.4,19.1 C24.5,18.9 24.4,18.9 24.4,18.8 Z" id="Shape" fill="#FFFFFF"></path>
                </g>
            </g>
        </g>
    </g>
</svg>