<?xml version="1.0" encoding="UTF-8"?>
<svg width="134px" height="48px" viewBox="0 0 134 48" version="1.1" xmlns="http://www.w3.org/2000/svg" xmlns:xlink="http://www.w3.org/1999/xlink">
    <!-- Generator: Sketch 49.3 (51167) - http://www.bohemiancoding.com/sketch -->
    <title>UDSMjg_1_</title>
    <desc>Created with Sketch.</desc>
    <defs></defs>
    <g id="Page-1" stroke="none" stroke-width="1" fill="none" fill-rule="evenodd">
        <g id="plork-logos" transform="translate(-261.000000, -197.000000)" fill-rule="nonzero">
            <g id="UDSMjg_1_" transform="translate(261.000000, 197.000000)">
                <g id="Group">
                    <path d="M0.1,47.5 C0.1,31.7 0.1,15.9 0.1,0.1 C44.5,0.1 89,0.1 133.4,0.1 C133.4,15.9 133.4,31.7 133.4,47.5 C89,47.5 44.5,47.5 0.1,47.5 Z M88.2,16.5 C88.3,14.1 87.6,12.5 86.5,11.2 C84.4,8.6 81.5,7.5 78.3,7.1 C76.4,6.9 74.5,6.9 72.7,7.3 C70.3,7.7 68.3,8.8 66.4,10.3 C64.5,11.9 63.1,13.9 61.9,16 C60.6,18.1 59.4,20.2 58.1,22.3 C57,24 55.9,25.7 54.9,27.4 C54,28.8 53.7,30.4 54,32.1 C54.5,34.4 55.9,36.1 57.7,37.4 C59.4,38.7 61.4,39.6 63.5,40.1 C67.1,41 70.5,40.9 73.7,38.7 C75.9,37.2 77.8,35.3 79.1,32.9 C80.3,30.5 81.7,28.4 83.4,26.3 C84.4,25.1 85.4,23.8 86.2,22.5 C87.3,20.7 88.3,18.8 88.2,16.5 Z M17.8,26.6 C17.8,26.6 17.8,26.7 17.8,26.6 C19.2,26.6 20.5,26.5 21.8,26.3 C26.3,25.5 30.1,23.6 33.1,20.1 C34.6,18.3 35.4,16.1 35.4,13.8 C35.4,12.1 34.6,10.7 33.2,9.6 C31.6,8.4 29.8,7.8 27.9,7.7 C24.2,7.5 20.6,7.5 16.9,7.4 C15.2,7.4 15.3,7.2 15.3,9 C15.3,9 15.3,9.1 15.3,9.1 C15.1,11.8 14.7,14.4 13.7,16.9 C13.2,18.3 12.7,19.7 12,21 C10.8,23.1 9.3,25.1 8,27.2 C7.2,28.5 6.4,29.9 5.8,31.3 C4.9,33.6 5.1,36 5.2,38.3 C5.2,38.8 5.5,39.1 6,39.1 C7.7,39.1 9.3,39.1 11,39.2 C11.4,39.2 11.6,39 11.5,38.6 C11.5,37.6 11.4,36.5 11.5,35.5 C11.6,34.3 11.6,33.1 11.9,32 C12.3,30.1 13.3,28.5 14.4,27 C14.6,26.8 14.9,26.6 15.2,26.6 C16,26.6 16.9,26.6 17.8,26.6 Z M112.3,25.8 C112.2,25.8 112.2,25.7 112.1,25.7 C112.2,25.5 112.3,25.2 112.5,25 C113,24.3 113.4,23.6 113.9,22.9 C115.2,21.2 116.2,19.3 116.9,17.2 C117.8,14.4 118.5,11.6 118.4,8.6 C118.4,8.1 118.3,7.8 117.7,7.9 C116.2,7.9 114.7,7.9 113.1,7.9 C112.5,7.9 112.3,8.1 112.3,8.6 C112.2,10.2 112.1,11.7 111.8,13.3 C111.4,15.2 110.9,17.2 110.1,19 C109,21.6 107.3,23.8 105.7,26.1 C104.5,27.7 103.4,29.4 103,31.4 C102.5,34 102.3,36.7 102.9,39.4 C103.1,40.1 103.4,40.4 104.1,40.4 C105.6,40.4 107.1,40.4 108.6,40.4 C108.8,40.4 109,40.3 109.2,40.3 C108.1,35.5 108.6,31 110.5,28.3 C110.5,28.6 110.6,28.9 110.6,29.1 C110.7,29.8 110.6,30.5 110.8,31.2 C111.7,34.5 113.4,37.4 115.4,40.1 C115.5,40.3 115.9,40.4 116.2,40.4 C118.2,40.5 120.2,40.5 122.1,40.5 C122.2,40.5 122.4,40.4 122.5,40.3 C122.5,40.2 122.5,40 122.4,39.9 C121.2,38.1 119.9,36.4 118.8,34.6 C117.5,32.6 116.8,30.5 117,28.1 C117,27.7 117.2,27.1 117.5,26.9 C118.1,26.3 118.8,25.9 119.4,25.4 C122.5,23 125.6,20.6 128.7,18.2 C129.1,17.9 129.5,17.5 130,17 C129.7,16.9 129.5,16.8 129.4,16.8 C127.5,16.8 125.6,16.8 123.7,16.8 C123.4,16.8 123.1,17 122.9,17.2 C121.9,18.1 121.1,19 120.1,19.8 C118,21.6 115.8,23.3 113.7,25 C113.1,25.2 112.7,25.5 112.3,25.8 Z M40.3,39.4 C40.3,39.5 40.3,39.5 40.3,39.6 C43.2,39.6 46.2,39.6 49.1,39.6 C49.6,39.6 49.8,39.5 49.7,38.9 C49.6,37.8 49.5,36.6 49.5,35.5 C49.5,34.5 49.5,34.5 48.5,34.5 C44.7,34.5 41,34.4 37.2,34.4 C36.8,34.4 36.6,34.3 36.7,33.9 C36.9,32.7 37.1,31.5 37.5,30.3 C38.2,28.3 39.4,26.7 40.7,25 C42.7,22.3 44.4,19.4 45.4,16.2 C46.2,13.5 46.4,10.8 46.7,8 C46.7,7.9 46.4,7.5 46.2,7.5 C44.5,7.5 42.7,7.5 40.9,7.5 C40.4,7.5 40.3,7.7 40.2,8.2 C39.9,10.4 39.8,12.6 39.3,14.8 C38.7,17.5 37.7,20 36.2,22.3 C35,24 33.9,25.7 32.7,27.4 C31.8,28.8 31,30.2 30.7,31.8 C30.2,33.9 30.2,36 30.4,38.1 C30.5,39.3 30.5,39.3 31.8,39.3 C34.7,39.4 37.5,39.4 40.3,39.4 Z M98.3,20.1 C98.2,20.1 98.2,20 98.1,20 C98.2,19.7 98.2,19.5 98.3,19.2 C98.5,18.6 98.7,18 98.9,17.4 C99,17 98.9,16.8 98.5,16.8 C97.1,16.8 95.6,16.8 94.2,16.8 C93.8,16.8 93.5,17 93.4,17.4 C93.3,17.9 93.1,18.4 92.9,18.9 C91.9,21.5 90.2,23.6 88.6,25.9 C87.8,27.1 86.9,28.4 86.4,29.8 C85.3,32.9 85.3,36.1 85.8,39.3 C85.9,39.7 86.1,39.9 86.6,39.9 C88.2,39.9 89.8,39.9 91.4,40 C91.8,40 91.9,39.8 91.9,39.4 C91.8,37.9 91.7,36.3 91.6,34.8 C91.6,33.9 91.6,32.9 91.7,32 C92,29.8 93.1,27.9 94.5,26.3 C96.5,24 98.9,22.4 102.1,22.6 C103.1,22.6 103.8,22.3 104.2,21.4 C104.8,20.1 105.5,18.8 106.1,17.4 C106.3,16.9 106.2,16.6 105.5,16.6 C103.4,16.7 101.6,17.3 100,18.6 C99.5,19.1 98.9,19.6 98.3,20.1 Z" id="Shape" fill="#FFFFFF"></path>
                    <path d="M88.2,16.5 C88.3,18.8 87.3,20.8 86.1,22.6 C85.2,23.9 84.3,25.2 83.3,26.4 C81.6,28.4 80.2,30.6 79,33 C77.8,35.5 75.9,37.3 73.6,38.8 C70.4,41 67,41.1 63.4,40.2 C61.3,39.7 59.3,38.8 57.6,37.5 C55.8,36.1 54.4,34.5 53.9,32.2 C53.5,30.5 53.9,28.9 54.8,27.5 C55.8,25.8 57,24.1 58,22.4 C59.3,20.3 60.5,18.2 61.8,16.1 C63.1,14 64.4,12 66.3,10.4 C68.1,8.9 70.2,7.8 72.6,7.4 C74.5,7.1 76.4,7 78.2,7.2 C81.4,7.6 84.3,8.7 86.4,11.3 C87.6,12.5 88.2,14.1 88.2,16.5 Z M75.9,11.6 C74.3,11.5 72.8,11.9 71.5,12.9 C69.8,14.1 68.6,15.8 67.5,17.6 C66.2,19.8 64.8,22 63.4,24.2 C62.3,25.9 61.1,27.6 60.6,29.6 C60.2,31.3 60.7,32.8 61.9,34 C63,35.1 64.3,35.4 65.8,35.5 C68.3,35.7 70.5,35 72,32.9 C73.1,31.3 74.2,29.7 75.3,28.1 C76.8,25.9 78.4,23.8 79.9,21.6 C81.1,19.9 81.6,17.9 81.3,15.8 C81.2,14.9 80.8,13.9 80.2,13.2 C79.2,11.9 77.7,11.5 75.9,11.6 Z" id="Shape" fill="#000000"></path>
                    <path d="M17.8,26.6 C16.9,26.6 16,26.6 15.1,26.6 C14.8,26.6 14.5,26.8 14.3,27 C13.2,28.5 12.2,30.2 11.8,32 C11.5,33.1 11.5,34.3 11.4,35.5 C11.3,36.5 11.4,37.6 11.4,38.6 C11.4,39 11.3,39.2 10.9,39.2 C9.2,39.2 7.6,39.2 5.9,39.1 C5.4,39.1 5.2,38.9 5.1,38.3 C5,35.9 4.8,33.5 5.7,31.3 C6.3,29.9 7,28.5 7.9,27.2 C9.2,25.1 10.7,23.1 11.9,21 C12.6,19.7 13.1,18.3 13.6,16.9 C14.6,14.4 14.9,11.7 15.2,9.1 C15.2,9.1 15.2,9 15.2,9 C15.2,7.2 15.1,7.4 16.8,7.4 C20.5,7.4 24.1,7.5 27.8,7.7 C29.7,7.8 31.5,8.4 33.1,9.6 C34.5,10.7 35.3,12.1 35.3,13.8 C35.3,16.2 34.5,18.3 33,20.1 C30,23.6 26.2,25.5 21.7,26.3 C20.5,26.5 19.2,26.6 17.8,26.6 C17.8,26.7 17.8,26.6 17.8,26.6 Z M20.8,21.2 C20.8,21.2 20.8,21.3 20.8,21.3 C21.7,21.2 22.6,21.1 23.5,21 C26.7,20.6 28.5,17.7 28.6,14.9 C28.6,13.7 28.1,13.1 27,12.7 C25.2,12 23.4,12.3 21.5,12.4 C21.3,12.4 21,12.7 21,12.9 C20.6,15.5 19.7,18.1 18.5,20.4 C18.3,20.9 18.4,21.1 18.9,21.1 C19.6,21.2 20.2,21.2 20.8,21.2 Z" id="Shape" fill="#000000"></path>
                    <path d="M112.3,25.8 C112.7,25.5 113.1,25.3 113.5,25 C115.7,23.3 117.8,21.6 119.9,19.8 C120.9,19 121.8,18 122.7,17.2 C122.9,17 123.2,16.8 123.5,16.8 C125.4,16.8 127.3,16.8 129.2,16.8 C129.3,16.8 129.4,16.9 129.8,17 C129.3,17.4 128.9,17.8 128.5,18.2 C125.4,20.6 122.3,23 119.2,25.4 C118.6,25.9 117.8,26.3 117.3,26.9 C117,27.2 116.9,27.7 116.8,28.1 C116.6,30.5 117.3,32.7 118.6,34.6 C119.8,36.4 121,38.2 122.2,39.9 C122.3,40 122.4,40.2 122.3,40.3 C122.2,40.4 122,40.5 121.9,40.5 C119.9,40.5 117.9,40.5 116,40.4 C115.7,40.4 115.4,40.3 115.2,40.1 C113.2,37.4 111.5,34.5 110.6,31.2 C110.4,30.5 110.5,29.8 110.4,29.1 C110.4,28.9 110.4,28.6 110.3,28.3 C108.4,31 108,35.4 109,40.3 C108.8,40.3 108.6,40.4 108.4,40.4 C106.9,40.4 105.4,40.4 103.9,40.4 C103.2,40.4 102.8,40.1 102.7,39.4 C102.1,36.7 102.2,34 102.8,31.4 C103.2,29.4 104.3,27.7 105.5,26.1 C107.1,23.9 108.8,21.6 109.9,19 C110.6,17.2 111.2,15.3 111.6,13.3 C111.9,11.8 112,10.2 112.1,8.6 C112.1,8 112.3,7.8 112.9,7.9 C114.4,7.9 115.9,8 117.5,7.9 C118.1,7.9 118.2,8.1 118.2,8.6 C118.3,11.6 117.6,14.4 116.7,17.2 C116,19.3 115,21.2 113.7,22.9 C113.2,23.6 112.7,24.3 112.3,25 C112.2,25.2 112,25.5 111.9,25.7 C112.2,25.7 112.2,25.7 112.3,25.8 Z" id="Shape" fill="#000000"></path>
                    <path d="M40.3,39.4 C37.5,39.4 34.6,39.4 31.8,39.4 C30.6,39.4 30.5,39.4 30.4,38.2 C30.2,36.1 30.3,34 30.7,31.9 C31.1,30.3 31.8,28.8 32.7,27.5 C33.9,25.8 35,24.1 36.2,22.4 C37.8,20.1 38.8,17.6 39.3,14.9 C39.7,12.7 39.9,10.5 40.2,8.3 C40.3,7.8 40.4,7.6 40.9,7.6 C42.7,7.6 44.4,7.6 46.2,7.6 C46.4,7.6 46.7,7.9 46.7,8.1 C46.4,10.8 46.2,13.6 45.4,16.3 C44.4,19.6 42.7,22.4 40.7,25.1 C39.5,26.8 38.2,28.4 37.5,30.4 C37.1,31.5 37,32.8 36.7,34 C36.6,34.4 36.9,34.5 37.2,34.5 C41,34.5 44.7,34.6 48.5,34.6 C49.5,34.6 49.5,34.6 49.5,35.6 C49.5,36.7 49.6,37.9 49.7,39 C49.8,39.5 49.6,39.7 49.1,39.7 C46.2,39.7 43.2,39.7 40.3,39.7 C40.3,39.5 40.3,39.5 40.3,39.4 Z" id="Shape" fill="#000000"></path>
                    <path d="M98.3,20.1 C98.9,19.6 99.5,19.1 100.1,18.6 C101.7,17.3 103.6,16.7 105.6,16.6 C106.2,16.6 106.4,16.9 106.2,17.4 C105.6,18.7 104.9,20 104.3,21.4 C103.9,22.4 103.2,22.7 102.2,22.6 C99,22.5 96.6,24 94.6,26.3 C93.2,28 92.1,29.8 91.8,32 C91.7,32.9 91.6,33.9 91.7,34.8 C91.7,36.3 91.9,37.9 92,39.4 C92,39.8 91.9,40 91.5,40 C89.9,40 88.3,39.9 86.7,39.9 C86.3,39.9 86,39.7 85.9,39.3 C85.4,36.1 85.3,32.9 86.5,29.8 C87,28.4 87.9,27.2 88.7,25.9 C90.2,23.6 92,21.5 93,18.9 C93.2,18.4 93.3,17.9 93.5,17.4 C93.6,17 93.8,16.8 94.3,16.8 C95.7,16.8 97.2,16.8 98.6,16.8 C99,16.8 99.2,17 99,17.4 C98.8,18 98.6,18.6 98.4,19.2 C98.3,19.4 98.3,19.7 98.2,20 C98.2,20 98.3,20 98.3,20.1 Z" id="Shape" fill="#000000"></path>
                    <path d="M75.9,11.6 C77.7,11.5 79.3,11.8 80.3,13.2 C80.9,13.9 81.2,14.9 81.4,15.8 C81.7,17.9 81.2,19.9 80,21.6 C78.5,23.8 76.9,25.9 75.4,28.1 C74.3,29.7 73.2,31.3 72.1,32.9 C70.6,35 68.4,35.7 65.9,35.5 C64.5,35.4 63.1,35.1 62,34 C60.8,32.8 60.3,31.3 60.7,29.6 C61.1,27.5 62.4,25.9 63.5,24.2 C64.9,22 66.3,19.8 67.6,17.6 C68.7,15.8 69.8,14.1 71.6,12.9 C72.8,11.9 74.3,11.5 75.9,11.6 Z" id="Shape" fill="#FFFFFF"></path>
                    <path d="M20.8,21.2 C20.2,21.2 19.6,21.2 19,21.2 C18.5,21.2 18.3,21 18.6,20.5 C19.8,18.1 20.7,15.6 21.1,13 C21.1,12.8 21.4,12.5 21.6,12.5 C23.4,12.4 25.3,12.1 27.1,12.8 C28.2,13.2 28.7,13.9 28.7,15 C28.6,17.8 26.8,20.7 23.6,21.1 C22.7,21.2 21.8,21.3 20.9,21.4 C20.8,21.3 20.8,21.2 20.8,21.2 Z" id="Shape" fill="#FFFFFF"></path>
                </g>
            </g>
        </g>
    </g>
</svg>