<?xml version="1.0" encoding="UTF-8"?>
<svg width="141px" height="52px" viewBox="0 0 141 52" version="1.1" xmlns="http://www.w3.org/2000/svg" xmlns:xlink="http://www.w3.org/1999/xlink">
    <!-- Generator: Sketch 49.3 (51167) - http://www.bohemiancoding.com/sketch -->
    <title>TMsa3z_1_</title>
    <desc>Created with Sketch.</desc>
    <defs></defs>
    <g id="Page-1" stroke="none" stroke-width="1" fill="none" fill-rule="evenodd">
        <g id="plork-logos" transform="translate(-818.000000, -1.000000)" fill-rule="nonzero">
            <g id="TMsa3z_1_" transform="translate(818.000000, 1.000000)">
                <g id="Group">
                    <path d="M0.8,51.6 C0.8,34.7 0.8,17.7 0.8,0.8 C47.3,0.8 93.8,0.8 140.3,0.8 C140.3,17.7 140.3,34.7 140.3,51.6 C93.8,51.6 47.3,51.6 0.8,51.6 Z M52,30.6 C52.1,35.6 54.3,39.6 58,42.7 C60.3,44.7 63.1,45.7 66.1,46 C68.7,46.3 71.3,46.1 73.6,44.7 C75.3,43.7 76.6,42.4 77.4,40.6 C78.6,38 79.3,35.3 79.7,32.5 C80,30.6 80.1,28.7 80.6,26.8 C81.2,23.9 82.5,21.3 84.1,18.9 C85.9,16.1 87.7,13.3 89.5,10.4 C89.9,9.8 90.1,9.1 90.2,8.4 C90.4,7.4 90,6.6 89.1,6.2 C88.1,5.7 87.1,5.6 86,5.6 C83.3,5.7 80.7,6.3 78.1,7.3 C74.6,8.7 71.2,10.3 68,12.3 C63.8,15 59.7,17.9 56.1,21.5 C53.5,24.1 52,27 52,30.6 Z M5.4,32.3 C5.5,34 5.6,35.4 5.8,36.8 C6.1,39.8 6.7,42.8 7.5,45.7 C7.6,46.2 7.9,46.3 8.3,46.3 C9,46.3 9.7,46.3 10.4,46.3 C11.3,46.3 12.3,46.2 13.2,46.2 C13.5,46.2 13.7,46.1 13.6,45.6 C13.2,44 12.8,42.4 12.5,40.8 C12.1,38.7 11.9,36.5 11.6,34.3 C11.5,33.5 11.6,33.4 12.4,33.4 C14.3,33.3 16.3,33.3 18.2,33.1 C20.2,32.9 22,32 23.6,30.7 C25.3,29.2 26.3,27.1 27.4,25.2 C28.1,24.1 28.6,22.9 29.4,21.8 C30.9,19.6 32.4,17.5 33.9,15.3 C34.6,14.3 35.2,13.3 35.2,12.1 C35.2,11.3 34.9,10.8 34.2,10.4 C33,9.8 31.7,9.8 30.5,9.8 C27.2,9.9 23.9,10.1 20.5,10.3 C20.1,10.3 19.6,10.4 19.4,10.7 C17.7,12.2 16.1,13.8 14.4,15.4 C12.7,17.1 11.1,18.8 9.5,20.5 C7.7,22.5 6.4,24.8 5.8,27.4 C5.6,29 5.6,30.8 5.4,32.3 Z M128.3,3.7 C128.2,3.6 128.2,3.5 128.1,3.5 C127.7,3.6 127.3,3.6 126.9,3.7 C125.5,3.8 124.1,3.9 122.7,4 C122.4,4 122.1,4.2 121.9,4.4 C120.6,5.8 119.3,7.2 117.9,8.6 C116.5,10 114.9,11.3 113.4,12.7 C111.3,14.7 109.3,16.7 107.3,18.8 C106.1,20.1 104.9,21.5 104,22.9 C102.3,25.6 101.7,28.6 101.6,31.7 C101.5,35.8 102.3,39.8 103.1,43.8 C103.2,44.3 103.5,44.6 104,44.6 C105.3,44.6 106.5,44.5 107.8,44.5 C109.4,44.5 109.4,44.5 109,42.9 C108.6,41.4 108.3,39.8 108.1,38.3 C107.9,36.5 107.8,34.6 107.7,32.7 C107.7,32.5 107.8,32.3 107.8,32.1 C108.1,32.3 108.3,32.6 108.4,32.8 C109.2,34.2 109.9,35.6 110.7,36.9 C112.1,39.2 113.6,41.5 115.1,43.8 C115.3,44 115.7,44.2 116,44.2 C117.9,44.2 119.8,44.2 121.7,44.1 C121.9,44.1 122,44.1 122.3,44 C122.2,43.7 122.1,43.5 122,43.4 C121.3,42.3 120.5,41.3 119.7,40.2 C117.8,37.3 115.9,34.3 114,31.4 C113.7,30.9 113.7,30.4 114.1,30 C115,28.9 115.9,27.7 116.9,26.6 C118.4,25 120,23.5 121.7,22.1 C122.7,21.2 123.8,20.6 124.8,19.8 C125,19.7 125.2,19.5 125.4,19.3 C125.2,19.2 125,19.2 124.9,19.2 C123.3,19.3 121.8,19.3 120.2,19.4 C119.5,19.4 118.8,19.5 118.3,19.8 C117,20.6 115.9,21.5 114.7,22.5 C112.4,24.6 110.2,26.8 108.5,29.4 C108.4,29.6 108.2,29.7 108,30 C107.9,29.7 107.9,29.5 107.9,29.3 C108,28.4 108.2,27.5 108.4,26.6 C109.2,23.7 110.8,21.2 112.9,19.1 C115.2,16.7 117.5,14.4 119.9,12.1 C122.2,9.9 124.5,7.8 126.8,5.6 C127.3,5.2 127.8,4.4 128.3,3.7 Z M52.5,8.9 C52.5,8.8 52.5,8.8 52.5,8.7 C52.2,8.7 52,8.6 51.7,8.6 C50.5,8.7 49.3,8.8 48.1,8.8 C46.9,8.8 46,9.1 45.1,10 C42.4,12.7 39.6,15.2 36.9,17.8 C35.1,19.6 33.4,21.5 32.2,23.8 C30.7,26.7 30.4,29.9 30.4,33.1 C30.4,35.9 30.8,38.7 31.4,41.5 C31.6,42.7 32,43.9 32.3,45.1 C32.4,45.6 32.7,45.9 33.3,45.7 C33.4,45.7 33.6,45.7 33.7,45.7 C39.3,45.6 45,45.5 50.6,45.4 C51.1,45.4 51.3,45.2 51.2,44.7 C50.9,43.2 50.5,41.8 50.2,40.3 C50.1,39.9 49.9,39.8 49.5,39.8 C45.7,39.9 42,39.9 38.2,40 C37.5,40 37.3,39.8 37.2,39.2 C36.6,35.1 36.2,31.1 37.1,27 C37.6,24.7 38.6,22.6 40.1,20.9 C42,18.8 43.9,16.7 45.9,14.7 C47.3,13.2 48.8,11.9 50.3,10.5 C51.1,10.1 51.8,9.5 52.5,8.9 Z M93.7,21.1 C93.4,21.1 93.3,21 93.2,21 C92,21 90.8,21.2 89.6,21.1 C88.4,21 87.8,21.7 87.3,22.6 C85.6,25.6 85,28.8 85,32.2 C85,35 85.2,37.7 85.8,40.5 C86.1,41.8 86.4,43.1 86.6,44.4 C86.7,44.8 86.9,45 87.3,45 C88.9,45 90.5,45 92.1,44.9 C92.3,44.9 92.6,44.6 92.5,44.4 C92.2,42.9 92,41.5 91.6,40 C91,37.2 90.8,34.5 91,31.7 C91.2,29.9 92,28.4 93.9,27.7 C94.9,27.4 96,27.3 97,27.2 C97.6,27.1 98,26.9 98.2,26.3 C98.5,25.4 98.8,24.6 99.2,23.8 C99.8,22.7 100.6,21.6 101.4,20.4 C97.5,20.5 94.5,22.3 91.8,24.8 C92,23.3 93,22.3 93.7,21.1 Z" id="Shape" fill="#FFFFFF"></path>
                    <path d="M52,30.6 C52,27 53.5,24.1 56.1,21.6 C59.7,18.1 63.8,15.2 68,12.4 C71.2,10.4 74.5,8.8 78.1,7.4 C80.6,6.4 83.3,5.8 86,5.7 C87.1,5.7 88.1,5.8 89.1,6.3 C90,6.8 90.4,7.6 90.2,8.5 C90.1,9.2 89.8,9.9 89.5,10.5 C87.7,13.3 85.9,16.2 84.1,19 C82.5,21.5 81.2,24.1 80.6,26.9 C80.2,28.8 80.1,30.7 79.7,32.6 C79.2,35.4 78.6,38.1 77.4,40.7 C76.6,42.4 75.3,43.8 73.6,44.8 C71.3,46.2 68.7,46.3 66.1,46.1 C63.1,45.8 60.4,44.7 58,42.8 C54.2,39.6 52.1,35.6 52,30.6 Z M66.2,40.7 C69,40.9 70.9,39.6 71.9,37 C72.9,34.6 73,32.1 73.5,29.6 C73.8,27.9 74.1,26.1 74.7,24.4 C75.5,22.2 76.7,20.2 77.6,18.1 C78,17.1 78.4,16.1 78.6,15 C78.8,14.2 78.3,13.7 77.4,13.7 C76.5,13.7 75.5,13.7 74.7,14 C73,14.7 71.3,15.5 69.6,16.3 C67.3,17.5 65.3,19.2 63.3,20.9 C61.2,22.7 59.6,24.9 59,27.6 C58.4,30.1 58.4,32.7 59.4,35.2 C60.6,38.3 62.7,40.6 66.2,40.7 Z" id="Shape" fill="#000000"></path>
                    <path d="M5.4,32.3 C5.6,30.8 5.7,29 6,27.3 C6.6,24.7 7.9,22.4 9.7,20.4 C11.3,18.7 12.9,17 14.6,15.3 C16.2,13.7 17.9,12.2 19.6,10.6 C19.9,10.4 20.3,10.3 20.7,10.2 C24,10 27.3,9.9 30.7,9.7 C32,9.7 33.2,9.7 34.4,10.3 C35.1,10.7 35.4,11.2 35.4,12 C35.3,13.2 34.7,14.3 34.1,15.2 C32.6,17.4 31.1,19.5 29.6,21.7 C28.9,22.8 28.3,24 27.6,25.1 C26.4,27 25.5,29.1 23.8,30.6 C22.2,31.9 20.4,32.8 18.4,33 C16.5,33.2 14.5,33.2 12.6,33.3 C11.8,33.3 11.7,33.4 11.8,34.2 C12.1,36.4 12.3,38.5 12.7,40.7 C13,42.3 13.4,43.9 13.8,45.5 C13.9,46 13.7,46.1 13.4,46.1 C12.5,46.2 11.5,46.2 10.6,46.2 C9.9,46.2 9.2,46.2 8.5,46.2 C8,46.2 7.8,46 7.7,45.6 C6.9,42.7 6.2,39.7 6,36.7 C5.6,35.4 5.5,34 5.4,32.3 Z M14.5,28.2 C14.5,28.2 14.5,28.2 14.5,28.2 C15.1,28.1 15.7,28.2 16.3,28.1 C17.7,28 19.1,27.5 19.9,26.3 C21.2,24.3 22.4,22.3 23.5,20.2 C24.1,19 23.5,18.1 22.2,18.1 C20.8,18.1 19.4,18.2 18,18.3 C17.7,18.3 17.4,18.5 17.2,18.7 C15.8,20.4 14.2,21.9 13.3,24 C12.8,25.1 12.4,26.3 12,27.5 C11.8,28 12,28.3 12.6,28.3 C13.3,28.2 13.9,28.2 14.5,28.2 Z" id="Shape" fill="#000000"></path>
                    <path d="M128.3,3.7 C127.8,4.4 127.3,5.1 126.7,5.7 C124.4,7.9 122.1,10 119.8,12.2 C117.4,14.5 115.1,16.8 112.8,19.2 C110.7,21.4 109.1,23.8 108.3,26.7 C108.1,27.6 108,28.5 107.8,29.4 C107.8,29.6 107.9,29.7 107.9,30.1 C108.2,29.8 108.3,29.7 108.4,29.5 C110.1,26.9 112.3,24.6 114.6,22.6 C115.7,21.6 116.9,20.7 118.2,19.9 C118.7,19.6 119.5,19.6 120.1,19.5 C121.7,19.4 123.2,19.4 124.8,19.3 C124.9,19.3 125,19.3 125.3,19.4 C125,19.6 124.9,19.8 124.7,19.9 C123.7,20.7 122.5,21.3 121.6,22.2 C119.9,23.7 118.3,25.2 116.8,26.7 C115.8,27.7 115,28.9 114,30.1 C113.6,30.6 113.6,31 113.9,31.5 C115.8,34.4 117.7,37.4 119.6,40.3 C120.3,41.4 121.1,42.4 121.9,43.5 C122,43.7 122.1,43.9 122.2,44.1 C121.9,44.1 121.8,44.2 121.6,44.2 C119.7,44.2 117.8,44.3 115.9,44.3 C115.6,44.3 115.2,44.1 115,43.9 C113.5,41.6 112,39.3 110.6,37 C109.8,35.7 109.1,34.3 108.3,32.9 C108.2,32.6 108,32.4 107.7,32.2 C107.7,32.4 107.6,32.6 107.6,32.8 C107.7,34.7 107.8,36.5 108,38.4 C108.2,40 108.5,41.5 108.9,43 C109.3,44.6 109.3,44.6 107.7,44.6 C106.4,44.6 105.2,44.6 103.9,44.7 C103.3,44.7 103.1,44.5 103,43.9 C102.2,39.9 101.4,35.9 101.5,31.8 C101.6,28.7 102.2,25.6 103.9,23 C104.9,21.5 106,20.2 107.2,18.9 C109.2,16.8 111.2,14.8 113.3,12.8 C114.7,11.4 116.3,10.1 117.8,8.7 C119.2,7.4 120.4,5.9 121.8,4.5 C122,4.3 122.3,4.1 122.6,4.1 C124,4 125.4,3.9 126.8,3.8 C127.2,3.8 127.6,3.7 128,3.6 C128.2,3.6 128.3,3.7 128.3,3.7 Z" id="Shape" fill="#000000"></path>
                    <path d="M52.5,8.9 C51.8,9.5 51.1,10.1 50.5,10.7 C49,12.1 47.5,13.5 46.1,14.9 C44.1,16.9 42.2,19 40.3,21.1 C38.8,22.8 37.8,24.9 37.3,27.2 C36.4,31.3 36.7,35.3 37.4,39.4 C37.5,40 37.8,40.2 38.4,40.2 C42.2,40.1 45.9,40 49.7,40 C50.1,40 50.3,40.1 50.4,40.5 C50.7,42 51,43.4 51.4,44.9 C51.5,45.4 51.3,45.6 50.8,45.6 C45.2,45.7 39.5,45.8 33.9,45.9 C33.8,45.9 33.6,45.9 33.5,45.9 C32.9,46.1 32.6,45.8 32.5,45.3 C32.2,44.1 31.9,42.9 31.6,41.7 C31.1,38.9 30.7,36.1 30.6,33.3 C30.5,30.1 30.8,26.9 32.4,24 C33.6,21.7 35.3,19.8 37.1,18 C39.8,15.4 42.6,12.8 45.3,10.2 C46.2,9.3 47.1,9 48.3,9 C49.5,9 50.7,8.9 51.9,8.8 C52.2,8.8 52.4,8.8 52.7,8.9 C52.4,8.8 52.5,8.9 52.5,8.9 Z" id="Shape" fill="#000000"></path>
                    <path d="M93.7,21.1 C93,22.4 92,23.4 91.8,24.8 C94.5,22.3 97.5,20.4 101.4,20.4 C100.6,21.6 99.8,22.7 99.2,23.8 C98.8,24.6 98.4,25.4 98.2,26.3 C98,26.9 97.7,27.1 97,27.2 C95.9,27.3 94.9,27.4 93.9,27.7 C92.1,28.3 91.2,29.8 91,31.7 C90.8,34.5 91,37.3 91.6,40 C91.9,41.5 92.2,42.9 92.5,44.4 C92.5,44.5 92.2,44.9 92.1,44.9 C90.5,45 88.9,45 87.3,45 C86.9,45 86.7,44.8 86.6,44.4 C86.3,43.1 86,41.8 85.8,40.5 C85.2,37.8 85,35 85,32.2 C85,28.8 85.7,25.6 87.3,22.6 C87.8,21.7 88.4,21 89.6,21.1 C90.8,21.2 92,21 93.2,21 C93.3,21 93.4,21 93.7,21.1 Z" id="Shape" fill="#000000"></path>
                    <path d="M66.2,40.7 C62.6,40.6 60.5,38.3 59.3,35.2 C58.4,32.7 58.3,30.2 58.9,27.6 C59.5,24.9 61.1,22.7 63.2,20.9 C65.2,19.2 67.2,17.6 69.5,16.3 C71.1,15.4 72.8,14.6 74.6,14 C75.4,13.7 76.4,13.7 77.3,13.7 C78.1,13.7 78.6,14.2 78.5,15 C78.3,16.1 77.9,17.1 77.5,18.1 C76.6,20.2 75.4,22.2 74.6,24.4 C74,26 73.7,27.8 73.4,29.6 C73,32.1 72.8,34.6 71.8,37 C70.9,39.6 69.1,40.8 66.2,40.7 Z" id="Shape" fill="#FFFFFF"></path>
                    <path d="M14.5,28.2 C13.9,28.2 13.3,28.1 12.7,28.2 C12,28.3 11.9,27.9 12.1,27.4 C12.5,26.2 12.9,25 13.4,23.9 C14.3,21.9 15.9,20.3 17.3,18.6 C17.5,18.4 17.8,18.2 18.1,18.2 C19.5,18.1 20.9,18 22.3,18 C23.6,18 24.2,18.9 23.6,20.1 C22.5,22.2 21.3,24.2 20,26.2 C19.2,27.4 17.9,27.9 16.4,28 C15.8,28.2 15.1,28.2 14.5,28.2 C14.5,28.2 14.5,28.2 14.5,28.2 Z" id="Shape" fill="#FFFFFF"></path>
                </g>
            </g>
        </g>
    </g>
</svg>