<?xml version="1.0" encoding="UTF-8"?>
<svg width="105px" height="35px" viewBox="0 0 105 35" version="1.1" xmlns="http://www.w3.org/2000/svg" xmlns:xlink="http://www.w3.org/1999/xlink">
    <!-- Generator: Sketch 49.3 (51167) - http://www.bohemiancoding.com/sketch -->
    <title>L57kKZ_1_</title>
    <desc>Created with Sketch.</desc>
    <defs></defs>
    <g id="Page-1" stroke="none" stroke-width="1" fill="none" fill-rule="evenodd">
        <g id="plork-logos" transform="translate(-133.000000, -294.000000)" fill-rule="nonzero">
            <g id="L57kKZ_1_" transform="translate(133.000000, 294.000000)">
                <g id="Group">
                    <path d="M0.7,34.9 C0.7,23.3 0.7,11.7 0.7,0.1 C35.4,0.1 70.1,0.1 104.8,0.1 C104.8,11.7 104.8,23.3 104.8,34.9 C70.1,34.9 35.4,34.9 0.7,34.9 Z M45.4,1.7 C44.8,1.8 44.2,1.8 43.5,1.9 C41.3,2.2 39.4,3.2 38.1,5.1 C37.2,6.3 37.3,7.7 38.4,8.6 C39.1,9.2 39.8,9.8 40.5,10.3 C43.5,12 46.5,13.7 49.5,15.4 C51.1,16.3 52.8,17.3 54.1,18.6 C55,19.5 55.7,20.5 56,21.8 C56.1,22.4 56.2,22.9 56.4,23.5 C56.9,25 57,26.5 56.4,28 C56.2,28.6 56,29.2 55.8,29.8 C55.6,30.6 56.1,31.3 56.9,31.4 C57.7,31.5 58.5,31.5 59.3,31.4 C62,31.1 64.5,30.2 66.9,29.1 C68.1,28.5 69.2,27.9 70.4,27.2 C71.9,26.3 73.1,25.1 73.6,23.3 C73.8,22.5 74.1,21.7 73.8,20.8 C73.5,19.9 72.9,19.2 72.3,18.5 C71.2,17.4 69.8,16.6 68.4,15.8 C66,14.5 63.6,13.3 61.2,12 C60,11.3 58.8,10.6 57.6,9.9 C55.8,8.7 54.2,7.4 53,5.5 C52.3,4.4 51.3,3.4 50,2.8 C48.7,2 47.1,1.7 45.4,1.7 Z M17.6,32.1 C17.6,32.1 17.6,32.2 17.7,32.2 C18.2,32.2 18.7,32.2 19.2,32.2 C20.4,32.1 21.6,32.3 22.6,31.5 C24.5,30.1 26.5,28.9 28.1,27.2 C28.7,26.6 29.2,25.8 29.3,25 C29.4,24.4 29.4,23.8 29.5,23.1 C29.5,22.6 29.6,22.5 30.1,22.5 C30.8,22.5 31.6,22.5 32.3,22.5 C33.5,22.5 34.7,22.3 35.8,21.7 C36.7,21.2 37.4,20.3 36.8,19.2 C36.6,18.7 36.2,18.3 35.8,17.9 C34.2,16.4 32.3,15.4 30.4,14.4 C27.9,13 25.3,11.7 22.9,10 C22.1,9.5 21.4,8.9 20.8,8.2 C20,7.4 19.4,6.3 19,5.2 C18.7,4.5 18.2,3.8 17.6,3.4 C16.4,2.5 15,2.1 13.5,2 C11,1.9 8.5,1.9 6,1.8 C5.7,1.8 5.6,1.9 5.6,2.2 C5.6,3.2 5.6,4.1 5.6,5.1 C5.6,6 5.9,6.8 6.4,7.6 C7.1,8.7 8.2,9.4 9.2,10 C11.7,11.5 14.3,12.9 16.9,14.3 C18.9,15.4 20.9,16.4 22.7,17.9 C23.9,18.8 24.8,19.9 25,21.4 C25.1,22.2 25.1,23.1 25.1,23.9 C25.1,24.7 25,25.4 24.5,26 C23.9,26.9 23.3,27.7 22.5,28.4 C21.1,29.5 19.6,30.5 18.2,31.6 C18.1,31.8 17.9,31.9 17.6,32.1 Z M91.5,18.7 C91.5,18.7 91.4,18.8 91.4,18.8 C91.3,18.8 91.2,18.7 91.2,18.7 C90.6,18.2 90,17.6 89.3,17.2 C87.9,16.3 86.5,15.5 85.1,14.7 C83.1,13.6 81.2,12.6 79.2,11.5 C77.6,10.6 76.1,9.7 74.7,8.4 C73.7,7.5 73.1,6.5 73.2,5.1 C73.2,4.3 73.2,3.5 73.2,2.8 C73.2,2.5 73.1,2.4 72.8,2.4 C71.8,2.4 70.7,2.4 69.7,2.4 C69.4,2.4 69.3,2.5 69.3,2.8 C69.3,3.4 69.3,4.1 69.3,4.7 C69.2,5.8 69.5,6.8 70.1,7.7 C70.7,8.5 71.4,9.1 72.2,9.6 C74.2,10.8 76.2,12 78.2,13.2 C80.3,14.4 82.4,15.4 84.4,16.6 C85.4,17.2 86.2,17.9 87.1,18.6 C88.4,19.7 89,21.1 88.9,22.8 C88.9,23.2 88.9,23.7 88.9,24.1 C88.8,24.7 88.7,25.4 88.4,26 C87.8,27.1 87,28 86,28.8 C85.7,29 85.4,29.3 85.1,29.6 C85.2,29.6 85.3,29.7 85.3,29.7 C86.2,29.7 87.1,29.7 88,29.6 C88.4,29.6 89,29.6 89.3,29.3 C89.9,28.9 90.5,28.3 91,27.8 C91.7,27.1 92.4,26.3 92.7,25.2 C93,24 92.9,22.7 92.8,21.5 C92.8,21.4 92.8,21.2 92.8,21.1 C93,21.1 93.1,21.2 93.1,21.3 C93.6,22.1 94.1,22.9 94.5,23.7 C95.4,25.3 95.2,27.1 94,28.5 C93.8,28.7 93.7,28.9 93.6,29.1 C93.7,29.1 93.7,29.2 93.8,29.2 C95.2,29.1 96.6,29.1 98.1,29 C98.3,29 98.4,28.9 98.6,28.8 C99.4,28 100,26.6 99.7,25.4 C99.3,23.9 98.3,22.8 97.5,21.5 C97,20.7 96.2,20.1 95.9,19.1 C95.5,18 94.6,17.2 93.6,16.6 C92.2,15.6 90.8,14.7 89.4,13.7 C88.5,13.1 87.5,12.4 86.6,11.7 C85.5,11 84.6,10.1 83.8,9.1 C83.6,8.8 83.3,8.6 83,8.6 C81.8,8.6 80.7,8.6 79.5,8.6 C79.4,8.6 79.2,8.6 79,8.7 C79.1,8.9 79.2,9.1 79.3,9.2 C80.2,10.3 81.4,11.2 82.6,12 C84.4,13.2 86.3,14.4 88.1,15.7 C89.2,16.5 90.2,17.4 91.3,18.3 C91.2,18.2 91.3,18.5 91.5,18.7 Z M35,31.6 C35,31.6 35,31.7 35,31.7 C35.1,31.7 35.3,31.7 35.4,31.7 C39.4,31.6 43.3,31.4 47.3,31.2 C47.7,31.2 48.1,31.1 48.4,30.9 C49.5,30.1 50.6,29.3 51.7,28.4 C52.3,27.9 52.8,27.2 53.4,26.6 C53.2,26.5 53.1,26.4 53,26.4 C51,26.5 48.9,26.5 46.9,26.6 C46.4,26.6 45.9,26.7 45.4,26.7 C45,26.7 45,26.6 45.2,26.3 C45.6,25.6 45.9,24.8 45.9,24 C45.9,23.3 46,22.6 45.9,21.9 C45.8,21.2 45.6,20.4 45.3,19.8 C44.4,18.3 43,17.4 41.6,16.5 C40.4,15.7 39.1,15 37.8,14.3 C36.1,13.4 34.4,12.5 32.8,11.6 C31,10.6 29.1,9.5 27.6,7.9 C27,7.2 26.4,6.4 26.4,5.5 C26.3,4.4 26.4,3.4 26.4,2.3 C26.4,2 26.3,1.8 26,1.8 C24.9,1.8 23.8,1.8 22.7,1.7 C22.4,1.7 22.3,1.8 22.3,2.1 C22.3,3.1 22.3,4.1 22.3,5.1 C22.3,5.9 22.6,6.6 23.1,7.3 C23.8,8.4 24.8,9.2 25.9,9.8 C28.2,11.2 30.5,12.5 32.9,13.8 C35,14.9 37,16 38.9,17.3 C40.2,18.2 41.4,19.3 41.8,20.9 C41.9,21.5 42,22.1 42,22.7 C42.1,24.4 41.7,25.8 40.6,27.1 C39.5,28.3 38.2,29.3 36.8,30.3 C36,30.8 35.5,31.2 35,31.6 Z M59.6,8.6 C59.9,8.8 60,9 60.2,9.2 C61.5,10 62.8,10.9 64.1,11.7 C65.6,12.6 67.2,13.4 68.8,14.2 C71.1,15.4 73.3,16.6 75.3,18.2 C76.3,19 77.2,19.9 77.4,21.2 C77.6,22.2 77.6,23.3 77.6,24.4 C77.6,24.9 77.5,25.5 77.3,25.9 C76.8,27 76,27.9 75.1,28.7 C74.5,29.2 73.9,29.7 73.2,30.3 C73.4,30.3 73.5,30.4 73.6,30.4 C74.6,30.4 75.6,30.4 76.6,30.3 C76.9,30.3 77.2,30.2 77.4,30 C78.3,29.3 79.1,28.6 79.9,27.9 C80.6,27.2 81.2,26.4 81.4,25.5 C81.7,24.5 81.6,23.5 81.6,22.4 C81.6,20.9 81,19.7 80.1,18.5 C79.6,17.9 79.1,17.3 78.6,16.6 C78.3,16.2 78.4,16.1 78.9,16 C79.1,16 79.3,15.9 79.6,15.9 C79.4,15.7 79.3,15.6 79.1,15.5 C77.5,14.6 75.8,13.8 74.2,12.9 C72.1,11.8 70,10.6 68.1,9.1 C67.4,8.5 66.8,8.6 66.1,8.8 C65.6,9 65.5,9.4 65.8,9.8 C66.2,10.3 66.7,10.8 67.2,11.2 C67.4,11.4 67.7,11.6 68,11.8 C68,11.8 68,11.9 67.9,11.9 C67.8,11.9 67.6,11.8 67.5,11.8 C66.1,10.9 64.8,10 63.4,9.1 C63.1,8.9 62.8,8.8 62.6,8.8 C61.9,8.7 61.1,8.8 60.4,8.8 C60.2,8.5 60,8.5 59.6,8.6 Z" id="Shape" fill="#FFFFFF"></path>
                    <path d="M45.4,1.7 C47.1,1.7 48.7,2 50.2,2.8 C51.4,3.4 52.4,4.3 53.2,5.5 C54.4,7.3 56,8.7 57.8,9.9 C59,10.6 60.2,11.3 61.4,12 C63.8,13.3 66.2,14.5 68.6,15.8 C70,16.6 71.4,17.4 72.5,18.5 C73.2,19.2 73.7,19.9 74,20.8 C74.3,21.7 74,22.5 73.8,23.3 C73.3,25.1 72.1,26.3 70.6,27.2 C69.5,27.9 68.3,28.6 67.1,29.1 C64.7,30.2 62.1,31.1 59.5,31.4 C58.7,31.5 57.9,31.5 57.1,31.4 C56.3,31.3 55.8,30.6 56,29.8 C56.2,29.2 56.4,28.6 56.6,28 C57.1,26.5 57.1,25 56.6,23.5 C56.4,22.9 56.3,22.4 56.2,21.8 C56,20.5 55.2,19.4 54.3,18.6 C52.9,17.3 51.3,16.4 49.7,15.4 C46.7,13.7 43.7,12 40.7,10.3 C39.9,9.8 39.2,9.2 38.6,8.6 C37.5,7.6 37.4,6.2 38.3,5.1 C39.7,3.3 41.5,2.2 43.7,1.9 C44.1,1.8 44.8,1.8 45.4,1.7 Z M45.6,4.7 C44.7,4.7 44,4.8 43.2,5.1 C42.2,5.6 41.7,6.3 42,7.2 C42.2,7.8 42.6,8.3 43,8.8 C45,10.7 47.4,11.8 49.7,13.2 C51.9,14.5 54.2,15.7 56.4,17 C57.4,17.6 58.3,18.3 59,19.2 C59.6,19.9 60,20.6 60.2,21.5 C60.6,22.9 61.1,24.2 61.6,25.5 C61.9,26.3 62.6,26.8 63.5,26.8 C64.4,26.8 65.3,26.6 66.1,26.3 C68.4,25.5 69.4,24 69.6,21.7 C69.7,20.1 68.8,19.1 67.7,18.1 C66,16.6 64,15.6 62,14.5 C60.3,13.6 58.6,12.7 56.8,11.8 C55.8,11.3 54.9,10.7 53.9,10.1 C52.2,9.1 50.7,7.9 49.3,6.5 C48.4,5.5 47.2,4.6 45.6,4.7 Z" id="Shape" fill="#000000"></path>
                    <path d="M17.6,32.1 C17.9,31.9 18.1,31.7 18.4,31.6 C19.9,30.6 21.4,29.6 22.7,28.4 C23.5,27.7 24.1,26.8 24.7,26 C25.1,25.4 25.3,24.6 25.3,23.9 C25.3,23.1 25.3,22.2 25.2,21.4 C25,19.9 24,18.8 22.9,17.9 C21.1,16.5 19.1,15.4 17.1,14.3 C14.5,12.9 11.9,11.5 9.4,10 C8.3,9.4 7.3,8.6 6.6,7.6 C6.1,6.9 5.7,6.1 5.8,5.1 C5.8,4.1 5.8,3.2 5.8,2.2 C5.8,1.9 5.9,1.7 6.2,1.8 C8.7,1.9 11.2,1.8 13.7,2 C15.2,2.1 16.6,2.5 17.8,3.4 C18.4,3.9 18.9,4.5 19.2,5.2 C19.6,6.3 20.2,7.4 21,8.2 C21.6,8.9 22.4,9.4 23.1,10 C25.5,11.6 28,13 30.6,14.4 C32.5,15.4 34.4,16.4 36,17.9 C36.4,18.3 36.7,18.7 37,19.2 C37.5,20.3 36.9,21.2 36,21.7 C34.9,22.3 33.7,22.5 32.5,22.5 C31.8,22.5 31,22.5 30.3,22.5 C29.8,22.5 29.7,22.6 29.7,23.1 C29.7,23.7 29.6,24.4 29.5,25 C29.4,25.9 28.8,26.6 28.3,27.2 C26.7,29 24.7,30.2 22.8,31.5 C21.7,32.3 20.5,32.1 19.4,32.2 C18.9,32.2 18.4,32.2 17.9,32.2 C17.6,32.2 17.6,32.2 17.6,32.1 Z M11.4,5 C11,5 10.6,5 10.1,5 C9.8,5 9.7,5.1 9.7,5.4 C9.8,6.2 10.1,6.8 10.5,7.5 C11.1,8.4 12,9.1 13,9.7 C14.7,10.8 16.5,11.8 18.3,12.8 C20.7,14.2 23.2,15.4 25.6,16.9 C26.6,17.5 27.5,17.5 28.5,17.3 C28.9,17.2 29,17 28.7,16.7 C28.4,16.3 28.1,15.9 27.7,15.6 C25.9,14.4 24,13.3 22.2,12.2 C20.9,11.4 19.6,10.6 18.4,9.8 C17,8.8 15.9,7.6 14.9,6.2 C14.7,5.9 14.3,5.6 13.9,5.3 C13.2,4.9 12.3,5 11.4,5 Z" id="Shape" fill="#000000"></path>
                    <path d="M91.5,18.7 C91.4,18.5 91.3,18.2 91.1,18 C90.1,17.1 89,16.2 87.9,15.4 C86.1,14.1 84.2,13 82.4,11.7 C81.2,10.9 80,10 79.1,8.9 C79,8.8 78.9,8.6 78.8,8.4 C79,8.4 79.1,8.3 79.3,8.3 C80.5,8.3 81.6,8.3 82.8,8.3 C83.2,8.3 83.4,8.4 83.6,8.8 C84.3,9.9 85.3,10.7 86.4,11.4 C87.4,12 88.3,12.7 89.2,13.4 C90.6,14.4 92.1,15.3 93.4,16.3 C94.3,17 95.3,17.7 95.7,18.8 C96,19.8 96.8,20.4 97.3,21.2 C98.1,22.5 99.1,23.6 99.5,25.1 C99.8,26.3 99.3,27.8 98.4,28.5 C98.3,28.6 98.1,28.7 97.9,28.7 C96.5,28.8 95.1,28.8 93.6,28.9 C93.6,28.9 93.5,28.9 93.4,28.8 C93.6,28.6 93.7,28.4 93.8,28.2 C95,26.8 95.2,25 94.3,23.4 C93.8,22.6 93.4,21.8 92.9,21 C92.9,20.9 92.8,20.9 92.6,20.8 C92.6,20.9 92.6,21.1 92.6,21.2 C92.7,22.5 92.8,23.7 92.5,24.9 C92.2,25.9 91.6,26.7 90.8,27.5 C90.3,28 89.7,28.6 89.1,29 C88.8,29.2 88.2,29.2 87.8,29.3 C86.9,29.4 86,29.4 85.1,29.4 C85,29.4 85,29.4 84.9,29.3 C85.2,29 85.5,28.8 85.8,28.5 C86.8,27.7 87.7,26.8 88.2,25.7 C88.5,25.1 88.6,24.5 88.7,23.8 C88.8,23.4 88.7,22.9 88.7,22.5 C88.8,20.8 88.2,19.4 86.9,18.3 C86.1,17.6 85.2,16.9 84.2,16.3 C82.2,15.1 80,14 78,12.9 C76,11.7 74,10.5 72,9.3 C71.2,8.8 70.5,8.1 69.9,7.4 C69.2,6.5 69,5.5 69.1,4.4 C69.1,3.8 69.1,3.1 69.1,2.5 C69.1,2.2 69.2,2.1 69.5,2.1 C70.5,2.1 71.6,2.1 72.6,2.1 C72.9,2.1 73,2.3 73,2.5 C73,3.3 73,4.1 73,4.8 C72.9,6.2 73.6,7.2 74.5,8.1 C75.8,9.3 77.4,10.3 79,11.2 C81,12.3 83,13.3 84.9,14.4 C86.3,15.2 87.7,16 89.1,16.9 C89.8,17.3 90.4,17.9 91,18.4 C91.1,18.5 91.2,18.5 91.2,18.5 C91.4,18.8 91.4,18.8 91.5,18.7 Z" id="Shape" fill="#000000"></path>
                    <path d="M35,31.6 C35.5,31.2 36.1,30.8 36.6,30.5 C38,29.6 39.3,28.6 40.4,27.3 C41.5,26 41.9,24.6 41.8,22.9 C41.8,22.3 41.7,21.7 41.6,21.1 C41.2,19.5 40,18.4 38.7,17.5 C36.8,16.1 34.7,15.1 32.7,14 C30.3,12.7 28,11.4 25.7,10 C24.6,9.3 23.6,8.5 22.9,7.5 C22.5,6.8 22.1,6.2 22.1,5.3 C22.1,4.3 22.1,3.3 22.1,2.3 C22.1,2 22.2,1.9 22.5,1.9 C23.6,1.9 24.7,1.9 25.8,2 C26.1,2 26.2,2.1 26.2,2.5 C26.2,3.6 26.1,4.6 26.2,5.7 C26.3,6.7 26.8,7.5 27.4,8.1 C28.9,9.7 30.7,10.7 32.6,11.8 C34.3,12.7 35.9,13.6 37.6,14.5 C38.9,15.2 40.2,15.9 41.4,16.7 C42.8,17.6 44.2,18.5 45.1,20 C45.5,20.6 45.6,21.4 45.7,22.1 C45.8,22.8 45.8,23.5 45.7,24.2 C45.7,25 45.4,25.8 45,26.5 C44.8,26.8 44.9,27 45.2,26.9 C45.7,26.9 46.2,26.8 46.7,26.8 C48.7,26.7 50.8,26.7 52.8,26.6 C52.9,26.6 53,26.6 53.2,26.8 C52.6,27.4 52.1,28.1 51.5,28.6 C50.4,29.5 49.3,30.3 48.2,31.1 C47.9,31.3 47.5,31.4 47.1,31.4 C43.1,31.6 39.2,31.7 35.2,31.9 C35.1,31.9 34.9,31.9 34.8,31.9 C35,31.6 35,31.6 35,31.6 Z" id="Shape" fill="#000000"></path>
                    <path d="M59.6,8.6 C59.9,8.6 60.1,8.5 60.3,8.5 C61,8.5 61.8,8.5 62.5,8.5 C62.8,8.5 63.1,8.7 63.3,8.8 C64.7,9.7 66.1,10.6 67.4,11.5 C67.5,11.6 67.6,11.6 67.8,11.6 C67.8,11.6 67.8,11.5 67.9,11.5 C67.6,11.3 67.3,11.1 67.1,10.9 C66.6,10.4 66.1,10 65.7,9.5 C65.4,9.1 65.5,8.7 66,8.5 C66.7,8.3 67.3,8.2 68,8.8 C69.8,10.4 71.9,11.5 74.1,12.6 C75.7,13.5 77.4,14.3 79,15.2 C79.1,15.3 79.3,15.4 79.5,15.6 C79.2,15.6 79,15.7 78.8,15.7 C78.3,15.8 78.2,16 78.5,16.3 C79,16.9 79.5,17.5 80,18.2 C80.9,19.3 81.5,20.6 81.5,22.1 C81.5,23.1 81.6,24.2 81.3,25.2 C81,26.2 80.5,27 79.8,27.6 C79,28.4 78.2,29 77.3,29.7 C77.1,29.9 76.8,30 76.5,30 C75.5,30.1 74.5,30.1 73.5,30.1 C73.4,30.1 73.3,30.1 73.1,30 C73.8,29.4 74.4,29 75,28.4 C75.9,27.6 76.7,26.7 77.2,25.6 C77.4,25.1 77.5,24.6 77.5,24.1 C77.5,23 77.5,22 77.3,20.9 C77.1,19.6 76.1,18.7 75.2,17.9 C73.2,16.3 71,15.1 68.7,13.9 C67.1,13.1 65.6,12.3 64,11.4 C62.7,10.6 61.4,9.8 60.1,8.9 C60.1,9 59.9,8.8 59.6,8.6 Z" id="Shape" fill="#000000"></path>
                    <path d="M45.6,4.7 C47.2,4.6 48.4,5.5 49.5,6.6 C50.9,8 52.4,9.2 54.1,10.2 C55.1,10.8 56,11.3 57,11.9 C58.7,12.8 60.4,13.7 62.2,14.6 C64.2,15.7 66.2,16.7 67.9,18.2 C69,19.1 70,20.2 69.8,21.8 C69.6,24.1 68.5,25.6 66.3,26.4 C65.5,26.7 64.6,26.9 63.7,26.9 C62.8,26.9 62.1,26.4 61.8,25.6 C61.3,24.3 60.9,22.9 60.4,21.6 C60.1,20.8 59.7,20 59.2,19.3 C58.5,18.4 57.6,17.7 56.6,17.1 C54.4,15.8 52.1,14.6 49.9,13.3 C47.6,12 45.1,10.8 43.2,8.9 C42.8,8.5 42.4,7.9 42.2,7.3 C41.9,6.4 42.4,5.7 43.4,5.2 C44,4.8 44.8,4.7 45.6,4.7 Z" id="Shape" fill="#FFFFFF"></path>
                    <path d="M11.4,5 C12.3,5 13.2,4.9 13.9,5.4 C14.3,5.6 14.6,5.9 14.9,6.3 C15.9,7.7 17,8.9 18.4,9.9 C19.6,10.8 20.9,11.5 22.2,12.3 C24,13.4 25.9,14.5 27.7,15.7 C28.1,16 28.4,16.4 28.7,16.8 C29,17.1 28.9,17.3 28.5,17.4 C27.5,17.5 26.5,17.6 25.6,17 C23.2,15.6 20.7,14.3 18.3,12.9 C16.5,11.9 14.7,10.9 13,9.8 C12.1,9.2 11.2,8.5 10.5,7.6 C10.1,7 9.8,6.3 9.7,5.5 C9.7,5.2 9.8,5.1 10.1,5.1 C10.6,5 11,5 11.4,5 Z" id="Shape" fill="#FFFFFF"></path>
                </g>
            </g>
        </g>
    </g>
</svg>