<?xml version="1.0" encoding="UTF-8"?>
<svg width="123px" height="44px" viewBox="0 0 123 44" version="1.1" xmlns="http://www.w3.org/2000/svg" xmlns:xlink="http://www.w3.org/1999/xlink">
    <!-- Generator: Sketch 49.3 (51167) - http://www.bohemiancoding.com/sketch -->
    <title>DLnIlZ_1_</title>
    <desc>Created with Sketch.</desc>
    <defs></defs>
    <g id="Page-1" stroke="none" stroke-width="1" fill="none" fill-rule="evenodd">
        <g id="plork-logos" transform="translate(-264.000000, -48.000000)" fill-rule="nonzero">
            <g id="DLnIlZ_1_" transform="translate(264.000000, 48.000000)">
                <g id="Group">
                    <path d="M0.9,43.7 C0.9,29.2 0.9,14.8 0.9,0.3 C41.6,0.3 82.3,0.3 123,0.3 C123,14.8 123,29.2 123,43.7 C82.3,43.7 41.6,43.7 0.9,43.7 Z M55.1,4.3 C54.2,4.4 53.4,4.5 52.5,4.6 C50.6,4.8 49,5.5 47.5,6.7 C46.3,7.7 45.3,8.8 44.7,10.2 C43.9,12 43.5,14 43.5,16 C43.5,17.7 43.5,19.5 44,21.1 C44.6,23.1 46,24.5 47.6,25.6 C50.6,27.8 53.9,29.4 57.2,30.9 C59.1,31.7 61.1,32.4 63,33.1 C64.3,33.6 65.6,33.8 66.9,33.6 C67.8,33.5 68,33.1 67.7,32.2 C67.5,31.6 67.3,31.1 66.9,30.6 C65.2,27.9 64.7,25 65.5,22 C65.7,21.1 65.9,20.3 66.1,19.4 C66.6,16.3 66.4,13.3 65.2,10.4 C64.5,8.8 63.5,7.4 62.1,6.4 C60,5 57.6,4.4 55.1,4.3 Z M22.4,34.2 C22.3,34.1 22.1,34.1 22,34 C21.3,33.5 20.5,33 19.8,32.5 C17.6,31 15.3,29.5 13.5,27.5 C11.6,25.5 10.5,23.2 10.8,20.3 C10.8,20 11,19.9 11.3,19.8 C12.5,19.8 13.8,19.8 15,19.7 C15.7,19.7 16.4,19.6 17.1,19.4 C19,19 20.6,17.9 21.7,16.2 C22.8,14.4 22.9,12.4 22.6,10.4 C22.4,9.2 21.8,8.1 20.8,7.2 C19.5,6 17.8,5.6 16.1,5.3 C15.2,5.2 14.2,5.2 13.2,5.2 C11.1,5.2 9.1,5.2 7,5.3 C5.8,5.3 5.8,5.3 5.8,6.5 C5.8,11.4 5.8,16.3 5.9,21.2 C5.9,22.7 6.3,24.1 7.1,25.3 C8.2,27.1 9.8,28.6 11.5,29.9 C13,31.1 14.7,32.1 16.2,33.2 C18,34.8 20.1,34.9 22.4,34.2 Z M99.4,11.5 C99.3,11.4 99.2,11.4 99.2,11.4 C97.5,11.4 95.9,11.4 94.2,11.5 C94.1,11.5 93.9,11.6 93.8,11.8 C92.7,13.4 91.6,15 90.4,16.6 C90,17.1 89.7,17.6 89.2,18.2 C89.2,17.9 89.1,17.7 89.1,17.6 C89,13.6 89,9.7 88.9,5.7 C88.9,4.5 88.9,4.5 87.7,4.6 C86.5,4.6 85.3,4.6 84,4.6 C84,5.3 84,5.8 84,6.4 C84,11.3 84,16.3 84.1,21.2 C84.1,23.8 85.4,25.8 87.2,27.5 C88.1,28.4 89.1,29.2 90.2,30 C91,30.6 91.8,31.4 92.9,31.3 C94,31.3 95,31.3 96.1,31.2 C96.2,31.2 96.3,31.1 96.6,31.1 C96.4,30.9 96.3,30.8 96.1,30.7 C94.8,29.6 93.4,28.5 92.1,27.3 C89.9,25.3 88.9,22.9 89,19.9 C89,19.8 89.1,19.7 89.2,19.5 C89.4,19.7 89.5,19.9 89.6,20 C90.7,22.1 92.1,23.9 93.9,25.5 C95.9,27.3 98.2,28.9 100.5,30.2 C101.1,30.5 101.8,30.8 102.5,30.9 C103.5,31 104.6,30.9 105.7,30.9 C106.1,30.9 106.6,30.9 107,30.9 C107,30.8 107,30.8 107,30.7 C106.9,30.6 106.8,30.5 106.7,30.4 C105.1,29.3 103.4,28.3 101.8,27.2 C100.4,26.1 99,25 97.7,23.8 C96.3,22.4 95.2,20.7 94.1,19 C93.9,18.7 93.9,18.5 94.1,18.2 C95.6,16.3 97,14.5 98.4,12.6 C98.8,12.3 99.1,11.9 99.4,11.5 Z M50.7,32.6 C50.6,32.5 50.5,32.3 50.5,32.3 C49.8,31.8 49,31.3 48.3,30.8 C46.2,29.3 44.1,27.7 42.7,25.5 C42.5,25.2 42.3,25.1 41.9,25.1 C38.8,25.1 35.7,25.1 32.5,25.2 C32.1,25.2 31.9,25.1 31.7,24.8 C31.2,23.8 30.9,22.8 30.9,21.7 C30.9,18 30.9,14.2 30.9,10.5 C30.9,9.1 30.9,7.6 30.8,6.2 C30.8,5.4 30.8,5.4 30,5.4 C28.8,5.4 27.5,5.4 26.3,5.4 C26.2,5.4 26,5.4 25.9,5.4 C25.9,5.9 25.9,6.4 25.9,6.9 C25.9,11.7 25.9,16.6 25.9,21.4 C25.9,23 26.4,24.3 27.2,25.6 C28,26.9 29.2,28 30.4,29 C31.7,30 33,30.9 34.3,31.9 C35.8,33.1 37.3,33.5 39.2,33.4 C42.9,33.1 46.7,32.9 50.4,32.7 C50.4,32.7 50.5,32.7 50.7,32.6 Z M83.1,31.6 C83.1,31.5 83.1,31.4 83.2,31.3 C82.5,30.8 81.8,30.2 81.1,29.7 C79.5,28.6 78.1,27.3 76.9,25.7 C75.3,23.5 75.1,21.1 75.5,18.5 C75.7,17.4 76.2,16.6 77.3,16.3 C78.2,16.1 79.1,16 80,15.9 C80.4,15.9 80.6,15.8 80.6,15.3 C80.6,14.4 80.6,13.6 80.6,12.7 C80.6,11.5 80.6,11.5 79.4,11.6 C78,11.7 76.8,12.2 75.8,13.3 C75.5,13.6 75.3,14 75,14.3 C74.9,14.3 74.9,14.3 74.8,14.2 C74.8,14 74.7,13.8 74.7,13.6 C74.7,13.2 74.7,12.7 74.7,12.3 C74.7,11.9 74.6,11.8 74.2,11.8 C73.1,11.8 71.9,11.8 70.8,11.8 C70.4,11.8 70.3,12 70.3,12.4 C70.3,12.8 70.4,13.3 70.4,13.7 C70.5,16.2 70.5,18.6 70.5,21.1 C70.5,23 71.2,24.5 72.3,26 C73.4,27.4 74.7,28.6 76.1,29.7 C76.7,30.2 77.4,30.7 78.1,31.1 C78.3,31.2 78.5,31.4 78.7,31.4 C80.1,31.5 81.6,31.5 83.1,31.6 Z" id="Shape" fill="#FFFFFF"></path>
                    <path d="M55.1,4.3 C57.7,4.4 60,5 62.1,6.5 C63.5,7.5 64.5,8.9 65.2,10.5 C66.4,13.4 66.6,16.4 66.1,19.5 C66,20.4 65.8,21.2 65.5,22.1 C64.8,25.2 65.2,28.1 66.9,30.7 C67.2,31.2 67.5,31.8 67.7,32.3 C68,33.1 67.8,33.5 66.9,33.7 C65.5,33.9 64.2,33.7 63,33.2 C61.1,32.5 59.1,31.8 57.2,31 C53.8,29.5 50.5,27.9 47.6,25.7 C46,24.5 44.6,23.2 44,21.2 C43.5,19.5 43.4,17.8 43.5,16.1 C43.5,14.1 43.9,12.1 44.7,10.3 C45.3,8.9 46.3,7.7 47.5,6.8 C49,5.6 50.6,4.9 52.5,4.7 C53.3,4.5 54.2,4.4 55.1,4.3 Z M48.9,16.6 C48.9,17.1 48.9,17.5 48.9,18 C48.9,19.4 49.2,20.8 49.8,22 C51.1,24.4 54.4,26 57.1,25.7 C58,25.6 58.8,25.2 59.2,24.3 C60.1,22.6 60.6,20.7 60.8,18.8 C61.1,16.4 61,14 60.1,11.7 C59.7,10.7 59.2,9.8 58.3,9.2 C57.1,8.3 55.8,8.1 54.4,8.2 C51.7,8.3 50.1,9.8 49.4,12.1 C48.9,13.5 48.9,15 48.9,16.6 Z" id="Shape" fill="#000000"></path>
                    <path d="M22.4,34.2 C20.1,34.9 18,34.8 16.2,33.4 C14.7,32.3 13,31.2 11.5,30.1 C9.8,28.8 8.2,27.4 7.1,25.5 C6.3,24.3 5.9,22.9 5.9,21.4 C5.9,16.5 5.8,11.6 5.8,6.7 C5.8,5.5 5.8,5.5 7,5.5 C9.1,5.5 11.1,5.4 13.2,5.4 C14.2,5.4 15.1,5.3 16.1,5.5 C17.8,5.8 19.5,6.2 20.8,7.4 C21.7,8.3 22.3,9.3 22.6,10.6 C22.9,12.6 22.9,14.6 21.7,16.4 C20.6,18.1 19.1,19.1 17.1,19.6 C16.4,19.8 15.7,19.9 15,19.9 C13.8,20 12.5,20 11.3,20 C11,20 10.8,20.1 10.8,20.5 C10.6,23.3 11.6,25.7 13.5,27.7 C15.4,29.7 17.6,31.2 19.8,32.7 C20.5,33.2 21.3,33.7 22,34.2 C22.1,34.1 22.3,34.1 22.4,34.2 Z M10.8,12.7 C10.8,12.7 10.8,12.7 10.8,12.7 C10.8,13.6 10.8,14.6 10.8,15.5 C10.8,15.7 11,15.9 11.1,15.9 C12.4,15.9 13.6,15.9 14.9,15.8 C15.7,15.7 16.4,15.3 16.9,14.5 C17.3,13.7 17.4,12.8 17.3,12 C17.2,10.5 16.4,9.6 15,9.5 C13.7,9.3 12.5,9.4 11.2,9.4 C10.9,9.4 10.8,9.6 10.8,9.9 C10.8,10.8 10.8,11.7 10.8,12.7 Z" id="Shape" fill="#000000"></path>
                    <path d="M99.4,11.5 C99.1,11.9 98.8,12.3 98.5,12.6 C97.1,14.5 95.6,16.3 94.2,18.2 C94,18.5 94,18.7 94.2,19 C95.3,20.7 96.3,22.4 97.8,23.8 C99.1,25 100.5,26.2 101.9,27.2 C103.5,28.3 105.2,29.3 106.8,30.4 C106.9,30.5 107,30.6 107.1,30.7 C107.1,30.8 107.1,30.8 107.1,30.9 C106.7,30.9 106.2,30.9 105.8,30.9 C104.7,30.9 103.7,31 102.6,30.9 C101.9,30.8 101.2,30.5 100.6,30.2 C98.3,28.8 96,27.3 94,25.5 C92.3,23.9 90.8,22.1 89.7,20 C89.6,19.8 89.5,19.7 89.3,19.5 C89.2,19.7 89.2,19.8 89.1,19.9 C88.9,22.9 90,25.3 92.2,27.3 C93.5,28.5 94.9,29.5 96.2,30.7 C96.3,30.8 96.5,30.9 96.7,31.1 C96.5,31.2 96.4,31.2 96.2,31.2 C95.1,31.2 94.1,31.2 93,31.3 C91.9,31.3 91.1,30.6 90.3,30 C89.3,29.2 88.3,28.4 87.3,27.5 C85.5,25.8 84.2,23.8 84.2,21.2 C84.1,16.3 84.1,11.3 84.1,6.4 C84.1,5.8 84.1,5.3 84.1,4.6 C85.4,4.6 86.6,4.6 87.8,4.6 C89,4.6 89,4.6 89,5.7 C89.1,9.7 89.1,13.6 89.2,17.6 C89.2,17.7 89.2,17.9 89.3,18.2 C89.8,17.6 90.1,17.1 90.5,16.6 C91.6,15 92.7,13.4 93.9,11.8 C94,11.7 94.2,11.5 94.3,11.5 C96,11.5 97.6,11.4 99.3,11.4 C99.2,11.4 99.2,11.4 99.4,11.5 Z" id="Shape" fill="#000000"></path>
                    <path d="M50.7,32.6 C50.5,32.6 50.5,32.7 50.4,32.7 C46.7,32.9 42.9,33.1 39.2,33.4 C37.3,33.6 35.7,33.1 34.3,31.9 C33,30.9 31.7,30 30.4,29 C29.2,28 28,27 27.2,25.6 C26.4,24.3 25.9,22.9 25.9,21.4 C25.9,16.6 25.9,11.7 25.9,6.9 C25.9,6.4 25.9,5.9 25.9,5.4 C26,5.4 26.2,5.4 26.3,5.4 C27.5,5.4 28.8,5.4 30,5.4 C30.8,5.4 30.8,5.4 30.8,6.2 C30.8,7.6 30.9,9.1 30.9,10.5 C30.9,14.2 30.9,18 30.9,21.7 C30.9,22.8 31.2,23.8 31.7,24.8 C31.9,25.1 32.1,25.2 32.5,25.2 C35.6,25.2 38.7,25.2 41.9,25.1 C42.2,25.1 42.4,25.2 42.7,25.5 C44.1,27.7 46.2,29.3 48.3,30.8 C49,31.3 49.8,31.8 50.5,32.3 C50.5,32.4 50.6,32.5 50.7,32.6 Z" id="Shape" fill="#000000"></path>
                    <path d="M83.1,31.6 C81.6,31.5 80.1,31.5 78.7,31.4 C78.5,31.4 78.2,31.2 78.1,31.1 C77.4,30.6 76.8,30.2 76.1,29.7 C74.7,28.6 73.4,27.5 72.3,26 C71.2,24.6 70.5,23 70.5,21.1 C70.5,18.6 70.4,16.2 70.4,13.7 C70.4,13.3 70.3,12.8 70.3,12.4 C70.3,12 70.4,11.8 70.8,11.8 C71.9,11.8 73.1,11.8 74.2,11.8 C74.6,11.8 74.7,12 74.7,12.3 C74.7,12.7 74.7,13.2 74.7,13.6 C74.7,13.8 74.8,14 74.8,14.2 C74.9,14.2 74.9,14.2 75,14.3 C75.3,14 75.5,13.6 75.8,13.3 C76.7,12.2 78,11.8 79.4,11.6 C80.6,11.5 80.6,11.5 80.6,12.7 C80.6,13.6 80.6,14.4 80.6,15.3 C80.6,15.8 80.4,15.9 80,15.9 C79.1,16 78.2,16.1 77.3,16.3 C76.2,16.6 75.7,17.5 75.5,18.5 C75.1,21.1 75.3,23.5 76.9,25.7 C78.1,27.3 79.5,28.6 81.1,29.7 C81.8,30.2 82.5,30.8 83.2,31.3 C83.1,31.4 83.1,31.5 83.1,31.6 Z" id="Shape" fill="#000000"></path>
                    <path d="M48.9,16.6 C48.9,15 49,13.5 49.5,12 C50.3,9.8 51.8,8.2 54.5,8.1 C55.9,8.1 57.2,8.3 58.4,9.1 C59.3,9.7 59.8,10.6 60.2,11.6 C61,13.9 61.1,16.3 60.9,18.7 C60.7,20.6 60.2,22.5 59.3,24.2 C58.8,25.1 58.1,25.5 57.2,25.6 C54.5,25.9 51.1,24.4 49.9,21.9 C49.3,20.7 49,19.3 49,17.9 C48.9,17.5 48.9,17.1 48.9,16.6 Z" id="Shape" fill="#FFFFFF"></path>
                    <path d="M10.8,12.7 C10.8,11.8 10.8,10.8 10.8,9.9 C10.8,9.6 10.9,9.4 11.2,9.4 C12.5,9.4 13.8,9.3 15,9.5 C16.4,9.7 17.1,10.6 17.3,12 C17.4,12.9 17.3,13.7 16.9,14.5 C16.5,15.3 15.7,15.7 14.9,15.8 C13.6,15.9 12.4,15.9 11.1,15.9 C11,15.9 10.8,15.6 10.8,15.5 C10.7,14.6 10.8,13.6 10.8,12.7 C10.8,12.7 10.8,12.7 10.8,12.7 Z" id="Shape" fill="#FFFFFF"></path>
                </g>
            </g>
        </g>
    </g>
</svg>