<?xml version="1.0" encoding="UTF-8"?>
<svg width="154px" height="37px" viewBox="0 0 154 37" version="1.1" xmlns="http://www.w3.org/2000/svg" xmlns:xlink="http://www.w3.org/1999/xlink">
    <!-- Generator: Sketch 49.3 (51167) - http://www.bohemiancoding.com/sketch -->
    <title>dqr7Di_1_</title>
    <desc>Created with Sketch.</desc>
    <defs></defs>
    <g id="Page-1" stroke="none" stroke-width="1" fill="none" fill-rule="evenodd">
        <g id="plork-logos" transform="translate(-655.000000, -9.000000)" fill-rule="nonzero">
            <g id="dqr7Di_1_" transform="translate(655.000000, 9.000000)">
                <g id="Group">
                    <path d="M0.7,36.1 C0.7,24.1 0.7,12 0.7,0 C51.7,0 102.7,0 153.7,0 C153.7,12 153.7,24.1 153.7,36.1 C102.7,36.1 51.7,36.1 0.7,36.1 Z M95.6,5.4 C92.1,5.4 88.9,6.3 85.9,8.1 C82.9,9.9 80,11.9 76.8,13.3 C73.7,14.7 70.7,16.2 67.7,17.8 C65.6,18.9 63.6,20.1 61.7,21.4 C60.4,22.3 59.2,23.4 58.5,25 C58.2,25.7 58.3,26.3 58.7,26.8 C59.3,27.6 60.3,28 61.2,28.1 C63.9,28.5 66.5,28.1 69.1,27.5 C73.1,26.4 76.8,24.7 80.7,23.1 C82.9,22.2 85.1,21.2 87.3,20.3 C90.8,18.8 94.4,17.4 97.9,15.7 C99.9,14.8 101.8,13.6 103.7,12.4 C104.6,11.9 105.2,11.1 105.1,10 C105,8.9 104.3,8.2 103.4,7.6 C101,6 98.4,5.3 95.6,5.4 Z M7.3,32.9 C8.8,32.8 10.2,32.6 11.7,32.5 C12.4,32.5 12.6,32.2 12.7,31.6 C13,29.8 14,28.3 15.3,27 C17.3,24.9 19.7,23.4 22.2,22 C22.8,21.7 23.5,21.5 24.1,21.4 C26.5,21.1 28.9,21.1 31.2,20.7 C33.5,20.3 35.8,19.7 38.1,19.1 C42.3,18 46.3,16.6 50.1,14.5 C51,14 51.8,13.4 52.6,12.8 C53.2,12.3 53.1,11.4 52.4,11.1 C51.4,10.7 50.3,10.4 49.3,10.3 C47.7,10.2 46,10.3 44.4,10.4 C41.7,10.6 39.1,10.8 36.4,11 C36.1,11 35.9,11.1 35.7,11.3 C35.2,11.7 34.8,12.2 34.3,12.5 C32.2,13.7 30,15 27.8,16.1 C23.9,18.1 20.1,20.1 16.2,22.1 C14,23.3 11.9,24.7 10.1,26.5 C8.5,28 7.3,29.8 6.9,32.1 C6.7,32.7 6.7,33 7.3,32.9 Z M115.8,23.3 C116.1,23.3 116.3,23.4 116.5,23.4 C117,23.4 117.6,23.3 118.1,23.2 C119.6,23.1 121.1,23 122.6,22.8 C123,22.8 123.3,22.6 123.6,22.3 C124.8,21.3 125.9,20.2 127,19.2 C128.6,17.9 130.2,16.6 131.7,15.2 C132.7,14.2 133.7,13.7 135,13.3 C138,12.4 140.9,11.3 143.6,9.6 C144.2,9.2 144.8,8.8 145.5,8.3 C145.3,8.1 145.2,8.1 145.1,8.1 C143.5,8.2 141.9,8.3 140.3,8.4 C139.8,8.4 139.3,8.6 138.9,8.9 C138.3,9.3 137.7,9.8 137.1,10.2 C135,11.6 132.7,12.3 130.4,13.2 C129.9,13.4 129.3,13.5 128.8,13.7 C128.8,13.6 128.7,13.6 128.7,13.5 C128.9,13.3 129.2,13.1 129.4,13 C129.9,12.7 130.4,12.4 130.9,12.1 C132,11.4 132.9,10.5 133.4,9.3 C134.2,7.2 133.8,5 133.2,2.9 C133.1,2.7 132.7,2.4 132.5,2.5 C131,2.6 129.6,2.7 128.2,2.9 C127.8,2.9 127.7,3.1 127.7,3.5 C127.9,4.6 128,5.8 128.1,6.9 C128.3,9.2 127.2,10.9 125.3,12.1 C123.6,13.2 121.9,14.1 120.1,15.1 C117.9,16.3 115.6,17.3 113.4,18.4 C111,19.7 108.5,21 106.1,22.3 C105.1,22.9 104.2,23.6 103,24.3 C103.3,24.4 103.5,24.4 103.6,24.4 C104.9,24.3 106.3,24.2 107.6,24.1 C108.3,24 109.1,23.8 109.8,23.5 C111,22.9 112.2,22 113.4,21.3 C117.1,19.4 120.8,17.6 124.5,15.7 C124.7,15.6 124.9,15.6 125.1,15.6 C125.1,15.7 125.2,15.7 125.2,15.8 C122.1,18.3 118.7,20.3 115.8,23.3 Z M41,25.1 C41,25 41,24.9 40.9,24.9 C41,24.8 41.1,24.7 41.2,24.7 C43.9,22.6 46.9,21 49.9,19.5 C54.1,17.3 58.3,15.2 62.5,12.9 C64.1,12.1 65.2,10.8 65.9,9.2 C66,8.8 66,8.6 65.5,8.6 C63.9,8.7 62.2,8.9 60.6,9 C60.3,9 60,9.2 59.9,9.4 C59.5,10.6 58.7,11.5 57.7,12.2 C54.8,13.9 52,15.5 49,17 C44.5,19.3 40,21.4 35.9,24.3 C34.4,25.4 33,26.5 31.9,27.9 C31.3,28.7 30.7,29.5 30.5,30.6 C30.8,30.6 31.1,30.6 31.4,30.6 C33.4,30.4 35.4,30.3 37.4,30.1 C38.6,30 39.7,29.9 40.9,29.8 C43.4,29.6 45.8,29.4 48.3,29.2 C48.7,29.2 48.9,29 49.1,28.7 C50,27.6 51,26.5 52,25.5 C52.4,25.1 53,24.7 53.5,24.3 C53.5,24.2 53.5,24.2 53.4,24.1 C49.3,24.5 45.2,24.8 41,25.1 Z M85.4,25.6 C85.4,25.7 85.4,25.7 85.5,25.8 C85.6,25.8 85.8,25.8 85.9,25.8 C87,25.7 88.1,25.7 89.2,25.5 C90.3,25.4 91.3,25.3 92.3,24.5 C95.3,22.2 98.6,20.4 101.9,18.8 C104.2,17.7 106.4,16.7 108.7,15.6 C111.8,14.1 115,13.1 118.4,13.1 C118.8,13.1 119.3,13 119.6,12.8 C120.8,12.2 121.8,11.4 122.7,10.3 C122.8,10.2 122.9,10 123,9.8 C119.9,9.7 117.3,11.1 114.7,12.1 C114.7,12 114.6,12 114.6,11.9 C115,11.5 115.4,11.1 115.8,10.6 C115.6,10.6 115.5,10.5 115.4,10.5 C113.9,10.6 112.4,10.7 110.8,10.8 C110.6,10.8 110.4,11 110.2,11.1 C109.5,11.6 108.8,12.3 108,12.7 C106.2,13.7 104.4,14.7 102.5,15.6 C99.9,16.9 97.2,18.3 94.6,19.6 C91.7,21 89,22.7 86.4,24.6 C86,25 85.7,25.4 85.4,25.6 Z" id="Shape" fill="#FFFFFF"></path>
                    <path d="M95.6,5.4 C98.4,5.3 101,6 103.4,7.7 C104.2,8.3 104.9,9 105.1,10.1 C105.3,11.2 104.6,12 103.7,12.5 C101.8,13.7 99.9,14.9 97.9,15.8 C94.4,17.4 90.8,18.9 87.3,20.4 C85.1,21.3 82.9,22.3 80.7,23.2 C76.9,24.7 73.1,26.5 69.1,27.6 C66.5,28.3 63.9,28.7 61.2,28.2 C60.3,28.1 59.3,27.7 58.7,26.9 C58.3,26.3 58.2,25.7 58.5,25.1 C59.1,23.5 60.3,22.4 61.7,21.5 C63.6,20.2 65.7,19 67.7,17.9 C70.7,16.3 73.7,14.8 76.8,13.4 C80,12 82.9,10 85.9,8.2 C88.9,6.4 92.1,5.4 95.6,5.4 Z M69.6,23.6 C69.6,23.6 69.6,23.7 69.6,23.7 C71,23.4 72.4,23.3 73.7,22.9 C75.1,22.5 76.6,22 78,21.5 C81,20.3 84,19.2 86.9,17.9 C88.6,17.2 90.3,16.5 92,15.6 C93.8,14.6 95.6,13.6 97.3,12.4 C98.6,11.5 98.8,10 96.9,9.3 C96.7,9.2 96.5,9.2 96.3,9.1 C94.1,8.6 92,9 90,9.8 C88.5,10.4 87,11.2 85.5,12 C80.7,14.5 75.8,16.9 71,19.4 C69.8,20 68.6,20.9 67.8,22 C67.2,22.7 67.6,23.5 68.5,23.5 C68.8,23.7 69.2,23.6 69.6,23.6 Z" id="Shape" fill="#000000"></path>
                    <path d="M7.3,32.9 C6.7,33 6.7,32.7 6.8,32.2 C7.1,29.9 8.3,28.1 10,26.6 C11.8,24.9 13.9,23.4 16.1,22.2 C19.9,20.1 23.8,18.2 27.7,16.2 C29.9,15 32.1,13.8 34.2,12.6 C34.7,12.3 35.1,11.8 35.6,11.4 C35.8,11.2 36.1,11.1 36.3,11.1 C39,10.9 41.6,10.7 44.3,10.5 C45.9,10.4 47.6,10.3 49.2,10.4 C50.3,10.5 51.3,10.8 52.3,11.2 C53,11.5 53.2,12.4 52.5,12.9 C51.7,13.5 50.9,14.1 50,14.6 C46.2,16.7 42.1,18.1 38,19.2 C35.7,19.8 33.4,20.4 31.1,20.8 C28.7,21.2 26.3,21.2 24,21.5 C23.3,21.6 22.7,21.8 22.1,22.1 C19.6,23.5 17.2,25.1 15.2,27.1 C13.9,28.4 12.9,29.9 12.6,31.7 C12.5,32.3 12.3,32.6 11.6,32.6 C10.2,32.6 8.8,32.7 7.3,32.9 Z M30.3,17.8 C30.3,17.9 30.3,17.9 30.4,18 C30.6,18 30.8,18.1 30.9,18 C32.6,17.8 34.2,17.7 35.9,17.5 C38.9,17.1 41.6,16 44.2,14.4 C44.5,14.2 44.7,13.8 44.9,13.5 C44.5,13.4 44.2,13.1 43.8,13.1 C42.2,13.1 40.6,13.2 39.1,13.3 C38.9,13.3 38.6,13.4 38.4,13.5 C35.9,14.8 33.5,16 31,17.3 C30.7,17.5 30.5,17.7 30.3,17.8 Z" id="Shape" fill="#000000"></path>
                    <path d="M115.8,23.3 C118.7,20.4 122.1,18.3 125.1,15.7 C125.1,15.6 125,15.6 125,15.5 C124.8,15.5 124.6,15.6 124.4,15.6 C120.7,17.5 117,19.3 113.3,21.2 C112.1,21.8 110.9,22.7 109.7,23.4 C109,23.7 108.3,23.9 107.5,24 C106.2,24.2 104.9,24.2 103.5,24.3 C103.4,24.3 103.3,24.3 102.9,24.2 C104,23.5 105,22.8 106,22.2 C108.4,20.9 110.8,19.6 113.3,18.3 C115.5,17.2 117.8,16.1 120,15 C121.8,14.1 123.5,13.1 125.2,12 C127.1,10.8 128.1,9.1 128,6.8 C127.9,5.7 127.8,4.5 127.6,3.4 C127.5,3 127.7,2.8 128.1,2.8 C129.5,2.7 131,2.5 132.4,2.4 C132.6,2.4 133.1,2.6 133.1,2.8 C133.6,4.9 134.1,7 133.3,9.2 C132.8,10.5 131.9,11.3 130.8,12 C130.3,12.3 129.8,12.6 129.3,12.9 C129,13.1 128.8,13.3 128.6,13.4 C128.6,13.5 128.7,13.5 128.7,13.6 C129.2,13.4 129.8,13.3 130.3,13.1 C132.6,12.2 135,11.5 137,10.1 C137.6,9.7 138.2,9.2 138.8,8.8 C139.2,8.6 139.7,8.4 140.2,8.3 C141.8,8.1 143.4,8.1 145,8 C145.1,8 145.2,8 145.4,8.2 C144.8,8.6 144.2,9.1 143.5,9.5 C140.9,11.2 137.9,12.2 134.9,13.2 C133.7,13.6 132.6,14.1 131.6,15.1 C130.2,16.5 128.5,17.8 126.9,19.1 C125.7,20.1 124.6,21.2 123.5,22.2 C123.2,22.4 122.8,22.6 122.5,22.7 C121,22.9 119.5,23 118,23.1 C117.5,23.1 116.9,23.2 116.4,23.3 C116.4,23.3 116.2,23.3 115.8,23.3 Z" id="Shape" fill="#000000"></path>
                    <path d="M41,25.1 C45.1,24.8 49.2,24.5 53.4,24.1 C53.4,24.2 53.4,24.2 53.5,24.3 C53,24.7 52.5,25 52,25.5 C51,26.5 50.1,27.6 49.1,28.7 C48.9,29 48.7,29.1 48.3,29.2 C45.8,29.4 43.4,29.6 40.9,29.8 C39.7,29.9 38.6,30 37.4,30.1 C35.4,30.3 33.4,30.5 31.4,30.6 C31.1,30.6 30.9,30.6 30.5,30.6 C30.7,29.5 31.3,28.7 31.9,27.9 C33,26.4 34.4,25.3 35.9,24.3 C40,21.4 44.6,19.3 49,17 C51.9,15.5 54.8,13.9 57.7,12.2 C58.7,11.6 59.5,10.6 59.9,9.4 C60,9.2 60.3,9 60.6,9 C62.2,8.8 63.9,8.7 65.5,8.6 C66,8.6 66,8.8 65.9,9.2 C65.2,10.9 64.1,12.1 62.5,12.9 C58.3,15.1 54.1,17.3 49.9,19.5 C46.9,21.1 43.9,22.7 41.2,24.7 C41.1,24.8 41,24.9 40.9,24.9 C41,25 41,25 41,25.1 Z" id="Shape" fill="#000000"></path>
                    <path d="M85.4,25.6 C85.7,25.3 86,25 86.4,24.7 C89,22.9 91.7,21.1 94.6,19.7 C97.3,18.4 99.9,17.1 102.5,15.7 C104.3,14.8 106.2,13.8 108,12.8 C108.8,12.3 109.5,11.7 110.2,11.2 C110.4,11.1 110.6,10.9 110.8,10.9 C112.3,10.8 113.8,10.7 115.4,10.6 C115.5,10.6 115.6,10.6 115.8,10.7 C115.4,11.2 115,11.6 114.6,12 C114.6,12.1 114.7,12.1 114.7,12.2 C117.4,11.2 120,9.8 123,9.9 C122.9,10.1 122.8,10.3 122.7,10.4 C121.9,11.4 120.8,12.3 119.6,12.9 C119.2,13.1 118.8,13.2 118.4,13.2 C114.9,13.2 111.7,14.2 108.7,15.7 C106.4,16.8 104.2,17.8 101.9,18.9 C98.5,20.5 95.2,22.3 92.3,24.6 C91.3,25.4 90.3,25.4 89.2,25.6 C88.1,25.7 87,25.8 85.9,25.9 C85.8,25.9 85.6,25.9 85.5,25.9 C85.4,25.7 85.4,25.7 85.4,25.6 Z" id="Shape" fill="#000000"></path>
                    <path d="M69.6,23.6 C69.2,23.6 68.8,23.6 68.4,23.6 C67.5,23.5 67.2,22.8 67.7,22.1 C68.5,21 69.7,20.1 70.9,19.5 C75.7,17 80.6,14.6 85.4,12.1 C86.9,11.3 88.4,10.6 89.9,9.9 C91.9,9.1 94.1,8.7 96.2,9.2 C96.4,9.2 96.6,9.3 96.8,9.4 C98.7,10.1 98.5,11.6 97.2,12.5 C95.5,13.7 93.7,14.7 91.9,15.7 C90.3,16.6 88.5,17.3 86.8,18 C83.8,19.2 80.9,20.4 77.9,21.6 C76.5,22.1 75.1,22.6 73.6,23 C72.2,23.4 70.8,23.5 69.5,23.8 C69.6,23.7 69.6,23.7 69.6,23.6 Z" id="Shape" fill="#FFFFFF"></path>
                    <path d="M30.3,17.8 C30.5,17.6 30.7,17.5 30.9,17.3 C33.4,16 35.8,14.7 38.3,13.5 C38.5,13.4 38.8,13.3 39,13.3 C40.6,13.2 42.2,13.1 43.7,13.1 C44.1,13.1 44.4,13.4 44.8,13.5 C44.6,13.8 44.4,14.2 44.1,14.4 C41.6,16 38.8,17.1 35.8,17.5 C34.2,17.7 32.5,17.8 30.8,18 C30.6,18 30.4,18 30.3,18 C30.3,18 30.3,17.9 30.3,17.8 Z" id="Shape" fill="#FFFFFF"></path>
                </g>
            </g>
        </g>
    </g>
</svg>