<?xml version="1.0" encoding="UTF-8"?>
<svg width="127px" height="45px" viewBox="0 0 127 45" version="1.1" xmlns="http://www.w3.org/2000/svg" xmlns:xlink="http://www.w3.org/1999/xlink">
    <!-- Generator: Sketch 49.3 (51167) - http://www.bohemiancoding.com/sketch -->
    <title>_x36_6e9fy_1_</title>
    <desc>Created with Sketch.</desc>
    <defs></defs>
    <g id="Page-1" stroke="none" stroke-width="1" fill="none" fill-rule="evenodd">
        <g id="plork-logos" transform="translate(0.000000, -193.000000)" fill-rule="nonzero">
            <g id="_x36_6e9fy_1_" transform="translate(0.000000, 193.000000)">
                <g id="Group">
                    <path d="M0.1,44.1 C0.1,29.5 0.1,14.8 0.1,0.2 C42.3,0.2 84.5,0.2 126.8,0.2 C126.8,14.8 126.8,29.5 126.8,44.1 C84.6,44.1 42.4,44.1 0.1,44.1 Z M57.2,6.2 C56.4,6.2 55.8,6.3 55.2,6.3 C54.9,6.3 54.5,6.4 54.2,6.5 C53.8,6.7 53.3,6.9 53,7.3 C52.5,8.1 52.6,8.8 53.3,9.6 C54.6,11.3 56.3,12.6 58,13.8 C60,15.3 62,16.7 64,18.2 C65.5,19.4 66.8,20.9 67.6,22.8 C68.1,24.1 68.7,25.5 69.3,26.7 C70.3,28.8 71.9,30.5 74.2,31.3 C75.9,31.9 77.6,32.1 79.3,31.8 C81.8,31.4 84,30.3 86,28.6 C87.4,27.4 88.6,26.1 89.4,24.5 C90,23.3 90.5,22.1 89.8,20.8 C89.3,19.9 88.8,19 88,18.3 C86.3,16.7 84.4,15.5 82.3,14.5 C79.7,13.2 77.1,12 74.5,10.8 C71.1,9.3 67.6,8 64,7.1 C61.9,6.5 59.4,6.2 57.2,6.2 Z M104,36.2 C104.2,36.3 104.3,36.4 104.4,36.4 C105.4,36.7 106.4,36.9 107.5,37.1 C107.8,37.1 108.2,37 108.4,36.8 C108.9,36.2 109.4,35.6 109.9,35 C111.9,32.5 113.1,29.7 113.9,26.6 C114.1,25.9 114.3,25.1 114.5,24.2 C114.6,24.5 114.8,24.7 114.8,24.8 C115.1,26.3 115.5,27.8 115.6,29.3 C115.8,31 115.6,32.8 114.7,34.3 C114.1,35.4 113.4,36.6 112.7,37.7 C112.3,38.3 112.4,38.5 113,38.7 C114,39 115,39.3 116,39.6 C116.6,39.8 117,39.6 117.3,39.1 C118.1,37.9 118.9,36.7 119.6,35.5 C120.5,33.9 121.1,32.3 121,30.4 C120.9,28.3 120.5,26.3 119.6,24.4 C119.4,24 119.5,23.7 119.8,23.4 C121.4,21.6 121.9,19.6 121.2,17.4 C120.9,16.5 120.7,16.4 119.8,16.3 C118.5,16.2 117.1,16.1 115.8,16 C115.4,16 115,16 114.7,16 C115,17.2 115.4,18.3 115.6,19.4 C115.8,20.6 115.7,21.7 114.7,22.8 C114.5,22.2 114.5,21.8 114.3,21.4 C113.6,19.6 112.4,18.3 110.9,17.3 C108.6,15.7 106.3,14.3 103.9,12.8 C102,11.6 100.1,10.5 98.3,9.3 C97.3,8.6 96.2,8.2 95,8.3 C94.6,8.3 94.1,8.2 93.7,8.2 C93.1,8.2 92.6,8.2 92,8.2 C92,8.3 91.9,8.3 91.9,8.4 C92,8.4 92.1,8.5 92.2,8.5 C95.1,10.3 98,12.1 100.9,13.9 C103.2,15.3 105.5,16.7 107.4,18.7 C108.9,20.2 109.7,21.9 109.3,24.1 C109.1,25 109,25.8 108.8,26.7 C108.3,28.8 107.6,30.8 106.5,32.7 C105.7,33.9 104.8,35 104,36.2 Z M27.9,16.8 C29.1,16.8 30.2,16.8 31.2,16.8 C32.5,16.8 33.7,17 35,16.7 C36.7,16.4 37,15.2 35.6,14.1 C34.4,13.1 33.2,12.2 31.9,11.4 C28.4,9.2 24.6,7.4 20.6,6.4 C18.8,5.9 16.9,5.5 15.1,5.3 C11.8,5 8.6,5 5.3,4.9 C5.1,4.9 5,4.9 4.6,5 C4.9,5.2 5,5.4 5.1,5.5 C5.6,5.9 6.1,6.2 6.6,6.5 C9.6,8.5 12.6,10.4 15.6,12.3 C18.1,13.9 20.7,15.5 23.1,17.2 C24.2,18 25.1,19.2 26,20.2 C27,21.5 26.9,23 26.8,24.5 C26.8,25.2 26.8,25.3 27.5,25.3 C28.8,25.4 30,25.5 31.3,25.6 C31.5,25.6 31.8,25.4 31.8,25.3 C31.9,24.2 32.1,23.1 31.9,22.1 C31.8,20.7 30.8,19.7 29.9,18.7 C29.4,18.1 28.6,17.5 27.9,16.8 Z M26.9,5.7 C27,5.9 27.1,6 27.2,6.1 C29.5,7.6 31.8,9.1 34.1,10.6 C36.6,12.2 39.2,13.8 41.8,15.4 C43.7,16.6 45.6,17.9 46.9,19.8 C47.6,20.8 48.2,21.8 48.1,23.1 C48,24.4 47.8,25.8 47.6,27.1 C47.5,27.6 47.6,27.8 48.1,27.8 C49.4,27.9 50.7,28.1 52,28.2 C53.7,28.4 55.4,28.6 57.1,28.8 C58.9,29 60.6,29.2 62.4,29.4 C62.9,29.5 63.2,29.2 63.3,28.8 C63.6,27.8 63.8,26.9 64.1,25.9 C64.4,24.8 64.4,24.8 63.3,24.7 C61.7,24.5 60.1,24.4 58.6,24.2 C57.1,24.1 55.7,23.9 54.2,23.8 C53.7,23.8 53.6,23.6 53.5,23.1 C53.4,22.5 53.4,21.8 53.1,21.2 C52.2,19.1 50.5,17.7 48.8,16.4 C46.6,14.9 44.3,13.5 42.1,12.1 C38.9,10 35.7,8 32.5,5.9 C32.3,5.8 32,5.6 31.7,5.6 C30.3,5.5 28.9,5.5 27.5,5.5 C27.3,5.6 27.2,5.7 26.9,5.7 Z M87.2,14.5 C87.6,14.7 87.8,14.9 88,15 C90.1,16.3 92.1,17.6 93.6,19.6 C94.3,20.4 94.8,21.4 94.8,22.4 C94.8,23.5 94.8,24.6 94.5,25.7 C93.9,28.2 93.1,30.6 91.8,32.8 C91.5,33.3 91.6,33.5 92.2,33.6 C93.2,33.8 94.3,34 95.4,34.2 C95.7,34.2 96,34.1 96.2,33.9 C96.6,33.4 97,32.8 97.3,32.1 C97.9,30.7 98.5,29.2 99.1,27.7 C99.9,25.4 100.3,23 99.8,20.5 C99.6,19.5 100.2,18.9 101.2,18.9 C101.7,18.9 102.3,18.9 102.8,18.9 C103,18.9 103.2,18.8 103.5,18.8 C103.3,18.6 103.3,18.4 103.1,18.3 C101.9,17.3 100.8,16.4 99.6,15.5 C99.2,15.2 98.7,14.8 98.2,14.7 C97.4,14.6 96.6,14.6 95.9,14.7 C95.3,14.7 95,15.2 95.3,15.8 C95.4,16 95.5,16.3 95.6,16.5 C95.5,16.5 95.5,16.6 95.4,16.6 C94.9,16.3 94.3,15.9 93.8,15.5 C92.8,14.9 91.9,14.1 90.6,14.3 C90.1,14.4 89.5,14.2 89,14.2 C88.4,14.5 87.9,14.5 87.2,14.5 Z" id="Shape" fill="#FFFFFF"></path>
                    <path d="M57.2,6.2 C59.5,6.2 61.9,6.6 64.2,7.2 C67.8,8.2 71.3,9.4 74.7,10.9 C77.3,12.1 79.9,13.3 82.5,14.6 C84.6,15.6 86.5,16.8 88.2,18.4 C88.9,19.1 89.5,20 90,20.9 C90.7,22.2 90.2,23.4 89.6,24.6 C88.8,26.2 87.6,27.5 86.2,28.7 C84.2,30.4 82,31.5 79.5,31.9 C77.8,32.2 76.1,32 74.4,31.4 C72.1,30.6 70.5,28.9 69.5,26.8 C68.9,25.5 68.3,24.2 67.8,22.9 C67.1,21 65.8,19.5 64.2,18.3 C62.3,16.7 60.2,15.3 58.2,13.9 C56.5,12.7 54.8,11.4 53.5,9.7 C52.8,8.8 52.7,8.1 53.2,7.4 C53.4,7 53.9,6.8 54.4,6.6 C54.7,6.5 55,6.4 55.4,6.4 C55.8,6.2 56.4,6.2 57.2,6.2 Z M62.8,9.7 C62.4,9.7 61.9,9.7 61.5,9.8 C60.7,9.9 60.4,10.4 60.9,11.1 C61.3,11.7 61.8,12.4 62.4,12.8 C64.1,14.1 65.9,15.3 67.6,16.6 C70.2,18.5 72.5,20.7 73.6,23.8 C74,24.8 74.7,25.7 75.7,26.3 C78,27.7 81.2,27.3 83.1,25.4 C84.7,23.7 85.2,21.8 83.7,19.7 C82.5,18.1 81,16.9 79.3,15.9 C76,13.9 72.6,12.3 69,11 C66.9,10.2 64.9,9.6 62.8,9.7 Z" id="Shape" fill="#000000"></path>
                    <path d="M104,36.2 C104.8,35 105.7,33.9 106.4,32.8 C107.5,30.9 108.3,28.9 108.7,26.8 C108.9,25.9 109,25.1 109.2,24.2 C109.6,22 108.8,20.3 107.3,18.8 C105.4,16.8 103.1,15.4 100.8,14 C97.9,12.2 95,10.4 92.1,8.6 C92,8.5 91.9,8.5 91.8,8.5 C91.8,8.4 91.9,8.4 91.9,8.3 C92.5,8.3 93,8.3 93.6,8.3 C94,8.3 94.5,8.4 94.9,8.4 C96.1,8.3 97.2,8.7 98.2,9.4 C100,10.6 101.9,11.8 103.8,12.9 C106.1,14.4 108.5,15.8 110.8,17.4 C112.3,18.4 113.5,19.8 114.2,21.5 C114.4,21.9 114.4,22.4 114.6,22.9 C115.6,21.9 115.7,20.7 115.5,19.5 C115.3,18.4 114.9,17.3 114.6,16.1 C114.9,16.1 115.3,16.1 115.7,16.1 C117,16.2 118.4,16.3 119.7,16.4 C120.6,16.5 120.8,16.6 121.1,17.5 C121.8,19.8 121.3,21.8 119.7,23.5 C119.4,23.8 119.3,24.1 119.5,24.5 C120.4,26.4 120.8,28.4 120.9,30.5 C121,32.4 120.5,34 119.5,35.6 C118.8,36.8 118,38 117.2,39.2 C116.9,39.7 116.5,39.9 115.9,39.7 C114.9,39.4 113.9,39.1 112.9,38.8 C112.2,38.6 112.2,38.4 112.6,37.8 C113.3,36.7 113.9,35.6 114.6,34.4 C115.5,32.8 115.7,31.1 115.5,29.4 C115.3,27.9 115,26.4 114.7,24.9 C114.7,24.7 114.5,24.6 114.4,24.3 C114.2,25.2 114,25.9 113.8,26.7 C113,29.8 111.8,32.6 109.8,35.1 C109.3,35.7 108.8,36.3 108.3,36.9 C108.1,37.1 107.7,37.3 107.4,37.2 C106.4,37 105.4,36.7 104.3,36.5 C104.3,36.3 104.2,36.3 104,36.2 Z" id="Shape" fill="#000000"></path>
                    <path d="M27.9,16.8 C28.7,17.5 29.4,18.1 30,18.8 C30.9,19.8 31.9,20.8 32,22.2 C32.1,23.3 31.9,24.3 31.9,25.4 C31.9,25.5 31.5,25.7 31.4,25.7 C30.1,25.6 28.9,25.5 27.6,25.4 C26.9,25.3 26.8,25.3 26.9,24.6 C27,23.1 27.1,21.5 26.1,20.3 C25.2,19.2 24.3,18.1 23.2,17.3 C20.8,15.6 18.2,14 15.7,12.4 C12.7,10.5 9.7,8.5 6.7,6.6 C6.2,6.3 5.7,5.9 5.2,5.6 C5.1,5.5 4.9,5.4 4.7,5.1 C5,5.1 5.2,5 5.4,5 C8.7,5.1 11.9,5.1 15.2,5.4 C17.1,5.5 18.9,6 20.7,6.5 C24.8,7.5 28.5,9.3 32,11.5 C33.3,12.3 34.5,13.2 35.7,14.2 C37,15.3 36.8,16.5 35.1,16.8 C33.9,17 32.6,16.9 31.3,16.9 C30.1,16.8 29.1,16.8 27.9,16.8 Z M15,8.5 C15,8.6 14.9,8.6 14.9,8.7 C15.2,8.9 15.5,9.1 15.9,9.3 C17.8,10.5 19.7,11.7 21.6,12.9 C22.3,13.3 23,13.6 23.8,13.7 C24.5,13.7 25.2,13.8 25.8,13.8 C26.4,13.8 27,13.8 27.7,13.7 C28.2,13.6 28.3,13.3 28,12.9 C27.9,12.8 27.8,12.6 27.6,12.5 C26.1,11.2 24.4,10.3 22.5,9.6 C20.1,8.6 17.6,8.5 15.1,8.5 C15.2,8.4 15.1,8.5 15,8.5 Z" id="Shape" fill="#000000"></path>
                    <path d="M26.9,5.7 C27.1,5.7 27.3,5.6 27.4,5.6 C28.8,5.6 30.2,5.7 31.6,5.7 C31.9,5.7 32.2,5.8 32.4,6 C35.6,8.1 38.8,10.1 42,12.2 C44.2,13.6 46.5,15 48.7,16.5 C50.5,17.7 52.1,19.2 53,21.3 C53.2,21.9 53.3,22.5 53.4,23.2 C53.5,23.7 53.6,23.9 54.1,23.9 C55.6,24 57,24.1 58.5,24.3 C60.1,24.4 61.7,24.6 63.2,24.8 C64.3,24.9 64.3,24.9 64,26 C63.7,27 63.5,27.9 63.2,28.9 C63.1,29.4 62.8,29.6 62.3,29.5 C60.5,29.3 58.8,29.1 57,28.9 C55.3,28.7 53.6,28.5 51.9,28.3 C50.6,28.1 49.3,28 48,27.9 C47.5,27.9 47.4,27.7 47.5,27.2 C47.7,25.9 47.9,24.6 48,23.2 C48.1,21.9 47.5,20.9 46.8,19.9 C45.4,18 43.6,16.7 41.7,15.5 C39.1,13.9 36.6,12.3 34,10.7 C31.7,9.2 29.4,7.7 27.1,6.2 C27.1,6 27.1,5.9 26.9,5.7 Z" id="Shape" fill="#000000"></path>
                    <path d="M87.2,14.5 C87.9,14.5 88.4,14.5 89,14.5 C89.5,14.5 90.1,14.7 90.6,14.6 C91.9,14.5 92.8,15.2 93.8,15.8 C94.3,16.2 94.9,16.5 95.4,16.9 C95.5,16.9 95.5,16.8 95.6,16.8 C95.5,16.6 95.4,16.3 95.3,16.1 C95.1,15.5 95.3,15 95.9,15 C96.7,14.9 97.5,14.9 98.2,15 C98.7,15.1 99.2,15.4 99.6,15.8 C100.8,16.7 102,17.7 103.1,18.6 C103.2,18.7 103.3,18.8 103.5,19.1 C103.2,19.1 103,19.2 102.8,19.2 C102.3,19.2 101.7,19.2 101.2,19.2 C100.2,19.2 99.6,19.8 99.8,20.8 C100.3,23.3 99.9,25.6 99.1,28 C98.6,29.5 98,30.9 97.3,32.4 C97,33 96.6,33.6 96.2,34.2 C96.1,34.4 95.7,34.5 95.4,34.5 C94.3,34.3 93.3,34.1 92.2,33.9 C91.6,33.8 91.5,33.6 91.8,33.1 C93.1,30.9 93.9,28.5 94.5,26 C94.7,24.9 94.8,23.8 94.8,22.7 C94.8,21.6 94.2,20.7 93.6,19.9 C92.1,18 90.1,16.6 88,15.3 C87.7,14.9 87.5,14.8 87.2,14.5 Z" id="Shape" fill="#000000"></path>
                    <path d="M62.8,9.7 C64.9,9.6 66.8,10.2 68.8,10.9 C72.4,12.2 75.9,13.8 79.1,15.8 C80.8,16.8 82.3,18 83.5,19.6 C85,21.7 84.5,23.7 82.9,25.3 C81,27.3 77.9,27.6 75.5,26.2 C74.5,25.6 73.8,24.7 73.4,23.7 C72.2,20.6 69.9,18.5 67.4,16.5 C65.7,15.2 63.9,14 62.2,12.7 C61.6,12.2 61.1,11.6 60.7,11 C60.3,10.3 60.5,9.8 61.3,9.7 C61.9,9.7 62.4,9.7 62.8,9.7 Z" id="Shape" fill="#FFFFFF"></path>
                    <path d="M15,8.5 C15.1,8.5 15.2,8.4 15.3,8.4 C17.8,8.3 20.3,8.5 22.7,9.5 C24.5,10.3 26.2,11.2 27.8,12.4 C27.9,12.5 28.1,12.6 28.2,12.8 C28.5,13.3 28.4,13.6 27.9,13.6 C27.3,13.7 26.7,13.7 26,13.7 C25.3,13.7 24.6,13.6 24,13.6 C23.2,13.6 22.5,13.3 21.8,12.8 C19.9,11.6 18,10.4 16.1,9.2 C15.8,9 15.5,8.8 15.1,8.6 C15,8.6 15,8.6 15,8.5 Z" id="Shape" fill="#FFFFFF"></path>
                </g>
            </g>
        </g>
    </g>
</svg>