<?xml version="1.0" encoding="UTF-8"?>
<svg width="112px" height="35px" viewBox="0 0 112 35" version="1.1" xmlns="http://www.w3.org/2000/svg" xmlns:xlink="http://www.w3.org/1999/xlink">
    <!-- Generator: Sketch 49.3 (51167) - http://www.bohemiancoding.com/sketch -->
    <title>hiytCb_1_</title>
    <desc>Created with Sketch.</desc>
    <defs></defs>
    <g id="Page-1" stroke="none" stroke-width="1" fill="none" fill-rule="evenodd">
        <g id="plork-logos" transform="translate(-1080.000000, -56.000000)" fill-rule="nonzero">
            <g id="hiytCb_1_" transform="translate(1080.000000, 56.000000)">
                <g id="Group">
                    <path d="M0.1,34.6 C0.1,23.2 0.1,11.8 0.1,0.3 C37.2,0.3 74.3,0.3 111.5,0.3 C111.5,11.7 111.5,23.1 111.5,34.6 C74.4,34.6 37.2,34.6 0.1,34.6 Z M39.6,13.8 C39.6,14.3 39.6,14.8 39.7,15.3 C40.1,16.7 40.9,18 41.9,19.1 C43.7,21.1 45.8,22.8 48,24.4 C51,26.5 54.2,28.1 57.5,29.5 C59.8,30.4 62.2,31.3 64.6,31.6 C65.5,31.7 66.4,31.6 67.3,31.5 C68.1,31.4 68.4,30.8 68.1,30.1 C67.7,29.2 67.3,28.3 66.7,27.5 C64.8,24.9 62.9,22.4 61.4,19.6 C60.4,17.8 59.6,15.8 59.5,13.7 C59.5,11.5 59,9.4 57.8,7.6 C56.8,5.9 55.3,4.7 53.4,4.1 C51.6,3.5 49.8,3.4 48,3.7 C45.2,4.1 43.1,5.5 41.5,7.7 C40.2,9.4 39.7,11.5 39.6,13.8 Z M24.6,30 C24.4,29.8 24.4,29.8 24.3,29.7 C22.5,28.4 20.7,27.1 18.9,25.7 C16.8,24 14.9,22 13.3,19.8 C12.6,18.9 12.1,17.8 11.5,16.9 C11.3,16.6 11.5,16.4 11.8,16.4 C12.6,16.4 13.4,16.4 14.2,16.4 C16,16.5 17.7,16.1 19.1,14.9 C20,14.1 20.7,13.1 21.2,12 C21.6,10.8 21.6,9.5 21.5,8.2 C21.4,6.8 20.8,5.5 19.7,4.7 C18.3,3.6 16.6,3.2 14.9,3.1 C14.3,3.1 13.6,3.1 13,3 C11.2,3 9.4,2.9 7.7,2.9 C7.4,2.9 7.2,3 7.2,3.4 C7.2,3.8 7.2,4.3 7.1,4.7 C6.9,7.8 6.7,10.8 6.6,13.9 C6.6,15.1 6.9,16.3 7.5,17.3 C8.3,18.8 9.3,20.1 10.4,21.4 C11.8,23.1 13.4,24.7 15.2,26 C16.5,27 17.7,28 19.1,28.9 C19.6,29.3 20.2,29.6 20.9,29.8 C21.7,30 22.5,29.9 23.4,29.9 C23.6,30 24,30 24.6,30 Z M79.7,4.5 C79.7,4.5 79.7,4.5 79.6,4.5 C78.4,4.5 77.1,4.4 75.9,4.4 C75.8,4.4 75.6,4.6 75.6,4.8 C75.5,5.9 75.3,7.1 75.3,8.2 C75.2,9.6 75.2,11.1 75.1,12.5 C75,14.5 75.3,16.4 76.4,18.1 C78.4,21.2 80.9,23.9 83.8,26.1 C85.9,27.7 88.1,29.2 90.3,30.7 C90.7,31 91.2,31.1 91.7,31.1 C92.6,31.2 93.5,31.1 94.5,31.1 C94.6,31.1 94.8,31.1 95,31 C94.8,30.8 94.7,30.7 94.6,30.6 C93.4,29.7 92.1,28.9 90.9,28 C89.6,27.1 88.4,26.1 87.2,25.1 C85.3,23.4 83.5,21.6 82,19.5 C81.9,19.3 81.7,19.1 81.6,18.8 C81.8,18.8 81.8,18.8 81.9,18.9 C84,20.6 86.1,22.4 88.2,24 C90,25.3 91.9,26.5 93.9,27.7 C95.5,28.7 97.1,29.5 98.7,30.4 C99.2,30.7 99.8,31 100.4,31 C101.7,31.1 103,31.1 104.3,31.1 C104.4,31.1 104.6,31.1 104.8,31 C104.6,30.9 104.5,30.9 104.5,30.8 C103,30 101.4,29.2 99.9,28.4 C97.7,27.1 95.4,25.8 93.3,24.3 C91.3,22.9 89.4,21.4 87.5,19.9 C86.7,19.3 86,18.6 85.3,18 C85.2,17.9 85,17.6 85,17.5 C85.1,16.9 85.1,16.3 85.3,15.7 C85.8,14.3 86.8,13.2 87.7,12.1 C88,11.7 88.3,11.3 88.7,10.9 C88.6,10.8 88.5,10.8 88.5,10.8 C87.1,10.8 85.6,10.8 84.2,10.8 C84.1,10.8 83.9,10.9 83.8,11 C83.2,11.8 82.6,12.6 82.1,13.4 C81.6,14.2 81.2,15.1 80.8,15.9 C80.7,16.2 80.6,16.5 80.5,16.8 C80.4,16.8 80.4,16.8 80.3,16.8 C80.3,16.8 80.2,16.7 80.2,16.6 C79.8,15.7 79.6,14.7 79.6,13.7 C79.5,10.7 79.6,7.6 79.7,4.5 Z M52.2,30.5 C52,30.3 52,30.2 51.9,30.1 C51.1,29.6 50.3,29.1 49.5,28.5 C47.9,27.2 46.3,25.9 44.7,24.6 C44.4,24.4 44,24.1 43.6,24.1 C40.9,24 38.1,24 35.4,23.9 C35.1,23.9 34.7,23.7 34.4,23.5 C32.9,22.1 31.6,20.5 30.5,18.9 C29.4,17.2 28.7,15.5 28.8,13.4 C28.8,10.2 29,7.1 29.4,4 C29.4,3.6 29.3,3.4 28.9,3.4 C27.7,3.4 26.6,3.4 25.4,3.4 C25.1,3.4 24.9,3.6 24.9,3.9 C24.8,5.3 24.6,6.7 24.6,8.1 C24.5,10 24.4,11.8 24.4,13.7 C24.4,15 24.6,16.3 25.3,17.5 C26.5,19.8 28.3,21.8 30.1,23.6 C32.5,26 35.3,28.1 38.2,30 C38.5,30.2 38.9,30.4 39.2,30.4 C39.9,30.5 40.6,30.5 41.3,30.5 C44.8,30.6 48.3,30.6 51.8,30.7 C51.8,30.6 51.9,30.5 52.2,30.5 Z M67.1,12.9 C67.1,12.9 67,12.9 67,12.9 C67,12.7 67,12.6 66.9,12.4 C66.9,12 66.9,11.6 66.9,11.2 C66.9,10.8 66.8,10.7 66.4,10.7 C65.4,10.7 64.4,10.7 63.4,10.6 C63,10.6 62.9,10.8 62.9,11.2 C63,12 63,12.8 63,13.6 C63,14.8 63.2,15.9 63.7,17 C64.5,18.7 65.7,20.1 66.9,21.5 C68.4,23.3 70.1,25 72,26.4 C73.8,27.8 75.7,29.1 77.5,30.4 C77.8,30.6 78.3,30.9 78.7,30.9 C79.8,31 80.8,31 81.9,31 C82,31 82.2,31 82.4,30.9 C82.2,30.8 82.2,30.7 82.1,30.6 C80.8,29.7 79.6,28.8 78.3,27.9 C75.2,25.7 72.4,23.2 70.1,20.2 C69.3,19.2 68.6,18.2 68.1,16.9 C67.7,15.8 68,15.1 69,14.7 C69.6,14.4 70.4,14.4 71.1,14.4 C71.8,14.4 71.8,14.4 71.8,13.7 C71.8,13.1 71.8,12.4 71.8,11.8 C71.9,10.4 72,10.6 70.6,10.6 C69.3,10.6 68.2,11.2 67.5,12.2 C67.5,12.5 67.3,12.7 67.1,12.9 Z" id="Shape" fill="#FFFFFF"></path>
                    <path d="M39.6,13.8 C39.7,11.5 40.2,9.4 41.5,7.5 C43.1,5.3 45.3,3.9 48,3.5 C49.8,3.2 51.6,3.4 53.4,3.9 C55.3,4.5 56.8,5.7 57.8,7.4 C59,9.3 59.4,11.4 59.5,13.5 C59.5,15.7 60.3,17.6 61.4,19.4 C63,22.2 64.8,24.8 66.7,27.3 C67.3,28.1 67.7,29 68.1,29.9 C68.4,30.6 68.1,31.2 67.3,31.3 C66.4,31.4 65.5,31.5 64.6,31.4 C62.1,31.1 59.8,30.2 57.5,29.3 C54.2,27.9 51,26.3 48,24.2 C45.8,22.7 43.7,20.9 41.9,18.9 C40.9,17.8 40.1,16.6 39.7,15.1 C39.6,14.8 39.7,14.3 39.6,13.8 Z M44.3,13.8 C44.4,14.4 44.4,14.9 44.5,15.5 C45,17.4 46.2,18.8 47.5,20.1 C49.7,22.2 52.1,24 55.1,25.1 C56.1,25.5 57.1,25.8 58.2,25.6 C58.7,25.5 59,25.2 59,24.6 C59,24.2 58.9,23.8 58.7,23.4 C57.8,21.6 56.8,19.8 55.9,18 C55.4,16.9 55,15.8 54.9,14.5 C54.8,13.3 54.7,12.1 54.5,10.9 C54.2,9.5 53.7,8.2 52.5,7.4 C51.6,6.8 50.5,6.6 49.4,6.7 C47.6,6.8 46.2,7.6 45.3,9.2 C44.6,10.7 44.4,12.2 44.3,13.8 Z" id="Shape" fill="#000000"></path>
                    <path d="M24.6,30 C24,30 23.6,30 23.2,30 C22.4,30 21.5,30.1 20.7,29.9 C20.1,29.8 19.5,29.4 18.9,29 C17.6,28.1 16.3,27.1 15,26.1 C13.3,24.7 11.7,23.2 10.2,21.5 C9.1,20.2 8.1,18.9 7.3,17.4 C6.7,16.3 6.4,15.2 6.4,14 C6.5,10.9 6.7,7.9 6.9,4.8 C6.9,4.4 7,3.9 7,3.5 C7,3.1 7.2,3 7.5,3 C9.3,3 11.1,3.1 12.8,3.1 C13.4,3.1 14.1,3.1 14.7,3.2 C16.5,3.3 18.1,3.7 19.5,4.8 C20.6,5.7 21.2,6.9 21.3,8.3 C21.4,9.6 21.4,10.8 21,12.1 C20.6,13.3 19.9,14.2 18.9,15 C17.5,16.2 15.8,16.6 14,16.5 C13.2,16.4 12.4,16.5 11.6,16.5 C11.3,16.5 11.1,16.6 11.3,17 C11.9,18 12.5,19 13.1,19.9 C14.7,22.1 16.6,24.1 18.7,25.8 C20.4,27.2 22.3,28.5 24.1,29.8 C24.3,29.8 24.4,29.8 24.6,30 Z M10.9,10.4 C10.9,10.4 10.9,10.4 10.9,10.4 C10.9,11 10.9,11.6 10.9,12.2 C10.9,12.5 11,12.7 11.3,12.7 C12.3,12.7 13.2,12.8 14.2,12.7 C15.2,12.6 16.2,12.3 16.5,11.2 C16.7,10.6 16.7,9.9 16.7,9.3 C16.7,8 16.1,7.2 14.9,7 C13.8,6.8 12.6,6.9 11.4,6.8 C11.3,6.8 11.1,7 11.1,7.2 C11.1,8.2 11,9.3 10.9,10.4 Z" id="Shape" fill="#000000"></path>
                    <path d="M79.7,4.5 C79.6,7.6 79.5,10.7 79.3,13.8 C79.3,14.8 79.5,15.8 79.9,16.7 C79.9,16.8 80,16.8 80,16.9 C80,16.9 80.1,16.9 80.2,16.9 C80.3,16.6 80.3,16.3 80.5,16 C80.9,15.1 81.3,14.3 81.8,13.5 C82.3,12.7 82.9,11.9 83.5,11.1 C83.6,11 83.7,10.9 83.9,10.9 C85.3,10.9 86.8,10.9 88.2,10.9 C88.2,10.9 88.3,10.9 88.4,11 C88.1,11.4 87.8,11.8 87.4,12.2 C86.5,13.3 85.5,14.4 85,15.8 C84.8,16.4 84.8,17 84.7,17.6 C84.7,17.8 84.8,18 85,18.1 C85.7,18.8 86.4,19.4 87.2,20 C89.1,21.5 91,23 93,24.4 C95.1,25.9 97.4,27.2 99.6,28.5 C101.1,29.4 102.6,30.1 104.2,30.9 C104.3,30.9 104.3,31 104.5,31.1 C104.3,31.1 104.1,31.2 104,31.2 C102.7,31.2 101.4,31.2 100.1,31.1 C99.5,31.1 99,30.8 98.4,30.5 C96.8,29.6 95.2,28.7 93.6,27.8 C91.7,26.6 89.7,25.4 87.9,24.1 C85.7,22.5 83.7,20.7 81.6,19 C81.6,19 81.5,19 81.3,18.9 C81.5,19.2 81.6,19.4 81.7,19.6 C83.3,21.6 85,23.5 86.9,25.2 C88.1,26.2 89.4,27.2 90.6,28.1 C91.8,29 93.1,29.8 94.3,30.7 C94.4,30.8 94.5,30.9 94.7,31.1 C94.4,31.1 94.3,31.2 94.2,31.2 C93.3,31.2 92.4,31.2 91.4,31.2 C90.9,31.2 90.4,31.1 90,30.8 C87.8,29.3 85.6,27.8 83.5,26.2 C80.6,23.9 78.2,21.3 76.1,18.2 C75,16.5 74.7,14.6 74.8,12.6 C74.9,11.2 74.9,9.7 75,8.3 C75.1,7.2 75.2,6 75.3,4.9 C75.3,4.8 75.5,4.5 75.6,4.5 C76.8,4.5 78.1,4.5 79.3,4.6 C79.7,4.5 79.8,4.5 79.7,4.5 Z" id="Shape" fill="#000000"></path>
                    <path d="M52.2,30.5 C51.9,30.5 51.8,30.6 51.6,30.6 C48.1,30.5 44.6,30.5 41.1,30.4 C40.4,30.4 39.7,30.4 39,30.3 C38.6,30.3 38.3,30.1 38,29.9 C35.1,28 32.4,25.9 29.9,23.5 C28.1,21.7 26.4,19.7 25.1,17.4 C24.5,16.2 24.2,14.9 24.2,13.6 C24.2,11.7 24.3,9.8 24.4,8 C24.5,6.6 24.6,5.2 24.7,3.8 C24.7,3.5 24.9,3.3 25.2,3.3 C26.4,3.3 27.5,3.3 28.7,3.3 C29.2,3.3 29.3,3.5 29.2,3.9 C28.9,7 28.7,10.2 28.6,13.3 C28.6,15.4 29.2,17.1 30.3,18.8 C31.5,20.5 32.8,22 34.2,23.4 C34.4,23.6 34.8,23.8 35.2,23.8 C37.9,23.9 40.7,23.9 43.4,24 C43.8,24 44.2,24.2 44.5,24.5 C46.1,25.8 47.7,27.1 49.3,28.4 C50.1,29 50.9,29.5 51.7,30 C52,30.2 52.1,30.3 52.2,30.5 Z" id="Shape" fill="#000000"></path>
                    <path d="M67.1,12.9 C67.3,12.7 67.5,12.5 67.6,12.2 C68.4,11.1 69.4,10.6 70.7,10.6 C72,10.6 71.9,10.3 71.9,11.8 C71.9,12.4 71.9,13.1 71.9,13.7 C71.9,14.4 71.9,14.4 71.2,14.4 C70.5,14.4 69.8,14.5 69.1,14.7 C68.1,15.1 67.8,15.9 68.2,16.9 C68.6,18.1 69.4,19.2 70.2,20.2 C72.5,23.2 75.3,25.7 78.4,27.9 C79.7,28.8 80.9,29.7 82.2,30.6 C82.3,30.7 82.4,30.7 82.5,30.9 C82.3,30.9 82.1,31 82,31 C80.9,31 79.9,31 78.8,30.9 C78.4,30.9 78,30.6 77.6,30.4 C75.7,29.1 73.9,27.8 72.1,26.4 C70.2,25 68.5,23.3 67,21.5 C65.8,20.1 64.7,18.7 63.8,17 C63.3,15.9 63.1,14.8 63.1,13.6 C63.1,12.8 63,12 63,11.2 C63,10.8 63.1,10.6 63.5,10.6 C64.5,10.6 65.5,10.7 66.5,10.7 C66.8,10.7 67,10.8 67,11.2 C67,11.6 67,12 67,12.4 C67,12.6 67,12.7 67.1,12.9 C67,12.9 67.1,12.9 67.1,12.9 Z" id="Shape" fill="#000000"></path>
                    <path d="M44.3,13.8 C44.3,12.2 44.6,10.7 45.3,9.3 C46.2,7.7 47.6,6.9 49.4,6.8 C50.5,6.8 51.5,6.9 52.5,7.5 C53.7,8.3 54.2,9.6 54.5,11 C54.7,12.2 54.8,13.4 54.9,14.6 C55,15.8 55.4,17 55.9,18.1 C56.8,19.9 57.8,21.7 58.7,23.5 C58.9,23.9 59,24.3 59,24.7 C59,25.3 58.8,25.6 58.2,25.7 C57.1,25.9 56.1,25.6 55.1,25.2 C52.2,24.1 49.7,22.3 47.5,20.2 C46.2,18.9 44.9,17.5 44.5,15.6 C44.4,14.9 44.4,14.3 44.3,13.8 Z" id="Shape" fill="#FFFFFF"></path>
                    <path d="M10.9,10.4 C11,9.3 11.1,8.2 11.2,7.1 C11.2,7 11.4,6.7 11.5,6.7 C12.7,6.7 13.8,6.7 15,6.9 C16.3,7.1 16.8,7.9 16.8,9.2 C16.8,9.8 16.7,10.5 16.6,11.1 C16.3,12.2 15.3,12.6 14.3,12.6 C13.4,12.7 12.4,12.6 11.4,12.6 C11.1,12.6 11,12.4 11,12.1 C11,11.6 11,11 10.9,10.4 C10.9,10.4 10.9,10.4 10.9,10.4 Z" id="Shape" fill="#FFFFFF"></path>
                </g>
            </g>
        </g>
    </g>
</svg>