<?xml version="1.0" encoding="UTF-8"?>
<svg width="114px" height="41px" viewBox="0 0 114 41" version="1.1" xmlns="http://www.w3.org/2000/svg" xmlns:xlink="http://www.w3.org/1999/xlink">
    <!-- Generator: Sketch 49.3 (51167) - http://www.bohemiancoding.com/sketch -->
    <title>LFSMSV_1_</title>
    <desc>Created with Sketch.</desc>
    <defs></defs>
    <g id="Page-1" stroke="none" stroke-width="1" fill="none" fill-rule="evenodd">
        <g id="plork-logos" transform="translate(-255.000000, -295.000000)" fill-rule="nonzero">
            <g id="LFSMSV_1_" transform="translate(255.000000, 295.000000)">
                <g id="Group">
                    <path d="M0.2,41 C0.2,27.4 0.2,13.7 0.2,0.1 C37.9,0.1 75.5,0.1 113.2,0.1 C113.2,13.7 113.2,27.4 113.2,41 C75.5,41 37.9,41 0.2,41 Z M62.5,6.4 C60.7,6.3 58.8,6.6 57,7.4 C54.5,8.5 52.6,10.5 51.3,12.8 C49.5,15.8 47.9,18.9 46.2,22 C45.6,23.2 45.1,24.6 45.5,25.9 C46.3,28.6 47.9,30.7 50.5,31.9 C52.7,32.9 55.1,33.5 57.6,33.5 C59.7,33.5 61.8,33.3 63.6,31.9 C65.1,30.7 66.4,29.3 67.3,27.5 C67.9,26.4 68.3,25.1 68.9,24 C69.9,22 71,20.1 72,18.2 C73,16.2 73.3,14.1 72.6,11.9 C71.8,9.5 70,8.1 67.8,7.2 C66.1,6.5 64.4,6.3 62.5,6.4 Z M11.3,33.5 C11,32.8 10.6,32.2 10.6,31.6 C10.3,29.2 10.2,26.8 10.9,24.4 C11.1,23.8 11.4,23.6 11.9,23.6 C13,23.6 14.1,23.6 15.2,23.5 C16.6,23.3 18,23.2 19.2,22.7 C21.8,21.8 24.1,20.3 25.9,18.2 C27.3,16.6 28.3,14.8 28.5,12.7 C28.6,10.8 27.8,9.4 26.2,8.5 C24.5,7.6 22.7,7.2 20.8,7.2 C18,7.1 15.2,7.2 12.5,7.2 C11.7,7.2 11.7,7.2 11.7,8.1 C11.6,10.5 11.3,12.9 10.4,15.1 C9.6,17.3 8.5,19.3 7.3,21.3 C6.2,23.1 5.2,25 5.3,27.2 C5.3,28.2 5.4,29.1 5.3,30.1 C5.3,31.1 5.5,32 5.9,32.8 C6.1,33.3 6.4,33.6 7.1,33.6 C8.2,33.5 9.4,33.6 10.5,33.6 C10.7,33.5 10.9,33.5 11.3,33.5 Z M93,6.7 C93,7.2 93,7.6 92.9,8.1 C92.8,9.6 92.7,11 92.5,12.5 C92,15.6 90.5,18.4 89.1,21.1 C88.3,22.6 87.5,24.1 87.4,25.8 C87.3,27.7 87.2,29.5 87.6,31.4 C87.8,32.4 88.1,32.7 89.2,32.7 C90.3,32.7 91.5,32.7 92.6,32.7 C93,32.7 93.3,32.6 93,32.1 C92.9,31.9 92.8,31.6 92.8,31.4 C92.7,29.3 92.6,27.3 92.6,25.2 C92.6,24.7 92.9,24.2 93,23.7 C93.1,23.7 93.1,23.7 93.2,23.8 C93.4,24.4 93.6,25.1 93.9,25.6 C94.3,26.5 94.8,27.4 95.3,28.2 C96,29.4 96.7,30.5 97.5,31.6 C97.8,32.1 98.2,32.7 99,32.6 C100.6,32.5 102.2,32.6 103.8,32.5 C103.9,32.5 104.1,32.5 104.3,32.4 C104.2,32.2 104.2,32.1 104.1,32 C103.8,31.7 103.3,31.4 103.1,31 C101.9,29.4 100.8,27.7 99.7,26.1 C99.1,25.2 98.6,24.1 98.6,23 C98.6,22.7 98.7,22.4 98.9,22.3 C99.7,21.6 100.6,20.9 101.4,20.2 C103.3,18.6 105.1,16.9 107,15.3 C107.4,15 107.7,14.6 108.1,14.2 C107.9,14.1 107.8,14.1 107.8,14.1 C106.2,14.1 104.5,14.1 102.9,14.1 C102.7,14.1 102.5,14.2 102.3,14.4 C101.3,15.4 100.3,16.4 99.2,17.4 C97.9,18.6 96.7,19.7 95.4,20.9 C95,21.3 94.6,21.6 94.1,21.9 C94,21.9 94,21.8 93.9,21.8 C95,19.4 96.4,17.2 97.1,14.6 C97.8,12 98.1,9.4 98,6.7 C96.3,6.7 94.7,6.7 93,6.7 Z M35.2,33.3 C35.2,33.2 35.2,33.2 35.2,33.3 C37.2,33.2 39.2,33.2 41.1,33.2 C41.7,33.2 42.3,33.2 42.9,33.2 C43.2,33.2 43.4,33.1 43.2,32.7 C43.1,32.6 43.1,32.5 43,32.3 C42.6,31.4 42.5,30.5 42.5,29.6 C42.5,29.2 42.4,29 42,29.1 C41.8,29.1 41.6,29.1 41.4,29.1 C38.3,29.1 35.2,29.1 32.1,29.2 C31.8,29.2 31.6,29.1 31.5,28.7 C31.3,25.9 32.1,23.4 33.5,21.1 C34.2,19.9 35,18.6 35.6,17.3 C37,14.3 37.7,11.1 37.7,7.7 C37.7,7.2 37.6,7 37.1,7.1 C35.8,7.1 34.5,7.2 33.2,7.1 C32.6,7.1 32.4,7.3 32.4,7.9 C32.3,10.8 31.9,13.6 30.7,16.2 C30,17.8 29.2,19.3 28.4,20.8 C27.6,22.3 26.6,23.8 26.4,25.5 C26.2,27 26.2,28.6 26.2,30.1 C26.2,31.1 26.4,32.1 27,32.9 C27.1,33.1 27.5,33.3 27.7,33.3 C30.2,33.3 32.7,33.3 35.2,33.3 Z M81.4,17.3 C81.3,17.3 81.3,17.3 81.2,17.2 C81.2,17 81.3,16.9 81.3,16.7 C81.5,16.2 81.7,15.6 81.9,15.1 C82.1,14.6 82,14.4 81.4,14.4 C80.4,14.4 79.3,14.4 78.3,14.4 C77.5,14.4 77.4,14.5 77.2,15.3 C77,15.9 76.9,16.6 76.6,17.2 C75.9,18.7 75.1,20.3 74.3,21.8 C73.5,23.2 73,24.7 72.9,26.3 C72.9,27.4 72.9,28.6 72.9,29.7 C72.9,30.2 73,30.8 73.1,31.3 C73.4,32.6 73.6,32.8 74.9,32.8 C76,32.8 77.2,32.8 78.3,32.8 C78.7,32.8 78.7,32.7 78.6,32.3 C78.4,31.5 78.1,30.7 78.1,29.9 C78,28.6 78.1,27.3 78.1,25.9 C78.1,23.3 80.1,20.5 82.5,19.6 C83.5,19.2 84.6,19.2 85.7,19.2 C85.9,19.2 86.2,19 86.3,18.8 C86.9,17.4 87.5,16 88.2,14.6 C88.4,14.2 88.2,14.1 87.8,14.1 C86,14.1 84.4,14.6 83.1,15.8 C82.5,16.3 82,16.8 81.4,17.3 Z" id="Shape" fill="#FFFFFF"></path>
                    <path d="M62.5,6.4 C64.4,6.4 66.1,6.5 67.7,7.2 C69.9,8.2 71.7,9.6 72.5,11.9 C73.2,14.1 72.9,16.2 71.9,18.2 C70.9,20.2 69.8,22.1 68.8,24 C68.2,25.1 67.8,26.4 67.2,27.5 C66.3,29.3 65,30.7 63.5,31.9 C61.7,33.3 59.6,33.5 57.5,33.5 C55,33.5 52.6,33 50.4,31.9 C47.8,30.7 46.2,28.6 45.4,25.9 C45,24.5 45.5,23.2 46.1,22 C47.8,18.9 49.4,15.8 51.2,12.8 C52.6,10.4 54.4,8.5 56.9,7.4 C58.8,6.6 60.7,6.2 62.5,6.4 Z M67.2,14.5 C67.2,14.2 67.2,14 67.2,13.7 C67.1,12.5 66.6,11.4 65.5,10.8 C62.6,9.2 58.7,10.2 56.9,13 C56,14.5 55.1,15.9 54.2,17.4 C53.2,19.2 52.3,21 51.4,22.9 C50.9,24.1 50.8,25.3 51.4,26.5 C52.4,28.5 53.9,29.5 56.2,29.6 C59,29.7 60.9,28.7 62.1,26.3 C63.4,23.7 64.8,21 66.2,18.4 C66.8,17.2 67.2,15.9 67.2,14.5 Z" id="Shape" fill="#000000"></path>
                    <path d="M11.3,33.5 C11,33.5 10.7,33.5 10.5,33.5 C9.4,33.5 8.2,33.5 7.1,33.5 C6.5,33.5 6.2,33.2 5.9,32.7 C5.5,31.8 5.2,30.9 5.3,30 C5.3,29 5.3,28.1 5.3,27.1 C5.3,24.9 6.3,23 7.3,21.2 C8.5,19.2 9.6,17.2 10.4,15 C11.2,12.7 11.6,10.4 11.7,8 C11.7,7.2 11.7,7.1 12.5,7.1 C15.3,7.1 18.1,7 20.8,7.1 C22.7,7.1 24.5,7.5 26.2,8.4 C27.8,9.3 28.7,10.7 28.5,12.6 C28.3,14.8 27.4,16.5 25.9,18.1 C24,20.2 21.8,21.7 19.2,22.6 C17.9,23 16.5,23.2 15.2,23.4 C14.1,23.5 13,23.5 11.9,23.5 C11.3,23.5 11,23.7 10.9,24.3 C10.2,26.7 10.3,29.1 10.6,31.5 C10.6,32.2 11,32.7 11.3,33.5 Z M13.9,18.6 C15.2,18.6 16.3,18.7 17.4,18.6 C20.2,18.4 22,16.5 22.5,13.9 C22.7,13 22.6,12.1 21.6,11.6 C21.2,11.4 20.8,11.3 20.4,11.2 C19.2,11.1 18,11.2 16.8,11.1 C16.5,11.1 16.3,11.2 16.2,11.6 C15.9,12.9 15.5,14.1 15.1,15.3 C14.9,16.5 14.4,17.5 13.9,18.6 Z" id="Shape" fill="#000000"></path>
                    <path d="M93,6.7 C94.7,6.7 96.4,6.7 98.1,6.7 C98.1,9.4 97.9,12 97.2,14.6 C96.5,17.2 95,19.4 94,21.8 C94.1,21.8 94.1,21.9 94.2,21.9 C94.6,21.6 95.1,21.2 95.5,20.9 C96.8,19.7 98.1,18.6 99.3,17.4 C100.3,16.4 101.3,15.4 102.4,14.4 C102.6,14.3 102.8,14.1 103,14.1 C104.6,14.1 106.3,14.1 107.9,14.1 C108,14.1 108,14.1 108.2,14.2 C107.8,14.6 107.5,15 107.1,15.3 C105.2,16.9 103.4,18.6 101.5,20.2 C100.7,20.9 99.8,21.6 99,22.3 C98.8,22.5 98.7,22.8 98.7,23 C98.7,24.2 99.2,25.2 99.8,26.1 C100.9,27.8 102,29.4 103.2,31 C103.5,31.4 103.9,31.7 104.2,32 C104.3,32.1 104.3,32.2 104.4,32.4 C104.2,32.4 104.1,32.5 103.9,32.5 C102.3,32.5 100.7,32.5 99.1,32.6 C98.3,32.6 97.9,32 97.6,31.6 C96.8,30.5 96.1,29.3 95.4,28.2 C94.9,27.4 94.4,26.5 94,25.6 C93.7,25 93.5,24.4 93.3,23.8 C93.2,23.8 93.2,23.8 93.1,23.7 C92.9,24.2 92.7,24.7 92.7,25.2 C92.7,27.3 92.8,29.3 92.9,31.4 C92.9,31.6 93,31.9 93.1,32.1 C93.4,32.6 93.1,32.7 92.7,32.7 C91.6,32.7 90.4,32.7 89.3,32.7 C88.3,32.7 87.9,32.4 87.7,31.4 C87.3,29.6 87.4,27.7 87.5,25.8 C87.6,24.1 88.4,22.6 89.2,21.1 C90.7,18.4 92.1,15.6 92.6,12.5 C92.8,11 92.9,9.6 93,8.1 C92.9,7.6 92.9,7.2 93,6.7 Z" id="Shape" fill="#000000"></path>
                    <path d="M35.2,33.3 C32.7,33.3 30.3,33.3 27.8,33.3 C27.6,33.3 27.2,33.1 27.1,32.9 C26.5,32.1 26.3,31.1 26.3,30.1 C26.3,28.6 26.3,27 26.5,25.5 C26.7,23.8 27.7,22.3 28.5,20.8 C29.3,19.3 30.1,17.8 30.8,16.2 C32,13.6 32.4,10.7 32.5,7.9 C32.5,7.3 32.7,7.1 33.3,7.1 C34.6,7.1 35.9,7.1 37.2,7.1 C37.7,7.1 37.8,7.3 37.8,7.7 C37.8,11.1 37.1,14.3 35.7,17.3 C35.1,18.6 34.4,19.9 33.6,21.1 C32.2,23.5 31.4,26 31.6,28.7 C31.6,29.1 31.8,29.2 32.2,29.2 C35.3,29.2 38.4,29.2 41.5,29.1 C41.7,29.1 41.9,29.1 42.1,29.1 C42.5,29.1 42.6,29.2 42.6,29.6 C42.6,30.5 42.6,31.5 43.1,32.3 C43.2,32.4 43.2,32.5 43.3,32.7 C43.5,33 43.4,33.2 43,33.2 C42.4,33.2 41.8,33.2 41.2,33.2 C39.1,33.2 37.2,33.2 35.2,33.3 C35.2,33.2 35.2,33.2 35.2,33.3 Z" id="Shape" fill="#000000"></path>
                    <path d="M81.4,17.3 C81.9,16.8 82.5,16.3 83,15.8 C84.4,14.7 86,14.2 87.7,14.1 C88,14.1 88.2,14.2 88.1,14.6 C87.5,16 86.9,17.4 86.2,18.8 C86.1,19 85.8,19.2 85.6,19.2 C84.5,19.3 83.4,19.2 82.4,19.6 C80,20.6 78,23.3 78,25.9 C78,27.2 77.9,28.5 78,29.9 C78.1,30.7 78.3,31.5 78.5,32.3 C78.6,32.6 78.6,32.8 78.2,32.8 C77.1,32.8 75.9,32.8 74.8,32.8 C73.5,32.8 73.2,32.6 73,31.3 C72.9,30.8 72.8,30.2 72.8,29.7 C72.8,28.6 72.8,27.4 72.8,26.3 C72.8,24.7 73.4,23.2 74.2,21.8 C75,20.3 75.8,18.8 76.5,17.2 C76.8,16.6 76.9,16 77.1,15.3 C77.3,14.5 77.4,14.4 78.2,14.4 C79.2,14.4 80.3,14.4 81.3,14.4 C81.9,14.4 82,14.5 81.8,15.1 C81.6,15.6 81.4,16.2 81.2,16.7 C81.1,16.9 81.1,17 81.1,17.2 C81.3,17.2 81.4,17.3 81.4,17.3 Z" id="Shape" fill="#000000"></path>
                    <path d="M67.2,14.5 C67.3,15.9 66.9,17.2 66.2,18.4 C64.8,21 63.5,23.7 62.1,26.3 C60.8,28.8 59,29.8 56.2,29.6 C54,29.5 52.4,28.5 51.4,26.5 C50.8,25.3 50.9,24.1 51.4,22.9 C52.3,21 53.2,19.2 54.2,17.4 C55,15.9 56,14.4 56.9,13 C58.6,10.2 62.6,9.2 65.5,10.8 C66.6,11.4 67.1,12.5 67.2,13.7 C67.2,14 67.2,14.3 67.2,14.5 Z" id="Shape" fill="#FFFFFF"></path>
                    <path d="M13.9,18.6 C14.4,17.5 14.8,16.4 15.2,15.4 C15.6,14.2 16,12.9 16.3,11.7 C16.4,11.3 16.5,11.2 16.9,11.2 C18.1,11.2 19.3,11.2 20.5,11.3 C20.9,11.3 21.3,11.5 21.7,11.7 C22.6,12.2 22.8,13.1 22.6,14 C22.1,16.6 20.3,18.5 17.5,18.7 C16.3,18.7 15.2,18.6 13.9,18.6 Z" id="Shape" fill="#FFFFFF"></path>
                </g>
            </g>
        </g>
    </g>
</svg>