<?xml version="1.0" encoding="UTF-8"?>
<svg width="140px" height="40px" viewBox="0 0 140 40" version="1.1" xmlns="http://www.w3.org/2000/svg" xmlns:xlink="http://www.w3.org/1999/xlink">
    <!-- Generator: Sketch 49.3 (51167) - http://www.bohemiancoding.com/sketch -->
    <title>OQDhOR_1_</title>
    <desc>Created with Sketch.</desc>
    <defs></defs>
    <g id="Page-1" stroke="none" stroke-width="1" fill="none" fill-rule="evenodd">
        <g id="plork-logos" transform="translate(-544.000000, -87.000000)" fill-rule="nonzero">
            <g id="OQDhOR_1_" transform="translate(544.000000, 87.000000)">
                <g id="Group">
                    <path d="M0.1,39.8 C0.1,26.6 0.1,13.3 0.1,0.1 C46.4,0.1 92.8,0.1 139.1,0.1 C139.1,13.3 139.1,26.6 139.1,39.8 C92.8,39.8 46.5,39.8 0.1,39.8 Z M81.2,3.5 C76.1,3.4 71.5,5.1 67.4,8.2 C64.1,10.7 61.3,13.7 59,17.2 C58.1,18.6 57.1,19.9 56.2,21.2 C55.2,22.8 54.3,24.4 54.6,26.3 C55,29.4 56.8,31.7 59.5,33.1 C63.6,35.3 68,35.2 72.3,34.3 C75.7,33.5 78.4,31.4 80.5,28.6 C81.9,26.8 83.3,24.9 84.7,23.2 C86.5,20.9 88.4,18.6 89.4,15.8 C90.1,13.8 90.8,11.7 90.5,9.5 C90.2,7.3 89.1,5.8 87.2,4.8 C85.4,3.7 83.3,3.5 81.2,3.5 Z M22.6,5.5 C22.6,5.5 22.6,5.5 22.6,5.5 C20.3,5.5 18,5.7 15.7,5.8 C15.2,5.8 15,6 14.7,6.4 C13.8,8.1 12.9,9.8 11.9,11.5 C11.1,12.9 10.3,14.4 9.5,15.8 C8.4,17.6 7.4,19.3 6.2,21 C4.4,23.4 3.2,26 2.7,28.9 C2.4,30.8 2.4,32.7 2.3,34.6 C2.3,35.1 2.6,35.1 3,35.1 C4.8,35.1 6.5,35.1 8.3,35.1 C8.8,35.1 9,34.9 9,34.4 C9,33.2 9.1,32.1 9.1,30.9 C9.2,28.6 9.8,26.5 10.8,24.4 C10.9,24.1 11.3,23.9 11.6,23.9 C12.8,23.8 14,23.8 15.2,23.8 C18.5,23.8 21.6,23.1 24.7,21.9 C29.4,20 32.3,16.5 33.9,11.9 C34.5,10.1 34.2,7.8 31.8,6.7 C30.4,6.1 29,5.7 27.5,5.7 C26,5.5 24.3,5.5 22.6,5.5 Z M116.8,21 C116.7,20.9 116.7,20.9 116.6,20.8 C116.7,20.7 116.7,20.5 116.8,20.4 C118.4,17.6 120.2,14.8 121.7,11.9 C123.1,9.3 124.3,6.5 125.6,3.8 C125.9,3.3 125.7,3.1 125.1,3.1 C123.5,3.2 121.9,3.2 120.3,3.2 C119.7,3.2 119.3,3.4 119.1,4 C117.5,7.3 115.9,10.6 114.2,13.8 C113.1,16 111.8,18.1 110.5,20.2 C109.7,21.5 108.7,22.7 108,24.1 C106.6,26.8 106.2,29.8 106.1,32.8 C106.1,33.6 106.2,33.8 107,33.7 C108.6,33.7 110.3,33.6 111.9,33.6 C112.4,33.6 112.6,33.4 112.6,32.9 C112.6,30.4 112.9,27.9 113.8,25.5 C114.2,24.6 114.6,23.7 115.1,22.8 C115.2,22.8 115.3,22.8 115.4,22.9 C115.5,23.4 115.5,23.9 115.6,24.4 C116.2,27.5 117.5,30.3 118.9,33.1 C119,33.3 119.4,33.6 119.7,33.6 C121.8,33.6 123.9,33.6 126,33.6 C126.6,33.6 126.6,33.4 126.4,32.9 C125.5,31.4 124.6,29.9 123.9,28.3 C123,26.5 122.3,24.5 122.1,22.4 C122.1,21.9 122.2,21.6 122.7,21.3 C123.2,21 123.8,20.7 124.3,20.3 C127,18.3 129.7,16.4 132.4,14.4 C133.3,13.7 134.2,13.1 135.2,12.3 C134.9,12.2 134.7,12.2 134.6,12.2 C132.6,12.2 130.5,12.2 128.5,12.3 C128.3,12.3 128,12.4 127.8,12.6 C125,14.8 122.2,17.1 119.5,19.3 C118.5,19.9 117.6,20.4 116.8,21 Z M48.6,5.1 C48.2,5.1 48,5 47.7,5 C46,5 44.4,5 42.7,5 C42.1,5 41.8,5.3 41.5,5.8 C39.8,9.1 38.3,12.4 36.5,15.6 C35.3,17.8 33.8,19.8 32.5,22 C31.8,23.2 31,24.5 30.5,25.8 C29.5,28.4 29.2,31.1 29.3,33.9 C29.3,34.6 29.5,34.8 30.2,34.8 C33.2,34.7 36.2,34.7 39.2,34.7 C42.4,34.7 45.7,34.6 48.9,34.5 C49.6,34.5 49.9,34.3 49.8,33.6 C49.8,32.5 49.8,31.4 49.9,30.4 C50,29.6 50,29.5 49.2,29.5 C45.2,29.6 41.1,29.6 37.1,29.7 C36.6,29.7 36.4,29.6 36.5,29 C36.8,26.5 37.7,24.3 39.2,22.2 C40.8,19.9 42.4,17.5 43.7,15 C44.9,12.7 46.1,10.5 47.3,8.2 C47.6,7.2 48,6.2 48.6,5.1 Z M100.5,16.4 C100.5,16.4 100.4,16.3 100.4,16.3 C100.8,15.6 101.2,14.8 101.6,14.1 C101.7,13.9 101.8,13.6 101.7,13.5 C101.6,13.4 101.3,13.3 101,13.3 C100,13.3 99,13.4 98.1,13.4 C95.9,13.5 96,13.5 95,15.4 C94.1,17.2 93.1,19.1 91.9,20.8 C89.1,24.5 87.9,28.7 87.9,33.3 C87.9,33.9 88.1,34.1 88.7,34.1 C90.3,34.1 91.9,34.1 93.5,34.1 C94.1,34.1 94.3,33.9 94.3,33.3 C94.3,30.7 94.6,28.2 95.5,25.8 C96.5,22.9 98.4,20.8 101.3,19.5 C102.8,18.9 104.4,18.7 106,18.7 C106.5,18.7 106.8,18.6 107,18.1 C107.5,17.1 108.1,16.2 108.6,15.2 C109,14.5 109.4,13.7 109.9,12.8 C108,12.8 106.3,13 104.8,13.8 C103.3,14.6 101.9,15.5 100.5,16.4 Z" id="Shape" fill="#FFFFFF"></path>
                    <path d="M81.2,3.5 C83.4,3.5 85.4,3.7 87.3,4.7 C89.2,5.7 90.3,7.3 90.6,9.4 C90.9,11.6 90.2,13.6 89.5,15.7 C88.5,18.6 86.6,20.8 84.8,23.1 C83.4,24.9 82,26.7 80.6,28.5 C78.5,31.3 75.8,33.4 72.4,34.2 C68,35.2 63.7,35.2 59.6,33 C56.9,31.6 55.1,29.3 54.7,26.2 C54.4,24.3 55.3,22.6 56.3,21.1 C57.2,19.7 58.2,18.4 59.1,17.1 C61.4,13.6 64.2,10.6 67.5,8.1 C71.5,5.2 76.1,3.5 81.2,3.5 Z M83.1,12.3 C83.1,10 82.5,9.1 80.7,8.6 C78.5,8 76.3,8.3 74.3,9.2 C71.5,10.5 69.3,12.7 67.4,15.2 C66,17.1 64.6,19 63.4,21 C62.8,22 62.3,23.1 62,24.2 C61.6,25.9 61.9,27.4 63.3,28.7 C66,31 71.4,30.2 73.6,27.9 C75.2,26.2 76.7,24.4 78.1,22.5 C79.2,21.1 80.3,19.7 81.2,18.2 C82.3,16.3 83,14.2 83.1,12.3 Z" id="Shape" fill="#000000"></path>
                    <path d="M22.6,5.5 C24.3,5.5 26,5.5 27.7,5.5 C29.2,5.5 30.6,5.9 32,6.5 C34.4,7.5 34.7,9.9 34.1,11.7 C32.5,16.3 29.6,19.8 24.9,21.7 C21.8,22.9 18.7,23.6 15.4,23.6 C14.2,23.6 13,23.6 11.8,23.7 C11.5,23.7 11.1,24 11,24.2 C10,26.2 9.4,28.4 9.3,30.7 C9.3,31.9 9.2,33 9.2,34.2 C9.2,34.7 9,34.9 8.5,34.9 C6.7,34.9 5,34.9 3.2,34.9 C2.8,34.9 2.5,34.9 2.5,34.4 C2.6,32.5 2.5,30.6 2.9,28.7 C3.4,25.8 4.7,23.2 6.4,20.8 C7.6,19.2 8.6,17.4 9.7,15.6 C10.5,14.2 11.3,12.7 12.1,11.3 C13,9.6 14,7.9 14.9,6.2 C15.1,5.8 15.4,5.6 15.9,5.6 C18,5.7 20.3,5.5 22.6,5.5 C22.6,5.5 22.6,5.5 22.6,5.5 Z M14.3,19.2 C14.5,19.3 14.6,19.3 14.7,19.4 C16.8,19.4 19,19.6 21,18.9 C23.9,17.9 25.5,15.7 26.2,12.8 C26.4,11.9 26.1,11.4 25.2,11.1 C24.9,11 24.6,10.9 24.4,10.9 C22.7,10.9 20.9,10.9 19.2,11 C19,11 18.9,11.2 18.8,11.4 C18.2,12.5 17.5,13.6 16.9,14.7 C16.1,16.1 15.2,17.6 14.3,19.2 Z" id="Shape" fill="#000000"></path>
                    <path d="M116.8,21 C117.7,20.4 118.5,19.9 119.4,19.2 C122.2,17 125,14.7 127.7,12.5 C127.9,12.3 128.2,12.2 128.4,12.2 C130.4,12.2 132.5,12.1 134.5,12.1 C134.7,12.1 134.8,12.2 135.1,12.2 C134.1,12.9 133.2,13.6 132.3,14.3 C129.6,16.3 126.9,18.3 124.2,20.2 C123.7,20.6 123.2,20.9 122.6,21.2 C122.1,21.4 122,21.8 122,22.3 C122.2,24.4 122.8,26.3 123.8,28.2 C124.6,29.8 125.5,31.3 126.3,32.8 C126.5,33.2 126.5,33.5 125.9,33.5 C123.8,33.5 121.7,33.6 119.6,33.5 C119.3,33.5 118.9,33.3 118.8,33 C117.3,30.2 116,27.4 115.5,24.3 C115.4,23.8 115.4,23.3 115.3,22.8 C115.2,22.8 115.1,22.8 115,22.7 C114.6,23.6 114.1,24.5 113.7,25.4 C112.7,27.8 112.5,30.3 112.5,32.8 C112.5,33.3 112.3,33.5 111.8,33.5 C110.2,33.5 108.5,33.6 106.9,33.6 C106.1,33.6 106,33.5 106,32.7 C106,29.7 106.5,26.7 107.9,24 C108.6,22.6 109.6,21.4 110.4,20.1 C111.7,18 113,15.9 114.1,13.7 C115.8,10.5 117.4,7.2 119,3.9 C119.3,3.3 119.6,3.1 120.2,3.1 C121.8,3.1 123.4,3 125,3 C125.6,3 125.7,3.2 125.5,3.7 C124.2,6.4 123,9.2 121.6,11.8 C120.1,14.7 118.3,17.5 116.7,20.3 C116.6,20.4 116.6,20.6 116.5,20.7 C116.7,20.9 116.7,20.9 116.8,21 Z" id="Shape" fill="#000000"></path>
                    <path d="M48.6,5.1 C48.1,6.2 47.7,7.3 47.2,8.2 C46,10.5 44.8,12.7 43.6,15 C42.3,17.5 40.7,19.9 39.1,22.2 C37.7,24.2 36.8,26.5 36.4,29 C36.3,29.6 36.6,29.7 37,29.7 C41,29.6 45.1,29.6 49.1,29.5 C49.9,29.5 49.9,29.6 49.8,30.4 C49.7,31.5 49.7,32.6 49.7,33.6 C49.7,34.3 49.4,34.5 48.8,34.5 C45.6,34.5 42.3,34.6 39.1,34.7 C36.1,34.7 33.1,34.7 30.1,34.8 C29.4,34.8 29.2,34.6 29.2,33.9 C29.1,31.1 29.4,28.4 30.4,25.8 C30.9,24.5 31.6,23.2 32.4,22 C33.7,19.9 35.2,17.8 36.4,15.6 C38.2,12.4 39.8,9.1 41.4,5.8 C41.7,5.3 42,5 42.6,5 C44.3,5 45.9,5 47.6,5 C47.9,5 48.2,5 48.6,5.1 Z" id="Shape" fill="#000000"></path>
                    <path d="M100.5,16.4 C101.9,15.5 103.3,14.6 104.8,13.8 C106.3,13 108,12.8 109.9,12.8 C109.4,13.7 109,14.4 108.6,15.2 C108.1,16.2 107.5,17.1 107,18.1 C106.8,18.5 106.5,18.7 106,18.7 C104.4,18.6 102.8,18.8 101.3,19.5 C98.4,20.7 96.6,22.8 95.5,25.8 C94.6,28.2 94.3,30.7 94.3,33.3 C94.3,33.9 94.1,34.1 93.5,34.1 C91.9,34.1 90.3,34.1 88.7,34.1 C88.1,34.1 87.9,33.9 87.9,33.3 C87.8,28.7 89,24.6 91.9,20.8 C93.1,19.2 94.1,17.3 95,15.4 C96,13.5 95.9,13.4 98.1,13.4 C99.1,13.4 100.1,13.3 101,13.3 C101.2,13.3 101.5,13.3 101.7,13.5 C101.8,13.6 101.7,13.9 101.6,14.1 C101.2,14.9 100.8,15.6 100.4,16.3 C100.4,16.3 100.5,16.3 100.5,16.4 Z" id="Shape" fill="#000000"></path>
                    <path d="M83.1,12.3 C82.9,14.1 82.3,16.3 81.1,18.2 C80.2,19.7 79.1,21.1 78,22.5 C76.5,24.3 75.1,26.2 73.5,27.9 C71.3,30.2 66,31.1 63.2,28.7 C61.8,27.5 61.5,25.9 61.9,24.2 C62.2,23.1 62.7,22 63.3,21 C64.6,19 65.9,17.1 67.3,15.2 C69.2,12.7 71.3,10.5 74.2,9.2 C76.2,8.3 78.4,8 80.6,8.6 C82.6,9.2 83.1,10 83.1,12.3 Z" id="Shape" fill="#FFFFFF"></path>
                    <path d="M14.3,19.2 C15.2,17.6 16.1,16 16.9,14.5 C17.5,13.4 18.1,12.3 18.8,11.2 C18.9,11 19.1,10.8 19.2,10.8 C20.9,10.8 22.7,10.7 24.4,10.7 C24.7,10.7 25,10.8 25.2,10.9 C26,11.2 26.4,11.7 26.2,12.6 C25.5,15.5 23.9,17.7 21,18.7 C19,19.4 16.8,19.3 14.7,19.2 C14.6,19.4 14.5,19.3 14.3,19.2 Z" id="Shape" fill="#FFFFFF"></path>
                </g>
            </g>
        </g>
    </g>
</svg>