<?xml version="1.0" encoding="UTF-8"?>
<svg width="112px" height="41px" viewBox="0 0 112 41" version="1.1" xmlns="http://www.w3.org/2000/svg" xmlns:xlink="http://www.w3.org/1999/xlink">
    <!-- Generator: Sketch 49.3 (51167) - http://www.bohemiancoding.com/sketch -->
    <title>k4wlgM_1_</title>
    <desc>Created with Sketch.</desc>
    <defs></defs>
    <g id="Page-1" stroke="none" stroke-width="1" fill="none" fill-rule="evenodd">
        <g id="plork-logos" transform="translate(-523.000000, -4.000000)" fill-rule="nonzero">
            <g id="k4wlgM_1_" transform="translate(523.000000, 4.000000)">
                <g id="Group">
                    <path d="M0.7,40.3 C0.7,27.2 0.7,14.1 0.7,0.9 C37.5,0.9 74.4,0.9 111.2,0.9 C111.2,14 111.2,27.1 111.2,40.3 C74.4,40.3 37.6,40.3 0.7,40.3 Z M47.4,36.6 C48.9,36.7 50.6,36.2 52.2,35.5 C54.1,34.6 55.8,33.6 57.7,32.6 C59.1,31.9 60.5,31.1 61.9,30.4 C63.3,29.7 64.8,29 66.3,28.4 C68.1,27.6 70,26.7 71.8,25.8 C73.9,24.8 76.1,23.7 78.2,22.6 C79.2,22.1 80.2,21.4 80.9,20.4 C81.2,20 81.4,19.6 81.5,19.1 C81.6,18.7 81.5,18.3 81.5,17.9 C81.5,16.9 81,16.1 80.2,15.5 C79.2,14.8 78.1,14.1 76.9,13.6 C74.3,12.5 71.6,11.6 68.9,10.7 C66.3,9.8 63.6,9.1 60.9,8.3 C57.8,7.4 54.6,6.5 51.5,5.5 C49.3,4.8 47,4.2 44.7,4 C43.6,3.9 42.6,3.9 41.6,4.3 C40.9,4.6 40.8,5 41.4,5.5 C42.1,6 42.8,6.6 43.5,7 C44.9,7.7 46.3,8.2 47.7,8.7 C48.9,9.2 50.2,9.6 51.4,10 C53.1,10.7 54.9,11.3 56.6,12 C58.2,12.7 59.8,13.4 61.3,14.4 C62.6,15.3 63.3,16.3 62.9,17.9 C62.9,18 62.9,18.1 62.9,18.2 C62.8,19.4 62.3,20.4 61.5,21.2 C60.4,22.3 59.1,23.1 57.8,23.9 C55.7,25.1 53.7,26.3 51.6,27.6 C49.8,28.7 48,29.9 46.2,31.1 C45.3,31.7 44.5,32.5 43.9,33.4 C43.1,34.6 43.6,35.7 44.8,36.2 C45.4,36.6 46.2,36.6 47.4,36.6 Z M9.6,7.1 C9.8,7.3 9.8,7.3 9.9,7.4 C10.6,7.7 11.2,7.9 11.9,8.2 C13.5,8.7 15.1,9.2 16.7,9.8 C18.6,10.4 20.5,11.1 22.4,11.8 C24.9,12.7 27.3,13.7 29.6,15.2 C31,16.2 31.7,18 31.1,19.7 C30.6,21 29.7,21.9 28.6,22.5 C26.4,23.8 24.1,25.1 21.9,26.3 C20,27.3 18,28.3 16,29.3 C14.6,30 13.3,30.8 12,31.6 C10.1,32.7 8.4,34 7,35.8 C6.8,36.1 6.6,36.4 6.4,36.7 C7.8,36.7 9.1,36.7 10.4,36.7 C10.5,36.7 10.7,36.5 10.8,36.4 C11.2,35.9 11.6,35.4 12,34.9 C13.5,33.3 15.3,32.2 17.1,31.1 C18.9,30.1 20.7,29.1 22.6,28.1 C24.7,27 26.8,26 28.9,24.8 C29.9,24.3 30.8,24 31.9,24 C32.9,24 34,23.9 35,23.8 C37.5,23.6 39.8,22.9 42,21.9 C43.1,21.4 44.2,20.8 44.9,19.8 C45.6,18.9 45.6,17.2 44.8,16.4 C44.4,15.9 43.8,15.5 43.3,15.2 C42,14.5 40.7,13.9 39.3,13.4 C37.2,12.6 35,11.9 32.9,11.2 C31.5,10.8 30.1,10.4 28.6,10 C26.9,9.5 25.2,9 23.4,8.5 C21.8,8.1 20.2,7.7 18.5,7.3 C17.4,7.1 16.3,6.8 15.2,6.7 C13.8,6.5 12.5,6.8 11.1,7 C10.7,6.8 10.2,7 9.6,7.1 Z M67.7,3.8 C67.7,3.9 67.7,3.9 67.7,4 C68.7,4.5 69.8,5.1 70.8,5.6 C73.2,6.8 75.7,7.6 78.2,8.4 C80,9 81.8,9.5 83.6,10.1 C85.8,10.9 87.9,11.6 90,12.5 C91.8,13.2 93.5,14 95.1,15.2 C96.5,16.2 96.5,18.2 96.1,19.5 C95.9,20.3 95.2,21 94.5,21.5 C93.3,22.4 92,23.1 90.8,23.9 C90,24.4 89.2,24.8 88.3,25.3 C86.6,26.2 84.8,27.1 83,28 C81.2,28.9 79.5,29.9 77.7,30.9 C75.7,32.1 73.9,33.4 72.3,35.1 C72.2,35.3 72,35.5 71.9,35.7 C72.1,35.7 72.2,35.8 72.3,35.8 C73.3,35.8 74.3,35.7 75.3,35.8 C75.8,35.8 76.1,35.6 76.4,35.3 C77.2,34.2 78.3,33.4 79.4,32.6 C81.9,30.7 84.7,29.3 87.5,27.9 C89.7,26.7 91.9,25.6 94.1,24.4 C94.8,24 95.5,23.6 96.3,23.2 C96.3,23.2 96.3,23.3 96.4,23.3 C96.3,23.4 96.1,23.6 96,23.7 C94.1,24.9 92.3,26.2 90.3,27.3 C87.7,28.9 85.1,30.3 82.8,32.3 C81.8,33.2 81,34.1 80.4,35.3 C80.2,35.6 80.3,35.8 80.7,35.7 C82,35.7 83.3,35.7 84.6,35.7 C84.9,35.7 85.1,35.6 85.2,35.3 C85.6,34.6 86,33.8 86.5,33.2 C87.8,31.7 89.5,30.5 91.2,29.5 C93.8,27.8 96.5,26.3 99.1,24.5 C100.9,23.3 102.6,21.8 104.2,20.3 C105.1,19.4 105.7,18.3 106.5,17.3 C107,16.7 106.9,16.1 106.4,15.4 C105.7,14.4 104.6,13.8 103.6,13.2 C102.5,12.6 101.2,12.2 100.1,11.6 C99,11 97.8,11.2 96.7,11.6 C96.6,11.6 96.6,11.7 96.5,11.8 C96.7,11.9 96.9,12.1 97.1,12.2 C98.1,12.7 99.1,13.1 100,13.7 C100.7,14.1 101.4,14.7 102.1,15.3 C102.6,15.8 102.8,16.5 102.5,17.2 C101.9,18.2 101.3,19.1 100.7,20.1 C100.6,20.3 100.3,20.5 100.1,20.6 C100.3,19.9 100.5,19.3 100.6,18.7 C100.7,17.5 100.5,16.3 99.5,15.5 C98.9,15 98.3,14.6 97.6,14.2 C96.1,13.5 94.6,12.7 93.1,12.2 C91.2,11.4 89.2,10.8 87.2,10.2 C84.9,9.4 82.6,8.7 80.3,7.9 C77.8,7.1 75.2,6.1 72.9,4.7 C71.8,4 70.6,3.7 69.4,3.8 C69.1,3.8 68.9,3.8 68.6,3.8 C68.2,3.7 67.9,3.8 67.7,3.8 Z M22.4,5.5 C22.4,5.6 22.4,5.6 22.4,5.7 C22.7,5.8 23,6 23.3,6.1 C24.9,6.7 26.4,7.4 28,7.9 C30.5,8.8 33,9.5 35.4,10.4 C37.6,11.2 39.8,12 41.9,12.8 C43.5,13.4 45,14.2 46.5,15.2 C47.9,16.2 48.2,17.5 48,19.1 C47.8,20.5 46.8,21.4 45.7,22.2 C44.2,23.2 42.7,24 41.2,24.9 C38.6,26.3 35.9,27.7 33.2,29.1 C31.1,30.2 29,31.4 27,32.8 C25.6,33.8 24.4,34.9 23.4,36.4 C23.6,36.4 23.8,36.5 24,36.5 C25,36.5 26,36.4 27,36.4 C29.8,36.4 32.6,36.3 35.5,36.3 C36,36.3 36.4,36.2 36.8,35.7 C38.2,33.7 40.2,32.5 42.2,31.2 C42.8,30.8 43.5,30.5 44.1,30.1 C44.1,30.1 44.1,30 44.1,30 C41.5,30 38.9,30 36.3,30 C36.3,30 36.3,29.9 36.2,29.9 C36.4,29.8 36.5,29.6 36.7,29.5 C38.5,28.6 40.4,27.6 42.2,26.7 C43.9,25.8 45.6,24.9 47.2,24 C48.4,23.3 49.6,22.6 50.7,21.7 C51.4,21.2 52.1,20.5 52.3,19.6 C52.4,19 52.5,18.3 52.4,17.6 C52.4,17.1 52.1,16.6 51.9,16.2 C51.2,15.3 50.2,14.7 49.3,14.2 C47.1,13 44.8,12.2 42.4,11.4 C39.8,10.5 37.1,9.6 34.5,8.7 C32.2,7.9 29.9,7.3 27.8,6.2 C26.7,5.6 25.5,5.4 24.3,5.5 C23.5,5.4 22.9,5.4 22.4,5.5 Z M60.5,35.8 C60.7,35.9 60.7,35.9 60.8,35.9 C61.9,35.9 63,35.9 64.2,35.9 C64.4,35.9 64.6,35.7 64.8,35.6 C65.2,35.2 65.5,34.8 65.8,34.5 C67.4,32.9 69.2,31.7 71.2,30.6 C73.8,29.2 76.5,27.8 79.1,26.4 C80.8,25.5 82.6,24.6 84.3,23.6 C85.2,23.1 86.2,22.5 87,21.9 C87.9,21.2 88.7,20.5 89.5,19.7 C90,19.2 90.5,18.7 91.2,18.6 C91.7,18.5 92.2,18.5 92.7,18.4 C93.2,18.4 93.3,18.3 93.3,17.7 C93.3,17 93.1,16.4 92.6,15.9 C91.6,14.8 90.4,14.1 89,13.5 C88.8,13.4 88.6,13.4 88.4,13.4 C88.1,13.4 87.9,13.5 88,13.9 C88.1,14.2 88.3,14.6 88.4,14.9 C88.7,15.5 88.8,16.2 88.7,16.9 C88.7,17 88.6,17.1 88.5,17.3 C88.4,17 88.3,16.9 88.2,16.7 C87.3,15 86.1,14.4 84.3,14.6 C84.1,14.6 83.8,14.6 83.6,14.7 C83.4,14.7 83.2,14.8 83,14.8 C83.1,15 83.3,15.1 83.4,15.3 C83.4,15.3 83.4,15.3 83.4,15.3 C84.6,16.2 84.8,17.5 84.7,18.9 C84.6,20.1 83.8,20.9 83,21.6 C81.5,22.9 79.7,23.8 77.9,24.8 C75.5,26.1 73,27.3 70.6,28.6 C69,29.5 67.4,30.4 65.8,31.3 C64.3,32.2 62.9,33.1 61.7,34.4 C61.5,34.7 61,35.2 60.5,35.8 Z" id="Shape" fill="#FFFFFF"></path>
                    <path d="M47.4,36.6 C46.2,36.6 45.4,36.6 44.5,36.2 C43.3,35.7 42.8,34.6 43.6,33.4 C44.2,32.5 45,31.7 45.9,31.1 C47.7,29.9 49.5,28.7 51.3,27.6 C53.3,26.3 55.4,25.1 57.5,23.9 C58.8,23.1 60.1,22.3 61.2,21.2 C62.1,20.4 62.5,19.4 62.6,18.2 C62.6,18.1 62.6,18 62.6,17.9 C63,16.3 62.3,15.2 61,14.4 C59.5,13.4 57.9,12.6 56.3,12 C54.6,11.3 52.8,10.6 51.1,10 C49.9,9.5 48.6,9.1 47.4,8.7 C46,8.2 44.6,7.6 43.2,7 C42.4,6.6 41.7,6.1 41.1,5.5 C40.6,5.1 40.7,4.6 41.3,4.3 C42.3,3.9 43.4,3.9 44.4,4 C46.7,4.2 49,4.8 51.2,5.5 C54.3,6.5 57.5,7.4 60.6,8.3 C63.3,9.1 65.9,9.9 68.6,10.7 C71.3,11.6 74,12.6 76.6,13.6 C77.8,14.1 78.8,14.8 79.9,15.5 C80.7,16 81.2,16.8 81.2,17.9 C81.2,18.3 81.3,18.7 81.2,19.1 C81.1,19.6 80.8,20 80.6,20.4 C79.9,21.4 79,22.1 77.9,22.6 C75.8,23.7 73.7,24.8 71.5,25.8 C69.7,26.7 67.8,27.5 66,28.4 C64.5,29.1 63.1,29.7 61.6,30.4 C60.2,31.1 58.8,31.8 57.4,32.6 C55.6,33.6 53.8,34.6 51.9,35.5 C50.6,36.2 48.9,36.7 47.4,36.6 Z M54.8,8.8 C54.8,8.9 54.8,8.9 54.7,9 C54.9,9.1 55.1,9.3 55.3,9.4 C56.3,9.9 57.3,10.3 58.4,10.8 C60.7,11.8 63.1,12.8 65.2,14.2 C65.9,14.7 66.6,15.2 66.9,16 C67.4,17.1 67,18.2 66.8,19.3 C66.7,19.6 66.6,19.9 66.4,20.2 C65.7,21.2 64.7,22 63.7,22.6 C60.8,24.5 57.8,26.3 54.9,28.1 C54.2,28.6 53.5,29.2 52.9,29.8 C52.7,30 52.4,30.4 52.5,30.7 C52.6,31.1 53.1,31.1 53.5,31 C54.4,30.8 55.2,30.7 56.1,30.4 C57.9,29.8 59.6,29.1 61.3,28.4 C63.2,27.6 65.1,26.9 66.9,26 C68.8,25.1 70.7,24.2 72.5,23.2 C73.8,22.5 75,21.7 76.1,20.7 C77.5,19.4 77.2,16.5 75.7,15.5 C74.5,14.7 73.3,13.9 71.9,13.4 C69.6,12.5 67.3,11.7 64.9,11 C62.1,10.2 59.3,9.5 56.5,8.8 C55.9,8.8 55.4,8.8 54.8,8.8 Z" id="Shape" fill="#000000"></path>
                    <path d="M9.6,7.1 C10.2,7 10.7,6.8 11.3,6.7 C12.6,6.5 14,6.2 15.4,6.4 C16.5,6.6 17.6,6.8 18.7,7 C20.3,7.4 22,7.8 23.6,8.2 C25.3,8.7 27.1,9.2 28.8,9.7 C30.2,10.1 31.6,10.5 33.1,10.9 C35.2,11.6 37.4,12.3 39.5,13.1 C40.9,13.6 42.2,14.3 43.5,14.9 C44.1,15.2 44.6,15.6 45,16.1 C45.8,16.9 45.7,18.6 45.1,19.5 C44.3,20.5 43.3,21.1 42.2,21.6 C40,22.6 37.6,23.3 35.2,23.5 C34.2,23.6 33.1,23.7 32.1,23.7 C31,23.7 30,24 29.1,24.5 C27,25.6 24.9,26.7 22.8,27.8 C21,28.8 19.1,29.7 17.3,30.8 C15.5,31.9 13.7,33 12.2,34.6 C11.8,35.1 11.4,35.6 11,36.1 C10.9,36.2 10.8,36.4 10.6,36.4 C9.3,36.4 8.1,36.4 6.6,36.4 C6.8,36.1 6.9,35.8 7.2,35.5 C8.6,33.8 10.3,32.5 12.2,31.3 C13.5,30.5 14.8,29.7 16.2,29 C18.1,28 20.1,27.1 22.1,26 C24.4,24.8 26.6,23.5 28.8,22.2 C29.9,21.5 30.8,20.6 31.3,19.4 C31.9,17.8 31.2,15.9 29.8,14.9 C27.6,13.4 25.1,12.4 22.6,11.5 C20.7,10.8 18.8,10.2 16.9,9.5 C15.3,9 13.7,8.5 12.1,7.9 C11.4,7.7 10.7,7.4 10.1,7.1 C9.8,7.4 9.8,7.3 9.6,7.1 Z M36.1,14.9 C35.7,14.9 35.2,15 34.6,15.1 C34.5,15.1 34.3,15.2 34.2,15.3 C34.3,15.4 34.4,15.5 34.4,15.7 C34.7,16.1 35.1,16.5 35.2,17 C35.4,18.1 35.5,19.3 34.8,20.3 C34.6,20.6 34.7,20.7 35.1,20.7 C35.5,20.7 36,20.7 36.4,20.7 C37.4,20.7 38.4,20.5 39.4,20.2 C41,19.6 41.2,17.3 40.2,16.4 C39.1,15.3 37.7,15 36.1,14.9 Z" id="Shape" fill="#000000"></path>
                    <path d="M67.7,3.8 C67.9,3.8 68.2,3.7 68.4,3.7 C68.7,3.7 68.9,3.7 69.2,3.7 C70.5,3.6 71.6,3.9 72.7,4.6 C75,6 77.5,6.9 80.1,7.8 C82.4,8.6 84.7,9.3 87,10.1 C89,10.8 90.9,11.4 92.9,12.1 C94.4,12.7 95.9,13.4 97.4,14.1 C98.1,14.4 98.7,14.9 99.3,15.4 C100.3,16.2 100.6,17.4 100.4,18.6 C100.3,19.2 100.1,19.8 99.9,20.5 C100.1,20.3 100.4,20.2 100.5,20 C101.1,19.1 101.8,18.1 102.3,17.1 C102.7,16.4 102.5,15.7 101.9,15.2 C101.3,14.6 100.6,14 99.8,13.6 C98.9,13 97.8,12.6 96.9,12.1 C96.7,12 96.5,11.9 96.3,11.7 C96.4,11.6 96.5,11.5 96.5,11.5 C97.6,11.1 98.8,11 99.9,11.5 C101.1,12.1 102.3,12.5 103.4,13.1 C104.4,13.7 105.5,14.3 106.2,15.3 C106.7,15.9 106.7,16.5 106.3,17.2 C105.6,18.2 104.9,19.4 104,20.2 C102.4,21.7 100.7,23.2 98.9,24.4 C96.3,26.2 93.6,27.7 91,29.4 C89.3,30.5 87.6,31.6 86.3,33.1 C85.8,33.7 85.4,34.5 85,35.2 C84.9,35.5 84.7,35.6 84.4,35.6 C83.1,35.6 81.8,35.6 80.5,35.6 C80.1,35.6 80.1,35.5 80.2,35.2 C80.8,34 81.6,33.1 82.6,32.2 C84.9,30.2 87.5,28.8 90.1,27.2 C92,26 93.9,24.8 95.8,23.6 C96,23.5 96.1,23.4 96.2,23.2 C96.2,23.2 96.2,23.1 96.1,23.1 C95.4,23.5 94.7,23.9 93.9,24.3 C91.7,25.5 89.5,26.6 87.3,27.8 C84.5,29.2 81.7,30.6 79.2,32.5 C78.1,33.3 77.1,34.1 76.2,35.2 C75.9,35.6 75.6,35.7 75.1,35.7 C74.1,35.7 73.1,35.7 72.1,35.7 C72,35.7 71.9,35.7 71.7,35.6 C71.9,35.4 72,35.2 72.1,35 C73.6,33.3 75.5,31.9 77.5,30.8 C79.2,29.8 81,28.8 82.8,27.9 C84.5,27 86.3,26.1 88.1,25.2 C88.9,24.8 89.8,24.3 90.6,23.8 C91.9,23 93.1,22.2 94.3,21.4 C95,20.9 95.6,20.3 95.9,19.4 C96.3,18 96.2,16.1 94.9,15.1 C93.3,13.9 91.6,13.1 89.8,12.4 C87.7,11.6 85.5,10.8 83.4,10 C81.6,9.4 79.8,8.8 78,8.3 C75.5,7.5 73,6.6 70.6,5.5 C69.5,5 68.5,4.4 67.5,3.9 C67.6,3.9 67.7,3.8 67.7,3.8 Z" id="Shape" fill="#000000"></path>
                    <path d="M22.4,5.5 C22.9,5.5 23.4,5.4 24,5.4 C25.2,5.3 26.4,5.5 27.5,6.1 C29.6,7.2 32,7.9 34.2,8.6 C36.8,9.5 39.5,10.4 42.1,11.3 C44.5,12.1 46.8,13 49,14.1 C50,14.6 51,15.2 51.6,16.1 C51.9,16.5 52.1,17 52.1,17.5 C52.2,18.2 52.1,18.9 52,19.5 C51.8,20.4 51.2,21.1 50.4,21.6 C49.3,22.4 48.1,23.2 46.9,23.9 C45.3,24.9 43.6,25.7 41.9,26.6 C40.1,27.6 38.2,28.5 36.4,29.4 C36.2,29.5 36,29.6 35.9,29.8 C35.9,29.8 35.9,29.9 36,29.9 C38.6,29.9 41.2,29.9 43.8,29.9 C43.8,29.9 43.8,30 43.8,30 C43.2,30.4 42.5,30.7 41.9,31.1 C39.9,32.4 37.9,33.6 36.5,35.6 C36.2,36.1 35.8,36.2 35.2,36.2 C32.4,36.2 29.6,36.3 26.7,36.3 C25.7,36.3 24.7,36.4 23.7,36.4 C23.5,36.4 23.3,36.3 23.1,36.3 C24.1,34.8 25.4,33.7 26.7,32.7 C28.7,31.3 30.8,30.1 32.9,29 C35.6,27.6 38.3,26.2 40.9,24.8 C42.4,24 43.9,23.1 45.4,22.1 C46.5,21.4 47.5,20.4 47.7,19 C47.9,17.4 47.6,16.1 46.2,15.1 C44.8,14.1 43.3,13.3 41.6,12.7 C39.4,11.9 37.3,11.1 35.1,10.3 C32.6,9.4 30.1,8.7 27.7,7.8 C26.1,7.2 24.6,6.6 23,6 C22.7,5.9 22.4,5.7 22.1,5.6 C22.4,5.6 22.4,5.5 22.4,5.5 Z" id="Shape" fill="#000000"></path>
                    <path d="M60.5,35.8 C61,35.3 61.4,34.7 61.9,34.3 C63.1,33.1 64.5,32.1 66,31.2 C67.6,30.3 69.2,29.4 70.8,28.5 C73.2,27.2 75.7,26 78.1,24.7 C79.9,23.8 81.7,22.8 83.2,21.5 C84,20.8 84.8,20 84.9,18.8 C85,17.4 84.8,16.1 83.6,15.2 C83.6,15.2 83.6,15.2 83.6,15.2 C83.5,15 83.3,14.9 83.2,14.7 C83.4,14.7 83.6,14.6 83.8,14.6 C84,14.6 84.3,14.6 84.5,14.5 C86.4,14.3 87.6,14.9 88.4,16.6 C88.5,16.8 88.6,16.9 88.7,17.2 C88.8,17 88.9,16.9 88.9,16.8 C89,16.1 88.9,15.4 88.6,14.8 C88.4,14.5 88.3,14.1 88.2,13.8 C88.1,13.5 88.3,13.3 88.6,13.3 C88.8,13.3 89,13.3 89.2,13.4 C90.5,14 91.8,14.7 92.8,15.8 C93.3,16.3 93.5,16.9 93.5,17.6 C93.5,18.1 93.4,18.2 92.9,18.3 C92.4,18.3 91.9,18.4 91.4,18.5 C90.7,18.6 90.2,19.1 89.7,19.6 C88.9,20.3 88.1,21.1 87.2,21.8 C86.3,22.4 85.4,23 84.5,23.5 C82.8,24.5 81,25.4 79.3,26.3 C76.7,27.7 74,29.1 71.4,30.5 C69.4,31.6 67.6,32.8 66,34.4 C65.6,34.8 65.3,35.2 65,35.5 C64.8,35.7 64.6,35.8 64.4,35.8 C63.3,35.8 62.2,35.8 61,35.8 C60.8,35.9 60.7,35.8 60.5,35.8 Z" id="Shape" fill="#000000"></path>
                    <path d="M54.8,8.8 C55.3,8.8 55.9,8.8 56.4,8.9 C59.2,9.6 62,10.3 64.8,11.1 C67.2,11.8 69.5,12.6 71.8,13.5 C73.1,14 74.4,14.7 75.6,15.6 C77.1,16.6 77.4,19.5 76,20.8 C74.9,21.8 73.7,22.7 72.4,23.3 C70.5,24.3 68.7,25.2 66.8,26.1 C65,26.9 63.1,27.7 61.2,28.5 C59.5,29.2 57.7,29.9 56,30.5 C55.2,30.8 54.3,30.9 53.4,31.1 C53,31.2 52.5,31.2 52.4,30.8 C52.3,30.6 52.6,30.1 52.8,29.9 C53.4,29.3 54.1,28.7 54.8,28.2 C57.7,26.3 60.7,24.5 63.6,22.7 C64.6,22 65.6,21.3 66.3,20.3 C66.5,20 66.7,19.7 66.7,19.4 C66.9,18.3 67.3,17.2 66.8,16.1 C66.4,15.3 65.8,14.7 65.1,14.3 C63,12.9 60.6,11.9 58.3,10.9 C57.3,10.5 56.2,10 55.2,9.5 C55,9.4 54.8,9.2 54.6,9.1 C54.8,8.9 54.8,8.8 54.8,8.8 Z" id="Shape" fill="#FFFFFF"></path>
                    <path d="M36.1,14.9 C37.7,15 39.1,15.3 40.2,16.3 C41.2,17.2 41,19.5 39.4,20.1 C38.4,20.5 37.4,20.6 36.4,20.6 C36,20.6 35.5,20.6 35.1,20.6 C34.7,20.6 34.6,20.5 34.8,20.2 C35.5,19.2 35.4,18 35.2,16.9 C35.1,16.4 34.7,16 34.4,15.6 C34.3,15.5 34.2,15.4 34.2,15.2 C34.3,15.1 34.5,15.1 34.6,15 C35.2,15 35.7,15 36.1,14.9 Z" id="Shape" fill="#FFFFFF"></path>
                </g>
            </g>
        </g>
    </g>
</svg>