<?xml version="1.0" encoding="UTF-8"?>
<svg width="136px" height="49px" viewBox="0 0 136 49" version="1.1" xmlns="http://www.w3.org/2000/svg" xmlns:xlink="http://www.w3.org/1999/xlink">
    <!-- Generator: Sketch 49.3 (51167) - http://www.bohemiancoding.com/sketch -->
    <title>_x36_m7pwa_1_</title>
    <desc>Created with Sketch.</desc>
    <defs></defs>
    <g id="Page-1" stroke="none" stroke-width="1" fill="none" fill-rule="evenodd">
        <g id="plork-logos" transform="translate(-382.000000, -298.000000)" fill-rule="nonzero">
            <g id="_x36_m7pwa_1_" transform="translate(382.000000, 298.000000)">
                <g id="Group">
                    <path d="M0.2,48.5 C0.2,32.3 0.2,16.2 0.2,0 C45.4,0 90.5,0 135.7,0 C135.7,16.2 135.7,32.3 135.7,48.5 C90.5,48.5 45.4,48.5 0.2,48.5 Z M59,2.1 C59,2.1 59,2 59,2 C57.5,2.3 56,2.5 54.5,2.9 C51.9,3.7 49.3,4.6 47,6 C45.1,7.1 43.4,8.3 42.5,10.4 C41.9,11.8 41.9,13.2 42.9,14.4 C43.9,15.5 45,16.5 46.3,17.3 C47.9,18.3 49.6,19.2 51.3,20 C54.8,21.6 58.4,23.2 61.9,24.8 C65.9,26.5 69.9,28.3 73.7,30.4 C76.4,32 79,33.8 80.9,36.4 C82.1,38.1 83.3,39.9 84.5,41.7 C84.9,42.2 85.3,42.8 85.8,43.2 C87.1,44.3 88.8,44.4 90.4,44.2 C94,43.7 96.7,41.7 98.6,38.6 C99.1,37.7 99.3,36.7 99,35.7 C98.6,34.3 97.6,33.3 96.6,32.4 C94.3,30.4 91.6,29 89,27.7 C86.3,26.3 83.5,25.2 80.7,23.9 C78,22.7 75.4,21.4 72.7,20.1 C70.3,19 67.9,17.6 65.8,15.9 C64.7,15 63.5,14.1 62.9,12.8 C62.5,11.9 62.3,11 61.9,10.1 C61.5,8.9 61.5,7.7 62,6.5 C62.2,5.9 62.4,5.3 62.6,4.7 C62.9,3.3 62.3,2.5 60.9,2.3 C60.2,2.2 59.6,2.2 59,2.1 Z M36.5,27.2 C36.5,27.1 36.5,27.1 36.6,27 C36.8,27 37,26.9 37.2,26.9 C37.9,26.8 38.5,26.8 39.2,26.7 C39.4,26.7 39.6,26.6 39.6,26.5 C39.6,26.4 39.5,26.1 39.4,26 C38.6,25.4 37.8,24.7 36.9,24.1 C34.9,22.8 32.9,21.7 30.9,20.4 C28.4,18.9 26,17.3 24,15.2 C23.1,14.3 22.3,13.4 22.1,12.1 C21.9,11 21.7,10 21.6,8.9 C21.6,8.4 21.7,8 21.7,7.5 C21.8,6.9 21.9,6.4 22,5.8 C22.1,5 22,4.6 21.2,4.2 C20.6,4 20,3.7 19.4,3.7 C16.6,3.7 13.8,3.8 11,3.9 C10.7,3.9 10.4,4 10.1,4.2 C9.2,4.9 8.4,5.6 7.6,6.4 C6.5,7.5 5.7,8.7 5.9,10.4 C5.9,10.7 5.9,11 5.9,11.3 C5.9,12.5 6.4,13.6 7.2,14.4 C8.4,15.5 9.7,16.6 11.1,17.4 C14.3,19.5 17.8,20.9 21.3,22.5 C23.6,23.6 26,24.5 28.3,25.6 C30.9,26.8 33.5,28 36,29.3 C38.3,30.5 40.5,31.9 42.3,33.8 C44,35.6 44.6,37.6 44.3,40 C44.2,40.9 43.9,41.8 43.7,42.7 C43.6,43 43.6,43.3 44,43.3 C45.2,43.3 46.4,43.3 47.6,43.3 C47.9,43.3 48.2,43.2 48.3,42.8 C49.1,40.9 49.2,39 48.7,37.1 C48.2,35.3 47,33.9 45.7,32.7 C43.4,30.7 40.8,29.4 38.1,28 C37.7,27.9 37.1,27.6 36.5,27.2 Z M91.1,2.1 C90.8,2 90.7,2 90.6,2 C89.6,2 88.5,2 87.5,2 C87.1,2 86.7,2 86.4,2.3 C84.6,3.7 82.9,5 81.2,6.5 C79.4,8.1 79.2,10.2 79.7,12.3 C80,13.6 80.9,14.5 81.9,15.3 C83.6,16.7 85.5,17.9 87.4,18.9 C89.3,19.9 91.2,20.8 93.2,21.7 C95.8,22.9 98.4,23.9 101,25.1 C103.9,26.4 106.7,27.8 109.6,29.3 C111.8,30.4 113.9,31.7 115.6,33.5 C116.4,34.3 117.2,35.3 117.6,36.4 C118.2,38.4 118.2,40.5 117.5,42.5 C117.3,43 117.4,43.1 117.9,43.1 C119.1,43.1 120.3,43.1 121.5,43.1 C121.7,43.1 122,42.9 122,42.7 C122.2,42 122.4,41.2 122.6,40.4 C122.9,38.5 122.6,36.7 121.6,35.1 C120.9,34 120,33 118.9,32.2 C117.3,31.1 115.8,30.1 114.1,29.2 C111.2,27.7 108.2,26.4 105.3,24.9 C104.7,24.6 104.1,24.4 103.6,24.1 C103.6,24.1 103.6,24 103.7,24 C103.8,24 103.9,24 104,24.1 C105.5,24.7 107,25.3 108.5,26 C111.3,27.3 114.1,28.6 116.9,30 C119.6,31.4 122.2,33.1 124.1,35.4 C125.1,36.6 125.9,37.9 126.4,39.4 C126.8,40.5 126.9,41.5 126.8,42.6 C126.8,43 126.9,43.1 127.3,43.1 C128.8,43.1 130.2,43.1 131.7,43.1 C132,43.1 132.3,43 132.3,42.6 C132.2,41.9 132.3,41.2 132.1,40.5 C131.8,39 131,37.7 130.2,36.5 C128.9,34.6 127.1,33.1 125.2,31.8 C122.6,30 119.8,28.7 117,27.4 C114.5,26.3 112,25.3 109.5,24.2 C106.5,23 103.5,21.7 100.5,20.5 C97.8,19.4 95.5,17.8 93.8,15.5 C92.8,14.2 92.5,12.9 93.6,11.3 C93.8,11 94,10.6 94.3,10.3 C94.1,10.3 94,10.2 93.9,10.2 C92.5,10.2 91.1,10.3 89.6,10.3 C89.4,10.3 89.2,10.4 89.1,10.6 C88.9,11 88.6,11.3 88.5,11.7 C88.2,12.4 88,13.2 88.3,13.9 C88.9,15.2 89.8,16.3 90.9,17.2 C91.3,17.5 91.7,17.9 92.1,18.2 C92.1,18.2 92,18.3 92,18.3 C91.8,18.2 91.7,18.2 91.5,18.1 C90,17.1 88.5,16.1 87,15.1 C85.6,14.1 84.7,12.8 84.6,11 C84.4,9.1 84.9,7.3 86.4,6 C87.7,4.9 89,3.8 90.3,2.8 C90.2,2.8 90.6,2.5 91.1,2.1 Z M62.7,43.4 C63,43.4 63.2,43.4 63.3,43.4 C67.6,43.4 71.8,43.4 76.1,43.4 C77,43.4 77.1,43.3 77.4,42.4 C77.9,41 77.9,39.5 77.8,38.1 C77.8,37.6 77.6,37.5 77.1,37.5 C76.2,37.5 75.4,37.5 74.5,37.5 C72.5,37.5 70.4,37.5 68.4,37.5 C68.2,37.5 68,37.3 67.8,37.1 C67.6,36.7 67.5,36.2 67.2,35.8 C66.3,34.1 64.8,32.9 63.3,31.7 C61.5,30.4 59.5,29.3 57.5,28.4 C55.3,27.3 53.1,26.3 50.9,25.3 C47,23.5 43.1,21.8 39.2,20 C36.7,18.8 34.4,17.5 32.3,15.7 C31.5,15.1 30.8,14.4 30.2,13.5 C29.6,12.4 29.6,11.3 29.6,10.1 C29.6,9 30,8 30.7,7.1 C31.7,5.8 33.1,4.9 34.3,3.9 C34.4,3.8 34.6,3.7 34.8,3.5 C34.6,3.5 34.5,3.4 34.4,3.4 C33.3,3.4 32.3,3.5 31.2,3.4 C30.3,3.4 29.6,3.8 29,4.3 C27.9,5.2 26.7,6.1 25.8,7.3 C25.3,8 24.9,8.7 24.9,9.6 C24.8,11.4 24.9,13.2 26.4,14.5 C27.2,15.2 27.9,15.9 28.8,16.5 C30.7,17.7 32.7,18.9 34.8,19.9 C38,21.5 41.3,22.9 44.6,24.4 C47.5,25.7 50.4,27 53.3,28.4 C55.3,29.4 57.2,30.6 59.1,31.8 C60.4,32.6 61.4,33.7 62.2,35 C63.7,37.3 63.7,39.9 62.9,42.4 C62.9,42.8 62.8,43.1 62.7,43.4 Z M71.9,14 C71.8,14 71.8,14 71.7,14.1 C71.6,14 71.4,13.9 71.4,13.7 C71.1,13 70.8,12.4 70.6,11.7 C70.5,11.4 70.4,11.3 70.1,11.3 C69.1,11.3 68.1,11.4 67.1,11.4 C66.5,11.4 66.3,11.7 66.5,12.2 C66.8,12.8 67.1,13.5 67.6,14 C68.8,15.5 70.3,16.5 71.9,17.4 C74.3,18.8 76.7,20 79.1,21.2 C81.6,22.4 84.3,23.5 86.8,24.7 C89.6,26 92.5,27.3 95.3,28.7 C97.8,29.9 100.2,31.4 102.3,33.3 C103.3,34.3 104.2,35.4 104.6,36.8 C105.1,38.8 105,40.7 104.4,42.6 C104.2,43.1 104.3,43.2 104.8,43.2 C105.9,43.2 107.1,43.2 108.2,43.2 C108.6,43.2 108.8,43.1 108.9,42.7 C109.6,40.7 109.8,38.6 109.1,36.5 C108.5,34.7 107.2,33.4 105.7,32.3 C104,31.1 102.2,29.9 100.4,29 C97.3,27.4 94.2,26 91.1,24.6 C88.6,23.5 86.1,22.4 83.7,21.2 C82,20.4 80.3,19.4 78.6,18.4 C78.1,18.1 77.7,17.6 77.3,17.2 C76.9,16.7 77.2,16.3 77.8,16.2 C78.2,16.2 78.6,16.1 79.1,16.1 C78.9,15.9 78.8,15.7 78.7,15.6 C78.5,15.4 78.2,15.2 78,15 C76.9,14 76,12.9 76,11.3 C76,11 75.8,10.9 75.5,10.9 C74.5,10.9 73.5,11 72.6,11.7 C72,12.2 71.6,12.7 71.7,13.6 C71.9,13.8 71.9,13.9 71.9,14 Z" id="Shape" fill="#FFFFFF"></path>
                    <path d="M59,2.1 C59.6,2.1 60.2,2.1 60.8,2.2 C62.2,2.3 62.8,3.2 62.5,4.6 C62.4,5.2 62.2,5.8 61.9,6.4 C61.4,7.6 61.4,8.8 61.8,10 C62.1,10.9 62.4,11.8 62.8,12.7 C63.4,14.1 64.6,15 65.7,15.8 C67.8,17.4 70.1,18.8 72.6,20 C75.3,21.2 77.9,22.5 80.6,23.8 C83.4,25.1 86.2,26.3 88.9,27.6 C91.6,28.9 94.3,30.3 96.5,32.3 C97.5,33.2 98.5,34.2 98.9,35.6 C99.2,36.6 99,37.6 98.5,38.5 C96.6,41.6 93.9,43.6 90.3,44.1 C88.7,44.3 87,44.2 85.7,43.1 C85.2,42.7 84.8,42.2 84.4,41.6 C83.2,39.9 82,38 80.8,36.3 C78.9,33.7 76.4,31.9 73.6,30.3 C69.8,28.1 65.8,26.4 61.8,24.7 C58.2,23.1 54.7,21.6 51.2,19.9 C49.5,19.1 47.8,18.2 46.2,17.2 C44.9,16.4 43.8,15.5 42.8,14.3 C41.7,13.1 41.8,11.7 42.4,10.3 C43.3,8.2 45,7 46.9,5.9 C49.3,4.6 51.8,3.6 54.4,2.8 C55.9,2.4 57.4,2.2 58.9,1.9 C59,2.1 59,2.1 59,2.1 Z M90.5,38.4 C91,38.3 91.6,38.3 92.1,38.1 C93.3,37.6 94.1,36.5 93.4,34.8 C92.8,33.5 91.9,32.5 90.8,31.8 C88.9,30.5 86.9,29.3 84.9,28.2 C83.3,27.3 81.6,26.5 79.9,25.7 C77.6,24.6 75.2,23.6 72.9,22.5 C71.1,21.6 69.2,20.8 67.4,19.9 C64.8,18.6 62.3,17.2 60,15.3 C58.6,14.2 57.7,12.8 57.1,11.2 C56.7,10.1 56.1,9 55.5,8 C55.2,7.4 54.6,7.1 53.9,7.2 C53.3,7.3 52.6,7.2 52,7.4 C50,7.9 48.3,8.9 47.4,11 C46.9,12.2 47,13.3 47.8,14.3 C48.6,15.4 49.7,16.3 50.8,17 C52.7,18.2 54.6,19.3 56.6,20.3 C59.2,21.6 61.9,22.7 64.6,23.9 C66.7,24.8 68.9,25.7 71,26.7 C72.6,27.4 74.2,28.2 75.8,29 C78.1,30.1 80.4,31.3 82.4,33 C84.1,34.4 85.6,35.9 87.2,37.3 C88.2,38 89.2,38.4 90.5,38.4 Z" id="Shape" fill="#000000"></path>
                    <path d="M36.5,27.2 C37.1,27.5 37.7,27.9 38.3,28.2 C41,29.5 43.6,30.9 45.9,32.9 C47.3,34.1 48.5,35.4 48.9,37.3 C49.4,39.2 49.3,41.1 48.5,43 C48.4,43.4 48.1,43.5 47.8,43.5 C46.6,43.5 45.4,43.5 44.2,43.5 C43.7,43.5 43.8,43.2 43.9,42.9 C44.1,42 44.4,41.1 44.5,40.2 C44.7,37.9 44.1,35.8 42.5,34 C40.7,32.1 38.5,30.7 36.2,29.5 C33.7,28.2 31.1,27 28.5,25.8 C26.2,24.7 23.8,23.8 21.5,22.7 C18,21.1 14.5,19.7 11.3,17.6 C9.9,16.7 8.6,15.7 7.4,14.6 C6.5,13.8 6,12.7 6.1,11.5 C6.1,11.2 6.1,10.9 6.1,10.6 C5.9,9 6.7,7.7 7.8,6.6 C8.6,5.8 9.5,5.1 10.3,4.4 C10.5,4.2 10.9,4.1 11.2,4.1 C14,4 16.8,3.9 19.6,3.9 C20.2,3.9 20.8,4.1 21.4,4.4 C22.2,4.7 22.3,5.1 22.2,6 C22.1,6.6 22,7.1 21.9,7.7 C21.8,8.2 21.7,8.6 21.8,9.1 C21.9,10.2 22.1,11.2 22.3,12.3 C22.5,13.6 23.3,14.5 24.2,15.4 C26.2,17.5 28.7,19.1 31.1,20.6 C33.1,21.8 35.1,23 37.1,24.3 C38,24.9 38.8,25.5 39.6,26.2 C39.7,26.3 39.8,26.5 39.8,26.7 C39.8,26.8 39.5,26.9 39.4,26.9 C38.7,27 38.1,27 37.4,27.1 C37.2,27.1 37,27.2 36.8,27.2 C36.5,27.1 36.5,27.2 36.5,27.2 Z M18.6,18.3 C19.1,18.3 19.5,18.3 19.8,18.3 C19.9,18.3 19.9,18.3 20,18.3 C20.7,18.1 20.8,17.7 20.5,17.2 C20,16.6 19.5,16 19,15.4 C18,14.3 17.2,13.2 16.9,11.7 C16.6,10.3 15.9,9.3 14.2,9.3 C13.2,9.3 12.2,9.3 11.1,9.4 C10.8,9.4 10.7,9.7 10.7,9.9 C10.7,10.4 10.7,11 10.7,11.5 C10.7,12.6 11.1,13.5 11.8,14.3 C12.8,15.3 13.9,16.2 15,17 C16.1,17.7 17.1,18.7 18.6,18.3 Z" id="Shape" fill="#000000"></path>
                    <path d="M91.1,2.1 C90.6,2.5 90.2,2.8 89.8,3.1 C88.5,4.2 87.1,5.2 85.9,6.3 C84.4,7.6 84,9.3 84.1,11.3 C84.2,13.1 85.1,14.4 86.5,15.4 C87.9,16.5 89.5,17.4 91,18.4 C91.1,18.5 91.3,18.5 91.5,18.6 C91.5,18.6 91.6,18.5 91.6,18.5 C91.2,18.2 90.8,17.8 90.4,17.5 C89.3,16.6 88.4,15.5 87.8,14.2 C87.5,13.4 87.7,12.7 88,12 C88.2,11.6 88.4,11.2 88.6,10.9 C88.7,10.8 88.9,10.6 89.1,10.6 C90.5,10.5 91.9,10.5 93.4,10.5 C93.5,10.5 93.7,10.5 93.8,10.6 C93.6,11 93.4,11.3 93.1,11.6 C92,13.2 92.4,14.5 93.3,15.8 C95,18.1 97.4,19.7 100,20.8 C103,22 106,23.3 109,24.5 C111.5,25.5 114,26.6 116.5,27.7 C119.3,29 122.2,30.3 124.7,32.1 C126.6,33.4 128.4,34.9 129.7,36.8 C130.5,38 131.3,39.3 131.6,40.8 C131.7,41.5 131.7,42.2 131.8,42.9 C131.8,43.3 131.6,43.4 131.2,43.4 C129.7,43.4 128.3,43.4 126.8,43.4 C126.4,43.4 126.3,43.2 126.3,42.9 C126.4,41.8 126.3,40.7 125.9,39.7 C125.4,38.2 124.6,36.9 123.6,35.7 C121.6,33.3 119.1,31.6 116.4,30.3 C113.6,28.9 110.8,27.6 108,26.3 C106.5,25.6 105,25 103.5,24.4 C103.4,24.4 103.3,24.3 103.2,24.3 C103.2,24.3 103.2,24.4 103.1,24.4 C103.7,24.7 104.3,24.9 104.8,25.2 C107.7,26.6 110.7,28 113.6,29.5 C115.3,30.4 116.8,31.4 118.4,32.5 C119.5,33.3 120.4,34.3 121.1,35.4 C122.1,37 122.4,38.8 122.1,40.7 C122,41.5 121.8,42.2 121.5,43 C121.4,43.2 121.2,43.4 121,43.4 C119.8,43.4 118.6,43.5 117.4,43.4 C116.9,43.4 116.8,43.3 117,42.8 C117.7,40.8 117.8,38.7 117.1,36.7 C116.7,35.6 116,34.6 115.1,33.8 C113.4,32 111.3,30.7 109.1,29.6 C106.3,28.2 103.4,26.8 100.5,25.4 C97.9,24.2 95.3,23.2 92.7,22 C90.7,21.1 88.8,20.1 86.9,19.2 C84.9,18.2 83.1,17 81.4,15.6 C80.4,14.8 79.5,13.9 79.2,12.6 C78.7,10.4 78.9,8.3 80.7,6.8 C82.4,5.3 84.1,3.9 85.9,2.6 C86.2,2.4 86.6,2.4 87,2.3 C88,2.3 89,2.3 90.1,2.3 C90.7,2 90.8,2.1 91.1,2.1 Z" id="Shape" fill="#000000"></path>
                    <path d="M62.7,43.4 C62.8,43.1 62.9,42.8 62.9,42.6 C63.7,40 63.7,37.5 62.2,35.2 C61.4,33.9 60.3,32.8 59.1,32 C57.2,30.8 55.3,29.6 53.3,28.6 C50.5,27.2 47.5,25.9 44.6,24.6 C41.3,23.1 38,21.7 34.8,20.1 C32.8,19.1 30.8,17.9 28.8,16.7 C27.9,16.2 27.2,15.4 26.4,14.7 C25,13.4 24.8,11.6 24.9,9.8 C25,8.9 25.3,8.2 25.8,7.5 C26.7,6.3 27.9,5.4 29,4.5 C29.7,4 30.3,3.5 31.2,3.6 C32.3,3.6 33.3,3.6 34.4,3.6 C34.5,3.6 34.6,3.6 34.8,3.7 C34.6,3.9 34.5,4 34.3,4.1 C33,5.1 31.7,6 30.7,7.3 C30,8.2 29.6,9.1 29.6,10.3 C29.6,11.5 29.5,12.6 30.2,13.7 C30.7,14.6 31.5,15.2 32.3,15.9 C34.4,17.7 36.8,19 39.2,20.2 C43.1,22 47,23.7 50.9,25.5 C53.1,26.5 55.3,27.5 57.5,28.6 C59.5,29.6 61.5,30.6 63.3,31.9 C64.8,33 66.3,34.3 67.2,36 C67.4,36.4 67.5,36.9 67.8,37.3 C67.9,37.5 68.2,37.7 68.4,37.7 C70.4,37.7 72.5,37.7 74.5,37.7 C75.4,37.7 76.2,37.7 77.1,37.7 C77.6,37.7 77.8,37.8 77.8,38.3 C77.9,39.8 77.9,41.2 77.4,42.6 C77.1,43.5 77,43.6 76.1,43.6 C71.8,43.6 67.6,43.6 63.3,43.6 C63.2,43.4 63,43.4 62.7,43.4 Z" id="Shape" fill="#000000"></path>
                    <path d="M71.9,14 C71.9,13.9 71.9,13.7 71.9,13.6 C71.8,12.8 72.1,12.2 72.8,11.7 C73.7,11.1 74.6,10.9 75.7,10.9 C76,10.9 76.2,11 76.2,11.3 C76.2,12.9 77,14 78.2,15 C78.4,15.2 78.7,15.4 78.9,15.6 C79,15.7 79.1,15.9 79.3,16.1 C78.8,16.1 78.4,16.2 78,16.2 C77.4,16.3 77.1,16.7 77.5,17.2 C77.9,17.7 78.3,18.1 78.8,18.4 C80.5,19.4 82.2,20.3 83.9,21.2 C86.3,22.4 88.9,23.4 91.3,24.6 C94.4,26 97.6,27.4 100.6,29 C102.5,30 104.2,31.1 105.9,32.3 C107.4,33.4 108.6,34.7 109.3,36.5 C110,38.6 109.8,40.6 109.1,42.7 C109,43 108.8,43.2 108.4,43.2 C107.3,43.2 106.1,43.2 105,43.2 C104.4,43.2 104.4,43.1 104.6,42.6 C105.3,40.7 105.4,38.7 104.8,36.8 C104.4,35.4 103.5,34.3 102.5,33.3 C100.4,31.3 98,29.9 95.5,28.7 C92.7,27.3 89.9,26 87,24.7 C84.4,23.5 81.8,22.4 79.3,21.2 C76.8,20 74.4,18.8 72.1,17.4 C70.5,16.5 69,15.4 67.8,14 C67.4,13.5 67,12.8 66.7,12.2 C66.4,11.6 66.7,11.4 67.3,11.4 C68.3,11.4 69.3,11.4 70.3,11.3 C70.6,11.3 70.7,11.4 70.8,11.7 C71,12.4 71.3,13 71.6,13.7 C71.7,13.8 71.8,13.9 71.9,14.1 C71.8,14.1 71.9,14 71.9,14 Z" id="Shape" fill="#000000"></path>
                    <path d="M90.5,38.4 C89.3,38.4 88.2,38 87.3,37.2 C85.7,35.7 84.2,34.2 82.5,32.9 C80.5,31.3 78.2,30.1 75.9,28.9 C74.3,28.1 72.7,27.3 71.1,26.6 C69,25.7 66.8,24.8 64.7,23.8 C62,22.6 59.3,21.5 56.7,20.2 C54.7,19.2 52.8,18.1 50.9,16.9 C49.7,16.2 48.7,15.3 47.9,14.2 C47.1,13.2 47,12.1 47.5,10.9 C48.4,8.8 50.1,7.8 52.1,7.3 C52.7,7.1 53.3,7.2 54,7.1 C54.7,7 55.2,7.4 55.6,7.9 C56.2,8.9 56.8,10 57.2,11.1 C57.8,12.8 58.8,14.1 60.1,15.2 C62.4,17.1 64.9,18.5 67.5,19.8 C69.3,20.7 71.1,21.6 73,22.4 C75.3,23.5 77.7,24.5 80,25.6 C81.7,26.4 83.4,27.1 85,28.1 C87,29.2 89,30.4 90.9,31.7 C92,32.4 92.9,33.4 93.5,34.7 C94.2,36.3 93.4,37.5 92.2,38 C91.6,38.3 91,38.3 90.5,38.4 Z" id="Shape" fill="#FFFFFF"></path>
                    <path d="M18.6,18.3 C17.2,18.7 16.2,17.7 15.1,17 C14,16.2 12.9,15.3 11.9,14.3 C11.2,13.6 10.7,12.6 10.8,11.5 C10.8,11 10.8,10.4 10.8,9.9 C10.8,9.6 10.9,9.4 11.2,9.4 C12.2,9.4 13.2,9.3 14.3,9.3 C16,9.3 16.7,10.3 17,11.7 C17.3,13.2 18.1,14.3 19.1,15.4 C19.6,16 20.1,16.6 20.6,17.2 C21,17.7 20.8,18.1 20.1,18.3 C20,18.3 20,18.3 19.9,18.3 C19.4,18.3 19,18.3 18.6,18.3 Z" id="Shape" fill="#FFFFFF"></path>
                </g>
            </g>
        </g>
    </g>
</svg>