<?xml version="1.0" encoding="UTF-8"?>
<svg width="154px" height="45px" viewBox="0 0 154 45" version="1.1" xmlns="http://www.w3.org/2000/svg" xmlns:xlink="http://www.w3.org/1999/xlink">
    <!-- Generator: Sketch 49.3 (51167) - http://www.bohemiancoding.com/sketch -->
    <title>XgRtyr_1_</title>
    <desc>Created with Sketch.</desc>
    <defs></defs>
    <g id="Page-1" stroke="none" stroke-width="1" fill="none" fill-rule="evenodd">
        <g id="plork-logos" transform="translate(-532.000000, -249.000000)" fill-rule="nonzero">
            <g id="XgRtyr_1_" transform="translate(532.000000, 249.000000)">
                <g id="Group">
                    <path d="M0.8,44.4 C0.8,29.7 0.8,15 0.8,0.2 C51.6,0.2 102.3,0.2 153.1,0.2 C153.1,14.9 153.1,29.6 153.1,44.4 C102.3,44.4 51.5,44.4 0.8,44.4 Z M64.5,28.3 C64.3,31.3 65.2,33.9 67.1,36.2 C69,38.5 71.4,39.8 74.2,40.5 C77.2,41.2 80.3,41.2 83.3,40.6 C87.4,39.8 90.5,37.6 92.2,33.7 C93.2,31.5 94.1,29.2 95.3,27 C97.1,23.5 98.1,19.8 98.2,15.8 C98.2,14.8 98.4,13.7 98.4,12.7 C98.5,11.2 98.7,9.8 98.1,8.4 C97.5,7.1 96.8,5.9 95.4,5.2 C94,4.5 92.5,4.3 90.9,4.2 C87,4 83.1,4.7 79.4,5.9 C75.9,7 72.8,8.7 70,11.1 C68.3,12.6 67,14.3 66.3,16.4 C65.2,20.3 64.7,24.3 64.5,28.3 Z M26.7,4 C26.7,4 26.7,4 26.7,4 C24.9,4.1 23,4.1 21.2,4.1 C20.9,4.1 20.6,4.2 20.4,4.3 C19.7,4.9 19,5.6 18.4,6.3 C17.4,7.6 16.6,9 15.6,10.2 C13.9,12.4 13,14.9 12.4,17.5 C11.8,20.1 11.4,22.8 10.8,25.4 C10.2,28.1 9.3,30.8 9.5,33.6 C9.6,36.1 9.8,38.6 9.9,41 C9.9,41.6 10.2,41.9 10.8,41.9 C12.7,41.8 14.6,41.8 16.4,41.7 C16.8,41.7 17,41.5 17,41.1 C16.9,39.9 16.7,38.7 16.7,37.5 C16.7,34.9 16.6,32.4 16.8,29.8 C16.9,28.4 17.5,27 17.7,25.6 C17.8,24.8 18.2,24.5 19,24.5 C20.2,24.5 21.3,24.4 22.5,24.5 C24.7,24.5 26.9,24.2 28.9,23.3 C32.1,22 34.7,20 36.1,16.7 C37,14.6 37.8,12.6 38.6,10.5 C39.2,8.9 39.2,7.3 38,5.9 C37.1,4.8 35.9,4.4 34.6,4.3 C32,4.2 29.4,4.1 26.7,4 Z M129.7,22.3 C129.6,22.3 129.6,22.2 129.5,22.2 C129.9,15.7 131.9,10 136.7,5.2 C136.2,5.2 136.1,5.1 135.9,5.1 C134.2,5.1 132.5,5.1 130.9,5.1 C130.2,5.1 129.6,5.3 129.2,5.8 C128.7,6.4 128.2,6.9 127.8,7.4 C125,11.1 123.4,15.2 122.8,19.8 C122.5,22.3 121.8,24.9 121.2,27.4 C120.7,29.6 120.3,31.7 120.4,34 C120.5,35.4 120.6,36.9 120.6,38.3 C120.6,39 120.9,39.2 121.5,39.2 C123.4,39.1 125.2,39.1 127.1,39 C127.5,39 127.7,38.8 127.7,38.4 C127.6,37.6 127.5,36.8 127.5,36 C127.2,32.3 127.7,28.7 128.7,25.2 C128.8,24.9 129,24.6 129.1,24.3 C129.5,25.2 129.7,26.1 129.9,27 C130.3,28.6 130.5,30.2 131.1,31.7 C132,33.9 133.2,35.9 134.2,38 C134.5,38.6 135,38.8 135.6,38.8 C137.7,38.7 139.8,38.7 141.9,38.6 C142.1,38.6 142.3,38.5 142.6,38.5 C142.1,37.8 141.7,37.3 141.4,36.7 C140.3,34.6 139.1,32.6 138.2,30.4 C137.3,28.3 136.8,26 136.1,23.8 C135.9,23.3 136,22.9 136.4,22.5 C139,19.9 141.6,17.2 144.2,14.6 C144.7,14.1 145.2,13.7 145.8,13.2 C145.5,13.1 145.4,13 145.2,13 C143,13 140.9,13 138.7,13 C138.4,13 138.1,13.2 137.9,13.4 C136.5,14.8 135.1,16.2 133.7,17.7 C132.3,19.4 131,20.8 129.7,22.3 Z M55.6,4.4 C53.5,4.4 51.6,4.4 49.6,4.4 C48.9,4.4 48.3,4.7 47.8,5.1 C45.9,6.7 44.7,8.8 43.4,10.9 C42.1,13 41.5,15.3 41,17.6 C40.5,20.3 39.9,23 39.3,25.6 C39,27 38.5,28.5 38.3,29.9 C37.8,33.3 38.1,36.6 38.4,40 C38.5,41.1 38.5,41.1 39.7,41.1 C44.4,41 49.2,40.9 53.9,40.8 C55.8,40.8 57.7,40.7 59.6,40.7 C60.1,40.7 60.3,40.5 60.3,39.9 C60.2,38.5 60.1,37.1 60,35.8 C59.9,34.6 59.9,34.7 58.8,34.7 C54.6,34.8 50.4,34.9 46.2,35.1 C45.7,35.1 45.3,35.1 45.2,34.3 C45,31.5 45.6,28.8 46.3,26.2 C47,23.3 47.8,20.4 48.2,17.4 C48.8,13.6 50.6,10.4 52.8,7.4 C53.6,6.4 54.6,5.5 55.6,4.4 Z M110.5,16.8 C110.4,16.8 110.3,16.7 110.2,16.7 C110.4,15.7 110.5,14.7 110.7,13.6 C110.4,13.6 110.2,13.5 110,13.5 C108.5,13.5 107,13.6 105.5,13.5 C104.6,13.5 104.4,13.9 104.3,14.5 C104,16.1 103.8,17.7 103.6,19.3 C103.4,20.6 103.2,21.9 102.9,23.1 C102.5,24.9 101.9,26.6 101.5,28.4 C100.8,31.8 101.1,35.2 101.3,38.6 C101.3,39.2 101.6,39.5 102.3,39.4 C104,39.3 105.7,39.3 107.4,39.3 C108.1,39.3 108.3,39 108.2,38.5 C108.1,37.6 108,36.7 108,35.8 C107.7,31.2 108.4,26.8 110.1,22.5 C111,20.1 112.8,18.9 115.3,18.8 C116,18.8 116.7,18.7 117.3,18.7 C117.8,18.7 118,18.4 118.1,17.9 C118.4,16.4 118.7,15 119.1,13.6 C119.2,13.1 119.1,12.9 118.5,12.9 C118,13 117.5,13 116.9,13 C115.2,13.2 113.6,13.7 112.2,14.8 C111.6,15.7 111.1,16.3 110.5,16.8 Z" id="Shape" fill="#FFFFFF"></path>
                    <path d="M64.5,28.3 C64.7,24.3 65.2,20.3 66.4,16.4 C67.1,14.2 68.4,12.5 70.1,11.1 C72.8,8.7 76,6.9 79.5,5.9 C83.2,4.7 87.1,4 91,4.2 C92.5,4.3 94.1,4.5 95.5,5.2 C96.9,5.9 97.6,7.1 98.2,8.4 C98.8,9.8 98.6,11.3 98.5,12.7 C98.4,13.7 98.3,14.8 98.3,15.8 C98.2,19.7 97.2,23.5 95.4,27 C94.3,29.2 93.4,31.5 92.3,33.7 C90.5,37.6 87.4,39.7 83.4,40.6 C80.4,41.2 77.3,41.2 74.3,40.5 C71.5,39.9 69,38.5 67.2,36.2 C65.2,33.9 64.3,31.3 64.5,28.3 Z M90.7,14.7 C90.7,13.6 90.7,12.7 90.7,11.9 C90.7,10.4 89.7,9.1 88.2,8.7 C84.5,7.9 81.2,8.8 78.1,10.9 C76.1,12.3 74.6,14.1 74,16.5 C73.6,17.9 73.3,19.3 73,20.7 C72.7,22.1 72.4,23.5 72.3,24.9 C72.2,26.4 72.2,27.9 72.3,29.4 C72.4,30.9 72.9,32.4 73.9,33.5 C75.9,35.6 78.5,35.8 81.2,35.1 C83.4,34.6 84.7,32.9 85.6,31 C86.9,28.5 88.1,25.9 89.3,23.3 C89.8,22.2 90.1,20.9 90.2,19.7 C90.5,18 90.6,16.2 90.7,14.7 Z" id="Shape" fill="#000000"></path>
                    <path d="M26.7,4 C29.4,4.2 32,4.3 34.7,4.5 C36,4.6 37.2,5 38.1,6.1 C39.3,7.5 39.3,9.1 38.7,10.7 C37.9,12.8 37.1,14.9 36.2,16.9 C34.8,20.1 32.2,22.2 29,23.5 C26.9,24.3 24.8,24.7 22.6,24.7 C21.4,24.7 20.3,24.8 19.1,24.7 C18.3,24.7 17.9,24.9 17.8,25.8 C17.6,27.2 17,28.6 16.9,30 C16.7,32.5 16.8,35.1 16.8,37.7 C16.8,38.9 17,40.1 17.1,41.3 C17.1,41.7 17,41.9 16.5,41.9 C14.6,41.9 12.7,42 10.9,42.1 C10.2,42.1 10,41.8 10,41.2 C9.9,38.7 9.7,36.2 9.6,33.8 C9.4,31 10.3,28.3 10.9,25.6 C11.5,23 12,20.3 12.5,17.7 C13.1,15 14,12.5 15.7,10.4 C16.7,9.1 17.5,7.7 18.5,6.5 C19.1,5.8 19.8,5.1 20.5,4.5 C20.7,4.3 21,4.3 21.3,4.3 C23,4.1 24.9,4.1 26.7,4 C26.7,4 26.7,4 26.7,4 Z M26,9.2 C26,9.3 26,9.3 26,9.2 C25.7,9.3 25.5,9.3 25.2,9.3 C23.8,9.1 22.9,9.6 22.1,10.8 C20.6,13 20,15.4 19.5,17.9 C19.5,18.1 19.8,18.6 19.9,18.6 C21.8,18.6 23.7,18.6 25.6,18.3 C26.9,18.1 28.2,17.4 28.8,16.1 C29.5,14.7 30.1,13.2 30.5,11.7 C30.9,10.3 30.2,9.5 28.8,9.3 C27.8,9.3 26.9,9.3 26,9.2 Z" id="Shape" fill="#000000"></path>
                    <path d="M129.7,22.3 C131,20.8 132.2,19.3 133.6,17.9 C135,16.4 136.4,15 137.8,13.6 C138,13.4 138.3,13.3 138.6,13.2 C140.8,13.2 142.9,13.2 145.1,13.2 C145.2,13.2 145.4,13.3 145.7,13.4 C145.1,13.9 144.6,14.3 144.1,14.8 C141.5,17.4 138.9,20.1 136.3,22.7 C135.9,23.1 135.9,23.5 136,24 C136.7,26.2 137.2,28.4 138.1,30.6 C139,32.8 140.2,34.8 141.3,36.9 C141.6,37.5 142.1,38.1 142.5,38.7 C142.2,38.8 142,38.8 141.8,38.8 C139.7,38.9 137.6,38.9 135.5,39 C134.8,39 134.4,38.8 134.1,38.2 C133.1,36.1 131.9,34 131,31.9 C130.4,30.4 130.2,28.8 129.8,27.2 C129.6,26.3 129.4,25.4 129,24.5 C128.9,24.8 128.7,25.1 128.6,25.4 C127.6,28.9 127.1,32.5 127.4,36.2 C127.5,37 127.6,37.8 127.6,38.6 C127.6,39 127.5,39.2 127,39.2 C125.1,39.2 123.3,39.3 121.4,39.4 C120.8,39.4 120.5,39.2 120.5,38.5 C120.5,37.1 120.3,35.6 120.3,34.2 C120.2,32 120.6,29.8 121.1,27.6 C121.7,25.1 122.4,22.6 122.7,20 C123.3,15.4 125,11.3 127.7,7.6 C128.1,7 128.7,6.5 129.1,6 C129.6,5.4 130.1,5.3 130.8,5.3 C132.5,5.3 134.2,5.3 135.8,5.3 C136,5.3 136.1,5.3 136.6,5.4 C131.8,10.2 129.7,16 129.4,22.4 C129.6,22.2 129.7,22.3 129.7,22.3 Z" id="Shape" fill="#000000"></path>
                    <path d="M55.6,4.4 C54.6,5.5 53.6,6.4 52.9,7.4 C50.7,10.4 48.9,13.6 48.3,17.4 C47.9,20.4 47.1,23.3 46.4,26.2 C45.8,28.9 45.2,31.6 45.3,34.3 C45.3,35 45.7,35.1 46.3,35.1 C50.5,35 54.7,34.9 58.9,34.7 C60.1,34.7 60,34.6 60.1,35.8 C60.2,37.2 60.3,38.6 60.4,39.9 C60.5,40.5 60.2,40.6 59.7,40.7 C57.8,40.7 55.9,40.8 54,40.8 C49.3,40.9 44.5,41 39.8,41.1 C38.7,41.1 38.6,41.1 38.5,40 C38.2,36.6 37.8,33.3 38.4,29.9 C38.6,28.4 39.1,27 39.4,25.6 C40,22.9 40.6,20.3 41.1,17.6 C41.5,15.2 42.2,13 43.5,10.9 C44.8,8.8 46,6.8 47.9,5.1 C48.4,4.6 49,4.3 49.7,4.4 C51.6,4.5 53.5,4.4 55.6,4.4 Z" id="Shape" fill="#000000"></path>
                    <path d="M110.5,16.8 C111.1,16.3 111.6,15.7 112.2,15.2 C113.5,14.1 115.1,13.5 116.9,13.4 C117.4,13.4 117.9,13.3 118.5,13.3 C119.1,13.2 119.2,13.4 119.1,14 C118.7,15.4 118.4,16.9 118.1,18.3 C118,18.8 117.8,19 117.3,19.1 C116.6,19.2 115.9,19.2 115.3,19.2 C112.8,19.4 111,20.5 110.1,22.9 C108.4,27.2 107.7,31.6 108,36.2 C108.1,37.1 108.2,38 108.2,38.9 C108.2,39.5 108,39.7 107.4,39.7 C105.7,39.7 104,39.7 102.3,39.8 C101.7,39.8 101.4,39.6 101.3,39 C101.2,35.6 100.8,32.1 101.5,28.8 C101.9,27 102.4,25.3 102.9,23.5 C103.2,22.2 103.4,20.9 103.6,19.7 C103.9,18.1 104.1,16.5 104.3,14.9 C104.4,14.2 104.7,13.8 105.5,13.9 C107,14 108.5,13.9 110,13.9 C110.2,13.9 110.4,14 110.7,14 C110.5,15.1 110.4,16.1 110.2,17.1 C110.3,16.8 110.4,16.8 110.5,16.8 Z" id="Shape" fill="#000000"></path>
                    <path d="M90.7,14.7 C90.6,16.2 90.5,18 90.3,19.7 C90.1,20.9 89.8,22.2 89.4,23.3 C88.3,25.9 87,28.5 85.7,31 C84.7,32.9 83.5,34.5 81.3,35.1 C78.6,35.8 76.1,35.6 74,33.5 C72.9,32.4 72.5,30.9 72.4,29.4 C72.3,27.9 72.3,26.4 72.4,24.9 C72.5,23.5 72.8,22.1 73.1,20.7 C73.4,19.3 73.7,17.9 74.1,16.5 C74.7,14.1 76.2,12.3 78.2,10.9 C81.3,8.8 84.6,7.8 88.3,8.7 C89.8,9 90.8,10.3 90.8,11.9 C90.7,12.8 90.7,13.6 90.7,14.7 Z" id="Shape" fill="#FFFFFF"></path>
                    <path d="M26,9.2 C26.9,9.3 27.8,9.3 28.7,9.4 C30.2,9.6 30.8,10.4 30.4,11.8 C30,13.3 29.3,14.7 28.7,16.2 C28.1,17.5 26.9,18.2 25.5,18.4 C23.6,18.6 21.7,18.6 19.8,18.7 C19.7,18.7 19.4,18.2 19.4,18 C19.8,15.5 20.5,13.1 22,10.9 C22.8,9.7 23.8,9.2 25.1,9.4 C25.5,9.3 25.7,9.3 26,9.2 C26,9.3 26,9.3 26,9.2 Z" id="Shape" fill="#FFFFFF"></path>
                </g>
            </g>
        </g>
    </g>
</svg>