<?xml version="1.0" encoding="UTF-8"?>
<svg width="95px" height="66px" viewBox="0 0 95 66" version="1.1" xmlns="http://www.w3.org/2000/svg" xmlns:xlink="http://www.w3.org/1999/xlink">
    <!-- Generator: Sketch 49.3 (51167) - http://www.bohemiancoding.com/sketch -->
    <title>mHY2rF_1_</title>
    <desc>Created with Sketch.</desc>
    <defs></defs>
    <g id="Page-1" stroke="none" stroke-width="1" fill="none" fill-rule="evenodd">
        <g id="plork-logos" transform="translate(-967.000000, -1.000000)" fill-rule="nonzero">
            <g id="mHY2rF_1_" transform="translate(967.000000, 1.000000)">
                <g id="Group">
                    <path d="M0.4,65.8 C0.4,44.1 0.4,22.4 0.4,0.7 C31.7,0.7 63,0.7 94.3,0.7 C94.3,22.4 94.3,44.1 94.3,65.8 C63,65.8 31.7,65.8 0.4,65.8 Z M70,25.9 C69.9,25.3 69.9,24.7 69.8,24.2 C69.5,22.7 68.9,21.3 68.1,19.9 C67.1,18.2 65.7,16.8 64.2,15.6 C62.4,14.1 60.4,12.9 58.3,11.8 C56.5,10.8 54.7,10 52.9,9.1 C51.5,8.4 50.2,7.8 48.8,7.2 C47.4,6.6 45.9,6 44.5,5.4 C42.7,4.7 40.8,3.9 38.9,3.6 C38.2,3.5 37.5,3.4 36.8,3.5 C36.3,3.5 36.1,3.9 36.3,4.4 C36.3,4.5 36.4,4.7 36.5,4.8 C37.3,5.6 38.1,6.5 39,7.2 C40.1,8.1 41.2,8.9 42.4,9.7 C44.3,11.1 46.3,12.4 48.2,13.8 C49.5,14.7 50.7,15.8 51.8,17 C53.4,18.8 54.4,20.8 54.7,23.2 C55,25.5 54.7,27.7 54,29.8 C53.6,31.1 53.1,32.4 52.6,33.6 C52.1,34.9 51.7,36.3 51.2,37.6 C50.8,38.6 50.2,39.5 49.7,40.4 C48.6,42.4 47.5,44.4 46.3,46.3 C45,48.4 43.8,50.5 43,52.9 C42.4,54.7 42.1,56.5 42.4,58.4 C42.6,59.7 43.3,60.8 44.5,61.3 C45.4,61.7 46.3,61.8 47.3,61.8 C48.9,61.8 50.4,61.3 51.8,60.5 C53.4,59.6 54.6,58.3 55.6,56.8 C56.7,55.1 57.8,53.3 58.8,51.6 C59.5,50.4 60.2,49.2 61,48 C61.7,46.8 62.5,45.5 63.2,44.2 C63.9,42.8 64.6,41.4 65.3,40 C65.8,39.1 66.3,38.1 66.8,37.2 C67.4,35.9 67.8,34.6 68.3,33.3 C68.5,32.7 68.8,32 69,31.4 C69.2,30.8 69.4,30.1 69.6,29.5 C69.8,28.3 70,27.1 70,25.9 Z M5.3,4.1 C5.3,4.1 5.3,4.2 5.3,4.2 C5.4,4.3 5.5,4.4 5.6,4.5 C8.3,6.1 11.1,7.7 13.8,9.2 C15.4,10.1 17,11 18.5,11.9 C20.9,13.4 23.2,15 25.1,17.1 C26.3,18.5 27.2,20 27.8,21.7 C28.1,22.7 28.3,23.8 28.5,24.9 C28.7,26.2 28.7,27.5 28.3,28.7 C27.8,30.2 27.3,31.8 26.8,33.3 C26.2,35 25.6,36.7 24.7,38.2 C23.9,39.5 23.2,40.9 22.5,42.2 C21.5,44 20.4,45.7 19.4,47.4 C18.5,48.9 17.7,50.3 16.9,51.8 C16.2,53.2 15.6,54.6 15.1,56.1 C14.6,57.5 14.1,58.8 13.5,60.2 C13.4,60.6 13.4,60.7 13.8,60.7 C14.4,60.7 15.1,60.7 15.7,60.7 C16.4,60.8 16.9,60.6 17.1,59.8 C17.1,59.7 17.2,59.6 17.2,59.4 C17.7,58.1 18.1,56.9 18.6,55.6 C19.3,54 20,52.5 20.7,50.9 C21,50.3 21.3,50 22,50.1 C22.1,50.1 22.3,50.1 22.5,50.1 C24.2,50.3 25.8,50 27.2,49.2 C29.4,47.9 31.3,46.3 32.8,44.2 C33.9,42.5 34.9,40.7 35.9,39 C36.5,37.8 37.1,36.6 37.6,35.4 C38.1,34.2 38.5,33 38.9,31.9 C39.3,30.7 39.7,29.5 40.1,28.2 C40.7,26.3 40.4,24.5 39.9,22.7 C39.2,20.3 37.9,18.2 36,16.5 C34.3,14.9 32.4,13.5 30.3,12.3 C28.5,11.3 26.7,10.3 24.8,9.4 C23.2,8.6 21.5,7.8 19.8,7 C17.9,6.2 16,5.5 14.1,4.8 C12.6,4.2 11,3.9 9.3,3.9 C8.4,3.9 7.4,3.9 6.5,3.9 C6.1,4.1 5.7,4.1 5.3,4.1 Z M75.7,49.5 C75.6,49.5 75.6,49.4 75.5,49.4 C75.6,49.3 75.6,49.1 75.7,49 C76.3,48 76.8,47.1 77.4,46.1 C78.2,44.8 78.9,43.5 79.7,42.2 C80.3,41.1 80.8,40 81.3,38.9 C81.9,37.8 82.3,36.7 82.6,35.5 C82.9,34.5 83.1,33.5 83.5,32.5 C84.1,30.7 85,29 85.3,27.1 C85.5,26 85.5,24.8 85.5,23.7 C85.4,22.8 85.1,21.9 84.8,21 C84.4,19.8 83.8,18.8 83,17.8 C82,16.5 80.8,15.5 79.5,14.5 C77.7,13.1 75.8,11.9 73.8,10.8 C72.1,9.8 70.4,8.9 68.8,7.9 C67.2,7 65.5,6 63.9,5 C63.4,4.7 62.9,4.4 62.3,4.4 C61.6,4.4 60.9,4.4 60.2,4.4 C60.1,4.4 60,4.4 59.7,4.5 C59.9,4.6 59.9,4.7 60,4.8 C62,6 64.1,7.2 66.2,8.4 C68.7,9.8 71.1,11.3 73.6,12.8 C75.4,13.9 77,15.2 78.6,16.6 C80.5,18.4 81.7,20.5 82.2,23.1 C82.6,25.1 82.3,27.1 81.6,29.1 C80.9,31.1 80.2,33.1 79.6,35 C79.4,35.4 79.4,35.9 79.2,36.4 C78.8,37.5 78.4,38.5 77.8,39.6 C76.8,41.6 75.7,43.6 74.6,45.5 C73.8,46.9 73,48.2 72.2,49.5 C71.4,51 70.5,52.6 69.8,54.2 C69.1,55.8 68.6,57.5 67.9,59.2 C67.6,59.9 67.4,60.6 67,61.5 C68.1,61.5 69.1,61.5 70.1,61.5 C70.2,61.5 70.3,61.4 70.4,61.3 C70.6,60.9 70.7,60.5 70.8,60.2 C71.2,59.1 71.6,58 72,57 C72.6,55.4 73.3,53.8 74,52.1 C74,52 74.1,52 74.2,51.9 C74.2,51.9 74.3,51.9 74.3,51.9 C74.3,52.2 74.2,52.5 74.2,52.8 C74.1,53.4 73.9,54.1 73.9,54.7 C73.7,56.9 73.7,59 73.8,61.2 C73.8,61.5 73.9,61.6 74.2,61.6 C75.2,61.6 76.3,61.6 77.3,61.6 C77.6,61.6 77.7,61.5 77.7,61.2 C77.6,60.5 77.6,59.9 77.5,59.2 C77.3,56.6 77.3,54 77.9,51.4 C78,50.9 78.1,50.4 78.5,50 C80.1,48.4 81.7,46.7 83.3,45 C84.7,43.5 85.8,41.9 86.7,40.1 C87.4,38.6 87.8,37.1 87.4,35.4 C87,34 87.3,32.6 88,31.3 C88.8,29.7 89.6,28.1 90.3,26.5 C90.8,25.3 91.3,24.2 91.4,22.9 C91.5,21.6 91.4,20.4 90.9,19.2 C90.7,18.8 90.5,18.7 90,18.7 C89.3,18.8 88.5,18.9 87.8,18.9 C87.2,18.9 87.2,19 87.3,19.6 C87.5,20.4 87.7,21.3 87.8,22.2 C87.9,23.8 87.5,25.3 86.8,26.8 C86.2,28.1 85.6,29.4 84.9,30.6 C84.1,32.2 83.6,33.9 83.9,35.8 C84,36.5 84,37.4 83.8,38.1 C83.1,40.5 81.7,42.6 80.2,44.5 C79,45.9 77.7,47.2 76.5,48.5 C76.3,48.9 76,49.2 75.7,49.5 Z M27.2,61.1 C27.5,61.1 27.8,61.1 28.1,61.1 C31.2,61.1 34.4,61.2 37.5,61.2 C37.6,61.2 37.8,61.1 37.9,61 C38.3,60 38.7,59 39.1,58 C39.3,57.4 39.3,57.4 38.7,57.4 C36.7,57.4 34.7,57.3 32.7,57.3 C32.3,57.3 32.2,57.2 32.4,56.8 C33,55.3 33.6,53.7 34.3,52.3 C35.1,50.6 36.1,49 37.1,47.3 C37.8,46.1 38.5,44.9 39.2,43.7 C39.9,42.5 40.5,41.3 41.1,40.1 C42.3,38 43.4,35.8 44.2,33.4 C44.7,31.9 45.2,30.5 45.6,29 C46,27.7 46.2,26.4 46,25.1 C45.8,23.7 45.5,22.3 45,21 C44.5,19.7 43.8,18.6 42.9,17.5 C41.6,16 40.1,14.7 38.4,13.6 C36.5,12.4 34.7,11.2 32.7,10.1 C30.9,9 29.1,8.1 27.3,7 C25.8,6.2 24.4,5.3 23,4.5 C22.7,4.4 22.4,4.3 22.1,4.2 C21.3,4.1 20.4,4.1 19.6,4.1 C19.5,4.1 19.5,4.2 19.3,4.2 C19.5,4.3 19.6,4.4 19.7,4.5 C20.9,5.2 22.1,6 23.4,6.7 C25.6,7.9 27.7,9.2 29.9,10.4 C32.2,11.7 34.6,13.1 36.7,14.8 C38,15.8 39.2,17 40.2,18.3 C41,19.4 41.5,20.5 42,21.8 C42.4,23 42.6,24.2 42.7,25.4 C42.8,27 42.5,28.5 42,30 C41.5,31.5 41,33 40.4,34.5 C39.9,35.7 39.5,36.8 38.9,37.9 C38.3,39.1 37.6,40.3 37,41.5 C36.4,42.5 35.9,43.6 35.3,44.6 C34.3,46.4 33.1,48.1 32.1,49.9 C31.3,51.4 30.5,52.9 29.9,54.5 C28.7,56.7 28,58.8 27.2,61.1 Z M76,26.1 C75.9,26.1 75.9,26.1 75.8,26.1 C75.8,25.8 75.8,25.4 75.8,25.1 C75.8,23.9 75.6,22.8 75.1,21.7 C75,21.5 74.9,21.3 74.6,21.3 C73.9,21.4 73.2,21.5 72.5,21.5 C72.2,21.5 72.1,21.7 72.1,21.9 C72.1,22 72.2,22.2 72.2,22.3 C72.6,23.6 72.8,24.9 72.6,26.3 C72.4,28.2 71.8,29.9 71.1,31.6 C70.7,32.6 70.4,33.6 70,34.6 C69.7,35.5 69.5,36.4 69.1,37.3 C68.6,38.3 68.1,39.3 67.6,40.3 C66.3,42.6 65.1,44.9 63.8,47.2 C63.1,48.4 62.4,49.5 61.7,50.7 C60.4,53.1 59.5,55.6 58.6,58.1 C58.3,59 58,59.9 57.6,60.7 C57.4,61.2 57.4,61.2 57.9,61.2 C58.7,61.2 59.5,61.2 60.3,61.2 C60.6,61.2 60.8,61.1 60.9,60.8 C61.2,59.8 61.6,58.9 62,57.9 C62.8,55.7 63.5,53.5 64.7,51.4 C65.4,50.1 66.2,48.9 67.2,47.8 C68.2,46.8 69.3,46.2 70.8,46.3 C71,46.3 71.2,46.2 71.3,46 C71.8,45.3 72.3,44.6 72.7,43.8 C73.3,42.7 73.9,41.6 74.5,40.4 C75.5,38.4 76.5,36.4 77,34.3 C77.2,33.5 77.1,33.5 76.3,33.6 C75.6,33.8 75.2,33.5 75.3,32.7 C75.4,32.2 75.6,31.6 75.8,31.1 C76,30.5 76.4,30 77,29.8 C77.2,29.7 77.5,29.7 77.6,29.7 C77.9,29.8 78.2,29.8 78.4,29.5 C78.6,29.2 78.8,28.9 78.9,28.5 C79.3,26.8 79.7,25.2 79.4,23.4 C79.2,22.3 79,21.3 78.5,20.3 C78.4,20.1 78.3,19.7 77.9,19.9 C77.6,20 77.2,20.3 77,20.6 C76.7,21.1 76.6,21.8 76.4,22.3 C76.2,23.2 76,24 75.8,24.9 C76.1,25.5 76,25.8 76,26.1 Z" id="Shape" fill="#FFFFFF"></path>
                    <path d="M70,25.9 C70,27.1 69.8,28.3 69.4,29.4 C69.2,30 69,30.7 68.8,31.3 C68.6,32 68.3,32.6 68.1,33.2 C67.6,34.5 67.1,35.8 66.6,37.1 C66.2,38.1 65.6,39 65.1,39.9 C64.4,41.3 63.7,42.7 63,44.1 C62.3,45.4 61.5,46.6 60.8,47.9 C60.1,49.1 59.4,50.3 58.6,51.5 C57.5,53.2 56.5,55 55.4,56.7 C54.4,58.2 53.2,59.5 51.6,60.4 C50.2,61.2 48.7,61.7 47.1,61.7 C46.1,61.7 45.2,61.6 44.3,61.2 C43,60.6 42.4,59.6 42.2,58.3 C41.9,56.4 42.2,54.6 42.8,52.8 C43.6,50.4 44.8,48.3 46.1,46.2 C47.3,44.3 48.4,42.3 49.5,40.3 C50,39.4 50.6,38.5 51,37.5 C51.6,36.2 52,34.8 52.4,33.5 C52.8,32.2 53.3,30.9 53.8,29.7 C54.5,27.6 54.9,25.3 54.5,23.1 C54.2,20.8 53.2,18.7 51.6,16.9 C50.5,15.7 49.3,14.6 48,13.7 C46.1,12.3 44.1,11 42.2,9.6 C41.1,8.8 39.9,8 38.8,7.1 C37.9,6.4 37.1,5.5 36.3,4.7 C36.2,4.6 36.2,4.5 36.1,4.3 C35.9,3.8 36.1,3.4 36.6,3.4 C37.3,3.4 38,3.4 38.7,3.5 C40.6,3.9 42.5,4.6 44.3,5.3 C45.7,5.9 47.2,6.4 48.6,7.1 C50,7.7 51.3,8.4 52.7,9 C54.5,9.9 56.4,10.8 58.1,11.7 C60.2,12.8 62.2,14 64,15.5 C65.5,16.8 66.9,18.1 67.9,19.8 C68.7,21.1 69.3,22.5 69.6,24.1 C69.9,24.7 69.9,25.3 70,25.9 Z M46,55.4 C46,55.8 46,56.1 46.1,56.5 C46.2,57.3 46.8,58 47.5,58.2 C48.7,58.5 49.8,58.1 50.8,57.3 C51.8,56.6 52.4,55.6 53,54.6 C54.3,52.6 55.5,50.6 56.7,48.6 C57.5,47.3 58.3,46.1 59,44.8 C60,43 60.9,41.2 61.8,39.4 C62.5,38.1 63.1,36.7 63.7,35.3 C64.2,34.1 64.6,33 65,31.8 C65.4,30.6 65.8,29.5 66.1,28.3 C66.6,26.3 66.4,24.4 65.6,22.4 C64.9,20.6 63.8,19 62.5,17.6 C61.4,16.5 60.2,15.6 59,14.7 C56.7,13.1 54.2,11.8 51.5,10.9 C51,10.7 50.4,10.6 49.8,10.6 C49.6,10.6 49.4,10.7 49.3,10.8 C49.3,10.8 49.4,11.1 49.5,11.2 C49.6,11.3 49.7,11.4 49.7,11.5 C50.8,12.5 52,13.6 53.1,14.5 C54.2,15.5 55.3,16.5 56.2,17.8 C56.9,18.8 57.5,19.9 57.9,21.1 C58.4,22.9 58.6,24.7 58.3,26.5 C58.1,28 57.7,29.4 57.2,30.8 C56.4,33 55.7,35.2 54.8,37.3 C54.2,38.7 53.4,40.1 52.7,41.5 C52.1,42.7 51.4,43.8 50.7,44.9 C49.5,46.8 48.3,48.7 47.3,50.8 C46.7,52.2 46.1,53.7 46,55.4 Z" id="Shape" fill="#000000"></path>
                    <path d="M5.3,4.1 C5.7,4.1 6.2,4.1 6.6,4.1 C7.5,4.1 8.5,4.2 9.4,4.1 C11.1,4 12.6,4.4 14.2,5 C16.1,5.7 18,6.4 19.9,7.2 C21.6,7.9 23.2,8.7 24.9,9.6 C26.7,10.5 28.6,11.5 30.4,12.5 C32.5,13.7 34.4,15.1 36.1,16.7 C38,18.4 39.2,20.5 40,22.9 C40.5,24.7 40.8,26.6 40.2,28.4 C39.8,29.6 39.4,30.8 39,32.1 C38.6,33.3 38.2,34.5 37.7,35.6 C37.2,36.8 36.6,38.1 36,39.2 C35,41 34,42.8 32.9,44.4 C31.5,46.5 29.5,48.2 27.3,49.4 C25.8,50.2 24.3,50.5 22.6,50.3 C22.4,50.3 22.3,50.3 22.1,50.3 C21.4,50.2 21.1,50.5 20.8,51.1 C20.1,52.7 19.4,54.2 18.7,55.8 C18.2,57 17.8,58.3 17.3,59.6 C17.3,59.7 17.2,59.8 17.2,60 C17,60.8 16.5,61 15.8,60.9 C15.2,60.8 14.5,60.9 13.9,60.9 C13.5,60.9 13.4,60.8 13.6,60.4 C14.1,59 14.6,57.6 15.2,56.3 C15.8,54.9 16.3,53.4 17,52 C17.8,50.5 18.6,49 19.5,47.6 C20.5,45.8 21.6,44.1 22.6,42.4 C23.4,41.1 24.1,39.7 24.8,38.4 C25.7,36.8 26.4,35.2 26.9,33.5 C27.4,32 27.9,30.5 28.4,28.9 C28.8,27.7 28.8,26.4 28.6,25.1 C28.4,24 28.2,22.9 27.9,21.9 C27.3,20.2 26.5,18.6 25.2,17.3 C23.3,15.2 21,13.6 18.6,12.1 C17.1,11.1 15.5,10.3 13.9,9.4 C11.2,7.8 8.4,6.2 5.7,4.7 C5.6,4.6 5.5,4.5 5.4,4.4 C5.2,4.2 5.2,4.2 5.3,4.1 Z M36.5,26.3 C36.5,26.3 36.6,26.3 36.6,26.3 C36.4,25.3 36.3,24.3 36.1,23.4 C35.4,21.1 34.1,19.2 32.4,17.5 C31.1,16.2 29.6,15.2 27.8,14.7 C27.5,14.6 27.3,14.6 27.1,14.9 C26.8,15.5 26.8,15.5 27.2,16 C27.3,16.2 27.5,16.3 27.7,16.5 C29.4,18.1 30.6,20.1 31.3,22.3 C31.5,23.1 31.6,23.9 31.8,24.7 C32,25.8 32,26.9 31.8,28.1 C31.6,29.1 31.4,30.1 31,31 C30.3,33 29.5,35 28.6,36.9 C27.7,38.8 26.7,40.6 25.7,42.4 C25.2,43.3 24.7,44.2 24.2,45.1 C24.1,45.3 24.1,45.5 24.4,45.5 C24.7,45.5 25,45.6 25.2,45.5 C25.8,45.4 26.5,45.5 27.1,45.3 C28.2,44.9 29,44.1 29.6,43.1 C30.2,42.2 30.8,41.3 31.3,40.3 C31.9,39.3 32.5,38.3 32.9,37.3 C33.3,36.4 33.5,35.5 33.8,34.5 C34.3,33.1 34.8,31.8 35.3,30.4 C36,29 36.7,27.8 36.5,26.3 Z" id="Shape" fill="#000000"></path>
                    <path d="M75.7,49.5 C76,49.2 76.3,48.8 76.6,48.5 C77.8,47.2 79.1,45.9 80.3,44.5 C81.9,42.6 83.3,40.5 83.9,38.1 C84.1,37.4 84.1,36.5 84,35.8 C83.7,33.9 84.2,32.2 85,30.6 C85.6,29.3 86.3,28.1 86.9,26.8 C87.5,25.3 88,23.8 87.9,22.2 C87.8,21.3 87.6,20.5 87.4,19.6 C87.3,19 87.3,19 87.9,18.9 C88.6,18.8 89.4,18.8 90.1,18.7 C90.6,18.6 90.8,18.7 91,19.2 C91.5,20.4 91.5,21.6 91.5,22.9 C91.4,24.2 91,25.4 90.4,26.5 C89.6,28.1 88.8,29.7 88.1,31.3 C87.5,32.6 87.2,34 87.5,35.4 C87.9,37.1 87.5,38.6 86.8,40.1 C85.9,41.9 84.8,43.6 83.4,45 C81.8,46.7 80.2,48.3 78.6,50 C78.2,50.4 78.1,50.9 78,51.4 C77.5,54 77.4,56.6 77.6,59.2 C77.7,59.9 77.7,60.5 77.8,61.2 C77.8,61.5 77.7,61.6 77.4,61.6 C76.4,61.6 75.3,61.6 74.3,61.6 C74,61.6 73.9,61.5 73.9,61.2 C73.8,59 73.8,56.9 74,54.7 C74.1,54.1 74.2,53.4 74.3,52.8 C74.3,52.5 74.4,52.2 74.4,51.9 C74.4,51.9 74.3,51.9 74.3,51.9 C74.2,52 74.2,52 74.1,52.1 C73.4,53.7 72.7,55.3 72.1,57 C71.7,58.1 71.3,59.2 70.9,60.2 C70.8,60.6 70.6,61 70.5,61.3 C70.5,61.4 70.3,61.5 70.2,61.5 C69.2,61.5 68.2,61.5 67.1,61.5 C67.4,60.7 67.7,59.9 68,59.2 C68.6,57.5 69.1,55.8 69.9,54.2 C70.6,52.6 71.4,51 72.3,49.5 C73,48.1 73.9,46.8 74.7,45.5 C75.8,43.5 76.9,41.6 77.9,39.6 C78.4,38.6 78.8,37.5 79.3,36.4 C79.5,36 79.5,35.5 79.7,35 C80.4,33 81.1,31 81.7,29.1 C82.4,27.1 82.7,25.1 82.3,23.1 C81.8,20.6 80.6,18.4 78.7,16.6 C77.2,15.1 75.5,13.9 73.7,12.8 C71.3,11.3 68.8,9.9 66.3,8.4 C64.3,7.2 62.2,6 60.1,4.8 C60,4.8 60,4.7 59.8,4.5 C60,4.5 60.2,4.4 60.3,4.4 C61,4.4 61.7,4.4 62.4,4.4 C63,4.4 63.5,4.7 64,5 C65.6,6 67.3,6.9 68.9,7.9 C70.6,8.9 72.3,9.8 73.9,10.8 C75.9,11.9 77.8,13.1 79.6,14.5 C80.9,15.5 82.1,16.5 83.1,17.8 C83.9,18.8 84.6,19.8 84.9,21 C85.2,21.9 85.5,22.8 85.6,23.7 C85.7,24.8 85.6,26 85.4,27.1 C85.1,29 84.3,30.7 83.6,32.5 C83.3,33.5 83,34.5 82.7,35.5 C82.4,36.7 82,37.8 81.4,38.9 C80.8,40 80.4,41.1 79.8,42.2 C79.1,43.5 78.3,44.8 77.5,46.1 C76.9,47.1 76.4,48 75.8,49 C75.7,49.1 75.7,49.3 75.6,49.4 C75.6,49.4 75.6,49.5 75.7,49.5 Z" id="Shape" fill="#000000"></path>
                    <path d="M27.2,61.1 C28,58.9 28.8,56.7 29.6,54.7 C30.3,53.1 31,51.6 31.8,50.1 C32.8,48.3 33.9,46.6 35,44.8 C35.6,43.8 36.1,42.7 36.7,41.7 C37.3,40.5 38,39.4 38.6,38.1 C39.2,37 39.6,35.8 40.1,34.7 C40.7,33.2 41.2,31.7 41.7,30.2 C42.2,28.7 42.5,27.2 42.4,25.6 C42.3,24.4 42.1,23.1 41.7,22 C41.2,20.8 40.7,19.6 39.9,18.5 C38.9,17.1 37.7,16 36.4,15 C34.3,13.3 32,11.9 29.6,10.6 C27.4,9.4 25.2,8.1 23.1,6.9 C21.9,6.2 20.7,5.5 19.4,4.7 C19.3,4.6 19.2,4.5 19,4.4 C19.2,4.3 19.2,4.3 19.3,4.3 C20.1,4.3 21,4.3 21.8,4.4 C22.1,4.4 22.4,4.5 22.7,4.7 C24.2,5.5 25.6,6.4 27,7.2 C28.8,8.2 30.7,9.2 32.4,10.3 C34.3,11.4 36.2,12.6 38.1,13.8 C39.8,14.9 41.3,16.2 42.6,17.7 C43.5,18.7 44.2,19.9 44.7,21.2 C45.2,22.5 45.6,23.9 45.7,25.3 C45.9,26.7 45.7,28 45.3,29.2 C44.9,30.7 44.4,32.2 43.9,33.6 C43.1,35.9 42,38.1 40.8,40.3 C40.1,41.5 39.5,42.7 38.9,43.9 C38.2,45.1 37.5,46.3 36.8,47.5 C35.9,49.1 34.9,50.8 34,52.5 C33.3,54 32.7,55.5 32.1,57 C31.9,57.4 32,57.5 32.4,57.5 C34.4,57.5 36.4,57.6 38.4,57.6 C39,57.6 39,57.6 38.8,58.2 C38.4,59.2 38,60.2 37.6,61.2 C37.6,61.3 37.4,61.4 37.2,61.4 C34.1,61.4 30.9,61.4 27.8,61.3 C27.8,61.1 27.5,61.1 27.2,61.1 Z" id="Shape" fill="#000000"></path>
                    <path d="M76,26.1 C76.1,25.8 76.2,25.5 76.2,25.2 C76.4,24.3 76.6,23.5 76.8,22.6 C76.9,22 77.1,21.4 77.4,20.9 C77.6,20.6 77.9,20.4 78.3,20.2 C78.6,20.1 78.8,20.4 78.9,20.6 C79.4,21.6 79.6,22.6 79.8,23.7 C80.1,25.4 79.7,27.1 79.3,28.8 C79.2,29.1 79,29.5 78.8,29.8 C78.6,30 78.4,30.1 78,30 C77.8,29.9 77.5,30 77.4,30.1 C76.8,30.4 76.4,30.9 76.2,31.4 C76,31.9 75.8,32.4 75.7,33 C75.6,33.8 75.9,34 76.7,33.9 C77.5,33.7 77.5,33.8 77.4,34.6 C76.9,36.8 75.9,38.8 74.9,40.7 C74.3,41.8 73.7,43 73.1,44.1 C72.7,44.9 72.2,45.6 71.7,46.3 C71.6,46.4 71.4,46.6 71.2,46.6 C69.8,46.5 68.6,47.1 67.6,48.1 C66.5,49.1 65.8,50.4 65.1,51.7 C64,53.8 63.2,56 62.4,58.2 C62.1,59.2 61.7,60.1 61.3,61.1 C61.2,61.4 61.1,61.5 60.7,61.5 C59.9,61.5 59.1,61.5 58.3,61.5 C57.8,61.5 57.8,61.5 58,61 C58.3,60.1 58.7,59.3 59,58.4 C59.9,55.9 60.8,53.4 62.1,51 C62.8,49.8 63.5,48.6 64.2,47.5 C65.5,45.2 66.7,42.9 68,40.6 C68.5,39.6 69.1,38.6 69.5,37.6 C69.9,36.7 70.1,35.8 70.4,34.9 C70.7,33.9 71.1,32.9 71.5,31.9 C72.1,30.2 72.8,28.4 73,26.6 C73.1,25.2 72.9,23.9 72.6,22.6 C72.6,22.5 72.5,22.4 72.5,22.2 C72.5,21.9 72.6,21.8 72.9,21.8 C73.6,21.7 74.3,21.7 75,21.6 C75.3,21.6 75.4,21.7 75.5,22 C76,23.1 76.1,24.3 76.2,25.4 C76.2,25.7 76.2,26.1 76.2,26.4 C75.9,26.1 75.9,26.1 76,26.1 Z M69.2,43.4 C69.3,43.4 69.3,43.5 69.4,43.5 C69.5,43.4 69.6,43.2 69.7,43.1 C70,42.6 70.3,42.2 70.6,41.7 C71.4,40.4 72.2,39.1 72.6,37.5 C72.6,37.4 72.6,37.2 72.6,37.1 C72.6,37.1 72.5,37.1 72.5,37.1 C71.4,39.1 70.3,41.3 69.2,43.4 Z" id="Shape" fill="#000000"></path>
                    <path d="M46,55.4 C46.1,53.7 46.7,52.2 47.4,50.7 C48.3,48.6 49.6,46.7 50.8,44.8 C51.5,43.7 52.1,42.5 52.8,41.4 C53.5,40 54.4,38.7 54.9,37.2 C55.8,35.1 56.5,32.9 57.3,30.7 C57.8,29.3 58.2,27.9 58.4,26.4 C58.7,24.6 58.5,22.8 58,21 C57.7,19.8 57.1,18.7 56.3,17.7 C55.4,16.5 54.4,15.4 53.2,14.4 C52,13.4 50.9,12.4 49.8,11.4 C49.7,11.3 49.6,11.2 49.6,11.1 C49.5,11 49.4,10.7 49.4,10.7 C49.5,10.6 49.7,10.5 49.9,10.5 C50.5,10.6 51.1,10.7 51.6,10.8 C54.3,11.7 56.8,13 59.1,14.6 C60.3,15.5 61.5,16.4 62.6,17.5 C64,18.9 65,20.5 65.7,22.3 C66.5,24.2 66.6,26.2 66.2,28.2 C65.9,29.4 65.5,30.5 65.1,31.7 C64.7,32.9 64.3,34.1 63.8,35.2 C63.2,36.6 62.6,37.9 61.9,39.3 C61,41.1 60.1,42.9 59.1,44.7 C58.4,46 57.6,47.3 56.8,48.5 C55.6,50.5 54.4,52.5 53.1,54.5 C52.5,55.5 51.8,56.5 50.9,57.2 C49.9,57.9 48.8,58.3 47.6,58.1 C46.8,57.9 46.2,57.2 46.2,56.4 C46,56.1 46,55.8 46,55.4 Z" id="Shape" fill="#FFFFFF"></path>
                    <path d="M36.5,26.3 C36.6,27.8 36,29.1 35.5,30.4 C35,31.8 34.5,33.1 34,34.5 C33.7,35.4 33.5,36.4 33.1,37.3 C32.6,38.3 32,39.3 31.5,40.3 C31,41.2 30.4,42.2 29.8,43.1 C29.2,44.1 28.4,44.9 27.3,45.3 C26.7,45.5 26,45.5 25.4,45.5 C25.1,45.5 24.8,45.5 24.6,45.5 C24.3,45.5 24.3,45.3 24.4,45.1 C24.9,44.2 25.4,43.3 25.9,42.4 C26.9,40.6 28,38.8 28.8,36.9 C29.7,35 30.4,33 31.2,31 C31.5,30.1 31.8,29.1 32,28.1 C32.2,27 32.2,25.9 32,24.7 C31.9,23.9 31.8,23.1 31.5,22.3 C30.8,20.1 29.6,18.1 27.9,16.5 C27.7,16.3 27.6,16.2 27.4,16 C27,15.5 26.9,15.5 27.3,14.9 C27.4,14.6 27.7,14.6 28,14.7 C29.8,15.2 31.3,16.2 32.6,17.5 C34.3,19.1 35.6,21.1 36.3,23.4 C36.6,24.3 36.7,25.3 36.8,26.3 C36.6,26.3 36.6,26.3 36.5,26.3 Z" id="Shape" fill="#FFFFFF"></path>
                    <path d="M69.2,43.4 C70.3,41.3 71.4,39.1 72.5,37 C72.5,37 72.6,37 72.6,37 C72.6,37.2 72.6,37.3 72.6,37.4 C72.2,38.9 71.4,40.3 70.6,41.6 C70.3,42.1 70,42.6 69.7,43 C69.6,43.1 69.5,43.3 69.4,43.4 C69.4,43.5 69.3,43.4 69.2,43.4 Z" id="Shape" fill="#FFFFFF"></path>
                </g>
            </g>
        </g>
    </g>
</svg>