<?xml version="1.0" encoding="UTF-8"?>
<svg width="101px" height="39px" viewBox="0 0 101 39" version="1.1" xmlns="http://www.w3.org/2000/svg" xmlns:xlink="http://www.w3.org/1999/xlink">
    <!-- Generator: Sketch 49.3 (51167) - http://www.bohemiancoding.com/sketch -->
    <title>_x31_4c12I_1_</title>
    <desc>Created with Sketch.</desc>
    <defs></defs>
    <g id="Page-1" stroke="none" stroke-width="1" fill="none" fill-rule="evenodd">
        <g id="plork-logos" transform="translate(-971.000000, -68.000000)" fill-rule="nonzero">
            <g id="_x31_4c12I_1_" transform="translate(971.000000, 68.000000)">
                <g id="Group">
                    <path d="M0.2,38.9 C0.2,26.2 0.2,13.5 0.2,0.9 C33.7,0.9 67.2,0.9 100.7,0.9 C100.7,13.6 100.7,26.3 100.7,38.9 C67.2,38.9 33.7,38.9 0.2,38.9 Z M49.3,5 C48.4,5.1 47.5,5.2 46.7,5.4 C44.2,5.9 42.3,7.2 40.9,9.3 C39.9,10.9 39.4,12.7 39.2,14.5 C39,16.2 39.1,17.9 39.5,19.5 C39.9,21.4 40.9,23 42.2,24.4 C43.2,25.5 44.2,26.5 45.4,27.3 C46.6,28.1 47.8,28.9 49,29.6 C50.6,30.6 52.3,31.3 54,31.9 C54.8,32.2 55.6,32.5 56.4,32.4 C56.7,32.4 57.2,32.2 57.3,31.9 C57.6,31.2 57.8,30.5 57.9,29.7 C58.1,28.4 58.1,27.2 58.3,25.9 C58.4,25.3 58.5,24.8 58.6,24.2 C58.7,22.6 58.9,21 59.3,19.5 C59.5,18.6 59.7,17.7 59.7,16.8 C59.8,14.9 59.6,13 58.9,11.2 C58.5,10 57.9,9 57.1,8.1 C56.1,7 54.9,6.2 53.4,5.7 C52,5.3 50.7,5.1 49.3,5 Z M79.8,19 C79.9,19 79.9,19 80,18.9 C80.1,19 80.2,19.1 80.3,19.3 C81.2,20.7 81.9,22.1 82.9,23.5 C83.9,24.9 85,26.3 86.2,27.6 C87.1,28.6 88.1,29.5 89,30.5 C89.6,31.1 90.2,31.6 91.1,31.7 C92.2,31.7 93.3,31.8 94.4,31.9 C94.7,31.9 94.9,31.8 95.2,31.8 C95,31.6 94.9,31.3 94.7,31.1 C93.4,29.8 92,28.5 90.7,27.2 C88.3,24.6 86.2,21.7 84.4,18.7 C84.3,18.5 84.3,18.2 84.5,18 C85,17.3 85.5,16.7 86,16 C87,14.7 88,13.4 89,12.2 C89.1,12.1 89.1,12 89.1,12 C89,11.9 88.9,11.9 88.8,11.9 C87.5,11.9 86.1,11.9 84.8,11.9 C84.6,11.9 84.4,12 84.3,12.1 C83.2,13.6 82.1,15.2 81,16.8 C80.7,17.2 80.4,17.5 80.2,17.9 C80.2,17.9 80.1,17.9 80.1,17.8 C80.1,17.6 80,17.5 80,17.3 C80,13.6 80,9.9 80,6.2 C80,5.8 79.8,5.6 79.4,5.6 C78.3,5.6 77.2,5.6 76.1,5.6 C75.8,5.6 75.7,5.7 75.7,6.1 C75.7,7 75.7,7.9 75.7,8.8 C75.7,12.4 75.7,16 75.7,19.7 C75.7,21 75.9,22.3 76.3,23.6 C77.1,26 78.3,28.2 80,30.1 C80.6,30.8 81.2,31.5 82.3,31.5 C83.3,31.5 84.3,31.5 85.2,31.5 C85.3,31.5 85.3,31.5 85.4,31.4 C85.2,31.2 85.1,31 85,30.9 C84.4,30.2 83.8,29.6 83.3,28.9 C82.2,27.5 81.5,25.9 80.8,24.2 C80.3,22.8 80,21.5 80,20 C79.8,19.6 79.8,19.3 79.8,19 Z M13.7,29.7 C13.6,29.6 13.6,29.5 13.5,29.4 C12.2,27.8 11.3,26.1 10.7,24.2 C10.5,23.5 10.1,22.9 10.1,22.2 C10,21.2 10,20.1 9.9,19.1 C9.9,18.7 10.1,18.5 10.4,18.5 C11.2,18.5 11.9,18.5 12.7,18.5 C14.5,18.5 16.2,18.3 17.8,17.4 C18.8,16.8 19.5,16.1 20.1,15 C20.8,13.7 20.8,12.3 20.7,10.9 C20.6,9.3 19.8,7.9 18.4,7 C17.3,6.2 16,5.8 14.6,5.7 C11.7,5.6 8.7,5.6 5.8,5.6 C5.4,5.6 5.4,5.8 5.4,6.1 C5.4,10.9 5.4,15.8 5.5,20.6 C5.5,21.4 5.7,22.2 5.9,23 C6.1,23.6 6.4,24.3 6.6,24.9 C7.1,26.3 7.9,27.6 8.8,28.8 C9.1,29.2 9.5,29.6 9.9,29.6 C11.1,29.8 12.4,29.7 13.7,29.7 Z M41.6,30.3 C41.6,30.2 41.7,30.2 41.7,30.1 C41.6,30 41.6,29.9 41.5,29.7 C40.3,28.2 39.1,26.6 38.6,24.6 C38.4,24.1 38.2,23.8 37.6,23.9 C37.3,23.9 37.1,23.9 36.8,23.9 C34.4,23.9 32,23.9 29.6,23.9 C29.4,23.9 29,23.8 29,23.6 C28.5,22.6 28.3,21.5 28.3,20.3 C28.3,17.1 28.3,14 28.3,10.8 C28.3,9.2 28.3,7.6 28.3,5.9 C28.3,5.6 28.2,5.4 27.9,5.4 C26.6,5.4 25.4,5.4 24.1,5.4 C23.8,5.4 23.7,5.5 23.7,5.8 C23.7,6.2 23.7,6.6 23.7,7 C23.7,11.5 23.7,16 23.7,20.5 C23.7,21 23.7,21.5 23.9,21.9 C24.2,22.9 24.6,23.9 25,24.9 C25.6,26.6 26.6,28.1 27.7,29.4 C27.9,29.6 28.2,29.7 28.4,29.8 C28.7,29.9 29.1,29.9 29.4,29.9 C33,30 36.7,30 40.3,30.1 C40.7,30.3 41.1,30.3 41.6,30.3 Z M67.3,14.2 C67.2,14.2 67.2,14.2 67.1,14.2 C67.1,13.6 67,13.1 67,12.5 C67,12.2 66.9,12 66.5,12 C65.5,12 64.5,12 63.5,12 C63.1,12 62.9,12.1 63,12.5 C63,12.8 63.1,13 63.1,13.3 C63.1,15.6 63.1,17.9 63.2,20.2 C63.2,20.9 63.2,21.7 63.5,22.4 C64.3,25 65.4,27.6 67.3,29.7 C68,30.5 68.7,31.1 69.9,31 C70.5,30.9 71.1,31 71.7,31 C72,31 72.3,31 72.7,30.9 C72.5,30.7 72.5,30.5 72.4,30.4 C72.2,30.1 71.9,29.8 71.6,29.6 C70.3,28.1 69.4,26.4 68.6,24.5 C67.7,22.4 67.5,20.2 67.8,18 C67.9,17 68.4,16.3 69.3,16 C70.1,15.8 71,15.7 71.8,15.6 C72.1,15.6 72.3,15.5 72.3,15.1 C72.3,14.1 72.3,13.1 72.3,12.1 C72.3,11.7 72.1,11.6 71.8,11.6 C71.5,11.6 71.1,11.7 70.8,11.7 C69.5,11.8 68.5,12.4 67.8,13.5 C67.6,13.8 67.4,14 67.3,14.2 Z" id="Shape" fill="#FFFFFF"></path>
                    <path d="M49.3,5 C50.7,5 52,5.3 53.3,5.7 C54.8,6.2 56,7 57,8.1 C57.8,9 58.4,10.1 58.8,11.2 C59.4,13 59.6,14.9 59.6,16.8 C59.6,17.7 59.5,18.7 59.2,19.5 C58.8,21.1 58.6,22.6 58.5,24.2 C58.5,24.8 58.3,25.3 58.2,25.9 C58.1,27.2 58,28.4 57.8,29.7 C57.7,30.4 57.5,31.2 57.2,31.9 C57.1,32.1 56.7,32.3 56.3,32.4 C55.4,32.5 54.7,32.2 53.9,31.9 C52.1,31.3 50.5,30.5 48.9,29.6 C47.7,28.9 46.5,28 45.3,27.3 C44.1,26.5 43.1,25.5 42.1,24.4 C40.8,23 39.8,21.4 39.4,19.5 C39,17.8 38.9,16.1 39.1,14.5 C39.3,12.7 39.7,10.9 40.8,9.3 C42.2,7.2 44.1,5.9 46.6,5.4 C47.5,5.3 48.4,5.2 49.3,5 Z M44.1,16 C44.1,16.6 44.1,17.2 44.1,17.8 C44.2,18.4 44.3,19 44.4,19.6 C44.9,22.2 47.7,25.4 51.3,25 C52.2,24.9 52.9,24.5 53.2,23.6 C53.7,22.4 54.1,21.1 54.4,19.8 C55,17.1 55,14.4 54.2,11.8 C53.9,10.9 53.5,10 52.7,9.4 C51.7,8.6 50.4,8.2 49.1,8.3 C46.8,8.4 45.3,9.5 44.6,11.8 C44.1,13.2 44,14.6 44.1,16 Z" id="Shape" fill="#000000"></path>
                    <path d="M79.8,19 C79.8,19.3 79.8,19.6 79.8,19.9 C79.8,21.4 80.1,22.7 80.6,24.1 C81.2,25.8 82,27.4 83.1,28.8 C83.7,29.5 84.3,30.2 84.8,30.8 C84.9,31 85,31.1 85.2,31.3 C85.1,31.3 85,31.4 85,31.4 C84,31.4 83,31.4 82.1,31.4 C81,31.4 80.4,30.7 79.8,30 C78.1,28.1 76.9,25.9 76.1,23.5 C75.7,22.2 75.5,20.9 75.5,19.6 C75.5,16 75.5,12.4 75.5,8.7 C75.5,7.8 75.5,6.9 75.5,6 C75.5,5.7 75.6,5.5 75.9,5.5 C77,5.5 78.1,5.5 79.2,5.5 C79.6,5.5 79.8,5.6 79.8,6.1 C79.8,9.8 79.8,13.5 79.8,17.2 C79.8,17.4 79.8,17.5 79.9,17.7 C79.9,17.7 80,17.7 80,17.8 C80.3,17.4 80.6,17.1 80.8,16.7 C81.9,15.1 83,13.6 84.1,12 C84.2,11.9 84.4,11.8 84.6,11.8 C85.9,11.8 87.3,11.8 88.6,11.8 C88.7,11.8 88.8,11.8 88.9,11.9 C88.9,11.9 88.9,12.1 88.8,12.1 C87.8,13.4 86.8,14.7 85.8,15.9 C85.3,16.5 84.8,17.2 84.3,17.9 C84.2,18.1 84.1,18.4 84.2,18.6 C86,21.7 88.1,24.5 90.5,27.1 C91.8,28.5 93.2,29.7 94.5,31 C94.7,31.2 94.8,31.4 95,31.7 C94.7,31.7 94.5,31.8 94.2,31.8 C93.1,31.8 92,31.7 90.9,31.6 C90,31.6 89.4,31 88.8,30.4 C87.9,29.4 86.9,28.5 86,27.5 C84.9,26.2 83.7,24.8 82.7,23.4 C81.8,22.1 81,20.6 80.1,19.2 C80,19.1 79.9,18.9 79.8,18.8 C79.9,18.9 79.9,19 79.8,19 Z" id="Shape" fill="#000000"></path>
                    <path d="M13.7,29.7 C12.3,29.7 11.1,29.8 9.8,29.7 C9.4,29.7 9,29.2 8.7,28.9 C7.8,27.7 7,26.5 6.5,25 C6.3,24.4 6,23.8 5.8,23.1 C5.6,22.3 5.4,21.5 5.4,20.7 C5.3,15.9 5.4,11 5.3,6.2 C5.3,5.9 5.3,5.7 5.7,5.7 C8.6,5.7 11.6,5.7 14.5,5.8 C15.8,5.9 17.1,6.3 18.3,7.1 C19.7,8 20.4,9.4 20.6,11 C20.7,12.4 20.7,13.8 20,15.1 C19.5,16.1 18.7,16.9 17.7,17.5 C16.1,18.4 14.4,18.7 12.6,18.6 C11.8,18.6 11.1,18.6 10.3,18.6 C9.9,18.6 9.7,18.7 9.8,19.2 C9.9,20.2 9.9,21.3 10,22.3 C10.1,23 10.4,23.6 10.6,24.3 C11.2,26.2 12.2,28 13.4,29.5 C13.6,29.5 13.7,29.6 13.7,29.7 Z M9.8,12.1 C9.8,12.1 9.8,12.1 9.8,12.1 C9.8,12.9 9.8,13.7 9.8,14.5 C9.8,14.8 9.9,15 10.3,15 C11.2,15 12.2,15 13.1,15 C13.6,15 14.1,14.8 14.6,14.6 C15.9,13.9 16.3,11.6 15.4,10.3 C14.9,9.4 13.9,9.2 13,9.1 C12.1,9 11.3,9.1 10.4,9.1 C10,9.1 9.8,9.3 9.9,9.7 C9.8,10.5 9.8,11.3 9.8,12.1 Z" id="Shape" fill="#000000"></path>
                    <path d="M41.6,30.3 C41.1,30.3 40.7,30.3 40.2,30.3 C36.6,30.2 32.9,30.2 29.3,30.1 C29,30.1 28.6,30.1 28.3,30 C28,29.9 27.7,29.8 27.6,29.6 C26.4,28.2 25.5,26.8 24.9,25.1 C24.5,24.1 24.2,23.1 23.8,22.1 C23.7,21.7 23.6,21.2 23.6,20.7 C23.6,16.2 23.6,11.7 23.6,7.2 C23.6,6.8 23.6,6.4 23.6,6 C23.6,5.7 23.7,5.6 24,5.6 C25.3,5.6 26.5,5.6 27.8,5.6 C28.1,5.6 28.2,5.8 28.2,6.1 C28.2,7.7 28.2,9.3 28.2,11 C28.2,14.2 28.2,17.3 28.2,20.5 C28.2,21.6 28.4,22.7 28.9,23.8 C29,24 29.3,24.1 29.5,24.1 C31.9,24.1 34.3,24.1 36.7,24.1 C37,24.1 37.2,24.2 37.5,24.1 C38.1,24 38.4,24.3 38.5,24.8 C39.1,26.7 40.2,28.3 41.4,29.9 C41.5,30 41.6,30.1 41.6,30.3 C41.6,30.2 41.6,30.3 41.6,30.3 Z" id="Shape" fill="#000000"></path>
                    <path d="M67.3,14.2 C67.4,14 67.6,13.8 67.7,13.6 C68.4,12.5 69.4,11.9 70.7,11.8 C71,11.8 71.4,11.7 71.7,11.7 C72,11.7 72.2,11.8 72.2,12.2 C72.2,13.2 72.2,14.2 72.2,15.2 C72.2,15.5 72.1,15.6 71.7,15.7 C70.9,15.8 70,15.8 69.2,16.1 C68.3,16.4 67.8,17.1 67.7,18.1 C67.4,20.4 67.7,22.5 68.5,24.6 C69.2,26.5 70.2,28.2 71.5,29.7 C71.7,30 72,30.3 72.3,30.5 C72.4,30.6 72.5,30.8 72.6,31 C72.2,31 71.9,31.1 71.6,31.1 C71,31.1 70.4,31 69.8,31.1 C68.6,31.2 67.9,30.6 67.2,29.8 C65.3,27.7 64.3,25.1 63.4,22.5 C63.2,21.8 63.2,21 63.1,20.3 C63,18 63,15.7 63,13.4 C63,13.1 63,12.9 62.9,12.6 C62.8,12.2 63,12.1 63.4,12.1 C64.4,12.1 65.4,12.1 66.4,12.1 C66.7,12.1 66.9,12.3 66.9,12.6 C66.9,13.2 67,13.7 67,14.3 C67.2,14.2 67.2,14.2 67.3,14.2 Z" id="Shape" fill="#000000"></path>
                    <path d="M44.1,16 C44,14.6 44.2,13.2 44.6,11.8 C45.3,9.6 46.8,8.5 49.1,8.3 C50.4,8.2 51.6,8.5 52.7,9.4 C53.5,10 53.9,10.9 54.2,11.8 C55,14.5 55,17.1 54.4,19.8 C54.1,21.1 53.6,22.3 53.2,23.6 C52.9,24.4 52.2,24.9 51.3,25 C47.7,25.4 45,22.2 44.4,19.6 C44.3,19 44.1,18.4 44.1,17.8 C44,17.2 44.1,16.6 44.1,16 Z" id="Shape" fill="#FFFFFF"></path>
                    <path d="M9.8,12.1 C9.8,11.3 9.8,10.5 9.8,9.7 C9.8,9.3 9.9,9.1 10.3,9.1 C11.2,9.1 12.1,9 12.9,9.1 C13.8,9.2 14.7,9.4 15.3,10.3 C16.1,11.6 15.7,13.9 14.5,14.6 C14.1,14.8 13.5,15 13,15 C12.1,15.1 11.1,15 10.2,15 C9.8,15 9.7,14.8 9.7,14.5 C9.8,13.7 9.8,12.9 9.8,12.1 C9.8,12.1 9.8,12.1 9.8,12.1 Z" id="Shape" fill="#FFFFFF"></path>
                </g>
            </g>
        </g>
    </g>
</svg>