<?xml version="1.0" encoding="UTF-8"?>
<svg width="130px" height="43px" viewBox="0 0 130 43" version="1.1" xmlns="http://www.w3.org/2000/svg" xmlns:xlink="http://www.w3.org/1999/xlink">
    <!-- Generator: Sketch 49.3 (51167) - http://www.bohemiancoding.com/sketch -->
    <title>_x37_FB7xs_1_</title>
    <desc>Created with Sketch.</desc>
    <defs></defs>
    <g id="Page-1" stroke="none" stroke-width="1" fill="none" fill-rule="evenodd">
        <g id="plork-logos" transform="translate(-684.000000, -52.000000)" fill-rule="nonzero">
            <g id="_x37_FB7xs_1_" transform="translate(684.000000, 52.000000)">
                <g id="Group">
                    <path d="M0.8,42.1 C0.8,28.3 0.8,14.6 0.8,0.8 C43.6,0.8 86.5,0.8 129.3,0.8 C129.3,14.6 129.3,28.3 129.3,42.1 C86.4,42.1 43.6,42.1 0.8,42.1 Z M68.2,33.6 C69.7,33.4 71.2,33.2 72.6,32.9 C73.7,32.7 74.7,32.4 75.8,32.1 C77.6,31.6 79.4,31.1 81.2,30.5 C81.8,30.3 82.5,29.7 82.8,29.1 C83.8,27.3 84.3,25.3 84.3,23.2 C84.3,22.6 84.3,22 84.1,21.4 C83.6,20.1 82.6,19.2 81.5,18.4 C79.1,16.8 76.7,15.3 74.3,13.8 C72.2,12.5 70.2,11.2 68.8,9 C66.9,6.1 63.9,4.8 60.5,4.6 C57.9,4.4 55.4,4.7 53.1,5.9 C51.5,6.7 50.1,7.8 49.1,9.4 C48.5,10.4 48.5,11.2 49.3,12 C49.7,12.4 50.2,12.8 50.7,13.2 C52.3,14.4 54,15.6 55.6,16.8 C56.6,17.6 57.6,18.3 58.5,19.2 C59.3,20 60,21 60.2,22.2 C60.3,22.8 60.3,23.5 60.4,24.1 C60.5,25.9 60.9,27.5 61.7,29.1 C62,29.7 62,30.3 61.8,30.9 C61.5,31.8 61.5,32 62.4,32.5 C62.7,32.7 63,32.8 63.4,32.9 C64.9,33.4 66.5,33.5 68.2,33.6 Z M19,34.8 C19.4,34.8 20,34.8 20.5,34.8 C21.4,34.8 21.4,34.8 21.7,33.9 C22,32.9 22.5,32 23.6,31.6 C23.9,31.5 24.2,31.3 24.5,31.1 C25.2,30.6 26,30.2 26,29.2 C26.1,28.5 26,27.8 26,27 C26,26.1 26,26 27,26 C28.9,25.9 30.8,26.1 32.7,25.5 C34.5,25 36,24.2 37.2,22.7 C37.7,22.1 37.9,21.3 37.5,20.6 C37.1,19.9 36.6,19.2 36,18.6 C35.1,17.8 34,17.1 33,16.4 C31.5,15.4 30,14.3 28.4,13.4 C26.7,12.3 25.1,11.1 23.9,9.5 C23.2,8.4 22.1,7.8 20.9,7.4 C19.2,6.8 17.5,6.7 15.7,6.7 C13.3,6.8 11,6.9 8.6,6.9 C7.1,7 7,7 7.1,8.5 C7.2,9.8 7.4,11.1 8.6,11.9 C10.8,13.4 13.1,14.9 15.3,16.5 C16.5,17.4 17.8,18.2 18.9,19.2 C19.8,20 20.5,20.9 20.6,22.1 C20.7,23.3 20.8,24.4 20.8,25.6 C20.8,26.8 20.8,28.1 20.7,29.3 C20.7,29.7 20.4,30.1 20.1,30.3 C19.6,30.7 19.1,31 18.5,31.3 C17.5,31.8 16.7,32.5 16.5,33.7 C16.5,33.8 16.4,33.9 16.4,34 C16.2,34.6 16.3,34.7 16.9,34.7 C17.6,34.8 18.2,34.8 19,34.8 Z M110.9,31.7 C110.9,31.7 111,31.8 111,31.8 C112.8,31.8 114.6,31.8 116.4,31.8 C116.6,31.8 116.8,31.7 116.9,31.5 C117.3,30.8 117.4,30.1 117,29.4 C116,27.9 115,26.4 114,24.9 C113,23.4 112.9,23.9 114,22.3 C114.7,21.3 114.7,20.1 114,19.2 C113.7,18.8 113.4,18.3 113,17.9 C111.3,16.4 109.6,15 107.9,13.5 C107.3,13 106.6,12.4 106.2,11.7 C105.9,11.2 105.6,11 105.1,11 C104,11.1 102.8,11.1 101.7,11.2 C101.3,11.2 100.9,11.3 100.5,11.4 C100.7,11.8 100.9,12.3 101.2,12.6 C102.8,14 104.5,15.4 106.1,16.7 C107.2,17.6 108.2,18.4 108.9,19.7 C109.4,20.7 109.1,22.3 108.2,23 C108.1,22.8 108.1,22.6 108,22.4 C107.7,21.7 107.6,20.8 107.1,20.3 C106.4,19.4 105.5,18.6 104.5,17.9 C101.8,16 99,14.2 96.2,12.3 C95.5,11.8 94.8,11.1 94.7,10.2 C94.6,9.6 94.5,9 94.5,8.3 C94.4,7.1 94.4,5.9 94.4,4.7 C94.4,4 94.3,3.9 93.6,3.9 C92.4,3.9 91.1,4 89.9,4 C89.3,4 89.2,4.2 89.2,4.8 C89.3,6.4 89.3,8 89.4,9.5 C89.4,10.3 89.6,11 90.3,11.5 C90.8,11.9 91.3,12.4 91.9,12.8 C94.1,14.3 96.3,15.7 98.5,17.2 C99.5,17.9 100.5,18.8 101.5,19.7 C102.5,20.7 102.9,21.9 102.9,23.3 C102.8,25.3 102.9,27.3 102.9,29.3 C102.9,29.6 102.8,30 102.6,30.2 C102.3,30.6 101.8,30.8 101.4,31.1 C101,31.4 100.6,31.6 100.3,31.8 C100.3,31.8 100.3,31.9 100.4,31.9 C101.5,31.9 102.6,31.8 103.6,31.9 C105,32 106,31.4 107.1,30.7 C107.8,30.2 108.2,29.6 108.2,28.8 C108.2,27.6 108.2,26.4 108.2,25.2 C108.2,25 108.3,24.7 108.3,24.5 C108.5,24.6 108.7,24.7 108.7,24.9 C109.3,26 109.9,27.2 110.6,28.3 C111.4,29.4 111.7,30.4 110.9,31.7 C110.9,31.6 110.9,31.6 110.9,31.7 Z M46.5,30.9 C46.6,30.6 46.7,30.5 46.7,30.4 C47.1,29.8 47.3,29.2 47.3,28.5 C47.3,26.7 47.3,25 47.3,23.2 C47.3,22.7 47.2,22.3 47.1,21.8 C46.7,20.4 45.7,19.3 44.6,18.5 C41.7,16.5 38.7,14.5 35.8,12.5 C34.8,11.8 33.9,11 33.8,9.6 C33.7,8.6 33.6,7.7 33.7,6.7 C33.7,6.2 33.5,6 33,6 C31.6,6.1 30.2,6.1 28.7,6.1 C28.3,6.1 28.2,6.3 28.3,6.6 C28.4,7.4 28.5,8.2 28.5,9 C28.5,10.4 29.3,11.4 30.3,12.1 C32.2,13.4 34.1,14.6 35.9,15.9 C37.2,16.8 38.5,17.7 39.8,18.7 C41.1,19.7 42,21 42.1,22.8 C42.1,24.3 41.9,25.9 42.1,27.4 C42.4,29.6 41.3,30.8 39.4,31.6 C38.5,32 37.9,32.8 37.8,33.9 C38,33.9 38.1,33.9 38.2,33.9 C40,33.8 41.8,33.8 43.6,33.7 C46.9,33.6 50.2,33.5 53.5,33.4 C53.9,33.4 54.2,33.3 54.3,32.9 C54.5,32.2 55,31.8 55.6,31.5 C56.1,31.2 56.6,30.9 57,30.7 C57,30.6 57,30.6 56.9,30.5 C53.5,30.7 50.1,30.8 46.5,30.9 Z M85.3,32.2 C85.3,32.3 85.4,32.3 85.4,32.4 C85.5,32.4 85.5,32.5 85.6,32.4 C87.1,32.4 88.6,32.3 90,32.3 C90.2,32.3 90.4,32.2 90.6,32.1 C91.2,31.8 91.8,31.4 92.3,31 C93.1,30.4 93.8,29.8 93.7,28.6 C93.6,27.4 93.6,26.2 93.7,25 C93.8,24.1 93.9,23.2 94.2,22.4 C94.6,21.3 95.5,20.8 96.6,20.6 C97,20.6 97.5,20.5 97.9,20.5 C98.3,20.5 98.4,20.3 98.1,20 C98,19.9 97.9,19.8 97.8,19.7 C96.6,18.4 95.2,17.5 93.8,16.5 C91.5,15 89.3,13.4 87.1,11.9 C86.6,11.6 85.7,11.6 85.3,11.9 C85.1,12.1 85,12.4 85,12.7 C85,12.9 85.2,13.2 85.3,13.4 C86.5,14.6 87.8,15.7 89,16.9 C89.2,17 89.3,17.2 89.5,17.3 C89.5,17.3 89.4,17.4 89.4,17.4 C89.1,17.3 88.8,17.2 88.6,17 C87.3,16.1 85.9,15.2 84.6,14.3 C82.9,13.2 81.3,11.9 79.1,12.5 C78.8,12.6 78.5,12.6 78.2,12.6 C78.1,12.6 78,12.7 77.7,12.8 C77.9,12.9 78.1,13 78.2,13.1 C78.8,13.5 79.4,13.9 80,14.3 C82.3,15.8 84.8,17.2 86.8,19.1 C87.9,20.1 88.5,21.2 88.5,22.7 C88.5,24.3 88.4,25.9 88.6,27.5 C88.8,29.3 88.1,30.5 86.4,31.2 C86.1,31.7 85.7,32 85.3,32.2 Z" id="Shape" fill="#FFFFFF"></path>
                    <path d="M68.2,33.6 C66.5,33.6 64.9,33.4 63.3,32.9 C63,32.8 62.6,32.7 62.3,32.5 C61.5,32.1 61.4,31.8 61.7,30.9 C61.9,30.3 61.9,29.7 61.6,29.1 C60.8,27.5 60.4,25.8 60.3,24.1 C60.3,23.5 60.2,22.8 60.1,22.2 C60,21 59.3,20 58.4,19.2 C57.5,18.3 56.5,17.6 55.5,16.8 C53.9,15.6 52.2,14.4 50.6,13.2 C50.1,12.8 49.6,12.5 49.2,12 C48.3,11.1 48.3,10.4 49,9.4 C50,7.8 51.3,6.7 53,5.9 C55.3,4.7 57.8,4.5 60.4,4.6 C63.8,4.8 66.8,6.1 68.7,9 C70.1,11.2 72.1,12.5 74.2,13.8 C76.6,15.3 79,16.8 81.4,18.4 C82.5,19.1 83.5,20.1 84,21.4 C84.2,21.9 84.3,22.6 84.2,23.2 C84.2,25.3 83.7,27.3 82.7,29.1 C82.4,29.7 81.7,30.3 81.1,30.5 C79.3,31.1 77.5,31.6 75.7,32.1 C74.7,32.4 73.6,32.7 72.5,32.9 C71.2,33.2 69.7,33.3 68.2,33.6 Z M78.6,22.9 C78.7,22.2 78.6,21.4 78.1,20.7 C77.6,20 77,19.3 76.4,18.8 C74.2,17.3 72,15.8 69.7,14.4 C68,13.3 66.2,12.2 64.5,11 C63.9,10.6 63.5,10 63,9.6 C60.9,7.9 57.7,7.9 55.5,9.4 C54.5,10.1 54.1,11.1 55.1,12.1 C55.4,12.4 55.7,12.7 56.1,13 C58.4,14.7 60.8,16.4 63.1,18.1 C63.9,18.7 64.5,19.4 65.1,20.2 C66.1,21.3 66,22.8 66.1,24.1 C66.3,26.2 66.9,28.1 68.2,29.7 C68.8,30.4 69.4,30.7 70.3,30.7 C71.6,30.6 72.8,30.6 74.1,30.4 C75.8,30.1 77.1,29.3 77.8,27.6 C78.4,26.2 78.7,24.7 78.6,22.9 Z" id="Shape" fill="#000000"></path>
                    <path d="M19,34.8 C18.2,34.8 17.6,34.9 16.9,34.9 C16.3,34.9 16.2,34.8 16.4,34.2 C16.4,34.1 16.5,34 16.5,33.9 C16.7,32.7 17.5,32.1 18.5,31.5 C19.1,31.2 19.6,30.9 20.1,30.5 C20.4,30.3 20.7,29.9 20.7,29.5 C20.8,28.3 20.8,27 20.8,25.8 C20.8,24.6 20.7,23.5 20.6,22.3 C20.5,21.1 19.7,20.2 18.9,19.4 C17.8,18.4 16.5,17.5 15.3,16.7 C13.1,15.2 10.8,13.7 8.6,12.1 C7.4,11.3 7.2,10 7.1,8.7 C7,7.2 7,7.1 8.6,7.1 C11,7 13.3,6.9 15.7,6.9 C17.5,6.9 19.2,7 20.9,7.6 C22.1,8 23.2,8.6 23.9,9.7 C25.1,11.4 26.7,12.6 28.4,13.6 C30,14.6 31.5,15.6 33,16.6 C34,17.3 35.1,18 36,18.8 C36.6,19.3 37.1,20 37.5,20.8 C37.9,21.5 37.7,22.3 37.2,22.9 C36.1,24.4 34.5,25.2 32.7,25.7 C30.8,26.2 28.9,26.1 27,26.2 C26,26.2 26,26.2 26,27.2 C26,27.9 26,28.6 26,29.4 C25.9,30.4 25.2,30.8 24.5,31.3 C24.2,31.5 23.9,31.7 23.6,31.8 C22.5,32.2 22.1,33.1 21.7,34.1 C21.4,35 21.4,35 20.5,35 C20,34.8 19.4,34.8 19,34.8 Z M27.9,21.9 C27.9,22 27.9,22 27.9,21.9 C28.8,21.9 29.7,21.8 30.5,21.6 C31.6,21.3 31.9,20.5 31.2,19.6 C30.8,19 30.3,18.4 29.7,18 C28.2,16.9 26.6,15.8 24.9,14.7 C23.4,13.8 21.8,13 20.3,12 C18.2,10.5 15.8,10.6 13.4,10.8 C13,10.8 12.9,11.2 13.2,11.4 C13.5,11.7 13.9,12.1 14.3,12.3 C15.5,13.1 16.7,13.9 17.9,14.7 C19.5,15.7 21,16.8 22.5,17.9 C23.6,18.7 24.8,19.5 25.3,20.7 C25.8,21.8 26.5,21.9 27.4,21.8 C27.6,21.9 27.8,21.9 27.9,21.9 Z" id="Shape" fill="#000000"></path>
                    <path d="M110.9,31.7 C110.9,31.6 110.9,31.6 110.9,31.7 C111.7,30.5 111.4,29.4 110.7,28.3 C110,27.2 109.4,26 108.8,24.9 C108.7,24.8 108.6,24.6 108.4,24.5 C108.4,24.7 108.3,25 108.3,25.2 C108.3,26.4 108.3,27.6 108.3,28.8 C108.3,29.6 107.9,30.3 107.2,30.7 C106.1,31.4 105.1,32 103.7,31.9 C102.6,31.8 101.5,31.9 100.5,31.9 C100.5,31.9 100.5,31.8 100.4,31.8 C100.8,31.6 101.2,31.3 101.5,31.1 C101.9,30.8 102.3,30.5 102.7,30.2 C102.9,30 103,29.6 103,29.3 C103,27.3 102.9,25.3 103,23.3 C103.1,21.9 102.6,20.6 101.6,19.7 C100.7,18.8 99.7,18 98.6,17.2 C96.4,15.7 94.2,14.3 92,12.8 C91.4,12.4 90.9,12 90.4,11.5 C89.8,11 89.6,10.3 89.5,9.5 C89.4,7.9 89.4,6.3 89.3,4.8 C89.3,4.2 89.5,4 90,4 C91.2,4 92.5,3.9 93.7,3.9 C94.4,3.9 94.5,4 94.5,4.7 C94.5,5.9 94.5,7.1 94.6,8.3 C94.6,8.9 94.7,9.5 94.8,10.2 C94.9,11.2 95.6,11.8 96.3,12.3 C99,14.2 101.8,16 104.6,17.9 C105.5,18.6 106.4,19.4 107.2,20.3 C107.7,20.9 107.8,21.7 108.1,22.4 C108.2,22.6 108.2,22.8 108.3,23 C109.2,22.3 109.5,20.7 109,19.7 C108.4,18.4 107.3,17.6 106.2,16.7 C104.6,15.3 102.9,14 101.3,12.6 C101,12.3 100.8,11.8 100.6,11.4 C101,11.3 101.4,11.2 101.8,11.2 C102.9,11.1 104.1,11.1 105.2,11 C105.7,11 106,11.2 106.3,11.7 C106.7,12.4 107.3,13 108,13.5 C109.7,15 111.4,16.4 113.1,17.9 C113.5,18.3 113.8,18.7 114.1,19.2 C114.8,20.1 114.7,21.4 114.1,22.3 C113,23.8 113.1,23.4 114.1,24.9 C115.1,26.4 116.1,27.9 117.1,29.4 C117.5,30.1 117.4,30.8 117,31.5 C116.9,31.6 116.7,31.8 116.5,31.8 C114.7,31.8 112.9,31.8 111.1,31.8 C111,31.7 111,31.7 110.9,31.7 Z" id="Shape" fill="#000000"></path>
                    <path d="M46.5,30.9 C50.1,30.8 53.5,30.7 57,30.6 C57,30.7 57,30.7 57.1,30.8 C56.6,31.1 56.1,31.4 55.7,31.6 C55.1,31.9 54.6,32.3 54.4,33 C54.3,33.4 54,33.5 53.6,33.5 C50.3,33.6 47,33.7 43.7,33.8 C41.9,33.9 40.1,33.9 38.3,34 C38.2,34 38.1,34 37.9,34 C38.1,33 38.6,32.1 39.5,31.7 C41.4,30.9 42.4,29.7 42.2,27.5 C42,26 42.2,24.5 42.2,22.9 C42.2,21.1 41.3,19.8 39.9,18.8 C38.7,17.8 37.3,16.9 36,16 C34.1,14.7 32.2,13.5 30.4,12.2 C29.3,11.5 28.6,10.5 28.6,9.1 C28.6,8.3 28.5,7.5 28.4,6.7 C28.4,6.4 28.5,6.2 28.8,6.2 C30.2,6.2 31.6,6.1 33.1,6.1 C33.6,6.1 33.8,6.2 33.8,6.8 C33.8,7.8 33.9,8.7 33.9,9.7 C34,11.1 34.9,11.9 35.9,12.6 C38.8,14.6 41.8,16.6 44.7,18.6 C45.9,19.4 46.8,20.5 47.2,21.9 C47.3,22.3 47.4,22.8 47.4,23.3 C47.4,25.1 47.4,26.8 47.4,28.6 C47.4,29.3 47.3,29.9 46.8,30.5 C46.7,30.5 46.6,30.6 46.5,30.9 Z" id="Shape" fill="#000000"></path>
                    <path d="M85.3,32.2 C85.7,32 86.1,31.7 86.5,31.5 C88.2,30.8 88.9,29.6 88.7,27.8 C88.5,26.2 88.6,24.6 88.6,23 C88.6,21.5 88,20.4 86.9,19.4 C84.8,17.5 82.4,16.1 80.1,14.6 C79.5,14.2 78.9,13.8 78.3,13.4 C78.2,13.3 78,13.2 77.8,13.1 C78.1,13 78.2,12.9 78.3,12.9 C78.6,12.9 78.9,12.9 79.2,12.8 C81.4,12.2 83.1,13.5 84.7,14.6 C86,15.5 87.4,16.4 88.7,17.3 C88.9,17.5 89.2,17.6 89.5,17.7 C89.5,17.7 89.6,17.6 89.6,17.6 C89.4,17.5 89.3,17.3 89.1,17.2 C87.9,16 86.6,14.9 85.4,13.7 C85.2,13.5 85.1,13.3 85.1,13 C85.1,12.7 85.2,12.4 85.4,12.2 C85.8,11.8 86.8,11.9 87.2,12.2 C89.4,13.7 91.6,15.3 93.9,16.8 C95.3,17.7 96.8,18.7 97.9,20 C98,20.1 98.1,20.2 98.2,20.3 C98.4,20.6 98.3,20.8 98,20.8 C97.6,20.8 97.1,20.8 96.7,20.9 C95.6,21 94.7,21.6 94.3,22.7 C94,23.5 93.9,24.4 93.8,25.3 C93.7,26.5 93.7,27.7 93.8,28.9 C93.9,30 93.2,30.7 92.4,31.3 C91.8,31.7 91.3,32 90.7,32.4 C90.5,32.5 90.3,32.6 90.1,32.6 C88.6,32.7 87.1,32.7 85.7,32.7 C85.6,32.7 85.6,32.7 85.5,32.7 C85.4,32.3 85.4,32.2 85.3,32.2 Z" id="Shape" fill="#000000"></path>
                    <path d="M78.6,22.9 C78.6,24.7 78.3,26.2 77.7,27.7 C77,29.4 75.7,30.3 74,30.5 C72.8,30.7 71.5,30.8 70.2,30.8 C69.4,30.8 68.7,30.5 68.1,29.8 C66.7,28.2 66.1,26.3 66,24.2 C65.9,22.9 66,21.4 65,20.3 C64.4,19.6 63.7,18.8 63,18.2 C60.7,16.4 58.3,14.8 56,13.1 C55.6,12.8 55.3,12.5 55,12.2 C54,11.1 54.3,10.2 55.4,9.5 C57.6,8 60.8,8 62.9,9.7 C63.4,10.1 63.9,10.7 64.4,11.1 C66.1,12.3 67.9,13.3 69.6,14.5 C71.8,16 74.1,17.4 76.3,18.9 C77,19.4 77.5,20.1 78,20.8 C78.7,21.4 78.7,22.2 78.6,22.9 Z" id="Shape" fill="#FFFFFF"></path>
                    <path d="M27.9,21.9 C27.8,21.9 27.7,21.9 27.5,21.9 C26.5,22 25.8,21.9 25.4,20.8 C24.9,19.6 23.7,18.7 22.6,18 C21.1,16.9 19.5,15.9 18,14.8 C16.8,14 15.6,13.2 14.4,12.4 C14,12.1 13.7,11.8 13.3,11.5 C13,11.2 13.1,10.9 13.5,10.9 C15.9,10.7 18.2,10.6 20.4,12.1 C21.9,13.1 23.5,13.8 25,14.8 C26.6,15.8 28.2,16.9 29.8,18.1 C30.4,18.5 30.9,19.1 31.3,19.7 C32,20.6 31.7,21.4 30.6,21.7 C29.6,21.8 28.8,21.9 27.9,21.9 C27.9,22 27.9,22 27.9,21.9 Z" id="Shape" fill="#FFFFFF"></path>
                </g>
            </g>
        </g>
    </g>
</svg>